<svg width="70" height="126" viewBox="0 0 70 126" fill="none" xmlns="http://www.w3.org/2000/svg">
<path d="M34.8 102.2C28.2 102.2 22.8333 101.033 18.7 98.7C14.6333 96.3667 11.4333 93.4 9.1 89.8C6.83333 86.2 5.3 82.2667 4.5 78C3.7 73.6667 3.3 69.5333 3.3 65.6C3.3 61.6667 3.7 57.5667 4.5 53.3C5.3 48.9667 6.83333 45 9.1 41.4C11.4333 37.8 14.6333 34.8333 18.7 32.5C22.8333 30.1667 28.2 29 34.8 29C41.4 29 46.7333 30.1667 50.8 32.5C54.9333 34.8333 58.1333 37.8 60.4 41.4C62.7333 45 64.3 48.9667 65.1 53.3C65.9 57.5667 66.3 61.6667 66.3 65.6C66.3 69.5333 65.9 73.6667 65.1 78C64.3 82.2667 62.7333 86.2 60.4 89.8C58.1333 93.4 54.9333 96.3667 50.8 98.7C46.7333 101.033 41.4 102.2 34.8 102.2ZM34.8 83.9C36.2 83.9 37.3333 83.4 38.2 82.4C39.0667 81.3333 39.7 79.9667 40.1 78.3C40.5667 76.5667 40.8667 74.6 41 72.4C41.2 70.2 41.3 67.9333 41.3 65.6C41.3 63.2667 41.2 61 41 58.8C40.8667 56.6 40.5667 54.6667 40.1 53C39.7 51.2667 39.0667 49.9 38.2 48.9C37.3333 47.8333 36.2 47.3 34.8 47.3C33.4 47.3 32.2667 47.8333 31.4 48.9C30.6 49.9 29.9667 51.2667 29.5 53C29.0333 54.6667 28.7 56.6 28.5 58.8C28.3667 61 28.3 63.2667 28.3 65.6C28.3 67.9333 28.3667 70.2 28.5 72.4C28.7 74.6 29.0333 76.5667 29.5 78.3C29.9667 79.9667 30.6 81.3333 31.4 82.4C32.2667 83.4 33.4 83.9 34.8 83.9Z" fill="#5CCE2E"/>
<path d="M18.7 98.7L17.9535 100.001L17.9626 100.006L18.7 98.7ZM9.1 89.8L7.83065 90.5992L7.83591 90.6076L7.84127 90.6158L9.1 89.8ZM4.5 78L3.02492 78.2723L3.02569 78.2764L4.5 78ZM4.5 53.3L5.97431 53.5764L5.97507 53.5723L4.5 53.3ZM9.1 41.4L7.84127 40.5842L7.83591 40.5924L7.83065 40.6008L9.1 41.4ZM18.7 32.5L17.9626 31.1937L17.9535 31.1989L18.7 32.5ZM50.8 32.5L50.0535 33.8011L50.0626 33.8062L50.8 32.5ZM60.4 41.4L59.1307 42.1992L59.1359 42.2076L59.1413 42.2158L60.4 41.4ZM65.1 53.3L63.6249 53.5723L63.6257 53.5764L65.1 53.3ZM65.1 78L66.5743 78.2764L66.5751 78.2723L65.1 78ZM60.4 89.8L59.1413 88.9842L59.1359 88.9924L59.1307 89.0008L60.4 89.8ZM50.8 98.7L50.0626 97.3937L50.0535 97.3989L50.8 98.7ZM38.2 82.4L39.3335 83.3824L39.3491 83.3644L39.3642 83.3459L38.2 82.4ZM40.1 78.3L38.6516 77.91L38.6462 77.9299L38.6414 77.9499L40.1 78.3ZM41 72.4L39.5062 72.2642L39.5041 72.2867L39.5027 72.3093L41 72.4ZM41 58.8L39.5027 58.8907L39.5041 58.9133L39.5062 58.9358L41 58.8ZM40.1 53L38.6384 53.3373L38.6462 53.3711L38.6556 53.4044L40.1 53ZM38.2 48.9L37.0358 49.8459L37.0509 49.8644L37.0665 49.8824L38.2 48.9ZM31.4 48.9L30.2358 47.9541L30.2287 47.963L31.4 48.9ZM29.5 53L30.9444 53.4044L30.9465 53.3972L30.9484 53.39L29.5 53ZM28.5 58.8L27.0062 58.6642L27.0041 58.6867L27.0027 58.7093L28.5 58.8ZM28.5 72.4L27.0027 72.4907L27.0041 72.5133L27.0062 72.5358L28.5 72.4ZM29.5 78.3L28.0516 78.69L28.0535 78.6972L28.0556 78.7044L29.5 78.3ZM31.4 82.4L30.2 83.3L30.2318 83.3424L30.2665 83.3824L31.4 82.4ZM34.8 100.7C28.3625 100.7 23.2748 99.56 19.4374 97.3938L17.9626 100.006C22.3919 102.507 28.0375 103.7 34.8 103.7V100.7ZM19.4465 97.3989C15.5671 95.1731 12.5506 92.3659 10.3587 88.9842L7.84127 90.6158C10.3161 94.4341 13.6995 97.5602 17.9535 100.001L19.4465 97.3989ZM10.3693 89.0008C8.20538 85.5639 6.74023 81.8085 5.97431 77.7236L3.02569 78.2764C3.85977 82.7248 5.46129 86.8361 7.83065 90.5992L10.3693 89.0008ZM5.97507 77.7277C5.18971 73.4736 4.8 69.4319 4.8 65.6H1.8C1.8 69.6348 2.21029 73.8597 3.02493 78.2723L5.97507 77.7277ZM4.8 65.6C4.8 61.7684 5.18966 57.7612 5.97431 53.5764L3.02569 53.0236C2.21034 57.3721 1.8 61.565 1.8 65.6H4.8ZM5.97507 53.5723C6.74179 49.4192 8.20769 45.6324 10.3693 42.1992L7.83065 40.6008C5.45898 44.3675 3.85821 48.5141 3.02493 53.0277L5.97507 53.5723ZM10.3587 42.2158C12.5506 38.8341 15.5671 36.0269 19.4465 33.801L17.9535 31.1989C13.6995 33.6397 10.3161 36.7659 7.84127 40.5842L10.3587 42.2158ZM19.4374 33.8062C23.2748 31.64 28.3625 30.5 34.8 30.5V27.5C28.0375 27.5 22.3919 28.6934 17.9626 31.1938L19.4374 33.8062ZM34.8 30.5C41.2393 30.5 46.2881 31.6406 50.0535 33.801L51.5465 31.1989C47.1786 28.6927 41.5607 27.5 34.8 27.5V30.5ZM50.0626 33.8062C54.0048 36.0317 57.0113 38.8332 59.1307 42.1992L61.6694 40.6008C59.2554 36.7668 55.8618 33.635 51.5374 31.1938L50.0626 33.8062ZM59.1413 42.2158C61.3646 45.6461 62.8597 49.4272 63.6249 53.5723L66.5751 53.0277C65.7403 48.5061 64.1021 44.3539 61.6587 40.5842L59.1413 42.2158ZM63.6257 53.5764C64.4103 57.7612 64.8 61.7684 64.8 65.6H67.8C67.8 61.565 67.3897 57.3721 66.5743 53.0236L63.6257 53.5764ZM64.8 65.6C64.8 69.4319 64.4103 73.4736 63.6249 77.7277L66.5751 78.2723C67.3897 73.8597 67.8 69.6348 67.8 65.6H64.8ZM63.6257 77.7236C62.8613 81.8004 61.367 85.5502 59.1413 88.9842L61.6587 90.6158C64.0997 86.8498 65.7387 82.7329 66.5743 78.2764L63.6257 77.7236ZM59.1307 89.0008C57.0113 92.3668 54.0048 95.1683 50.0626 97.3938L51.5374 100.006C55.8618 97.565 59.2554 94.4332 61.6694 90.5992L59.1307 89.0008ZM50.0535 97.3989C46.2881 99.5594 41.2393 100.7 34.8 100.7V103.7C41.5607 103.7 47.1786 102.507 51.5465 100.001L50.0535 97.3989ZM34.8 85.4C36.6064 85.4 38.1637 84.7322 39.3335 83.3824L37.0665 81.4176C36.503 82.0678 35.7937 82.4 34.8 82.4V85.4ZM39.3642 83.3459C40.4028 82.0676 41.1188 80.4823 41.5586 78.6501L38.6414 77.9499C38.2812 79.451 37.7305 80.5991 37.0358 81.4541L39.3642 83.3459ZM41.5484 78.69C42.0466 76.8397 42.3591 74.77 42.4973 72.4907L39.5027 72.3093C39.3742 74.43 39.0868 76.2937 38.6516 77.91L41.5484 78.69ZM42.4938 72.5358C42.6982 70.2882 42.8 67.9762 42.8 65.6H39.8C39.8 67.8905 39.7018 70.1118 39.5062 72.2642L42.4938 72.5358ZM42.8 65.6C42.8 63.2238 42.6982 60.9118 42.4938 58.6642L39.5062 58.9358C39.7018 61.0882 39.8 63.3095 39.8 65.6H42.8ZM42.4973 58.7093C42.3591 56.4304 42.0463 54.388 41.5444 52.5956L38.6556 53.4044C39.087 54.9454 39.3742 56.7696 39.5027 58.8907L42.4973 58.7093ZM41.5616 52.6627C41.1247 50.7694 40.4062 49.1553 39.3335 47.9176L37.0665 49.8824C37.7271 50.6447 38.2753 51.7639 38.6384 53.3373L41.5616 52.6627ZM39.3642 47.9541C38.2066 46.5294 36.6419 45.8 34.8 45.8V48.8C35.7581 48.8 36.4601 49.1373 37.0358 49.8459L39.3642 47.9541ZM34.8 45.8C32.9581 45.8 31.3934 46.5294 30.2358 47.9541L32.5642 49.8459C33.1399 49.1373 33.8419 48.8 34.8 48.8V45.8ZM30.2287 47.963C29.2588 49.1753 28.5519 50.7518 28.0516 52.61L30.9484 53.39C31.3815 51.7815 31.9412 50.6247 32.5713 49.837L30.2287 47.963ZM28.0556 52.5956C27.5586 54.3702 27.2123 56.3969 27.0062 58.6642L29.9938 58.9358C30.1877 56.8031 30.508 54.9631 30.9444 53.4044L28.0556 52.5956ZM27.0027 58.7093C26.8675 60.9412 26.8 63.2381 26.8 65.6H29.8C29.8 63.2952 29.8659 61.0588 29.9973 58.8907L27.0027 58.7093ZM26.8 65.6C26.8 67.9619 26.8675 70.2588 27.0027 72.4907L29.9973 72.3093C29.8659 70.1412 29.8 67.9048 29.8 65.6H26.8ZM27.0062 72.5358C27.2123 74.8029 27.5581 76.857 28.0516 78.69L30.9484 77.91C30.5086 76.2764 30.1877 74.3971 29.9938 72.2642L27.0062 72.5358ZM28.0556 78.7044C28.5581 80.4993 29.2608 82.0477 30.2 83.3L32.6 81.5C31.9392 80.6189 31.3752 79.434 30.9444 77.8956L28.0556 78.7044ZM30.2665 83.3824C31.4363 84.7322 32.9937 85.4 34.8 85.4V82.4C33.8064 82.4 33.097 82.0678 32.5335 81.4176L30.2665 83.3824Z" fill="white"/>
</svg>
