<svg width="51" height="126" viewBox="0 0 51 126" fill="none" xmlns="http://www.w3.org/2000/svg">
<path d="M6.6 84H16.5V53L5.8 55V35.9L39.6 28.8V84H49.3V101H6.6V84Z" fill="#5CCE2E"/>
<path d="M6.6 84V82.5H5.1V84H6.6ZM16.5 84V85.5H18V84H16.5ZM16.5 53H18V51.1936L16.2244 51.5255L16.5 53ZM5.8 55H4.3V56.8064L6.0756 56.4745L5.8 55ZM5.8 35.9L5.49164 34.432L4.3 34.6824V35.9H5.8ZM39.6 28.8H41.1V26.9522L39.2916 27.332L39.6 28.8ZM39.6 84H38.1V85.5H39.6V84ZM49.3 84H50.8V82.5H49.3V84ZM49.3 101V102.5H50.8V101H49.3ZM6.6 101H5.1V102.5H6.6V101ZM6.6 85.5H16.5V82.5H6.6V85.5ZM18 84V53H15V84H18ZM16.2244 51.5255L5.5244 53.5255L6.0756 56.4745L16.7756 54.4745L16.2244 51.5255ZM7.3 55V35.9H4.3V55H7.3ZM6.10836 37.368L39.9084 30.268L39.2916 27.332L5.49164 34.432L6.10836 37.368ZM38.1 28.8V84H41.1V28.8H38.1ZM39.6 85.5H49.3V82.5H39.6V85.5ZM47.8 84V101H50.8V84H47.8ZM49.3 99.5H6.6V102.5H49.3V99.5ZM8.1 101V84H5.1V101H8.1Z" fill="white"/>
</svg>
