<svg width="51" height="75" viewBox="0 0 51 75" fill="none" xmlns="http://www.w3.org/2000/svg">
<path d="M6.6 58H16.5V27L5.8 29V9.9L39.6 2.79999V58H49.3V75H6.6V58Z" fill="#5CCE2E"/>
<path d="M6.6 58V56.5H5.1V58H6.6ZM16.5 58V59.5H18V58H16.5ZM16.5 27H18V25.1936L16.2244 25.5255L16.5 27ZM5.8 29H4.3V30.8064L6.0756 30.4745L5.8 29ZM5.8 9.9L5.49164 8.43203L4.3 8.68235V9.9H5.8ZM39.6 2.79999H41.1V0.952168L39.2916 1.33203L39.6 2.79999ZM39.6 58H38.1V59.5H39.6V58ZM49.3 58H50.8V56.5H49.3V58ZM49.3 75V76.5H50.8V75H49.3ZM6.6 75H5.1V76.5H6.6V75ZM6.6 59.5H16.5V56.5H6.6V59.5ZM18 58V27H15V58H18ZM16.2244 25.5255L5.5244 27.5255L6.0756 30.4745L16.7756 28.4745L16.2244 25.5255ZM7.3 29V9.9H4.3V29H7.3ZM6.10836 11.368L39.9084 4.26796L39.2916 1.33203L5.49164 8.43203L6.10836 11.368ZM38.1 2.79999V58H41.1V2.79999H38.1ZM39.6 59.5H49.3V56.5H39.6V59.5ZM47.8 58V75H50.8V58H47.8ZM49.3 73.5H6.6V76.5H49.3V73.5ZM8.1 75V58H5.1V75H8.1Z" fill="white"/>
</svg>
