<svg width="65" height="77" viewBox="0 0 65 77" fill="none" xmlns="http://www.w3.org/2000/svg">
<path d="M3.7 55.6L22.9 40C25.5 37.8667 27.4 35.9 28.6 34.1C29.8 32.3 30.4 30.5667 30.4 28.9C30.4 27.7 29.9667 26.5667 29.1 25.5C28.3 24.3667 26.7333 23.8 24.4 23.8C22.6667 23.8 20.7667 24.1667 18.7 24.9C16.6333 25.6333 14.4 26.9 12 28.7L1.7 13.1C5.9 9.9 10.5333 7.43333 15.6 5.7C20.7333 3.9 26.1 3 31.7 3C40.6333 3 47.3 4.86666 51.7 8.6C56.1 12.2667 58.3 17.4333 58.3 24.1C58.3 28.3 57.3 32.0667 55.3 35.4C53.3667 38.6667 50.9 41.6667 47.9 44.4C44.9 47.0667 41.6667 49.5333 38.2 51.8C34.7333 54.0667 31.5 56.3 28.5 58.5L28.7 58.7C31.6333 56.8333 34.7 55.9 37.9 55.9C38.3667 55.9 38.9 55.9667 39.5 56.1C40.1667 56.1667 40.7 56.2 41.1 56.2C42.3667 56.2 43.3 55.9 43.9 55.3C44.5 54.6333 44.9333 53.4667 45.2 51.8L61.6 53.9C61.1333 57.6333 60.4667 60.9 59.6 63.7C58.7333 66.5 57.4 68.8333 55.6 70.7C53.8 72.5667 51.3333 73.9667 48.2 74.9C45.1333 75.8333 41.1333 76.3 36.2 76.3C34.0667 76.3 32.1333 76.2 30.4 76C28.6667 75.8 27 75.5667 25.4 75.3C23.8 75.0333 22.2 74.8 20.6 74.6C19 74.4 17.3 74.3 15.5 74.3C13.8333 74.3 12.0333 74.4333 10.1 74.7C8.23333 74.9 6.1 75.3 3.7 75.9V55.6Z" fill="#5CCE2E"/>
<path d="M3.7 55.6L2.75411 54.4358L2.2 54.886V55.6H3.7ZM22.9 40L23.8459 41.1642L23.8515 41.1596L22.9 40ZM28.6 34.1L29.8481 34.9321L29.8481 34.932L28.6 34.1ZM29.1 25.5L27.8745 26.365L27.9038 26.4065L27.9358 26.4459L29.1 25.5ZM18.7 24.9L18.1984 23.4864L18.1984 23.4864L18.7 24.9ZM12 28.7L10.7482 29.5265L11.6258 30.8556L12.9 29.9L12 28.7ZM1.7 13.1L0.790935 11.9069L-0.324247 12.7565L0.448234 13.9265L1.7 13.1ZM15.6 5.7L16.0855 7.11929L16.0963 7.1155L15.6 5.7ZM51.7 8.6L50.7295 9.74381L50.7397 9.75233L51.7 8.6ZM55.3 35.4L54.0137 34.6282L54.0091 34.636L55.3 35.4ZM47.9 44.4L48.8965 45.5211L48.9034 45.515L48.9102 45.5088L47.9 44.4ZM38.2 51.8L39.0209 53.0555L39.0209 53.0555L38.2 51.8ZM28.5 58.5L27.613 57.2904L26.203 58.3243L27.4393 59.5607L28.5 58.5ZM28.7 58.7L27.6393 59.7607L28.4902 60.6115L29.5053 59.9655L28.7 58.7ZM39.5 56.1L39.1746 57.5643L39.2618 57.5837L39.3507 57.5926L39.5 56.1ZM43.9 55.3L44.9607 56.3607L44.9886 56.3328L45.0149 56.3034L43.9 55.3ZM45.2 51.8L45.3905 50.3121L43.9485 50.1275L43.7188 51.563L45.2 51.8ZM61.6 53.9L63.0884 54.0861L63.2739 52.6021L61.7905 52.4121L61.6 53.9ZM59.6 63.7L58.1671 63.2565L58.1671 63.2565L59.6 63.7ZM55.6 70.7L56.6798 71.7412L56.6798 71.7412L55.6 70.7ZM48.2 74.9L47.7718 73.4624L47.7633 73.465L48.2 74.9ZM30.4 76L30.2281 77.4901L30.2281 77.4901L30.4 76ZM25.4 75.3L25.1534 76.7796L25.1534 76.7796L25.4 75.3ZM20.6 74.6L20.7861 73.1116L20.7861 73.1116L20.6 74.6ZM10.1 74.7L10.2598 76.1915L10.2824 76.189L10.305 76.1859L10.1 74.7ZM3.7 75.9H2.2V77.8212L4.0638 77.3552L3.7 75.9ZM4.64589 56.7642L23.8459 41.1642L21.9541 38.8358L2.75411 54.4358L4.64589 56.7642ZM23.8515 41.1596C26.51 38.9783 28.5336 36.9037 29.8481 34.9321L27.3519 33.2679C26.2664 34.8962 24.49 36.7551 21.9485 38.8404L23.8515 41.1596ZM29.8481 34.932C31.1639 32.9583 31.9 30.9395 31.9 28.9H28.9C28.9 30.1939 28.4361 31.6417 27.3519 33.2679L29.8481 34.932ZM31.9 28.9C31.9 27.3062 31.3148 25.8472 30.2642 24.5541L27.9358 26.4459C28.6185 27.2861 28.9 28.0938 28.9 28.9H31.9ZM30.3255 24.635C29.0962 22.8935 26.8892 22.3 24.4 22.3V25.3C26.5775 25.3 27.5038 25.8398 27.8745 26.365L30.3255 24.635ZM24.4 22.3C22.4573 22.3 20.3853 22.7103 18.1984 23.4864L19.2016 26.3136C21.148 25.623 22.8761 25.3 24.4 25.3V22.3ZM18.1984 23.4864C15.9472 24.2851 13.5799 25.6401 11.1 27.5L12.9 29.9C15.2201 28.1599 17.3194 26.9815 19.2016 26.3136L18.1984 23.4864ZM13.2518 27.8735L2.95177 12.2735L0.448234 13.9265L10.7482 29.5265L13.2518 27.8735ZM2.60907 14.2931C6.67911 11.1922 11.1691 8.80119 16.0855 7.11924L15.1145 4.28075C9.89759 6.06547 5.12089 8.60784 0.790935 11.9069L2.60907 14.2931ZM16.0963 7.1155C21.0655 5.37308 26.264 4.5 31.7 4.5V1.5C25.936 1.5 20.4012 2.42692 15.1037 4.2845L16.0963 7.1155ZM31.7 4.5C40.4636 4.5 46.7147 6.33727 50.7295 9.74376L52.6705 7.45623C47.8853 3.39606 40.8031 1.5 31.7 1.5V4.5ZM50.7397 9.75233C54.7398 13.0858 56.8 17.7972 56.8 24.1H59.8C59.8 17.0695 57.4602 11.4476 52.6603 7.44766L50.7397 9.75233ZM56.8 24.1C56.8 28.0508 55.8627 31.5467 54.0138 34.6283L56.5862 36.1717C58.7373 32.5866 59.8 28.5492 59.8 24.1H56.8ZM54.0091 34.636C52.1568 37.7659 49.7872 40.6513 46.8898 43.2912L48.9102 45.5088C52.0128 42.682 54.5766 39.5675 56.5909 36.164L54.0091 34.636ZM46.9035 43.2789C43.9604 45.895 40.786 48.317 37.3791 50.5445L39.0209 53.0555C42.5474 50.7497 45.8397 48.2384 48.8965 45.5211L46.9035 43.2789ZM37.3791 50.5445C33.8925 52.8243 30.6369 55.0729 27.613 57.2904L29.387 59.7096C32.3631 57.5271 35.5742 55.3091 39.0209 53.0555L37.3791 50.5445ZM27.4393 59.5607L27.6393 59.7607L29.7607 57.6393L29.5607 57.4393L27.4393 59.5607ZM29.5053 59.9655C32.2196 58.2382 35.0099 57.4 37.9 57.4V54.4C34.3901 54.4 31.047 55.4285 27.8947 57.4345L29.5053 59.9655ZM37.9 57.4C38.2291 57.4 38.6499 57.4477 39.1746 57.5643L39.8254 54.6357C39.1501 54.4856 38.5043 54.4 37.9 54.4V57.4ZM39.3507 57.5926C40.0388 57.6614 40.6281 57.7 41.1 57.7V54.7C40.7719 54.7 40.2946 54.672 39.6493 54.6074L39.3507 57.5926ZM41.1 57.7C42.5704 57.7 43.9668 57.3546 44.9607 56.3607L42.8393 54.2393C42.6332 54.4454 42.1629 54.7 41.1 54.7V57.7ZM45.0149 56.3034C45.9147 55.3037 46.403 53.7755 46.6812 52.037L43.7188 51.563C43.4637 53.1578 43.0853 53.9629 42.7851 54.2966L45.0149 56.3034ZM45.0095 53.2879L61.4095 55.3879L61.7905 52.4121L45.3905 50.3121L45.0095 53.2879ZM60.1116 53.7139C59.6529 57.3832 59.0016 60.5602 58.1671 63.2565L61.0329 64.1435C61.9317 61.2398 62.6137 57.8835 63.0884 54.0861L60.1116 53.7139ZM58.1671 63.2565C57.3607 65.8618 56.1373 67.9819 54.5202 69.6588L56.6798 71.7412C58.6627 69.6848 60.106 67.1382 61.0329 64.1435L58.1671 63.2565ZM54.5202 69.6588C52.9406 71.2969 50.7209 72.584 47.7718 73.4624L48.6282 76.3376C51.9457 75.3494 54.6594 73.8364 56.6798 71.7412L54.5202 69.6588ZM47.7633 73.465C44.8928 74.3386 41.056 74.8 36.2 74.8V77.8C41.2107 77.8 45.3739 77.328 48.6367 76.335L47.7633 73.465ZM36.2 74.8C34.112 74.8 32.2373 74.702 30.5719 74.5099L30.2281 77.4901C32.0294 77.698 34.0213 77.8 36.2 77.8V74.8ZM30.5719 74.5099C28.8617 74.3126 27.22 74.0826 25.6466 73.8204L25.1534 76.7796C26.78 77.0507 28.4716 77.2874 30.2281 77.4901L30.5719 74.5099ZM25.6466 73.8204C24.0266 73.5504 22.4064 73.3141 20.7861 73.1116L20.4139 76.0884C21.9936 76.2859 23.5734 76.5163 25.1534 76.7796L25.6466 73.8204ZM20.7861 73.1116C19.1177 72.903 17.3552 72.8 15.5 72.8V75.8C17.2448 75.8 18.8823 75.897 20.4139 76.0884L20.7861 73.1116ZM15.5 72.8C13.7544 72.8 11.8851 72.9396 9.89504 73.2141L10.305 76.1859C12.1815 75.9271 13.9123 75.8 15.5 75.8V72.8ZM9.9402 73.2085C7.98716 73.4178 5.78356 73.8329 3.3362 74.4448L4.0638 77.3552C6.41644 76.7671 8.47951 76.3822 10.2598 76.1915L9.9402 73.2085ZM5.2 75.9V55.6H2.2V75.9H5.2Z" fill="white"/>
</svg>
