<svg width="65" height="126" viewBox="0 0 65 126" fill="none" xmlns="http://www.w3.org/2000/svg">
<path d="M3.7 81.6L22.9 66C25.5 63.8667 27.4 61.9 28.6 60.1C29.8 58.3 30.4 56.5667 30.4 54.9C30.4 53.7 29.9667 52.5667 29.1 51.5C28.3 50.3667 26.7333 49.8 24.4 49.8C22.6667 49.8 20.7667 50.1667 18.7 50.9C16.6333 51.6333 14.4 52.9 12 54.7L1.7 39.1C5.9 35.9 10.5333 33.4333 15.6 31.7C20.7333 29.9 26.1 29 31.7 29C40.6333 29 47.3 30.8667 51.7 34.6C56.1 38.2667 58.3 43.4333 58.3 50.1C58.3 54.3 57.3 58.0667 55.3 61.4C53.3667 64.6667 50.9 67.6667 47.9 70.4C44.9 73.0667 41.6667 75.5333 38.2 77.8C34.7333 80.0667 31.5 82.3 28.5 84.5L28.7 84.7C31.6333 82.8333 34.7 81.9 37.9 81.9C38.3667 81.9 38.9 81.9667 39.5 82.1C40.1667 82.1667 40.7 82.2 41.1 82.2C42.3667 82.2 43.3 81.9 43.9 81.3C44.5 80.6333 44.9333 79.4667 45.2 77.8L61.6 79.9C61.1333 83.6333 60.4667 86.9 59.6 89.7C58.7333 92.5 57.4 94.8333 55.6 96.7C53.8 98.5667 51.3333 99.9667 48.2 100.9C45.1333 101.833 41.1333 102.3 36.2 102.3C34.0667 102.3 32.1333 102.2 30.4 102C28.6667 101.8 27 101.567 25.4 101.3C23.8 101.033 22.2 100.8 20.6 100.6C19 100.4 17.3 100.3 15.5 100.3C13.8333 100.3 12.0333 100.433 10.1 100.7C8.23333 100.9 6.1 101.3 3.7 101.9V81.6Z" fill="#5CCE2E"/>
<path d="M3.7 81.6L2.75411 80.4358L2.2 80.886V81.6H3.7ZM22.9 66L23.8459 67.1642L23.8515 67.1596L22.9 66ZM28.6 60.1L29.8481 60.9321L29.8481 60.932L28.6 60.1ZM29.1 51.5L27.8745 52.365L27.9038 52.4065L27.9358 52.4459L29.1 51.5ZM18.7 50.9L18.1984 49.4864L18.1984 49.4864L18.7 50.9ZM12 54.7L10.7482 55.5265L11.6258 56.8556L12.9 55.9L12 54.7ZM1.7 39.1L0.790935 37.9069L-0.324247 38.7565L0.448234 39.9265L1.7 39.1ZM15.6 31.7L16.0855 33.1193L16.0963 33.1155L15.6 31.7ZM51.7 34.6L50.7295 35.7438L50.7397 35.7523L51.7 34.6ZM55.3 61.4L54.0137 60.6282L54.0091 60.636L55.3 61.4ZM47.9 70.4L48.8965 71.5211L48.9034 71.515L48.9102 71.5088L47.9 70.4ZM38.2 77.8L39.0209 79.0555L39.0209 79.0555L38.2 77.8ZM28.5 84.5L27.613 83.2904L26.203 84.3243L27.4393 85.5607L28.5 84.5ZM28.7 84.7L27.6393 85.7607L28.4902 86.6115L29.5053 85.9655L28.7 84.7ZM39.5 82.1L39.1746 83.5643L39.2618 83.5837L39.3507 83.5926L39.5 82.1ZM43.9 81.3L44.9607 82.3607L44.9886 82.3328L45.0149 82.3034L43.9 81.3ZM45.2 77.8L45.3905 76.3121L43.9485 76.1275L43.7188 77.563L45.2 77.8ZM61.6 79.9L63.0884 80.0861L63.2739 78.6021L61.7905 78.4121L61.6 79.9ZM59.6 89.7L58.1671 89.2565L58.1671 89.2565L59.6 89.7ZM55.6 96.7L56.6798 97.7412L56.6798 97.7412L55.6 96.7ZM48.2 100.9L47.7718 99.4624L47.7633 99.465L48.2 100.9ZM30.4 102L30.2281 103.49L30.2281 103.49L30.4 102ZM25.4 101.3L25.1534 102.78L25.1534 102.78L25.4 101.3ZM20.6 100.6L20.7861 99.1116L20.7861 99.1116L20.6 100.6ZM10.1 100.7L10.2598 102.191L10.2824 102.189L10.305 102.186L10.1 100.7ZM3.7 101.9H2.2V103.821L4.0638 103.355L3.7 101.9ZM4.64589 82.7642L23.8459 67.1642L21.9541 64.8358L2.75411 80.4358L4.64589 82.7642ZM23.8515 67.1596C26.51 64.9783 28.5336 62.9037 29.8481 60.9321L27.3519 59.2679C26.2664 60.8962 24.49 62.7551 21.9485 64.8404L23.8515 67.1596ZM29.8481 60.932C31.1639 58.9583 31.9 56.9395 31.9 54.9H28.9C28.9 56.1939 28.4361 57.6417 27.3519 59.2679L29.8481 60.932ZM31.9 54.9C31.9 53.3062 31.3148 51.8472 30.2642 50.5541L27.9358 52.4459C28.6185 53.2861 28.9 54.0938 28.9 54.9H31.9ZM30.3255 50.635C29.0962 48.8935 26.8892 48.3 24.4 48.3V51.3C26.5775 51.3 27.5038 51.8398 27.8745 52.365L30.3255 50.635ZM24.4 48.3C22.4573 48.3 20.3853 48.7103 18.1984 49.4864L19.2016 52.3136C21.148 51.623 22.8761 51.3 24.4 51.3V48.3ZM18.1984 49.4864C15.9472 50.2851 13.5799 51.6401 11.1 53.5L12.9 55.9C15.2201 54.1599 17.3194 52.9815 19.2016 52.3136L18.1984 49.4864ZM13.2518 53.8735L2.95177 38.2735L0.448234 39.9265L10.7482 55.5265L13.2518 53.8735ZM2.60907 40.2931C6.67911 37.1922 11.1691 34.8012 16.0855 33.1192L15.1145 30.2808C9.89759 32.0655 5.12089 34.6078 0.790935 37.9069L2.60907 40.2931ZM16.0963 33.1155C21.0655 31.3731 26.264 30.5 31.7 30.5V27.5C25.936 27.5 20.4012 28.4269 15.1037 30.2845L16.0963 33.1155ZM31.7 30.5C40.4636 30.5 46.7147 32.3373 50.7295 35.7438L52.6705 33.4562C47.8853 29.3961 40.8031 27.5 31.7 27.5V30.5ZM50.7397 35.7523C54.7398 39.0858 56.8 43.7972 56.8 50.1H59.8C59.8 43.0695 57.4602 37.4476 52.6603 33.4477L50.7397 35.7523ZM56.8 50.1C56.8 54.0508 55.8627 57.5467 54.0138 60.6283L56.5862 62.1717C58.7373 58.5866 59.8 54.5492 59.8 50.1H56.8ZM54.0091 60.636C52.1568 63.7659 49.7872 66.6513 46.8898 69.2912L48.9102 71.5088C52.0128 68.682 54.5766 65.5675 56.5909 62.164L54.0091 60.636ZM46.9035 69.2789C43.9604 71.895 40.786 74.317 37.3791 76.5445L39.0209 79.0555C42.5474 76.7497 45.8397 74.2384 48.8965 71.5211L46.9035 69.2789ZM37.3791 76.5445C33.8925 78.8243 30.6369 81.0729 27.613 83.2904L29.387 85.7096C32.3631 83.5271 35.5742 81.3091 39.0209 79.0555L37.3791 76.5445ZM27.4393 85.5607L27.6393 85.7607L29.7607 83.6393L29.5607 83.4393L27.4393 85.5607ZM29.5053 85.9655C32.2196 84.2382 35.0099 83.4 37.9 83.4V80.4C34.3901 80.4 31.047 81.4285 27.8947 83.4345L29.5053 85.9655ZM37.9 83.4C38.2291 83.4 38.6499 83.4477 39.1746 83.5643L39.8254 80.6357C39.1501 80.4856 38.5043 80.4 37.9 80.4V83.4ZM39.3507 83.5926C40.0388 83.6614 40.6281 83.7 41.1 83.7V80.7C40.7719 80.7 40.2946 80.672 39.6493 80.6074L39.3507 83.5926ZM41.1 83.7C42.5704 83.7 43.9668 83.3546 44.9607 82.3607L42.8393 80.2393C42.6332 80.4454 42.1629 80.7 41.1 80.7V83.7ZM45.0149 82.3034C45.9147 81.3037 46.403 79.7755 46.6812 78.037L43.7188 77.563C43.4637 79.1578 43.0853 79.9629 42.7851 80.2966L45.0149 82.3034ZM45.0095 79.2879L61.4095 81.3879L61.7905 78.4121L45.3905 76.3121L45.0095 79.2879ZM60.1116 79.7139C59.6529 83.3832 59.0016 86.5602 58.1671 89.2565L61.0329 90.1435C61.9317 87.2398 62.6137 83.8835 63.0884 80.0861L60.1116 79.7139ZM58.1671 89.2565C57.3607 91.8618 56.1373 93.9819 54.5202 95.6588L56.6798 97.7412C58.6627 95.6848 60.106 93.1382 61.0329 90.1435L58.1671 89.2565ZM54.5202 95.6588C52.9406 97.2969 50.7209 98.584 47.7718 99.4624L48.6282 102.338C51.9457 101.349 54.6594 99.8364 56.6798 97.7412L54.5202 95.6588ZM47.7633 99.465C44.8928 100.339 41.056 100.8 36.2 100.8V103.8C41.2107 103.8 45.3739 103.328 48.6367 102.335L47.7633 99.465ZM36.2 100.8C34.112 100.8 32.2373 100.702 30.5719 100.51L30.2281 103.49C32.0294 103.698 34.0213 103.8 36.2 103.8V100.8ZM30.5719 100.51C28.8617 100.313 27.22 100.083 25.6466 99.8204L25.1534 102.78C26.78 103.051 28.4716 103.287 30.2281 103.49L30.5719 100.51ZM25.6466 99.8204C24.0266 99.5504 22.4064 99.3141 20.7861 99.1116L20.4139 102.088C21.9936 102.286 23.5734 102.516 25.1534 102.78L25.6466 99.8204ZM20.7861 99.1116C19.1177 98.903 17.3552 98.8 15.5 98.8V101.8C17.2448 101.8 18.8823 101.897 20.4139 102.088L20.7861 99.1116ZM15.5 98.8C13.7544 98.8 11.8851 98.9396 9.89504 99.2141L10.305 102.186C12.1815 101.927 13.9123 101.8 15.5 101.8V98.8ZM9.9402 99.2085C7.98716 99.4178 5.78356 99.8329 3.3362 100.445L4.0638 103.355C6.41644 102.767 8.47951 102.382 10.2598 102.191L9.9402 99.2085ZM5.2 101.9V81.6H2.2V101.9H5.2Z" fill="white"/>
</svg>
