<svg width="60" height="77" viewBox="0 0 60 77" fill="none" xmlns="http://www.w3.org/2000/svg">
<path d="M2.7 52.2C6.56667 53.9333 10.0667 55.1333 13.2 55.8C16.3333 56.4667 19.5667 56.8 22.9 56.8C24.1 56.8 25.2333 56.7333 26.3 56.6C27.4333 56.4667 28.4333 56.2333 29.3 55.9C30.2333 55.5 30.9667 54.9667 31.5 54.3C32.0333 53.6333 32.3 52.8 32.3 51.8C32.3 50 31.4667 48.8667 29.8 48.4C28.2 47.9333 26.1333 47.7 23.6 47.7H18.3V31.7H24C26.1333 31.7 27.9333 31.4 29.4 30.8C30.8667 30.1333 31.6 28.9333 31.6 27.2C31.6 25.6 30.9333 24.5 29.6 23.9C28.3333 23.3 26.8 23 25 23C22.2667 23 19.6 23.4333 17 24.3C14.4 25.1667 11.6 26.3667 8.6 27.9L1 10.9C4.93333 8.76666 9.13333 6.93333 13.6 5.4C18.0667 3.8 23.1 3 28.7 3C33.2333 3 37.1667 3.46666 40.5 4.4C43.8333 5.33333 46.6 6.63333 48.8 8.29999C51 9.9 52.6333 11.8333 53.7 14.1C54.8333 16.3 55.4 18.7 55.4 21.3C55.4 24.8333 54.7667 27.9 53.5 30.5C52.2333 33.1 49.9333 35.4667 46.6 37.6C50.4667 39.4 53.1333 41.7667 54.6 44.7C56.1333 47.6333 56.9 50.8667 56.9 54.4C56.9 58.4 56.0667 61.8 54.4 64.6C52.7333 67.3333 50.5667 69.5667 47.9 71.3C45.3 73.0333 42.3 74.2667 38.9 75C35.5667 75.8 32.2 76.2 28.8 76.2C23.8 76.2 19.2333 75.9 15.1 75.3C10.9667 74.7 6.83333 73.4333 2.7 71.5V52.2Z" fill="black"/>
<path d="M2.7 52.2L3.31358 50.8312L1.2 49.8838L1.2 52.2H2.7ZM13.2 55.8L12.8878 57.2672L12.8878 57.2672L13.2 55.8ZM26.3 56.6L26.1247 55.1102L26.1139 55.1116L26.3 56.6ZM29.3 55.9L29.8385 57.3L29.8649 57.2899L29.8909 57.2787L29.3 55.9ZM31.5 54.3L32.6713 55.237L32.6713 55.237L31.5 54.3ZM29.8 48.4L29.38 49.84L29.3878 49.8423L29.3956 49.8444L29.8 48.4ZM18.3 47.7H16.8V49.2H18.3V47.7ZM18.3 31.7V30.2H16.8V31.7H18.3ZM29.4 30.8L29.9679 32.1883L29.9945 32.1774L30.0207 32.1655L29.4 30.8ZM29.6 23.9L28.9579 25.2556L28.9711 25.2619L28.9845 25.2679L29.6 23.9ZM17 24.3L16.5257 22.877L16.5257 22.877L17 24.3ZM8.6 27.9L7.23061 28.5122L7.87556 29.9548L9.28267 29.2357L8.6 27.9ZM1 10.9L0.284855 9.58145L-0.936416 10.2438L-0.369385 11.5122L1 10.9ZM13.6 5.4L14.087 6.81873L14.0965 6.81549L14.1058 6.81213L13.6 5.4ZM40.5 4.4L40.9044 2.95555L40.9044 2.95555L40.5 4.4ZM48.8 8.29999L47.8942 9.49563L47.9059 9.50448L47.9177 9.5131L48.8 8.29999ZM53.7 14.1L52.3428 14.7387L52.3542 14.763L52.3665 14.7869L53.7 14.1ZM46.6 37.6L45.7914 36.3366L43.4924 37.8079L45.967 38.9599L46.6 37.6ZM54.6 44.7L53.2584 45.3708L53.2644 45.3829L53.2707 45.3949L54.6 44.7ZM54.4 64.6L55.6807 65.3809L55.6849 65.3741L55.6889 65.3672L54.4 64.6ZM47.9 71.3L47.0825 70.0423L47.0752 70.0471L47.068 70.0519L47.9 71.3ZM38.9 75L38.5837 73.5337L38.5668 73.5374L38.5499 73.5414L38.9 75ZM2.7 71.5H1.2V72.4544L2.06447 72.8587L2.7 71.5ZM2.08642 53.5688C6.02081 55.3325 9.6238 56.5727 12.8878 57.2672L13.5122 54.3328C10.5095 53.694 7.11252 52.5342 3.31358 50.8312L2.08642 53.5688ZM12.8878 57.2672C16.1279 57.9565 19.466 58.3 22.9 58.3V55.3C19.6673 55.3 16.5388 54.9768 13.5122 54.3328L12.8878 57.2672ZM22.9 58.3C24.1552 58.3 25.3511 58.2303 26.4861 58.0884L26.1139 55.1116C25.1156 55.2364 24.0448 55.3 22.9 55.3V58.3ZM26.4753 58.0897C27.7058 57.945 28.8319 57.6872 29.8385 57.3L28.7615 54.5C28.0348 54.7795 27.1609 54.9884 26.1247 55.1103L26.4753 58.0897ZM29.8909 57.2787C31.0082 56.7999 31.9571 56.1298 32.6713 55.237L30.3287 53.363C29.9763 53.8035 29.4584 54.2001 28.7091 54.5213L29.8909 57.2787ZM32.6713 55.237C33.4526 54.2604 33.8 53.0797 33.8 51.8H30.8C30.8 52.5203 30.6141 53.0062 30.3287 53.363L32.6713 55.237ZM33.8 51.8C33.8 50.6701 33.5366 49.5996 32.8835 48.7114C32.2261 47.8174 31.2841 47.2579 30.2044 46.9556L29.3956 49.8444C29.9825 50.0088 30.2906 50.2493 30.4665 50.4886C30.6468 50.7337 30.8 51.1299 30.8 51.8H33.8ZM30.22 46.96C28.4323 46.4386 26.2098 46.2 23.6 46.2V49.2C26.0569 49.2 27.9677 49.4281 29.38 49.84L30.22 46.96ZM23.6 46.2H18.3V49.2H23.6V46.2ZM19.8 47.7V31.7H16.8V47.7H19.8ZM18.3 33.2H24V30.2H18.3V33.2ZM24 33.2C26.2646 33.2 28.2703 32.8828 29.9679 32.1883L28.8321 29.4117C27.5963 29.9172 26.002 30.2 24 30.2V33.2ZM30.0207 32.1655C30.9862 31.7267 31.7849 31.0741 32.3299 30.1822C32.8706 29.2974 33.1 28.2786 33.1 27.2H30.1C30.1 27.8547 29.9627 28.3026 29.7701 28.6178C29.5818 28.9259 29.2805 29.2066 28.7793 29.4344L30.0207 32.1655ZM33.1 27.2C33.1 26.1923 32.8891 25.233 32.3828 24.3975C31.8711 23.5532 31.1201 22.9392 30.2155 22.5321L28.9845 25.2679C29.4133 25.4608 29.6623 25.6968 29.8172 25.9524C29.9776 26.217 30.1 26.6077 30.1 27.2H33.1ZM30.2421 22.5444C28.7262 21.8263 26.9612 21.5 25 21.5V24.5C26.6388 24.5 27.9405 24.7737 28.9579 25.2556L30.2421 22.5444ZM25 21.5C22.105 21.5 19.2782 21.9595 16.5257 22.877L17.4743 25.723C19.9218 24.9072 22.4283 24.5 25 24.5V21.5ZM16.5257 22.877C13.8401 23.7722 10.9699 25.0041 7.91733 26.5643L9.28267 29.2357C12.2301 27.7292 14.9599 26.5612 17.4743 25.723L16.5257 22.877ZM9.96939 27.2878L2.36939 10.2878L-0.369385 11.5122L7.23061 28.5122L9.96939 27.2878ZM1.71514 12.2185C5.57144 10.127 9.69473 8.32653 14.087 6.81873L13.113 3.98126C8.57194 5.54012 4.29523 7.40633 0.284855 9.58145L1.71514 12.2185ZM14.1058 6.81213C18.3839 5.2797 23.2421 4.5 28.7 4.5V1.5C22.958 1.5 17.7495 2.3203 13.0942 3.98786L14.1058 6.81213ZM28.7 4.5C33.1363 4.5 36.9273 4.95732 40.0956 5.84444L40.9044 2.95555C37.4061 1.976 33.3304 1.5 28.7 1.5V4.5ZM40.0956 5.84444C43.292 6.73944 45.877 7.96745 47.8942 9.49563L49.7058 7.10436C47.323 5.2992 44.3747 3.92722 40.9044 2.95555L40.0956 5.84444ZM47.9177 9.5131C49.9316 10.9777 51.3927 12.7197 52.3428 14.7387L55.0572 13.4613C53.874 10.9469 52.0684 8.82226 49.6823 7.08689L47.9177 9.5131ZM52.3665 14.7869C53.3849 16.7637 53.9 18.9265 53.9 21.3H56.9C56.9 18.4735 56.2818 15.8363 55.0335 13.4131L52.3665 14.7869ZM53.9 21.3C53.9 24.6553 53.2988 27.488 52.1515 29.843L54.8485 31.157C56.2345 28.312 56.9 25.0114 56.9 21.3H53.9ZM52.1515 29.843C51.0423 32.1198 48.9748 34.2992 45.7914 36.3366L47.4086 38.8634C50.8918 36.6341 53.4244 34.0801 54.8485 31.157L52.1515 29.843ZM45.967 38.9599C49.6195 40.6602 51.9836 42.8213 53.2584 45.3708L55.9416 44.0292C54.2831 40.7121 51.3138 38.1398 47.233 36.2401L45.967 38.9599ZM53.2707 45.3949C54.6844 48.0994 55.4 51.0919 55.4 54.4H58.4C58.4 50.6414 57.5823 47.1673 55.9293 44.0051L53.2707 45.3949ZM55.4 54.4C55.4 58.1912 54.6113 61.3124 53.1111 63.8328L55.6889 65.3672C57.522 62.2876 58.4 58.6088 58.4 54.4H55.4ZM53.1193 63.8191C51.5687 66.3622 49.5598 68.4321 47.0825 70.0423L48.7175 72.5577C51.5735 70.7012 53.898 68.3045 55.6807 65.3809L53.1193 63.8191ZM47.068 70.0519C44.6414 71.6696 41.8204 72.8356 38.5837 73.5337L39.2163 76.4663C42.7796 75.6977 45.9586 74.3971 48.7321 72.5481L47.068 70.0519ZM38.5499 73.5414C35.3303 74.3141 32.0811 74.7 28.8 74.7V77.7C32.3189 77.7 35.803 77.2859 39.2501 76.4586L38.5499 73.5414ZM28.8 74.7C23.8585 74.7 19.3652 74.4034 15.3155 73.8156L14.8845 76.7844C19.1015 77.3966 23.7415 77.7 28.8 77.7V74.7ZM15.3155 73.8156C11.3403 73.2385 7.34799 72.0181 3.33553 70.1413L2.06447 72.8587C6.31868 74.8486 10.593 76.1615 14.8845 76.7844L15.3155 73.8156ZM4.2 71.5V52.2H1.2V71.5H4.2Z" fill="white"/>
</svg>
