<svg width="60" height="126" viewBox="0 0 60 126" fill="none" xmlns="http://www.w3.org/2000/svg">
<path d="M2.7 78.2C6.56667 79.9333 10.0667 81.1333 13.2 81.8C16.3333 82.4667 19.5667 82.8 22.9 82.8C24.1 82.8 25.2333 82.7333 26.3 82.6C27.4333 82.4667 28.4333 82.2333 29.3 81.9C30.2333 81.5 30.9667 80.9667 31.5 80.3C32.0333 79.6333 32.3 78.8 32.3 77.8C32.3 76 31.4667 74.8667 29.8 74.4C28.2 73.9333 26.1333 73.7 23.6 73.7H18.3V57.7H24C26.1333 57.7 27.9333 57.4 29.4 56.8C30.8667 56.1333 31.6 54.9333 31.6 53.2C31.6 51.6 30.9333 50.5 29.6 49.9C28.3333 49.3 26.8 49 25 49C22.2667 49 19.6 49.4333 17 50.3C14.4 51.1667 11.6 52.3667 8.6 53.9L1 36.9C4.93333 34.7667 9.13333 32.9333 13.6 31.4C18.0667 29.8 23.1 29 28.7 29C33.2333 29 37.1667 29.4667 40.5 30.4C43.8333 31.3333 46.6 32.6333 48.8 34.3C51 35.9 52.6333 37.8333 53.7 40.1C54.8333 42.3 55.4 44.7 55.4 47.3C55.4 50.8333 54.7667 53.9 53.5 56.5C52.2333 59.1 49.9333 61.4667 46.6 63.6C50.4667 65.4 53.1333 67.7667 54.6 70.7C56.1333 73.6333 56.9 76.8667 56.9 80.4C56.9 84.4 56.0667 87.8 54.4 90.6C52.7333 93.3333 50.5667 95.5667 47.9 97.3C45.3 99.0333 42.3 100.267 38.9 101C35.5667 101.8 32.2 102.2 28.8 102.2C23.8 102.2 19.2333 101.9 15.1 101.3C10.9667 100.7 6.83333 99.4333 2.7 97.5V78.2Z" fill="#5CCE2E"/>
<path d="M2.7 78.2L3.31358 76.8312L1.2 75.8838L1.2 78.2H2.7ZM13.2 81.8L12.8878 83.2672L12.8878 83.2672L13.2 81.8ZM26.3 82.6L26.1247 81.1102L26.1139 81.1116L26.3 82.6ZM29.3 81.9L29.8385 83.3L29.8649 83.2899L29.8909 83.2787L29.3 81.9ZM31.5 80.3L32.6713 81.237L32.6713 81.237L31.5 80.3ZM29.8 74.4L29.38 75.84L29.3878 75.8423L29.3956 75.8444L29.8 74.4ZM18.3 73.7H16.8V75.2H18.3V73.7ZM18.3 57.7V56.2H16.8V57.7H18.3ZM29.4 56.8L29.9679 58.1883L29.9945 58.1774L30.0207 58.1655L29.4 56.8ZM29.6 49.9L28.9579 51.2556L28.9711 51.2619L28.9845 51.2679L29.6 49.9ZM17 50.3L16.5257 48.877L16.5257 48.877L17 50.3ZM8.6 53.9L7.23061 54.5122L7.87556 55.9548L9.28267 55.2357L8.6 53.9ZM1 36.9L0.284855 35.5814L-0.936416 36.2438L-0.369385 37.5122L1 36.9ZM13.6 31.4L14.087 32.8187L14.0965 32.8155L14.1058 32.8121L13.6 31.4ZM40.5 30.4L40.9044 28.9556L40.9044 28.9556L40.5 30.4ZM48.8 34.3L47.8942 35.4956L47.9059 35.5045L47.9177 35.5131L48.8 34.3ZM53.7 40.1L52.3428 40.7387L52.3542 40.763L52.3665 40.7869L53.7 40.1ZM46.6 63.6L45.7914 62.3366L43.4924 63.8079L45.967 64.9599L46.6 63.6ZM54.6 70.7L53.2584 71.3708L53.2644 71.3829L53.2707 71.3949L54.6 70.7ZM54.4 90.6L55.6807 91.3809L55.6849 91.3741L55.6889 91.3672L54.4 90.6ZM47.9 97.3L47.0825 96.0423L47.0752 96.0471L47.068 96.0519L47.9 97.3ZM38.9 101L38.5837 99.5337L38.5668 99.5374L38.5499 99.5414L38.9 101ZM2.7 97.5H1.2V98.4544L2.06447 98.8587L2.7 97.5ZM2.08642 79.5688C6.02081 81.3325 9.6238 82.5727 12.8878 83.2672L13.5122 80.3328C10.5095 79.694 7.11252 78.5342 3.31358 76.8312L2.08642 79.5688ZM12.8878 83.2672C16.1279 83.9565 19.466 84.3 22.9 84.3V81.3C19.6673 81.3 16.5388 80.9768 13.5122 80.3328L12.8878 83.2672ZM22.9 84.3C24.1552 84.3 25.3511 84.2303 26.4861 84.0884L26.1139 81.1116C25.1156 81.2364 24.0448 81.3 22.9 81.3V84.3ZM26.4753 84.0897C27.7058 83.945 28.8319 83.6872 29.8385 83.3L28.7615 80.5C28.0348 80.7795 27.1609 80.9884 26.1247 81.1103L26.4753 84.0897ZM29.8909 83.2787C31.0082 82.7999 31.9571 82.1298 32.6713 81.237L30.3287 79.363C29.9763 79.8035 29.4584 80.2001 28.7091 80.5213L29.8909 83.2787ZM32.6713 81.237C33.4526 80.2604 33.8 79.0797 33.8 77.8H30.8C30.8 78.5203 30.6141 79.0062 30.3287 79.363L32.6713 81.237ZM33.8 77.8C33.8 76.6701 33.5366 75.5996 32.8835 74.7114C32.2261 73.8174 31.2841 73.2579 30.2044 72.9556L29.3956 75.8444C29.9825 76.0088 30.2906 76.2493 30.4665 76.4886C30.6468 76.7337 30.8 77.1299 30.8 77.8H33.8ZM30.22 72.96C28.4323 72.4386 26.2098 72.2 23.6 72.2V75.2C26.0569 75.2 27.9677 75.4281 29.38 75.84L30.22 72.96ZM23.6 72.2H18.3V75.2H23.6V72.2ZM19.8 73.7V57.7H16.8V73.7H19.8ZM18.3 59.2H24V56.2H18.3V59.2ZM24 59.2C26.2646 59.2 28.2703 58.8828 29.9679 58.1883L28.8321 55.4117C27.5963 55.9172 26.002 56.2 24 56.2V59.2ZM30.0207 58.1655C30.9862 57.7267 31.7849 57.0741 32.3299 56.1822C32.8706 55.2974 33.1 54.2786 33.1 53.2H30.1C30.1 53.8547 29.9627 54.3026 29.7701 54.6178C29.5818 54.9259 29.2805 55.2066 28.7793 55.4344L30.0207 58.1655ZM33.1 53.2C33.1 52.1923 32.8891 51.233 32.3828 50.3975C31.8711 49.5532 31.1201 48.9392 30.2155 48.5321L28.9845 51.2679C29.4133 51.4608 29.6623 51.6968 29.8172 51.9524C29.9776 52.217 30.1 52.6077 30.1 53.2H33.1ZM30.2421 48.5444C28.7262 47.8263 26.9612 47.5 25 47.5V50.5C26.6388 50.5 27.9405 50.7737 28.9579 51.2556L30.2421 48.5444ZM25 47.5C22.105 47.5 19.2782 47.9595 16.5257 48.877L17.4743 51.723C19.9218 50.9072 22.4283 50.5 25 50.5V47.5ZM16.5257 48.877C13.8401 49.7722 10.9699 51.0041 7.91733 52.5643L9.28267 55.2357C12.2301 53.7292 14.9599 52.5612 17.4743 51.723L16.5257 48.877ZM9.96939 53.2878L2.36939 36.2878L-0.369385 37.5122L7.23061 54.5122L9.96939 53.2878ZM1.71514 38.2185C5.57144 36.127 9.69473 34.3265 14.087 32.8187L13.113 29.9813C8.57194 31.5401 4.29523 33.4063 0.284855 35.5814L1.71514 38.2185ZM14.1058 32.8121C18.3839 31.2797 23.2421 30.5 28.7 30.5V27.5C22.958 27.5 17.7495 28.3203 13.0942 29.9879L14.1058 32.8121ZM28.7 30.5C33.1363 30.5 36.9273 30.9573 40.0956 31.8444L40.9044 28.9556C37.4061 27.976 33.3304 27.5 28.7 27.5V30.5ZM40.0956 31.8444C43.292 32.7394 45.877 33.9675 47.8942 35.4956L49.7058 33.1044C47.323 31.2992 44.3747 29.9272 40.9044 28.9556L40.0956 31.8444ZM47.9177 35.5131C49.9316 36.9777 51.3927 38.7197 52.3428 40.7387L55.0572 39.4613C53.874 36.9469 52.0684 34.8223 49.6823 33.0869L47.9177 35.5131ZM52.3665 40.7869C53.3849 42.7637 53.9 44.9265 53.9 47.3H56.9C56.9 44.4735 56.2818 41.8363 55.0335 39.4131L52.3665 40.7869ZM53.9 47.3C53.9 50.6553 53.2988 53.488 52.1515 55.843L54.8485 57.157C56.2345 54.312 56.9 51.0114 56.9 47.3H53.9ZM52.1515 55.843C51.0423 58.1198 48.9748 60.2992 45.7914 62.3366L47.4086 64.8634C50.8918 62.6341 53.4244 60.0801 54.8485 57.157L52.1515 55.843ZM45.967 64.9599C49.6195 66.6602 51.9836 68.8213 53.2584 71.3708L55.9416 70.0292C54.2831 66.7121 51.3138 64.1398 47.233 62.2401L45.967 64.9599ZM53.2707 71.3949C54.6844 74.0994 55.4 77.0919 55.4 80.4H58.4C58.4 76.6414 57.5823 73.1673 55.9293 70.0051L53.2707 71.3949ZM55.4 80.4C55.4 84.1912 54.6113 87.3124 53.1111 89.8328L55.6889 91.3672C57.522 88.2876 58.4 84.6088 58.4 80.4H55.4ZM53.1193 89.8191C51.5687 92.3622 49.5598 94.4321 47.0825 96.0423L48.7175 98.5577C51.5735 96.7012 53.898 94.3045 55.6807 91.3809L53.1193 89.8191ZM47.068 96.0519C44.6414 97.6696 41.8204 98.8356 38.5837 99.5337L39.2163 102.466C42.7796 101.698 45.9586 100.397 48.7321 98.5481L47.068 96.0519ZM38.5499 99.5414C35.3303 100.314 32.0811 100.7 28.8 100.7V103.7C32.3189 103.7 35.803 103.286 39.2501 102.459L38.5499 99.5414ZM28.8 100.7C23.8585 100.7 19.3652 100.403 15.3155 99.8156L14.8845 102.784C19.1015 103.397 23.7415 103.7 28.8 103.7V100.7ZM15.3155 99.8156C11.3403 99.2385 7.34799 98.0181 3.33553 96.1413L2.06447 98.8587C6.31868 100.849 10.593 102.161 14.8845 102.784L15.3155 99.8156ZM4.2 97.5V78.2H1.2V97.5H4.2Z" fill="white"/>
</svg>
