<svg width="70" height="126" viewBox="0 0 70 126" fill="none" xmlns="http://www.w3.org/2000/svg">
<path d="M3.2 69.3L29.5 30.2H57.3V69.5H65.5V86.3H57.3V101H35.8V86.3H3.2V69.3ZM35.8 69.5V51.6L24.9 69.5H35.8Z" fill="#5CCE2E"/>
<path d="M3.2 69.3L1.95536 68.4628L1.7 68.8425V69.3H3.2ZM29.5 30.2V28.7H28.7012L28.2554 29.3628L29.5 30.2ZM57.3 30.2H58.8V28.7H57.3V30.2ZM57.3 69.5H55.8V71H57.3V69.5ZM65.5 69.5H67V68H65.5V69.5ZM65.5 86.3V87.8H67V86.3H65.5ZM57.3 86.3V84.8H55.8V86.3H57.3ZM57.3 101V102.5H58.8V101H57.3ZM35.8 101H34.3V102.5H35.8V101ZM35.8 86.3H37.3V84.8H35.8V86.3ZM3.2 86.3H1.7V87.8H3.2V86.3ZM35.8 69.5V71H37.3V69.5H35.8ZM35.8 51.6H37.3V46.2526L34.5188 50.8199L35.8 51.6ZM24.9 69.5L23.6188 68.7198L22.2304 71H24.9V69.5ZM4.44464 70.1372L30.7446 31.0372L28.2554 29.3628L1.95536 68.4628L4.44464 70.1372ZM29.5 31.7H57.3V28.7H29.5V31.7ZM55.8 30.2V69.5H58.8V30.2H55.8ZM57.3 71H65.5V68H57.3V71ZM64 69.5V86.3H67V69.5H64ZM65.5 84.8H57.3V87.8H65.5V84.8ZM55.8 86.3V101H58.8V86.3H55.8ZM57.3 99.5H35.8V102.5H57.3V99.5ZM37.3 101V86.3H34.3V101H37.3ZM35.8 84.8H3.2V87.8H35.8V84.8ZM4.7 86.3V69.3H1.7V86.3H4.7ZM37.3 69.5V51.6H34.3V69.5H37.3ZM34.5188 50.8199L23.6188 68.7198L26.1812 70.2801L37.0812 52.3801L34.5188 50.8199ZM24.9 71H35.8V68H24.9V71Z" fill="white"/>
</svg>
