<svg width="70" height="75" viewBox="0 0 70 75" fill="none" xmlns="http://www.w3.org/2000/svg">
<path d="M3.2 43.3L29.5 4.2H57.3V43.5H65.5V60.3H57.3V75H35.8V60.3H3.2V43.3ZM35.8 43.5V25.6L24.9 43.5H35.8Z" fill="#5CCE2E"/>
<path d="M3.2 43.3L1.95536 42.4628L1.7 42.8425V43.3H3.2ZM29.5 4.2V2.7H28.7012L28.2554 3.36281L29.5 4.2ZM57.3 4.2H58.8V2.7H57.3V4.2ZM57.3 43.5H55.8V45H57.3V43.5ZM65.5 43.5H67V42H65.5V43.5ZM65.5 60.3V61.8H67V60.3H65.5ZM57.3 60.3V58.8H55.8V60.3H57.3ZM57.3 75V76.5H58.8V75H57.3ZM35.8 75H34.3V76.5H35.8V75ZM35.8 60.3H37.3V58.8H35.8V60.3ZM3.2 60.3H1.7V61.8H3.2V60.3ZM35.8 43.5V45H37.3V43.5H35.8ZM35.8 25.6H37.3V20.2526L34.5188 24.8199L35.8 25.6ZM24.9 43.5L23.6188 42.7198L22.2304 45H24.9V43.5ZM4.44464 44.1372L30.7446 5.03718L28.2554 3.36281L1.95536 42.4628L4.44464 44.1372ZM29.5 5.7H57.3V2.7H29.5V5.7ZM55.8 4.2V43.5H58.8V4.2H55.8ZM57.3 45H65.5V42H57.3V45ZM64 43.5V60.3H67V43.5H64ZM65.5 58.8H57.3V61.8H65.5V58.8ZM55.8 60.3V75H58.8V60.3H55.8ZM57.3 73.5H35.8V76.5H57.3V73.5ZM37.3 75V60.3H34.3V75H37.3ZM35.8 58.8H3.2V61.8H35.8V58.8ZM4.7 60.3V43.3H1.7V60.3H4.7ZM37.3 43.5V25.6H34.3V43.5H37.3ZM34.5188 24.8199L23.6188 42.7198L26.1812 44.2801L37.0812 26.3801L34.5188 24.8199ZM24.9 45H35.8V42H24.9V45Z" fill="white"/>
</svg>
