<svg width="57" height="77" viewBox="0 0 57 77" fill="none" xmlns="http://www.w3.org/2000/svg">
<path d="M1.7 53.6C5.3 55.1333 8.66667 56.1333 11.8 56.6C14.9333 57 18.1667 57.2 21.5 57.2C24.4333 57.2 26.5667 56.6667 27.9 55.6C29.2333 54.4667 29.9 53.0333 29.9 51.3C29.9 50.6333 29.7667 49.9333 29.5 49.2C29.2333 48.4667 28.6667 47.8333 27.8 47.3C26.9333 46.7 25.7333 46.2333 24.2 45.9C22.6667 45.5 20.6333 45.3 18.1 45.3C15.0333 45.3 12.2 45.5333 9.6 46C7 46.4 5.03333 46.8667 3.7 47.4L6 4.2H50.3V22.4H24.2L23.5 31.1C24.7667 30.8333 26.2667 30.6667 28 30.6C29.7333 30.4667 31.1667 30.4 32.3 30.4C39.5667 30.4 45.0333 32.3667 48.7 36.3C52.3667 40.2333 54.2 45.5333 54.2 52.2C54.2 55.4667 53.5667 58.5667 52.3 61.5C51.1 64.3667 49.3333 66.9 47 69.1C44.6667 71.3 41.7333 73.0333 38.2 74.3C34.7333 75.5667 30.7667 76.2 26.3 76.2C21.9667 76.2 17.6333 75.8333 13.3 75.1C8.96667 74.3667 5.1 73.1667 1.7 71.5V53.6Z" fill="#5CCE2E"/>
<path d="M1.7 53.6L2.28779 52.22L0.2 51.3307V53.6H1.7ZM11.8 56.6L11.579 58.0836L11.5945 58.0859L11.6101 58.0879L11.8 56.6ZM27.9 55.6L28.837 56.7713L28.8545 56.7574L28.8715 56.7429L27.9 55.6ZM27.8 47.3L26.9462 48.5333L26.9794 48.5563L27.0139 48.5775L27.8 47.3ZM24.2 45.9L23.8214 47.3514L23.8512 47.3592L23.8814 47.3658L24.2 45.9ZM9.6 46L9.82809 47.4826L9.84658 47.4797L9.865 47.4764L9.6 46ZM3.7 47.4L2.20212 47.3202L2.07731 49.6646L4.25709 48.7927L3.7 47.4ZM6 4.2V2.7H4.57774L4.50212 4.12025L6 4.2ZM50.3 4.2H51.8V2.7H50.3V4.2ZM50.3 22.4V23.9H51.8V22.4H50.3ZM24.2 22.4V20.9H22.8158L22.7048 22.2797L24.2 22.4ZM23.5 31.1L22.0048 30.9797L21.8438 32.9816L23.809 32.5678L23.5 31.1ZM28 30.6L28.0577 32.0989L28.0864 32.0978L28.115 32.0956L28 30.6ZM48.7 36.3L47.6028 37.3228L48.7 36.3ZM52.3 61.5L50.9229 60.9053L50.9196 60.913L50.9163 60.9208L52.3 61.5ZM47 69.1L48.029 70.1914L48.029 70.1914L47 69.1ZM38.2 74.3L37.6938 72.888L37.6852 72.8911L38.2 74.3ZM13.3 75.1L13.0497 76.579L13.0497 76.579L13.3 75.1ZM1.7 71.5H0.2V72.4352L1.03976 72.8469L1.7 71.5ZM1.11221 54.98C4.80326 56.5522 8.29405 57.5944 11.579 58.0836L12.021 55.1164C9.03928 54.6723 5.79674 53.7145 2.28779 52.22L1.11221 54.98ZM11.6101 58.0879C14.8097 58.4964 18.1066 58.7 21.5 58.7V55.7C18.2267 55.7 15.0569 55.5036 11.9899 55.1121L11.6101 58.0879ZM21.5 58.7C24.5526 58.7 27.1052 58.1568 28.837 56.7713L26.963 54.4287C26.0282 55.1765 24.314 55.7 21.5 55.7V58.7ZM28.8715 56.7429C30.5364 55.3277 31.4 53.4782 31.4 51.3H28.4C28.4 52.5884 27.9303 53.6056 26.9285 54.4571L28.8715 56.7429ZM31.4 51.3C31.4 50.4315 31.2261 49.5576 30.9097 48.6874L28.0903 49.7126C28.3072 50.3091 28.4 50.8352 28.4 51.3H31.4ZM30.9097 48.6874C30.4963 47.5507 29.6527 46.6788 28.5861 46.0225L27.0139 48.5775C27.6807 48.9878 27.9703 49.3826 28.0903 49.7126L30.9097 48.6874ZM28.6538 46.0667C27.5669 45.3142 26.1588 44.7908 24.5186 44.4342L23.8814 47.3658C25.3079 47.6759 26.2998 48.0858 26.9462 48.5333L28.6538 46.0667ZM24.5786 44.4486C22.8707 44.003 20.6947 43.8 18.1 43.8V46.8C20.572 46.8 22.4627 46.997 23.8214 47.3514L24.5786 44.4486ZM18.1 43.8C14.9583 43.8 12.0351 44.039 9.335 44.5236L9.865 47.4764C12.3649 47.0277 15.1084 46.8 18.1 46.8V43.8ZM9.37191 44.5174C6.73584 44.923 4.63571 45.4102 3.14291 46.0073L4.25709 48.7927C5.43096 48.3232 7.26416 47.877 9.82809 47.4826L9.37191 44.5174ZM5.19788 47.4797L7.49788 4.27975L4.50212 4.12025L2.20212 47.3202L5.19788 47.4797ZM6 5.7H50.3V2.7H6V5.7ZM48.8 4.2V22.4H51.8V4.2H48.8ZM50.3 20.9H24.2V23.9H50.3V20.9ZM22.7048 22.2797L22.0048 30.9797L24.9952 31.2203L25.6952 22.5203L22.7048 22.2797ZM23.809 32.5678C24.9705 32.3233 26.3823 32.1633 28.0577 32.0989L27.9423 29.1011C26.151 29.17 24.5628 29.3434 23.191 29.6322L23.809 32.5678ZM28.115 32.0956C29.828 31.9638 31.2195 31.9 32.3 31.9V28.9C31.1138 28.9 29.6387 28.9695 27.885 29.1044L28.115 32.0956ZM32.3 31.9C39.3026 31.9 44.3091 33.7896 47.6028 37.3228L49.7972 35.2772C45.7576 30.9438 39.8308 28.9 32.3 28.9V31.9ZM47.6028 37.3228C50.9522 40.9158 52.7 45.8176 52.7 52.2H55.7C55.7 45.2491 53.7812 39.5509 49.7972 35.2772L47.6028 37.3228ZM52.7 52.2C52.7 55.2668 52.1067 58.164 50.9229 60.9053L53.6771 62.0947C55.0267 58.9693 55.7 55.6665 55.7 52.2H52.7ZM50.9163 60.9208C49.8 63.5876 48.1566 65.9479 45.971 68.0086L48.029 70.1914C50.5101 67.8521 52.4 65.1458 53.6837 62.0792L50.9163 60.9208ZM45.971 68.0086C43.8114 70.0448 41.0654 71.6793 37.6938 72.888L38.7062 75.712C42.4013 74.3874 45.5219 72.5552 48.029 70.1914L45.971 68.0086ZM37.6852 72.8911C34.4141 74.0863 30.6269 74.7 26.3 74.7V77.7C30.9065 77.7 35.0526 77.047 38.7148 75.7089L37.6852 72.8911ZM26.3 74.7C22.0517 74.7 17.8021 74.3406 13.5503 73.621L13.0497 76.579C17.4646 77.3261 21.8816 77.7 26.3 77.7V74.7ZM13.5503 73.621C9.33695 72.908 5.6118 71.747 2.36024 70.1531L1.03976 72.8469C4.5882 74.5863 8.59638 75.8253 13.0497 76.579L13.5503 73.621ZM3.2 71.5V53.6H0.2V71.5H3.2Z" fill="white"/>
</svg>
