<svg width="57" height="126" viewBox="0 0 57 126" fill="none" xmlns="http://www.w3.org/2000/svg">
<path d="M1.7 79.6C5.3 81.1333 8.66667 82.1333 11.8 82.6C14.9333 83 18.1667 83.2 21.5 83.2C24.4333 83.2 26.5667 82.6667 27.9 81.6C29.2333 80.4667 29.9 79.0333 29.9 77.3C29.9 76.6333 29.7667 75.9333 29.5 75.2C29.2333 74.4667 28.6667 73.8333 27.8 73.3C26.9333 72.7 25.7333 72.2333 24.2 71.9C22.6667 71.5 20.6333 71.3 18.1 71.3C15.0333 71.3 12.2 71.5333 9.6 72C7 72.4 5.03333 72.8667 3.7 73.4L6 30.2H50.3V48.4H24.2L23.5 57.1C24.7667 56.8333 26.2667 56.6667 28 56.6C29.7333 56.4667 31.1667 56.4 32.3 56.4C39.5667 56.4 45.0333 58.3667 48.7 62.3C52.3667 66.2333 54.2 71.5333 54.2 78.2C54.2 81.4667 53.5667 84.5667 52.3 87.5C51.1 90.3667 49.3333 92.9 47 95.1C44.6667 97.3 41.7333 99.0333 38.2 100.3C34.7333 101.567 30.7667 102.2 26.3 102.2C21.9667 102.2 17.6333 101.833 13.3 101.1C8.96667 100.367 5.1 99.1667 1.7 97.5V79.6Z" fill="#5CCE2E"/>
<path d="M1.7 79.6L2.28779 78.22L0.2 77.3307V79.6H1.7ZM11.8 82.6L11.579 84.0836L11.5945 84.0859L11.6101 84.0879L11.8 82.6ZM27.9 81.6L28.837 82.7713L28.8545 82.7574L28.8715 82.7429L27.9 81.6ZM27.8 73.3L26.9462 74.5333L26.9794 74.5563L27.0139 74.5775L27.8 73.3ZM24.2 71.9L23.8214 73.3514L23.8512 73.3592L23.8814 73.3658L24.2 71.9ZM9.6 72L9.82809 73.4826L9.84658 73.4797L9.865 73.4764L9.6 72ZM3.7 73.4L2.20212 73.3202L2.07731 75.6646L4.25709 74.7927L3.7 73.4ZM6 30.2V28.7H4.57774L4.50212 30.1203L6 30.2ZM50.3 30.2H51.8V28.7H50.3V30.2ZM50.3 48.4V49.9H51.8V48.4H50.3ZM24.2 48.4V46.9H22.8158L22.7048 48.2797L24.2 48.4ZM23.5 57.1L22.0048 56.9797L21.8438 58.9816L23.809 58.5678L23.5 57.1ZM28 56.6L28.0577 58.0989L28.0864 58.0978L28.115 58.0956L28 56.6ZM48.7 62.3L47.6028 63.3228L48.7 62.3ZM52.3 87.5L50.9229 86.9053L50.9196 86.913L50.9163 86.9208L52.3 87.5ZM47 95.1L48.029 96.1914L48.029 96.1914L47 95.1ZM38.2 100.3L37.6938 98.888L37.6852 98.8911L38.2 100.3ZM13.3 101.1L13.0497 102.579L13.0497 102.579L13.3 101.1ZM1.7 97.5H0.2V98.4352L1.03976 98.8469L1.7 97.5ZM1.11221 80.98C4.80326 82.5522 8.29405 83.5944 11.579 84.0836L12.021 81.1164C9.03928 80.6723 5.79674 79.7145 2.28779 78.22L1.11221 80.98ZM11.6101 84.0879C14.8097 84.4964 18.1066 84.7 21.5 84.7V81.7C18.2267 81.7 15.0569 81.5036 11.9899 81.1121L11.6101 84.0879ZM21.5 84.7C24.5526 84.7 27.1052 84.1568 28.837 82.7713L26.963 80.4287C26.0282 81.1765 24.314 81.7 21.5 81.7V84.7ZM28.8715 82.7429C30.5364 81.3277 31.4 79.4782 31.4 77.3H28.4C28.4 78.5884 27.9303 79.6056 26.9285 80.4571L28.8715 82.7429ZM31.4 77.3C31.4 76.4315 31.2261 75.5576 30.9097 74.6874L28.0903 75.7126C28.3072 76.3091 28.4 76.8352 28.4 77.3H31.4ZM30.9097 74.6874C30.4963 73.5507 29.6527 72.6788 28.5861 72.0225L27.0139 74.5775C27.6807 74.9878 27.9703 75.3826 28.0903 75.7126L30.9097 74.6874ZM28.6538 72.0667C27.5669 71.3142 26.1588 70.7908 24.5186 70.4342L23.8814 73.3658C25.3079 73.6759 26.2998 74.0858 26.9462 74.5333L28.6538 72.0667ZM24.5786 70.4486C22.8707 70.003 20.6947 69.8 18.1 69.8V72.8C20.572 72.8 22.4627 72.997 23.8214 73.3514L24.5786 70.4486ZM18.1 69.8C14.9583 69.8 12.0351 70.039 9.335 70.5236L9.865 73.4764C12.3649 73.0277 15.1084 72.8 18.1 72.8V69.8ZM9.37191 70.5174C6.73584 70.923 4.63571 71.4102 3.14291 72.0073L4.25709 74.7927C5.43096 74.3232 7.26416 73.877 9.82809 73.4826L9.37191 70.5174ZM5.19788 73.4797L7.49788 30.2797L4.50212 30.1203L2.20212 73.3202L5.19788 73.4797ZM6 31.7H50.3V28.7H6V31.7ZM48.8 30.2V48.4H51.8V30.2H48.8ZM50.3 46.9H24.2V49.9H50.3V46.9ZM22.7048 48.2797L22.0048 56.9797L24.9952 57.2203L25.6952 48.5203L22.7048 48.2797ZM23.809 58.5678C24.9705 58.3233 26.3823 58.1633 28.0577 58.0989L27.9423 55.1011C26.151 55.17 24.5628 55.3434 23.191 55.6322L23.809 58.5678ZM28.115 58.0956C29.828 57.9638 31.2195 57.9 32.3 57.9V54.9C31.1138 54.9 29.6387 54.9695 27.885 55.1044L28.115 58.0956ZM32.3 57.9C39.3026 57.9 44.3091 59.7896 47.6028 63.3228L49.7972 61.2772C45.7576 56.9438 39.8308 54.9 32.3 54.9V57.9ZM47.6028 63.3228C50.9522 66.9158 52.7 71.8176 52.7 78.2H55.7C55.7 71.2491 53.7812 65.5509 49.7972 61.2772L47.6028 63.3228ZM52.7 78.2C52.7 81.2668 52.1067 84.164 50.9229 86.9053L53.6771 88.0947C55.0267 84.9693 55.7 81.6665 55.7 78.2H52.7ZM50.9163 86.9208C49.8 89.5876 48.1566 91.9479 45.971 94.0086L48.029 96.1914C50.5101 93.8521 52.4 91.1458 53.6837 88.0792L50.9163 86.9208ZM45.971 94.0086C43.8114 96.0448 41.0654 97.6793 37.6938 98.888L38.7062 101.712C42.4013 100.387 45.5219 98.5552 48.029 96.1914L45.971 94.0086ZM37.6852 98.8911C34.4141 100.086 30.6269 100.7 26.3 100.7V103.7C30.9065 103.7 35.0526 103.047 38.7148 101.709L37.6852 98.8911ZM26.3 100.7C22.0517 100.7 17.8021 100.341 13.5503 99.621L13.0497 102.579C17.4646 103.326 21.8816 103.7 26.3 103.7V100.7ZM13.5503 99.621C9.33695 98.908 5.6118 97.747 2.36024 96.1531L1.03976 98.8469C4.5882 100.586 8.59638 101.825 13.0497 102.579L13.5503 99.621ZM3.2 97.5V79.6H0.2V97.5H3.2Z" fill="white"/>
</svg>
