<svg width="65" height="126" viewBox="0 0 65 126" fill="none" xmlns="http://www.w3.org/2000/svg">
<path d="M52.8 49.7C50.4667 48.7 48.3333 47.9667 46.4 47.5C44.5333 46.9667 42.2667 46.7 39.6 46.7C35.6 46.7 32.4667 47.8 30.2 50C28 52.2 26.4667 55.1667 25.6 58.9C27.7333 57.1667 29.8333 56 31.9 55.4C34.0333 54.7333 36.1667 54.4 38.3 54.4C42.3667 54.4 45.9 54.9667 48.9 56.1C51.9 57.1667 54.3333 58.7 56.2 60.7C58.1333 62.6333 59.5667 64.9667 60.5 67.7C61.4333 70.4333 61.9 73.4667 61.9 76.8C61.9 80.6 61.2 84.0667 59.8 87.2C58.4667 90.3333 56.5667 93 54.1 95.2C51.7 97.4 48.7667 99.1333 45.3 100.4C41.9 101.6 38.1333 102.2 34 102.2C27.6 102.2 22.4333 101.133 18.5 99C14.6333 96.8 11.6 94 9.4 90.6C7.26667 87.1333 5.83333 83.2667 5.1 79C4.36667 74.7333 4 70.5 4 66.3C4 61.3667 4.7 56.6667 6.1 52.2C7.5 47.6667 9.56667 43.7 12.3 40.3C15.0333 36.8333 18.3667 34.1 22.3 32.1C26.3 30.0333 30.9 29 36.1 29C38.5667 29 40.8333 29.1333 42.9 29.4C44.9667 29.6 46.9 29.9333 48.7 30.4C50.5 30.8667 52.2333 31.4667 53.9 32.2C55.6333 32.8667 57.3667 33.6333 59.1 34.5L52.8 49.7ZM33.7 86.3C35.8333 86.3 37.5 85.5333 38.7 84C39.9 82.4667 40.5 80.3667 40.5 77.7C40.5 75.0333 39.9 73 38.7 71.6C37.5 70.2 35.8333 69.5 33.7 69.5C31.5667 69.5 29.9 70.3 28.7 71.9C27.5667 73.4333 27 75.3667 27 77.7C27 80.3667 27.5667 82.4667 28.7 84C29.9 85.5333 31.5667 86.3 33.7 86.3Z" fill="#5CCE2E"/>
<path d="M52.8 49.7L52.2091 51.0787L53.6044 51.6767L54.1857 50.2743L52.8 49.7ZM46.4 47.5L45.9879 48.9423L46.0178 48.9508L46.048 48.9581L46.4 47.5ZM30.2 50L29.1553 48.9236L29.1473 48.9314L29.1393 48.9393L30.2 50ZM25.6 58.9L24.1389 58.5608L23.1492 62.824L26.5459 60.0642L25.6 58.9ZM31.9 55.4L32.3182 56.8405L32.3329 56.8363L32.3474 56.8317L31.9 55.4ZM48.9 56.1L48.3699 57.5032L48.3836 57.5084L48.3975 57.5133L48.9 56.1ZM56.2 60.7L55.1034 61.7235L55.1211 61.7424L55.1393 61.7607L56.2 60.7ZM60.5 67.7L59.0805 68.1847L59.0805 68.1847L60.5 67.7ZM59.8 87.2L58.4305 86.5881L58.425 86.6003L58.4198 86.6127L59.8 87.2ZM54.1 95.2L53.1016 94.0806L53.0939 94.0874L53.0864 94.0943L54.1 95.2ZM45.3 100.4L45.7992 101.814L45.807 101.812L45.8148 101.809L45.3 100.4ZM18.5 99L17.7582 100.304L17.7715 100.311L17.7849 100.319L18.5 99ZM9.4 90.6L8.12251 91.3861L8.13142 91.4006L8.14065 91.4149L9.4 90.6ZM5.1 79L6.57832 78.7459L6.57832 78.7459L5.1 79ZM6.1 52.2L7.53135 52.6486L7.53321 52.6426L6.1 52.2ZM12.3 40.3L13.4691 41.2398L13.4735 41.2343L13.4779 41.2287L12.3 40.3ZM22.3 32.1L22.9799 33.4371L22.9885 33.4326L22.3 32.1ZM42.9 29.4L42.708 30.8877L42.7317 30.8907L42.7555 30.893L42.9 29.4ZM48.7 30.4L48.3236 31.852L48.3236 31.852L48.7 30.4ZM53.9 32.2L53.2959 33.573L53.3284 33.5873L53.3615 33.6L53.9 32.2ZM59.1 34.5L60.4857 35.0743L61.0208 33.7833L59.7708 33.1584L59.1 34.5ZM38.7 84L37.5187 83.0755L38.7 84ZM38.7 71.6L37.5611 72.5762L37.5611 72.5762L38.7 71.6ZM28.7 71.9L27.5 71L27.4937 71.0084L28.7 71.9ZM28.7 84L27.4937 84.8916L27.506 84.9082L27.5187 84.9245L28.7 84ZM53.3909 48.3213C51.0003 47.2967 48.7858 46.5328 46.752 46.0419L46.048 48.9581C47.8809 49.4005 49.9331 50.1033 52.2091 51.0787L53.3909 48.3213ZM46.8121 46.0577C44.772 45.4748 42.358 45.2 39.6 45.2V48.2C42.1753 48.2 44.2947 48.4585 45.9879 48.9423L46.8121 46.0577ZM39.6 45.2C35.3187 45.2 31.7712 46.3846 29.1553 48.9236L31.2447 51.0764C33.1621 49.2154 35.8813 48.2 39.6 48.2V45.2ZM29.1393 48.9393C26.6996 51.3791 25.0542 54.6176 24.1389 58.5608L27.0611 59.2392C27.8791 55.7157 29.3004 53.0209 31.2607 51.0607L29.1393 48.9393ZM26.5459 60.0642C28.565 58.4236 30.4895 57.3714 32.3182 56.8405L31.4818 53.9595C29.1771 54.6286 26.9017 55.9097 24.6541 57.7358L26.5459 60.0642ZM32.3474 56.8317C34.3429 56.2081 36.3255 55.9 38.3 55.9V52.9C36.0078 52.9 33.7238 53.2585 31.4526 53.9683L32.3474 56.8317ZM38.3 55.9C42.232 55.9 45.5779 56.4485 48.3699 57.5032L49.4301 54.6968C46.2221 53.4849 42.5013 52.9 38.3 52.9V55.9ZM48.3975 57.5133C51.2083 58.5127 53.4256 59.9258 55.1034 61.7235L57.2966 59.6765C55.241 57.4741 52.5918 55.8206 49.4025 54.6867L48.3975 57.5133ZM55.1393 61.7607C56.9015 63.5228 58.2169 65.6557 59.0805 68.1847L61.9195 67.2153C60.9164 64.2776 59.3652 61.7438 57.2607 59.6393L55.1393 61.7607ZM59.0805 68.1847C59.953 70.74 60.4 73.6066 60.4 76.8H63.4C63.4 73.3267 62.9136 70.1266 61.9195 67.2153L59.0805 68.1847ZM60.4 76.8C60.4 80.4119 59.7356 83.667 58.4305 86.5881L61.1695 87.8119C62.6644 84.4663 63.4 80.7881 63.4 76.8H60.4ZM58.4198 86.6127C57.1703 89.549 55.3983 92.0322 53.1016 94.0806L55.0984 96.3194C57.7351 93.9678 59.7631 91.1177 61.1802 87.7873L58.4198 86.6127ZM53.0864 94.0943C50.8493 96.1449 48.0919 97.7829 44.7852 98.9911L45.8148 101.809C49.4414 100.484 52.5507 98.6551 55.1136 96.3057L53.0864 94.0943ZM44.8008 98.9855C41.5827 100.121 37.9878 100.7 34 100.7V103.7C38.2789 103.7 42.2173 103.079 45.7992 101.814L44.8008 98.9855ZM34 100.7C27.749 100.7 22.8547 99.6555 19.2151 97.6815L17.7849 100.319C22.0119 102.611 27.451 103.7 34 103.7V100.7ZM19.2418 97.6963C15.5634 95.6034 12.716 92.9636 10.6594 89.7851L8.14065 91.4149C10.484 95.0364 13.7033 97.9966 17.7582 100.304L19.2418 97.6963ZM10.6775 89.8139C8.65067 86.5203 7.28134 82.8362 6.57832 78.7459L3.62168 79.2541C4.38533 83.6972 5.88267 87.7464 8.12251 91.3861L10.6775 89.8139ZM6.57832 78.7459C5.85897 74.5606 5.5 70.4123 5.5 66.3H2.5C2.5 70.5877 2.87436 74.9061 3.62168 79.2541L6.57832 78.7459ZM5.5 66.3C5.5 61.5106 6.17925 56.9624 7.53134 52.6486L4.66866 51.7514C3.22075 56.3709 2.5 61.2227 2.5 66.3H5.5ZM7.53321 52.6426C8.88226 48.2743 10.8644 44.4798 13.4691 41.2398L11.1309 39.3602C8.26894 42.9202 6.11775 47.059 4.66679 51.7574L7.53321 52.6426ZM13.4779 41.2287C16.0768 37.9325 19.2402 35.3386 22.9799 33.4371L21.6201 30.7629C17.4931 32.8614 13.9899 35.7341 11.1221 39.3713L13.4779 41.2287ZM22.9885 33.4326C26.7449 31.4919 31.1023 30.5 36.1 30.5V27.5C30.6977 27.5 25.8551 28.5748 21.6115 30.7674L22.9885 33.4326ZM36.1 30.5C38.5138 30.5 40.7153 30.6305 42.708 30.8877L43.092 27.9123C40.9513 27.6361 38.6196 27.5 36.1 27.5V30.5ZM42.7555 30.893C44.7528 31.0863 46.6079 31.4072 48.3236 31.852L49.0764 28.948C47.1921 28.4595 45.1805 28.1137 43.0445 27.907L42.7555 30.893ZM48.3236 31.852C50.0473 32.2989 51.7044 32.8727 53.2959 33.573L54.5041 30.827C52.7623 30.0606 50.9527 29.4344 49.0764 28.948L48.3236 31.852ZM53.3615 33.6C55.0479 34.2486 56.7371 34.9956 58.4292 35.8416L59.7708 33.1584C57.9962 32.271 56.2187 31.4847 54.4385 30.8L53.3615 33.6ZM57.7143 33.9257L51.4143 49.1257L54.1857 50.2743L60.4857 35.0743L57.7143 33.9257ZM33.7 87.8C36.244 87.8 38.3672 86.8591 39.8813 84.9245L37.5187 83.0755C36.6328 84.2075 35.4226 84.8 33.7 84.8V87.8ZM39.8813 84.9245C41.3523 83.0447 42 80.5793 42 77.7H39C39 80.154 38.4477 81.8886 37.5187 83.0755L39.8813 84.9245ZM42 77.7C42 74.8319 41.3568 72.3947 39.8389 70.6238L37.5611 72.5762C38.4432 73.6053 39 75.2348 39 77.7H42ZM39.8389 70.6238C38.3077 68.8375 36.1949 68 33.7 68V71C35.4718 71 36.6923 71.5625 37.5611 72.5762L39.8389 70.6238ZM33.7 68C31.1312 68 29.0046 68.9939 27.5 71L29.9 72.8C30.7954 71.6061 32.0022 71 33.7 71V68ZM27.4937 71.0084C26.1302 72.8531 25.5 75.119 25.5 77.7H28.5C28.5 75.6144 29.0031 74.0135 29.9063 72.7916L27.4937 71.0084ZM25.5 77.7C25.5 80.563 26.1069 83.0153 27.4937 84.8916L29.9063 83.1084C29.0264 81.9181 28.5 80.1704 28.5 77.7H25.5ZM27.5187 84.9245C29.0328 86.8591 31.156 87.8 33.7 87.8V84.8C31.9774 84.8 30.7672 84.2075 29.8813 83.0755L27.5187 84.9245Z" fill="white"/>
</svg>
