<svg width="62" height="126" viewBox="0 0 62 126" fill="none" xmlns="http://www.w3.org/2000/svg">
<path d="M30.1 49.4H1V30.2H57.8V44.4L31.6 101H5.4L30.1 49.4Z" fill="#5CCE2E"/>
<path d="M30.1 49.4L31.453 50.0476L32.481 47.9H30.1V49.4ZM1 49.4H-0.5V50.9H1V49.4ZM1 30.2V28.7H-0.5V30.2H1ZM57.8 30.2H59.3V28.7H57.8V30.2ZM57.8 44.4L59.1612 45.0301L59.3 44.7303V44.4H57.8ZM31.6 101V102.5H32.5586L32.9612 101.63L31.6 101ZM5.4 101L4.04702 100.352L3.01898 102.5H5.4V101ZM30.1 47.9H1V50.9H30.1V47.9ZM2.5 49.4V30.2H-0.5V49.4H2.5ZM1 31.7H57.8V28.7H1V31.7ZM56.3 30.2V44.4H59.3V30.2H56.3ZM56.4388 43.7699L30.2388 100.37L32.9612 101.63L59.1612 45.0301L56.4388 43.7699ZM31.6 99.5H5.4V102.5H31.6V99.5ZM6.75298 101.648L31.453 50.0476L28.747 48.7523L4.04702 100.352L6.75298 101.648Z" fill="white"/>
</svg>
