<svg width="66" height="126" viewBox="0 0 66 126" fill="none" xmlns="http://www.w3.org/2000/svg">
<path d="M32.5 56C34.1667 56 35.5333 55.4333 36.6 54.3C37.6667 53.1 38.2 51.6 38.2 49.8C38.2 48 37.6667 46.5333 36.6 45.4C35.5333 44.2 34.1667 43.6 32.5 43.6C30.9667 43.6 29.6667 44.2 28.6 45.4C27.5333 46.5333 27 48 27 49.8C27 51.6 27.5333 53.1 28.6 54.3C29.6667 55.4333 30.9667 56 32.5 56ZM32.5 86.6C34.5667 86.6 36.2667 85.9333 37.6 84.6C38.9333 83.2 39.6 81.4 39.6 79.2C39.6 77 38.9 75.2 37.5 73.8C36.1667 72.4 34.5 71.7 32.5 71.7C30.5667 71.7 28.9 72.4 27.5 73.8C26.1667 75.2 25.5 77 25.5 79.2C25.5 81.4 26.1667 83.2 27.5 84.6C28.9 85.9333 30.5667 86.6 32.5 86.6ZM14 63.1C12.4667 62.2333 11.1667 61.2 10.1 60C9.1 58.7333 8.26667 57.4667 7.6 56.2C6.93333 54.8667 6.43333 53.5333 6.1 52.2C5.83333 50.8667 5.7 49.6667 5.7 48.6C5.7 45.4 6.36667 42.6 7.7 40.2C9.03333 37.7333 10.8667 35.6667 13.2 34C15.6 32.3333 18.4333 31.1 21.7 30.3C24.9667 29.4333 28.5667 29 32.5 29C36.4333 29 40.0333 29.4333 43.3 30.3C46.6333 31.1 49.5 32.3333 51.9 34C54.3 35.6667 56.1667 37.7333 57.5 40.2C58.8333 42.6 59.5 45.4 59.5 48.6C59.5 49.6667 59.3333 50.8333 59 52.1C58.7333 53.3667 58.2667 54.6667 57.6 56C57 57.2667 56.1667 58.5333 55.1 59.8C54.0333 61 52.7333 62.1 51.2 63.1C52.9333 63.8333 54.4667 64.8 55.8 66C57.2 67.1333 58.3667 68.4333 59.3 69.9C60.3 71.3667 61.0333 72.9333 61.5 74.6C62.0333 76.2667 62.3 77.9333 62.3 79.6C62.3 83 61.6333 86.1 60.3 88.9C58.9667 91.6333 57 94 54.4 96C51.8667 98 48.7333 99.5333 45 100.6C41.3333 101.667 37.1667 102.2 32.5 102.2C27.8333 102.2 23.6667 101.7 20 100.7C16.3333 99.6333 13.2333 98.1667 10.7 96.3C8.16667 94.4333 6.23333 92.2 4.9 89.6C3.56667 86.9333 2.9 83.9667 2.9 80.7C2.9 77.1 3.83333 73.7 5.7 70.5C7.63333 67.2333 10.4 64.7667 14 63.1Z" fill="#5CCE2E"/>
<path d="M36.6 54.3L37.6923 55.328L37.7069 55.3125L37.7211 55.2965L36.6 54.3ZM36.6 45.4L35.4789 46.3965L35.4931 46.4125L35.5077 46.428L36.6 45.4ZM28.6 45.4L29.6923 46.428L29.7069 46.4125L29.7211 46.3965L28.6 45.4ZM28.6 54.3L27.4789 55.2965L27.4931 55.3125L27.5077 55.328L28.6 54.3ZM37.6 84.6L38.6607 85.6607L38.6736 85.6477L38.6862 85.6345L37.6 84.6ZM37.5 73.8L36.4138 74.8345L36.4264 74.8477L36.4393 74.8607L37.5 73.8ZM27.5 73.8L26.4393 72.7393L26.4264 72.7523L26.4138 72.7655L27.5 73.8ZM27.5 84.6L26.4138 85.6345L26.439 85.661L26.4655 85.6862L27.5 84.6ZM14 63.1L14.6302 64.4612L17.2834 63.2328L14.7381 61.7942L14 63.1ZM10.1 60L8.92268 60.9295L8.9498 60.9638L8.97889 60.9965L10.1 60ZM7.6 56.2L6.25836 56.8708L6.26535 56.8848L6.27262 56.8986L7.6 56.2ZM6.1 52.2L4.62913 52.4942L4.63613 52.5292L4.64479 52.5638L6.1 52.2ZM7.7 40.2L9.01124 40.9285L9.01544 40.9209L9.01956 40.9133L7.7 40.2ZM13.2 34L12.3444 32.7679L12.3362 32.7736L12.3281 32.7794L13.2 34ZM21.7 30.3L22.0568 31.7569L22.0708 31.7535L22.0847 31.7498L21.7 30.3ZM43.3 30.3L42.9154 31.7498L42.9326 31.7544L42.9499 31.7586L43.3 30.3ZM51.9 34L52.7556 32.7679L52.7556 32.7679L51.9 34ZM57.5 40.2L56.1804 40.9133L56.1846 40.9209L56.1888 40.9285L57.5 40.2ZM59 52.1L57.5494 51.7183L57.5399 51.7544L57.5322 51.791L59 52.1ZM57.6 56L56.2584 55.3292L56.2512 55.3434L56.2444 55.3579L57.6 56ZM55.1 59.8L56.2211 60.7965L56.2344 60.7815L56.2474 60.7662L55.1 59.8ZM51.2 63.1L50.3806 61.8436L48.0198 63.3832L50.6155 64.4815L51.2 63.1ZM55.8 66L54.7966 67.1149L54.8257 67.1412L54.8562 67.1659L55.8 66ZM59.3 69.9L58.0345 70.7053L58.0473 70.7254L58.0607 70.745L59.3 69.9ZM61.5 74.6L60.0556 75.0044L60.063 75.0309L60.0714 75.0572L61.5 74.6ZM60.3 88.9L61.6482 89.5577L61.6543 89.5449L60.3 88.9ZM54.4 96L53.4854 94.8111L53.4779 94.8168L53.4705 94.8227L54.4 96ZM45 100.6L44.5879 99.1577L44.581 99.1597L45 100.6ZM20 100.7L19.581 102.14L19.5931 102.144L19.6053 102.147L20 100.7ZM4.9 89.6L3.55836 90.2708L3.56178 90.2777L3.56527 90.2845L4.9 89.6ZM5.7 70.5L4.40911 69.736L4.40433 69.7442L5.7 70.5ZM32.5 57.5C34.5475 57.5 36.3205 56.7856 37.6923 55.328L35.5077 53.272C34.7462 54.081 33.7858 54.5 32.5 54.5V57.5ZM37.7211 55.2965C39.0618 53.7882 39.7 51.9196 39.7 49.8H36.7C36.7 51.2804 36.2715 52.4117 35.4789 53.3035L37.7211 55.2965ZM39.7 49.8C39.7 47.6821 39.0617 45.827 37.6923 44.3719L35.5077 46.428C36.2716 47.2397 36.7 48.3179 36.7 49.8H39.7ZM37.7211 44.4034C36.3577 42.8696 34.5766 42.1 32.5 42.1V45.1C33.7568 45.1 34.709 45.5304 35.4789 46.3965L37.7211 44.4034ZM32.5 42.1C30.5158 42.1 28.815 42.9003 27.4789 44.4034L29.7211 46.3965C30.5183 45.4997 31.4175 45.1 32.5 45.1V42.1ZM27.5077 44.3719C26.1383 45.827 25.5 47.6821 25.5 49.8H28.5C28.5 48.3179 28.9284 47.2397 29.6923 46.428L27.5077 44.3719ZM25.5 49.8C25.5 51.9196 26.1382 53.7882 27.4789 55.2965L29.7211 53.3035C28.9285 52.4117 28.5 51.2804 28.5 49.8H25.5ZM27.5077 55.328C28.853 56.7574 30.5461 57.5 32.5 57.5V54.5C31.3872 54.5 30.4803 54.1092 29.6923 53.272L27.5077 55.328ZM32.5 88.1C34.9225 88.1 37.0176 87.3037 38.6607 85.6607L36.5393 83.5393C35.5157 84.563 34.2109 85.1 32.5 85.1V88.1ZM38.6862 85.6345C40.3223 83.9166 41.1 81.7278 41.1 79.2H38.1C38.1 81.0722 37.5444 82.4834 36.5138 83.5655L38.6862 85.6345ZM41.1 79.2C41.1 76.6506 40.2745 74.4531 38.5607 72.7393L36.4393 74.8607C37.5255 75.9469 38.1 77.3494 38.1 79.2H41.1ZM38.5862 72.7655C36.959 71.0569 34.8946 70.2 32.5 70.2V73.2C34.1054 73.2 35.3744 73.7431 36.4138 74.8345L38.5862 72.7655ZM32.5 70.2C30.1582 70.2 28.1131 71.0656 26.4393 72.7393L28.5607 74.8607C29.6869 73.7344 30.9751 73.2 32.5 73.2V70.2ZM26.4138 72.7655C24.7777 74.4834 24 76.6722 24 79.2H27C27 77.3278 27.5556 75.9166 28.5862 74.8345L26.4138 72.7655ZM24 79.2C24 81.7278 24.7777 83.9166 26.4138 85.6345L28.5862 83.5655C27.5556 82.4834 27 81.0722 27 79.2H24ZM26.4655 85.6862C28.1444 87.2852 30.1815 88.1 32.5 88.1V85.1C30.9518 85.1 29.6556 84.5815 28.5345 83.5138L26.4655 85.6862ZM14.7381 61.7942C13.3347 61.0009 12.1679 60.0686 11.2211 59.0035L8.97889 60.9965C10.1655 62.3314 11.5986 63.4657 13.2619 64.4058L14.7381 61.7942ZM11.2773 59.0705C10.3272 57.8671 9.5462 56.6771 8.92738 55.5014L6.27262 56.8986C6.98713 58.2562 7.87276 59.5996 8.92268 60.9295L11.2773 59.0705ZM8.94164 55.5292C8.31983 54.2855 7.85987 53.0548 7.55521 51.8362L4.64479 52.5638C5.00679 54.0118 5.54684 55.4478 6.25836 56.8708L8.94164 55.5292ZM7.57087 51.9058C7.31858 50.6444 7.2 49.5453 7.2 48.6H4.2C4.2 49.788 4.34809 51.089 4.62913 52.4942L7.57087 51.9058ZM7.2 48.6C7.2 45.6124 7.82081 43.0712 9.01124 40.9285L6.38876 39.4715C4.91252 42.1288 4.2 45.1876 4.2 48.6H7.2ZM9.01956 40.9133C10.2417 38.6523 11.9201 36.7576 14.0719 35.2206L12.3281 32.7794C9.81324 34.5758 7.82494 36.8144 6.38044 39.4867L9.01956 40.9133ZM14.0556 35.2321C16.2835 33.6849 18.9422 32.5197 22.0568 31.7569L21.3432 28.8431C17.9245 29.6803 14.9165 30.9818 12.3444 32.7679L14.0556 35.2321ZM22.0847 31.7498C25.2073 30.9214 28.6759 30.5 32.5 30.5V27.5C28.4575 27.5 24.726 27.9453 21.3153 28.8502L22.0847 31.7498ZM32.5 30.5C36.3242 30.5 39.7927 30.9214 42.9154 31.7498L43.6847 28.8502C40.274 27.9453 36.5425 27.5 32.5 27.5V30.5ZM42.9499 31.7586C46.133 32.5225 48.8214 33.6883 51.0444 35.2321L52.7556 32.7679C50.1786 30.9783 47.1337 29.6775 43.6501 28.8414L42.9499 31.7586ZM51.0444 35.2321C53.2596 36.7704 54.9637 38.6623 56.1804 40.9133L58.8196 39.4867C57.3696 36.8043 55.3404 34.5629 52.7556 32.7679L51.0444 35.2321ZM56.1888 40.9285C57.3792 43.0712 58 45.6124 58 48.6H61C61 45.1876 60.2875 42.1288 58.8112 39.4715L56.1888 40.9285ZM58 48.6C58 49.5125 57.8571 50.5491 57.5494 51.7183L60.4506 52.4817C60.8096 51.1176 61 49.8208 61 48.6H58ZM57.5322 51.791C57.2956 52.9149 56.8761 54.0936 56.2584 55.3292L58.9416 56.6708C59.6572 55.2397 60.1711 53.8185 60.4678 52.409L57.5322 51.791ZM56.2444 55.3579C55.7085 56.4892 54.9508 57.6484 53.9526 58.8338L56.2474 60.7662C57.3825 59.4182 58.2915 58.0441 58.9556 56.6421L56.2444 55.3579ZM53.9789 58.8035C53.0122 59.891 51.8176 60.9064 50.3806 61.8436L52.0194 64.3564C53.6491 63.2936 55.0545 62.109 56.2211 60.7965L53.9789 58.8035ZM50.6155 64.4815C52.203 65.1531 53.5931 66.0318 54.7966 67.1149L56.8035 64.8851C55.3402 63.5682 53.6637 62.5136 51.7845 61.7185L50.6155 64.4815ZM54.8562 67.1659C56.1348 68.2009 57.1913 69.3803 58.0345 70.7053L60.5655 69.0947C59.542 67.4863 58.2652 66.0658 56.7438 64.8341L54.8562 67.1659ZM58.0607 70.745C58.9712 72.0804 59.634 73.4988 60.0556 75.0044L62.9444 74.1956C62.4327 72.3678 61.6288 70.6529 60.5393 69.055L58.0607 70.745ZM60.0714 75.0572C60.5598 76.5835 60.8 78.0961 60.8 79.6H63.8C63.8 77.7706 63.5069 75.9499 62.9286 74.1428L60.0714 75.0572ZM60.8 79.6C60.8 82.7986 60.1742 85.6753 58.9457 88.2551L61.6543 89.5449C63.0925 86.5247 63.8 83.2014 63.8 79.6H60.8ZM58.9519 88.2424C57.7279 90.7514 55.9166 92.941 53.4854 94.8111L55.3146 97.1889C58.0835 95.059 60.2054 92.5153 61.6482 89.5576L58.9519 88.2424ZM53.4705 94.8227C51.1185 96.6795 48.1705 98.1341 44.5879 99.1577L45.4121 102.042C49.2962 100.933 52.6148 99.3205 55.3295 97.1773L53.4705 94.8227ZM44.581 99.1597C41.0767 100.179 37.0551 100.7 32.5 100.7V103.7C37.2782 103.7 41.5899 103.154 45.419 102.04L44.581 99.1597ZM32.5 100.7C27.9376 100.7 23.9074 100.211 20.3947 99.2529L19.6053 102.147C23.4259 103.189 27.7291 103.7 32.5 103.7V100.7ZM20.419 99.2597C16.8867 98.2321 13.9544 96.8348 11.5898 95.0924L9.8102 97.5076C12.5123 99.4986 15.78 101.035 19.581 102.14L20.419 99.2597ZM11.5898 95.0924C9.22856 93.3526 7.45418 91.2935 6.23473 88.9155L3.56527 90.2845C5.01249 93.1065 7.10478 95.5141 9.8102 97.5076L11.5898 95.0924ZM6.24164 88.9292C5.02213 86.4902 4.4 83.7564 4.4 80.7H1.4C1.4 84.1769 2.11121 87.3765 3.55836 90.2708L6.24164 88.9292ZM4.4 80.7C4.4 77.3735 5.25875 74.2334 6.99567 71.2558L4.40433 69.7442C2.40792 73.1666 1.4 76.8265 1.4 80.7H4.4ZM6.99087 71.264C8.76228 68.2709 11.2926 66.0064 14.6302 64.4612L13.3698 61.7388C9.50738 63.527 6.50439 66.1958 4.40914 69.736L6.99087 71.264Z" fill="white"/>
</svg>
