<svg width="65" height="126" viewBox="0 0 65 126" fill="none" xmlns="http://www.w3.org/2000/svg">
<path d="M6.5 80.2C9.16667 81.6667 12.0667 82.8 15.2 83.6C18.3333 84.3333 21.6333 84.7 25.1 84.7C28.9667 84.7 32.2 83.6 34.8 81.4C37.4 79.1333 38.9333 76.0667 39.4 72.2C37.2667 73.9333 35.0667 75.1333 32.8 75.8C30.5333 76.4667 28.3333 76.8 26.2 76.8C22.3333 76.8 18.9333 76.2333 16 75.1C13.0667 73.9667 10.6 72.4 8.6 70.4C6.66667 68.3333 5.2 65.9 4.2 63.1C3.2 60.3 2.7 57.2333 2.7 53.9C2.7 50.1667 3.36667 46.7667 4.7 43.7C6.1 40.6333 8.03333 38.0333 10.5 35.9C12.9667 33.7 15.8667 32 19.2 30.8C22.6 29.6 26.3 29 30.3 29C36.7667 29 41.9667 30.1 45.9 32.3C49.9 34.4333 53 37.2333 55.2 40.7C57.4 44.1 58.8667 47.9333 59.6 52.2C60.3333 56.4667 60.7 60.7 60.7 64.9C60.7 70.5 60 75.6 58.6 80.2C57.2 84.8 55.1 88.7333 52.3 92C49.5667 95.2667 46.2 97.8 42.2 99.6C38.2 101.333 33.6 102.2 28.4 102.2C26.0667 102.2 23.9333 102.133 22 102C20.1333 101.867 18.3333 101.633 16.6 101.3C14.8667 101.033 13.1667 100.633 11.5 100.1C9.9 99.5667 8.23333 98.9 6.5 98.1V80.2ZM30.8 61.4C32.9333 61.4 34.5667 60.6333 35.7 59.1C36.8333 57.5 37.4 55.5333 37.4 53.2C37.4 50.5333 36.8 48.5333 35.6 47.2C34.4667 45.8 32.8333 45.1 30.7 45.1C28.5667 45.1 26.9 45.8 25.7 47.2C24.5 48.5333 23.9 50.5333 23.9 53.2C23.9 55.8667 24.5 57.9 25.7 59.3C26.9667 60.7 28.6667 61.4 30.8 61.4Z" fill="#5CCE2E"/>
<path d="M6.5 80.2L7.22288 78.8857L5 77.6631V80.2H6.5ZM15.2 83.6L14.8289 85.0534L14.8435 85.0571L14.8582 85.0605L15.2 83.6ZM34.8 81.4L35.7689 82.5451L35.7774 82.5379L35.7857 82.5307L34.8 81.4ZM39.4 72.2L40.8892 72.3797L41.3338 68.6961L38.4541 71.0358L39.4 72.2ZM32.8 75.8L33.2232 77.239L33.2233 77.239L32.8 75.8ZM16 75.1L15.4594 76.4992L15.4594 76.4992L16 75.1ZM8.6 70.4L7.50459 71.4247L7.52167 71.443L7.53934 71.4607L8.6 70.4ZM4.2 63.1L2.78739 63.6045L2.78739 63.6045L4.2 63.1ZM4.7 43.7L3.33547 43.0771L3.32982 43.0894L3.3244 43.1019L4.7 43.7ZM10.5 35.9L11.4812 37.0345L11.4899 37.0271L11.4984 37.0194L10.5 35.9ZM19.2 30.8L18.7008 29.3855L18.6919 29.3887L19.2 30.8ZM45.9 32.3L45.1678 33.6091L45.1809 33.6165L45.1941 33.6235L45.9 32.3ZM55.2 40.7L53.9335 41.5038L53.9406 41.5149L55.2 40.7ZM59.6 52.2L58.1217 52.4541L58.1217 52.4541L59.6 52.2ZM58.6 80.2L60.035 80.6367L60.035 80.6367L58.6 80.2ZM52.3 92L51.1611 91.0238L51.1553 91.0306L51.1496 91.0374L52.3 92ZM42.2 99.6L42.7964 100.976L42.806 100.972L42.8155 100.968L42.2 99.6ZM22 102L21.8931 103.496L21.8968 103.496L22 102ZM16.6 101.3L16.8833 99.827L16.8558 99.8217L16.8281 99.8174L16.6 101.3ZM11.5 100.1L11.0257 101.523L11.0342 101.526L11.0428 101.529L11.5 100.1ZM6.5 98.1H5V99.0597L5.87141 99.4619L6.5 98.1ZM35.7 59.1L36.9063 59.9916L36.9153 59.9794L36.924 59.967L35.7 59.1ZM35.6 47.2L34.4341 48.1438L34.4588 48.1743L34.4851 48.2034L35.6 47.2ZM25.7 47.2L26.8149 48.2034L26.8271 48.19L26.8389 48.1762L25.7 47.2ZM25.7 59.3L24.5611 60.2762L24.5742 60.2915L24.5877 60.3064L25.7 59.3ZM5.77712 81.5143C8.56143 83.0457 11.5806 84.224 14.8289 85.0534L15.5711 82.1466C12.5528 81.376 9.77191 80.2876 7.22288 78.8857L5.77712 81.5143ZM14.8582 85.0605C18.1118 85.822 21.5271 86.2 25.1 86.2V83.2C21.7396 83.2 18.5548 82.8446 15.5418 82.1395L14.8582 85.0605ZM25.1 86.2C29.2705 86.2 32.8615 85.0052 35.7689 82.5451L33.8311 80.2549C31.5385 82.1948 28.6629 83.2 25.1 83.2V86.2ZM35.7857 82.5307C38.7018 79.9884 40.3842 76.5637 40.8892 72.3797L37.9108 72.0203C37.4824 75.5697 36.0982 78.2783 33.8143 80.2693L35.7857 82.5307ZM38.4541 71.0358C36.4501 72.664 34.4242 73.7588 32.3768 74.361L33.2233 77.239C35.7092 76.5079 38.0832 75.2026 40.3459 73.3642L38.4541 71.0358ZM32.3768 74.361C30.2329 74.9915 28.1756 75.3 26.2 75.3V78.3C28.4911 78.3 30.8337 77.9418 33.2232 77.239L32.3768 74.361ZM26.2 75.3C22.4771 75.3 19.2669 74.7542 16.5406 73.7008L15.4594 76.4992C18.5997 77.7125 22.1895 78.3 26.2 78.3V75.3ZM16.5406 73.7008C13.7804 72.6344 11.497 71.1757 9.66066 69.3393L7.53934 71.4607C9.70295 73.6243 12.3529 75.299 15.4594 76.4992L16.5406 73.7008ZM9.69541 69.3753C7.90934 67.466 6.54714 65.2122 5.61261 62.5955L2.78739 63.6045C3.85286 66.5878 5.42399 69.2006 7.50459 71.4247L9.69541 69.3753ZM5.61261 62.5955C4.677 59.9758 4.2 57.082 4.2 53.9H1.2C1.2 57.3846 1.723 60.6242 2.78739 63.6045L5.61261 62.5955ZM4.2 53.9C4.2 50.3484 4.83339 47.1552 6.07561 44.2981L3.3244 43.1019C1.89995 46.3781 1.2 49.9849 1.2 53.9H4.2ZM6.06453 44.3229C7.37811 41.4456 9.18316 39.0221 11.4812 37.0345L9.51877 34.7655C6.88351 37.0446 4.82189 39.8211 3.33547 43.0771L6.06453 44.3229ZM11.4984 37.0194C13.8118 34.9562 16.5423 33.351 19.7081 32.2113L18.6919 29.3887C15.1911 30.649 12.1215 32.4438 9.50158 34.7806L11.4984 37.0194ZM19.6992 32.2145C22.9223 31.0769 26.4516 30.5 30.3 30.5V27.5C26.1484 27.5 22.2777 28.1231 18.7008 29.3855L19.6992 32.2145ZM30.3 30.5C36.615 30.5 41.5346 31.577 45.1678 33.6091L46.6322 30.9909C42.3987 28.623 36.9183 27.5 30.3 27.5V30.5ZM45.1941 33.6235C48.9899 35.6479 51.8864 38.2781 53.9335 41.5037L56.4665 39.8963C54.1136 36.1886 50.8101 33.2187 46.6059 30.9765L45.1941 33.6235ZM53.9406 41.5149C56.0231 44.7331 57.4203 48.3732 58.1217 52.4541L61.0783 51.9459C60.3131 47.4934 58.7769 43.4668 56.4594 39.8851L53.9406 41.5149ZM58.1217 52.4541C58.841 56.6394 59.2 60.7877 59.2 64.9H62.2C62.2 60.6123 61.8256 56.2939 61.0783 51.9459L58.1217 52.4541ZM59.2 64.9C59.2 70.3758 58.5155 75.3259 57.165 79.7633L60.035 80.6367C61.4845 75.8741 62.2 70.6242 62.2 64.9H59.2ZM57.165 79.7633C55.8182 84.1883 53.8111 87.9321 51.1611 91.0238L53.4389 92.9762C56.3889 89.5345 58.5818 85.4117 60.035 80.6367L57.165 79.7633ZM51.1496 91.0374C48.5661 94.1251 45.3842 96.5222 41.5845 98.2321L42.8155 100.968C47.0158 99.0778 50.5673 96.4083 53.4504 92.9626L51.1496 91.0374ZM41.6036 98.2237C37.8245 99.8613 33.4337 100.7 28.4 100.7V103.7C33.7663 103.7 38.5755 102.805 42.7964 100.976L41.6036 98.2237ZM28.4 100.7C26.0944 100.7 23.9961 100.634 22.1032 100.504L21.8968 103.496C23.8706 103.633 26.0389 103.7 28.4 103.7V100.7ZM22.1069 100.504C20.2959 100.374 18.5549 100.148 16.8833 99.827L16.3167 102.773C18.1117 103.118 19.9708 103.359 21.8931 103.496L22.1069 100.504ZM16.8281 99.8174C15.1722 99.5627 13.5488 99.1807 11.9572 98.6714L11.0428 101.529C12.7845 102.086 14.5611 102.504 16.3719 102.783L16.8281 99.8174ZM11.9743 98.677C10.4332 98.1632 8.8181 97.5178 7.12859 96.7381L5.87141 99.4619C7.64857 100.282 9.36684 100.97 11.0257 101.523L11.9743 98.677ZM8 98.1V80.2H5V98.1H8ZM30.8 62.9C33.344 62.9 35.4535 61.9571 36.9063 59.9916L34.4937 58.2084C33.6798 59.3096 32.5226 59.9 30.8 59.9V62.9ZM36.924 59.967C38.269 58.0683 38.9 55.7835 38.9 53.2H35.9C35.9 55.2832 35.3977 56.9317 34.476 58.233L36.924 59.967ZM38.9 53.2C38.9 50.3389 38.2597 47.9129 36.7149 46.1965L34.4851 48.2034C35.3403 49.1538 35.9 50.7278 35.9 53.2H38.9ZM36.7659 46.2562C35.294 44.438 33.1931 43.6 30.7 43.6V46.6C32.4736 46.6 33.6393 47.162 34.4341 48.1438L36.7659 46.2562ZM30.7 43.6C28.2051 43.6 26.0923 44.4375 24.5611 46.2238L26.8389 48.1762C27.7077 47.1625 28.9282 46.6 30.7 46.6V43.6ZM24.5851 46.1965C23.0403 47.9129 22.4 50.3389 22.4 53.2H25.4C25.4 50.7278 25.9597 49.1538 26.8149 48.2034L24.5851 46.1965ZM22.4 53.2C22.4 56.0681 23.0432 58.5052 24.5611 60.2762L26.8389 58.3238C25.9568 57.2947 25.4 55.6652 25.4 53.2H22.4ZM24.5877 60.3064C26.1773 62.0633 28.3038 62.9 30.8 62.9V59.9C29.0295 59.9 27.7561 59.3367 26.8123 58.2936L24.5877 60.3064Z" fill="white"/>
</svg>
