<svg width="41" height="126" viewBox="0 0 41 126" fill="none" xmlns="http://www.w3.org/2000/svg">
<path d="M1.1 44.8C1.1 42.2 1.56667 39.7667 2.5 37.5C3.43333 35.1667 4.73333 33.1667 6.4 31.5C8.13333 29.7667 10.1667 28.4333 12.5 27.5C14.8333 26.5 17.4 26 20.2 26C23 26 25.5333 26.5 27.8 27.5C30.1333 28.4333 32.1333 29.7667 33.8 31.5C35.5333 33.1667 36.8667 35.1667 37.8 37.5C38.7333 39.7667 39.2 42.2 39.2 44.8C39.2 47.4 38.7333 49.8667 37.8 52.2C36.8667 54.4667 35.5333 56.4667 33.8 58.2C32.1333 59.8667 30.1333 61.2 27.8 62.2C25.5333 63.1333 23 63.6 20.2 63.6C17.4 63.6 14.8333 63.1333 12.5 62.2C10.1667 61.2 8.13333 59.8667 6.4 58.2C4.73333 56.4667 3.43333 54.4667 2.5 52.2C1.56667 49.8667 1.1 47.4 1.1 44.8ZM20.2 50.5C21.5333 50.5 22.7 50 23.7 49C24.7667 48 25.3 46.6 25.3 44.8C25.3 43.0667 24.7667 41.7 23.7 40.7C22.7 39.6333 21.5333 39.1 20.2 39.1C18.8667 39.1 17.6667 39.6333 16.6 40.7C15.5333 41.7 15 43.0667 15 44.8C15 46.6 15.5333 48 16.6 49C17.6667 50 18.8667 50.5 20.2 50.5Z" fill="#5CCE2E"/>
<path d="M2.5 37.5L3.88702 38.0711L3.8899 38.0641L3.89271 38.0571L2.5 37.5ZM6.4 31.5L5.33934 30.4393L5.33934 30.4393L6.4 31.5ZM12.5 27.5L13.0571 28.8927L13.0741 28.8859L13.0909 28.8787L12.5 27.5ZM27.8 27.5L27.1945 28.8724L27.2186 28.883L27.2429 28.8927L27.8 27.5ZM33.8 31.5L32.7188 32.5397L32.7391 32.5609L32.7603 32.5812L33.8 31.5ZM37.8 37.5L36.4073 38.0571L36.4101 38.0641L36.413 38.0711L37.8 37.5ZM37.8 52.2L39.187 52.7711L39.1899 52.7641L39.1927 52.7571L37.8 52.2ZM27.8 62.2L28.3711 63.587L28.381 63.5829L28.3909 63.5787L27.8 62.2ZM12.5 62.2L11.9091 63.5787L11.9259 63.5859L11.9429 63.5927L12.5 62.2ZM6.4 58.2L5.31875 59.2397L5.33914 59.2609L5.36034 59.2812L6.4 58.2ZM2.5 52.2L1.10729 52.7571L1.1101 52.7641L1.11298 52.7711L2.5 52.2ZM23.7 49L22.6741 47.9057L22.6564 47.9222L22.6393 47.9393L23.7 49ZM23.7 40.7L22.6057 41.7259L22.6388 41.7612L22.6741 41.7943L23.7 40.7ZM16.6 40.7L17.6259 41.7943L17.6436 41.7778L17.6607 41.7607L16.6 40.7ZM16.6 49L17.6259 47.9057L17.6259 47.9057L16.6 49ZM2.6 44.8C2.6 42.3839 3.03274 40.1458 3.88702 38.0711L1.11298 36.9289C0.100597 39.3875 -0.4 42.0161 -0.4 44.8H2.6ZM3.89271 38.0571C4.75567 35.8997 5.94698 34.0743 7.46066 32.5607L5.33934 30.4393C3.51969 32.259 2.111 34.4336 1.10729 36.9429L3.89271 38.0571ZM7.46066 32.5607C9.04669 30.9746 10.9075 29.7526 13.0571 28.8927L11.9429 26.1073C9.42584 27.1141 7.21998 28.5587 5.33934 30.4393L7.46066 32.5607ZM13.0909 28.8787C15.2191 27.9666 17.5821 27.5 20.2 27.5V24.5C17.2179 24.5 14.4476 25.0334 11.9091 26.1213L13.0909 28.8787ZM20.2 27.5C22.8186 27.5 25.142 27.9668 27.1945 28.8724L28.4055 26.1276C25.9247 25.0332 23.1814 24.5 20.2 24.5V27.5ZM27.2429 28.8927C29.3876 29.7506 31.2064 30.9668 32.7188 32.5397L34.8813 30.4603C33.0603 28.5665 30.8791 27.1161 28.3571 26.1073L27.2429 28.8927ZM32.7603 32.5812C34.3332 34.0936 35.5494 35.9124 36.4073 38.0571L39.1927 36.9429C38.1839 34.4209 36.7335 32.2397 34.8397 30.4187L32.7603 32.5812ZM36.413 38.0711C37.2673 40.1458 37.7 42.3839 37.7 44.8H40.7C40.7 42.0161 40.1994 39.3875 39.187 36.9289L36.413 38.0711ZM37.7 44.8C37.7 47.2159 37.2673 49.4929 36.4073 51.6429L39.1927 52.7571C40.1994 50.2404 40.7 47.5841 40.7 44.8H37.7ZM36.413 51.6289C35.5551 53.7124 34.3326 55.546 32.7393 57.1393L34.8607 59.2607C36.734 57.3873 38.1783 55.2209 39.187 52.7711L36.413 51.6289ZM32.7393 57.1393C31.2177 58.661 29.3807 59.8906 27.2091 60.8213L28.3909 63.5787C30.886 62.5094 33.049 61.0724 34.8607 59.2607L32.7393 57.1393ZM27.2289 60.813C25.1673 61.6619 22.8317 62.1 20.2 62.1V65.1C23.1683 65.1 25.8994 64.6048 28.3711 63.587L27.2289 60.813ZM20.2 62.1C17.5691 62.1 15.1941 61.6621 13.0571 60.8073L11.9429 63.5927C14.4726 64.6046 17.2309 65.1 20.2 65.1V62.1ZM13.0909 60.8213C10.9145 59.8885 9.03542 58.6531 7.43966 57.1187L5.36034 59.2812C7.23125 61.0802 9.41884 62.5115 11.9091 63.5787L13.0909 60.8213ZM7.48125 57.1603C5.94755 55.5653 4.75014 53.725 3.88702 51.6289L1.11298 52.7711C2.11653 55.2083 3.51912 57.368 5.31875 59.2397L7.48125 57.1603ZM3.89271 51.6429C3.03271 49.4929 2.6 47.2159 2.6 44.8H-0.4C-0.4 47.5841 0.100624 50.2404 1.10729 52.7571L3.89271 51.6429ZM20.2 52C21.9572 52 23.4983 51.323 24.7607 50.0607L22.6393 47.9393C21.9017 48.677 21.1095 49 20.2 49V52ZM24.7259 50.0943C26.1626 48.7474 26.8 46.9118 26.8 44.8H23.8C23.8 46.2882 23.3707 47.2526 22.6741 47.9057L24.7259 50.0943ZM26.8 44.8C26.8 42.7355 26.151 40.9417 24.7259 39.6057L22.6741 41.7943C23.3823 42.4583 23.8 43.3978 23.8 44.8H26.8ZM24.7943 39.6741C23.5412 38.3374 21.9904 37.6 20.2 37.6V40.6C21.0762 40.6 21.8588 40.9293 22.6057 41.7259L24.7943 39.6741ZM20.2 37.6C18.4153 37.6 16.847 38.3316 15.5393 39.6393L17.6607 41.7607C18.4863 40.935 19.318 40.6 20.2 40.6V37.6ZM15.5741 39.6057C14.149 40.9417 13.5 42.7355 13.5 44.8H16.5C16.5 43.3978 16.9177 42.4583 17.6259 41.7943L15.5741 39.6057ZM13.5 44.8C13.5 46.9118 14.1374 48.7474 15.5741 50.0943L17.6259 47.9057C16.9293 47.2526 16.5 46.2882 16.5 44.8H13.5ZM15.5741 50.0943C16.8895 51.3275 18.4473 52 20.2 52V49C19.286 49 18.4438 48.6725 17.6259 47.9057L15.5741 50.0943Z" fill="white"/>
</svg>
