<svg width="41" height="75" viewBox="0 0 41 75" fill="none" xmlns="http://www.w3.org/2000/svg">
<path d="M1.1 18.8C1.1 16.2 1.56667 13.7667 2.5 11.5C3.43333 9.16666 4.73333 7.16666 6.4 5.49999C8.13333 3.76666 10.1667 2.43333 12.5 1.5C14.8333 0.499996 17.4 -5.96046e-06 20.2 -5.96046e-06C23 -5.96046e-06 25.5333 0.499996 27.8 1.5C30.1333 2.43333 32.1333 3.76666 33.8 5.49999C35.5333 7.16666 36.8667 9.16666 37.8 11.5C38.7333 13.7667 39.2 16.2 39.2 18.8C39.2 21.4 38.7333 23.8667 37.8 26.2C36.8667 28.4667 35.5333 30.4667 33.8 32.2C32.1333 33.8667 30.1333 35.2 27.8 36.2C25.5333 37.1333 23 37.6 20.2 37.6C17.4 37.6 14.8333 37.1333 12.5 36.2C10.1667 35.2 8.13333 33.8667 6.4 32.2C4.73333 30.4667 3.43333 28.4667 2.5 26.2C1.56667 23.8667 1.1 21.4 1.1 18.8ZM20.2 24.5C21.5333 24.5 22.7 24 23.7 23C24.7667 22 25.3 20.6 25.3 18.8C25.3 17.0667 24.7667 15.7 23.7 14.7C22.7 13.6333 21.5333 13.1 20.2 13.1C18.8667 13.1 17.6667 13.6333 16.6 14.7C15.5333 15.7 15 17.0667 15 18.8C15 20.6 15.5333 22 16.6 23C17.6667 24 18.8667 24.5 20.2 24.5Z" fill="black"/>
<path d="M2.5 11.5L3.88702 12.0711L3.8899 12.0641L3.89271 12.0571L2.5 11.5ZM6.4 5.49999L5.33934 4.43933L5.33934 4.43934L6.4 5.49999ZM12.5 1.5L13.0571 2.89271L13.0741 2.88592L13.0909 2.87872L12.5 1.5ZM27.8 1.5L27.1945 2.87237L27.2186 2.88297L27.2429 2.89271L27.8 1.5ZM33.8 5.49999L32.7188 6.53966L32.7391 6.56086L32.7603 6.58124L33.8 5.49999ZM37.8 11.5L36.4073 12.0571L36.4101 12.0641L36.413 12.0711L37.8 11.5ZM37.8 26.2L39.187 26.7711L39.1899 26.7641L39.1927 26.7571L37.8 26.2ZM27.8 36.2L28.3711 37.587L28.381 37.5829L28.3909 37.5787L27.8 36.2ZM12.5 36.2L11.9091 37.5787L11.9259 37.5859L11.9429 37.5927L12.5 36.2ZM6.4 32.2L5.31875 33.2397L5.33914 33.2609L5.36034 33.2812L6.4 32.2ZM2.5 26.2L1.10729 26.7571L1.1101 26.7641L1.11298 26.7711L2.5 26.2ZM23.7 23L22.6741 21.9057L22.6564 21.9222L22.6393 21.9393L23.7 23ZM23.7 14.7L22.6057 15.7259L22.6388 15.7612L22.6741 15.7943L23.7 14.7ZM16.6 14.7L17.6259 15.7943L17.6436 15.7778L17.6607 15.7607L16.6 14.7ZM16.6 23L17.6259 21.9057L17.6259 21.9057L16.6 23ZM2.6 18.8C2.6 16.3839 3.03274 14.1458 3.88702 12.0711L1.11298 10.9289C0.100597 13.3875 -0.4 16.0161 -0.4 18.8H2.6ZM3.89271 12.0571C4.75567 9.89969 5.94698 8.07434 7.46066 6.56065L5.33934 4.43934C3.51969 6.25899 2.111 8.43363 1.10729 10.9429L3.89271 12.0571ZM7.46066 6.56066C9.04669 4.97463 10.9075 3.75255 13.0571 2.89271L11.9429 0.107284C9.42584 1.11411 7.21998 2.5587 5.33934 4.43933L7.46066 6.56066ZM13.0909 2.87872C15.2191 1.96662 17.5821 1.49999 20.2 1.49999V-1.50001C17.2179 -1.50001 14.4476 -0.966628 11.9091 0.121282L13.0909 2.87872ZM20.2 1.49999C22.8186 1.49999 25.142 1.96683 27.1945 2.87237L28.4055 0.127622C25.9247 -0.966841 23.1814 -1.50001 20.2 -1.50001V1.49999ZM27.2429 2.89271C29.3876 3.75057 31.2064 4.96683 32.7188 6.53966L34.8813 4.46033C33.0603 2.5665 30.8791 1.11609 28.3571 0.107284L27.2429 2.89271ZM32.7603 6.58124C34.3332 8.09358 35.5494 9.91243 36.4073 12.0571L39.1927 10.9429C38.1839 8.42089 36.7335 6.23975 34.8397 4.41875L32.7603 6.58124ZM36.413 12.0711C37.2673 14.1458 37.7 16.3839 37.7 18.8H40.7C40.7 16.0161 40.1994 13.3875 39.187 10.9289L36.413 12.0711ZM37.7 18.8C37.7 21.2159 37.2673 23.4929 36.4073 25.6429L39.1927 26.7571C40.1994 24.2404 40.7 21.5841 40.7 18.8H37.7ZM36.413 25.6289C35.5551 27.7124 34.3326 29.546 32.7393 31.1393L34.8607 33.2607C36.734 31.3873 38.1783 29.2209 39.187 26.7711L36.413 25.6289ZM32.7393 31.1393C31.2177 32.661 29.3807 33.8906 27.2091 34.8213L28.3909 37.5787C30.886 36.5094 33.049 35.0724 34.8607 33.2607L32.7393 31.1393ZM27.2289 34.813C25.1673 35.6619 22.8317 36.1 20.2 36.1V39.1C23.1683 39.1 25.8994 38.6048 28.3711 37.587L27.2289 34.813ZM20.2 36.1C17.5691 36.1 15.1941 35.6621 13.0571 34.8073L11.9429 37.5927C14.4726 38.6046 17.2309 39.1 20.2 39.1V36.1ZM13.0909 34.8213C10.9145 33.8885 9.03542 32.6531 7.43966 31.1187L5.36034 33.2812C7.23125 35.0802 9.41884 36.5115 11.9091 37.5787L13.0909 34.8213ZM7.48125 31.1603C5.94755 29.5653 4.75014 27.725 3.88702 25.6289L1.11298 26.7711C2.11653 29.2083 3.51912 31.368 5.31875 33.2397L7.48125 31.1603ZM3.89271 25.6429C3.03271 23.4929 2.6 21.2159 2.6 18.8H-0.4C-0.4 21.5841 0.100624 24.2404 1.10729 26.7571L3.89271 25.6429ZM20.2 26C21.9572 26 23.4983 25.323 24.7607 24.0607L22.6393 21.9393C21.9017 22.677 21.1095 23 20.2 23V26ZM24.7259 24.0943C26.1626 22.7474 26.8 20.9118 26.8 18.8H23.8C23.8 20.2882 23.3707 21.2526 22.6741 21.9057L24.7259 24.0943ZM26.8 18.8C26.8 16.7355 26.151 14.9417 24.7259 13.6057L22.6741 15.7943C23.3823 16.4583 23.8 17.3978 23.8 18.8H26.8ZM24.7943 13.6741C23.5412 12.3374 21.9904 11.6 20.2 11.6V14.6C21.0762 14.6 21.8588 14.9293 22.6057 15.7259L24.7943 13.6741ZM20.2 11.6C18.4153 11.6 16.847 12.3316 15.5393 13.6393L17.6607 15.7607C18.4863 14.935 19.318 14.6 20.2 14.6V11.6ZM15.5741 13.6057C14.149 14.9417 13.5 16.7355 13.5 18.8H16.5C16.5 17.3978 16.9177 16.4583 17.6259 15.7943L15.5741 13.6057ZM13.5 18.8C13.5 20.9118 14.1374 22.7474 15.5741 24.0943L17.6259 21.9057C16.9293 21.2526 16.5 20.2882 16.5 18.8H13.5ZM15.5741 24.0943C16.8895 25.3275 18.4473 26 20.2 26V23C19.286 23 18.4438 22.6725 17.6259 21.9057L15.5741 24.0943Z" fill="white"/>
</svg>
