<svg width="67" height="117" viewBox="0 0 67 117" fill="none" xmlns="http://www.w3.org/2000/svg">
<path d="M2.12695 39.3379V35.5781C2.12695 32.8763 2.71289 30.4186 3.88477 28.2051C5.05664 25.9915 6.73307 24.2174 8.91406 22.8828C11.0951 21.5482 13.6829 20.8809 16.6777 20.8809C19.7376 20.8809 22.3418 21.5482 24.4902 22.8828C26.6712 24.2174 28.3477 25.9915 29.5195 28.2051C30.6914 30.4186 31.2773 32.8763 31.2773 35.5781V39.3379C31.2773 41.9746 30.6914 44.3997 29.5195 46.6133C28.3802 48.8268 26.7201 50.6009 24.5391 51.9355C22.3906 53.2702 19.8027 53.9375 16.7754 53.9375C13.748 53.9375 11.1276 53.2702 8.91406 51.9355C6.73307 50.6009 5.05664 48.8268 3.88477 46.6133C2.71289 44.3997 2.12695 41.9746 2.12695 39.3379ZM8.91406 35.5781V39.3379C8.91406 40.8353 9.19076 42.2513 9.74414 43.5859C10.3301 44.9206 11.209 46.0111 12.3809 46.8574C13.5527 47.6712 15.0176 48.0781 16.7754 48.0781C18.5332 48.0781 19.9818 47.6712 21.1211 46.8574C22.2604 46.0111 23.1068 44.9206 23.6602 43.5859C24.2135 42.2513 24.4902 40.8353 24.4902 39.3379V35.5781C24.4902 34.0482 24.1973 32.6159 23.6113 31.2812C23.0579 29.9141 22.1953 28.8236 21.0234 28.0098C19.8841 27.1634 18.4355 26.7402 16.6777 26.7402C14.9525 26.7402 13.5039 27.1634 12.332 28.0098C11.1927 28.8236 10.3301 29.9141 9.74414 31.2812C9.19076 32.6159 8.91406 34.0482 8.91406 35.5781ZM36.7461 79.377V75.5684C36.7461 72.8991 37.332 70.4577 38.5039 68.2441C39.6758 66.0306 41.3522 64.2565 43.5332 62.9219C45.7142 61.5872 48.3021 60.9199 51.2969 60.9199C54.3568 60.9199 56.9609 61.5872 59.1094 62.9219C61.2904 64.2565 62.9668 66.0306 64.1387 68.2441C65.3105 70.4577 65.8965 72.8991 65.8965 75.5684V79.377C65.8965 82.0462 65.3105 84.4876 64.1387 86.7012C62.9993 88.9147 61.3392 90.6888 59.1582 92.0234C57.0098 93.3581 54.4219 94.0254 51.3945 94.0254C48.3672 94.0254 45.763 93.3581 43.582 92.0234C41.401 90.6888 39.7083 88.9147 38.5039 86.7012C37.332 84.4876 36.7461 82.0462 36.7461 79.377ZM43.5332 75.5684V79.377C43.5332 80.8743 43.8099 82.3066 44.3633 83.6738C44.9492 85.0085 45.8281 86.099 47 86.9453C48.1719 87.7591 49.6367 88.166 51.3945 88.166C53.1523 88.166 54.6009 87.7591 55.7402 86.9453C56.9121 86.099 57.7747 85.0085 58.3281 83.6738C58.8815 82.3392 59.1582 80.9069 59.1582 79.377V75.5684C59.1582 74.0384 58.8652 72.6061 58.2793 71.2715C57.7259 69.9368 56.8633 68.8626 55.6914 68.0488C54.5521 67.2025 53.0872 66.7793 51.2969 66.7793C49.5716 66.7793 48.123 67.2025 46.9512 68.0488C45.8118 68.8626 44.9492 69.9368 44.3633 71.2715C43.8099 72.6061 43.5332 74.0384 43.5332 75.5684ZM53.543 32.0137L18.8262 87.5801L13.748 84.3574L48.4648 28.791L53.543 32.0137Z" fill="black"/>
</svg>
