<svg width="48" height="117" viewBox="0 0 48 117" fill="none" xmlns="http://www.w3.org/2000/svg">
<path d="M46.5371 51.7891V62.6289C46.5371 68.4557 46.0163 73.3711 44.9746 77.375C43.9329 81.3789 42.4355 84.6016 40.4824 87.043C38.5293 89.4844 36.1693 91.2585 33.4023 92.3652C30.668 93.4395 27.5755 93.9766 24.125 93.9766C21.3906 93.9766 18.8678 93.6348 16.5566 92.9512C14.2454 92.2676 12.1621 91.1771 10.3066 89.6797C8.48372 88.1497 6.92122 86.1641 5.61914 83.7227C4.31706 81.2812 3.32422 78.319 2.64062 74.8359C1.95703 71.3529 1.61523 67.2839 1.61523 62.6289V51.7891C1.61523 45.9622 2.13607 41.0794 3.17773 37.1406C4.25195 33.2018 5.76562 30.0443 7.71875 27.668C9.67188 25.2591 12.0156 23.5339 14.75 22.4922C17.5169 21.4505 20.6094 20.9297 24.0273 20.9297C26.7943 20.9297 29.3333 21.2715 31.6445 21.9551C33.9883 22.6061 36.0716 23.6641 37.8945 25.1289C39.7174 26.5612 41.2637 28.4818 42.5332 30.8906C43.8353 33.2669 44.8281 36.1803 45.5117 39.6309C46.1953 43.0814 46.5371 47.1341 46.5371 51.7891ZM37.4551 64.0938V50.2754C37.4551 47.0853 37.2598 44.2858 36.8691 41.877C36.5111 39.4355 35.974 37.3522 35.2578 35.627C34.5417 33.9017 33.6302 32.502 32.5234 31.4277C31.4492 30.3535 30.196 29.5723 28.7637 29.084C27.3639 28.5632 25.7852 28.3027 24.0273 28.3027C21.8789 28.3027 19.9746 28.7096 18.3145 29.5234C16.6543 30.3047 15.2546 31.5579 14.1152 33.2832C13.0085 35.0085 12.1621 37.2708 11.5762 40.0703C10.9902 42.8698 10.6973 46.2715 10.6973 50.2754V64.0938C10.6973 67.2839 10.8763 70.0996 11.2344 72.541C11.625 74.9824 12.1947 77.0983 12.9434 78.8887C13.6921 80.6465 14.6035 82.0951 15.6777 83.2344C16.752 84.3737 17.9889 85.2201 19.3887 85.7734C20.821 86.2943 22.3997 86.5547 24.125 86.5547C26.3385 86.5547 28.2754 86.1315 29.9355 85.2852C31.5957 84.4388 32.9792 83.1204 34.0859 81.3301C35.2253 79.5072 36.0716 77.1797 36.625 74.3477C37.1784 71.4831 37.4551 68.0651 37.4551 64.0938Z" fill="black"/>
</svg>
