<svg width="16" height="117" viewBox="0 0 16 117" fill="none" xmlns="http://www.w3.org/2000/svg">
<path d="M2.49414 88.2148C2.49414 86.6849 2.96615 85.3991 3.91016 84.3574C4.88672 83.2832 6.28646 82.7461 8.10938 82.7461C9.93229 82.7461 11.3158 83.2832 12.2598 84.3574C13.2363 85.3991 13.7246 86.6849 13.7246 88.2148C13.7246 89.7122 13.2363 90.9818 12.2598 92.0234C11.3158 93.0651 9.93229 93.5859 8.10938 93.5859C6.28646 93.5859 4.88672 93.0651 3.91016 92.0234C2.96615 90.9818 2.49414 89.7122 2.49414 88.2148ZM2.54297 45.0996C2.54297 43.5697 3.01497 42.2839 3.95898 41.2422C4.93555 40.168 6.33529 39.6309 8.1582 39.6309C9.98112 39.6309 11.3646 40.168 12.3086 41.2422C13.2852 42.2839 13.7734 43.5697 13.7734 45.0996C13.7734 46.597 13.2852 47.8665 12.3086 48.9082C11.3646 49.9499 9.98112 50.4707 8.1582 50.4707C6.33529 50.4707 4.93555 49.9499 3.95898 48.9082C3.01497 47.8665 2.54297 46.597 2.54297 45.0996Z" fill="black"/>
</svg>
