<svg width="50" height="117" viewBox="0 0 50 117" fill="none" xmlns="http://www.w3.org/2000/svg">
<path d="M48.4902 85.5781V93H1.95703V86.5059L25.248 60.5781C28.1126 57.388 30.3262 54.6862 31.8887 52.4727C33.4837 50.2266 34.5905 48.2246 35.209 46.4668C35.86 44.6764 36.1855 42.8535 36.1855 40.998C36.1855 38.6543 35.6973 36.5384 34.7207 34.6504C33.7767 32.7298 32.377 31.1999 30.5215 30.0605C28.666 28.9212 26.4199 28.3516 23.7832 28.3516C20.6257 28.3516 17.9889 28.9701 15.873 30.207C13.7897 31.4115 12.2272 33.1042 11.1855 35.2852C10.1439 37.4661 9.62305 39.9727 9.62305 42.8047H0.589844C0.589844 38.8008 1.46875 35.1387 3.22656 31.8184C4.98438 28.498 7.58854 25.8613 11.0391 23.9082C14.4896 21.9225 18.7376 20.9297 23.7832 20.9297C28.2754 20.9297 32.1165 21.7272 35.3066 23.3223C38.4967 24.8848 40.9382 27.0983 42.6309 29.9629C44.3561 32.7949 45.2188 36.1152 45.2188 39.9238C45.2188 42.0072 44.8607 44.123 44.1445 46.2715C43.4609 48.3874 42.5007 50.5033 41.2637 52.6191C40.0592 54.735 38.6432 56.8184 37.0156 58.8691C35.4206 60.9199 33.7116 62.9382 31.8887 64.9238L12.8457 85.5781H48.4902Z" fill="black"/>
</svg>
