<svg width="48" height="117" viewBox="0 0 48 117" fill="none" xmlns="http://www.w3.org/2000/svg">
<path d="M16.0918 53.0098H22.5371C25.6947 53.0098 28.2988 52.4889 30.3496 51.4473C32.4329 50.373 33.9792 48.9245 34.9883 47.1016C36.0299 45.2461 36.5508 43.1628 36.5508 40.8516C36.5508 38.1172 36.0951 35.8223 35.1836 33.9668C34.2721 32.1113 32.9049 30.7116 31.082 29.7676C29.2591 28.8236 26.9479 28.3516 24.1484 28.3516C21.6094 28.3516 19.3633 28.8561 17.4102 29.8652C15.4896 30.8418 13.9759 32.2415 12.8691 34.0645C11.7949 35.8874 11.2578 38.0358 11.2578 40.5098H2.22461C2.22461 36.8965 3.13607 33.6087 4.95898 30.6465C6.7819 27.6842 9.33724 25.3242 12.625 23.5664C15.9453 21.8086 19.7865 20.9297 24.1484 20.9297C28.4453 20.9297 32.2051 21.6947 35.4277 23.2246C38.6504 24.722 41.1569 26.9681 42.9473 29.9629C44.7376 32.9251 45.6328 36.6198 45.6328 41.0469C45.6328 42.8372 45.2096 44.7578 44.3633 46.8086C43.5495 48.8268 42.2637 50.7148 40.5059 52.4727C38.7806 54.2305 36.5345 55.679 33.7676 56.8184C31.0007 57.9251 27.6803 58.4785 23.8066 58.4785H16.0918V53.0098ZM16.0918 60.4316V55.0117H23.8066C28.3314 55.0117 32.0749 55.5488 35.0371 56.623C37.9993 57.6973 40.3268 59.1296 42.0195 60.9199C43.7448 62.7103 44.9492 64.6797 45.6328 66.8281C46.349 68.944 46.707 71.0599 46.707 73.1758C46.707 76.4961 46.1374 79.4421 44.998 82.0137C43.8913 84.5853 42.3125 86.7663 40.2617 88.5566C38.2435 90.347 35.8672 91.6979 33.1328 92.6094C30.3984 93.5208 27.4199 93.9766 24.1973 93.9766C21.1048 93.9766 18.1914 93.5371 15.457 92.6582C12.7552 91.7793 10.3626 90.5098 8.2793 88.8496C6.19596 87.1569 4.56836 85.0898 3.39648 82.6484C2.22461 80.1745 1.63867 77.3587 1.63867 74.2012H10.6719C10.6719 76.6751 11.209 78.8398 12.2832 80.6953C13.39 82.5508 14.9525 83.9993 16.9707 85.041C19.0215 86.0501 21.4303 86.5547 24.1973 86.5547C26.9642 86.5547 29.3405 86.0827 31.3262 85.1387C33.3444 84.1621 34.8906 82.6973 35.9648 80.7441C37.0716 78.791 37.625 76.3333 37.625 73.3711C37.625 70.4089 37.0065 67.9837 35.7695 66.0957C34.5326 64.1751 32.7747 62.7591 30.4961 61.8477C28.25 60.9036 25.597 60.4316 22.5371 60.4316H16.0918Z" fill="black"/>
</svg>
