<svg width="47" height="117" viewBox="0 0 47 117" fill="none" xmlns="http://www.w3.org/2000/svg">
<path d="M11.334 59.1621L4.10742 57.3066L7.67188 21.9062H44.1465V30.2559H15.3379L13.1895 49.5918C14.4915 48.8431 16.1354 48.1432 18.1211 47.4922C20.1393 46.8411 22.4505 46.5156 25.0547 46.5156C28.3424 46.5156 31.2884 47.0853 33.8926 48.2246C36.4967 49.3314 38.7103 50.9264 40.5332 53.0098C42.3887 55.0931 43.8047 57.5996 44.7812 60.5293C45.7578 63.459 46.2461 66.7305 46.2461 70.3438C46.2461 73.7617 45.7741 76.903 44.8301 79.7676C43.9186 82.6322 42.5352 85.1387 40.6797 87.2871C38.8242 89.403 36.4805 91.0469 33.6484 92.2188C30.849 93.3906 27.5449 93.9766 23.7363 93.9766C20.8717 93.9766 18.1536 93.5859 15.582 92.8047C13.043 91.9909 10.7643 90.7702 8.74609 89.1426C6.76042 87.4824 5.13281 85.4316 3.86328 82.9902C2.6263 80.5163 1.84505 77.6191 1.51953 74.2988H10.1133C10.5039 76.9681 11.2852 79.2142 12.457 81.0371C13.6289 82.86 15.1589 84.2435 17.0469 85.1875C18.9674 86.099 21.1973 86.5547 23.7363 86.5547C25.8848 86.5547 27.7891 86.1803 29.4492 85.4316C31.1094 84.6829 32.5091 83.6087 33.6484 82.209C34.7878 80.8092 35.6504 79.1165 36.2363 77.1309C36.8548 75.1452 37.1641 72.9154 37.1641 70.4414C37.1641 68.1953 36.8548 66.112 36.2363 64.1914C35.6178 62.2708 34.6901 60.5944 33.4531 59.1621C32.2487 57.7298 30.7676 56.623 29.0098 55.8418C27.252 55.028 25.2337 54.6211 22.9551 54.6211C19.9277 54.6211 17.6328 55.028 16.0703 55.8418C14.5404 56.6556 12.9616 57.7624 11.334 59.1621Z" fill="black"/>
</svg>
