<svg width="48" height="117" viewBox="0 0 48 117" fill="none" xmlns="http://www.w3.org/2000/svg">
<path d="M35.5762 21.8086H36.3574V29.4746H35.5762C30.791 29.4746 26.7871 30.2559 23.5645 31.8184C20.3418 33.3483 17.7865 35.4154 15.8984 38.0195C14.0104 40.5911 12.6432 43.4883 11.7969 46.7109C10.9831 49.9336 10.5762 53.2051 10.5762 56.5254V66.9746C10.5762 70.1322 10.9505 72.9316 11.6992 75.373C12.4479 77.7819 13.4733 79.8164 14.7754 81.4766C16.0775 83.1367 17.5423 84.39 19.1699 85.2363C20.8301 86.0827 22.5553 86.5059 24.3457 86.5059C26.429 86.5059 28.2845 86.1152 29.9121 85.334C31.5397 84.5202 32.9069 83.3971 34.0137 81.9648C35.153 80.5 36.0156 78.7747 36.6016 76.7891C37.1875 74.8034 37.4805 72.6224 37.4805 70.2461C37.4805 68.1302 37.2201 66.0957 36.6992 64.1426C36.1784 62.1569 35.3809 60.3991 34.3066 58.8691C33.2324 57.3066 31.8815 56.0859 30.2539 55.207C28.6589 54.2956 26.7546 53.8398 24.541 53.8398C22.0345 53.8398 19.6908 54.4583 17.5098 55.6953C15.3613 56.8997 13.5872 58.4948 12.1875 60.4805C10.8203 62.4336 10.0391 64.5658 9.84375 66.877L5.05859 66.8281C5.51432 63.1823 6.36068 60.0736 7.59766 57.502C8.86719 54.8978 10.4297 52.7819 12.2852 51.1543C14.1732 49.4941 16.2728 48.2897 18.584 47.541C20.9277 46.7598 23.4017 46.3691 26.0059 46.3691C29.554 46.3691 32.6139 47.0365 35.1855 48.3711C37.7572 49.7057 39.873 51.4961 41.5332 53.7422C43.1934 55.9557 44.4141 58.4622 45.1953 61.2617C46.0091 64.0286 46.416 66.877 46.416 69.8066C46.416 73.1595 45.944 76.3008 45 79.2305C44.056 82.1602 42.64 84.7318 40.752 86.9453C38.8965 89.1589 36.6016 90.8841 33.8672 92.1211C31.1328 93.3581 27.959 93.9766 24.3457 93.9766C20.5046 93.9766 17.1517 93.1953 14.2871 91.6328C11.4225 90.0378 9.04622 87.9219 7.1582 85.2852C5.27018 82.6484 3.85417 79.7188 2.91016 76.4961C1.96615 73.2734 1.49414 70.002 1.49414 66.6816V62.4336C1.49414 57.4206 1.9987 52.5052 3.00781 47.6875C4.01693 42.8698 5.75846 38.5078 8.23242 34.6016C10.7389 30.6953 14.2057 27.5866 18.6328 25.2754C23.0599 22.9642 28.7077 21.8086 35.5762 21.8086Z" fill="black"/>
</svg>
