<svg width="48" height="117" viewBox="0 0 48 117" fill="none" xmlns="http://www.w3.org/2000/svg">
<path d="M46.7324 73.7617C46.7324 78.0911 45.7233 81.7695 43.7051 84.7969C41.7194 87.7917 39.0176 90.0703 35.5996 91.6328C32.2142 93.1953 28.3893 93.9766 24.125 93.9766C19.8607 93.9766 16.0195 93.1953 12.6016 91.6328C9.18359 90.0703 6.48177 87.7917 4.49609 84.7969C2.51042 81.7695 1.51758 78.0911 1.51758 73.7617C1.51758 70.9297 2.05469 68.3418 3.12891 65.998C4.23568 63.6217 5.7819 61.5547 7.76758 59.7969C9.78581 58.0391 12.1621 56.6882 14.8965 55.7441C17.6634 54.7676 20.707 54.2793 24.0273 54.2793C28.3893 54.2793 32.2793 55.1257 35.6973 56.8184C39.1152 58.4785 41.8008 60.7734 43.7539 63.7031C45.7396 66.6328 46.7324 69.9857 46.7324 73.7617ZM37.6504 73.5664C37.6504 70.9297 37.0807 68.6022 35.9414 66.584C34.8021 64.5332 33.207 62.9382 31.1562 61.7988C29.1055 60.6595 26.7292 60.0898 24.0273 60.0898C21.2604 60.0898 18.8678 60.6595 16.8496 61.7988C14.8639 62.9382 13.3177 64.5332 12.2109 66.584C11.1042 68.6022 10.5508 70.9297 10.5508 73.5664C10.5508 76.3008 11.0879 78.6445 12.1621 80.5977C13.2689 82.5182 14.8314 83.9993 16.8496 85.041C18.9004 86.0501 21.3255 86.5547 24.125 86.5547C26.9245 86.5547 29.3333 86.0501 31.3516 85.041C33.3698 83.9993 34.916 82.5182 35.9902 80.5977C37.097 78.6445 37.6504 76.3008 37.6504 73.5664ZM45.0723 40.4121C45.0723 43.8626 44.1608 46.9714 42.3379 49.7383C40.515 52.5052 38.0247 54.6862 34.8672 56.2812C31.7096 57.8763 28.1289 58.6738 24.125 58.6738C20.056 58.6738 16.4264 57.8763 13.2363 56.2812C10.0788 54.6862 7.60482 52.5052 5.81445 49.7383C4.02409 46.9714 3.12891 43.8626 3.12891 40.4121C3.12891 36.278 4.02409 32.7624 5.81445 29.8652C7.63737 26.9681 10.1276 24.7546 13.2852 23.2246C16.4427 21.6947 20.0397 20.9297 24.0762 20.9297C28.1452 20.9297 31.7585 21.6947 34.916 23.2246C38.0736 24.7546 40.5475 26.9681 42.3379 29.8652C44.1608 32.7624 45.0723 36.278 45.0723 40.4121ZM36.0391 40.5586C36.0391 38.1823 35.5345 36.0827 34.5254 34.2598C33.5163 32.4368 32.1165 31.0046 30.3262 29.9629C28.5358 28.8887 26.4525 28.3516 24.0762 28.3516C21.6999 28.3516 19.6165 28.8561 17.8262 29.8652C16.0684 30.8418 14.6849 32.2415 13.6758 34.0645C12.6992 35.8874 12.2109 38.0521 12.2109 40.5586C12.2109 43 12.6992 45.1322 13.6758 46.9551C14.6849 48.778 16.0846 50.194 17.875 51.2031C19.6654 52.2122 21.7487 52.7168 24.125 52.7168C26.5013 52.7168 28.5684 52.2122 30.3262 51.2031C32.1165 50.194 33.5163 48.778 34.5254 46.9551C35.5345 45.1322 36.0391 43 36.0391 40.5586Z" fill="black"/>
</svg>
