<svg width="47" height="117" viewBox="0 0 47 117" fill="none" xmlns="http://www.w3.org/2000/svg">
<path d="M10.8926 85.4316H11.8203C17.0286 85.4316 21.2604 84.6992 24.5156 83.2344C27.7708 81.7695 30.2773 79.8001 32.0352 77.3262C33.793 74.8522 34.9974 72.069 35.6484 68.9766C36.2995 65.8516 36.625 62.6452 36.625 59.3574V48.4688C36.625 45.2461 36.2507 42.3815 35.502 39.875C34.7858 37.3685 33.7767 35.2689 32.4746 33.5762C31.2051 31.8835 29.7565 30.5977 28.1289 29.7188C26.5013 28.8398 24.776 28.4004 22.9531 28.4004C20.8698 28.4004 18.998 28.8236 17.3379 29.6699C15.7103 30.4837 14.3268 31.6393 13.1875 33.1367C12.0807 34.6341 11.2344 36.3919 10.6484 38.4102C10.0625 40.4284 9.76953 42.6257 9.76953 45.002C9.76953 47.1178 10.0299 49.1686 10.5508 51.1543C11.0716 53.14 11.8691 54.9303 12.9434 56.5254C14.0176 58.1204 15.3522 59.39 16.9473 60.334C18.5749 61.2454 20.4792 61.7012 22.6602 61.7012C24.6784 61.7012 26.5664 61.3105 28.3242 60.5293C30.1146 59.7155 31.6934 58.625 33.0605 57.2578C34.4603 55.8581 35.5671 54.2793 36.3809 52.5215C37.2272 50.7637 37.7155 48.9245 37.8457 47.0039H42.1426C42.1426 49.7057 41.6055 52.375 40.5312 55.0117C39.4896 57.6159 38.0247 59.9922 36.1367 62.1406C34.2487 64.2891 32.0352 66.0143 29.4961 67.3164C26.957 68.5859 24.1901 69.2207 21.1953 69.2207C17.6797 69.2207 14.6361 68.5371 12.0645 67.1699C9.49284 65.8027 7.37695 63.9798 5.7168 61.7012C4.08919 59.4225 2.86849 56.8835 2.05469 54.084C1.27344 51.252 0.882812 48.3874 0.882812 45.4902C0.882812 42.1048 1.35482 38.931 2.29883 35.9688C3.24284 33.0065 4.64258 30.4023 6.49805 28.1562C8.35352 25.8776 10.6484 24.1035 13.3828 22.834C16.1497 21.5645 19.3398 20.9297 22.9531 20.9297C27.0221 20.9297 30.4889 21.7435 33.3535 23.3711C36.2181 24.9987 38.5456 27.1797 40.3359 29.9141C42.1589 32.6484 43.4935 35.7246 44.3398 39.1426C45.1862 42.5605 45.6094 46.0762 45.6094 49.6895V52.9609C45.6094 56.6393 45.3652 60.3828 44.877 64.1914C44.4212 67.9674 43.526 71.5807 42.1914 75.0312C40.8893 78.4818 38.985 81.5742 36.4785 84.3086C33.972 87.0104 30.7005 89.1589 26.6641 90.7539C22.6602 92.3164 17.7122 93.0977 11.8203 93.0977H10.8926V85.4316Z" fill="black"/>
</svg>
