<svg width="46" height="117" viewBox="0 0 46 117" fill="none" xmlns="http://www.w3.org/2000/svg">
<path d="M34.0371 83.9668V56.7695C34.0371 54.6862 33.6139 52.8796 32.7676 51.3496C31.9538 49.7871 30.7168 48.5827 29.0566 47.7363C27.3965 46.89 25.3457 46.4668 22.9043 46.4668C20.6257 46.4668 18.6237 46.8574 16.8984 47.6387C15.2057 48.4199 13.8711 49.4453 12.8945 50.7148C11.9505 51.9844 11.4785 53.3516 11.4785 54.8164H2.44531C2.44531 52.9284 2.93359 51.0566 3.91016 49.2012C4.88672 47.3457 6.28646 45.6693 8.10938 44.1719C9.96484 42.6419 12.1784 41.4375 14.75 40.5586C17.3542 39.6471 20.2513 39.1914 23.4414 39.1914C27.2826 39.1914 30.668 39.8424 33.5977 41.1445C36.5599 42.4466 38.8711 44.416 40.5312 47.0527C42.224 49.6569 43.0703 52.9284 43.0703 56.8672V81.4766C43.0703 83.2344 43.2168 85.1061 43.5098 87.0918C43.8353 89.0775 44.3073 90.7865 44.9258 92.2188V93H35.502C35.0462 91.9583 34.6882 90.5749 34.4277 88.8496C34.1673 87.0918 34.0371 85.4642 34.0371 83.9668ZM35.5996 60.9688L35.6973 67.3164H26.5664C23.9948 67.3164 21.6999 67.528 19.6816 67.9512C17.6634 68.3418 15.9707 68.944 14.6035 69.7578C13.2363 70.5716 12.1947 71.597 11.4785 72.834C10.7624 74.0384 10.4043 75.4544 10.4043 77.082C10.4043 78.7422 10.7786 80.2559 11.5273 81.623C12.276 82.9902 13.3991 84.0807 14.8965 84.8945C16.4264 85.6758 18.2982 86.0664 20.5117 86.0664C23.2786 86.0664 25.7201 85.4805 27.8359 84.3086C29.9518 83.1367 31.6283 81.7044 32.8652 80.0117C34.1348 78.319 34.8184 76.6751 34.916 75.0801L38.7734 79.4258C38.5456 80.793 37.9271 82.3066 36.918 83.9668C35.9089 85.627 34.5579 87.222 32.8652 88.752C31.2051 90.2493 29.2194 91.5026 26.9082 92.5117C24.6296 93.4883 22.0579 93.9766 19.1934 93.9766C15.6126 93.9766 12.4714 93.2767 9.76953 91.877C7.10026 90.4772 5.01693 88.6055 3.51953 86.2617C2.05469 83.8854 1.32227 81.2324 1.32227 78.3027C1.32227 75.4707 1.87565 72.9805 2.98242 70.832C4.08919 68.651 5.68424 66.8444 7.76758 65.4121C9.85091 63.9473 12.3574 62.8405 15.2871 62.0918C18.2168 61.3431 21.4883 60.9688 25.1016 60.9688H35.5996Z" fill="black"/>
</svg>
