<svg width="63" height="117" viewBox="0 0 63 117" fill="none" xmlns="http://www.w3.org/2000/svg">
<path d="M33.5938 59.748H15.5762L15.4785 52.1797H31.8359C34.5378 52.1797 36.8978 51.724 38.916 50.8125C40.9342 49.901 42.4967 48.599 43.6035 46.9062C44.7428 45.181 45.3125 43.1302 45.3125 40.7539C45.3125 38.1497 44.8079 36.0339 43.7988 34.4062C42.8223 32.7461 41.3086 31.5417 39.2578 30.793C37.2396 30.0117 34.668 29.6211 31.543 29.6211H17.6758V93H8.25195V21.9062H31.543C35.1888 21.9062 38.444 22.2806 41.3086 23.0293C44.1732 23.7454 46.5983 24.8848 48.584 26.4473C50.6022 27.9772 52.1322 29.9303 53.1738 32.3066C54.2155 34.6829 54.7363 37.5312 54.7363 40.8516C54.7363 43.7812 53.9876 46.4342 52.4902 48.8105C50.9928 51.1543 48.9095 53.0749 46.2402 54.5723C43.6035 56.0697 40.5111 57.0299 36.9629 57.4531L33.5938 59.748ZM33.1543 93H11.8652L17.1875 85.334H33.1543C36.1491 85.334 38.6882 84.8132 40.7715 83.7715C42.8874 82.7298 44.4987 81.265 45.6055 79.377C46.7122 77.4564 47.2656 75.194 47.2656 72.5898C47.2656 69.9531 46.7936 67.6745 45.8496 65.7539C44.9056 63.8333 43.4245 62.3522 41.4062 61.3105C39.388 60.2689 36.7839 59.748 33.5938 59.748H20.166L20.2637 52.1797H38.623L40.625 54.9141C44.043 55.207 46.9401 56.1836 49.3164 57.8438C51.6927 59.4714 53.4993 61.5547 54.7363 64.0938C56.0059 66.6328 56.6406 69.4323 56.6406 72.4922C56.6406 76.9193 55.6641 80.6628 53.7109 83.7227C51.7904 86.75 49.0723 89.0612 45.5566 90.6562C42.041 92.2188 37.9069 93 33.1543 93Z" fill="black"/>
</svg>
