<svg width="48" height="117" viewBox="0 0 48 117" fill="none" xmlns="http://www.w3.org/2000/svg">
<path d="M1.83594 18H10.918V82.7461L10.1367 93H1.83594V18ZM46.6113 66.1445V67.1699C46.6113 71.0111 46.1556 74.5755 45.2441 77.8633C44.3327 81.1185 42.998 83.9505 41.2402 86.3594C39.4824 88.7682 37.334 90.64 34.7949 91.9746C32.2559 93.3092 29.3424 93.9766 26.0547 93.9766C22.7018 93.9766 19.7559 93.4069 17.2168 92.2676C14.7103 91.0957 12.5944 89.4193 10.8691 87.2383C9.14388 85.0573 7.76042 82.4206 6.71875 79.3281C5.70964 76.2357 5.00977 72.7526 4.61914 68.8789V64.3867C5.00977 60.4805 5.70964 56.9811 6.71875 53.8887C7.76042 50.7962 9.14388 48.1595 10.8691 45.9785C12.5944 43.765 14.7103 42.0885 17.2168 40.9492C19.7233 39.7773 22.6367 39.1914 25.957 39.1914C29.2773 39.1914 32.2233 39.8424 34.7949 41.1445C37.3665 42.4141 39.515 44.237 41.2402 46.6133C42.998 48.9896 44.3327 51.8379 45.2441 55.1582C46.1556 58.446 46.6113 62.1081 46.6113 66.1445ZM37.5293 67.1699V66.1445C37.5293 63.5078 37.2852 61.0339 36.7969 58.7227C36.3086 56.3789 35.5273 54.3281 34.4531 52.5703C33.3789 50.7799 31.9629 49.3802 30.2051 48.3711C28.4473 47.3294 26.2826 46.8086 23.7109 46.8086C21.4323 46.8086 19.4466 47.1992 17.7539 47.9805C16.0938 48.7617 14.6777 49.8197 13.5059 51.1543C12.334 52.4564 11.3737 53.9538 10.625 55.6465C9.90885 57.3066 9.37174 59.0319 9.01367 60.8223V72.5898C9.53451 74.8685 10.3809 77.0658 11.5527 79.1816C12.7572 81.265 14.3522 82.974 16.3379 84.3086C18.3561 85.6432 20.8464 86.3105 23.8086 86.3105C26.25 86.3105 28.3333 85.8223 30.0586 84.8457C31.8164 83.8366 33.2324 82.4531 34.3066 80.6953C35.4134 78.9375 36.2272 76.903 36.748 74.5918C37.2689 72.2806 37.5293 69.8066 37.5293 67.1699Z" fill="black"/>
</svg>
