<svg width="62" height="117" viewBox="0 0 62 117" fill="none" xmlns="http://www.w3.org/2000/svg">
<path d="M51.1719 70.3926H60.5469C60.0586 74.8848 58.7728 78.9049 56.6895 82.4531C54.6061 86.0013 51.6602 88.8171 47.8516 90.9004C44.043 92.9512 39.2904 93.9766 33.5938 93.9766C29.4271 93.9766 25.6348 93.1953 22.2168 91.6328C18.8314 90.0703 15.918 87.8568 13.4766 84.9922C11.0352 82.0951 9.14714 78.6283 7.8125 74.5918C6.51042 70.5228 5.85938 65.998 5.85938 61.0176V53.9375C5.85938 48.957 6.51042 44.4486 7.8125 40.4121C9.14714 36.3431 11.0514 32.86 13.5254 29.9629C16.0319 27.0658 19.043 24.8359 22.5586 23.2734C26.0742 21.7109 30.0293 20.9297 34.4238 20.9297C39.7949 20.9297 44.3359 21.9388 48.0469 23.957C51.7578 25.9753 54.6387 28.7747 56.6895 32.3555C58.7728 35.9036 60.0586 40.0215 60.5469 44.709H51.1719C50.7161 41.3887 49.8698 38.5404 48.6328 36.1641C47.3958 33.7552 45.638 31.8997 43.3594 30.5977C41.0807 29.2956 38.1022 28.6445 34.4238 28.6445C31.2663 28.6445 28.4831 29.2467 26.0742 30.4512C23.6979 31.6556 21.696 33.3646 20.0684 35.5781C18.4733 37.7917 17.2689 40.4447 16.4551 43.5371C15.6413 46.6296 15.2344 50.0638 15.2344 53.8398V61.0176C15.2344 64.5007 15.5924 67.7721 16.3086 70.832C17.0573 73.8919 18.1803 76.5775 19.6777 78.8887C21.1751 81.1999 23.0794 83.0228 25.3906 84.3574C27.7018 85.6595 30.4362 86.3105 33.5938 86.3105C37.5977 86.3105 40.7878 85.6758 43.1641 84.4062C45.5404 83.1367 47.3307 81.3138 48.5352 78.9375C49.7721 76.5612 50.651 73.7129 51.1719 70.3926Z" fill="black"/>
</svg>
