<svg width="47" height="117" viewBox="0 0 47 117" fill="none" xmlns="http://www.w3.org/2000/svg">
<path d="M25.0273 86.5547C27.1758 86.5547 29.1615 86.1152 30.9844 85.2363C32.8073 84.3574 34.3047 83.153 35.4766 81.623C36.6484 80.0605 37.3158 78.2865 37.4785 76.3008H46.0723C45.9095 79.4258 44.8516 82.3392 42.8984 85.041C40.9779 87.7103 38.4551 89.875 35.3301 91.5352C32.2051 93.1628 28.7708 93.9766 25.0273 93.9766C21.056 93.9766 17.5892 93.2767 14.627 91.877C11.6973 90.4772 9.25586 88.5566 7.30273 86.1152C5.38216 83.6738 3.93359 80.8743 2.95703 77.7168C2.01302 74.5267 1.54102 71.1576 1.54102 67.6094V65.5586C1.54102 62.0104 2.01302 58.6576 2.95703 55.5C3.93359 52.3099 5.38216 49.4941 7.30273 47.0527C9.25586 44.6113 11.6973 42.6908 14.627 41.291C17.5892 39.8913 21.056 39.1914 25.0273 39.1914C29.1615 39.1914 32.7747 40.0378 35.8672 41.7305C38.9596 43.3906 41.3848 45.6693 43.1426 48.5664C44.9329 51.431 45.9095 54.6862 46.0723 58.332H37.4785C37.3158 56.151 36.6973 54.1816 35.623 52.4238C34.5814 50.666 33.1491 49.2663 31.3262 48.2246C29.5358 47.1504 27.4362 46.6133 25.0273 46.6133C22.2604 46.6133 19.9329 47.1667 18.0449 48.2734C16.1895 49.3477 14.7083 50.8125 13.6016 52.668C12.5273 54.4909 11.7461 56.5254 11.2578 58.7715C10.8021 60.985 10.5742 63.2474 10.5742 65.5586V67.6094C10.5742 69.9206 10.8021 72.1992 11.2578 74.4453C11.7135 76.6914 12.4785 78.7259 13.5527 80.5488C14.6595 82.3717 16.1406 83.8366 17.9961 84.9434C19.8841 86.0176 22.2279 86.5547 25.0273 86.5547Z" fill="black"/>
</svg>
