<svg width="48" height="117" viewBox="0 0 48 117" fill="none" xmlns="http://www.w3.org/2000/svg">
<path d="M36.1855 82.7461V18H45.2676V93H36.9668L36.1855 82.7461ZM0.638672 67.1699V66.1445C0.638672 62.1081 1.12695 58.446 2.10352 55.1582C3.11263 51.8379 4.52865 48.9896 6.35156 46.6133C8.20703 44.237 10.4043 42.4141 12.9434 41.1445C15.515 39.8424 18.3796 39.1914 21.5371 39.1914C24.8574 39.1914 27.7546 39.7773 30.2285 40.9492C32.735 42.0885 34.8509 43.765 36.5762 45.9785C38.334 48.1595 39.7174 50.7962 40.7266 53.8887C41.7357 56.9811 42.4355 60.4805 42.8262 64.3867V68.8789C42.4681 72.7526 41.7682 76.2357 40.7266 79.3281C39.7174 82.4206 38.334 85.0573 36.5762 87.2383C34.8509 89.4193 32.735 91.0957 30.2285 92.2676C27.722 93.4069 24.7923 93.9766 21.4395 93.9766C18.347 93.9766 15.515 93.3092 12.9434 91.9746C10.4043 90.64 8.20703 88.7682 6.35156 86.3594C4.52865 83.9505 3.11263 81.1185 2.10352 77.8633C1.12695 74.5755 0.638672 71.0111 0.638672 67.1699ZM9.7207 66.1445V67.1699C9.7207 69.8066 9.98112 72.2806 10.502 74.5918C11.0553 76.903 11.9017 78.9375 13.041 80.6953C14.1803 82.4531 15.6289 83.8366 17.3867 84.8457C19.1445 85.8223 21.2441 86.3105 23.6855 86.3105C26.6803 86.3105 29.138 85.6758 31.0586 84.4062C33.0117 83.1367 34.5742 81.4603 35.7461 79.377C36.918 77.2936 37.8294 75.0312 38.4805 72.5898V60.8223C38.0898 59.0319 37.5202 57.3066 36.7715 55.6465C36.0553 53.9538 35.1113 52.4564 33.9395 51.1543C32.8001 49.8197 31.3841 48.7617 29.6914 47.9805C28.0312 47.1992 26.0618 46.8086 23.7832 46.8086C21.3092 46.8086 19.1771 47.3294 17.3867 48.3711C15.6289 49.3802 14.1803 50.7799 13.041 52.5703C11.9017 54.3281 11.0553 56.3789 10.502 58.7227C9.98112 61.0339 9.7207 63.5078 9.7207 66.1445Z" fill="black"/>
</svg>
