<svg width="62" height="117" viewBox="0 0 62 117" fill="none" xmlns="http://www.w3.org/2000/svg">
<path d="M26.4902 93H11.6465L11.7441 85.334H26.4902C31.5684 85.334 35.8001 84.276 39.1855 82.1602C42.571 80.0117 45.11 77.0169 46.8027 73.1758C48.528 69.3021 49.3906 64.7773 49.3906 59.6016V55.2559C49.3906 51.1868 48.9023 47.5736 47.9258 44.416C46.9492 41.2259 45.5169 38.5404 43.6289 36.3594C41.7409 34.1458 39.4297 32.4694 36.6953 31.3301C33.9935 30.1908 30.8848 29.6211 27.3691 29.6211H11.3535V21.9062H27.3691C32.0241 21.9062 36.2721 22.6875 40.1133 24.25C43.9544 25.7799 47.2585 28.0098 50.0254 30.9395C52.8249 33.8366 54.9733 37.3522 56.4707 41.4863C57.9681 45.5879 58.7168 50.2103 58.7168 55.3535V59.6016C58.7168 64.7448 57.9681 69.3835 56.4707 73.5176C54.9733 77.6191 52.8086 81.1185 49.9766 84.0156C47.1771 86.9128 43.7917 89.1426 39.8203 90.7051C35.8815 92.235 31.4382 93 26.4902 93ZM16.6758 21.9062V93H7.25195V21.9062H16.6758Z" fill="black"/>
</svg>
