<svg width="46" height="117" viewBox="0 0 46 117" fill="none" xmlns="http://www.w3.org/2000/svg">
<path d="M24.8086 93.9766C21.1302 93.9766 17.7936 93.3581 14.7988 92.1211C11.8366 90.8516 9.28125 89.0775 7.13281 86.7988C5.01693 84.5202 3.38932 81.8184 2.25 78.6934C1.11068 75.5684 0.541016 72.1504 0.541016 68.4395V66.3887C0.541016 62.0918 1.17578 58.2669 2.44531 54.9141C3.71484 51.5286 5.4401 48.6641 7.62109 46.3203C9.80208 43.9766 12.276 42.2025 15.043 40.998C17.8099 39.7936 20.6745 39.1914 23.6367 39.1914C27.4128 39.1914 30.668 39.8424 33.4023 41.1445C36.1693 42.4466 38.4316 44.2695 40.1895 46.6133C41.9473 48.9245 43.2493 51.6589 44.0957 54.8164C44.9421 57.9414 45.3652 61.3594 45.3652 65.0703V69.123H5.91211V61.75H36.332V61.0664C36.2018 58.7227 35.7135 56.444 34.8672 54.2305C34.0534 52.0169 32.7513 50.194 30.9609 48.7617C29.1706 47.3294 26.7292 46.6133 23.6367 46.6133C21.5859 46.6133 19.6979 47.0527 17.9727 47.9316C16.2474 48.778 14.7663 50.0475 13.5293 51.7402C12.2923 53.4329 11.332 55.5 10.6484 57.9414C9.96484 60.3828 9.62305 63.1986 9.62305 66.3887V68.4395C9.62305 70.946 9.96484 73.306 10.6484 75.5195C11.3646 77.7005 12.39 79.6211 13.7246 81.2812C15.0918 82.9414 16.7357 84.2435 18.6562 85.1875C20.6094 86.1315 22.8229 86.6035 25.2969 86.6035C28.487 86.6035 31.1888 85.9525 33.4023 84.6504C35.6159 83.3483 37.5527 81.6068 39.2129 79.4258L44.6816 83.7715C43.5423 85.4967 42.0938 87.1406 40.3359 88.7031C38.5781 90.2656 36.4134 91.5352 33.8418 92.5117C31.3027 93.4883 28.2917 93.9766 24.8086 93.9766Z" fill="black"/>
</svg>
