<svg width="35" height="117" viewBox="0 0 35 117" fill="none" xmlns="http://www.w3.org/2000/svg">
<path d="M19.3613 93H10.3281V34.6016C10.3281 30.793 11.0117 27.5866 12.3789 24.9824C13.7786 22.3457 15.7806 20.36 18.3848 19.0254C20.9889 17.6582 24.0814 16.9746 27.6621 16.9746C28.7038 16.9746 29.7454 17.0397 30.7871 17.1699C31.8613 17.3001 32.903 17.4954 33.9121 17.7559L33.4238 25.1289C32.7402 24.9661 31.959 24.8522 31.0801 24.7871C30.2337 24.722 29.3874 24.6895 28.541 24.6895C26.6204 24.6895 24.9603 25.0801 23.5605 25.8613C22.1934 26.61 21.1517 27.7168 20.4355 29.1816C19.7194 30.6465 19.3613 32.4531 19.3613 34.6016V93ZM30.5918 40.168V47.1016H1.97852V40.168H30.5918Z" fill="black"/>
</svg>
