<svg width="68" height="117" viewBox="0 0 68 117" fill="none" xmlns="http://www.w3.org/2000/svg">
<path d="M60.791 57.5996V83.625C59.9121 84.9271 58.5124 86.3919 56.5918 88.0195C54.6712 89.6146 52.0182 91.0143 48.6328 92.2188C45.2799 93.3906 40.9505 93.9766 35.6445 93.9766C31.3151 93.9766 27.3275 93.2279 23.6816 91.7305C20.0684 90.2005 16.9271 87.987 14.2578 85.0898C11.6211 82.1602 9.57031 78.612 8.10547 74.4453C6.67318 70.2461 5.95703 65.4935 5.95703 60.1875V54.6699C5.95703 49.3639 6.57552 44.6276 7.8125 40.4609C9.08203 36.2943 10.9375 32.7624 13.3789 29.8652C15.8203 26.9355 18.8151 24.722 22.3633 23.2246C25.9115 21.6947 29.9805 20.9297 34.5703 20.9297C40.0065 20.9297 44.5475 21.8737 48.1934 23.7617C51.8717 25.6172 54.7363 28.1888 56.7871 31.4766C58.8704 34.7643 60.2051 38.5078 60.791 42.707H51.3672C50.944 40.1354 50.0977 37.7917 48.8281 35.6758C47.5911 33.5599 45.8171 31.8672 43.5059 30.5977C41.1947 29.2956 38.2161 28.6445 34.5703 28.6445C31.2826 28.6445 28.4342 29.2467 26.0254 30.4512C23.6165 31.6556 21.6309 33.3809 20.0684 35.627C18.5059 37.873 17.334 40.5911 16.5527 43.7812C15.804 46.9714 15.4297 50.5684 15.4297 54.5723V60.1875C15.4297 64.2891 15.9017 67.9512 16.8457 71.1738C17.8223 74.3965 19.2057 77.1471 20.9961 79.4258C22.7865 81.6719 24.9186 83.3809 27.3926 84.5527C29.8991 85.7246 32.666 86.3105 35.6934 86.3105C39.0462 86.3105 41.7643 86.0339 43.8477 85.4805C45.931 84.8945 47.5586 84.2109 48.7305 83.4297C49.9023 82.6159 50.7975 81.8509 51.416 81.1348V65.2168H34.9609V57.5996H60.791Z" fill="black"/>
</svg>
