<svg width="46" height="117" viewBox="0 0 46 117" fill="none" xmlns="http://www.w3.org/2000/svg">
<path d="M37.1133 40.168H45.3164V91.877C45.3164 96.5319 44.3724 100.503 42.4844 103.791C40.5964 107.079 37.9596 109.569 34.5742 111.262C31.2214 112.987 27.3477 113.85 22.9531 113.85C21.1302 113.85 18.9818 113.557 16.5078 112.971C14.0664 112.417 11.6576 111.457 9.28125 110.09C6.9375 108.755 4.9681 106.949 3.37305 104.67L8.10938 99.2988C10.3229 101.968 12.6341 103.824 15.043 104.865C17.4844 105.907 19.8932 106.428 22.2695 106.428C25.1341 106.428 27.6081 105.891 29.6914 104.816C31.7747 103.742 33.3861 102.147 34.5254 100.031C35.6973 97.9479 36.2832 95.3763 36.2832 92.3164V51.7891L37.1133 40.168ZM0.736328 67.1699V66.1445C0.736328 62.1081 1.20833 58.446 2.15234 55.1582C3.12891 51.8379 4.51237 48.9896 6.30273 46.6133C8.12565 44.237 10.3229 42.4141 12.8945 41.1445C15.4661 39.8424 18.3633 39.1914 21.5859 39.1914C24.9062 39.1914 27.8034 39.7773 30.2773 40.9492C32.7839 42.0885 34.8997 43.765 36.625 45.9785C38.3828 48.1595 39.7663 50.7962 40.7754 53.8887C41.7845 56.9811 42.4844 60.4805 42.875 64.3867V68.8789C42.5169 72.7526 41.8171 76.2357 40.7754 79.3281C39.7663 82.4206 38.3828 85.0573 36.625 87.2383C34.8997 89.4193 32.7839 91.0957 30.2773 92.2676C27.7708 93.4069 24.8411 93.9766 21.4883 93.9766C18.3307 93.9766 15.4661 93.3092 12.8945 91.9746C10.3555 90.64 8.17448 88.7682 6.35156 86.3594C4.52865 83.9505 3.12891 81.1185 2.15234 77.8633C1.20833 74.5755 0.736328 71.0111 0.736328 67.1699ZM9.76953 66.1445V67.1699C9.76953 69.8066 10.0299 72.2806 10.5508 74.5918C11.1042 76.903 11.9342 78.9375 13.041 80.6953C14.1803 82.4531 15.6289 83.8366 17.3867 84.8457C19.1445 85.8223 21.2441 86.3105 23.6855 86.3105C26.6803 86.3105 29.1543 85.6758 31.1074 84.4062C33.0605 83.1367 34.6068 81.4603 35.7461 79.377C36.918 77.2936 37.8294 75.0312 38.4805 72.5898V60.8223C38.1224 59.0319 37.569 57.3066 36.8203 55.6465C36.1042 53.9538 35.1602 52.4564 33.9883 51.1543C32.849 49.8197 31.4329 48.7617 29.7402 47.9805C28.0475 47.1992 26.0618 46.8086 23.7832 46.8086C21.3092 46.8086 19.1771 47.3294 17.3867 48.3711C15.6289 49.3802 14.1803 50.7799 13.041 52.5703C11.9342 54.3281 11.1042 56.3789 10.5508 58.7227C10.0299 61.0339 9.76953 63.5078 9.76953 66.1445Z" fill="black"/>
</svg>
