<svg width="43" height="117" viewBox="0 0 43 117" fill="none" xmlns="http://www.w3.org/2000/svg">
<path d="M9.91797 18V93H0.884766V18H9.91797ZM7.76953 64.582L4.00977 64.4355C4.04232 60.8223 4.57943 57.4857 5.62109 54.4258C6.66276 51.3333 8.1276 48.6478 10.0156 46.3691C11.9036 44.0905 14.1497 42.3327 16.7539 41.0957C19.3906 39.8262 22.304 39.1914 25.4941 39.1914C28.0983 39.1914 30.4421 39.5495 32.5254 40.2656C34.6087 40.9492 36.3828 42.056 37.8477 43.5859C39.3451 45.1159 40.4844 47.1016 41.2656 49.543C42.0469 51.9518 42.4375 54.8978 42.4375 58.3809V93H33.3555V58.2832C33.3555 55.5163 32.9486 53.3027 32.1348 51.6426C31.321 49.9499 30.1328 48.7292 28.5703 47.9805C27.0078 47.1992 25.0872 46.8086 22.8086 46.8086C20.5625 46.8086 18.5117 47.2806 16.6562 48.2246C14.8333 49.1686 13.2546 50.4707 11.9199 52.1309C10.6178 53.791 9.59245 55.6953 8.84375 57.8438C8.1276 59.9596 7.76953 62.2057 7.76953 64.582Z" fill="black"/>
</svg>
