<svg width="22" height="117" viewBox="0 0 22 117" fill="none" xmlns="http://www.w3.org/2000/svg">
<path d="M11.1289 40.168H20.2109V99.2988C20.2109 102.521 19.6901 105.256 18.6484 107.502C17.6393 109.748 16.1094 111.441 14.0586 112.58C12.0404 113.752 9.48503 114.338 6.39258 114.338C5.57878 114.338 4.63477 114.257 3.56055 114.094C2.45378 113.931 1.52604 113.736 0.777344 113.508L0.826172 106.232C1.44466 106.363 2.14453 106.46 2.92578 106.525C3.70703 106.623 4.39062 106.672 4.97656 106.672C6.3112 106.672 7.43424 106.428 8.3457 105.939C9.25716 105.451 9.94076 104.67 10.3965 103.596C10.8848 102.521 11.1289 101.089 11.1289 99.2988V40.168ZM10.2012 26.1543C10.2012 24.6895 10.6569 23.4525 11.5684 22.4434C12.4798 21.4342 13.7982 20.9297 15.5234 20.9297C17.2812 20.9297 18.6159 21.4342 19.5273 22.4434C20.4388 23.4525 20.8945 24.6895 20.8945 26.1543C20.8945 27.554 20.4388 28.7585 19.5273 29.7676C18.6159 30.7441 17.2812 31.2324 15.5234 31.2324C13.7982 31.2324 12.4798 30.7441 11.5684 29.7676C10.6569 28.7585 10.2012 27.554 10.2012 26.1543Z" fill="black"/>
</svg>
