<svg width="60" height="117" viewBox="0 0 60 117" fill="none" xmlns="http://www.w3.org/2000/svg">
<path d="M42.0859 72.248V21.9062H51.4609V72.248C51.4609 76.9355 50.5007 80.8906 48.5801 84.1133C46.6595 87.3359 44.0065 89.7936 40.6211 91.4863C37.2682 93.1465 33.4108 93.9766 29.0488 93.9766C24.6868 93.9766 20.8132 93.2279 17.4277 91.7305C14.0423 90.2331 11.3893 87.9544 9.46875 84.8945C7.54818 81.8346 6.58789 77.9772 6.58789 73.3223H16.0117C16.0117 76.3171 16.5651 78.7747 17.6719 80.6953C18.7786 82.6159 20.3086 84.0319 22.2617 84.9434C24.2474 85.8548 26.5098 86.3105 29.0488 86.3105C31.5228 86.3105 33.7363 85.7897 35.6895 84.748C37.6751 83.6738 39.2376 82.0951 40.377 80.0117C41.5163 77.8958 42.0859 75.3079 42.0859 72.248Z" fill="black"/>
</svg>
