<svg width="76" height="117" viewBox="0 0 76 117" fill="none" xmlns="http://www.w3.org/2000/svg">
<path d="M9.86914 50.666V93H0.787109V40.168H9.38086L9.86914 50.666ZM8.01367 64.582L3.81445 64.4355C3.84701 60.8223 4.31901 57.4857 5.23047 54.4258C6.14193 51.3333 7.49284 48.6478 9.2832 46.3691C11.0736 44.0905 13.3034 42.3327 15.9727 41.0957C18.6419 39.8262 21.7344 39.1914 25.25 39.1914C27.724 39.1914 30.0026 39.5495 32.0859 40.2656C34.1693 40.9492 35.9759 42.0397 37.5059 43.5371C39.0358 45.0345 40.224 46.9551 41.0703 49.2988C41.9167 51.6426 42.3398 54.4746 42.3398 57.7949V93H33.3066V58.2344C33.3066 55.4674 32.8346 53.2539 31.8906 51.5938C30.9792 49.9336 29.6771 48.7292 27.9844 47.9805C26.2917 47.1992 24.306 46.8086 22.0273 46.8086C19.3581 46.8086 17.1283 47.2806 15.3379 48.2246C13.5475 49.1686 12.1152 50.4707 11.041 52.1309C9.9668 53.791 9.18555 55.6953 8.69727 57.8438C8.24154 59.9596 8.01367 62.2057 8.01367 64.582ZM42.2422 59.6016L36.1875 61.457C36.2201 58.5599 36.6921 55.7767 37.6035 53.1074C38.5475 50.4382 39.8984 48.0618 41.6562 45.9785C43.4466 43.8952 45.6439 42.2513 48.248 41.0469C50.8522 39.8099 53.8307 39.1914 57.1836 39.1914C60.0156 39.1914 62.5221 39.5658 64.7031 40.3145C66.9167 41.0632 68.7721 42.2188 70.2695 43.7812C71.7995 45.3112 72.9551 47.2806 73.7363 49.6895C74.5176 52.0983 74.9082 54.9629 74.9082 58.2832V93H65.8262V58.1855C65.8262 55.2233 65.3542 52.9284 64.4102 51.3008C63.4987 49.6406 62.1966 48.485 60.5039 47.834C58.8438 47.1504 56.8581 46.8086 54.5469 46.8086C52.5612 46.8086 50.8034 47.1504 49.2734 47.834C47.7435 48.5176 46.4577 49.4616 45.416 50.666C44.3743 51.8379 43.5768 53.1888 43.0234 54.7188C42.5026 56.2487 42.2422 57.8763 42.2422 59.6016Z" fill="black"/>
</svg>
