<svg width="70" height="117" viewBox="0 0 70 117" fill="none" xmlns="http://www.w3.org/2000/svg">
<path d="M62.9883 55.207V59.6992C62.9883 65.0378 62.321 69.8229 60.9863 74.0547C59.6517 78.2865 57.7311 81.8835 55.2246 84.8457C52.7181 87.8079 49.707 90.0703 46.1914 91.6328C42.7083 93.1953 38.8021 93.9766 34.4727 93.9766C30.2734 93.9766 26.416 93.1953 22.9004 91.6328C19.4173 90.0703 16.39 87.8079 13.8184 84.8457C11.2793 81.8835 9.3099 78.2865 7.91016 74.0547C6.51042 69.8229 5.81055 65.0378 5.81055 59.6992V55.207C5.81055 49.8685 6.49414 45.0996 7.86133 40.9004C9.26107 36.6686 11.2305 33.0716 13.7695 30.1094C16.3086 27.1146 19.3197 24.8359 22.8027 23.2734C26.3184 21.7109 30.1758 20.9297 34.375 20.9297C38.7044 20.9297 42.6107 21.7109 46.0938 23.2734C49.6094 24.8359 52.6204 27.1146 55.127 30.1094C57.666 33.0716 59.6029 36.6686 60.9375 40.9004C62.3047 45.0996 62.9883 49.8685 62.9883 55.207ZM53.6621 59.6992V55.1094C53.6621 50.8776 53.2227 47.1341 52.3438 43.8789C51.4974 40.6237 50.2441 37.8893 48.584 35.6758C46.9238 33.4622 44.8893 31.7858 42.4805 30.6465C40.1042 29.5072 37.4023 28.9375 34.375 28.9375C31.4453 28.9375 28.7923 29.5072 26.416 30.6465C24.0723 31.7858 22.054 33.4622 20.3613 35.6758C18.7012 37.8893 17.4154 40.6237 16.5039 43.8789C15.5924 47.1341 15.1367 50.8776 15.1367 55.1094V59.6992C15.1367 63.9635 15.5924 67.7396 16.5039 71.0273C17.4154 74.2826 18.7174 77.0332 20.4102 79.2793C22.1354 81.4928 24.1699 83.1693 26.5137 84.3086C28.89 85.4479 31.543 86.0176 34.4727 86.0176C37.5326 86.0176 40.2507 85.4479 42.627 84.3086C45.0033 83.1693 47.0052 81.4928 48.6328 79.2793C50.293 77.0332 51.5462 74.2826 52.3926 71.0273C53.2389 67.7396 53.6621 63.9635 53.6621 59.6992Z" fill="black"/>
</svg>
