<svg width="51" height="117" viewBox="0 0 51 117" fill="none" xmlns="http://www.w3.org/2000/svg">
<path d="M1.49219 67.1699V66.0469C1.49219 62.2383 2.04557 58.7064 3.15234 55.4512C4.25911 52.1634 5.85417 49.3151 7.9375 46.9062C10.0208 44.4648 12.5436 42.5768 15.5059 41.2422C18.4681 39.875 21.7884 39.1914 25.4668 39.1914C29.1777 39.1914 32.5143 39.875 35.4766 41.2422C38.4714 42.5768 41.0104 44.4648 43.0938 46.9062C45.2096 49.3151 46.821 52.1634 47.9277 55.4512C49.0345 58.7064 49.5879 62.2383 49.5879 66.0469V67.1699C49.5879 70.9785 49.0345 74.5104 47.9277 77.7656C46.821 81.0208 45.2096 83.8691 43.0938 86.3105C41.0104 88.7194 38.4876 90.6074 35.5254 91.9746C32.5957 93.3092 29.2754 93.9766 25.5645 93.9766C21.8535 93.9766 18.5169 93.3092 15.5547 91.9746C12.5924 90.6074 10.0534 88.7194 7.9375 86.3105C5.85417 83.8691 4.25911 81.0208 3.15234 77.7656C2.04557 74.5104 1.49219 70.9785 1.49219 67.1699ZM10.5254 66.0469V67.1699C10.5254 69.8066 10.8346 72.2969 11.4531 74.6406C12.0716 76.9518 12.9993 79.0026 14.2363 80.793C15.5059 82.5833 17.0846 83.9993 18.9727 85.041C20.8607 86.0501 23.0579 86.5547 25.5645 86.5547C28.0384 86.5547 30.2031 86.0501 32.0586 85.041C33.9466 83.9993 35.5091 82.5833 36.7461 80.793C37.9831 79.0026 38.9108 76.9518 39.5293 74.6406C40.1803 72.2969 40.5059 69.8066 40.5059 67.1699V66.0469C40.5059 63.4427 40.1803 60.985 39.5293 58.6738C38.9108 56.3301 37.9668 54.263 36.6973 52.4727C35.4603 50.6497 33.8978 49.2174 32.0098 48.1758C30.1543 47.1341 27.9733 46.6133 25.4668 46.6133C22.9928 46.6133 20.8118 47.1341 18.9238 48.1758C17.0684 49.2174 15.5059 50.6497 14.2363 52.4727C12.9993 54.263 12.0716 56.3301 11.4531 58.6738C10.8346 60.985 10.5254 63.4427 10.5254 66.0469Z" fill="black"/>
</svg>
