<svg width="49" height="117" viewBox="0 0 49 117" fill="none" xmlns="http://www.w3.org/2000/svg">
<path d="M12.918 50.3242V113.312H3.83594V40.168H12.1367L12.918 50.3242ZM48.5137 66.1445V67.1699C48.5137 71.0111 48.0579 74.5755 47.1465 77.8633C46.235 81.1185 44.9004 83.9505 43.1426 86.3594C41.4173 88.7682 39.2852 90.64 36.7461 91.9746C34.207 93.3092 31.2936 93.9766 28.0059 93.9766C24.653 93.9766 21.6908 93.4232 19.1191 92.3164C16.5475 91.2096 14.3665 89.5983 12.5762 87.4824C10.7858 85.3665 9.35352 82.8275 8.2793 79.8652C7.23763 76.903 6.52148 73.5664 6.13086 69.8555V64.3867C6.52148 60.4805 7.25391 56.9811 8.32812 53.8887C9.40234 50.7962 10.8184 48.1595 12.5762 45.9785C14.3665 43.765 16.5312 42.0885 19.0703 40.9492C21.6094 39.7773 24.5391 39.1914 27.8594 39.1914C31.1797 39.1914 34.1257 39.8424 36.6973 41.1445C39.2689 42.4141 41.4336 44.237 43.1914 46.6133C44.9492 48.9896 46.2676 51.8379 47.1465 55.1582C48.0579 58.446 48.5137 62.1081 48.5137 66.1445ZM39.4316 67.1699V66.1445C39.4316 63.5078 39.1549 61.0339 38.6016 58.7227C38.0482 56.3789 37.1855 54.3281 36.0137 52.5703C34.8743 50.7799 33.4095 49.3802 31.6191 48.3711C29.8288 47.3294 27.6966 46.8086 25.2227 46.8086C22.944 46.8086 20.9583 47.1992 19.2656 47.9805C17.6055 48.7617 16.1895 49.8197 15.0176 51.1543C13.8457 52.4564 12.8854 53.9538 12.1367 55.6465C11.4206 57.3066 10.8835 59.0319 10.5254 60.8223V73.4688C11.1764 75.7474 12.0879 77.8958 13.2598 79.9141C14.4316 81.8997 15.9941 83.5111 17.9473 84.748C19.9004 85.9525 22.3581 86.5547 25.3203 86.5547C27.7617 86.5547 29.8613 86.0501 31.6191 85.041C33.4095 83.9993 34.8743 82.5833 36.0137 80.793C37.1855 79.0026 38.0482 76.9518 38.6016 74.6406C39.1549 72.2969 39.4316 69.8066 39.4316 67.1699Z" fill="black"/>
</svg>
