<svg width="72" height="117" viewBox="0 0 72 117" fill="none" xmlns="http://www.w3.org/2000/svg">
<path d="M34.4727 65.1191H15.4785V57.4531H34.4727C38.151 57.4531 41.1296 56.8672 43.4082 55.6953C45.6868 54.5234 47.347 52.8958 48.3887 50.8125C49.4629 48.7292 50 46.3529 50 43.6836C50 41.2422 49.4629 38.9473 48.3887 36.7988C47.347 34.6504 45.6868 32.9251 43.4082 31.623C41.1296 30.2884 38.151 29.6211 34.4727 29.6211H17.6758V93H8.25195V21.9062H34.4727C39.8438 21.9062 44.3848 22.834 48.0957 24.6895C51.8066 26.5449 54.6224 29.1165 56.543 32.4043C58.4635 35.6595 59.4238 39.3867 59.4238 43.5859C59.4238 48.1432 58.4635 52.0332 56.543 55.2559C54.6224 58.4785 51.8066 60.9362 48.0957 62.6289C44.3848 64.2891 39.8438 65.1191 34.4727 65.1191Z" fill="black"/>
</svg>
