<svg width="72" height="117" viewBox="0 0 72 117" fill="none" xmlns="http://www.w3.org/2000/svg">
<path d="M44.7266 84.8457L62.793 99.1523L56.4453 105.012L38.6719 90.9004L44.7266 84.8457ZM62.5488 55.207V59.6992C62.5488 65.0378 61.8815 69.8229 60.5469 74.0547C59.2122 78.2865 57.2917 81.8835 54.7852 84.8457C52.2786 87.8079 49.2676 90.0703 45.752 91.6328C42.2689 93.1953 38.3626 93.9766 34.0332 93.9766C29.834 93.9766 25.9766 93.1953 22.4609 91.6328C18.9779 90.0703 15.9505 87.8079 13.3789 84.8457C10.8398 81.8835 8.87044 78.2865 7.4707 74.0547C6.07096 69.8229 5.37109 65.0378 5.37109 59.6992V55.207C5.37109 49.8685 6.05469 45.0996 7.42188 40.9004C8.82161 36.6686 10.791 33.0716 13.3301 30.1094C15.8691 27.1146 18.8802 24.8359 22.3633 23.2734C25.8789 21.7109 29.7363 20.9297 33.9355 20.9297C38.265 20.9297 42.1875 21.7109 45.7031 23.2734C49.2188 24.8359 52.2298 27.1146 54.7363 30.1094C57.2428 33.0716 59.1634 36.6686 60.498 40.9004C61.8652 45.0996 62.5488 49.8685 62.5488 55.207ZM53.2227 59.6992V55.1094C53.2227 50.8776 52.7832 47.1341 51.9043 43.8789C51.0579 40.6237 49.8047 37.8893 48.1445 35.6758C46.4844 33.4622 44.4661 31.7858 42.0898 30.6465C39.7135 29.5072 36.9954 28.9375 33.9355 28.9375C31.0384 28.9375 28.4017 29.5072 26.0254 30.6465C23.6816 31.7858 21.6634 33.4622 19.9707 35.6758C18.278 37.8893 16.9759 40.6237 16.0645 43.8789C15.153 47.1341 14.6973 50.8776 14.6973 55.1094V59.6992C14.6973 63.9635 15.153 67.7396 16.0645 71.0273C16.9759 74.2826 18.278 77.0332 19.9707 79.2793C21.696 81.4928 23.7467 83.1693 26.123 84.3086C28.4993 85.4479 31.1361 86.0176 34.0332 86.0176C37.0931 86.0176 39.8112 85.4479 42.1875 84.3086C44.5638 83.1693 46.5658 81.4928 48.1934 79.2793C49.8535 77.0332 51.1068 74.2826 51.9531 71.0273C52.7995 67.7396 53.2227 63.9635 53.2227 59.6992Z" fill="black"/>
</svg>
