<svg width="48" height="117" viewBox="0 0 48 117" fill="none" xmlns="http://www.w3.org/2000/svg">
<path d="M37.1367 113.312V50.3242L37.918 40.168H46.2188V113.312H37.1367ZM1.63867 67.1699V66.1445C1.63867 62.1081 2.11068 58.446 3.05469 55.1582C3.9987 51.8379 5.38216 48.9896 7.20508 46.6133C9.02799 44.237 11.2253 42.4141 13.7969 41.1445C16.401 39.8424 19.3633 39.1914 22.6836 39.1914C26.0039 39.1914 28.9173 39.7773 31.4238 40.9492C33.9629 42.0885 36.1113 43.765 37.8691 45.9785C39.6595 48.1595 41.0755 50.7962 42.1172 53.8887C43.1589 56.9811 43.875 60.4805 44.2656 64.3867V68.8789C43.9076 72.7526 43.2077 76.2357 42.166 79.3281C41.1243 82.4206 39.7083 85.0573 37.918 87.2383C36.1602 89.4193 33.9954 91.0957 31.4238 92.2676C28.8848 93.4069 25.9388 93.9766 22.5859 93.9766C19.3307 93.9766 16.401 93.3092 13.7969 91.9746C11.2253 90.64 9.02799 88.7682 7.20508 86.3594C5.41471 83.9505 4.03125 81.1185 3.05469 77.8633C2.11068 74.5755 1.63867 71.0111 1.63867 67.1699ZM10.7207 66.1445V67.1699C10.7207 69.8066 10.9974 72.2969 11.5508 74.6406C12.1042 76.9518 12.9505 79.0026 14.0898 80.793C15.2617 82.5833 16.7266 83.9993 18.4844 85.041C20.2747 86.0501 22.3906 86.5547 24.832 86.5547C27.8268 86.5547 30.3171 85.9036 32.3027 84.6016C34.321 83.2995 35.9323 81.5905 37.1367 79.4746C38.3411 77.3262 39.2689 75.0312 39.9199 72.5898V60.8223C39.5618 59.0319 38.9922 57.2904 38.2109 55.5977C37.4622 53.9049 36.4857 52.3913 35.2812 51.0566C34.0768 49.6895 32.612 48.6152 30.8867 47.834C29.194 47.0202 27.2083 46.6133 24.9297 46.6133C22.4557 46.6133 20.3236 47.1341 18.5332 48.1758C16.7428 49.2174 15.2617 50.6497 14.0898 52.4727C12.9505 54.263 12.1042 56.3301 11.5508 58.6738C10.9974 61.0176 10.7207 63.5078 10.7207 66.1445Z" fill="black"/>
</svg>
