<svg width="29" height="117" viewBox="0 0 29 117" fill="none" xmlns="http://www.w3.org/2000/svg">
<path d="M10.918 48.4688V93H1.88477V40.168H10.6738L10.918 48.4688ZM27.4219 39.875L27.373 48.2734C26.6243 48.1107 25.9082 48.013 25.2246 47.9805C24.5736 47.9154 23.8249 47.8828 22.9785 47.8828C20.8952 47.8828 19.056 48.2083 17.4609 48.8594C15.8659 49.5104 14.515 50.4219 13.4082 51.5938C12.3014 52.7656 11.4225 54.1654 10.7715 55.793C10.153 57.388 9.74609 59.1458 9.55078 61.0664L7.01172 62.5312C7.01172 59.3411 7.32096 56.3464 7.93945 53.5469C8.59049 50.7474 9.58333 48.2734 10.918 46.125C12.2526 43.944 13.9453 42.2513 15.9961 41.0469C18.0794 39.8099 20.5534 39.1914 23.418 39.1914C24.069 39.1914 24.8177 39.2728 25.6641 39.4355C26.5104 39.5658 27.0964 39.7122 27.4219 39.875Z" fill="black"/>
</svg>
