<svg width="65" height="117" viewBox="0 0 65 117" fill="none" xmlns="http://www.w3.org/2000/svg">
<path d="M10.252 21.9062H33.7871C39.1257 21.9062 43.6341 22.7201 47.3125 24.3477C51.0234 25.9753 53.8392 28.3841 55.7598 31.5742C57.7129 34.7318 58.6895 38.6217 58.6895 43.2441C58.6895 46.4993 58.0221 49.4779 56.6875 52.1797C55.3854 54.849 53.4974 57.1276 51.0234 59.0156C48.582 60.8711 45.6523 62.2546 42.2344 63.166L39.5977 64.1914H17.4785L17.3809 56.5254H34.0801C37.4655 56.5254 40.2812 55.9395 42.5273 54.7676C44.7734 53.5632 46.4661 51.9518 47.6055 49.9336C48.7448 47.9154 49.3145 45.6855 49.3145 43.2441C49.3145 40.5098 48.7773 38.1172 47.7031 36.0664C46.6289 34.0156 44.9362 32.4368 42.625 31.3301C40.3464 30.1908 37.4004 29.6211 33.7871 29.6211H19.6758V93H10.252V21.9062ZM51.8047 93L34.5195 60.7734L44.334 60.7246L61.8633 92.4141V93H51.8047Z" fill="black"/>
</svg>
