<svg width="44" height="117" viewBox="0 0 44 117" fill="none" xmlns="http://www.w3.org/2000/svg">
<path d="M33.6465 78.9863C33.6465 77.6842 33.3535 76.4798 32.7676 75.373C32.2142 74.2337 31.0586 73.2083 29.3008 72.2969C27.5755 71.3529 24.9714 70.5391 21.4883 69.8555C18.5586 69.237 15.9056 68.5046 13.5293 67.6582C11.1855 66.8118 9.18359 65.7865 7.52344 64.582C5.89583 63.3776 4.64258 61.9616 3.76367 60.334C2.88477 58.7064 2.44531 56.8021 2.44531 54.6211C2.44531 52.5378 2.90104 50.5684 3.8125 48.7129C4.75651 46.8574 6.07487 45.2135 7.76758 43.7812C9.49284 42.349 11.5599 41.2259 13.9688 40.4121C16.3776 39.5983 19.0632 39.1914 22.0254 39.1914C26.2572 39.1914 29.8704 39.9401 32.8652 41.4375C35.86 42.9349 38.1549 44.9368 39.75 47.4434C41.3451 49.9173 42.1426 52.668 42.1426 55.6953H33.1094C33.1094 54.2305 32.6699 52.8145 31.791 51.4473C30.9447 50.0475 29.6914 48.8919 28.0312 47.9805C26.4036 47.069 24.4017 46.6133 22.0254 46.6133C19.5189 46.6133 17.4844 47.0039 15.9219 47.7852C14.3919 48.5339 13.2689 49.4941 12.5527 50.666C11.8691 51.8379 11.5273 53.0749 11.5273 54.377C11.5273 55.3535 11.6901 56.2324 12.0156 57.0137C12.3737 57.7624 12.9922 58.4622 13.8711 59.1133C14.75 59.7318 15.987 60.3177 17.582 60.8711C19.1771 61.4245 21.2116 61.9779 23.6855 62.5312C28.015 63.5078 31.5794 64.6797 34.3789 66.0469C37.1784 67.4141 39.2617 69.0905 40.6289 71.0762C41.9961 73.0618 42.6797 75.4707 42.6797 78.3027C42.6797 80.6139 42.1914 82.7298 41.2148 84.6504C40.2708 86.571 38.8874 88.2311 37.0645 89.6309C35.2741 90.998 33.1257 92.0723 30.6191 92.8535C28.1452 93.6022 25.362 93.9766 22.2695 93.9766C17.6146 93.9766 13.6758 93.1465 10.4531 91.4863C7.23047 89.8262 4.78906 87.6777 3.12891 85.041C1.46875 82.4043 0.638672 79.6211 0.638672 76.6914H9.7207C9.85091 79.1654 10.5671 81.1348 11.8691 82.5996C13.1712 84.0319 14.7663 85.0573 16.6543 85.6758C18.5423 86.2617 20.4141 86.5547 22.2695 86.5547C24.7435 86.5547 26.8105 86.2292 28.4707 85.5781C30.1634 84.9271 31.4492 84.0319 32.3281 82.8926C33.207 81.7533 33.6465 80.4512 33.6465 78.9863Z" fill="black"/>
</svg>
