<svg width="59" height="117" viewBox="0 0 59 117" fill="none" xmlns="http://www.w3.org/2000/svg">
<path d="M46.1426 75.0312C46.1426 73.3711 45.8822 71.9062 45.3613 70.6367C44.873 69.3346 43.9941 68.1628 42.7246 67.1211C41.4876 66.0794 39.7624 65.0866 37.5488 64.1426C35.3678 63.1986 32.6009 62.2383 29.248 61.2617C25.7324 60.2201 22.5586 59.0645 19.7266 57.7949C16.8945 56.4928 14.4694 55.0117 12.4512 53.3516C10.4329 51.6914 8.88672 49.7871 7.8125 47.6387C6.73828 45.4902 6.20117 43.0326 6.20117 40.2656C6.20117 37.4987 6.77083 34.9434 7.91016 32.5996C9.04948 30.2559 10.6771 28.2214 12.793 26.4961C14.9414 24.7383 17.4967 23.3711 20.459 22.3945C23.4212 21.418 26.7253 20.9297 30.3711 20.9297C35.7096 20.9297 40.2344 21.9551 43.9453 24.0059C47.6888 26.0241 50.5371 28.6771 52.4902 31.9648C54.4434 35.2201 55.4199 38.7031 55.4199 42.4141H46.0449C46.0449 39.7448 45.4753 37.3848 44.3359 35.334C43.1966 33.2507 41.4714 31.623 39.1602 30.4512C36.849 29.2467 33.9193 28.6445 30.3711 28.6445C27.0182 28.6445 24.2513 29.1491 22.0703 30.1582C19.8893 31.1673 18.2617 32.5345 17.1875 34.2598C16.1458 35.985 15.625 37.9544 15.625 40.168C15.625 41.6654 15.9342 43.0326 16.5527 44.2695C17.2038 45.474 18.1966 46.597 19.5312 47.6387C20.8984 48.6803 22.6237 49.6406 24.707 50.5195C26.8229 51.3984 29.3457 52.2448 32.2754 53.0586C36.3118 54.1979 39.7949 55.4674 42.7246 56.8672C45.6543 58.2669 48.0632 59.8457 49.9512 61.6035C51.8717 63.3288 53.2878 65.2982 54.1992 67.5117C55.1432 69.6927 55.6152 72.1667 55.6152 74.9336C55.6152 77.8307 55.0293 80.4512 53.8574 82.7949C52.6855 85.1387 51.0091 87.1406 48.8281 88.8008C46.6471 90.4609 44.0267 91.7467 40.9668 92.6582C37.9395 93.5371 34.554 93.9766 30.8105 93.9766C27.5228 93.9766 24.2839 93.5208 21.0938 92.6094C17.9362 91.6979 15.0553 90.3307 12.4512 88.5078C9.87956 86.6849 7.8125 84.4388 6.25 81.7695C4.72005 79.0677 3.95508 75.9427 3.95508 72.3945H13.3301C13.3301 74.8359 13.8021 76.9355 14.7461 78.6934C15.6901 80.4186 16.9759 81.8509 18.6035 82.9902C20.2637 84.1296 22.1354 84.9759 24.2188 85.5293C26.3346 86.0501 28.5319 86.3105 30.8105 86.3105C34.0983 86.3105 36.8815 85.8548 39.1602 84.9434C41.4388 84.0319 43.1641 82.7298 44.3359 81.0371C45.5404 79.3444 46.1426 77.3424 46.1426 75.0312Z" fill="black"/>
</svg>
