<svg width="30" height="117" viewBox="0 0 30 117" fill="none" xmlns="http://www.w3.org/2000/svg">
<path d="M29.0039 40.168V47.1016H0.439453V40.168H29.0039ZM10.1074 27.3262H19.1406V79.9141C19.1406 81.7044 19.4173 83.0553 19.9707 83.9668C20.5241 84.8783 21.2402 85.4805 22.1191 85.7734C22.998 86.0664 23.9421 86.2129 24.9512 86.2129C25.6999 86.2129 26.4811 86.1478 27.2949 86.0176C28.1413 85.8548 28.776 85.7246 29.1992 85.627L29.248 93C28.5319 93.2279 27.5879 93.4395 26.416 93.6348C25.2767 93.8626 23.8932 93.9766 22.2656 93.9766C20.0521 93.9766 18.0176 93.5371 16.1621 92.6582C14.3066 91.7793 12.8255 90.3145 11.7188 88.2637C10.6445 86.1803 10.1074 83.3809 10.1074 79.8652V27.3262Z" fill="black"/>
</svg>
