<svg width="65" height="117" viewBox="0 0 65 117" fill="none" xmlns="http://www.w3.org/2000/svg">
<path d="M48.9258 21.9062H58.3008V70.002C58.3008 75.3405 57.1126 79.7839 54.7363 83.332C52.36 86.8802 49.2025 89.5495 45.2637 91.3398C41.3574 93.0977 37.1094 93.9766 32.5195 93.9766C27.7018 93.9766 23.3398 93.0977 19.4336 91.3398C15.5599 89.5495 12.4837 86.8802 10.2051 83.332C7.95898 79.7839 6.83594 75.3405 6.83594 70.002V21.9062H16.1621V70.002C16.1621 73.7129 16.8457 76.7728 18.2129 79.1816C19.5801 81.5905 21.4844 83.3809 23.9258 84.5527C26.3997 85.7246 29.2643 86.3105 32.5195 86.3105C35.8073 86.3105 38.6719 85.7246 41.1133 84.5527C43.5872 83.3809 45.5078 81.5905 46.875 79.1816C48.2422 76.7728 48.9258 73.7129 48.9258 70.002V21.9062Z" fill="black"/>
</svg>
