<svg width="44" height="117" viewBox="0 0 44 117" fill="none" xmlns="http://www.w3.org/2000/svg">
<path d="M33.209 80.793V40.168H42.291V93H33.6484L33.209 80.793ZM34.918 69.6602L38.6777 69.5625C38.6777 73.0781 38.3034 76.3333 37.5547 79.3281C36.8385 82.2904 35.6667 84.862 34.0391 87.043C32.4115 89.224 30.2793 90.9329 27.6426 92.1699C25.0059 93.3743 21.7995 93.9766 18.0234 93.9766C15.4518 93.9766 13.0918 93.6022 10.9434 92.8535C8.82747 92.1048 7.00456 90.9492 5.47461 89.3867C3.94466 87.8242 2.75651 85.7897 1.91016 83.2832C1.09635 80.7767 0.689453 77.7656 0.689453 74.25V40.168H9.72266V74.3477C9.72266 76.724 9.98307 78.6934 10.5039 80.2559C11.0573 81.7858 11.7897 83.0065 12.7012 83.918C13.6452 84.7969 14.6868 85.4154 15.8262 85.7734C16.998 86.1315 18.2025 86.3105 19.4395 86.3105C23.2806 86.3105 26.3242 85.5781 28.5703 84.1133C30.8164 82.6159 32.4277 80.6139 33.4043 78.1074C34.4134 75.5684 34.918 72.7526 34.918 69.6602Z" fill="black"/>
</svg>
