<svg width="47" height="117" viewBox="0 0 47 117" fill="none" xmlns="http://www.w3.org/2000/svg">
<path d="M21.7285 87.5312L36.4258 40.168H46.0938L24.9023 101.154C24.4141 102.456 23.763 103.856 22.9492 105.354C22.168 106.883 21.1589 108.332 19.9219 109.699C18.6849 111.066 17.1875 112.173 15.4297 113.02C13.7044 113.898 11.6374 114.338 9.22852 114.338C8.51237 114.338 7.60091 114.24 6.49414 114.045C5.38737 113.85 4.60612 113.687 4.15039 113.557L4.10156 106.232C4.36198 106.265 4.76888 106.298 5.32227 106.33C5.9082 106.395 6.3151 106.428 6.54297 106.428C8.59375 106.428 10.3353 106.151 11.7676 105.598C13.1999 105.077 14.4043 104.182 15.3809 102.912C16.39 101.675 17.2526 99.9661 17.9688 97.7852L21.7285 87.5312ZM10.9375 40.168L24.6582 81.1836L27.002 90.7051L20.5078 94.0254L1.07422 40.168H10.9375Z" fill="black"/>
</svg>
