<svg width="70" height="105" viewBox="0 0 70 105" fill="none" xmlns="http://www.w3.org/2000/svg">
<path d="M9.81289 33C14.1462 31.4667 18.3129 30.5 22.3129 30.1C26.3129 29.6333 29.8129 29.4 32.8129 29.4C37.8796 29.4 42.0796 29.9667 45.4129 31.1C48.8129 32.2333 51.5129 33.8 53.5129 35.8C55.5129 37.8 56.9129 40.1667 57.7129 42.9C58.5129 45.5667 58.9129 48.4333 58.9129 51.5V62.4C58.9129 63.1333 59.0796 63.7333 59.4129 64.2C59.8129 64.6667 60.3796 64.9 61.1129 64.9C61.9129 64.9 62.5796 64.7667 63.1129 64.5C63.7129 64.2333 64.3796 63.9333 65.1129 63.6L68.2129 75.7C66.0796 77.2333 63.5462 78.5333 60.6129 79.6C57.6796 80.6667 54.8129 81.2 52.0129 81.2C50.2129 81.2 48.6796 81.0667 47.4129 80.8C46.2129 80.6 45.1796 80.2667 44.3129 79.8C43.4462 79.3333 42.7129 78.7667 42.1129 78.1C41.5129 77.3667 41.0129 76.5667 40.6129 75.7C38.5462 77.7 36.1462 79.1667 33.4129 80.1C30.6796 81.0333 27.5796 81.5 24.1129 81.5C20.7129 81.5 17.8462 81.0667 15.5129 80.2C13.2462 79.3333 11.4129 78.1667 10.0129 76.7C8.61289 75.1667 7.57956 73.4 6.91289 71.4C6.31289 69.4 6.01289 67.3 6.01289 65.1C6.01289 60.3 7.57956 56.4667 10.7129 53.6C13.8462 50.7333 18.3462 49.3 24.2129 49.3C27.0796 49.3 29.4796 49.5667 31.4129 50.1C33.4129 50.6333 35.0796 51.3333 36.4129 52.2V51.2C36.4129 50.4667 36.2796 49.7333 36.0129 49C35.8129 48.2667 35.3796 47.6 34.7129 47C34.0462 46.4 33.0796 45.9333 31.8129 45.6C30.6129 45.2 29.0462 45 27.1129 45C25.1796 45 23.0462 45.1333 20.7129 45.4C18.4462 45.6667 16.1129 46.1667 13.7129 46.9L9.81289 33ZM27.6129 64.8C27.6129 66 28.0129 66.9333 28.8129 67.6C29.6796 68.2 30.7462 68.5 32.0129 68.5C33.3462 68.5 34.4462 68.2 35.3129 67.6C36.1796 66.9333 36.6129 66 36.6129 64.8C36.6129 63.5333 36.1796 62.6 35.3129 62C34.4462 61.4 33.3462 61.1 32.0129 61.1C30.6796 61.1 29.6129 61.4 28.8129 62C28.0129 62.6 27.6129 63.5333 27.6129 64.8Z" fill="black"/>
<path d="M9.81289 33L9.31252 31.5859L7.98955 32.054L8.36866 33.4052L9.81289 33ZM22.3129 30.1L22.4621 31.5926L22.4744 31.5913L22.4867 31.5899L22.3129 30.1ZM45.4129 31.1L44.93 32.5202L44.9386 32.523L45.4129 31.1ZM53.5129 35.8L52.4522 36.8607L52.4522 36.8607L53.5129 35.8ZM57.7129 42.9L56.2733 43.3214L56.2762 43.331L57.7129 42.9ZM59.4129 64.2L58.1923 65.0719L58.2308 65.1258L58.274 65.1762L59.4129 64.2ZM63.1129 64.5L62.5037 63.1293L62.4726 63.1431L62.4421 63.1584L63.1129 64.5ZM65.1129 63.6L66.566 63.2277L66.1217 61.4938L64.4922 62.2345L65.1129 63.6ZM68.2129 75.7L69.0883 76.918L69.9202 76.3201L69.666 75.3277L68.2129 75.7ZM60.6129 79.6L60.1003 78.1903L60.1003 78.1903L60.6129 79.6ZM47.4129 80.8L47.7219 79.3322L47.6908 79.3256L47.6595 79.3204L47.4129 80.8ZM44.3129 79.8L43.6017 81.1207L43.6017 81.1207L44.3129 79.8ZM42.1129 78.1L40.952 79.0499L40.9743 79.0772L40.998 79.1034L42.1129 78.1ZM40.6129 75.7L41.9748 75.0714L41.0889 73.1519L39.5698 74.6221L40.6129 75.7ZM33.4129 80.1L32.9282 78.6805L33.4129 80.1ZM15.5129 80.2L14.9772 81.6011L14.9839 81.6036L14.9906 81.6061L15.5129 80.2ZM10.0129 76.7L8.90516 77.7114L8.91638 77.7237L8.92786 77.7357L10.0129 76.7ZM6.91289 71.4L5.47615 71.831L5.48268 71.8528L5.48987 71.8743L6.91289 71.4ZM10.7129 53.6L11.7254 54.7067L11.7254 54.7067L10.7129 53.6ZM31.4129 50.1L31.014 51.546L31.0264 51.5493L31.4129 50.1ZM36.4129 52.2L35.5954 53.4577L37.9129 54.964V52.2H36.4129ZM36.0129 49L34.5657 49.3947L34.582 49.4544L34.6032 49.5126L36.0129 49ZM34.7129 47L35.7163 45.8851L35.7163 45.8851L34.7129 47ZM31.8129 45.6L31.3385 47.023L31.3844 47.0383L31.4312 47.0506L31.8129 45.6ZM20.7129 45.4L20.5426 43.9097L20.5376 43.9103L20.7129 45.4ZM13.7129 46.9L12.2687 47.3052L12.6833 48.7831L14.1512 48.3345L13.7129 46.9ZM28.8129 67.6L27.8526 68.7523L27.904 68.7952L27.9591 68.8333L28.8129 67.6ZM35.3129 67.6L36.1667 68.8333L36.1976 68.8119L36.2275 68.7889L35.3129 67.6ZM35.3129 62L34.4591 63.2333L34.4591 63.2333L35.3129 62ZM28.8129 62L27.9129 60.8L28.8129 62ZM10.3133 34.4141C14.549 32.9153 18.5976 31.979 22.4621 31.5926L22.1636 28.6074C18.0282 29.021 13.7435 30.018 9.31252 31.5859L10.3133 34.4141ZM22.4867 31.5899C26.4472 31.1278 29.8868 30.9 32.8129 30.9V27.9C29.739 27.9 26.1786 28.1388 22.1391 28.6101L22.4867 31.5899ZM32.8129 30.9C37.7811 30.9 41.8042 31.4574 44.93 32.5202L45.8957 29.6798C42.355 28.476 37.9781 27.9 32.8129 27.9V30.9ZM44.9386 32.523C48.175 33.6018 50.6549 35.0633 52.4522 36.8607L54.5736 34.7393C52.3709 32.5367 49.4508 30.8648 45.8872 29.677L44.9386 32.523ZM52.4522 36.8607C54.273 38.6814 55.5435 40.8278 56.2733 43.3213L59.1525 42.4787C58.2823 39.5055 56.7528 36.9186 54.5736 34.7393L52.4522 36.8607ZM56.2762 43.331C57.0302 45.8445 57.4129 48.5646 57.4129 51.5H60.4129C60.4129 48.302 59.9956 45.2889 59.1496 42.469L56.2762 43.331ZM57.4129 51.5V62.4H60.4129V51.5H57.4129ZM57.4129 62.4C57.4129 63.3587 57.6324 64.2879 58.1923 65.0719L60.6335 63.3281C60.5268 63.1787 60.4129 62.908 60.4129 62.4H57.4129ZM58.274 65.1762C59.0144 66.04 60.0347 66.4 61.1129 66.4V63.4C60.7244 63.4 60.6114 63.2933 60.5518 63.2238L58.274 65.1762ZM61.1129 66.4C62.0699 66.4 62.9834 66.2418 63.7837 65.8416L62.4421 63.1584C62.1757 63.2916 61.7559 63.4 61.1129 63.4V66.4ZM63.7221 65.8707C64.3267 65.602 64.9973 65.3002 65.7336 64.9655L64.4922 62.2345C63.7619 62.5664 63.0991 62.8647 62.5037 63.1293L63.7221 65.8707ZM63.6598 63.9723L66.7598 76.0723L69.666 75.3277L66.566 63.2277L63.6598 63.9723ZM67.3374 74.482C65.3343 75.9217 62.9279 77.1621 60.1003 78.1903L61.1255 81.0097C64.1645 79.9046 66.8248 78.5449 69.0883 76.918L67.3374 74.482ZM60.1003 78.1903C57.3125 79.204 54.6192 79.7 52.0129 79.7V82.7C55.0066 82.7 58.0466 82.1293 61.1255 81.0097L60.1003 78.1903ZM52.0129 79.7C50.2797 79.7 48.8562 79.571 47.7219 79.3322L47.1039 82.2678C48.5029 82.5624 50.146 82.7 52.0129 82.7V79.7ZM47.6595 79.3204C46.5852 79.1414 45.716 78.8519 45.024 78.4793L43.6017 81.1207C44.6431 81.6814 45.8406 82.0586 47.1663 82.2796L47.6595 79.3204ZM45.024 78.4793C44.2944 78.0864 43.7018 77.6231 43.2278 77.0966L40.998 79.1034C41.724 79.9102 42.598 80.5802 43.6017 81.1207L45.024 78.4793ZM43.2738 77.1501C42.7547 76.5157 42.3221 75.8238 41.9748 75.0714L39.251 76.3286C39.7037 77.3096 40.271 78.2176 40.952 79.0499L43.2738 77.1501ZM39.5698 74.6221C37.6625 76.4678 35.4534 77.8182 32.9282 78.6805L33.8976 81.5195C36.839 80.5151 39.4299 78.9322 41.656 76.7779L39.5698 74.6221ZM32.9282 78.6805C30.3786 79.5511 27.4467 80 24.1129 80V83C27.7124 83 30.9806 82.5156 33.8976 81.5195L32.9282 78.6805ZM24.1129 80C20.8303 80 18.1525 79.5803 16.0352 78.7939L14.9906 81.6061C17.5399 82.553 20.5954 83 24.1129 83V80ZM16.0486 78.7989C13.9495 77.9963 12.3169 76.9413 11.0979 75.6643L8.92786 77.7357C10.5089 79.392 12.543 80.6703 14.9772 81.6011L16.0486 78.7989ZM11.1206 75.6886C9.86435 74.3127 8.93726 72.7297 8.33592 70.9257L5.48987 71.8743C6.22185 74.0703 7.36143 76.0206 8.90516 77.7114L11.1206 75.6886ZM8.34963 70.969C7.79378 69.1161 7.51289 67.1619 7.51289 65.1H4.51289C4.51289 67.4381 4.83201 69.6839 5.47615 71.831L8.34963 70.969ZM7.51289 65.1C7.51289 60.6603 8.94475 57.2507 11.7254 54.7067L9.70037 52.4933C6.21436 55.6826 4.51289 59.9397 4.51289 65.1H7.51289ZM11.7254 54.7067C14.4918 52.1758 18.5771 50.8 24.2129 50.8V47.8C18.1153 47.8 13.2007 49.2909 9.70037 52.4933L11.7254 54.7067ZM24.2129 50.8C26.9973 50.8 29.253 51.0602 31.014 51.546L31.8118 48.654C29.7061 48.0731 27.1618 47.8 24.2129 47.8V50.8ZM31.0264 51.5493C32.917 52.0535 34.4278 52.6987 35.5954 53.4577L37.2304 50.9423C35.7313 49.9679 33.9088 49.2131 31.7994 48.6506L31.0264 51.5493ZM37.9129 52.2V51.2H34.9129V52.2H37.9129ZM37.9129 51.2C37.9129 50.2809 37.7451 49.3744 37.4226 48.4874L34.6032 49.5126C34.814 50.0922 34.9129 50.6524 34.9129 51.2H37.9129ZM37.46 48.6053C37.1716 47.5475 36.5578 46.6424 35.7163 45.8851L33.7094 48.1149C34.2013 48.5576 34.4542 48.9858 34.5657 49.3947L37.46 48.6053ZM35.7163 45.8851C34.8093 45.0687 33.5937 44.5176 32.1946 44.1494L31.4312 47.0506C32.5654 47.3491 33.2831 47.7313 33.7094 48.1149L35.7163 45.8851ZM32.2872 44.177C30.8759 43.7065 29.1316 43.5 27.1129 43.5V46.5C28.9609 46.5 30.3498 46.6935 31.3385 47.023L32.2872 44.177ZM27.1129 43.5C25.1121 43.5 22.9209 43.6379 20.5426 43.9097L20.8832 46.8903C23.1715 46.6288 25.247 46.5 27.1129 46.5V43.5ZM20.5376 43.9103C18.1735 44.1884 15.752 44.7085 13.2746 45.4655L14.1512 48.3345C16.4737 47.6249 18.719 47.1449 20.8882 46.8897L20.5376 43.9103ZM15.1571 46.4948L11.2571 32.5948L8.36866 33.4052L12.2687 47.3052L15.1571 46.4948ZM26.1129 64.8C26.1129 66.3694 26.6564 67.7555 27.8526 68.7523L29.7732 66.4477C29.3694 66.1112 29.1129 65.6306 29.1129 64.8H26.1129ZM27.9591 68.8333C29.1236 69.6395 30.5038 70 32.0129 70V67C30.9887 67 30.2355 66.7605 29.6667 66.3667L27.9591 68.8333ZM32.0129 70C33.5704 70 34.99 69.648 36.1667 68.8333L34.4591 66.3667C33.9025 66.752 33.1221 67 32.0129 67V70ZM36.2275 68.7889C37.5027 67.808 38.1129 66.4135 38.1129 64.8H35.1129C35.1129 65.5865 34.8564 66.0587 34.3983 66.4111L36.2275 68.7889ZM38.1129 64.8C38.1129 63.1543 37.523 61.7057 36.1667 60.7667L34.4591 63.2333C34.8361 63.4943 35.1129 63.9124 35.1129 64.8H38.1129ZM36.1667 60.7667C34.99 59.952 33.5704 59.6 32.0129 59.6V62.6C33.1221 62.6 33.9025 62.848 34.4591 63.2333L36.1667 60.7667ZM32.0129 59.6C30.4624 59.6 29.047 59.9494 27.9129 60.8L29.7129 63.2C30.1788 62.8506 30.8967 62.6 32.0129 62.6V59.6ZM27.9129 60.8C26.6363 61.7574 26.1129 63.2002 26.1129 64.8H29.1129C29.1129 63.8664 29.3895 63.4426 29.7129 63.2L27.9129 60.8Z" fill="white"/>
</svg>
