<svg width="69" height="105" viewBox="0 0 69 105" fill="none" xmlns="http://www.w3.org/2000/svg">
<path d="M11.4363 22.2C11.4363 21.4667 11.2697 20.9 10.9363 20.5C10.603 20.0333 10.0697 19.8 9.33633 19.8C8.53633 19.8 7.76966 19.9667 7.03633 20.3C6.36966 20.5667 5.70299 20.8667 5.03633 21.2L0.736328 10C1.73633 9.26666 2.93633 8.5 4.33633 7.7C5.73633 6.9 7.23633 6.16666 8.83633 5.49999C10.4363 4.83333 12.103 4.3 13.8363 3.9C15.5697 3.43333 17.303 3.2 19.0363 3.2C22.2363 3.2 24.8363 3.6 26.8363 4.4C28.8363 5.13333 30.3697 6.19999 31.4363 7.6C32.5697 8.93333 33.303 10.5333 33.6363 12.4C34.0363 14.2667 34.2363 16.3 34.2363 18.5V35.2C36.1697 33.1333 38.2697 31.6667 40.5363 30.8C42.803 29.8667 45.2363 29.4 47.8363 29.4C51.3697 29.4 54.403 30.0667 56.9363 31.4C59.5363 32.6667 61.6697 34.4333 63.3363 36.7C65.003 38.9667 66.2363 41.6333 67.0363 44.7C67.8363 47.7667 68.2363 51.0333 68.2363 54.5C68.2363 59.2333 67.703 63.3 66.6363 66.7C65.6363 70.0333 64.1697 72.8 62.2363 75C60.3697 77.1333 58.103 78.7 55.4363 79.7C52.8363 80.7 49.9363 81.2 46.7363 81.2C44.603 81.2 42.4697 80.7 40.3363 79.7C38.203 78.6333 36.1697 76.9333 34.2363 74.6V80H11.4363V22.2ZM38.6363 63.4C40.103 63.4 41.1697 62.6667 41.8363 61.2C42.503 59.7333 42.8363 57.7 42.8363 55.1C42.8363 52.4333 42.503 50.3667 41.8363 48.9C41.2363 47.4333 40.1697 46.7 38.6363 46.7C37.103 46.7 36.003 47.4333 35.3363 48.9C34.7363 50.3667 34.4363 52.4333 34.4363 55.1C34.4363 57.7 34.7363 59.7333 35.3363 61.2C36.003 62.6667 37.103 63.4 38.6363 63.4Z" fill="black"/>
<path d="M10.9363 20.5L9.71573 21.3719L9.74821 21.4173L9.784 21.4603L10.9363 20.5ZM7.03633 20.3L7.59341 21.6927L7.62554 21.6799L7.65704 21.6655L7.03633 20.3ZM5.03633 21.2L3.63599 21.7376L4.22852 23.281L5.70715 22.5416L5.03633 21.2ZM0.736328 10L-0.150716 8.79039L-1.07469 9.46796L-0.664012 10.5376L0.736328 10ZM4.33633 7.7L3.59212 6.39763L3.59212 6.39763L4.33633 7.7ZM8.83633 5.49999L8.25941 4.11538L8.2594 4.11538L8.83633 5.49999ZM13.8363 3.9L14.1736 5.36158L14.2001 5.35548L14.2263 5.34842L13.8363 3.9ZM26.8363 4.4L26.2792 5.79271L26.2995 5.80081L26.3199 5.80831L26.8363 4.4ZM31.4363 7.6L30.2432 8.50906L30.2675 8.54094L30.2934 8.57147L31.4363 7.6ZM33.6363 12.4L32.1597 12.6637L32.1642 12.6891L32.1696 12.7143L33.6363 12.4ZM34.2363 35.2H32.7363V38.9991L35.3317 36.2247L34.2363 35.2ZM40.5363 30.8L41.072 32.2011L41.0898 32.1943L41.1075 32.187L40.5363 30.8ZM56.9363 31.4L56.2377 32.7274L56.2584 32.7383L56.2794 32.7485L56.9363 31.4ZM63.3363 36.7L64.5448 35.8114L64.5448 35.8114L63.3363 36.7ZM67.0363 44.7L68.4878 44.3214L68.4878 44.3214L67.0363 44.7ZM66.6363 66.7L65.2051 66.251L65.2023 66.26L65.1996 66.269L66.6363 66.7ZM62.2363 75L61.1096 74.0098L61.1075 74.0122L62.2363 75ZM55.4363 79.7L54.9096 78.2955L54.8979 78.3L55.4363 79.7ZM40.3363 79.7L39.6655 81.0416L39.6825 81.0501L39.6997 81.0582L40.3363 79.7ZM34.2363 74.6L35.3914 73.643L32.7363 70.4386V74.6H34.2363ZM34.2363 80V81.5H35.7363V80H34.2363ZM11.4363 80H9.93633V81.5H11.4363V80ZM41.8363 61.2L43.2019 61.8207L43.2019 61.8207L41.8363 61.2ZM41.8363 48.9L40.448 49.4679L40.4589 49.4945L40.4708 49.5207L41.8363 48.9ZM35.3363 48.9L33.9708 48.2793L33.9589 48.3055L33.948 48.332L35.3363 48.9ZM35.3363 61.2L33.948 61.7679L33.9589 61.7945L33.9708 61.8207L35.3363 61.2ZM12.9363 22.2C12.9363 21.2571 12.723 20.3009 12.0887 19.5397L9.784 21.4603C9.81631 21.499 9.93633 21.6762 9.93633 22.2H12.9363ZM12.1569 19.6281C11.4649 18.6593 10.4042 18.3 9.33633 18.3V21.3C9.54799 21.3 9.65043 21.3341 9.6851 21.3492C9.7077 21.3591 9.70888 21.3623 9.71573 21.3719L12.1569 19.6281ZM9.33633 18.3C8.32067 18.3 7.34249 18.5131 6.41562 18.9345L7.65704 21.6655C8.19683 21.4202 8.75198 21.3 9.33633 21.3V18.3ZM6.47925 18.9073C5.77254 19.19 5.06796 19.5071 4.3655 19.8584L5.70715 22.5416C6.33803 22.2262 6.96678 21.9434 7.59341 21.6927L6.47925 18.9073ZM6.43667 20.6624L2.13667 9.46236L-0.664012 10.5376L3.63599 21.7376L6.43667 20.6624ZM1.62337 11.2096C2.56635 10.5181 3.71611 9.78203 5.08054 9.00236L3.59212 6.39763C2.15654 7.21796 0.906308 8.01524 -0.150716 8.79039L1.62337 11.2096ZM5.08053 9.00236C6.42269 8.23542 7.86643 7.52912 9.41325 6.88461L8.2594 4.11538C6.60623 4.80421 5.04997 5.56458 3.59212 6.39763L5.08053 9.00236ZM9.41325 6.88461C10.9337 6.25111 12.52 5.74318 14.1736 5.36158L13.499 2.43841C11.686 2.85681 9.939 3.41555 8.25941 4.11538L9.41325 6.88461ZM14.2263 5.34842C15.837 4.91477 17.4393 4.7 19.0363 4.7V1.7C17.1667 1.7 15.3023 1.9519 13.4464 2.45157L14.2263 5.34842ZM19.0363 4.7C22.1295 4.7 24.5206 5.08925 26.2792 5.79271L27.3934 3.00728C25.1521 2.11075 22.3431 1.7 19.0363 1.7V4.7ZM26.3199 5.80831C28.1083 6.46403 29.3833 7.38045 30.2432 8.50906L32.6295 6.69093C31.356 5.01954 29.5644 3.80262 27.3527 2.99168L26.3199 5.80831ZM30.2934 8.57147C31.2406 9.68579 31.869 11.0358 32.1597 12.6637L35.113 12.1363C34.737 10.0309 33.8987 8.18087 32.5792 6.62852L30.2934 8.57147ZM32.1696 12.7143C32.5444 14.4634 32.7363 16.39 32.7363 18.5H35.7363C35.7363 16.21 35.5282 14.0699 35.103 12.0857L32.1696 12.7143ZM32.7363 18.5V35.2H35.7363V18.5H32.7363ZM35.3317 36.2247C37.1353 34.2968 39.0507 32.9739 41.072 32.2011L40.0006 29.3989C37.4886 30.3594 35.2041 31.9698 33.1409 34.1753L35.3317 36.2247ZM41.1075 32.187C43.1821 31.3327 45.4202 30.9 47.8363 30.9V27.9C45.0525 27.9 42.4239 28.4006 39.9652 29.413L41.1075 32.187ZM47.8363 30.9C51.1824 30.9 53.9645 31.531 56.2377 32.7274L57.635 30.0726C54.8415 28.6024 51.557 27.9 47.8363 27.9V30.9ZM56.2794 32.7485C58.6673 33.9119 60.6092 35.5232 62.1279 37.5886L64.5448 35.8114C62.7301 33.3434 60.4053 31.4215 57.5933 30.0515L56.2794 32.7485ZM62.1279 37.5886C63.6686 39.684 64.8268 42.1727 65.5849 45.0786L68.4878 44.3214C67.6458 41.094 66.3374 38.2493 64.5448 35.8114L62.1279 37.5886ZM65.5849 45.0786C66.3498 48.0107 66.7363 51.1492 66.7363 54.5H69.7363C69.7363 50.9174 69.3229 47.5226 68.4878 44.3214L65.5849 45.0786ZM66.7363 54.5C66.7363 59.1278 66.214 63.0351 65.2051 66.251L68.0676 67.149C69.192 63.5649 69.7363 59.3388 69.7363 54.5H66.7363ZM65.1996 66.269C64.25 69.4342 62.8763 71.9994 61.1096 74.0098L63.3631 75.9902C65.463 73.6006 67.0226 70.6325 68.0731 67.131L65.1996 66.269ZM61.1075 74.0122C59.4048 75.9581 57.3454 77.3821 54.9096 78.2955L55.963 81.1045C58.8606 80.0179 61.3345 78.3085 63.3652 75.9878L61.1075 74.0122ZM54.8979 78.3C52.4933 79.2248 49.7793 79.7 46.7363 79.7V82.7C50.0934 82.7 53.1794 82.1752 55.9748 81.1L54.8979 78.3ZM46.7363 79.7C44.8451 79.7 42.9281 79.2583 40.973 78.3418L39.6997 81.0582C42.0112 82.1417 44.3609 82.7 46.7363 82.7V79.7ZM41.0072 78.3584C39.1033 77.4064 37.2264 75.8577 35.3914 73.643L33.0813 75.557C35.1129 78.009 37.3027 79.8602 39.6655 81.0416L41.0072 78.3584ZM32.7363 74.6V80H35.7363V74.6H32.7363ZM34.2363 78.5H11.4363V81.5H34.2363V78.5ZM12.9363 80V22.2H9.93633V80H12.9363ZM38.6363 64.9C39.6313 64.9 40.5704 64.6469 41.3861 64.0861C42.193 63.5313 42.7831 62.7419 43.2019 61.8207L40.4708 60.5793C40.2228 61.1247 39.9463 61.4354 39.6865 61.6139C39.4356 61.7864 39.1081 61.9 38.6363 61.9V64.9ZM43.2019 61.8207C43.9951 60.0756 44.3363 57.798 44.3363 55.1H41.3363C41.3363 57.602 41.0109 59.3911 40.4708 60.5793L43.2019 61.8207ZM44.3363 55.1C44.3363 52.3419 43.9968 50.0281 43.2019 48.2793L40.4708 49.5207C41.0092 50.7053 41.3363 52.5248 41.3363 55.1H44.3363ZM43.2247 48.332C42.839 47.3894 42.2593 46.5799 41.4361 46.0139C40.6094 45.4456 39.6492 45.2 38.6363 45.2V48.2C39.1568 48.2 39.4966 48.3211 39.7365 48.4861C39.98 48.6534 40.2337 48.944 40.448 49.4679L43.2247 48.332ZM38.6363 45.2C37.6221 45.2 36.6632 45.446 35.8293 46.0019C35.0001 46.5547 34.3945 47.347 33.9708 48.2793L36.7019 49.5207C36.9448 48.9863 37.2225 48.6786 37.4934 48.4981C37.7595 48.3207 38.1173 48.2 38.6363 48.2V45.2ZM33.948 48.332C33.2406 50.0613 32.9363 52.3534 32.9363 55.1H35.9363C35.9363 52.5133 36.2321 50.672 36.7246 49.4679L33.948 48.332ZM32.9363 55.1C32.9363 57.7859 33.2419 60.042 33.948 61.7679L36.7246 60.632C36.2307 59.4247 35.9363 57.6141 35.9363 55.1H32.9363ZM33.9708 61.8207C34.3945 62.753 35.0001 63.5453 35.8293 64.0981C36.6632 64.654 37.6221 64.9 38.6363 64.9V61.9C38.1173 61.9 37.7595 61.7793 37.4934 61.6019C37.2225 61.4214 36.9448 61.1137 36.7019 60.5793L33.9708 61.8207Z" fill="white"/>
</svg>
