<svg width="51" height="105" viewBox="0 0 51 105" fill="none" xmlns="http://www.w3.org/2000/svg">
<path d="M46.3164 78.5C45.3831 78.9 44.3831 79.2667 43.3164 79.6C42.3164 79.9333 41.1497 80.2333 39.8164 80.5C38.4831 80.8333 36.9497 81.0667 35.2164 81.2C33.4831 81.4 31.4497 81.5 29.1164 81.5C25.5831 81.5 22.2164 81 19.0164 80C15.8831 78.9333 13.1164 77.3333 10.7164 75.2C8.31641 73 6.38307 70.3 4.91641 67.1C3.51641 63.8333 2.81641 60 2.81641 55.6C2.81641 51.6667 3.44974 48.1 4.71641 44.9C6.04974 41.7 7.88307 38.9667 10.2164 36.7C12.6164 34.3667 15.4831 32.5667 18.8164 31.3C22.2164 30.0333 25.9831 29.4 30.1164 29.4C34.3164 29.4 37.8831 29.8667 40.8164 30.8C43.8164 31.6667 46.4497 32.7667 48.7164 34.1L43.2164 49.2C41.8831 48.3333 40.6497 47.7333 39.5164 47.4C38.3831 47.0667 36.9497 46.9 35.2164 46.9C32.4831 46.9 30.4831 47.7667 29.2164 49.5C27.9497 51.2333 27.3164 53.2 27.3164 55.4C27.3164 58.3333 28.0497 60.5667 29.5164 62.1C30.9831 63.6333 33.1497 64.4 36.0164 64.4C38.0164 64.4 39.7497 64.2333 41.2164 63.9C42.6831 63.5667 44.3831 62.9333 46.3164 62V78.5Z" fill="black"/>
<path d="M46.3164 78.5L46.9073 79.8787L47.8164 79.4891V78.5H46.3164ZM43.3164 79.6L42.869 78.1683L42.8555 78.1725L42.8421 78.177L43.3164 79.6ZM39.8164 80.5L39.5222 79.0291L39.4872 79.0361L39.4526 79.0448L39.8164 80.5ZM35.2164 81.2L35.1014 79.7044L35.0729 79.7066L35.0445 79.7099L35.2164 81.2ZM19.0164 80L18.533 81.42L18.5509 81.4261L18.569 81.4317L19.0164 80ZM10.7164 75.2L9.70282 76.3057L9.71128 76.3135L9.71986 76.3211L10.7164 75.2ZM4.91641 67.1L3.53769 67.6909L3.54504 67.708L3.55281 67.725L4.91641 67.1ZM4.71641 44.9L3.33179 44.3231L3.32663 44.3355L3.3217 44.3479L4.71641 44.9ZM10.2164 36.7L11.2616 37.7759L11.262 37.7755L10.2164 36.7ZM18.8164 31.3L18.2927 29.8943L18.2836 29.8978L18.8164 31.3ZM40.8164 30.8L40.3616 32.2294L40.3808 32.2355L40.4001 32.2411L40.8164 30.8ZM48.7164 34.1L50.1258 34.6134L50.5532 33.4402L49.4769 32.8071L48.7164 34.1ZM43.2164 49.2L42.3989 50.4577L43.9803 51.4856L44.6258 49.7134L43.2164 49.2ZM39.5164 47.4L39.0932 48.839L39.0932 48.839L39.5164 47.4ZM29.2164 49.5L28.0053 48.615L28.0053 48.615L29.2164 49.5ZM29.5164 62.1L30.6004 61.0632L30.6004 61.0632L29.5164 62.1ZM41.2164 63.9L40.884 62.4373L40.884 62.4373L41.2164 63.9ZM46.3164 62H47.8164V59.6102L45.6643 60.6492L46.3164 62ZM45.7255 77.1213C44.8435 77.4993 43.8918 77.8487 42.869 78.1683L43.7638 81.0317C44.8744 80.6847 45.9227 80.3007 46.9073 79.8787L45.7255 77.1213ZM42.8421 78.177C41.9151 78.486 40.811 78.7714 39.5222 79.0291L40.1106 81.9709C41.4884 81.6953 42.7177 81.3807 43.7908 81.023L42.8421 78.177ZM39.4526 79.0448C38.219 79.3532 36.7717 79.5759 35.1014 79.7044L35.3315 82.6956C37.1278 82.5574 38.7472 82.3135 40.1802 81.9552L39.4526 79.0448ZM35.0445 79.7099C33.3835 79.9015 31.4101 80 29.1164 80V83C31.4894 83 33.5826 82.8985 35.3883 82.6901L35.0445 79.7099ZM29.1164 80C25.7266 80 22.5114 79.5206 19.4638 78.5683L18.569 81.4317C21.9215 82.4794 25.4396 83 29.1164 83V80ZM19.4998 78.58C16.5498 77.5758 13.9589 76.0753 11.713 74.0789L9.71986 76.3211C12.2739 78.5914 15.2164 80.2909 18.533 81.42L19.4998 78.58ZM11.73 74.0943C9.48921 72.0402 7.67009 69.5079 6.28 66.475L3.55281 67.725C5.09606 71.0921 7.1436 73.9598 9.70282 76.3057L11.73 74.0943ZM6.29512 66.5091C4.99176 63.4679 4.31641 59.8438 4.31641 55.6H1.31641C1.31641 60.1562 2.04105 64.1987 3.53769 67.6909L6.29512 66.5091ZM4.31641 55.6C4.31641 51.8289 4.92323 48.4531 6.11112 45.4521L3.3217 44.3479C1.97625 47.7469 1.31641 51.5044 1.31641 55.6H4.31641ZM6.10102 45.4769C7.36139 42.452 9.08344 39.8918 11.2616 37.7759L9.17123 35.6241C6.6827 38.0415 4.73809 40.948 3.33179 44.3231L6.10102 45.4769ZM11.262 37.7755C13.5058 35.5941 16.1946 33.9009 19.3492 32.7022L18.2836 29.8978C14.7715 31.2324 11.7271 33.1392 9.17079 35.6245L11.262 37.7755ZM19.3401 32.7056C22.5509 31.5094 26.1373 30.9 30.1164 30.9V27.9C25.8289 27.9 21.8819 28.5572 18.2927 29.8944L19.3401 32.7056ZM30.1164 30.9C34.2142 30.9 37.6179 31.3564 40.3616 32.2294L41.2712 29.3706C38.1482 28.3769 34.4186 27.9 30.1164 27.9V30.9ZM40.4001 32.2411C43.3014 33.0792 45.8152 34.1337 47.9559 35.3929L49.4769 32.8071C47.0842 31.3996 44.3314 30.2541 41.2327 29.3589L40.4001 32.2411ZM47.307 33.5866L41.807 48.6866L44.6258 49.7134L50.1258 34.6134L47.307 33.5866ZM44.0339 47.9423C42.6179 47.0219 41.2512 46.3467 39.9397 45.961L39.0932 48.839C40.0483 49.12 41.1483 49.6447 42.3989 50.4577L44.0339 47.9423ZM39.9397 45.961C38.621 45.5731 37.0327 45.4 35.2164 45.4V48.4C36.8668 48.4 38.1451 48.5602 39.0932 48.839L39.9397 45.961ZM35.2164 45.4C32.1492 45.4 29.6302 46.3915 28.0053 48.615L30.4275 50.385C31.3359 49.1419 32.8169 48.4 35.2164 48.4V45.4ZM28.0053 48.615C26.546 50.6119 25.8164 52.8903 25.8164 55.4H28.8164C28.8164 53.5097 29.3535 51.8547 30.4275 50.385L28.0053 48.615ZM25.8164 55.4C25.8164 58.57 26.6107 61.2323 28.4324 63.1368L30.6004 61.0632C29.4888 59.9011 28.8164 58.0967 28.8164 55.4H25.8164ZM28.4324 63.1368C30.2707 65.0586 32.8892 65.9 36.0164 65.9V62.9C33.4103 62.9 31.6955 62.2081 30.6004 61.0632L28.4324 63.1368ZM36.0164 65.9C38.094 65.9 39.9441 65.7274 41.5488 65.3627L40.884 62.4373C39.5553 62.7393 37.9388 62.9 36.0164 62.9V65.9ZM41.5488 65.3627C43.1618 64.9961 44.9726 64.3144 46.9685 63.3508L45.6643 60.6492C43.7935 61.5523 42.2044 62.1372 40.884 62.4373L41.5488 65.3627ZM44.8164 62V78.5H47.8164V62H44.8164Z" fill="white"/>
</svg>
