<svg width="71" height="105" viewBox="0 0 71 105" fill="none" xmlns="http://www.w3.org/2000/svg">
<path d="M36.6133 22.2C36.6133 21.4667 36.4466 20.9 36.1133 20.5C35.7799 20.0333 35.2466 19.8 34.5133 19.8C33.7133 19.8 32.9466 19.9667 32.2133 20.3C31.5466 20.5667 30.8799 20.8667 30.2133 21.2L25.9133 10C26.9133 9.26666 28.1133 8.5 29.5133 7.7C30.9133 6.9 32.4133 6.16666 34.0133 5.49999C35.6133 4.83333 37.28 4.3 39.0133 3.9C40.7466 3.43333 42.4799 3.2 44.2133 3.2C47.4133 3.2 50.0133 3.6 52.0133 4.4C54.0133 5.13333 55.5466 6.19999 56.6133 7.6C57.7466 8.93333 58.4799 10.5333 58.8133 12.4C59.2133 14.2667 59.4133 16.3 59.4133 18.5V62.4C59.4133 63.1333 59.58 63.7333 59.9133 64.2C60.2466 64.6667 60.78 64.9 61.5133 64.9C62.3133 64.9 62.98 64.7667 63.5133 64.5C64.0466 64.2333 64.6466 63.9333 65.3133 63.6L68.3133 75.7C66.2466 77.2333 63.7133 78.5333 60.7133 79.6C57.7133 80.6667 54.7466 81.2 51.8133 81.2C48.4133 81.2 45.5799 80.6667 43.3133 79.6C41.1133 78.5333 39.4466 76.8 38.3133 74.4C36.2466 76.7333 34.0133 78.4667 31.6133 79.6C29.2799 80.6667 26.7799 81.2 24.1133 81.2C17.1133 81.2 11.6799 79.1 7.81328 74.9C4.01328 70.6333 2.11328 64 2.11328 55C2.11328 51.5333 2.54661 48.2333 3.41328 45.1C4.27995 41.9667 5.57995 39.2667 7.31328 37C9.11328 34.6667 11.3466 32.8333 14.0133 31.5C16.7466 30.1 19.9799 29.4 23.7133 29.4C26.9133 29.4 29.4799 29.9667 31.4133 31.1C33.3466 32.1667 35.08 33.5667 36.6133 35.3V22.2ZM31.8133 63.6C33.2799 63.6 34.3466 62.8667 35.0133 61.4C35.6799 59.9333 36.0133 57.9 36.0133 55.3C36.0133 52.6333 35.6799 50.5667 35.0133 49.1C34.4133 47.6333 33.3466 46.9 31.8133 46.9C30.2799 46.9 29.1799 47.6333 28.5133 49.1C27.9133 50.5667 27.6133 52.6333 27.6133 55.3C27.6133 57.9 27.9133 59.9333 28.5133 61.4C29.1799 62.8667 30.2799 63.6 31.8133 63.6Z" fill="black"/>
<path d="M36.1133 20.5L34.8927 21.3719L34.9252 21.4173L34.961 21.4603L36.1133 20.5ZM32.2133 20.3L32.7704 21.6927L32.8025 21.6799L32.834 21.6655L32.2133 20.3ZM30.2133 21.2L28.8129 21.7376L29.4055 23.281L30.8841 22.5416L30.2133 21.2ZM25.9133 10L25.0262 8.79039L24.1023 9.46796L24.5129 10.5376L25.9133 10ZM29.5133 7.7L28.7691 6.39763L28.7691 6.39763L29.5133 7.7ZM34.0133 5.49999L33.4364 4.11538L33.4364 4.11538L34.0133 5.49999ZM39.0133 3.9L39.3506 5.36158L39.377 5.35548L39.4032 5.34842L39.0133 3.9ZM52.0133 4.4L51.4562 5.79271L51.4764 5.80081L51.4969 5.80831L52.0133 4.4ZM56.6133 7.6L55.4201 8.50906L55.4444 8.54094L55.4704 8.57147L56.6133 7.6ZM58.8133 12.4L57.3366 12.6637L57.3412 12.6891L57.3466 12.7143L58.8133 12.4ZM59.9133 64.2L61.1339 63.3281L59.9133 64.2ZM63.5133 64.5L64.1841 65.8416L64.1841 65.8416L63.5133 64.5ZM65.3133 63.6L66.7692 63.239L66.3183 61.4204L64.6425 62.2584L65.3133 63.6ZM68.3133 75.7L69.2071 76.9046L70.0097 76.3091L69.7692 75.339L68.3133 75.7ZM60.7133 79.6L61.2158 81.0133L61.2158 81.0133L60.7133 79.6ZM43.3133 79.6L42.6589 80.9497L42.6667 80.9535L42.6746 80.9572L43.3133 79.6ZM38.3133 74.4L39.6697 73.7595L38.6984 71.7028L37.1904 73.4054L38.3133 74.4ZM31.6133 79.6L32.2369 80.9642L32.2454 80.9603L32.2538 80.9564L31.6133 79.6ZM7.81328 74.9L6.69313 75.8976L6.70136 75.9069L6.70973 75.916L7.81328 74.9ZM3.41328 45.1L4.859 45.4999L4.859 45.4999L3.41328 45.1ZM7.31328 37L6.1256 36.0838L6.12175 36.0888L7.31328 37ZM14.0133 31.5L14.6841 32.8416L14.6906 32.8384L14.6971 32.8351L14.0133 31.5ZM31.4133 31.1L30.6547 32.394L30.6716 32.4039L30.6887 32.4134L31.4133 31.1ZM36.6133 35.3L35.4898 36.2939L38.1133 39.2595V35.3H36.6133ZM35.0133 61.4L36.3788 62.0207L36.3788 62.0207L35.0133 61.4ZM35.0133 49.1L33.625 49.6679L33.6358 49.6945L33.6477 49.7207L35.0133 49.1ZM28.5133 49.1L27.1477 48.4793L27.1358 48.5055L27.125 48.5321L28.5133 49.1ZM28.5133 61.4L27.125 61.9679L27.1358 61.9945L27.1477 62.0207L28.5133 61.4ZM38.1133 22.2C38.1133 21.2571 37.9 20.3009 37.2656 19.5397L34.961 21.4603C34.9933 21.4991 35.1133 21.6762 35.1133 22.2H38.1133ZM37.3339 19.6281C36.6419 18.6593 35.5811 18.3 34.5133 18.3V21.3C34.7249 21.3 34.8274 21.3341 34.8621 21.3492C34.8847 21.3591 34.8858 21.3623 34.8927 21.3719L37.3339 19.6281ZM34.5133 18.3C33.4976 18.3 32.5194 18.5131 31.5926 18.9345L32.834 21.6655C33.3738 21.4202 33.9289 21.3 34.5133 21.3V18.3ZM31.6562 18.9073C30.9495 19.19 30.2449 19.5071 29.5425 19.8584L30.8841 22.5416C31.515 22.2262 32.1437 21.9434 32.7704 21.6927L31.6562 18.9073ZM31.6136 20.6624L27.3136 9.46236L24.5129 10.5376L28.8129 21.7376L31.6136 20.6624ZM26.8003 11.2096C27.7433 10.5181 28.8931 9.78203 30.2575 9.00236L28.7691 6.39763C27.3335 7.21796 26.0833 8.01524 25.0262 8.79039L26.8003 11.2096ZM30.2575 9.00236C31.5996 8.23542 33.0434 7.52912 34.5902 6.88461L33.4364 4.11538C31.7832 4.80421 30.2269 5.56458 28.7691 6.39763L30.2575 9.00236ZM34.5902 6.88461C36.1106 6.25111 37.697 5.74318 39.3506 5.36158L38.676 2.43841C36.8629 2.85681 35.116 3.41555 33.4364 4.11538L34.5902 6.88461ZM39.4032 5.34842C41.014 4.91477 42.6163 4.7 44.2133 4.7V1.7C42.3436 1.7 40.4793 1.9519 38.6233 2.45157L39.4032 5.34842ZM44.2133 4.7C47.3065 4.7 49.6975 5.08925 51.4562 5.79271L52.5704 3.00728C50.329 2.11075 47.5201 1.7 44.2133 1.7V4.7ZM51.4969 5.80831C53.2852 6.46403 54.5602 7.38045 55.4201 8.50906L57.8064 6.69093C56.533 5.01954 54.7413 3.80262 52.5297 2.99168L51.4969 5.80831ZM55.4704 8.57147C56.4175 9.68579 57.0459 11.0358 57.3366 12.6637L60.2899 12.1363C59.914 10.0309 59.0757 8.18087 57.7562 6.62852L55.4704 8.57147ZM57.3466 12.7143C57.7214 14.4634 57.9133 16.39 57.9133 18.5H60.9133C60.9133 16.21 60.7052 14.0699 60.28 12.0857L57.3466 12.7143ZM57.9133 18.5V62.4H60.9133V18.5H57.9133ZM57.9133 62.4C57.9133 63.3587 58.1327 64.2879 58.6927 65.0719L61.1339 63.3281C61.0272 63.1787 60.9133 62.908 60.9133 62.4H57.9133ZM58.6927 65.0719C59.3847 66.0407 60.4455 66.4 61.5133 66.4V63.4C61.3016 63.4 61.1992 63.3659 61.1645 63.3508C61.1419 63.3409 61.1407 63.3377 61.1339 63.3281L58.6927 65.0719ZM61.5133 66.4C62.4703 66.4 63.3838 66.2418 64.1841 65.8416L62.8425 63.1584C62.5761 63.2916 62.1563 63.4 61.5133 63.4V66.4ZM64.1841 65.8416C64.7174 65.575 65.3174 65.275 65.9841 64.9416L64.6425 62.2584C63.9758 62.5917 63.3758 62.8917 62.8425 63.1584L64.1841 65.8416ZM63.8574 63.961L66.8574 76.061L69.7692 75.339L66.7692 63.239L63.8574 63.961ZM67.4195 74.4954C65.4966 75.922 63.1025 77.1585 60.2108 78.1867L61.2158 81.0133C64.324 79.9082 66.9967 78.5446 69.2071 76.9046L67.4195 74.4954ZM60.2108 78.1867C57.3583 79.2009 54.5613 79.7 51.8133 79.7V82.7C54.9319 82.7 58.0683 82.1324 61.2158 81.0133L60.2108 78.1867ZM51.8133 79.7C48.5595 79.7 45.9608 79.1881 43.952 78.2428L42.6746 80.9572C45.1991 82.1452 48.2671 82.7 51.8133 82.7V79.7ZM43.9677 78.2503C42.1028 77.3461 40.6702 75.8782 39.6697 73.7595L36.9569 75.0405C38.2231 77.7218 40.1238 79.7206 42.6589 80.9497L43.9677 78.2503ZM37.1904 73.4054C35.2352 75.6129 33.16 77.2108 30.9728 78.2436L32.2538 80.9564C34.8666 79.7226 37.258 77.8537 39.4362 75.3946L37.1904 73.4054ZM30.9896 78.2358C28.8598 79.2094 26.5734 79.7 24.1133 79.7V82.7C26.9865 82.7 29.7001 82.1239 32.2369 80.9642L30.9896 78.2358ZM24.1133 79.7C17.4305 79.7 12.437 77.7076 8.91683 73.884L6.70973 75.916C10.9229 80.4924 16.7961 82.7 24.1133 82.7V79.7ZM8.93343 73.9024C5.48526 70.0307 3.61328 63.8337 3.61328 55H0.613281C0.613281 64.1663 2.5413 71.2359 6.69313 75.8976L8.93343 73.9024ZM3.61328 55C3.61328 51.6595 4.03066 48.4946 4.859 45.4999L1.96756 44.7001C1.06257 47.972 0.613281 51.4071 0.613281 55H3.61328ZM4.859 45.4999C5.68154 42.5261 6.90328 40.0055 8.50482 37.9112L6.12175 36.0888C4.25661 38.5278 2.87836 41.4072 1.96756 44.7001L4.859 45.4999ZM8.50096 37.9162C10.1613 35.764 12.2171 34.0751 14.6841 32.8416L13.3425 30.1584C10.4761 31.5915 8.06531 33.5694 6.12561 36.0838L8.50096 37.9162ZM14.6971 32.8351C17.1779 31.5644 20.1671 30.9 23.7133 30.9V27.9C19.7928 27.9 16.3153 28.6356 13.3295 30.1649L14.6971 32.8351ZM23.7133 30.9C26.7544 30.9 29.0294 31.4413 30.6547 32.394L32.1719 29.806C29.9305 28.4921 27.0722 27.9 23.7133 27.9V30.9ZM30.6887 32.4134C32.4646 33.3932 34.0646 34.6828 35.4898 36.2939L37.7368 34.3061C36.0953 32.4505 34.2286 30.9401 32.1379 29.7866L30.6887 32.4134ZM38.1133 35.3V22.2H35.1133V35.3H38.1133ZM31.8133 65.1C32.8082 65.1 33.7473 64.8469 34.5631 64.2861C35.37 63.7313 35.9601 62.9419 36.3788 62.0207L33.6477 60.7793C33.3998 61.3247 33.1232 61.6354 32.8635 61.8139C32.6126 61.9864 32.285 62.1 31.8133 62.1V65.1ZM36.3788 62.0207C37.1721 60.2756 37.5133 57.998 37.5133 55.3H34.5133C34.5133 57.802 34.1878 59.5911 33.6477 60.7793L36.3788 62.0207ZM37.5133 55.3C37.5133 52.5419 37.1737 50.2281 36.3788 48.4793L33.6477 49.7207C34.1862 50.9053 34.5133 52.7248 34.5133 55.3H37.5133ZM36.4016 48.532C36.016 47.5894 35.4363 46.7799 34.6131 46.2139C33.7863 45.6456 32.8261 45.4 31.8133 45.4V48.4C32.3338 48.4 32.6736 48.5211 32.9135 48.6861C33.157 48.8534 33.4106 49.144 33.625 49.6679L36.4016 48.532ZM31.8133 45.4C30.799 45.4 29.8401 45.646 29.0062 46.2019C28.1771 46.7547 27.5715 47.547 27.1477 48.4793L29.8788 49.7207C30.1217 49.1863 30.3995 48.8786 30.6703 48.6981C30.9364 48.5207 31.2942 48.4 31.8133 48.4V45.4ZM27.125 48.5321C26.4175 50.2613 26.1133 52.5534 26.1133 55.3H29.1133C29.1133 52.7133 29.409 50.872 29.9016 49.6679L27.125 48.5321ZM26.1133 55.3C26.1133 57.9859 26.4189 60.242 27.125 61.9679L29.9016 60.8321C29.4077 59.6247 29.1133 57.8141 29.1133 55.3H26.1133ZM27.1477 62.0207C27.5715 62.953 28.1771 63.7453 29.0062 64.2981C29.8401 64.854 30.799 65.1 31.8133 65.1V62.1C31.2942 62.1 30.9364 61.9793 30.6703 61.8019C30.3995 61.6214 30.1217 61.3137 29.8788 60.7793L27.1477 62.0207Z" fill="white"/>
</svg>
