<svg width="58" height="105" viewBox="0 0 58 105" fill="none" xmlns="http://www.w3.org/2000/svg">
<path d="M53.3148 78.1C49.9148 79.3 46.3815 80.1667 42.7148 80.7C39.0482 81.2333 34.9148 81.5 30.3148 81.5C21.5148 81.5 14.6148 79.3 9.61484 74.9C4.68151 70.5 2.21484 64.0667 2.21484 55.6C2.21484 51.7333 2.81484 48.2 4.01484 45C5.21484 41.7333 6.98151 38.9667 9.31484 36.7C11.6482 34.3667 14.5482 32.5667 18.0148 31.3C21.5482 30.0333 25.5815 29.4 30.1148 29.4C34.5148 29.4 38.3148 30.1333 41.5148 31.6C44.7815 33.0667 47.4482 35 49.5148 37.4C51.5815 39.8 53.1148 42.5667 54.1148 45.7C55.1148 48.7667 55.6148 51.9667 55.6148 55.3V59.6H23.7148C24.6482 61.4 26.0482 62.7667 27.9148 63.7C29.7815 64.6333 32.4148 65.1 35.8148 65.1C39.2148 65.1 42.2815 64.9667 45.0148 64.7C47.8148 64.3667 50.5815 63.8 53.3148 63V78.1ZM34.0148 50.4C34.0148 48.2667 33.5815 46.6 32.7148 45.4C31.9148 44.2 30.8482 43.6 29.5148 43.6C27.9815 43.6 26.7815 44.2333 25.9148 45.5C25.1148 46.7 24.7148 48.3333 24.7148 50.4H34.0148Z" fill="black"/>
<path d="M53.3148 78.1L53.8141 79.5145L54.8148 79.1613V78.1H53.3148ZM42.7148 80.7L42.9308 82.1844L42.9308 82.1844L42.7148 80.7ZM9.61484 74.9L8.6164 76.0195L8.6239 76.0261L9.61484 74.9ZM4.01484 45L5.41937 45.5267L5.42285 45.5172L4.01484 45ZM9.31484 36.7L10.36 37.7759L10.3678 37.7683L10.3755 37.7607L9.31484 36.7ZM18.0148 31.3L17.5086 29.888L17.5001 29.8911L18.0148 31.3ZM41.5148 31.6L40.8898 32.9636L40.9005 32.9684L41.5148 31.6ZM49.5148 37.4L48.3782 38.3788L48.3782 38.3788L49.5148 37.4ZM54.1148 45.7L52.6858 46.1561L52.6888 46.165L54.1148 45.7ZM55.6148 59.6V61.1H57.1148V59.6H55.6148ZM23.7148 59.6V58.1H21.2474L22.3832 60.2905L23.7148 59.6ZM27.9148 63.7L27.244 65.0416L27.244 65.0416L27.9148 63.7ZM45.0148 64.7L45.1605 66.1929L45.1764 66.1914L45.1922 66.1895L45.0148 64.7ZM53.3148 63H54.8148V60.998L52.8935 61.5604L53.3148 63ZM34.0148 50.4V51.9H35.5148V50.4H34.0148ZM32.7148 45.4L31.4668 46.232L31.4824 46.2554L31.4988 46.2782L32.7148 45.4ZM25.9148 45.5L24.6769 44.653L24.6718 44.6604L24.6668 44.6679L25.9148 45.5ZM24.7148 50.4H23.2148V51.9H24.7148V50.4ZM52.8156 76.6855C49.5101 77.8522 46.0718 78.6959 42.4989 79.2156L42.9308 82.1844C46.6912 81.6374 50.3196 80.7478 53.8141 79.5145L52.8156 76.6855ZM42.4989 79.2156C38.9184 79.7364 34.8591 80 30.3148 80V83C34.9706 83 39.178 82.7302 42.9308 82.1844L42.4989 79.2156ZM30.3148 80C21.7604 80 15.254 77.8644 10.6058 73.7739L8.6239 76.0261C13.9757 80.7356 21.2692 83 30.3148 83V80ZM10.6133 73.7806C6.08358 69.7406 3.71484 63.7672 3.71484 55.6H0.714844C0.714844 64.3661 3.27944 71.2594 8.61642 76.0194L10.6133 73.7806ZM3.71484 55.6C3.71484 51.8898 4.29023 48.5376 5.41934 45.5267L2.61035 44.4733C1.33946 47.8623 0.714844 51.5769 0.714844 55.6H3.71484ZM5.42285 45.5172C6.55084 42.4466 8.19909 39.8751 10.36 37.7759L8.26967 35.6241C5.76393 38.0582 3.87885 41.0201 2.60684 44.4828L5.42285 45.5172ZM10.3755 37.7607C12.537 35.5992 15.2437 33.9095 18.5296 32.7089L17.5001 29.8911C13.8527 31.2238 10.7594 33.1342 8.25418 35.6393L10.3755 37.7607ZM18.521 32.712C21.8622 31.5142 25.7193 30.9 30.1148 30.9V27.9C25.4437 27.9 21.2342 28.5524 17.5087 29.888L18.521 32.712ZM30.1148 30.9C34.3515 30.9 37.9286 31.6063 40.8899 32.9636L42.1398 30.2364C38.7011 28.6603 34.6782 27.9 30.1148 27.9V30.9ZM40.9005 32.9684C43.9929 34.3568 46.4726 36.1659 48.3782 38.3788L50.6515 36.4212C48.4237 33.8341 45.5702 31.7765 42.1292 30.2316L40.9005 32.9684ZM48.3782 38.3788C50.3082 40.6201 51.7448 43.2073 52.6859 46.1561L55.5438 45.2439C54.4849 41.926 52.8548 38.9799 50.6515 36.4212L48.3782 38.3788ZM52.6888 46.165C53.6382 49.0766 54.1148 52.1193 54.1148 55.3H57.1148C57.1148 51.8141 56.5915 48.4568 55.5409 45.235L52.6888 46.165ZM54.1148 55.3V59.6H57.1148V55.3H54.1148ZM55.6148 58.1H23.7148V61.1H55.6148V58.1ZM22.3832 60.2905C23.467 62.3806 25.1027 63.971 27.244 65.0416L28.5857 62.3584C26.9936 61.5624 25.8294 60.4194 25.0465 58.9095L22.3832 60.2905ZM27.244 65.0416C29.4102 66.1248 32.3117 66.6 35.8148 66.6V63.6C32.518 63.6 30.1528 63.1419 28.5857 62.3584L27.244 65.0416ZM35.8148 66.6C39.2526 66.6 42.369 66.4653 45.1605 66.1929L44.8692 63.2071C42.194 63.4681 39.1771 63.6 35.8148 63.6V66.6ZM45.1922 66.1895C48.0756 65.8462 50.9238 65.2627 53.7362 64.4396L52.8935 61.5604C50.2392 62.3373 47.5541 62.8871 44.8375 63.2105L45.1922 66.1895ZM51.8148 63V78.1H54.8148V63H51.8148ZM35.5148 50.4C35.5148 48.0851 35.0475 46.0678 33.9309 44.5218L31.4988 46.2782C32.1156 47.1322 32.5148 48.4483 32.5148 50.4H35.5148ZM33.9629 44.5679C32.9117 42.991 31.3964 42.1 29.5148 42.1V45.1C30.3 45.1 30.918 45.409 31.4668 46.232L33.9629 44.5679ZM29.5148 42.1C27.4858 42.1 25.8228 42.9781 24.6769 44.653L27.1528 46.347C27.7402 45.4885 28.4772 45.1 29.5148 45.1V42.1ZM24.6668 44.6679C23.6457 46.1996 23.2148 48.1596 23.2148 50.4H26.2148C26.2148 48.507 26.584 47.2004 27.1629 46.332L24.6668 44.6679ZM24.7148 51.9H34.0148V48.9H24.7148V51.9Z" fill="white"/>
</svg>
