<svg width="57" height="105" viewBox="0 0 57 105" fill="none" xmlns="http://www.w3.org/2000/svg">
<path d="M13.523 45.9H4.62305V30.6H13.523V23.9C13.523 20.9 13.923 18.1667 14.723 15.7C15.523 13.1667 16.7897 10.9667 18.523 9.09999C20.323 7.23333 22.6564 5.8 25.523 4.8C28.4564 3.73333 32.023 3.2 36.223 3.2C40.1564 3.2 43.623 3.73333 46.623 4.8C49.6897 5.8 52.423 7.06666 54.8231 8.6L49.0231 23.4C48.0897 22.8667 47.0564 22.3333 45.923 21.8C44.7897 21.2667 43.4564 21 41.923 21C40.6564 21 39.623 21.1667 38.823 21.5C38.0897 21.7667 37.4897 22.2 37.023 22.8C36.623 23.3333 36.3564 24 36.223 24.8C36.0897 25.5333 36.023 26.3333 36.023 27.2V30.6H48.1231V45.9H36.323V80H13.523V45.9Z" fill="black"/>
<path d="M13.523 45.9H15.023V44.4H13.523V45.9ZM4.62305 45.9H3.12305V47.4H4.62305V45.9ZM4.62305 30.6V29.1H3.12305V30.6H4.62305ZM13.523 30.6V32.1H15.023V30.6H13.523ZM14.723 15.7L16.1499 16.1628L16.1534 16.1517L14.723 15.7ZM18.523 9.09999L17.4433 8.05879L17.4335 8.06896L17.4239 8.07932L18.523 9.09999ZM25.523 4.8L26.0171 6.2163L26.0264 6.21305L26.0357 6.20969L25.523 4.8ZM46.623 4.8L46.1205 6.21332L46.1392 6.21995L46.158 6.22609L46.623 4.8ZM54.8231 8.6L56.2196 9.14731L56.6694 7.99961L55.6306 7.33595L54.8231 8.6ZM49.0231 23.4L48.2788 24.7024L49.7862 25.5637L50.4196 23.9473L49.0231 23.4ZM38.823 21.5L39.3357 22.9097L39.3681 22.8979L39.4 22.8846L38.823 21.5ZM37.023 22.8L35.839 21.8791L35.8309 21.8895L35.823 21.9L37.023 22.8ZM36.223 24.8L37.6989 25.0683L37.7008 25.0575L37.7026 25.0466L36.223 24.8ZM36.023 30.6H34.523V32.1H36.023V30.6ZM48.1231 30.6H49.6231V29.1H48.1231V30.6ZM48.1231 45.9V47.4H49.6231V45.9H48.1231ZM36.323 45.9V44.4H34.823V45.9H36.323ZM36.323 80V81.5H37.823V80H36.323ZM13.523 80H12.023V81.5H13.523V80ZM13.523 44.4H4.62305V47.4H13.523V44.4ZM6.12305 45.9V30.6H3.12305V45.9H6.12305ZM4.62305 32.1H13.523V29.1H4.62305V32.1ZM15.023 30.6V23.9H12.023V30.6H15.023ZM15.023 23.9C15.023 21.033 15.4053 18.4586 16.1499 16.1628L13.2962 15.2372C12.4408 17.8747 12.023 20.767 12.023 23.9H15.023ZM16.1534 16.1517C16.8895 13.8209 18.0466 11.8175 19.6222 10.1207L17.4239 8.07932C15.5328 10.1158 14.1566 12.5125 13.2927 15.2483L16.1534 16.1517ZM19.6028 10.1412C21.214 8.47038 23.3345 7.15208 26.0171 6.2163L25.029 3.3837C21.9782 4.44792 19.4321 5.99627 17.4433 8.05879L19.6028 10.1412ZM26.0357 6.20969C28.7588 5.21945 32.1413 4.7 36.223 4.7V1.7C31.9048 1.7 28.1539 2.24721 25.0104 3.39031L26.0357 6.20969ZM36.223 4.7C40.0239 4.7 43.3148 5.21571 46.1205 6.21332L47.1256 3.38667C43.9313 2.25095 40.2888 1.7 36.223 1.7V4.7ZM46.158 6.22609C49.1198 7.19187 51.7354 8.40731 54.0155 9.86404L55.6306 7.33595C53.1107 5.72601 50.2597 4.40812 47.0881 3.3739L46.158 6.22609ZM53.4265 8.05268L47.6265 22.8527L50.4196 23.9473L56.2196 9.14731L53.4265 8.05268ZM49.7673 22.0976C48.7944 21.5417 47.7253 20.9903 46.5617 20.4428L45.2844 23.1572C46.3875 23.6764 47.385 24.1916 48.2788 24.7024L49.7673 22.0976ZM46.5617 20.4428C45.189 19.7968 43.6287 19.5 41.923 19.5V22.5C43.2841 22.5 44.3905 22.7366 45.2844 23.1572L46.5617 20.4428ZM41.923 19.5C40.5419 19.5 39.2929 19.6792 38.2461 20.1154L39.4 22.8846C39.9532 22.6541 40.7708 22.5 41.923 22.5V19.5ZM38.3104 20.0903C37.3192 20.4508 36.4838 21.0501 35.839 21.8791L38.2071 23.7209C38.4956 23.3499 38.8602 23.0826 39.3357 22.9097L38.3104 20.0903ZM35.823 21.9C35.2509 22.6629 34.9078 23.5671 34.7435 24.5534L37.7026 25.0466C37.8049 24.4329 37.9952 24.0038 38.223 23.7L35.823 21.9ZM34.7472 24.5317C34.5955 25.3664 34.523 26.2575 34.523 27.2H37.523C37.523 26.4092 37.584 25.7002 37.6989 25.0683L34.7472 24.5317ZM34.523 27.2V30.6H37.523V27.2H34.523ZM36.023 32.1H48.1231V29.1H36.023V32.1ZM46.6231 30.6V45.9H49.6231V30.6H46.6231ZM48.1231 44.4H36.323V47.4H48.1231V44.4ZM34.823 45.9V80H37.823V45.9H34.823ZM36.323 78.5H13.523V81.5H36.323V78.5ZM15.023 80V45.9H12.023V80H15.023Z" fill="white"/>
</svg>
