<svg width="63" height="105" viewBox="0 0 63 105" fill="none" xmlns="http://www.w3.org/2000/svg">
<path d="M6.33398 83.6C9.46732 85.0667 12.4007 86.0333 15.134 86.5C17.8673 87.0333 20.934 87.3 24.334 87.3C26.0673 87.3 27.7007 87.1333 29.234 86.8C30.7673 86.4667 32.0673 85.9333 33.134 85.2C34.2673 84.4667 35.134 83.5 35.734 82.3C36.4007 81.1 36.734 79.6333 36.734 77.9V75.6C34.8673 76.9333 33.0007 77.9667 31.134 78.7C29.334 79.3667 27.0673 79.7 24.334 79.7C17.334 79.7 11.834 77.7 7.83398 73.7C3.83398 69.6333 1.83398 63.4 1.83398 55C1.83398 51.5333 2.26732 48.2333 3.13398 45.1C4.00065 41.9667 5.30065 39.2667 7.03398 37C8.83398 34.6667 11.0673 32.8333 13.734 31.5C16.4673 30.1 19.7007 29.4 23.434 29.4C25.234 29.4 26.8007 29.5667 28.134 29.9C29.4673 30.2333 30.634 30.7 31.634 31.3C32.7007 31.9 33.634 32.6 34.434 33.4C35.3007 34.2 36.1007 35.0333 36.834 35.9V30.6H59.134V75.4C59.134 84.6667 56.7007 91.7667 51.834 96.7C46.9673 101.7 39.2007 104.2 28.534 104.2C24.8007 104.2 21.1673 103.967 17.634 103.5C14.1673 103.033 10.4007 102.033 6.33398 100.5V83.6ZM31.534 63.8C33.0007 63.8 34.0673 63.0667 34.734 61.6C35.4007 60.1333 35.734 58.1 35.734 55.5C35.734 52.8333 35.4007 50.7667 34.734 49.3C34.134 47.8333 33.0673 47.1 31.534 47.1C30.0007 47.1 28.9007 47.8333 28.234 49.3C27.634 50.7667 27.334 52.8333 27.334 55.5C27.334 58.1 27.634 60.1333 28.234 61.6C28.9007 63.0667 30.0007 63.8 31.534 63.8Z" fill="black"/>
<path d="M6.33398 83.6L6.96989 82.2415L4.83398 81.2417V83.6H6.33398ZM15.134 86.5L15.4213 85.0278L15.4039 85.0244L15.3864 85.0214L15.134 86.5ZM33.134 85.2L32.3191 83.9406L32.3015 83.952L32.2842 83.9639L33.134 85.2ZM35.734 82.3L34.4227 81.5715L34.4069 81.6L34.3923 81.6292L35.734 82.3ZM36.734 75.6H38.234V72.6852L35.8621 74.3794L36.734 75.6ZM31.134 78.7L31.655 80.1066L31.6688 80.1015L31.6825 80.0961L31.134 78.7ZM7.83398 73.7L6.76456 74.7519L6.77332 74.7607L7.83398 73.7ZM3.13398 45.1L4.5797 45.4999L4.5797 45.4999L3.13398 45.1ZM7.03398 37L5.8463 36.0838L5.84245 36.0888L7.03398 37ZM13.734 31.5L14.4048 32.8416L14.4113 32.8384L14.4178 32.8351L13.734 31.5ZM28.134 29.9L28.4978 28.4448L28.4978 28.4448L28.134 29.9ZM31.634 31.3L30.8622 32.5862L30.8803 32.5971L30.8986 32.6074L31.634 31.3ZM34.434 33.4L33.3733 34.4607L33.3945 34.4819L33.4166 34.5022L34.434 33.4ZM36.834 35.9L35.6889 36.8689L38.334 39.9949V35.9H36.834ZM36.834 30.6V29.1H35.334V30.6H36.834ZM59.134 30.6H60.634V29.1H59.134V30.6ZM51.834 96.7L50.7661 95.6466L50.7591 95.6538L51.834 96.7ZM17.634 103.5L17.4339 104.987L17.4376 104.987L17.634 103.5ZM6.33398 100.5H4.83398V101.538L5.80478 101.904L6.33398 100.5ZM34.734 61.6L36.0995 62.2207L36.0995 62.2207L34.734 61.6ZM34.734 49.3L33.3457 49.8679L33.3565 49.8945L33.3684 49.9207L34.734 49.3ZM28.234 49.3L26.8684 48.6793L26.8565 48.7055L26.8457 48.7321L28.234 49.3ZM28.234 61.6L26.8457 62.1679L26.8565 62.1945L26.8684 62.2207L28.234 61.6ZM5.69807 84.9585C8.92455 86.4688 11.9876 87.4845 14.8815 87.9786L15.3864 85.0214C12.8137 84.5822 10.0101 83.6645 6.96989 82.2415L5.69807 84.9585ZM14.8467 87.9722C17.6927 88.5276 20.8578 88.8 24.334 88.8V85.8C21.0101 85.8 18.0419 85.5391 15.4213 85.0278L14.8467 87.9722ZM24.334 88.8C26.1634 88.8 27.9044 88.6241 29.5526 88.2658L28.9153 85.3342C27.4969 85.6426 25.9712 85.8 24.334 85.8V88.8ZM29.5526 88.2658C31.2369 87.8996 32.7265 87.3004 33.9838 86.4361L32.2842 83.9639C31.4081 84.5662 30.2978 85.0337 28.9153 85.3342L29.5526 88.2658ZM33.9489 86.4594C35.3057 85.5814 36.355 84.4121 37.0756 82.9708L34.3923 81.6292C33.913 82.5879 33.2289 83.352 32.3191 83.9406L33.9489 86.4594ZM37.0452 83.0285C37.8641 81.5545 38.234 79.8225 38.234 77.9H35.234C35.234 79.4441 34.9372 80.6455 34.4227 81.5715L37.0452 83.0285ZM38.234 77.9V75.6H35.234V77.9H38.234ZM35.8621 74.3794C34.0816 75.6512 32.3226 76.6215 30.5855 77.3039L31.6825 80.0961C33.6787 79.3119 35.653 78.2155 37.6058 76.8206L35.8621 74.3794ZM30.613 77.2934C29.0342 77.8781 26.9587 78.2 24.334 78.2V81.2C27.1759 81.2 29.6337 80.8552 31.655 80.1066L30.613 77.2934ZM24.334 78.2C17.6317 78.2 12.5497 76.2944 8.89464 72.6393L6.77332 74.7607C11.1183 79.1056 17.0363 81.2 24.334 81.2V78.2ZM8.90337 72.6481C5.28627 68.9708 3.33398 63.1911 3.33398 55H0.333984C0.333984 63.6089 2.3817 70.2959 6.7646 74.7519L8.90337 72.6481ZM3.33398 55C3.33398 51.6595 3.75137 48.4946 4.5797 45.4999L1.68827 44.7001C0.78327 47.972 0.333984 51.4071 0.333984 55H3.33398ZM4.5797 45.4999C5.40224 42.5261 6.62398 40.0055 8.22552 37.9112L5.84245 36.0888C3.97732 38.5278 2.59906 41.4072 1.68827 44.7001L4.5797 45.4999ZM8.22166 37.9162C9.88196 35.764 11.9378 34.0751 14.4048 32.8416L13.0632 30.1584C10.1968 31.5915 7.78601 33.5694 5.84631 36.0838L8.22166 37.9162ZM14.4178 32.8351C16.8986 31.5644 19.8878 30.9 23.434 30.9V27.9C19.5135 27.9 16.036 28.6356 13.0502 30.1649L14.4178 32.8351ZM23.434 30.9C25.1468 30.9 26.5859 31.0591 27.7702 31.3552L28.4978 28.4448C27.0154 28.0742 25.3211 27.9 23.434 27.9V30.9ZM27.7702 31.3552C28.9848 31.6589 30.0094 32.0745 30.8622 32.5862L32.4057 30.0138C31.2586 29.3255 29.9498 28.8078 28.4978 28.4448L27.7702 31.3552ZM30.8986 32.6074C31.8558 33.1458 32.6775 33.7649 33.3733 34.4607L35.4946 32.3393C34.5904 31.4351 33.5455 30.6542 32.3694 29.9926L30.8986 32.6074ZM33.4166 34.5022C34.2397 35.262 34.9969 36.051 35.6889 36.8689L37.9791 34.9311C37.2044 34.0156 36.3616 33.1379 35.4514 32.2978L33.4166 34.5022ZM38.334 35.9V30.6H35.334V35.9H38.334ZM36.834 32.1H59.134V29.1H36.834V32.1ZM57.634 30.6V75.4H60.634V30.6H57.634ZM57.634 75.4C57.634 84.4093 55.2727 91.0783 50.7661 95.6466L52.9018 97.7534C58.1286 92.455 60.634 84.924 60.634 75.4H57.634ZM50.7591 95.6538C46.294 100.241 39.0066 102.7 28.534 102.7V105.7C39.3947 105.7 47.6406 103.159 52.9089 97.7462L50.7591 95.6538ZM28.534 102.7C24.8632 102.7 21.2956 102.471 17.8304 102.013L17.4376 104.987C21.039 105.463 24.7381 105.7 28.534 105.7V102.7ZM17.8341 102.013C14.5032 101.565 10.8481 100.599 6.86319 99.0965L5.80478 101.904C9.9532 103.468 13.8315 104.502 17.4339 104.987L17.8341 102.013ZM7.83398 100.5V83.6H4.83398V100.5H7.83398ZM31.534 65.3C32.5289 65.3 33.468 65.0469 34.2838 64.4861C35.0907 63.9313 35.6808 63.1419 36.0995 62.2207L33.3684 60.9793C33.1205 61.5247 32.8439 61.8354 32.5842 62.0139C32.3333 62.1864 32.0057 62.3 31.534 62.3V65.3ZM36.0995 62.2207C36.8928 60.4756 37.234 58.198 37.234 55.5H34.234C34.234 58.002 33.9085 59.7911 33.3684 60.9793L36.0995 62.2207ZM37.234 55.5C37.234 52.7419 36.8944 50.4281 36.0995 48.6793L33.3684 49.9207C33.9069 51.1053 34.234 52.9248 34.234 55.5H37.234ZM36.1223 48.732C35.7367 47.7894 35.157 46.9799 34.3338 46.4139C33.507 45.8456 32.5468 45.6 31.534 45.6V48.6C32.0545 48.6 32.3943 48.7211 32.6342 48.8861C32.8777 49.0534 33.1313 49.344 33.3457 49.8679L36.1223 48.732ZM31.534 45.6C30.5197 45.6 29.5608 45.846 28.7269 46.4019C27.8978 46.9547 27.2922 47.747 26.8684 48.6793L29.5995 49.9207C29.8424 49.3863 30.1202 49.0786 30.391 48.8981C30.6571 48.7207 31.0149 48.6 31.534 48.6V45.6ZM26.8457 48.7321C26.1382 50.4613 25.834 52.7534 25.834 55.5H28.834C28.834 52.9133 29.1297 51.072 29.6223 49.8679L26.8457 48.7321ZM25.834 55.5C25.834 58.1859 26.1396 60.442 26.8457 62.1679L29.6223 61.0321C29.1284 59.8247 28.834 58.0141 28.834 55.5H25.834ZM26.8684 62.2207C27.2922 63.153 27.8978 63.9453 28.7269 64.4981C29.5608 65.054 30.5197 65.3 31.534 65.3V62.3C31.0149 62.3 30.6571 62.1793 30.391 62.0019C30.1202 61.8214 29.8424 61.5137 29.5995 60.9793L26.8684 62.2207Z" fill="white"/>
</svg>
