<svg width="73" height="105" viewBox="0 0 73 105" fill="none" xmlns="http://www.w3.org/2000/svg">
<path d="M11.034 22.2C11.034 21.4667 10.8673 20.9 10.534 20.5C10.2007 20.0333 9.66732 19.8 8.93398 19.8C8.13398 19.8 7.36732 19.9667 6.63398 20.3C5.96732 20.5667 5.30065 20.8667 4.63398 21.2L0.333984 10C1.33398 9.26666 2.53398 8.5 3.93398 7.7C5.33398 6.9 6.83398 6.16666 8.43398 5.49999C10.034 4.83333 11.7007 4.3 13.434 3.9C15.1673 3.43333 16.9007 3.2 18.634 3.2C21.834 3.2 24.434 3.6 26.434 4.4C28.434 5.13333 29.9673 6.19999 31.034 7.6C32.1673 8.93333 32.9007 10.5333 33.234 12.4C33.634 14.2667 33.834 16.3 33.834 18.5V34.6C35.7673 32.8667 37.8007 31.5667 39.934 30.7C42.134 29.8333 44.8007 29.4 47.934 29.4C53.334 29.4 57.2007 30.9 59.534 33.9C61.934 36.8333 63.134 40.9 63.134 46.1V62.4C63.134 63.1333 63.3007 63.7333 63.634 64.2C63.9673 64.6667 64.5007 64.9 65.234 64.9C66.034 64.9 66.7007 64.7667 67.234 64.5C67.7673 64.2333 68.3673 63.9333 69.034 63.6L72.034 75.7C69.9673 77.2333 67.434 78.5333 64.434 79.6C61.434 80.6667 58.4673 81.2 55.534 81.2C45.4007 81.2 40.334 76.8667 40.334 68.2V53.9C40.334 50.9667 39.3007 49.5 37.234 49.5C36.1673 49.5 35.334 49.9 34.734 50.7C34.134 51.5 33.834 52.5667 33.834 53.9V80H11.034V22.2Z" fill="black"/>
<path d="M10.534 20.5L9.31338 21.3719L9.34587 21.4173L9.38165 21.4603L10.534 20.5ZM6.63398 20.3L7.19106 21.6927L7.22319 21.6799L7.25469 21.6655L6.63398 20.3ZM4.63398 21.2L3.23364 21.7376L3.82617 23.281L5.30481 22.5416L4.63398 21.2ZM0.333984 10L-0.55306 8.79039L-1.47703 9.46796L-1.06636 10.5376L0.333984 10ZM3.93398 7.7L3.18978 6.39763L3.18977 6.39763L3.93398 7.7ZM8.43398 5.49999L7.85706 4.11538L7.85706 4.11538L8.43398 5.49999ZM13.434 3.9L13.7713 5.36158L13.7977 5.35548L13.8239 5.34842L13.434 3.9ZM26.434 4.4L25.8769 5.79271L25.8971 5.80081L25.9176 5.80831L26.434 4.4ZM31.034 7.6L29.8408 8.50906L29.8651 8.54094L29.8911 8.57147L31.034 7.6ZM33.234 12.4L31.7573 12.6637L31.7619 12.6891L31.7673 12.7143L33.234 12.4ZM33.834 34.6H32.334V37.9594L34.8353 35.7169L33.834 34.6ZM39.934 30.7L39.3842 29.3044L39.3768 29.3073L39.3694 29.3103L39.934 30.7ZM59.534 33.9L58.35 34.8209L58.3613 34.8355L58.3731 34.8499L59.534 33.9ZM63.634 64.2L64.8546 63.3281L63.634 64.2ZM67.234 64.5L67.9048 65.8416L67.9048 65.8416L67.234 64.5ZM69.034 63.6L70.4899 63.239L70.039 61.4204L68.3632 62.2584L69.034 63.6ZM72.034 75.7L72.9278 76.9046L73.7304 76.3091L73.4899 75.339L72.034 75.7ZM64.434 79.6L64.9365 81.0133L64.434 79.6ZM34.734 50.7L33.534 49.8L33.534 49.8L34.734 50.7ZM33.834 80V81.5H35.334V80H33.834ZM11.034 80H9.53398V81.5H11.034V80ZM12.534 22.2C12.534 21.2571 12.3207 20.3009 11.6863 19.5397L9.38165 21.4603C9.41397 21.499 9.53398 21.6762 9.53398 22.2H12.534ZM11.7546 19.6281C11.0626 18.6593 10.0018 18.3 8.93398 18.3V21.3C9.14564 21.3 9.24808 21.3341 9.28275 21.3492C9.30535 21.3591 9.30654 21.3623 9.31338 21.3719L11.7546 19.6281ZM8.93398 18.3C7.91833 18.3 6.94015 18.5131 6.01327 18.9345L7.25469 21.6655C7.79449 21.4202 8.34964 21.3 8.93398 21.3V18.3ZM6.0769 18.9073C5.3702 19.19 4.66561 19.5071 3.96316 19.8584L5.30481 22.5416C5.93569 22.2262 6.56444 21.9434 7.19106 21.6927L6.0769 18.9073ZM6.03432 20.6624L1.73432 9.46236L-1.06636 10.5376L3.23364 21.7376L6.03432 20.6624ZM1.22103 11.2096C2.164 10.5181 3.31377 9.78203 4.67819 9.00236L3.18977 6.39763C1.7542 7.21796 0.503965 8.01524 -0.55306 8.79039L1.22103 11.2096ZM4.67819 9.00236C6.02035 8.23542 7.46409 7.52912 9.01091 6.88461L7.85706 4.11538C6.20388 4.80421 4.64762 5.56458 3.18978 6.39763L4.67819 9.00236ZM9.01091 6.88461C10.5313 6.25111 12.1177 5.74318 13.7713 5.36158L13.0967 2.43841C11.2836 2.85681 9.53665 3.41555 7.85706 4.11538L9.01091 6.88461ZM13.8239 5.34842C15.4347 4.91477 17.037 4.7 18.634 4.7V1.7C16.7643 1.7 14.9 1.9519 13.044 2.45157L13.8239 5.34842ZM18.634 4.7C21.7272 4.7 24.1182 5.08925 25.8769 5.79271L26.9911 3.00728C24.7497 2.11075 21.9408 1.7 18.634 1.7V4.7ZM25.9176 5.80831C27.7059 6.46403 28.9809 7.38045 29.8408 8.50906L32.2271 6.69093C30.9537 5.01954 29.162 3.80262 26.9504 2.99168L25.9176 5.80831ZM29.8911 8.57147C30.8383 9.68579 31.4666 11.0358 31.7573 12.6637L34.7106 12.1363C34.3347 10.0309 33.4964 8.18087 32.1769 6.62852L29.8911 8.57147ZM31.7673 12.7143C32.1421 14.4634 32.334 16.39 32.334 18.5H35.334C35.334 16.21 35.1259 14.0699 34.7007 12.0857L31.7673 12.7143ZM32.334 18.5V34.6H35.334V18.5H32.334ZM34.8353 35.7169C36.6561 34.0844 38.5445 32.8835 40.4986 32.0897L39.3694 29.3103C37.0568 30.2498 34.8785 31.649 32.8327 33.4831L34.8353 35.7169ZM40.4838 32.0956C42.4619 31.3163 44.931 30.9 47.934 30.9V27.9C44.6703 27.9 41.806 28.3503 39.3842 29.3044L40.4838 32.0956ZM47.934 30.9C53.0761 30.9 56.4066 32.3222 58.35 34.8209L60.718 32.9791C57.9947 29.4777 53.5919 27.9 47.934 27.9V30.9ZM58.3731 34.8499C60.4845 37.4305 61.634 41.1183 61.634 46.1H64.634C64.634 40.6817 63.3835 36.2361 60.6949 32.9501L58.3731 34.8499ZM61.634 46.1V62.4H64.634V46.1H61.634ZM61.634 62.4C61.634 63.3587 61.8534 64.2879 62.4134 65.0719L64.8546 63.3281C64.7479 63.1787 64.634 62.908 64.634 62.4H61.634ZM62.4134 65.0719C63.1054 66.0407 64.1662 66.4 65.234 66.4V63.4C65.0223 63.4 64.9199 63.3659 64.8852 63.3508C64.8626 63.3409 64.8614 63.3377 64.8546 63.3281L62.4134 65.0719ZM65.234 66.4C66.191 66.4 67.1045 66.2418 67.9048 65.8416L66.5632 63.1584C66.2968 63.2916 65.877 63.4 65.234 63.4V66.4ZM67.9048 65.8416C67.9048 65.8416 68.0051 65.7915 68.0056 65.7912C68.0509 65.7686 67.9857 65.8012 68.031 65.7785C68.031 65.7785 68.0438 65.7722 68.0438 65.7722C68.0551 65.7665 68.0452 65.7714 68.0566 65.7658C68.0566 65.7658 68.0822 65.753 68.0822 65.7529C68.0936 65.7472 68.0965 65.7458 68.1079 65.7401C68.109 65.7395 68.1101 65.739 68.1112 65.7385C68.1122 65.7379 68.1133 65.7374 68.1144 65.7369C68.1172 65.7354 68.118 65.7351 68.1208 65.7336C68.1266 65.7308 68.128 65.73 68.1338 65.7272C68.1338 65.7272 68.1597 65.7142 68.1597 65.7142C68.1828 65.7026 68.1886 65.6998 68.2118 65.6881C68.2118 65.6881 68.2184 65.6849 68.2184 65.6849C68.2242 65.6819 68.2191 65.6845 68.2249 65.6816C68.2366 65.6757 68.2264 65.6808 68.2381 65.675C68.2497 65.6692 68.2527 65.6677 68.2644 65.6619C68.2761 65.656 68.2658 65.6611 68.2776 65.6553C68.2834 65.6523 68.2783 65.6549 68.2842 65.652C68.2853 65.6514 68.2864 65.6509 68.2875 65.6503C68.2886 65.6497 68.2897 65.6492 68.2908 65.6486C68.2908 65.6486 68.3173 65.6354 68.3173 65.6354C68.5075 65.5403 68.5563 65.5159 68.7548 65.4166C68.8048 65.3916 68.7611 65.4135 68.8113 65.3884C68.8365 65.3758 68.8427 65.3727 68.8681 65.36C68.9187 65.3347 68.9318 65.3282 68.9829 65.3026C69.0863 65.2509 69.1118 65.2381 69.2173 65.1854C69.4284 65.0798 69.4854 65.0514 69.7048 64.9416L68.3632 62.2584C68.3354 62.2722 68.3285 62.2757 68.3009 62.2895C68.2974 62.2912 68.2888 62.2955 68.2853 62.2973C68.2836 62.2981 68.2793 62.3003 68.2776 62.3011C68.2763 62.3018 68.275 62.3024 68.2737 62.3031C68.2724 62.3037 68.2711 62.3044 68.2699 62.305C68.2686 62.3057 68.2673 62.3063 68.266 62.3069C68.2647 62.3076 68.2634 62.3082 68.2621 62.3089C68.2604 62.3097 68.2561 62.3119 68.2544 62.3127C68.251 62.3145 68.2424 62.3188 68.2389 62.3205C68.2114 62.3342 68.1433 62.3683 68.1163 62.3818C68.0618 62.4091 67.9281 62.4759 67.8757 62.5021C67.8492 62.5153 67.7837 62.5481 67.7577 62.5611C67.7447 62.5676 67.7122 62.5838 67.6993 62.5903C67.6981 62.5909 67.6969 62.5915 67.6957 62.5921C67.6945 62.5927 67.6932 62.5933 67.692 62.5939C67.6908 62.5945 67.6896 62.5951 67.6884 62.5957C67.6872 62.5964 67.686 62.597 67.6848 62.5976C67.6815 62.5992 67.6807 62.5996 67.6775 62.6012C67.6763 62.6018 67.6751 62.6024 67.6739 62.603C67.6727 62.6036 67.6715 62.6042 67.6702 62.6048C67.669 62.6054 67.6678 62.606 67.6666 62.6066C67.6654 62.6072 67.6642 62.6078 67.663 62.6084C67.6618 62.609 67.6606 62.6096 67.6594 62.6103C67.6582 62.6109 67.657 62.6115 67.6558 62.6121C67.6546 62.6127 67.6533 62.6133 67.6521 62.6139C67.6509 62.6145 67.6497 62.6151 67.6485 62.6157C67.6473 62.6163 67.6461 62.6169 67.6449 62.6175C67.6437 62.6181 67.6425 62.6187 67.6413 62.6193C67.6285 62.6257 67.6252 62.6273 67.6124 62.6337C67.6108 62.6345 67.6068 62.6365 67.6052 62.6373C67.604 62.6379 67.6028 62.6385 67.6016 62.6391C67.6004 62.6397 67.5992 62.6403 67.598 62.6409C67.5968 62.6415 67.5956 62.6421 67.5944 62.6427C67.5933 62.6433 67.5921 62.6439 67.5909 62.6445C67.5893 62.6453 67.5853 62.6473 67.5837 62.6481C67.5709 62.6545 67.5677 62.6561 67.555 62.6624C67.5423 62.6688 67.5391 62.6704 67.5264 62.6767C67.5253 62.6773 67.5241 62.6779 67.5229 62.6785C67.5217 62.6791 67.5205 62.6797 67.5193 62.6803C67.5181 62.6809 67.5169 62.6815 67.5158 62.6821C67.5146 62.6827 67.5134 62.6832 67.5122 62.6838C67.511 62.6844 67.5098 62.685 67.5086 62.6856C67.5075 62.6862 67.5063 62.6868 67.5051 62.6874C67.5039 62.688 67.5027 62.6886 67.5015 62.6892C67.5003 62.6898 67.4992 62.6904 67.498 62.691C67.4727 62.7036 67.4948 62.6925 67.4696 62.7051C67.4684 62.7057 67.4673 62.7063 67.4661 62.7069C67.4649 62.7075 67.4637 62.7081 67.4625 62.7087C67.4614 62.7093 67.4602 62.7099 67.459 62.7104C67.4578 62.711 67.4566 62.7116 67.4555 62.7122C67.4543 62.7128 67.4531 62.7134 67.4519 62.714C67.4508 62.7146 67.4496 62.7152 67.4484 62.7157C67.4472 62.7163 67.446 62.7169 67.4449 62.7175C67.4437 62.7181 67.4425 62.7187 67.4413 62.7193C67.4402 62.7199 67.439 62.7204 67.4378 62.721C67.4366 62.7216 67.4355 62.7222 67.4343 62.7228C67.4331 62.7234 67.4319 62.724 67.4308 62.7246C67.4296 62.7251 67.4284 62.7257 67.4272 62.7263C67.4261 62.7269 67.4249 62.7275 67.4237 62.7281C67.4225 62.7287 67.4214 62.7293 67.4202 62.7298C67.419 62.7304 67.4179 62.731 67.4167 62.7316C67.4155 62.7322 67.4143 62.7328 67.4132 62.7334C67.2146 62.8327 67.1659 62.857 66.9757 62.9521C66.8821 62.9989 66.9632 62.9583 66.8702 63.0048C66.8644 63.0078 66.8499 63.015 66.8441 63.0179C66.8412 63.0194 66.8339 63.023 66.831 63.0244C66.8296 63.0251 66.826 63.0269 66.8245 63.0277C66.8235 63.0282 66.8224 63.0288 66.8213 63.0293C66.8202 63.0298 66.8191 63.0304 66.818 63.0309C66.817 63.0315 66.8159 63.032 66.8148 63.0325C66.8137 63.0331 66.8126 63.0336 66.8116 63.0342C66.8101 63.0349 66.8065 63.0367 66.8051 63.0374C66.8022 63.0388 66.795 63.0424 66.7921 63.0439C66.7864 63.0468 66.772 63.0539 66.7663 63.0568C66.7548 63.0625 66.7263 63.0768 66.7149 63.0825C66.7135 63.0832 66.71 63.085 66.7085 63.0857C66.7075 63.0862 66.7064 63.0867 66.7053 63.0873C66.7043 63.0878 66.7032 63.0883 66.7021 63.0889C66.7011 63.0894 66.7 63.0899 66.699 63.0905C66.6979 63.091 66.6968 63.0915 66.6958 63.0921C66.6947 63.0926 66.6936 63.0931 66.6926 63.0937C66.6915 63.0942 66.6904 63.0947 66.6894 63.0952C66.6883 63.0958 66.6873 63.0963 66.6862 63.0968C66.6851 63.0974 66.6841 63.0979 66.683 63.0984C66.682 63.099 66.6809 63.0995 66.6798 63.1C66.6788 63.1006 66.6777 63.1011 66.6767 63.1016C66.6752 63.1023 66.6717 63.1041 66.6703 63.1048C66.6692 63.1053 66.6682 63.1059 66.6671 63.1064C66.6661 63.1069 66.665 63.1074 66.6639 63.108C66.6414 63.1192 66.6611 63.1094 66.6386 63.1206C66.633 63.1235 66.619 63.1305 66.6134 63.1333C66.6123 63.1338 66.6113 63.1343 66.6102 63.1348C66.6092 63.1354 66.6081 63.1359 66.6071 63.1364C66.606 63.1369 66.605 63.1375 66.6039 63.138C66.6029 63.1385 66.6018 63.139 66.6008 63.1396C66.5994 63.1403 66.5959 63.142 66.5945 63.1427C66.5889 63.1455 66.5938 63.143 66.5882 63.1458C66.5872 63.1464 66.5861 63.1469 66.5851 63.1474C66.584 63.1479 66.583 63.1484 66.5819 63.149C66.5809 63.1495 66.5799 63.15 66.5788 63.1505C66.5778 63.1511 66.5767 63.1516 66.5757 63.1521C66.5729 63.1535 66.5659 63.157 66.5632 63.1584L67.9048 65.8416ZM67.5781 63.961L70.5781 76.061L73.4899 75.339L70.4899 63.239L67.5781 63.961ZM71.1402 74.4954C69.2173 75.922 66.8232 77.1585 63.9315 78.1867L64.9365 81.0133C68.0447 79.9082 70.7174 78.5446 72.9278 76.9046L71.1402 74.4954ZM63.9315 78.1867C61.079 79.2009 58.282 79.7 55.534 79.7V82.7C58.6526 82.7 61.789 82.1324 64.9365 81.0133L63.9315 78.1867ZM55.534 79.7C50.6462 79.7 47.2602 78.6499 45.1089 76.8101C43.0026 75.0086 41.834 72.2355 41.834 68.2H38.834C38.834 72.8312 40.1987 76.5581 43.159 79.0899C46.0745 81.5834 50.2885 82.7 55.534 82.7V79.7ZM41.834 68.2V53.9H38.834V68.2H41.834ZM41.834 53.9C41.834 52.303 41.561 50.8371 40.7852 49.7361C39.9417 48.5389 38.6698 48 37.234 48V51C37.8648 51 38.1429 51.1944 38.3328 51.4639C38.5903 51.8295 38.834 52.5637 38.834 53.9H41.834ZM37.234 48C35.7318 48 34.4386 48.5939 33.534 49.8L35.934 51.6C36.2294 51.2061 36.6028 51 37.234 51V48ZM33.534 49.8C32.6834 50.9341 32.334 52.3495 32.334 53.9H35.334C35.334 52.7838 35.5846 52.0659 35.934 51.6L33.534 49.8ZM32.334 53.9V80H35.334V53.9H32.334ZM33.834 78.5H11.034V81.5H33.834V78.5ZM12.534 80V22.2H9.53398V80H12.534Z" fill="white"/>
</svg>
