<svg width="51" height="105" viewBox="0 0 51 105" fill="none" xmlns="http://www.w3.org/2000/svg">
<path d="M13.1289 13.9C13.1289 10.9667 14.1622 8.53333 16.2289 6.6C18.2956 4.66666 21.5289 3.7 25.9289 3.7C30.3289 3.7 33.5622 4.66666 35.6289 6.6C37.7622 8.53333 38.8289 10.9667 38.8289 13.9C38.8289 16.8333 37.7622 19.3 35.6289 21.3C33.5622 23.2333 30.3289 24.2 25.9289 24.2C21.5289 24.2 18.2956 23.2333 16.2289 21.3C14.1622 19.3 13.1289 16.8333 13.1289 13.9ZM3.12891 85.2C4.46224 85.6667 5.69557 86 6.82891 86.2C7.96224 86.4667 9.26224 86.6 10.7289 86.6C12.2622 86.6 13.4289 86.1333 14.2289 85.2C15.0956 84.3333 15.5289 82.9333 15.5289 81V48.4C15.5289 47.6667 15.3622 47.1 15.0289 46.7C14.6956 46.2333 14.1622 46 13.4289 46C12.6289 46 11.8622 46.1667 11.1289 46.5C10.4622 46.7667 9.79557 47.0667 9.12891 47.4L6.02891 35.4C7.02891 34.6667 8.19557 33.9333 9.52891 33.2C10.9289 32.4667 12.3956 31.8333 13.9289 31.3C15.4622 30.7 16.9956 30.2333 18.5289 29.9C20.1289 29.5667 21.6622 29.4 23.1289 29.4C26.3289 29.4 28.9289 29.8 30.9289 30.6C32.9289 31.3333 34.4622 32.4 35.5289 33.8C36.6622 35.1333 37.3956 36.7333 37.7289 38.6C38.1289 40.4667 38.3289 42.5 38.3289 44.7V85.5C38.3289 91.1 36.8289 95.5333 33.8289 98.8C30.8956 102.133 26.6956 103.8 21.2289 103.8C17.0956 103.8 13.6622 103.533 10.9289 103C8.19557 102.467 5.59557 101.733 3.12891 100.8V85.2Z" fill="black"/>
<path d="M16.2289 6.6L15.2042 5.50459L15.2042 5.50459L16.2289 6.6ZM35.6289 6.6L34.6042 7.6954L34.6128 7.70351L34.6216 7.71148L35.6289 6.6ZM35.6289 21.3L36.6536 22.3954L36.6548 22.3943L35.6289 21.3ZM16.2289 21.3L15.1858 22.3779L15.1949 22.3867L15.2042 22.3954L16.2289 21.3ZM3.12891 85.2L3.62443 83.7842L1.62891 83.0858V85.2H3.12891ZM6.82891 86.2L7.17246 84.7399L7.13127 84.7302L7.08958 84.7228L6.82891 86.2ZM14.2289 85.2L13.1682 84.1393L13.1275 84.1801L13.09 84.2238L14.2289 85.2ZM15.0289 46.7L13.8083 47.5719L13.8408 47.6173L13.8766 47.6603L15.0289 46.7ZM11.1289 46.5L11.686 47.8927L11.7181 47.8799L11.7496 47.8655L11.1289 46.5ZM9.12891 47.4L7.67658 47.7752L8.14056 49.5712L9.79973 48.7416L9.12891 47.4ZM6.02891 35.4L5.14186 34.1904L4.32242 34.7913L4.57658 35.7752L6.02891 35.4ZM9.52891 33.2L8.8329 31.8713L8.81939 31.8783L8.80603 31.8857L9.52891 33.2ZM13.9289 31.3L14.4217 32.7167L14.4488 32.7073L14.4755 32.6969L13.9289 31.3ZM18.5289 29.9L18.223 28.4315L18.2103 28.4342L18.5289 29.9ZM30.9289 30.6L30.3718 31.9927L30.3921 32.0008L30.4125 32.0083L30.9289 30.6ZM35.5289 33.8L34.3358 34.7091L34.36 34.7409L34.386 34.7715L35.5289 33.8ZM37.7289 38.6L36.2523 38.8637L36.2568 38.8891L36.2622 38.9143L37.7289 38.6ZM33.8289 98.8L32.7241 97.7854L32.7134 97.7971L32.7028 97.8091L33.8289 98.8ZM10.9289 103L11.2162 101.528L11.2162 101.528L10.9289 103ZM3.12891 100.8H1.62891V101.836L2.59807 102.203L3.12891 100.8ZM14.6289 13.9C14.6289 11.3647 15.5024 9.33363 17.2536 7.6954L15.2042 5.50459C12.822 7.73303 11.6289 10.5686 11.6289 13.9H14.6289ZM17.2536 7.6954C18.9228 6.13392 21.7059 5.2 25.9289 5.2V2.2C21.352 2.2 17.6683 3.19941 15.2042 5.50459L17.2536 7.6954ZM25.9289 5.2C30.152 5.2 32.935 6.13392 34.6042 7.6954L36.6536 5.50459C34.1895 3.19941 30.5059 2.2 25.9289 2.2V5.2ZM34.6216 7.71148C36.4345 9.35441 37.3289 11.381 37.3289 13.9H40.3289C40.3289 10.5523 39.09 7.71225 36.6362 5.48852L34.6216 7.71148ZM37.3289 13.9C37.3289 16.4202 36.4328 18.4903 34.603 20.2057L36.6548 22.3943C39.0917 20.1097 40.3289 17.2465 40.3289 13.9H37.3289ZM34.6042 20.2046C32.935 21.7661 30.152 22.7 25.9289 22.7V25.7C30.5059 25.7 34.1895 24.7006 36.6536 22.3954L34.6042 20.2046ZM25.9289 22.7C21.7059 22.7 18.9228 21.7661 17.2536 20.2046L15.2042 22.3954C17.6683 24.7006 21.352 25.7 25.9289 25.7V22.7ZM17.272 20.2221C15.5039 18.511 14.6289 16.4361 14.6289 13.9H11.6289C11.6289 17.2305 12.8206 20.089 15.1858 22.3779L17.272 20.2221ZM2.63338 86.6158C4.02671 87.1035 5.33954 87.4603 6.56823 87.6772L7.08958 84.7228C6.05161 84.5397 4.89777 84.2299 3.62443 83.7842L2.63338 86.6158ZM6.48535 87.6601C7.75592 87.9591 9.17496 88.1 10.7289 88.1V85.1C9.34951 85.1 8.16856 84.9742 7.17246 84.7399L6.48535 87.6601ZM10.7289 88.1C12.5827 88.1 14.2144 87.5218 15.3678 86.1762L13.09 84.2238C12.6434 84.7448 11.9418 85.1 10.7289 85.1V88.1ZM15.2896 86.2607C16.5632 84.9871 17.0289 83.1088 17.0289 81H14.0289C14.0289 82.7579 13.628 83.6796 13.1682 84.1393L15.2896 86.2607ZM17.0289 81V48.4H14.0289V81H17.0289ZM17.0289 48.4C17.0289 47.4571 16.8156 46.5009 16.1812 45.7397L13.8766 47.6603C13.9089 47.6991 14.0289 47.8762 14.0289 48.4H17.0289ZM16.2495 45.8281C15.5575 44.8593 14.4967 44.5 13.4289 44.5V47.5C13.6406 47.5 13.743 47.5341 13.7777 47.5492C13.8003 47.5591 13.8015 47.5623 13.8083 47.5719L16.2495 45.8281ZM13.4289 44.5C12.4133 44.5 11.4351 44.7131 10.5082 45.1344L11.7496 47.8655C12.2894 47.6202 12.8446 47.5 13.4289 47.5V44.5ZM10.5718 45.1073C9.86512 45.39 9.16053 45.7071 8.45808 46.0584L9.79973 48.7416C10.4306 48.4262 11.0594 48.1434 11.686 47.8927L10.5718 45.1073ZM10.5812 47.0248L7.48123 35.0248L4.57658 35.7752L7.67658 47.7752L10.5812 47.0248ZM6.91595 36.6096C7.85338 35.9222 8.96314 35.2231 10.2518 34.5143L8.80603 31.8857C7.428 32.6436 6.20443 33.4112 5.14186 34.1904L6.91595 36.6096ZM10.2249 34.5287C11.5577 33.8306 12.9563 33.2265 14.4217 32.7167L13.4361 29.8833C11.8349 30.4402 10.3001 31.1027 8.8329 31.8713L10.2249 34.5287ZM14.4755 32.6969C15.9384 32.1244 17.3956 31.6814 18.8476 31.3658L18.2103 28.4342C16.5955 28.7853 14.9861 29.2756 13.3823 29.9031L14.4755 32.6969ZM18.8348 31.3685C20.3455 31.0537 21.7759 30.9 23.1289 30.9V27.9C21.5485 27.9 19.9123 28.0796 18.223 28.4315L18.8348 31.3685ZM23.1289 30.9C26.2221 30.9 28.6132 31.2892 30.3718 31.9927L31.486 29.2073C29.2447 28.3107 26.4357 27.9 23.1289 27.9V30.9ZM30.4125 32.0083C32.2009 32.664 33.4759 33.5805 34.3358 34.7091L36.7221 32.8909C35.4486 31.2195 33.6569 30.0026 31.4453 29.1917L30.4125 32.0083ZM34.386 34.7715C35.3332 35.8858 35.9616 37.2358 36.2523 38.8637L39.2056 38.3363C38.8296 36.2309 37.9913 34.3809 36.6718 32.8285L34.386 34.7715ZM36.2622 38.9143C36.637 40.6634 36.8289 42.59 36.8289 44.7H39.8289C39.8289 42.41 39.6208 40.2699 39.1956 38.2857L36.2622 38.9143ZM36.8289 44.7V85.5H39.8289V44.7H36.8289ZM36.8289 85.5C36.8289 90.8268 35.4082 94.8627 32.7241 97.7854L34.9337 99.8146C38.2496 96.2039 39.8289 91.3732 39.8289 85.5H36.8289ZM32.7028 97.8091C30.1186 100.746 26.3725 102.3 21.2289 102.3V105.3C27.0186 105.3 31.6725 103.521 34.955 99.7909L32.7028 97.8091ZM21.2289 102.3C17.1505 102.3 13.8213 102.036 11.2162 101.528L10.6416 104.472C13.5031 105.031 17.0407 105.3 21.2289 105.3V102.3ZM11.2162 101.528C8.56123 101.01 6.04305 100.299 3.65974 99.3971L2.59807 102.203C5.1481 103.168 7.82991 103.924 10.6416 104.472L11.2162 101.528ZM4.62891 100.8V85.2H1.62891V100.8H4.62891Z" fill="white"/>
</svg>
