<svg width="72" height="105" viewBox="0 0 72 105" fill="none" xmlns="http://www.w3.org/2000/svg">
<path d="M10.9969 22.2C10.9969 21.4667 10.8302 20.9 10.4969 20.5C10.1635 20.0333 9.63021 19.8 8.89688 19.8C8.09688 19.8 7.33021 19.9667 6.59688 20.3C5.93021 20.5667 5.26354 20.8667 4.59687 21.2L0.296875 10C1.29687 9.26666 2.49687 8.5 3.89687 7.7C5.29688 6.9 6.79688 6.16666 8.39688 5.49999C9.99688 4.83333 11.6635 4.3 13.3969 3.9C15.1302 3.43333 16.8635 3.2 18.5969 3.2C21.7969 3.2 24.3969 3.6 26.3969 4.4C28.3969 5.13333 29.9302 6.19999 30.9969 7.6C32.1302 8.93333 32.8635 10.5333 33.1969 12.4C33.5969 14.2667 33.7969 16.3 33.7969 18.5V41.9L60.1969 28.9L67.9969 44.7L55.9969 51L60.8969 62.5C61.3635 63.5667 61.8969 64.2333 62.4969 64.5C63.1635 64.7667 63.9969 64.9 64.9969 64.9C65.7969 64.9 66.4635 64.7667 66.9969 64.5C67.5302 64.2333 68.1302 63.9333 68.7969 63.6L71.7969 75.7C70.8635 76.3667 69.7635 77.0333 68.4969 77.7C67.2969 78.3667 65.9969 78.9667 64.5969 79.5C63.2635 79.9667 61.8635 80.3667 60.3969 80.7C58.9969 81.0333 57.6302 81.2 56.2969 81.2C53.9635 81.2 51.9635 80.9333 50.2969 80.4C48.6969 79.9333 47.2969 79.2333 46.0969 78.3C44.9635 77.3 43.9969 76.1333 43.1969 74.8C42.3969 73.4 41.6302 71.8333 40.8969 70.1L36.5969 59.8L33.7969 61.3V80H10.9969V22.2Z" fill="black"/>
<path d="M10.4969 20.5L9.27627 21.3719L9.30876 21.4173L9.34454 21.4603L10.4969 20.5ZM6.59688 20.3L7.15395 21.6927L7.18608 21.6799L7.21759 21.6655L6.59688 20.3ZM4.59687 21.2L3.19653 21.7376L3.78906 23.281L5.2677 22.5416L4.59687 21.2ZM0.296875 10L-0.590169 8.79039L-1.51414 9.46796L-1.10347 10.5376L0.296875 10ZM3.89687 7.7L3.15267 6.39763L3.15267 6.39763L3.89687 7.7ZM8.39688 5.49999L7.81995 4.11538L7.81995 4.11538L8.39688 5.49999ZM13.3969 3.9L13.7342 5.36158L13.7606 5.35548L13.7868 5.34842L13.3969 3.9ZM26.3969 4.4L25.8398 5.79271L25.86 5.80081L25.8805 5.80831L26.3969 4.4ZM30.9969 7.6L29.8037 8.50906L29.828 8.54094L29.854 8.57147L30.9969 7.6ZM33.1969 12.4L31.7202 12.6637L31.7248 12.6891L31.7302 12.7143L33.1969 12.4ZM33.7969 41.9H32.2969V44.3106L34.4595 43.2457L33.7969 41.9ZM60.1969 28.9L61.5419 28.236L60.8786 26.8923L59.5342 27.5543L60.1969 28.9ZM67.9969 44.7L68.6941 46.0281L69.9896 45.348L69.3419 44.036L67.9969 44.7ZM55.9969 51L55.2996 49.6719L54.0746 50.3151L54.6169 51.588L55.9969 51ZM60.8969 62.5L59.5169 63.088L59.5198 63.0946L59.5226 63.1012L60.8969 62.5ZM62.4969 64.5L61.8877 65.8707L61.9135 65.8822L61.9398 65.8927L62.4969 64.5ZM66.9969 64.5L67.6677 65.8416L67.6677 65.8416L66.9969 64.5ZM68.7969 63.6L70.2528 63.239L69.8019 61.4204L68.1261 62.2584L68.7969 63.6ZM71.7969 75.7L72.6687 76.9206L73.4981 76.3282L73.2528 75.339L71.7969 75.7ZM68.4969 77.7L67.7983 76.3726L67.7832 76.3805L67.7684 76.3888L68.4969 77.7ZM64.5969 79.5L65.0924 80.9158L65.1117 80.909L65.1309 80.9017L64.5969 79.5ZM60.3969 80.7L60.0644 79.2373L60.0569 79.239L60.0494 79.2408L60.3969 80.7ZM50.2969 80.4L50.754 78.9714L50.7355 78.9654L50.7169 78.96L50.2969 80.4ZM46.0969 78.3L45.1044 79.4248L45.1393 79.4555L45.176 79.484L46.0969 78.3ZM43.1969 74.8L41.8945 75.5442L41.9024 75.5581L41.9106 75.5717L43.1969 74.8ZM40.8969 70.1L39.5126 70.6779L39.5154 70.6845L40.8969 70.1ZM36.5969 59.8L37.9811 59.2221L37.3447 57.6977L35.8885 58.4778L36.5969 59.8ZM33.7969 61.3L33.0885 59.9778L32.2969 60.4019V61.3H33.7969ZM33.7969 80V81.5H35.2969V80H33.7969ZM10.9969 80H9.49688V81.5H10.9969V80ZM12.4969 22.2C12.4969 21.2571 12.2836 20.3009 11.6492 19.5397L9.34454 21.4603C9.37686 21.499 9.49688 21.6762 9.49688 22.2H12.4969ZM11.7175 19.6281C11.0255 18.6593 9.9647 18.3 8.89688 18.3V21.3C9.10853 21.3 9.21097 21.3341 9.24564 21.3492C9.26824 21.3591 9.26943 21.3623 9.27627 21.3719L11.7175 19.6281ZM8.89688 18.3C7.88122 18.3 6.90304 18.5131 5.97616 18.9345L7.21759 21.6655C7.75738 21.4202 8.31253 21.3 8.89688 21.3V18.3ZM6.0398 18.9073C5.33309 19.19 4.6285 19.5071 3.92605 19.8584L5.2677 22.5416C5.89858 22.2262 6.52733 21.9434 7.15395 21.6927L6.0398 18.9073ZM5.99722 20.6624L1.69722 9.46236L-1.10347 10.5376L3.19653 21.7376L5.99722 20.6624ZM1.18392 11.2096C2.12689 10.5181 3.27666 9.78203 4.64108 9.00236L3.15267 6.39763C1.71709 7.21796 0.466855 8.01524 -0.590169 8.79039L1.18392 11.2096ZM4.64108 9.00236C5.98324 8.23542 7.42698 7.52912 8.9738 6.88461L7.81995 4.11538C6.16677 4.80421 4.61051 5.56458 3.15267 6.39763L4.64108 9.00236ZM8.9738 6.88461C10.4942 6.25111 12.0806 5.74318 13.7342 5.36158L13.0596 2.43841C11.2465 2.85681 9.49954 3.41555 7.81995 4.11538L8.9738 6.88461ZM13.7868 5.34842C15.3976 4.91477 16.9999 4.7 18.5969 4.7V1.7C16.7272 1.7 14.8629 1.9519 13.0069 2.45157L13.7868 5.34842ZM18.5969 4.7C21.6901 4.7 24.0811 5.08925 25.8398 5.79271L26.954 3.00728C24.7126 2.11075 21.9037 1.7 18.5969 1.7V4.7ZM25.8805 5.80831C27.6688 6.46403 28.9438 7.38045 29.8037 8.50906L32.19 6.69093C30.9166 5.01954 29.1249 3.80262 26.9133 2.99168L25.8805 5.80831ZM29.854 8.57147C30.8011 9.68579 31.4295 11.0358 31.7202 12.6637L34.6735 12.1363C34.2976 10.0309 33.4593 8.18087 32.1398 6.62852L29.854 8.57147ZM31.7302 12.7143C32.105 14.4634 32.2969 16.39 32.2969 18.5H35.2969C35.2969 16.21 35.0888 14.0699 34.6636 12.0857L31.7302 12.7143ZM32.2969 18.5V41.9H35.2969V18.5H32.2969ZM34.4595 43.2457L60.8595 30.2457L59.5342 27.5543L33.1342 40.5543L34.4595 43.2457ZM58.8518 29.564L66.6518 45.364L69.3419 44.036L61.5419 28.236L58.8518 29.564ZM67.2996 43.3719L55.2996 49.6719L56.6941 52.3281L68.6941 46.0281L67.2996 43.3719ZM54.6169 51.588L59.5169 63.088L62.2768 61.912L57.3768 50.412L54.6169 51.588ZM59.5226 63.1012C60.034 64.2701 60.7641 65.3713 61.8877 65.8707L63.1061 63.1293C63.0297 63.0953 62.6931 62.8632 62.2711 61.8988L59.5226 63.1012ZM61.9398 65.8927C62.8385 66.2522 63.8757 66.4 64.9969 66.4V63.4C64.1181 63.4 63.4886 63.2811 63.054 63.1073L61.9398 65.8927ZM64.9969 66.4C65.9539 66.4 66.8674 66.2418 67.6677 65.8416L66.3261 63.1584C66.0597 63.2916 65.6399 63.4 64.9969 63.4V66.4ZM67.6677 65.8416C68.201 65.575 68.801 65.275 69.4677 64.9416L68.1261 62.2584C67.4594 62.5917 66.8594 62.8917 66.3261 63.1584L67.6677 65.8416ZM67.341 63.961L70.341 76.061L73.2528 75.339L70.2528 63.239L67.341 63.961ZM70.925 74.4794C70.0585 75.0983 69.0189 75.7302 67.7983 76.3726L69.1955 79.0274C70.5082 78.3365 71.6686 77.635 72.6687 76.9206L70.925 74.4794ZM67.7684 76.3888C66.6364 77.0177 65.402 77.5881 64.0629 78.0983L65.1309 80.9017C66.5918 80.3452 67.9574 79.7157 69.2253 79.0112L67.7684 76.3888ZM64.1014 78.0842C62.8248 78.531 61.4794 78.9157 60.0644 79.2373L60.7293 82.1627C62.2477 81.8176 63.7023 81.4023 65.0924 80.9158L64.1014 78.0842ZM60.0494 79.2408C58.7543 79.5492 57.5044 79.7 56.2969 79.7V82.7C57.7561 82.7 59.2394 82.5175 60.7443 82.1592L60.0494 79.2408ZM56.2969 79.7C54.0703 79.7 52.233 79.4446 50.754 78.9714L49.8397 81.8286C51.6941 82.422 53.8567 82.7 56.2969 82.7V79.7ZM50.7169 78.96C49.281 78.5412 48.0547 77.9224 47.0178 77.116L45.176 79.484C46.5391 80.5442 48.1128 81.3255 49.8769 81.84L50.7169 78.96ZM47.0893 77.1752C46.0748 76.2801 45.2062 75.2334 44.4831 74.0283L41.9106 75.5717C42.7876 77.0333 43.8523 78.3199 45.1044 79.4248L47.0893 77.1752ZM44.4992 74.0558C43.7331 72.7151 42.9922 71.2029 42.2783 69.5155L39.5154 70.6845C40.2682 72.4638 41.0606 74.0849 41.8945 75.5442L44.4992 74.0558ZM42.2811 69.5221L37.9811 59.2221L35.2127 60.3779L39.5127 70.6779L42.2811 69.5221ZM35.8885 58.4778L33.0885 59.9778L34.5052 62.6222L37.3052 61.1222L35.8885 58.4778ZM32.2969 61.3V80H35.2969V61.3H32.2969ZM33.7969 78.5H10.9969V81.5H33.7969V78.5ZM12.4969 80V22.2H9.49688V80H12.4969Z" fill="white"/>
</svg>
