<svg width="49" height="105" viewBox="0 0 49 105" fill="none" xmlns="http://www.w3.org/2000/svg">
<path d="M12.6824 22.2C12.6824 21.4667 12.5158 20.9 12.1824 20.5C11.8491 20.0333 11.3158 19.8 10.5824 19.8C9.78242 19.8 9.01576 19.9667 8.28242 20.3C7.61576 20.5667 6.94909 20.8667 6.28242 21.2L1.98242 10C2.98242 9.26666 4.18242 8.5 5.58242 7.7C6.98242 6.9 8.48242 6.16666 10.0824 5.49999C11.6824 4.83333 13.3491 4.3 15.0824 3.9C16.8158 3.43333 18.5491 3.2 20.2824 3.2C23.4824 3.2 26.0824 3.6 28.0824 4.4C30.0824 5.13333 31.6158 6.19999 32.6824 7.6C33.8158 8.93333 34.5491 10.5333 34.8824 12.4C35.2824 14.2667 35.4824 16.3 35.4824 18.5V62.5C35.4824 63.2333 35.6491 63.8333 35.9824 64.3C36.3158 64.7667 36.8491 65 37.5824 65C38.3824 65 39.0491 64.8667 39.5824 64.6C40.1158 64.3333 40.7158 64.0333 41.3824 63.7L44.3824 75.8C42.3158 77.3333 39.7824 78.6333 36.7824 79.7C33.7824 80.7667 30.8158 81.3 27.8824 81.3C17.7491 81.3 12.6824 76.9667 12.6824 68.3V22.2Z" fill="black"/>
<path d="M12.1824 20.5L10.9618 21.3719L10.9943 21.4173L11.0301 21.4603L12.1824 20.5ZM8.28242 20.3L8.8395 21.6927L8.87163 21.6799L8.90313 21.6655L8.28242 20.3ZM6.28242 21.2L4.88208 21.7376L5.47461 23.281L6.95325 22.5416L6.28242 21.2ZM1.98242 10L1.09538 8.79039L0.171408 9.46796L0.582081 10.5376L1.98242 10ZM5.58242 7.7L4.83822 6.39763L4.83821 6.39763L5.58242 7.7ZM10.0824 5.49999L9.5055 4.11538L9.5055 4.11538L10.0824 5.49999ZM15.0824 3.9L15.4197 5.36158L15.4462 5.35548L15.4724 5.34842L15.0824 3.9ZM28.0824 4.4L27.5253 5.79271L27.5456 5.80081L27.566 5.80831L28.0824 4.4ZM32.6824 7.6L31.4893 8.50906L31.5136 8.54094L31.5395 8.57147L32.6824 7.6ZM34.8824 12.4L33.4058 12.6637L33.4103 12.6891L33.4157 12.7143L34.8824 12.4ZM35.9824 64.3L37.203 63.4281L35.9824 64.3ZM39.5824 64.6L38.9116 63.2584L38.9116 63.2584L39.5824 64.6ZM41.3824 63.7L42.8383 63.339L42.3875 61.5204L40.7116 62.3584L41.3824 63.7ZM44.3824 75.8L45.2762 77.0046L46.0789 76.4091L45.8383 75.439L44.3824 75.8ZM36.7824 79.7L36.2799 78.2867L36.2799 78.2867L36.7824 79.7ZM14.1824 22.2C14.1824 21.2571 13.9691 20.3009 13.3348 19.5397L11.0301 21.4603C11.0624 21.499 11.1824 21.6762 11.1824 22.2H14.1824ZM13.403 19.6281C12.711 18.6593 11.6502 18.3 10.5824 18.3V21.3C10.7941 21.3 10.8965 21.3341 10.9312 21.3492C10.9538 21.3591 10.955 21.3623 10.9618 21.3719L13.403 19.6281ZM10.5824 18.3C9.56677 18.3 8.58859 18.5131 7.66171 18.9345L8.90313 21.6655C9.44292 21.4202 9.99808 21.3 10.5824 21.3V18.3ZM7.72534 18.9073C7.01864 19.19 6.31405 19.5071 5.6116 19.8584L6.95325 22.5416C7.58413 22.2262 8.21287 21.9434 8.8395 21.6927L7.72534 18.9073ZM7.68276 20.6624L3.38276 9.46236L0.582081 10.5376L4.88208 21.7376L7.68276 20.6624ZM2.86947 11.2096C3.81244 10.5181 4.96221 9.78203 6.32663 9.00236L4.83821 6.39763C3.40264 7.21796 2.1524 8.01524 1.09538 8.79039L2.86947 11.2096ZM6.32663 9.00236C7.66878 8.23542 9.11252 7.52912 10.6593 6.88461L9.5055 4.11538C7.85232 4.80421 6.29606 5.56458 4.83822 6.39763L6.32663 9.00236ZM10.6593 6.88461C12.1798 6.25111 13.7661 5.74318 15.4197 5.36158L14.7451 2.43841C12.9321 2.85681 11.1851 3.41555 9.5055 4.11538L10.6593 6.88461ZM15.4724 5.34842C17.0831 4.91477 18.6854 4.7 20.2824 4.7V1.7C18.4128 1.7 16.5484 1.9519 14.6925 2.45157L15.4724 5.34842ZM20.2824 4.7C23.3756 4.7 25.7667 5.08925 27.5253 5.79271L28.6395 3.00728C26.3982 2.11075 23.5892 1.7 20.2824 1.7V4.7ZM27.566 5.80831C29.3544 6.46403 30.6294 7.38045 31.4893 8.50906L33.8756 6.69093C32.6021 5.01954 30.8105 3.80262 28.5988 2.99168L27.566 5.80831ZM31.5395 8.57147C32.4867 9.68579 33.1151 11.0358 33.4058 12.6637L36.3591 12.1363C35.9831 10.0309 35.1448 8.18087 33.8253 6.62852L31.5395 8.57147ZM33.4157 12.7143C33.7905 14.4634 33.9824 16.39 33.9824 18.5H36.9824C36.9824 16.21 36.7743 14.0699 36.3491 12.0857L33.4157 12.7143ZM33.9824 18.5V62.5H36.9824V18.5H33.9824ZM33.9824 62.5C33.9824 63.4587 34.2019 64.3879 34.7618 65.1719L37.203 63.4281C37.0963 63.2787 36.9824 63.008 36.9824 62.5H33.9824ZM34.7618 65.1719C35.4538 66.1407 36.5146 66.5 37.5824 66.5V63.5C37.3708 63.5 37.2683 63.4659 37.2337 63.4508C37.2111 63.4409 37.2099 63.4377 37.203 63.4281L34.7618 65.1719ZM37.5824 66.5C38.5394 66.5 39.453 66.3418 40.2532 65.9416L38.9116 63.2584C38.6452 63.3916 38.2254 63.5 37.5824 63.5V66.5ZM40.2532 65.9416C40.7866 65.675 41.3866 65.375 42.0532 65.0416L40.7116 62.3584C40.0449 62.6917 39.4449 62.9917 38.9116 63.2584L40.2532 65.9416ZM39.9265 64.061L42.9265 76.161L45.8383 75.439L42.8383 63.339L39.9265 64.061ZM43.4887 74.5954C41.5657 76.022 39.1717 77.2585 36.2799 78.2867L37.2849 81.1133C40.3932 80.0082 43.0658 78.6446 45.2762 77.0046L43.4887 74.5954ZM36.2799 78.2867C33.4274 79.3009 30.6305 79.8 27.8824 79.8V82.8C31.001 82.8 34.1374 82.2324 37.2849 81.1133L36.2799 78.2867ZM27.8824 79.8C22.9946 79.8 19.6086 78.7499 17.4574 76.9101C15.351 75.1086 14.1824 72.3355 14.1824 68.3H11.1824C11.1824 72.9312 12.5471 76.6581 15.5075 79.1899C18.4229 81.6834 22.6369 82.8 27.8824 82.8V79.8ZM14.1824 68.3V22.2H11.1824V68.3H14.1824Z" fill="white"/>
</svg>
