<svg width="101" height="105" viewBox="0 0 101 105" fill="none" xmlns="http://www.w3.org/2000/svg">
<path d="M10.0113 48.4C10.0113 47.6667 9.84466 47.1 9.51133 46.7C9.178 46.2333 8.64466 46 7.91133 46C7.11133 46 6.34466 46.1667 5.61133 46.5C4.94466 46.7667 4.27799 47.0667 3.61133 47.4L0.511328 35.4C2.64466 34 5.17799 32.6667 8.11133 31.4C11.0447 30.0667 14.3447 29.4 18.0113 29.4C21.278 29.4 23.9447 29.9667 26.0113 31.1C28.1447 32.2333 29.778 34.0333 30.9113 36.5C33.1113 34.0333 35.4113 32.2333 37.8113 31.1C40.278 29.9667 43.3113 29.4 46.9113 29.4C53.578 29.4 58.0113 31.7667 60.2113 36.5C62.4113 34.0333 64.7113 32.2333 67.1113 31.1C69.578 29.9667 72.6113 29.4 76.2113 29.4C81.6113 29.4 85.478 30.9 87.8113 33.9C90.2113 36.8333 91.4113 40.9 91.4113 46.1V62.4C91.4113 63.1333 91.578 63.7333 91.9113 64.2C92.2447 64.6667 92.778 64.9 93.5113 64.9C94.3113 64.9 94.978 64.7667 95.5113 64.5C96.0447 64.2333 96.6447 63.9333 97.3113 63.6L100.311 75.7C98.2447 77.2333 95.7113 78.5333 92.7113 79.6C89.7113 80.6667 86.7447 81.2 83.8113 81.2C73.678 81.2 68.6113 76.8667 68.6113 68.2V53.9C68.6113 50.9667 67.578 49.5 65.5113 49.5C64.4447 49.5 63.6113 49.9 63.0113 50.7C62.4113 51.5 62.1113 52.5667 62.1113 53.9V80H39.3113V53.9C39.3113 50.9667 38.278 49.5 36.2113 49.5C35.1447 49.5 34.3113 49.9 33.7113 50.7C33.1113 51.5 32.8113 52.5667 32.8113 53.9V80H10.0113V48.4Z" fill="black"/>
<path d="M9.51133 46.7L8.29073 47.5719L8.32322 47.6173L8.359 47.6603L9.51133 46.7ZM5.61133 46.5L6.16841 47.8927L6.20054 47.8799L6.23203 47.8655L5.61133 46.5ZM3.61133 47.4L2.15901 47.7752L2.62298 49.5712L4.28215 48.7416L3.61133 47.4ZM0.511328 35.4L-0.311657 34.1459L-1.20965 34.7352L-0.940993 35.7752L0.511328 35.4ZM8.11133 31.4L8.70598 32.7771L8.71906 32.7714L8.73203 32.7655L8.11133 31.4ZM26.0113 31.1L25.2901 32.4152L25.2988 32.42L25.3076 32.4247L26.0113 31.1ZM30.9113 36.5L29.5483 37.1262L30.5052 39.2089L32.0308 37.4984L30.9113 36.5ZM37.8113 31.1L37.1851 29.737L37.1779 29.7403L37.1708 29.7436L37.8113 31.1ZM60.2113 36.5L58.8511 37.1322L59.8125 39.2007L61.3308 37.4984L60.2113 36.5ZM67.1113 31.1L66.4851 29.737L66.4779 29.7403L66.4708 29.7436L67.1113 31.1ZM87.8113 33.9L86.6273 34.8209L86.6387 34.8355L86.6504 34.8499L87.8113 33.9ZM91.9113 64.2L93.1319 63.3281L91.9113 64.2ZM95.5113 64.5L94.8405 63.1584L94.8405 63.1584L95.5113 64.5ZM97.3113 63.6L98.7672 63.239L98.3164 61.4204L96.6405 62.2584L97.3113 63.6ZM100.311 75.7L101.205 76.9046L102.008 76.3091L101.767 75.339L100.311 75.7ZM92.7113 79.6L92.2088 78.1867L92.2088 78.1867L92.7113 79.6ZM62.1113 80V81.5H63.6113V80H62.1113ZM39.3113 80H37.8113V81.5H39.3113V80ZM33.7113 50.7L34.9113 51.6L33.7113 50.7ZM32.8113 80V81.5H34.3113V80H32.8113ZM10.0113 80H8.51133V81.5H10.0113V80ZM11.5113 48.4C11.5113 47.4571 11.298 46.5009 10.6637 45.7397L8.359 47.6603C8.39131 47.6991 8.51133 47.8762 8.51133 48.4H11.5113ZM10.7319 45.8281C10.0399 44.8593 8.97915 44.5 7.91133 44.5V47.5C8.12299 47.5 8.22543 47.5341 8.2601 47.5492C8.2827 47.5591 8.28388 47.5623 8.29073 47.5719L10.7319 45.8281ZM7.91133 44.5C6.89568 44.5 5.9175 44.7131 4.99062 45.1344L6.23203 47.8655C6.77183 47.6202 7.32698 47.5 7.91133 47.5V44.5ZM5.05424 45.1073C4.34754 45.39 3.64296 45.7071 2.94051 46.0584L4.28215 48.7416C4.91303 48.4262 5.54178 48.1434 6.16841 47.8927L5.05424 45.1073ZM5.06365 47.0248L1.96365 35.0248L-0.940993 35.7752L2.15901 47.7752L5.06365 47.0248ZM1.33431 36.6541C3.37984 35.3117 5.83326 34.0176 8.70598 32.7771L7.51667 30.0229C4.52273 31.3157 1.90949 32.6883 -0.311657 34.1459L1.33431 36.6541ZM8.73203 32.7655C11.4452 31.5323 14.5293 30.9 18.0113 30.9V27.9C14.1601 27.9 10.6441 28.6011 7.49062 30.0344L8.73203 32.7655ZM18.0113 30.9C21.1183 30.9 23.5134 31.4409 25.2901 32.4152L26.7326 29.7848C24.376 28.4924 21.4377 27.9 18.0113 27.9V30.9ZM25.3076 32.4247C27.1149 33.3848 28.5344 34.9195 29.5483 37.1262L32.2743 35.8737C31.0216 33.1472 29.1744 31.0818 26.7151 29.7753L25.3076 32.4247ZM32.0308 37.4984C34.1286 35.1463 36.2726 33.4854 38.4518 32.4564L37.1708 29.7436C34.55 30.9812 32.0941 32.9203 29.7919 35.5016L32.0308 37.4984ZM38.4376 32.463C40.6548 31.4443 43.4603 30.9 46.9113 30.9V27.9C43.1623 27.9 39.9012 28.489 37.1851 29.737L38.4376 32.463ZM46.9113 30.9C50.0757 30.9 52.59 31.4626 54.5299 32.4982C56.4478 33.5221 57.8826 35.0485 58.8511 37.1322L61.5716 35.8678C60.3401 33.2181 58.4582 31.1946 55.9427 29.8517C53.4493 28.5207 50.4136 27.9 46.9113 27.9V30.9ZM61.3308 37.4984C63.4286 35.1463 65.5726 33.4854 67.7518 32.4564L66.4708 29.7436C63.85 30.9812 61.3941 32.9203 59.0919 35.5016L61.3308 37.4984ZM67.7376 32.463C69.9548 31.4443 72.7604 30.9 76.2113 30.9V27.9C72.4623 27.9 69.2012 28.489 66.4851 29.737L67.7376 32.463ZM76.2113 30.9C81.3534 30.9 84.6839 32.3222 86.6273 34.8209L88.9954 32.9791C86.2721 29.4777 81.8692 27.9 76.2113 27.9V30.9ZM86.6504 34.8499C88.7619 37.4305 89.9113 41.1183 89.9113 46.1H92.9113C92.9113 40.6817 91.6608 36.2361 88.9723 32.9501L86.6504 34.8499ZM89.9113 46.1V62.4H92.9113V46.1H89.9113ZM89.9113 62.4C89.9113 63.3587 90.1308 64.2879 90.6907 65.0719L93.1319 63.3281C93.0252 63.1787 92.9113 62.908 92.9113 62.4H89.9113ZM90.6907 65.0719C91.3827 66.0407 92.4435 66.4 93.5113 66.4V63.4C93.2997 63.4 93.1972 63.3659 93.1626 63.3508C93.14 63.3409 93.1388 63.3377 93.1319 63.3281L90.6907 65.0719ZM93.5113 66.4C94.4683 66.4 95.3819 66.2418 96.1822 65.8416L94.8405 63.1584C94.5741 63.2916 94.1544 63.4 93.5113 63.4V66.4ZM96.1822 65.8416C96.3008 65.7823 96.4677 65.6989 96.5947 65.6354C96.6183 65.6236 96.6242 65.6206 96.648 65.6087C96.6495 65.608 96.6599 65.6028 96.6614 65.602C96.6693 65.5981 96.6668 65.5993 96.6748 65.5953C96.6827 65.5914 96.6937 65.5859 96.7017 65.5819C96.7097 65.5779 96.7477 65.5589 96.7558 65.5548C96.7962 65.5346 96.7698 65.5478 96.8103 65.5276C96.8427 65.5114 96.8875 65.489 96.9204 65.4725C96.945 65.4602 97.0071 65.4292 97.0322 65.4166C97.2989 65.2833 97.6821 65.0917 97.9822 64.9416L96.6405 62.2584C96.0331 62.5621 95.3146 62.9213 94.8405 63.1584L96.1822 65.8416ZM95.8554 63.961L98.8554 76.061L101.767 75.339L98.7672 63.239L95.8554 63.961ZM99.4176 74.4954C97.4946 75.922 95.1006 77.1585 92.2088 78.1867L93.2138 81.0133C96.3221 79.9082 98.9947 78.5446 101.205 76.9046L99.4176 74.4954ZM92.2088 78.1867C89.3564 79.2009 86.5594 79.7 83.8113 79.7V82.7C86.9299 82.7 90.0663 82.1324 93.2138 81.0133L92.2088 78.1867ZM83.8113 79.7C78.9235 79.7 75.5375 78.6499 73.3863 76.8101C71.28 75.0086 70.1113 72.2355 70.1113 68.2H67.1113C67.1113 72.8312 68.476 76.5581 71.4364 79.0899C74.3518 81.5834 78.5658 82.7 83.8113 82.7V79.7ZM70.1113 68.2V53.9H67.1113V68.2H70.1113ZM70.1113 53.9C70.1113 52.303 69.8383 50.8371 69.0626 49.7361C68.2191 48.5389 66.9472 48 65.5113 48V51C66.1422 51 66.4202 51.1944 66.6101 51.4639C66.8677 51.8295 67.1113 52.5637 67.1113 53.9H70.1113ZM65.5113 48C64.0092 48 62.7159 48.5939 61.8113 49.8L64.2113 51.6C64.5068 51.2061 64.8802 51 65.5113 51V48ZM61.8113 49.8C60.9607 50.9341 60.6113 52.3495 60.6113 53.9H63.6113C63.6113 52.7838 63.8619 52.0659 64.2113 51.6L61.8113 49.8ZM60.6113 53.9V80H63.6113V53.9H60.6113ZM62.1113 78.5H39.3113V81.5H62.1113V78.5ZM40.8113 80V53.9H37.8113V80H40.8113ZM40.8113 53.9C40.8113 52.303 40.5383 50.8371 39.7626 49.7361C38.9191 48.5389 37.6472 48 36.2113 48V51C36.8422 51 37.1202 51.1944 37.3101 51.4639C37.5677 51.8295 37.8113 52.5637 37.8113 53.9H40.8113ZM36.2113 48C34.7092 48 33.4159 48.5939 32.5113 49.8L34.9113 51.6C35.2068 51.2061 35.5802 51 36.2113 51V48ZM32.5113 49.8C31.6607 50.9341 31.3113 52.3495 31.3113 53.9H34.3113C34.3113 52.7838 34.5619 52.0659 34.9113 51.6L32.5113 49.8ZM31.3113 53.9V80H34.3113V53.9H31.3113ZM32.8113 78.5H10.0113V81.5H32.8113V78.5ZM11.5113 80V48.4H8.51133V80H11.5113Z" fill="white"/>
</svg>
