<svg width="71" height="105" viewBox="0 0 71 105" fill="none" xmlns="http://www.w3.org/2000/svg">
<path d="M10.0621 48.4C10.0621 47.6667 9.89544 47.1 9.56211 46.7C9.22878 46.2333 8.69544 46 7.96211 46C7.16211 46 6.39544 46.1667 5.66211 46.5C4.99544 46.7667 4.32878 47.0667 3.66211 47.4L0.562109 35.4C2.69544 34 5.22878 32.6667 8.16211 31.4C11.0954 30.0667 14.3954 29.4 18.0621 29.4C21.3288 29.4 23.9954 29.9667 26.0621 31.1C28.1954 32.2333 29.8288 34.0333 30.9621 36.5C33.1621 34.0333 35.5288 32.2333 38.0621 31.1C40.6621 29.9667 43.4621 29.4 46.4621 29.4C49.9288 29.4 52.9288 30.0667 55.4621 31.4C58.0621 32.6667 60.1954 34.4333 61.8621 36.7C63.5288 38.9667 64.7621 41.6333 65.5621 44.7C66.4288 47.7667 66.8621 51.0333 66.8621 54.5C66.8621 58.7667 66.3288 62.5333 65.2621 65.8C64.1954 69.0667 62.6954 71.8 60.7621 74C58.8954 76.2 56.6288 77.8667 53.9621 79C51.3621 80.0667 48.4954 80.6 45.3621 80.6C43.2288 80.6 41.0621 80.2333 38.8621 79.5C36.6621 78.7667 34.6621 77.5667 32.8621 75.9V102.8H10.0621V48.4ZM37.2621 63.6C38.7288 63.6 39.7954 62.8667 40.4621 61.4C41.1288 59.9333 41.4621 57.9 41.4621 55.3C41.4621 52.6333 41.1288 50.5667 40.4621 49.1C39.8621 47.6333 38.7954 46.9 37.2621 46.9C35.7288 46.9 34.6288 47.6333 33.9621 49.1C33.3621 50.5667 33.0621 52.6333 33.0621 55.3C33.0621 57.9 33.3621 59.9333 33.9621 61.4C34.6288 62.8667 35.7288 63.6 37.2621 63.6Z" fill="black"/>
<path d="M9.56211 46.7L8.34151 47.5719L8.374 47.6173L8.40978 47.6603L9.56211 46.7ZM5.66211 46.5L6.21919 47.8927L6.25132 47.8799L6.28281 47.8655L5.66211 46.5ZM3.66211 47.4L2.20979 47.7752L2.67377 49.5712L4.33293 48.7416L3.66211 47.4ZM0.562109 35.4L-0.260875 34.1459L-1.15887 34.7352L-0.890212 35.7752L0.562109 35.4ZM8.16211 31.4L8.75676 32.7771L8.76984 32.7714L8.78281 32.7655L8.16211 31.4ZM26.0621 31.1L25.3409 32.4152L25.3496 32.42L25.3584 32.4247L26.0621 31.1ZM30.9621 36.5L29.5991 37.1262L30.556 39.2089L32.0816 37.4984L30.9621 36.5ZM38.0621 31.1L37.4627 29.725L37.4561 29.7278L37.4496 29.7308L38.0621 31.1ZM55.4621 31.4L54.7635 32.7274L54.7842 32.7383L54.8052 32.7485L55.4621 31.4ZM61.8621 36.7L60.6536 37.5886L60.6536 37.5886L61.8621 36.7ZM65.5621 44.7L64.1107 45.0786L64.1145 45.0933L64.1186 45.1079L65.5621 44.7ZM65.2621 65.8L66.688 66.2656L66.688 66.2656L65.2621 65.8ZM60.7621 74L59.6354 73.0098L59.6268 73.0196L59.6183 73.0295L60.7621 74ZM53.9621 79L54.5314 80.3878L54.5402 80.3842L54.5488 80.3805L53.9621 79ZM32.8621 75.9L33.8812 74.7994L31.3621 72.4668V75.9H32.8621ZM32.8621 102.8V104.3H34.3621V102.8H32.8621ZM10.0621 102.8H8.56211V104.3H10.0621V102.8ZM40.4621 49.1L39.0738 49.6679L39.0847 49.6945L39.0966 49.7207L40.4621 49.1ZM33.9621 49.1L32.5966 48.4793L32.5847 48.5055L32.5738 48.532L33.9621 49.1ZM33.9621 61.4L32.5738 61.9679L32.5847 61.9945L32.5966 62.0207L33.9621 61.4ZM11.5621 48.4C11.5621 47.4571 11.3488 46.5009 10.7144 45.7397L8.40978 47.6603C8.44209 47.6991 8.56211 47.8762 8.56211 48.4H11.5621ZM10.7827 45.8281C10.0907 44.8593 9.02993 44.5 7.96211 44.5V47.5C8.17377 47.5 8.27621 47.5341 8.31088 47.5492C8.33348 47.5591 8.33467 47.5623 8.34151 47.5719L10.7827 45.8281ZM7.96211 44.5C6.94646 44.5 5.96828 44.7131 5.04141 45.1344L6.28281 47.8655C6.82261 47.6202 7.37776 47.5 7.96211 47.5V44.5ZM5.10503 45.1073C4.39832 45.39 3.69374 45.7071 2.99129 46.0584L4.33293 48.7416C4.96381 48.4262 5.59256 48.1434 6.21919 47.8927L5.10503 45.1073ZM5.11443 47.0248L2.01443 35.0248L-0.890212 35.7752L2.20979 47.7752L5.11443 47.0248ZM1.38509 36.6541C3.43062 35.3117 5.88404 34.0176 8.75676 32.7771L7.56745 30.0229C4.57351 31.3157 1.96027 32.6883 -0.260875 34.1459L1.38509 36.6541ZM8.78281 32.7655C11.496 31.5323 14.58 30.9 18.0621 30.9V27.9C14.2108 27.9 10.6949 28.6011 7.5414 30.0344L8.78281 32.7655ZM18.0621 30.9C21.169 30.9 23.5642 31.4409 25.3409 32.4152L26.7834 29.7848C24.4267 28.4924 21.4885 27.9 18.0621 27.9V30.9ZM25.3584 32.4247C27.1657 33.3848 28.5852 34.9195 29.5991 37.1262L32.3251 35.8737C31.0724 33.1472 29.2252 31.0818 26.7658 29.7753L25.3584 32.4247ZM32.0816 37.4984C34.1672 35.16 36.3679 33.5012 38.6747 32.4692L37.4496 29.7308C34.6897 30.9655 32.1571 32.9066 29.8427 35.5016L32.0816 37.4984ZM38.6615 32.475C41.0616 31.4288 43.6563 30.9 46.4621 30.9V27.9C43.268 27.9 40.2626 28.5045 37.4627 29.725L38.6615 32.475ZM46.4621 30.9C49.7362 30.9 52.4865 31.529 54.7635 32.7274L56.1607 30.0726C53.3711 28.6044 50.1213 27.9 46.4621 27.9V30.9ZM54.8052 32.7485C57.1931 33.9119 59.135 35.5232 60.6536 37.5886L63.0706 35.8114C61.2559 33.3435 58.9311 31.4215 56.1191 30.0515L54.8052 32.7485ZM60.6536 37.5886C62.1944 39.684 63.3526 42.1727 64.1107 45.0786L67.0135 44.3214C66.1716 41.094 64.8631 38.2493 63.0706 35.8114L60.6536 37.5886ZM64.1186 45.1079C64.9447 48.0308 65.3621 51.1592 65.3621 54.5H68.3621C68.3621 50.9074 67.9129 47.5026 67.0056 44.2921L64.1186 45.1079ZM65.3621 54.5C65.3621 58.6451 64.8436 62.2493 63.8362 65.3344L66.688 66.2656C67.814 62.8174 68.3621 58.8882 68.3621 54.5H65.3621ZM63.8362 65.3344C62.8219 68.4408 61.4132 70.9867 59.6354 73.0098L61.8889 74.9902C63.9776 72.6133 65.569 69.6925 66.688 66.2656L63.8362 65.3344ZM59.6183 73.0295C57.9036 75.0505 55.8279 76.5772 53.3754 77.6195L54.5488 80.3805C57.4296 79.1562 59.8873 77.3495 61.9059 74.9705L59.6183 73.0295ZM53.3928 77.6122C50.9931 78.5967 48.3226 79.1 45.3621 79.1V82.1C48.6683 82.1 51.7311 81.5366 54.5314 80.3878L53.3928 77.6122ZM45.3621 79.1C43.4034 79.1 41.3968 78.7638 39.3365 78.077L38.3878 80.923C40.7274 81.7029 43.0541 82.1 45.3621 82.1V79.1ZM39.3365 78.077C37.3505 77.415 35.5339 76.3296 33.8812 74.7994L31.843 77.0006C33.7904 78.8037 35.9737 80.1183 38.3878 80.923L39.3365 78.077ZM31.3621 75.9V102.8H34.3621V75.9H31.3621ZM32.8621 101.3H10.0621V104.3H32.8621V101.3ZM11.5621 102.8V48.4H8.56211V102.8H11.5621ZM37.2621 65.1C38.2571 65.1 39.1961 64.8469 40.0119 64.2861C40.8188 63.7313 41.4089 62.9419 41.8277 62.0207L39.0966 60.7793C38.8486 61.3247 38.5721 61.6354 38.3123 61.8139C38.0614 61.9864 37.7338 62.1 37.2621 62.1V65.1ZM41.8277 62.0207C42.6209 60.2756 42.9621 57.998 42.9621 55.3H39.9621C39.9621 57.802 39.6366 59.5911 39.0966 60.7793L41.8277 62.0207ZM42.9621 55.3C42.9621 52.5419 42.6226 50.2281 41.8277 48.4793L39.0966 49.7207C39.635 50.9053 39.9621 52.7248 39.9621 55.3H42.9621ZM41.8504 48.532C41.4648 47.5894 40.8851 46.7799 40.0619 46.2139C39.2352 45.6456 38.275 45.4 37.2621 45.4V48.4C37.7826 48.4 38.1224 48.5211 38.3623 48.6861C38.6058 48.8534 38.8594 49.144 39.0738 49.6679L41.8504 48.532ZM37.2621 45.4C36.2478 45.4 35.289 45.646 34.4551 46.2019C33.6259 46.7547 33.0203 47.547 32.5966 48.4793L35.3277 49.7207C35.5706 49.1863 35.8483 48.8786 36.1192 48.6981C36.3853 48.5207 36.743 48.4 37.2621 48.4V45.4ZM32.5738 48.532C31.8664 50.2613 31.5621 52.5534 31.5621 55.3H34.5621C34.5621 52.7133 34.8578 50.872 35.3504 49.6679L32.5738 48.532ZM31.5621 55.3C31.5621 57.9859 31.8677 60.242 32.5738 61.9679L35.3504 60.8321C34.8565 59.6247 34.5621 57.8141 34.5621 55.3H31.5621ZM32.5966 62.0207C33.0203 62.953 33.6259 63.7453 34.4551 64.2981C35.289 64.854 36.2478 65.1 37.2621 65.1V62.1C36.743 62.1 36.3853 61.9793 36.1192 61.8019C35.8483 61.6214 35.5706 61.3137 35.3277 60.7793L32.5966 62.0207Z" fill="white"/>
</svg>
