<svg width="59" height="105" viewBox="0 0 59 105" fill="none" xmlns="http://www.w3.org/2000/svg">
<path d="M35.334 76.8C33.6673 77.9333 31.8673 78.8667 29.934 79.6C28.0673 80.2667 25.8673 80.6 23.334 80.6C16.2673 80.6 10.734 78.4667 6.73398 74.2C2.80065 69.8667 0.833984 63.4667 0.833984 55C0.833984 51.5333 1.26732 48.2333 2.13398 45.1C3.00065 41.9667 4.30065 39.2667 6.03398 37C7.83398 34.6667 10.0673 32.8333 12.734 31.5C15.4673 30.1 18.7007 29.4 22.434 29.4C24.234 29.4 25.8007 29.5667 27.134 29.9C28.4673 30.2333 29.634 30.7 30.634 31.3C31.7007 31.9 32.634 32.6 33.434 33.4C34.3007 34.2 35.1007 35.0333 35.834 35.9V30.6H58.134V102.8H35.334V76.8ZM30.534 63.8C32.0007 63.8 33.0673 63.0667 33.734 61.6C34.4007 60.1333 34.734 58.1 34.734 55.5C34.734 52.8333 34.4007 50.7667 33.734 49.3C33.134 47.8333 32.0673 47.1 30.534 47.1C29.0007 47.1 27.9007 47.8333 27.234 49.3C26.634 50.7667 26.334 52.8333 26.334 55.5C26.334 58.1 26.634 60.1333 27.234 61.6C27.9007 63.0667 29.0007 63.8 30.534 63.8Z" fill="black"/>
<path d="M35.334 76.8H36.834V73.9661L34.4905 75.5596L35.334 76.8ZM29.934 79.6L30.4385 81.0126L30.4523 81.0077L30.466 81.0025L29.934 79.6ZM6.73398 74.2L5.6233 75.2082L5.63142 75.2171L5.63968 75.2259L6.73398 74.2ZM2.13398 45.1L3.5797 45.4999L3.5797 45.4999L2.13398 45.1ZM6.03398 37L4.8463 36.0838L4.84245 36.0888L6.03398 37ZM12.734 31.5L13.4048 32.8416L13.4113 32.8384L13.4178 32.8351L12.734 31.5ZM27.134 29.9L27.4978 28.4448L27.4978 28.4448L27.134 29.9ZM30.634 31.3L29.8622 32.5862L29.8803 32.5971L29.8986 32.6074L30.634 31.3ZM33.434 33.4L32.3733 34.4607L32.3945 34.4819L32.4166 34.5022L33.434 33.4ZM35.834 35.9L34.6889 36.8689L37.334 39.9949V35.9H35.834ZM35.834 30.6V29.1H34.334V30.6H35.834ZM58.134 30.6H59.634V29.1H58.134V30.6ZM58.134 102.8V104.3H59.634V102.8H58.134ZM35.334 102.8H33.834V104.3H35.334V102.8ZM33.734 61.6L35.0995 62.2207L35.0995 62.2207L33.734 61.6ZM33.734 49.3L32.3457 49.8679L32.3565 49.8945L32.3684 49.9207L33.734 49.3ZM27.234 49.3L25.8684 48.6793L25.8565 48.7055L25.8457 48.7321L27.234 49.3ZM27.234 61.6L25.8457 62.1679L25.8565 62.1945L25.8684 62.2207L27.234 61.6ZM34.4905 75.5596C32.9235 76.6252 31.2284 77.5047 29.402 78.1975L30.466 81.0025C32.5063 80.2286 34.4112 79.2415 36.1775 78.0404L34.4905 75.5596ZM29.4295 78.1874C27.7627 78.7827 25.7409 79.1 23.334 79.1V82.1C25.9937 82.1 28.372 81.7507 30.4385 81.0126L29.4295 78.1874ZM23.334 79.1C16.5887 79.1 11.4867 77.0764 7.82829 73.1741L5.63968 75.2259C9.98125 79.8569 15.9459 82.1 23.334 82.1V79.1ZM7.84467 73.1918C4.25397 69.236 2.33398 63.2585 2.33398 55H-0.666016C-0.666016 63.6749 1.34733 70.4973 5.6233 75.2082L7.84467 73.1918ZM2.33398 55C2.33398 51.6595 2.75137 48.4946 3.5797 45.4999L0.688268 44.7001C-0.21673 47.972 -0.666016 51.4071 -0.666016 55H2.33398ZM3.5797 45.4999C4.40224 42.5261 5.62398 40.0055 7.22552 37.9112L4.84245 36.0888C2.97732 38.5278 1.59906 41.4072 0.688268 44.7001L3.5797 45.4999ZM7.22166 37.9162C8.88196 35.764 10.9378 34.0751 13.4048 32.8416L12.0632 30.1584C9.19682 31.5915 6.78601 33.5694 4.84631 36.0838L7.22166 37.9162ZM13.4178 32.8351C15.8986 31.5644 18.8878 30.9 22.434 30.9V27.9C18.5135 27.9 15.036 28.6356 12.0502 30.1649L13.4178 32.8351ZM22.434 30.9C24.1468 30.9 25.5859 31.0591 26.7702 31.3552L27.4978 28.4448C26.0154 28.0742 24.3211 27.9 22.434 27.9V30.9ZM26.7702 31.3552C27.9848 31.6589 29.0094 32.0745 29.8622 32.5862L31.4057 30.0138C30.2586 29.3255 28.9498 28.8078 27.4978 28.4448L26.7702 31.3552ZM29.8986 32.6074C30.8558 33.1458 31.6775 33.7649 32.3733 34.4607L34.4946 32.3393C33.5904 31.4351 32.5455 30.6542 31.3694 29.9926L29.8986 32.6074ZM32.4166 34.5022C33.2397 35.262 33.9969 36.051 34.6889 36.8689L36.9791 34.9311C36.2044 34.0156 35.3616 33.1379 34.4514 32.2978L32.4166 34.5022ZM37.334 35.9V30.6H34.334V35.9H37.334ZM35.834 32.1H58.134V29.1H35.834V32.1ZM56.634 30.6V102.8H59.634V30.6H56.634ZM58.134 101.3H35.334V104.3H58.134V101.3ZM36.834 102.8V76.8H33.834V102.8H36.834ZM30.534 65.3C31.5289 65.3 32.468 65.0469 33.2838 64.4861C34.0907 63.9313 34.6808 63.1419 35.0995 62.2207L32.3684 60.9793C32.1205 61.5247 31.8439 61.8354 31.5842 62.0139C31.3333 62.1864 31.0057 62.3 30.534 62.3V65.3ZM35.0995 62.2207C35.8928 60.4756 36.234 58.198 36.234 55.5H33.234C33.234 58.002 32.9085 59.7911 32.3684 60.9793L35.0995 62.2207ZM36.234 55.5C36.234 52.7419 35.8944 50.4281 35.0995 48.6793L32.3684 49.9207C32.9069 51.1053 33.234 52.9248 33.234 55.5H36.234ZM35.1223 48.732C34.7367 47.7894 34.157 46.9799 33.3338 46.4139C32.507 45.8456 31.5468 45.6 30.534 45.6V48.6C31.0545 48.6 31.3943 48.7211 31.6342 48.8861C31.8777 49.0534 32.1313 49.344 32.3457 49.8679L35.1223 48.732ZM30.534 45.6C29.5197 45.6 28.5608 45.846 27.7269 46.4019C26.8978 46.9547 26.2922 47.747 25.8684 48.6793L28.5995 49.9207C28.8424 49.3863 29.1202 49.0786 29.391 48.8981C29.6571 48.7207 30.0149 48.6 30.534 48.6V45.6ZM25.8457 48.7321C25.1382 50.4613 24.834 52.7534 24.834 55.5H27.834C27.834 52.9133 28.1297 51.072 28.6223 49.8679L25.8457 48.7321ZM24.834 55.5C24.834 58.1859 25.1396 60.442 25.8457 62.1679L28.6223 61.0321C28.1284 59.8247 27.834 58.0141 27.834 55.5H24.834ZM25.8684 62.2207C26.2922 63.153 26.8978 63.9453 27.7269 64.4981C28.5608 65.054 29.5197 65.3 30.534 65.3V62.3C30.0149 62.3 29.6571 62.1793 29.391 62.0019C29.1202 61.8214 28.8424 61.5137 28.5995 60.9793L25.8684 62.2207Z" fill="white"/>
</svg>
