<svg width="54" height="105" viewBox="0 0 54 105" fill="none" xmlns="http://www.w3.org/2000/svg">
<path d="M3.30742 62.1C6.70742 63.7667 9.84076 65 12.7074 65.8C15.5741 66.6 18.4741 67 21.4074 67C23.5408 67 24.8741 66.7667 25.4074 66.3C26.0074 65.8333 26.3074 65.3 26.3074 64.7C26.3074 64.2333 26.1408 63.8 25.8074 63.4C25.4741 62.9333 24.5408 62.5667 23.0074 62.3L18.3074 61.6C12.7074 60.7333 8.67409 59.0667 6.20742 56.6C3.80742 54.0667 2.60742 50.5 2.60742 45.9C2.60742 40.7 4.84076 36.6667 9.30742 33.8C13.7741 30.8667 19.8741 29.4 27.6074 29.4C30.2741 29.4 32.6741 29.5333 34.8074 29.8C37.0074 30 39.0074 30.3 40.8074 30.7C42.6074 31.1 44.3074 31.5667 45.9074 32.1C47.5074 32.6333 49.0741 33.2 50.6074 33.8L45.6074 47.8C43.4741 46.8667 41.2741 46.0333 39.0074 45.3C36.7408 44.5 34.2408 44.1 31.5074 44.1C30.4408 44.1 29.6074 44.1667 29.0074 44.3C28.4074 44.3667 27.9408 44.5 27.6074 44.7C27.3408 44.8333 27.1408 45.0333 27.0074 45.3C26.9408 45.5 26.9074 45.7333 26.9074 46C26.9074 46.6 27.1408 47.0333 27.6074 47.3C28.0741 47.5 28.9741 47.7333 30.3074 48L35.4074 49C38.4074 49.6 40.9408 50.3333 43.0074 51.2C45.0741 52.0667 46.7074 53.1333 47.9074 54.4C49.1741 55.6 50.0741 57.0333 50.6074 58.7C51.1408 60.3667 51.4074 62.2667 51.4074 64.4C51.4074 67.7333 50.5741 70.5 48.9074 72.7C47.3074 74.9 45.2408 76.6667 42.7074 78C40.2408 79.2667 37.5074 80.1667 34.5074 80.7C31.5074 81.2333 28.6074 81.5 25.8074 81.5C21.4074 81.5 17.3408 81.1667 13.6074 80.5C9.94076 79.9 6.50742 78.9333 3.30742 77.6V62.1Z" fill="black"/>
<path d="M3.30742 62.1L3.96766 60.7531L1.80742 59.6942V62.1H3.30742ZM12.7074 65.8L12.3042 67.2448L12.3042 67.2448L12.7074 65.8ZM25.4074 66.3L24.4865 65.116L24.4523 65.1426L24.4197 65.1711L25.4074 66.3ZM25.8074 63.4L24.5868 64.2719L24.6193 64.3173L24.6551 64.3603L25.8074 63.4ZM23.0074 62.3L23.2644 60.8222L23.2464 60.8191L23.2284 60.8164L23.0074 62.3ZM18.3074 61.6L18.078 63.0824L18.0865 63.0836L18.3074 61.6ZM6.20742 56.6L5.11849 57.6316L5.13243 57.6463L5.14676 57.6607L6.20742 56.6ZM9.30742 33.8L10.1176 35.0624L10.1242 35.0581L10.1308 35.0538L9.30742 33.8ZM34.8074 29.8L34.6214 31.2884L34.6465 31.2915L34.6716 31.2938L34.8074 29.8ZM40.8074 30.7L41.1328 29.2357L41.1328 29.2357L40.8074 30.7ZM45.9074 32.1L46.3818 30.677L46.3818 30.677L45.9074 32.1ZM50.6074 33.8L52.02 34.3045L52.5097 32.9336L51.154 32.4031L50.6074 33.8ZM45.6074 47.8L45.0062 49.1742L46.4793 49.8187L47.02 48.3045L45.6074 47.8ZM39.0074 45.3L38.5082 46.7145L38.5269 46.7211L38.5457 46.7272L39.0074 45.3ZM29.0074 44.3L29.1731 45.7908L29.2537 45.7819L29.3328 45.7643L29.0074 44.3ZM27.6074 44.7L28.2782 46.0416L28.3298 46.0159L28.3792 45.9862L27.6074 44.7ZM27.0074 45.3L25.6658 44.6292L25.6181 44.7245L25.5844 44.8256L27.0074 45.3ZM27.6074 47.3L26.8632 48.6024L26.9377 48.6449L27.0165 48.6787L27.6074 47.3ZM30.3074 48L30.0132 49.4709L30.0188 49.472L30.3074 48ZM35.4074 49L35.7016 47.5291L35.696 47.528L35.4074 49ZM43.0074 51.2L42.4273 52.5833L42.4273 52.5833L43.0074 51.2ZM47.9074 54.4L46.8185 55.4316L46.8464 55.461L46.8758 55.4889L47.9074 54.4ZM50.6074 58.7L52.0361 58.2428L52.0361 58.2428L50.6074 58.7ZM48.9074 72.7L47.7118 71.7942L47.7029 71.8059L47.6943 71.8177L48.9074 72.7ZM42.7074 78L43.3926 79.3344L43.3994 79.3309L43.406 79.3274L42.7074 78ZM34.5074 80.7L34.2449 79.2232L34.2449 79.2232L34.5074 80.7ZM13.6074 80.5L13.8711 79.0234L13.8604 79.0214L13.8497 79.0197L13.6074 80.5ZM3.30742 77.6H1.80742V78.6L2.7305 78.9846L3.30742 77.6ZM2.64719 63.4469C6.1086 65.1437 9.329 66.4145 12.3042 67.2448L13.1106 64.3552C10.3525 63.5855 7.30625 62.3897 3.96766 60.7531L2.64719 63.4469ZM12.3042 67.2448C15.3002 68.0809 18.3358 68.5 21.4074 68.5V65.5C18.6124 65.5 15.848 65.1191 13.1106 64.3552L12.3042 67.2448ZM21.4074 68.5C22.5174 68.5 23.4798 68.4401 24.266 68.3025C24.9969 68.1746 25.807 67.9435 26.3952 67.4289L24.4197 65.1711C24.4745 65.1231 24.3513 65.242 23.7489 65.3475C23.2017 65.4432 22.4307 65.5 21.4074 65.5V68.5ZM26.3283 67.484C27.1868 66.8164 27.8074 65.8833 27.8074 64.7H24.8074C24.8074 64.7167 24.8281 64.8503 24.4865 65.116L26.3283 67.484ZM27.8074 64.7C27.8074 63.8415 27.49 63.0761 26.9598 62.4397L24.6551 64.3603C24.7915 64.5239 24.8074 64.6252 24.8074 64.7H27.8074ZM27.028 62.5281C26.6084 61.9407 25.9652 61.5986 25.4059 61.3789C24.8085 61.1442 24.0826 60.9645 23.2644 60.8222L22.7504 63.7778C23.4656 63.9022 23.973 64.0392 24.3089 64.1711C24.683 64.3181 24.6731 64.3926 24.5868 64.2719L27.028 62.5281ZM23.2284 60.8164L18.5284 60.1164L18.0865 63.0836L22.7865 63.7836L23.2284 60.8164ZM18.5368 60.1176C13.0713 59.2718 9.40781 57.6791 7.26808 55.5393L5.14676 57.6607C7.94036 60.4543 12.3436 62.1949 18.078 63.0824L18.5368 60.1176ZM7.29635 55.5684C5.23562 53.3932 4.10742 50.2418 4.10742 45.9H1.10742C1.10742 50.7582 2.37922 54.7402 5.11849 57.6316L7.29635 55.5684ZM4.10742 45.9C4.10742 41.2235 6.07005 37.6601 10.1176 35.0624L8.49724 32.5376C3.61146 35.6733 1.10742 40.1765 1.10742 45.9H4.10742ZM10.1308 35.0538C14.2664 32.3379 20.0424 30.9 27.6074 30.9V27.9C19.7058 27.9 13.2818 29.3954 8.48403 32.5462L10.1308 35.0538ZM27.6074 30.9C30.226 30.9 32.5623 31.031 34.6214 31.2884L34.9935 28.3116C32.7859 28.0356 30.3222 27.9 27.6074 27.9V30.9ZM34.6716 31.2938C36.8199 31.4891 38.7553 31.7806 40.482 32.1643L41.1328 29.2357C39.2595 28.8194 37.1949 28.5109 34.9432 28.3062L34.6716 31.2938ZM40.482 32.1643C42.2363 32.5541 43.8863 33.0074 45.4331 33.523L46.3818 30.677C44.7286 30.1259 42.9785 29.6459 41.1328 29.2357L40.482 32.1643ZM45.4331 33.523C47.0094 34.0484 48.5519 34.6064 50.0608 35.1969L51.154 32.4031C49.5963 31.7936 48.0055 31.2182 46.3818 30.677L45.4331 33.523ZM49.1948 33.2955L44.1948 47.2955L47.02 48.3045L52.02 34.3045L49.1948 33.2955ZM46.2087 46.4258C44.0287 45.472 41.7821 44.6211 39.4692 43.8728L38.5457 46.7272C40.7661 47.4455 42.9195 48.2613 45.0062 49.1742L46.2087 46.4258ZM39.5067 43.8855C37.0593 43.0217 34.3878 42.6 31.5074 42.6V45.6C34.0937 45.6 36.4222 45.9783 38.5082 46.7145L39.5067 43.8855ZM31.5074 42.6C30.3986 42.6 29.439 42.6675 28.682 42.8357L29.3328 45.7643C29.7758 45.6658 30.4829 45.6 31.5074 45.6V42.6ZM28.8418 42.8092C28.1339 42.8878 27.4279 43.0584 26.8357 43.4138L28.3792 45.9862C28.4536 45.9416 28.681 45.8455 29.1731 45.7908L28.8418 42.8092ZM26.9366 43.3584C26.3796 43.6368 25.9443 44.0722 25.6658 44.6292L28.3491 45.9708C28.3476 45.9738 28.3381 45.9906 28.3181 46.0107C28.298 46.0307 28.2813 46.0401 28.2782 46.0416L26.9366 43.3584ZM25.5844 44.8256C25.4553 45.2129 25.4074 45.6128 25.4074 46H28.4074C28.4074 45.8539 28.4262 45.7871 28.4304 45.7743L25.5844 44.8256ZM25.4074 46C25.4074 47.0625 25.8669 48.0331 26.8632 48.6024L28.3516 45.9976C28.3409 45.9915 28.3474 45.9936 28.3618 46.0081C28.3688 46.015 28.3764 46.0237 28.3839 46.0338C28.3915 46.0439 28.3979 46.0542 28.4031 46.0638C28.4141 46.0841 28.4158 46.0948 28.4143 46.0884C28.4126 46.0808 28.4074 46.0532 28.4074 46H25.4074ZM27.0165 48.6787C27.6464 48.9486 28.693 49.2068 30.0133 49.4709L30.6016 46.5291C29.2552 46.2598 28.5018 46.0514 28.1983 45.9213L27.0165 48.6787ZM30.0188 49.472L35.1188 50.472L35.696 47.528L30.596 46.528L30.0188 49.472ZM35.1132 50.4709C38.0481 51.0578 40.4793 51.7664 42.4273 52.5833L43.5875 49.8167C41.4022 48.9003 38.7667 48.1422 35.7016 47.5291L35.1132 50.4709ZM42.4273 52.5833C44.3543 53.3914 45.7964 54.3527 46.8185 55.4316L48.9964 53.3684C47.6184 51.9139 45.7939 50.742 43.5875 49.8167L42.4273 52.5833ZM46.8758 55.4889C47.9585 56.5146 48.7222 57.7304 49.1788 59.1572L52.0361 58.2428C51.4259 56.3362 50.3897 54.6854 48.939 53.3111L46.8758 55.4889ZM49.1788 59.1572C49.6558 60.6478 49.9074 62.3891 49.9074 64.4H52.9074C52.9074 62.1442 52.6257 60.0855 52.0361 58.2428L49.1788 59.1572ZM49.9074 64.4C49.9074 67.4761 49.1426 69.9055 47.7118 71.7942L50.1031 73.6058C52.0056 71.0945 52.9074 67.9906 52.9074 64.4H49.9074ZM47.6943 71.8177C46.2365 73.8222 44.3498 75.4405 42.0088 76.6726L43.406 79.3274C46.1318 77.8928 48.3783 75.9778 50.1205 73.5823L47.6943 71.8177ZM42.0222 76.6656C39.701 77.8576 37.1121 78.7134 34.2449 79.2232L34.77 82.1768C37.9027 81.6199 40.7805 80.6757 43.3926 79.3344L42.0222 76.6656ZM34.2449 79.2232C31.324 79.7424 28.5121 80 25.8074 80V83C28.7028 83 31.6908 82.7242 34.77 82.1768L34.2449 79.2232ZM25.8074 80C21.4822 80 17.5049 79.6723 13.8711 79.0234L13.3437 81.9766C17.1766 82.6611 21.3327 83 25.8074 83V80ZM13.8497 79.0197C10.2897 78.4372 6.96948 77.5009 3.88434 76.2154L2.7305 78.9846C6.04536 80.3658 9.5918 81.3628 13.3652 81.9803L13.8497 79.0197ZM4.80742 77.6V62.1H1.80742V77.6H4.80742Z" fill="white"/>
</svg>
