<svg width="94" height="105" viewBox="0 0 94 105" fill="none" xmlns="http://www.w3.org/2000/svg">
<path d="M11.3645 49.1C11.0311 48.1667 10.6311 47.5667 10.1645 47.3C9.69779 46.9667 9.09779 46.8 8.36445 46.8C7.69779 46.8 7.03112 46.9333 6.36445 47.2C5.69779 47.4667 5.06445 47.8 4.46445 48.2L0.0644531 35.8C0.864453 35.1333 1.93112 34.4333 3.26445 33.7C4.53112 32.9 5.93112 32.2 7.46445 31.6C8.99779 30.9333 10.5978 30.4 12.2645 30C13.9978 29.6 15.6645 29.4 17.2645 29.4C19.7978 29.4 21.8645 29.7333 23.4645 30.4C25.1311 31 26.4645 31.8333 27.4645 32.9C28.5311 33.9 29.3311 35.0667 29.8645 36.4C30.3978 37.7333 30.8311 39.1333 31.1645 40.6L35.0645 58.6L40.8645 30.6H61.9645L66.5645 58.6L74.4645 29.4L93.9645 33.8L78.0645 80H55.1645L50.1645 57.4L44.2645 80H21.1645L11.3645 49.1Z" fill="black"/>
<path d="M11.3645 49.1L12.7943 48.6465L12.7861 48.6209L12.7771 48.5955L11.3645 49.1ZM10.1645 47.3L9.2926 48.5206L9.35435 48.5647L9.42024 48.6024L10.1645 47.3ZM6.36445 47.2L5.80737 45.8073L5.80737 45.8073L6.36445 47.2ZM4.46445 48.2L3.05081 48.7016L3.69462 50.516L5.2965 49.4481L4.46445 48.2ZM0.0644531 35.8L-0.895823 34.6477L-1.69867 35.3167L-1.34919 36.3016L0.0644531 35.8ZM3.26445 33.7L3.98733 35.0143L4.02708 34.9925L4.06544 34.9682L3.26445 33.7ZM7.46445 31.6L8.01105 32.9969L8.03699 32.9867L8.06254 32.9756L7.46445 31.6ZM12.2645 30L11.9271 28.5384L11.9144 28.5414L12.2645 30ZM23.4645 30.4L22.8875 31.7846L22.9216 31.7988L22.9564 31.8113L23.4645 30.4ZM27.4645 32.9L26.3701 33.9259L26.4032 33.9612L26.4385 33.9943L27.4645 32.9ZM29.8645 36.4L28.4717 36.9571L28.4717 36.9571L29.8645 36.4ZM31.1645 40.6L32.6304 40.2824L32.6288 40.275L32.6272 40.2676L31.1645 40.6ZM35.0645 58.6L33.5985 58.9176L36.5333 58.9043L35.0645 58.6ZM40.8645 30.6V29.1H39.6433L39.3956 30.2957L40.8645 30.6ZM61.9645 30.6L63.4446 30.3568L63.2381 29.1H61.9645V30.6ZM66.5645 58.6L65.0843 58.8432L68.0124 58.9917L66.5645 58.6ZM74.4645 29.4L74.7946 27.9368L73.392 27.6203L73.0165 29.0083L74.4645 29.4ZM93.9645 33.8L95.3828 34.2881L95.9276 32.7052L94.2946 32.3368L93.9645 33.8ZM78.0645 80V81.5H79.1346L79.4828 80.4881L78.0645 80ZM55.1645 80L53.6999 80.324L53.96 81.5H55.1645V80ZM50.1645 57.4L51.629 57.076L48.7131 57.0211L50.1645 57.4ZM44.2645 80V81.5H45.4231L45.7158 80.3789L44.2645 80ZM21.1645 80L19.7346 80.4535L20.0666 81.5H21.1645V80ZM12.7771 48.5955C12.4131 47.5765 11.8584 46.5403 10.9087 45.9976L9.42024 48.6024C9.39446 48.5876 9.45345 48.6127 9.56638 48.782C9.67837 48.95 9.81223 49.2136 9.95184 49.6045L12.7771 48.5955ZM11.0363 46.0794C10.2524 45.5195 9.32313 45.3 8.36445 45.3V48.3C8.87244 48.3 9.14318 48.4139 9.2926 48.5206L11.0363 46.0794ZM8.36445 45.3C7.49268 45.3 6.63746 45.4752 5.80737 45.8073L6.92154 48.5927C7.42478 48.3914 7.90289 48.3 8.36445 48.3V45.3ZM5.80737 45.8073C5.04387 46.1127 4.31843 46.4946 3.6324 46.9519L5.2965 49.4481C5.81048 49.1054 6.3517 48.8206 6.92154 48.5927L5.80737 45.8073ZM5.87809 47.6984L1.47809 35.2984L-1.34919 36.3016L3.05081 48.7016L5.87809 47.6984ZM1.02473 36.9523C1.72574 36.3682 2.70341 35.7205 3.98733 35.0143L2.54157 32.3857C1.15883 33.1462 0.00316944 33.8985 -0.895823 34.6477L1.02473 36.9523ZM4.06544 34.9682C5.24412 34.2238 6.55778 33.5655 8.01105 32.9969L6.91785 30.2031C5.30446 30.8345 3.81812 31.5762 2.46346 32.4318L4.06544 34.9682ZM8.06254 32.9756C9.51379 32.3446 11.0306 31.8387 12.6145 31.4586L11.9144 28.5414C10.1649 28.9613 8.48179 29.522 6.86636 30.2244L8.06254 32.9756ZM12.6017 31.4616C14.2366 31.0843 15.7898 30.9 17.2645 30.9V27.9C15.5391 27.9 13.759 28.1157 11.9272 28.5384L12.6017 31.4616ZM17.2645 30.9C19.6833 30.9 21.5343 31.2208 22.8875 31.7846L24.0414 29.0154C22.1946 28.2459 19.9122 27.9 17.2645 27.9V30.9ZM22.9564 31.8113C24.4466 32.3478 25.5632 33.0651 26.3701 33.9259L28.5588 31.8741C27.3658 30.6015 25.8157 29.6522 23.9725 28.9887L22.9564 31.8113ZM26.4385 33.9943C27.3481 34.847 28.0214 35.8313 28.4717 36.9571L31.2572 35.8429C30.6408 34.302 29.7141 32.953 28.4904 31.8057L26.4385 33.9943ZM28.4717 36.9571C28.9746 38.2141 29.385 39.5388 29.7018 40.9324L32.6272 40.2676C32.2772 38.7279 31.821 37.2525 31.2572 35.8429L28.4717 36.9571ZM29.6985 40.9176L33.5985 58.9176L36.5304 58.2824L32.6304 40.2824L29.6985 40.9176ZM36.5333 58.9043L42.3333 30.9043L39.3956 30.2957L33.5956 58.2957L36.5333 58.9043ZM40.8645 32.1H61.9645V29.1H40.8645V32.1ZM60.4843 30.8432L65.0843 58.8432L68.0446 58.3568L63.4446 30.3568L60.4843 30.8432ZM68.0124 58.9917L75.9124 29.7917L73.0165 29.0083L65.1165 58.2083L68.0124 58.9917ZM74.1343 30.8632L93.6343 35.2632L94.2946 32.3368L74.7946 27.9368L74.1343 30.8632ZM92.5461 33.3119L76.6461 79.5119L79.4828 80.4881L95.3828 34.2881L92.5461 33.3119ZM78.0645 78.5H55.1645V81.5H78.0645V78.5ZM56.629 79.676L51.629 57.076L48.6999 57.724L53.6999 80.324L56.629 79.676ZM48.7131 57.0211L42.8131 79.6211L45.7158 80.3789L51.6158 57.7789L48.7131 57.0211ZM44.2645 78.5H21.1645V81.5H44.2645V78.5ZM22.5943 79.5465L12.7943 48.6465L9.93464 49.5535L19.7346 80.4535L22.5943 79.5465Z" fill="white"/>
</svg>
