<svg width="66" height="105" viewBox="0 0 66 105" fill="none" xmlns="http://www.w3.org/2000/svg">
<path d="M18.8293 54L15.8293 49.6C15.3626 48.9333 14.8626 48.5 14.3293 48.3C13.8626 48.0333 13.196 47.9 12.3293 47.9C11.596 47.9 10.8293 48.0667 10.0293 48.4C9.2293 48.7333 8.5293 49.1333 7.9293 49.6L1.1293 38.3C1.79596 37.5667 2.7293 36.7 3.9293 35.7C5.19596 34.6333 6.59596 33.6333 8.1293 32.7C9.7293 31.7667 11.4626 31 13.3293 30.4C15.2626 29.7333 17.2626 29.4 19.3293 29.4C21.7293 29.4 23.7293 29.5667 25.3293 29.9C26.9293 30.2333 28.296 30.7667 29.4293 31.5C30.6293 32.1667 31.6626 33.0333 32.5293 34.1C33.4626 35.1667 34.4293 36.4 35.4293 37.8L36.5293 39.5L48.4293 29.4L62.5293 43.2L47.0293 56.2L50.7293 61.3C51.196 61.9667 51.6626 62.4333 52.1293 62.7C52.596 62.9 53.2626 63 54.1293 63C54.8626 63 55.6293 62.8333 56.4293 62.5C57.2293 62.1667 57.9293 61.7667 58.5293 61.3L65.3293 72.6C64.596 73.3333 63.6293 74.2333 62.4293 75.3C61.2293 76.3 59.8293 77.2667 58.2293 78.2C56.696 79.1333 54.9626 79.9 53.0293 80.5C51.1626 81.1667 49.196 81.5 47.1293 81.5C44.7293 81.5 42.7293 81.3333 41.1293 81C39.5293 80.6667 38.1293 80.1667 36.9293 79.5C35.7293 78.7667 34.6626 77.9 33.7293 76.9C32.8626 75.8333 31.9626 74.5667 31.0293 73.1L29.3293 70.6L16.3293 82.2L2.3293 68.4L18.8293 54Z" fill="black"/>
<path d="M18.8293 54L19.8156 55.1301L20.8185 54.2548L20.0686 53.155L18.8293 54ZM15.8293 49.6L17.0686 48.755L17.0634 48.7474L17.0581 48.7398L15.8293 49.6ZM14.3293 48.3L13.5851 49.6024L13.6897 49.6622L13.8026 49.7045L14.3293 48.3ZM7.9293 49.6L6.64406 50.3734L7.51574 51.8219L8.85021 50.784L7.9293 49.6ZM1.1293 38.3L0.0193865 37.291L-0.7315 38.117L-0.155938 39.0734L1.1293 38.3ZM3.9293 35.7L4.88959 36.8523L4.8955 36.8474L3.9293 35.7ZM8.1293 32.7L7.37349 31.4043L7.36137 31.4114L7.34938 31.4187L8.1293 32.7ZM13.3293 30.4L13.7883 31.828L13.8034 31.8232L13.8183 31.8181L13.3293 30.4ZM25.3293 29.9L25.6352 28.4315L25.6352 28.4315L25.3293 29.9ZM29.4293 31.5L28.6144 32.7594L28.6568 32.7867L28.7008 32.8112L29.4293 31.5ZM32.5293 34.1L31.3651 35.0459L31.3824 35.0671L31.4004 35.0878L32.5293 34.1ZM35.4293 37.8L36.6887 36.9851L36.6699 36.9562L36.6499 36.9281L35.4293 37.8ZM36.5293 39.5L35.2699 40.3149L36.1978 41.7488L37.4999 40.6436L36.5293 39.5ZM48.4293 29.4L49.4785 28.328L48.5012 27.3715L47.4587 28.2564L48.4293 29.4ZM62.5293 43.2L63.4932 44.3493L64.7614 43.2857L63.5785 42.128L62.5293 43.2ZM47.0293 56.2L46.0654 55.0507L44.9941 55.9492L45.8152 57.0808L47.0293 56.2ZM50.7293 61.3L51.9582 60.4398L51.9509 60.4294L51.9434 60.4192L50.7293 61.3ZM52.1293 62.7L51.3851 64.0024L51.4596 64.0449L51.5384 64.0787L52.1293 62.7ZM56.4293 62.5L55.8524 61.1154L55.8524 61.1154L56.4293 62.5ZM58.5293 61.3L59.8145 60.5266L58.9429 59.0781L57.6084 60.116L58.5293 61.3ZM65.3293 72.6L66.39 73.6607L67.2192 72.8314L66.6145 71.8266L65.3293 72.6ZM62.4293 75.3L63.3896 76.4523L63.408 76.437L63.4258 76.4211L62.4293 75.3ZM58.2293 78.2L57.4735 76.9043L57.4614 76.9114L57.4494 76.9187L58.2293 78.2ZM53.0293 80.5L52.5847 79.0674L52.5545 79.0768L52.5248 79.0874L53.0293 80.5ZM41.1293 81L40.8234 82.4685L40.8234 82.4685L41.1293 81ZM36.9293 79.5L36.1471 80.7799L36.1737 80.7961L36.2008 80.8112L36.9293 79.5ZM33.7293 76.9L32.5651 77.8459L32.5976 77.8858L32.6327 77.9235L33.7293 76.9ZM31.0293 73.1L32.2948 72.2947L32.2825 72.2754L32.2697 72.2565L31.0293 73.1ZM29.3293 70.6L30.5697 69.7565L29.6074 68.3415L28.3306 69.4808L29.3293 70.6ZM16.3293 82.2L15.2763 83.2683L16.2782 84.2559L17.328 83.3192L16.3293 82.2ZM2.3293 68.4L1.343 67.2699L0.124691 68.3331L1.27629 69.4683L2.3293 68.4ZM20.0686 53.155L17.0686 48.755L14.59 50.445L17.59 54.845L20.0686 53.155ZM17.0581 48.7398C16.4892 47.927 15.7706 47.2385 14.856 46.8955L13.8026 49.7045C13.9546 49.7615 14.2361 49.9397 14.6005 50.4602L17.0581 48.7398ZM15.0735 46.9976C14.2816 46.5451 13.3134 46.4 12.3293 46.4V49.4C13.0786 49.4 13.4436 49.5215 13.5851 49.6024L15.0735 46.9976ZM12.3293 46.4C11.3654 46.4 10.4025 46.6195 9.45237 47.0154L10.6062 49.7846C11.2561 49.5138 11.8266 49.4 12.3293 49.4V46.4ZM9.45237 47.0154C8.54618 47.393 7.72714 47.8569 7.00839 48.416L8.85021 50.784C9.33146 50.4097 9.91242 50.0737 10.6062 49.7846L9.45237 47.0154ZM9.21453 48.8266L2.41453 37.5266L-0.155938 39.0734L6.64406 50.3734L9.21453 48.8266ZM2.23921 39.309C2.84082 38.6472 3.71619 37.8302 4.88957 36.8523L2.96902 34.5477C1.74241 35.5698 0.751111 36.4861 0.0193865 37.291L2.23921 39.309ZM4.8955 36.8474C6.09894 35.8339 7.4359 34.8781 8.90922 33.9813L7.34938 31.4187C5.75602 32.3886 4.29299 33.4327 2.96309 34.5526L4.8955 36.8474ZM8.8851 33.9957C10.386 33.1202 12.0191 32.3967 13.7883 31.828L12.8703 28.972C10.9062 29.6033 9.07264 30.4132 7.37349 31.4043L8.8851 33.9957ZM13.8183 31.8181C15.5926 31.2062 17.4273 30.9 19.3293 30.9V27.9C17.098 27.9 14.9327 28.2604 12.8403 28.9819L13.8183 31.8181ZM19.3293 30.9C21.6696 30.9 23.5588 31.0634 25.0234 31.3685L25.6352 28.4315C23.8998 28.07 21.789 27.9 19.3293 27.9V30.9ZM25.0234 31.3685C26.4794 31.6718 27.6653 32.1452 28.6144 32.7594L30.2442 30.2406C28.9266 29.3881 27.3792 28.7949 25.6352 28.4315L25.0234 31.3685ZM28.7008 32.8112C29.7334 33.3849 30.6189 34.1275 31.3651 35.0459L33.6935 33.1541C32.7063 31.9392 31.5252 30.9484 30.1578 30.1888L28.7008 32.8112ZM31.4004 35.0878C32.2953 36.1105 33.2315 37.3038 34.2087 38.6719L36.6499 36.9281C35.6271 35.4962 34.6299 34.2228 33.6582 33.1122L31.4004 35.0878ZM34.1699 38.6149L35.2699 40.3149L37.7887 38.6851L36.6887 36.9851L34.1699 38.6149ZM37.4999 40.6436L49.3999 30.5436L47.4587 28.2564L35.5587 38.3564L37.4999 40.6436ZM47.3801 30.472L61.4801 44.272L63.5785 42.128L49.4785 28.328L47.3801 30.472ZM61.5654 42.0507L46.0654 55.0507L47.9932 57.3493L63.4932 44.3493L61.5654 42.0507ZM45.8152 57.0808L49.5152 62.1808L51.9434 60.4192L48.2434 55.3192L45.8152 57.0808ZM49.5005 62.1602C50.0348 62.9235 50.6531 63.5841 51.3851 64.0024L52.8735 61.3976C52.6722 61.2826 52.3572 61.0098 51.9582 60.4398L49.5005 62.1602ZM51.5384 64.0787C52.2791 64.3962 53.183 64.5 54.1293 64.5V61.5C53.3422 61.5 52.9128 61.4038 52.7202 61.3213L51.5384 64.0787ZM54.1293 64.5C55.0932 64.5 56.0561 64.2805 57.0062 63.8846L55.8524 61.1154C55.2025 61.3862 54.632 61.5 54.1293 61.5V64.5ZM57.0062 63.8846C57.9124 63.507 58.7315 63.0431 59.4502 62.484L57.6084 60.116C57.1271 60.4903 56.5462 60.8263 55.8524 61.1154L57.0062 63.8846ZM57.2441 62.0734L64.0441 73.3734L66.6145 71.8266L59.8145 60.5266L57.2441 62.0734ZM64.2686 71.5393C63.5641 72.2439 62.6213 73.1224 61.4328 74.1789L63.4258 76.4211C64.6373 75.3442 65.6279 74.4227 66.39 73.6607L64.2686 71.5393ZM61.469 74.1477C60.3436 75.0856 59.0143 76.0055 57.4735 76.9043L58.9851 79.4957C60.6443 78.5278 62.115 77.5144 63.3896 76.4523L61.469 74.1477ZM57.4494 76.9187C56.0336 77.7805 54.4152 78.4993 52.5847 79.0674L53.4739 81.9326C55.5101 81.3007 57.3584 80.4862 59.0092 79.4813L57.4494 76.9187ZM52.5248 79.0874C50.8269 79.6938 49.0314 80 47.1293 80V83C49.3605 83 51.4984 82.6395 53.5338 81.9126L52.5248 79.0874ZM47.1293 80C44.789 80 42.8998 79.8366 41.4352 79.5315L40.8234 82.4685C42.5588 82.83 44.6696 83 47.1293 83V80ZM41.4352 79.5315C39.9559 79.2233 38.7033 78.7696 37.6578 78.1888L36.2008 80.8112C37.5553 81.5637 39.1027 82.11 40.8234 82.4685L41.4352 79.5315ZM37.7115 78.2201C36.6241 77.5556 35.6639 76.7744 34.8259 75.8765L32.6327 77.9235C33.6613 79.0256 34.8345 79.9777 36.1471 80.7799L37.7115 78.2201ZM34.8935 75.9541C34.0713 74.9422 33.2048 73.7247 32.2948 72.2947L29.7638 73.9053C30.7205 75.4086 31.654 76.7244 32.5651 77.8459L34.8935 75.9541ZM32.2697 72.2565L30.5697 69.7565L28.0889 71.4435L29.7889 73.9435L32.2697 72.2565ZM28.3306 69.4808L15.3306 81.0808L17.328 83.3192L30.328 71.7192L28.3306 69.4808ZM17.3823 81.1317L3.3823 67.3317L1.27629 69.4683L15.2763 83.2683L17.3823 81.1317ZM3.3156 69.5301L19.8156 55.1301L17.843 52.8699L1.343 67.2699L3.3156 69.5301Z" fill="white"/>
</svg>
