<svg width="67" height="105" viewBox="0 0 67 105" fill="none" xmlns="http://www.w3.org/2000/svg">
<path d="M9.67578 83.6C12.5424 84.9333 15.3424 85.8667 18.0758 86.4C20.8758 87 23.8424 87.3 26.9758 87.3C30.9758 87.3 34.0091 86.5333 36.0758 85C38.2091 83.4667 39.2758 81.1 39.2758 77.9V74C37.2091 75.9333 35.1091 77.3333 32.9758 78.2C30.8425 79 28.1424 79.4 24.8758 79.4C19.4758 79.4 15.5758 77.9333 13.1758 75C10.8424 72 9.67578 67.9 9.67578 62.7V48.4C9.67578 47.6667 9.50911 47.1 9.17578 46.7C8.84245 46.2333 8.30911 46 7.57578 46C6.77578 46 6.00911 46.1667 5.27578 46.5C4.60911 46.7667 3.94245 47.0667 3.27578 47.4L0.175781 35.4C1.17578 34.6667 2.34245 33.9333 3.67578 33.2C5.07578 32.4667 6.54245 31.8333 8.07578 31.3C9.60911 30.7 11.1424 30.2333 12.6758 29.9C14.2758 29.5667 15.8091 29.4 17.2758 29.4C20.4758 29.4 23.0758 29.8 25.0758 30.6C27.0758 31.3333 28.6091 32.4 29.6758 33.8C30.8091 35.1333 31.5425 36.7333 31.8758 38.6C32.2758 40.4667 32.4758 42.5 32.4758 44.7V56.1C32.4758 59.0333 33.5091 60.5 35.5758 60.5C36.6425 60.5 37.4758 60.1 38.0758 59.3C38.6758 58.5 38.9758 57.4333 38.9758 56.1V30.6H61.7758V75.4C61.7758 84.6667 59.3424 91.7667 54.4758 96.7C49.6091 101.7 41.8424 104.2 31.1758 104.2C27.1091 104.2 23.2424 103.9 19.5758 103.3C15.9091 102.7 12.6091 101.7 9.67578 100.3V83.6Z" fill="black"/>
<path d="M9.67578 83.6L10.3084 82.2399L8.17578 81.248V83.6H9.67578ZM18.0758 86.4L18.3901 84.9333L18.3766 84.9304L18.363 84.9278L18.0758 86.4ZM36.0758 85L35.2003 83.782L35.1911 83.7886L35.182 83.7954L36.0758 85ZM39.2758 74H40.7758V70.5427L38.251 72.9046L39.2758 74ZM32.9758 78.2L33.5025 79.6045L33.5215 79.5974L33.5404 79.5897L32.9758 78.2ZM13.1758 75L11.9918 75.9209L12.0031 75.9355L12.0148 75.9499L13.1758 75ZM9.17578 46.7L7.95518 47.5719L7.98767 47.6173L8.02345 47.6603L9.17578 46.7ZM5.27578 46.5L5.83286 47.8927L5.86499 47.8799L5.89649 47.8655L5.27578 46.5ZM3.27578 47.4L1.82346 47.7752L2.28744 49.5712L3.9466 48.7416L3.27578 47.4ZM0.175781 35.4L-0.711265 34.1904L-1.53071 34.7913L-1.27654 35.7752L0.175781 35.4ZM3.67578 33.2L2.97977 31.8713L2.96626 31.8783L2.9529 31.8857L3.67578 33.2ZM8.07578 31.3L8.56856 32.7167L8.59566 32.7073L8.62238 32.6969L8.07578 31.3ZM12.6758 29.9L12.3698 28.4315L12.3571 28.4342L12.6758 29.9ZM25.0758 30.6L24.5187 31.9927L24.5389 32.0008L24.5594 32.0083L25.0758 30.6ZM29.6758 33.8L28.4826 34.7091L28.5069 34.7409L28.5329 34.7715L29.6758 33.8ZM31.8758 38.6L30.3991 38.8637L30.4037 38.8891L30.4091 38.9143L31.8758 38.6ZM38.0758 59.3L36.8758 58.4L36.8758 58.4L38.0758 59.3ZM38.9758 30.6V29.1H37.4758V30.6H38.9758ZM61.7758 30.6H63.2758V29.1H61.7758V30.6ZM54.4758 96.7L53.4079 95.6466L53.4009 95.6538L54.4758 96.7ZM9.67578 100.3H8.17578V101.246L9.02969 101.654L9.67578 100.3ZM9.04319 84.9601C12.0054 86.3379 14.9212 87.3128 17.7885 87.8722L18.363 84.9278C15.7637 84.4206 13.0795 83.5288 10.3084 82.2399L9.04319 84.9601ZM17.7615 87.8667C20.6739 88.4908 23.7466 88.8 26.9758 88.8V85.8C23.9383 85.8 21.0776 85.5092 18.3901 84.9333L17.7615 87.8667ZM26.9758 88.8C31.1307 88.8 34.5365 88.0098 36.9696 86.2046L35.182 83.7954C33.4818 85.0568 30.8209 85.8 26.9758 85.8V88.8ZM36.9512 86.218C39.564 84.3401 40.7758 81.4642 40.7758 77.9H37.7758C37.7758 80.7358 36.8542 82.5932 35.2003 83.782L36.9512 86.218ZM40.7758 77.9V74H37.7758V77.9H40.7758ZM38.251 72.9046C36.2888 74.7403 34.3404 76.0266 32.4112 76.8103L33.5404 79.5897C35.8778 78.6401 38.1295 77.1264 40.3005 75.0954L38.251 72.9046ZM32.4491 76.7955C30.5402 77.5114 28.0341 77.9 24.8758 77.9V80.9C28.2508 80.9 31.1447 80.4886 33.5025 79.6045L32.4491 76.7955ZM24.8758 77.9C19.7266 77.9 16.346 76.506 14.3367 74.0501L12.0148 75.9499C14.8055 79.3607 19.225 80.9 24.8758 80.9V77.9ZM14.3598 74.0791C12.295 71.4244 11.1758 67.6878 11.1758 62.7H8.17578C8.17578 68.1122 9.38985 72.5756 11.9918 75.9209L14.3598 74.0791ZM11.1758 62.7V48.4H8.17578V62.7H11.1758ZM11.1758 48.4C11.1758 47.4571 10.9625 46.5009 10.3281 45.7397L8.02345 47.6603C8.05576 47.6991 8.17578 47.8762 8.17578 48.4H11.1758ZM10.3964 45.8281C9.70437 44.8593 8.6436 44.5 7.57578 44.5V47.5C7.78744 47.5 7.88988 47.5341 7.92455 47.5492C7.94715 47.5591 7.94834 47.5623 7.95518 47.5719L10.3964 45.8281ZM7.57578 44.5C6.56013 44.5 5.58195 44.7131 4.65508 45.1344L5.89649 47.8655C6.43628 47.6202 6.99143 47.5 7.57578 47.5V44.5ZM4.7187 45.1073C4.012 45.39 3.30741 45.7071 2.60496 46.0584L3.9466 48.7416C4.57749 48.4262 5.20623 48.1434 5.83286 47.8927L4.7187 45.1073ZM4.7281 47.0248L1.6281 35.0248L-1.27654 35.7752L1.82346 47.7752L4.7281 47.0248ZM1.06283 36.6096C2.00026 35.9222 3.11002 35.2231 4.39866 34.5143L2.9529 31.8857C1.57488 32.6436 0.351305 33.4112 -0.711265 34.1904L1.06283 36.6096ZM4.37179 34.5287C5.70456 33.8306 7.10315 33.2265 8.56856 32.7167L7.583 29.8833C5.98174 30.4402 4.44701 31.1027 2.97977 31.8713L4.37179 34.5287ZM8.62238 32.6969C10.0853 32.1244 11.5425 31.6814 12.9944 31.3658L12.3571 28.4342C10.7424 28.7853 9.13293 29.2756 7.52918 29.9031L8.62238 32.6969ZM12.9817 31.3685C14.4924 31.0537 15.9228 30.9 17.2758 30.9V27.9C15.6954 27.9 14.0592 28.0796 12.3699 28.4315L12.9817 31.3685ZM17.2758 30.9C20.369 30.9 22.76 31.2892 24.5187 31.9927L25.6329 29.2073C23.3915 28.3107 20.5826 27.9 17.2758 27.9V30.9ZM24.5594 32.0083C26.3477 32.664 27.6227 33.5805 28.4826 34.7091L30.8689 32.8909C29.5955 31.2195 27.8038 30.0026 25.5922 29.1917L24.5594 32.0083ZM28.5329 34.7715C29.48 35.8858 30.1084 37.2358 30.3991 38.8637L33.3524 38.3363C32.9765 36.2309 32.1382 34.3809 30.8187 32.8285L28.5329 34.7715ZM30.4091 38.9143C30.7839 40.6634 30.9758 42.59 30.9758 44.7H33.9758C33.9758 42.41 33.7677 40.2699 33.3425 38.2857L30.4091 38.9143ZM30.9758 44.7V56.1H33.9758V44.7H30.9758ZM30.9758 56.1C30.9758 57.697 31.2488 59.1629 32.0246 60.2639C32.868 61.4611 34.1399 62 35.5758 62V59C34.945 59 34.6669 58.8056 34.477 58.5361C34.2194 58.1705 33.9758 57.4363 33.9758 56.1H30.9758ZM35.5758 62C37.0779 62 38.3712 61.4061 39.2758 60.2L36.8758 58.4C36.5804 58.7939 36.207 59 35.5758 59V62ZM39.2758 60.2C40.1264 59.0659 40.4758 57.6505 40.4758 56.1H37.4758C37.4758 57.2162 37.2252 57.9341 36.8758 58.4L39.2758 60.2ZM40.4758 56.1V30.6H37.4758V56.1H40.4758ZM38.9758 32.1H61.7758V29.1H38.9758V32.1ZM60.2758 30.6V75.4H63.2758V30.6H60.2758ZM60.2758 75.4C60.2758 84.4093 57.9145 91.0783 53.4079 95.6466L55.5436 97.7534C60.7704 92.455 63.2758 84.924 63.2758 75.4H60.2758ZM53.4009 95.6538C48.9358 100.241 41.6484 102.7 31.1758 102.7V105.7C42.0365 105.7 50.2824 103.159 55.5507 97.7462L53.4009 95.6538ZM31.1758 102.7C27.1827 102.7 23.3975 102.405 19.818 101.82L19.3335 104.78C23.0874 105.395 27.0355 105.7 31.1758 105.7V102.7ZM19.818 101.82C16.2717 101.239 13.1105 100.277 10.3219 98.9463L9.02969 101.654C12.1078 103.123 15.5466 104.161 19.3335 104.78L19.818 101.82ZM11.1758 100.3V83.6H8.17578V100.3H11.1758Z" fill="white"/>
</svg>
