<svg width="55" height="105" viewBox="0 0 55 105" fill="none" xmlns="http://www.w3.org/2000/svg">
<path d="M0.666016 65.3L20.166 46.4H1.76602V30.6H52.166V43.1L25.666 65.9L25.866 66.1C28.5994 64.1667 31.1994 63.2 33.666 63.2C33.9994 63.2 34.3327 63.2333 34.666 63.3C35.066 63.3 35.4327 63.3 35.766 63.3C37.2994 63.3 38.3994 62.7667 39.066 61.7C39.7994 60.6333 40.166 59.4667 40.166 58.2L54.366 60C54.366 67.5333 52.766 73 49.566 76.4C46.4327 79.8 41.5327 81.5 34.866 81.5C31.866 81.5 28.666 81.1667 25.266 80.5C21.866 79.8333 18.1993 79.5 14.266 79.5C11.866 79.5 9.56602 79.6667 7.36602 80C5.23268 80.2667 2.99935 80.6667 0.666016 81.2V65.3Z" fill="black"/>
<path d="M0.666016 65.3L-0.377944 64.2229L-0.833984 64.6649V65.3H0.666016ZM20.166 46.4L21.21 47.4771L23.8689 44.9H20.166V46.4ZM1.76602 46.4H0.266016V47.9H1.76602V46.4ZM1.76602 30.6V29.1H0.266016V30.6H1.76602ZM52.166 30.6H53.666V29.1H52.166V30.6ZM52.166 43.1L53.1443 44.2371L53.666 43.7882V43.1H52.166ZM25.666 65.9L24.6877 64.7629L23.4621 65.8174L24.6054 66.9607L25.666 65.9ZM25.866 66.1L24.8054 67.1607L25.6997 68.055L26.7322 67.3246L25.866 66.1ZM34.666 63.3L34.3718 64.7709L34.5175 64.8H34.666V63.3ZM39.066 61.7L37.83 60.8502L37.8114 60.8772L37.794 60.905L39.066 61.7ZM40.166 58.2L40.3546 56.7119L38.666 56.4979V58.2H40.166ZM54.366 60H55.866V58.6781L54.5547 58.5119L54.366 60ZM49.566 76.4L48.4737 75.372L48.4683 75.3777L48.463 75.3835L49.566 76.4ZM25.266 80.5L25.5546 79.028L25.5546 79.028L25.266 80.5ZM7.36602 80L7.55207 81.4884L7.57143 81.486L7.59072 81.4831L7.36602 80ZM0.666016 81.2H-0.833984V83.0815L1.00025 82.6623L0.666016 81.2ZM1.70998 66.3771L21.21 47.4771L19.1221 45.3229L-0.377944 64.2229L1.70998 66.3771ZM20.166 44.9H1.76602V47.9H20.166V44.9ZM3.26602 46.4V30.6H0.266016V46.4H3.26602ZM1.76602 32.1H52.166V29.1H1.76602V32.1ZM50.666 30.6V43.1H53.666V30.6H50.666ZM51.1877 41.9629L24.6877 64.7629L26.6443 67.0371L53.1443 44.2371L51.1877 41.9629ZM24.6054 66.9607L24.8054 67.1607L26.9267 65.0393L26.7267 64.8393L24.6054 66.9607ZM26.7322 67.3246C29.301 65.5077 31.603 64.7 33.666 64.7V61.7C30.7957 61.7 27.8977 62.8256 24.9998 64.8754L26.7322 67.3246ZM33.666 64.7C33.8986 64.7 34.1334 64.7232 34.3718 64.7709L34.9602 61.8291C34.5319 61.7435 34.1001 61.7 33.666 61.7V64.7ZM34.666 64.8C34.6668 64.8 34.6676 64.8 34.6684 64.8C34.6691 64.8 34.6699 64.8 34.6707 64.8C34.6715 64.8 34.6723 64.8 34.673 64.8C34.6738 64.8 34.6746 64.8 34.6754 64.8C34.6762 64.8 34.6769 64.8 34.6777 64.8C34.6785 64.8 34.6793 64.8 34.6801 64.8C34.6808 64.8 34.6816 64.8 34.6824 64.8C34.6832 64.8 34.684 64.8 34.6847 64.8C34.6855 64.8 34.6863 64.8 34.6871 64.8C34.6879 64.8 34.6886 64.8 34.6894 64.8C34.6902 64.8 34.691 64.8 34.6918 64.8C34.6925 64.8 34.6933 64.8 34.6941 64.8C34.6949 64.8 34.6956 64.8 34.6964 64.8C34.6972 64.8 34.698 64.8 34.6988 64.8C34.6995 64.8 34.7003 64.8 34.7011 64.8C34.7019 64.8 34.7026 64.8 34.7034 64.8C34.7042 64.8 34.705 64.8 34.7057 64.8C34.7065 64.8 34.7073 64.8 34.7081 64.8C34.7089 64.8 34.7096 64.8 34.7104 64.8C34.7112 64.8 34.712 64.8 34.7127 64.8C34.7135 64.8 34.7143 64.8 34.7151 64.8C34.7158 64.8 34.7166 64.8 34.7174 64.8C34.7182 64.8 34.7189 64.8 34.7197 64.8C34.7205 64.8 34.7213 64.8 34.722 64.8C34.7228 64.8 34.7236 64.8 34.7244 64.8C34.7251 64.8 34.7259 64.8 34.7267 64.8C34.7275 64.8 34.7282 64.8 34.729 64.8C34.7298 64.8 34.7306 64.8 34.7313 64.8C34.7321 64.8 34.7329 64.8 34.7337 64.8C34.7344 64.8 34.7352 64.8 34.736 64.8C34.7368 64.8 34.7375 64.8 34.7383 64.8C34.7391 64.8 34.7399 64.8 34.7406 64.8C34.7414 64.8 34.7422 64.8 34.7429 64.8C34.7437 64.8 34.7445 64.8 34.7453 64.8C34.746 64.8 34.7468 64.8 34.7476 64.8C34.7484 64.8 34.7491 64.8 34.7499 64.8C34.7507 64.8 34.7514 64.8 34.7522 64.8C34.753 64.8 34.7538 64.8 34.7545 64.8C34.7553 64.8 34.7561 64.8 34.7568 64.8C34.7576 64.8 34.7584 64.8 34.7592 64.8C34.7599 64.8 34.7607 64.8 34.7615 64.8C34.7622 64.8 34.763 64.8 34.7638 64.8C34.7646 64.8 34.7653 64.8 34.7661 64.8C34.7669 64.8 34.7676 64.8 34.7684 64.8C34.7692 64.8 34.7699 64.8 34.7707 64.8C34.7715 64.8 34.7723 64.8 34.773 64.8C34.7738 64.8 34.7746 64.8 34.7753 64.8C34.7761 64.8 34.7769 64.8 34.7776 64.8C34.7784 64.8 34.7792 64.8 34.7799 64.8C34.7807 64.8 34.7815 64.8 34.7823 64.8C34.783 64.8 34.7838 64.8 34.7846 64.8C34.7853 64.8 34.7861 64.8 34.7869 64.8C34.7876 64.8 34.7884 64.8 34.7892 64.8C34.7899 64.8 34.7907 64.8 34.7915 64.8C34.7922 64.8 34.793 64.8 34.7938 64.8C34.7945 64.8 34.7953 64.8 34.7961 64.8C34.7968 64.8 34.7976 64.8 34.7984 64.8C34.7991 64.8 34.7999 64.8 34.8007 64.8C34.8014 64.8 34.8022 64.8 34.803 64.8C34.8037 64.8 34.8045 64.8 34.8053 64.8C34.806 64.8 34.8068 64.8 34.8076 64.8C34.8083 64.8 34.8091 64.8 34.8099 64.8C34.8106 64.8 34.8114 64.8 34.8122 64.8C34.8129 64.8 34.8137 64.8 34.8145 64.8C34.8152 64.8 34.816 64.8 34.8167 64.8C34.8175 64.8 34.8183 64.8 34.819 64.8C34.8198 64.8 34.8206 64.8 34.8213 64.8C34.8221 64.8 34.8229 64.8 34.8236 64.8C34.8244 64.8 34.8252 64.8 34.8259 64.8C34.8267 64.8 34.8274 64.8 34.8282 64.8C34.829 64.8 34.8297 64.8 34.8305 64.8C34.8313 64.8 34.832 64.8 34.8328 64.8C34.8336 64.8 34.8343 64.8 34.8351 64.8C34.8358 64.8 34.8366 64.8 34.8374 64.8C34.8381 64.8 34.8389 64.8 34.8397 64.8C34.8404 64.8 34.8412 64.8 34.8419 64.8C34.8427 64.8 34.8435 64.8 34.8442 64.8C34.845 64.8 34.8457 64.8 34.8465 64.8C34.8473 64.8 34.848 64.8 34.8488 64.8C34.8496 64.8 34.8503 64.8 34.8511 64.8C34.8518 64.8 34.8526 64.8 34.8534 64.8C34.8541 64.8 34.8549 64.8 34.8556 64.8C34.8564 64.8 34.8572 64.8 34.8579 64.8C34.8587 64.8 34.8594 64.8 34.8602 64.8C34.861 64.8 34.8617 64.8 34.8625 64.8C34.8632 64.8 34.864 64.8 34.8648 64.8C34.8655 64.8 34.8663 64.8 34.867 64.8C34.8678 64.8 34.8686 64.8 34.8693 64.8C34.8701 64.8 34.8708 64.8 34.8716 64.8C34.8723 64.8 34.8731 64.8 34.8739 64.8C34.8746 64.8 34.8754 64.8 34.8761 64.8C34.8769 64.8 34.8777 64.8 34.8784 64.8C34.8792 64.8 34.8799 64.8 34.8807 64.8C34.8814 64.8 34.8822 64.8 34.883 64.8C34.8837 64.8 34.8845 64.8 34.8852 64.8C34.886 64.8 34.8867 64.8 34.8875 64.8C34.8883 64.8 34.889 64.8 34.8898 64.8C34.8905 64.8 34.8913 64.8 34.892 64.8C34.8928 64.8 34.8936 64.8 34.8943 64.8C34.8951 64.8 34.8958 64.8 34.8966 64.8C34.8973 64.8 34.8981 64.8 34.8988 64.8C34.8996 64.8 34.9004 64.8 34.9011 64.8C34.9019 64.8 34.9026 64.8 34.9034 64.8C34.9041 64.8 34.9049 64.8 34.9056 64.8C34.9064 64.8 34.9072 64.8 34.9079 64.8C34.9087 64.8 34.9094 64.8 34.9102 64.8C34.9109 64.8 34.9117 64.8 34.9124 64.8C34.9132 64.8 34.9139 64.8 34.9147 64.8C34.9154 64.8 34.9162 64.8 34.917 64.8C34.9177 64.8 34.9185 64.8 34.9192 64.8C34.92 64.8 34.9207 64.8 34.9215 64.8C34.9222 64.8 34.923 64.8 34.9237 64.8C34.9245 64.8 34.9252 64.8 34.926 64.8C34.9267 64.8 34.9275 64.8 34.9282 64.8C34.929 64.8 34.9298 64.8 34.9305 64.8C34.9313 64.8 34.932 64.8 34.9328 64.8C34.9335 64.8 34.9343 64.8 34.935 64.8C34.9358 64.8 34.9365 64.8 34.9373 64.8C34.938 64.8 34.9388 64.8 34.9395 64.8C34.9403 64.8 34.941 64.8 34.9418 64.8C34.9425 64.8 34.9433 64.8 34.944 64.8C34.9448 64.8 34.9455 64.8 34.9463 64.8C34.947 64.8 34.9478 64.8 34.9485 64.8C34.9493 64.8 34.95 64.8 34.9508 64.8C34.9515 64.8 34.9523 64.8 34.953 64.8C34.9538 64.8 34.9545 64.8 34.9553 64.8C34.956 64.8 34.9568 64.8 34.9575 64.8C34.9583 64.8 34.959 64.8 34.9598 64.8C34.9605 64.8 34.9613 64.8 34.962 64.8C34.9628 64.8 34.9635 64.8 34.9643 64.8C34.965 64.8 34.9658 64.8 34.9665 64.8C34.9672 64.8 34.968 64.8 34.9687 64.8C34.9695 64.8 34.9702 64.8 34.971 64.8C34.9717 64.8 34.9725 64.8 34.9732 64.8C34.974 64.8 34.9747 64.8 34.9755 64.8C34.9762 64.8 34.977 64.8 34.9777 64.8C34.9785 64.8 34.9792 64.8 34.98 64.8C34.9807 64.8 34.9814 64.8 34.9822 64.8C34.9829 64.8 34.9837 64.8 34.9844 64.8C34.9852 64.8 34.9859 64.8 34.9867 64.8C34.9874 64.8 34.9882 64.8 34.9889 64.8C34.9896 64.8 34.9904 64.8 34.9911 64.8C34.9919 64.8 34.9926 64.8 34.9934 64.8C34.9941 64.8 34.9949 64.8 34.9956 64.8C34.9964 64.8 34.9971 64.8 34.9978 64.8C34.9986 64.8 34.9993 64.8 35.0001 64.8C35.0008 64.8 35.0016 64.8 35.0023 64.8C35.003 64.8 35.0038 64.8 35.0045 64.8C35.0053 64.8 35.006 64.8 35.0068 64.8C35.0075 64.8 35.0083 64.8 35.009 64.8C35.0097 64.8 35.0105 64.8 35.0112 64.8C35.012 64.8 35.0127 64.8 35.0135 64.8C35.0142 64.8 35.0149 64.8 35.0157 64.8C35.0164 64.8 35.0172 64.8 35.0179 64.8C35.0186 64.8 35.0194 64.8 35.0201 64.8C35.0209 64.8 35.0216 64.8 35.0224 64.8C35.0231 64.8 35.0238 64.8 35.0246 64.8C35.0253 64.8 35.0261 64.8 35.0268 64.8C35.0275 64.8 35.0283 64.8 35.029 64.8C35.0298 64.8 35.0305 64.8 35.0313 64.8C35.032 64.8 35.0327 64.8 35.0335 64.8C35.0342 64.8 35.035 64.8 35.0357 64.8C35.0364 64.8 35.0372 64.8 35.0379 64.8C35.0387 64.8 35.0394 64.8 35.0401 64.8C35.0409 64.8 35.0416 64.8 35.0423 64.8C35.0431 64.8 35.0438 64.8 35.0446 64.8C35.0453 64.8 35.046 64.8 35.0468 64.8C35.0475 64.8 35.0483 64.8 35.049 64.8C35.0497 64.8 35.0505 64.8 35.0512 64.8C35.052 64.8 35.0527 64.8 35.0534 64.8C35.0542 64.8 35.0549 64.8 35.0556 64.8C35.0564 64.8 35.0571 64.8 35.0579 64.8C35.0586 64.8 35.0593 64.8 35.0601 64.8C35.0608 64.8 35.0615 64.8 35.0623 64.8C35.063 64.8 35.0638 64.8 35.0645 64.8C35.0652 64.8 35.066 64.8 35.0667 64.8C35.0674 64.8 35.0682 64.8 35.0689 64.8C35.0696 64.8 35.0704 64.8 35.0711 64.8C35.0719 64.8 35.0726 64.8 35.0733 64.8C35.0741 64.8 35.0748 64.8 35.0755 64.8C35.0763 64.8 35.077 64.8 35.0777 64.8C35.0785 64.8 35.0792 64.8 35.0799 64.8C35.0807 64.8 35.0814 64.8 35.0821 64.8C35.0829 64.8 35.0836 64.8 35.0844 64.8C35.0851 64.8 35.0858 64.8 35.0866 64.8C35.0873 64.8 35.088 64.8 35.0888 64.8C35.0895 64.8 35.0902 64.8 35.091 64.8C35.0917 64.8 35.0924 64.8 35.0932 64.8C35.0939 64.8 35.0946 64.8 35.0954 64.8C35.0961 64.8 35.0968 64.8 35.0976 64.8C35.0983 64.8 35.099 64.8 35.0998 64.8C35.1005 64.8 35.1012 64.8 35.102 64.8C35.1027 64.8 35.1034 64.8 35.1042 64.8C35.1049 64.8 35.1056 64.8 35.1063 64.8C35.1071 64.8 35.1078 64.8 35.1085 64.8C35.1093 64.8 35.11 64.8 35.1107 64.8C35.1115 64.8 35.1122 64.8 35.1129 64.8C35.1137 64.8 35.1144 64.8 35.1151 64.8C35.1159 64.8 35.1166 64.8 35.1173 64.8C35.118 64.8 35.1188 64.8 35.1195 64.8C35.1202 64.8 35.121 64.8 35.1217 64.8C35.1224 64.8 35.1232 64.8 35.1239 64.8C35.1246 64.8 35.1253 64.8 35.1261 64.8C35.1268 64.8 35.1275 64.8 35.1283 64.8C35.129 64.8 35.1297 64.8 35.1305 64.8C35.1312 64.8 35.1319 64.8 35.1326 64.8C35.1334 64.8 35.1341 64.8 35.1348 64.8C35.1356 64.8 35.1363 64.8 35.137 64.8C35.1377 64.8 35.1385 64.8 35.1392 64.8C35.1399 64.8 35.1407 64.8 35.1414 64.8C35.1421 64.8 35.1428 64.8 35.1436 64.8C35.1443 64.8 35.145 64.8 35.1457 64.8C35.1465 64.8 35.1472 64.8 35.1479 64.8C35.1487 64.8 35.1494 64.8 35.1501 64.8C35.1508 64.8 35.1516 64.8 35.1523 64.8C35.153 64.8 35.1537 64.8 35.1545 64.8C35.1552 64.8 35.1559 64.8 35.1566 64.8C35.1574 64.8 35.1581 64.8 35.1588 64.8C35.1596 64.8 35.1603 64.8 35.161 64.8C35.1617 64.8 35.1625 64.8 35.1632 64.8C35.1639 64.8 35.1646 64.8 35.1654 64.8C35.1661 64.8 35.1668 64.8 35.1675 64.8C35.1683 64.8 35.169 64.8 35.1697 64.8C35.1704 64.8 35.1712 64.8 35.1719 64.8C35.1726 64.8 35.1733 64.8 35.174 64.8C35.1748 64.8 35.1755 64.8 35.1762 64.8C35.1769 64.8 35.1777 64.8 35.1784 64.8C35.1791 64.8 35.1798 64.8 35.1806 64.8C35.1813 64.8 35.182 64.8 35.1827 64.8C35.1835 64.8 35.1842 64.8 35.1849 64.8C35.1856 64.8 35.1863 64.8 35.1871 64.8C35.1878 64.8 35.1885 64.8 35.1892 64.8C35.19 64.8 35.1907 64.8 35.1914 64.8C35.1921 64.8 35.1928 64.8 35.1936 64.8C35.1943 64.8 35.195 64.8 35.1957 64.8C35.1965 64.8 35.1972 64.8 35.1979 64.8C35.1986 64.8 35.1993 64.8 35.2001 64.8C35.2008 64.8 35.2015 64.8 35.2022 64.8C35.2029 64.8 35.2037 64.8 35.2044 64.8C35.2051 64.8 35.2058 64.8 35.2065 64.8C35.2073 64.8 35.208 64.8 35.2087 64.8C35.2094 64.8 35.2101 64.8 35.2109 64.8C35.2116 64.8 35.2123 64.8 35.213 64.8C35.2137 64.8 35.2145 64.8 35.2152 64.8C35.2159 64.8 35.2166 64.8 35.2173 64.8C35.2181 64.8 35.2188 64.8 35.2195 64.8C35.2202 64.8 35.2209 64.8 35.2217 64.8C35.2224 64.8 35.2231 64.8 35.2238 64.8C35.2245 64.8 35.2252 64.8 35.226 64.8C35.2267 64.8 35.2274 64.8 35.2281 64.8C35.2288 64.8 35.2295 64.8 35.2303 64.8C35.231 64.8 35.2317 64.8 35.2324 64.8C35.2331 64.8 35.2339 64.8 35.2346 64.8C35.2353 64.8 35.236 64.8 35.2367 64.8C35.2374 64.8 35.2382 64.8 35.2389 64.8C35.2396 64.8 35.2403 64.8 35.241 64.8C35.2417 64.8 35.2424 64.8 35.2432 64.8C35.2439 64.8 35.2446 64.8 35.2453 64.8C35.246 64.8 35.2467 64.8 35.2475 64.8C35.2482 64.8 35.2489 64.8 35.2496 64.8C35.2503 64.8 35.251 64.8 35.2517 64.8C35.2525 64.8 35.2532 64.8 35.2539 64.8C35.2546 64.8 35.2553 64.8 35.256 64.8C35.2568 64.8 35.2575 64.8 35.2582 64.8C35.2589 64.8 35.2596 64.8 35.2603 64.8C35.261 64.8 35.2617 64.8 35.2625 64.8C35.2632 64.8 35.2639 64.8 35.2646 64.8C35.2653 64.8 35.266 64.8 35.2667 64.8C35.2675 64.8 35.2682 64.8 35.2689 64.8C35.2696 64.8 35.2703 64.8 35.271 64.8C35.2717 64.8 35.2724 64.8 35.2732 64.8C35.2739 64.8 35.2746 64.8 35.2753 64.8C35.276 64.8 35.2767 64.8 35.2774 64.8C35.2781 64.8 35.2789 64.8 35.2796 64.8C35.2803 64.8 35.281 64.8 35.2817 64.8C35.2824 64.8 35.2831 64.8 35.2838 64.8C35.2845 64.8 35.2853 64.8 35.286 64.8C35.2867 64.8 35.2874 64.8 35.2881 64.8C35.2888 64.8 35.2895 64.8 35.2902 64.8C35.2909 64.8 35.2916 64.8 35.2924 64.8C35.2931 64.8 35.2938 64.8 35.2945 64.8C35.2952 64.8 35.2959 64.8 35.2966 64.8C35.2973 64.8 35.298 64.8 35.2987 64.8C35.2995 64.8 35.3002 64.8 35.3009 64.8C35.3016 64.8 35.3023 64.8 35.303 64.8C35.3037 64.8 35.3044 64.8 35.3051 64.8C35.3058 64.8 35.3065 64.8 35.3073 64.8C35.308 64.8 35.3087 64.8 35.3094 64.8C35.3101 64.8 35.3108 64.8 35.3115 64.8C35.3122 64.8 35.3129 64.8 35.3136 64.8C35.3143 64.8 35.315 64.8 35.3157 64.8C35.3165 64.8 35.3172 64.8 35.3179 64.8C35.3186 64.8 35.3193 64.8 35.32 64.8C35.3207 64.8 35.3214 64.8 35.3221 64.8C35.3228 64.8 35.3235 64.8 35.3242 64.8C35.3249 64.8 35.3256 64.8 35.3263 64.8C35.3271 64.8 35.3278 64.8 35.3285 64.8C35.3292 64.8 35.3299 64.8 35.3306 64.8C35.3313 64.8 35.332 64.8 35.3327 64.8C35.3334 64.8 35.3341 64.8 35.3348 64.8C35.3355 64.8 35.3362 64.8 35.3369 64.8C35.3376 64.8 35.3383 64.8 35.339 64.8C35.3397 64.8 35.3404 64.8 35.3412 64.8C35.3419 64.8 35.3426 64.8 35.3433 64.8C35.344 64.8 35.3447 64.8 35.3454 64.8C35.3461 64.8 35.3468 64.8 35.3475 64.8C35.3482 64.8 35.3489 64.8 35.3496 64.8C35.3503 64.8 35.351 64.8 35.3517 64.8C35.3524 64.8 35.3531 64.8 35.3538 64.8C35.3545 64.8 35.3552 64.8 35.3559 64.8C35.3566 64.8 35.3573 64.8 35.358 64.8C35.3587 64.8 35.3594 64.8 35.3601 64.8C35.3608 64.8 35.3615 64.8 35.3622 64.8C35.3629 64.8 35.3636 64.8 35.3643 64.8C35.365 64.8 35.3657 64.8 35.3664 64.8C35.3671 64.8 35.3678 64.8 35.3685 64.8C35.3693 64.8 35.37 64.8 35.3707 64.8C35.3714 64.8 35.3721 64.8 35.3728 64.8C35.3735 64.8 35.3742 64.8 35.3749 64.8C35.3756 64.8 35.3763 64.8 35.377 64.8C35.3777 64.8 35.3784 64.8 35.3791 64.8C35.3798 64.8 35.3805 64.8 35.3812 64.8C35.3819 64.8 35.3826 64.8 35.3832 64.8C35.3839 64.8 35.3846 64.8 35.3853 64.8C35.386 64.8 35.3867 64.8 35.3874 64.8C35.3881 64.8 35.3888 64.8 35.3895 64.8C35.3902 64.8 35.3909 64.8 35.3916 64.8C35.3923 64.8 35.393 64.8 35.3937 64.8C35.3944 64.8 35.3951 64.8 35.3958 64.8C35.3965 64.8 35.3972 64.8 35.3979 64.8C35.3986 64.8 35.3993 64.8 35.4 64.8C35.4007 64.8 35.4014 64.8 35.4021 64.8C35.4028 64.8 35.4035 64.8 35.4042 64.8C35.4049 64.8 35.4056 64.8 35.4063 64.8C35.407 64.8 35.4077 64.8 35.4084 64.8C35.4091 64.8 35.4098 64.8 35.4105 64.8C35.4111 64.8 35.4118 64.8 35.4125 64.8C35.4132 64.8 35.4139 64.8 35.4146 64.8C35.4153 64.8 35.416 64.8 35.4167 64.8C35.4174 64.8 35.4181 64.8 35.4188 64.8C35.4195 64.8 35.4202 64.8 35.4209 64.8C35.4216 64.8 35.4223 64.8 35.423 64.8C35.4237 64.8 35.4243 64.8 35.425 64.8C35.4257 64.8 35.4264 64.8 35.4271 64.8C35.4278 64.8 35.4285 64.8 35.4292 64.8C35.4299 64.8 35.4306 64.8 35.4313 64.8C35.432 64.8 35.4327 64.8 35.4334 64.8C35.4341 64.8 35.4348 64.8 35.4354 64.8C35.4361 64.8 35.4368 64.8 35.4375 64.8C35.4382 64.8 35.4389 64.8 35.4396 64.8C35.4403 64.8 35.441 64.8 35.4417 64.8C35.4424 64.8 35.4431 64.8 35.4438 64.8C35.4444 64.8 35.4451 64.8 35.4458 64.8C35.4465 64.8 35.4472 64.8 35.4479 64.8C35.4486 64.8 35.4493 64.8 35.45 64.8C35.4507 64.8 35.4514 64.8 35.452 64.8C35.4527 64.8 35.4534 64.8 35.4541 64.8C35.4548 64.8 35.4555 64.8 35.4562 64.8C35.4569 64.8 35.4576 64.8 35.4583 64.8C35.4589 64.8 35.4596 64.8 35.4603 64.8C35.461 64.8 35.4617 64.8 35.4624 64.8C35.4631 64.8 35.4638 64.8 35.4645 64.8C35.4652 64.8 35.4658 64.8 35.4665 64.8C35.4672 64.8 35.4679 64.8 35.4686 64.8C35.4693 64.8 35.47 64.8 35.4707 64.8C35.4714 64.8 35.472 64.8 35.4727 64.8C35.4734 64.8 35.4741 64.8 35.4748 64.8C35.4755 64.8 35.4762 64.8 35.4769 64.8C35.4775 64.8 35.4782 64.8 35.4789 64.8C35.4796 64.8 35.4803 64.8 35.481 64.8C35.4817 64.8 35.4824 64.8 35.483 64.8C35.4837 64.8 35.4844 64.8 35.4851 64.8C35.4858 64.8 35.4865 64.8 35.4872 64.8C35.4878 64.8 35.4885 64.8 35.4892 64.8C35.4899 64.8 35.4906 64.8 35.4913 64.8C35.492 64.8 35.4927 64.8 35.4933 64.8C35.494 64.8 35.4947 64.8 35.4954 64.8C35.4961 64.8 35.4968 64.8 35.4974 64.8C35.4981 64.8 35.4988 64.8 35.4995 64.8C35.5002 64.8 35.5009 64.8 35.5016 64.8C35.5022 64.8 35.5029 64.8 35.5036 64.8C35.5043 64.8 35.505 64.8 35.5057 64.8C35.5063 64.8 35.507 64.8 35.5077 64.8C35.5084 64.8 35.5091 64.8 35.5098 64.8C35.5105 64.8 35.5111 64.8 35.5118 64.8C35.5125 64.8 35.5132 64.8 35.5139 64.8C35.5146 64.8 35.5152 64.8 35.5159 64.8C35.5166 64.8 35.5173 64.8 35.518 64.8C35.5186 64.8 35.5193 64.8 35.52 64.8C35.5207 64.8 35.5214 64.8 35.5221 64.8C35.5227 64.8 35.5234 64.8 35.5241 64.8C35.5248 64.8 35.5255 64.8 35.5261 64.8C35.5268 64.8 35.5275 64.8 35.5282 64.8C35.5289 64.8 35.5296 64.8 35.5302 64.8C35.5309 64.8 35.5316 64.8 35.5323 64.8C35.533 64.8 35.5336 64.8 35.5343 64.8C35.535 64.8 35.5357 64.8 35.5364 64.8C35.537 64.8 35.5377 64.8 35.5384 64.8C35.5391 64.8 35.5398 64.8 35.5404 64.8C35.5411 64.8 35.5418 64.8 35.5425 64.8C35.5432 64.8 35.5438 64.8 35.5445 64.8C35.5452 64.8 35.5459 64.8 35.5466 64.8C35.5472 64.8 35.5479 64.8 35.5486 64.8C35.5493 64.8 35.55 64.8 35.5506 64.8C35.5513 64.8 35.552 64.8 35.5527 64.8C35.5533 64.8 35.554 64.8 35.5547 64.8C35.5554 64.8 35.5561 64.8 35.5567 64.8C35.5574 64.8 35.5581 64.8 35.5588 64.8C35.5594 64.8 35.5601 64.8 35.5608 64.8C35.5615 64.8 35.5622 64.8 35.5628 64.8C35.5635 64.8 35.5642 64.8 35.5649 64.8C35.5655 64.8 35.5662 64.8 35.5669 64.8C35.5676 64.8 35.5682 64.8 35.5689 64.8C35.5696 64.8 35.5703 64.8 35.5709 64.8C35.5716 64.8 35.5723 64.8 35.573 64.8C35.5737 64.8 35.5743 64.8 35.575 64.8C35.5757 64.8 35.5764 64.8 35.577 64.8C35.5777 64.8 35.5784 64.8 35.5791 64.8C35.5797 64.8 35.5804 64.8 35.5811 64.8C35.5818 64.8 35.5824 64.8 35.5831 64.8C35.5838 64.8 35.5844 64.8 35.5851 64.8C35.5858 64.8 35.5865 64.8 35.5871 64.8C35.5878 64.8 35.5885 64.8 35.5892 64.8C35.5898 64.8 35.5905 64.8 35.5912 64.8C35.5919 64.8 35.5925 64.8 35.5932 64.8C35.5939 64.8 35.5946 64.8 35.5952 64.8C35.5959 64.8 35.5966 64.8 35.5972 64.8C35.5979 64.8 35.5986 64.8 35.5993 64.8C35.5999 64.8 35.6006 64.8 35.6013 64.8C35.602 64.8 35.6026 64.8 35.6033 64.8C35.604 64.8 35.6046 64.8 35.6053 64.8C35.606 64.8 35.6067 64.8 35.6073 64.8C35.608 64.8 35.6087 64.8 35.6093 64.8C35.61 64.8 35.6107 64.8 35.6114 64.8C35.612 64.8 35.6127 64.8 35.6134 64.8C35.614 64.8 35.6147 64.8 35.6154 64.8C35.616 64.8 35.6167 64.8 35.6174 64.8C35.6181 64.8 35.6187 64.8 35.6194 64.8C35.6201 64.8 35.6207 64.8 35.6214 64.8C35.6221 64.8 35.6227 64.8 35.6234 64.8C35.6241 64.8 35.6248 64.8 35.6254 64.8C35.6261 64.8 35.6268 64.8 35.6274 64.8C35.6281 64.8 35.6288 64.8 35.6294 64.8C35.6301 64.8 35.6308 64.8 35.6314 64.8C35.6321 64.8 35.6328 64.8 35.6334 64.8C35.6341 64.8 35.6348 64.8 35.6354 64.8C35.6361 64.8 35.6368 64.8 35.6375 64.8C35.6381 64.8 35.6388 64.8 35.6395 64.8C35.6401 64.8 35.6408 64.8 35.6415 64.8C35.6421 64.8 35.6428 64.8 35.6435 64.8C35.6441 64.8 35.6448 64.8 35.6455 64.8C35.6461 64.8 35.6468 64.8 35.6475 64.8C35.6481 64.8 35.6488 64.8 35.6495 64.8C35.6501 64.8 35.6508 64.8 35.6515 64.8C35.6521 64.8 35.6528 64.8 35.6534 64.8C35.6541 64.8 35.6548 64.8 35.6554 64.8C35.6561 64.8 35.6568 64.8 35.6574 64.8C35.6581 64.8 35.6588 64.8 35.6594 64.8C35.6601 64.8 35.6608 64.8 35.6614 64.8C35.6621 64.8 35.6628 64.8 35.6634 64.8C35.6641 64.8 35.6648 64.8 35.6654 64.8C35.6661 64.8 35.6667 64.8 35.6674 64.8C35.6681 64.8 35.6687 64.8 35.6694 64.8C35.6701 64.8 35.6707 64.8 35.6714 64.8C35.6721 64.8 35.6727 64.8 35.6734 64.8C35.674 64.8 35.6747 64.8 35.6754 64.8C35.676 64.8 35.6767 64.8 35.6774 64.8C35.678 64.8 35.6787 64.8 35.6793 64.8C35.68 64.8 35.6807 64.8 35.6813 64.8C35.682 64.8 35.6827 64.8 35.6833 64.8C35.684 64.8 35.6846 64.8 35.6853 64.8C35.686 64.8 35.6866 64.8 35.6873 64.8C35.6879 64.8 35.6886 64.8 35.6893 64.8C35.6899 64.8 35.6906 64.8 35.6912 64.8C35.6919 64.8 35.6926 64.8 35.6932 64.8C35.6939 64.8 35.6945 64.8 35.6952 64.8C35.6959 64.8 35.6965 64.8 35.6972 64.8C35.6979 64.8 35.6985 64.8 35.6992 64.8C35.6998 64.8 35.7005 64.8 35.7011 64.8C35.7018 64.8 35.7025 64.8 35.7031 64.8C35.7038 64.8 35.7044 64.8 35.7051 64.8C35.7058 64.8 35.7064 64.8 35.7071 64.8C35.7077 64.8 35.7084 64.8 35.7091 64.8C35.7097 64.8 35.7104 64.8 35.711 64.8C35.7117 64.8 35.7123 64.8 35.713 64.8C35.7137 64.8 35.7143 64.8 35.715 64.8C35.7156 64.8 35.7163 64.8 35.717 64.8C35.7176 64.8 35.7183 64.8 35.7189 64.8C35.7196 64.8 35.7202 64.8 35.7209 64.8C35.7216 64.8 35.7222 64.8 35.7229 64.8C35.7235 64.8 35.7242 64.8 35.7248 64.8C35.7255 64.8 35.7261 64.8 35.7268 64.8C35.7275 64.8 35.7281 64.8 35.7288 64.8C35.7294 64.8 35.7301 64.8 35.7307 64.8C35.7314 64.8 35.732 64.8 35.7327 64.8C35.7334 64.8 35.734 64.8 35.7347 64.8C35.7353 64.8 35.736 64.8 35.7366 64.8C35.7373 64.8 35.7379 64.8 35.7386 64.8C35.7393 64.8 35.7399 64.8 35.7406 64.8C35.7412 64.8 35.7419 64.8 35.7425 64.8C35.7432 64.8 35.7438 64.8 35.7445 64.8C35.7451 64.8 35.7458 64.8 35.7464 64.8C35.7471 64.8 35.7478 64.8 35.7484 64.8C35.7491 64.8 35.7497 64.8 35.7504 64.8C35.751 64.8 35.7517 64.8 35.7523 64.8C35.753 64.8 35.7536 64.8 35.7543 64.8C35.7549 64.8 35.7556 64.8 35.7562 64.8C35.7569 64.8 35.7575 64.8 35.7582 64.8C35.7589 64.8 35.7595 64.8 35.7602 64.8C35.7608 64.8 35.7615 64.8 35.7621 64.8C35.7628 64.8 35.7634 64.8 35.7641 64.8C35.7647 64.8 35.7654 64.8 35.766 64.8V61.8C35.7654 61.8 35.7647 61.8 35.7641 61.8C35.7634 61.8 35.7628 61.8 35.7621 61.8C35.7615 61.8 35.7608 61.8 35.7602 61.8C35.7595 61.8 35.7589 61.8 35.7582 61.8C35.7575 61.8 35.7569 61.8 35.7562 61.8C35.7556 61.8 35.7549 61.8 35.7543 61.8C35.7536 61.8 35.753 61.8 35.7523 61.8C35.7517 61.8 35.751 61.8 35.7504 61.8C35.7497 61.8 35.7491 61.8 35.7484 61.8C35.7478 61.8 35.7471 61.8 35.7464 61.8C35.7458 61.8 35.7451 61.8 35.7445 61.8C35.7438 61.8 35.7432 61.8 35.7425 61.8C35.7419 61.8 35.7412 61.8 35.7406 61.8C35.7399 61.8 35.7393 61.8 35.7386 61.8C35.7379 61.8 35.7373 61.8 35.7366 61.8C35.736 61.8 35.7353 61.8 35.7347 61.8C35.734 61.8 35.7334 61.8 35.7327 61.8C35.732 61.8 35.7314 61.8 35.7307 61.8C35.7301 61.8 35.7294 61.8 35.7288 61.8C35.7281 61.8 35.7275 61.8 35.7268 61.8C35.7261 61.8 35.7255 61.8 35.7248 61.8C35.7242 61.8 35.7235 61.8 35.7229 61.8C35.7222 61.8 35.7216 61.8 35.7209 61.8C35.7202 61.8 35.7196 61.8 35.7189 61.8C35.7183 61.8 35.7176 61.8 35.717 61.8C35.7163 61.8 35.7156 61.8 35.715 61.8C35.7143 61.8 35.7137 61.8 35.713 61.8C35.7123 61.8 35.7117 61.8 35.711 61.8C35.7104 61.8 35.7097 61.8 35.7091 61.8C35.7084 61.8 35.7077 61.8 35.7071 61.8C35.7064 61.8 35.7058 61.8 35.7051 61.8C35.7044 61.8 35.7038 61.8 35.7031 61.8C35.7025 61.8 35.7018 61.8 35.7011 61.8C35.7005 61.8 35.6998 61.8 35.6992 61.8C35.6985 61.8 35.6979 61.8 35.6972 61.8C35.6965 61.8 35.6959 61.8 35.6952 61.8C35.6945 61.8 35.6939 61.8 35.6932 61.8C35.6926 61.8 35.6919 61.8 35.6912 61.8C35.6906 61.8 35.6899 61.8 35.6893 61.8C35.6886 61.8 35.6879 61.8 35.6873 61.8C35.6866 61.8 35.686 61.8 35.6853 61.8C35.6846 61.8 35.684 61.8 35.6833 61.8C35.6827 61.8 35.682 61.8 35.6813 61.8C35.6807 61.8 35.68 61.8 35.6793 61.8C35.6787 61.8 35.678 61.8 35.6774 61.8C35.6767 61.8 35.676 61.8 35.6754 61.8C35.6747 61.8 35.674 61.8 35.6734 61.8C35.6727 61.8 35.6721 61.8 35.6714 61.8C35.6707 61.8 35.6701 61.8 35.6694 61.8C35.6687 61.8 35.6681 61.8 35.6674 61.8C35.6667 61.8 35.6661 61.8 35.6654 61.8C35.6648 61.8 35.6641 61.8 35.6634 61.8C35.6628 61.8 35.6621 61.8 35.6614 61.8C35.6608 61.8 35.6601 61.8 35.6594 61.8C35.6588 61.8 35.6581 61.8 35.6574 61.8C35.6568 61.8 35.6561 61.8 35.6554 61.8C35.6548 61.8 35.6541 61.8 35.6534 61.8C35.6528 61.8 35.6521 61.8 35.6515 61.8C35.6508 61.8 35.6501 61.8 35.6495 61.8C35.6488 61.8 35.6481 61.8 35.6475 61.8C35.6468 61.8 35.6461 61.8 35.6455 61.8C35.6448 61.8 35.6441 61.8 35.6435 61.8C35.6428 61.8 35.6421 61.8 35.6415 61.8C35.6408 61.8 35.6401 61.8 35.6395 61.8C35.6388 61.8 35.6381 61.8 35.6375 61.8C35.6368 61.8 35.6361 61.8 35.6354 61.8C35.6348 61.8 35.6341 61.8 35.6334 61.8C35.6328 61.8 35.6321 61.8 35.6314 61.8C35.6308 61.8 35.6301 61.8 35.6294 61.8C35.6288 61.8 35.6281 61.8 35.6274 61.8C35.6268 61.8 35.6261 61.8 35.6254 61.8C35.6248 61.8 35.6241 61.8 35.6234 61.8C35.6227 61.8 35.6221 61.8 35.6214 61.8C35.6207 61.8 35.6201 61.8 35.6194 61.8C35.6187 61.8 35.6181 61.8 35.6174 61.8C35.6167 61.8 35.616 61.8 35.6154 61.8C35.6147 61.8 35.614 61.8 35.6134 61.8C35.6127 61.8 35.612 61.8 35.6114 61.8C35.6107 61.8 35.61 61.8 35.6093 61.8C35.6087 61.8 35.608 61.8 35.6073 61.8C35.6067 61.8 35.606 61.8 35.6053 61.8C35.6046 61.8 35.604 61.8 35.6033 61.8C35.6026 61.8 35.602 61.8 35.6013 61.8C35.6006 61.8 35.5999 61.8 35.5993 61.8C35.5986 61.8 35.5979 61.8 35.5972 61.8C35.5966 61.8 35.5959 61.8 35.5952 61.8C35.5946 61.8 35.5939 61.8 35.5932 61.8C35.5925 61.8 35.5919 61.8 35.5912 61.8C35.5905 61.8 35.5898 61.8 35.5892 61.8C35.5885 61.8 35.5878 61.8 35.5871 61.8C35.5865 61.8 35.5858 61.8 35.5851 61.8C35.5844 61.8 35.5838 61.8 35.5831 61.8C35.5824 61.8 35.5818 61.8 35.5811 61.8C35.5804 61.8 35.5797 61.8 35.5791 61.8C35.5784 61.8 35.5777 61.8 35.577 61.8C35.5764 61.8 35.5757 61.8 35.575 61.8C35.5743 61.8 35.5737 61.8 35.573 61.8C35.5723 61.8 35.5716 61.8 35.5709 61.8C35.5703 61.8 35.5696 61.8 35.5689 61.8C35.5682 61.8 35.5676 61.8 35.5669 61.8C35.5662 61.8 35.5655 61.8 35.5649 61.8C35.5642 61.8 35.5635 61.8 35.5628 61.8C35.5622 61.8 35.5615 61.8 35.5608 61.8C35.5601 61.8 35.5594 61.8 35.5588 61.8C35.5581 61.8 35.5574 61.8 35.5567 61.8C35.5561 61.8 35.5554 61.8 35.5547 61.8C35.554 61.8 35.5533 61.8 35.5527 61.8C35.552 61.8 35.5513 61.8 35.5506 61.8C35.55 61.8 35.5493 61.8 35.5486 61.8C35.5479 61.8 35.5472 61.8 35.5466 61.8C35.5459 61.8 35.5452 61.8 35.5445 61.8C35.5438 61.8 35.5432 61.8 35.5425 61.8C35.5418 61.8 35.5411 61.8 35.5404 61.8C35.5398 61.8 35.5391 61.8 35.5384 61.8C35.5377 61.8 35.537 61.8 35.5364 61.8C35.5357 61.8 35.535 61.8 35.5343 61.8C35.5336 61.8 35.533 61.8 35.5323 61.8C35.5316 61.8 35.5309 61.8 35.5302 61.8C35.5296 61.8 35.5289 61.8 35.5282 61.8C35.5275 61.8 35.5268 61.8 35.5261 61.8C35.5255 61.8 35.5248 61.8 35.5241 61.8C35.5234 61.8 35.5227 61.8 35.5221 61.8C35.5214 61.8 35.5207 61.8 35.52 61.8C35.5193 61.8 35.5186 61.8 35.518 61.8C35.5173 61.8 35.5166 61.8 35.5159 61.8C35.5152 61.8 35.5146 61.8 35.5139 61.8C35.5132 61.8 35.5125 61.8 35.5118 61.8C35.5111 61.8 35.5105 61.8 35.5098 61.8C35.5091 61.8 35.5084 61.8 35.5077 61.8C35.507 61.8 35.5063 61.8 35.5057 61.8C35.505 61.8 35.5043 61.8 35.5036 61.8C35.5029 61.8 35.5022 61.8 35.5016 61.8C35.5009 61.8 35.5002 61.8 35.4995 61.8C35.4988 61.8 35.4981 61.8 35.4974 61.8C35.4968 61.8 35.4961 61.8 35.4954 61.8C35.4947 61.8 35.494 61.8 35.4933 61.8C35.4927 61.8 35.492 61.8 35.4913 61.8C35.4906 61.8 35.4899 61.8 35.4892 61.8C35.4885 61.8 35.4878 61.8 35.4872 61.8C35.4865 61.8 35.4858 61.8 35.4851 61.8C35.4844 61.8 35.4837 61.8 35.483 61.8C35.4824 61.8 35.4817 61.8 35.481 61.8C35.4803 61.8 35.4796 61.8 35.4789 61.8C35.4782 61.8 35.4775 61.8 35.4769 61.8C35.4762 61.8 35.4755 61.8 35.4748 61.8C35.4741 61.8 35.4734 61.8 35.4727 61.8C35.472 61.8 35.4714 61.8 35.4707 61.8C35.47 61.8 35.4693 61.8 35.4686 61.8C35.4679 61.8 35.4672 61.8 35.4665 61.8C35.4658 61.8 35.4652 61.8 35.4645 61.8C35.4638 61.8 35.4631 61.8 35.4624 61.8C35.4617 61.8 35.461 61.8 35.4603 61.8C35.4596 61.8 35.4589 61.8 35.4583 61.8C35.4576 61.8 35.4569 61.8 35.4562 61.8C35.4555 61.8 35.4548 61.8 35.4541 61.8C35.4534 61.8 35.4527 61.8 35.452 61.8C35.4514 61.8 35.4507 61.8 35.45 61.8C35.4493 61.8 35.4486 61.8 35.4479 61.8C35.4472 61.8 35.4465 61.8 35.4458 61.8C35.4451 61.8 35.4444 61.8 35.4438 61.8C35.4431 61.8 35.4424 61.8 35.4417 61.8C35.441 61.8 35.4403 61.8 35.4396 61.8C35.4389 61.8 35.4382 61.8 35.4375 61.8C35.4368 61.8 35.4361 61.8 35.4354 61.8C35.4348 61.8 35.4341 61.8 35.4334 61.8C35.4327 61.8 35.432 61.8 35.4313 61.8C35.4306 61.8 35.4299 61.8 35.4292 61.8C35.4285 61.8 35.4278 61.8 35.4271 61.8C35.4264 61.8 35.4257 61.8 35.425 61.8C35.4243 61.8 35.4237 61.8 35.423 61.8C35.4223 61.8 35.4216 61.8 35.4209 61.8C35.4202 61.8 35.4195 61.8 35.4188 61.8C35.4181 61.8 35.4174 61.8 35.4167 61.8C35.416 61.8 35.4153 61.8 35.4146 61.8C35.4139 61.8 35.4132 61.8 35.4125 61.8C35.4118 61.8 35.4111 61.8 35.4105 61.8C35.4098 61.8 35.4091 61.8 35.4084 61.8C35.4077 61.8 35.407 61.8 35.4063 61.8C35.4056 61.8 35.4049 61.8 35.4042 61.8C35.4035 61.8 35.4028 61.8 35.4021 61.8C35.4014 61.8 35.4007 61.8 35.4 61.8C35.3993 61.8 35.3986 61.8 35.3979 61.8C35.3972 61.8 35.3965 61.8 35.3958 61.8C35.3951 61.8 35.3944 61.8 35.3937 61.8C35.393 61.8 35.3923 61.8 35.3916 61.8C35.3909 61.8 35.3902 61.8 35.3895 61.8C35.3888 61.8 35.3881 61.8 35.3874 61.8C35.3867 61.8 35.386 61.8 35.3853 61.8C35.3846 61.8 35.3839 61.8 35.3832 61.8C35.3826 61.8 35.3819 61.8 35.3812 61.8C35.3805 61.8 35.3798 61.8 35.3791 61.8C35.3784 61.8 35.3777 61.8 35.377 61.8C35.3763 61.8 35.3756 61.8 35.3749 61.8C35.3742 61.8 35.3735 61.8 35.3728 61.8C35.3721 61.8 35.3714 61.8 35.3707 61.8C35.37 61.8 35.3693 61.8 35.3685 61.8C35.3678 61.8 35.3671 61.8 35.3664 61.8C35.3657 61.8 35.365 61.8 35.3643 61.8C35.3636 61.8 35.3629 61.8 35.3622 61.8C35.3615 61.8 35.3608 61.8 35.3601 61.8C35.3594 61.8 35.3587 61.8 35.358 61.8C35.3573 61.8 35.3566 61.8 35.3559 61.8C35.3552 61.8 35.3545 61.8 35.3538 61.8C35.3531 61.8 35.3524 61.8 35.3517 61.8C35.351 61.8 35.3503 61.8 35.3496 61.8C35.3489 61.8 35.3482 61.8 35.3475 61.8C35.3468 61.8 35.3461 61.8 35.3454 61.8C35.3447 61.8 35.344 61.8 35.3433 61.8C35.3426 61.8 35.3419 61.8 35.3412 61.8C35.3404 61.8 35.3397 61.8 35.339 61.8C35.3383 61.8 35.3376 61.8 35.3369 61.8C35.3362 61.8 35.3355 61.8 35.3348 61.8C35.3341 61.8 35.3334 61.8 35.3327 61.8C35.332 61.8 35.3313 61.8 35.3306 61.8C35.3299 61.8 35.3292 61.8 35.3285 61.8C35.3278 61.8 35.3271 61.8 35.3263 61.8C35.3256 61.8 35.3249 61.8 35.3242 61.8C35.3235 61.8 35.3228 61.8 35.3221 61.8C35.3214 61.8 35.3207 61.8 35.32 61.8C35.3193 61.8 35.3186 61.8 35.3179 61.8C35.3172 61.8 35.3165 61.8 35.3157 61.8C35.315 61.8 35.3143 61.8 35.3136 61.8C35.3129 61.8 35.3122 61.8 35.3115 61.8C35.3108 61.8 35.3101 61.8 35.3094 61.8C35.3087 61.8 35.308 61.8 35.3073 61.8C35.3065 61.8 35.3058 61.8 35.3051 61.8C35.3044 61.8 35.3037 61.8 35.303 61.8C35.3023 61.8 35.3016 61.8 35.3009 61.8C35.3002 61.8 35.2995 61.8 35.2987 61.8C35.298 61.8 35.2973 61.8 35.2966 61.8C35.2959 61.8 35.2952 61.8 35.2945 61.8C35.2938 61.8 35.2931 61.8 35.2924 61.8C35.2916 61.8 35.2909 61.8 35.2902 61.8C35.2895 61.8 35.2888 61.8 35.2881 61.8C35.2874 61.8 35.2867 61.8 35.286 61.8C35.2853 61.8 35.2845 61.8 35.2838 61.8C35.2831 61.8 35.2824 61.8 35.2817 61.8C35.281 61.8 35.2803 61.8 35.2796 61.8C35.2789 61.8 35.2781 61.8 35.2774 61.8C35.2767 61.8 35.276 61.8 35.2753 61.8C35.2746 61.8 35.2739 61.8 35.2732 61.8C35.2724 61.8 35.2717 61.8 35.271 61.8C35.2703 61.8 35.2696 61.8 35.2689 61.8C35.2682 61.8 35.2675 61.8 35.2667 61.8C35.266 61.8 35.2653 61.8 35.2646 61.8C35.2639 61.8 35.2632 61.8 35.2625 61.8C35.2617 61.8 35.261 61.8 35.2603 61.8C35.2596 61.8 35.2589 61.8 35.2582 61.8C35.2575 61.8 35.2568 61.8 35.256 61.8C35.2553 61.8 35.2546 61.8 35.2539 61.8C35.2532 61.8 35.2525 61.8 35.2517 61.8C35.251 61.8 35.2503 61.8 35.2496 61.8C35.2489 61.8 35.2482 61.8 35.2475 61.8C35.2467 61.8 35.246 61.8 35.2453 61.8C35.2446 61.8 35.2439 61.8 35.2432 61.8C35.2424 61.8 35.2417 61.8 35.241 61.8C35.2403 61.8 35.2396 61.8 35.2389 61.8C35.2382 61.8 35.2374 61.8 35.2367 61.8C35.236 61.8 35.2353 61.8 35.2346 61.8C35.2339 61.8 35.2331 61.8 35.2324 61.8C35.2317 61.8 35.231 61.8 35.2303 61.8C35.2295 61.8 35.2288 61.8 35.2281 61.8C35.2274 61.8 35.2267 61.8 35.226 61.8C35.2252 61.8 35.2245 61.8 35.2238 61.8C35.2231 61.8 35.2224 61.8 35.2217 61.8C35.2209 61.8 35.2202 61.8 35.2195 61.8C35.2188 61.8 35.2181 61.8 35.2173 61.8C35.2166 61.8 35.2159 61.8 35.2152 61.8C35.2145 61.8 35.2137 61.8 35.213 61.8C35.2123 61.8 35.2116 61.8 35.2109 61.8C35.2101 61.8 35.2094 61.8 35.2087 61.8C35.208 61.8 35.2073 61.8 35.2065 61.8C35.2058 61.8 35.2051 61.8 35.2044 61.8C35.2037 61.8 35.2029 61.8 35.2022 61.8C35.2015 61.8 35.2008 61.8 35.2001 61.8C35.1993 61.8 35.1986 61.8 35.1979 61.8C35.1972 61.8 35.1965 61.8 35.1957 61.8C35.195 61.8 35.1943 61.8 35.1936 61.8C35.1928 61.8 35.1921 61.8 35.1914 61.8C35.1907 61.8 35.19 61.8 35.1892 61.8C35.1885 61.8 35.1878 61.8 35.1871 61.8C35.1863 61.8 35.1856 61.8 35.1849 61.8C35.1842 61.8 35.1835 61.8 35.1827 61.8C35.182 61.8 35.1813 61.8 35.1806 61.8C35.1798 61.8 35.1791 61.8 35.1784 61.8C35.1777 61.8 35.1769 61.8 35.1762 61.8C35.1755 61.8 35.1748 61.8 35.174 61.8C35.1733 61.8 35.1726 61.8 35.1719 61.8C35.1712 61.8 35.1704 61.8 35.1697 61.8C35.169 61.8 35.1683 61.8 35.1675 61.8C35.1668 61.8 35.1661 61.8 35.1654 61.8C35.1646 61.8 35.1639 61.8 35.1632 61.8C35.1625 61.8 35.1617 61.8 35.161 61.8C35.1603 61.8 35.1596 61.8 35.1588 61.8C35.1581 61.8 35.1574 61.8 35.1566 61.8C35.1559 61.8 35.1552 61.8 35.1545 61.8C35.1537 61.8 35.153 61.8 35.1523 61.8C35.1516 61.8 35.1508 61.8 35.1501 61.8C35.1494 61.8 35.1487 61.8 35.1479 61.8C35.1472 61.8 35.1465 61.8 35.1457 61.8C35.145 61.8 35.1443 61.8 35.1436 61.8C35.1428 61.8 35.1421 61.8 35.1414 61.8C35.1407 61.8 35.1399 61.8 35.1392 61.8C35.1385 61.8 35.1377 61.8 35.137 61.8C35.1363 61.8 35.1356 61.8 35.1348 61.8C35.1341 61.8 35.1334 61.8 35.1326 61.8C35.1319 61.8 35.1312 61.8 35.1305 61.8C35.1297 61.8 35.129 61.8 35.1283 61.8C35.1275 61.8 35.1268 61.8 35.1261 61.8C35.1253 61.8 35.1246 61.8 35.1239 61.8C35.1232 61.8 35.1224 61.8 35.1217 61.8C35.121 61.8 35.1202 61.8 35.1195 61.8C35.1188 61.8 35.118 61.8 35.1173 61.8C35.1166 61.8 35.1159 61.8 35.1151 61.8C35.1144 61.8 35.1137 61.8 35.1129 61.8C35.1122 61.8 35.1115 61.8 35.1107 61.8C35.11 61.8 35.1093 61.8 35.1085 61.8C35.1078 61.8 35.1071 61.8 35.1063 61.8C35.1056 61.8 35.1049 61.8 35.1042 61.8C35.1034 61.8 35.1027 61.8 35.102 61.8C35.1012 61.8 35.1005 61.8 35.0998 61.8C35.099 61.8 35.0983 61.8 35.0976 61.8C35.0968 61.8 35.0961 61.8 35.0954 61.8C35.0946 61.8 35.0939 61.8 35.0932 61.8C35.0924 61.8 35.0917 61.8 35.091 61.8C35.0902 61.8 35.0895 61.8 35.0888 61.8C35.088 61.8 35.0873 61.8 35.0866 61.8C35.0858 61.8 35.0851 61.8 35.0844 61.8C35.0836 61.8 35.0829 61.8 35.0821 61.8C35.0814 61.8 35.0807 61.8 35.0799 61.8C35.0792 61.8 35.0785 61.8 35.0777 61.8C35.077 61.8 35.0763 61.8 35.0755 61.8C35.0748 61.8 35.0741 61.8 35.0733 61.8C35.0726 61.8 35.0719 61.8 35.0711 61.8C35.0704 61.8 35.0696 61.8 35.0689 61.8C35.0682 61.8 35.0674 61.8 35.0667 61.8C35.066 61.8 35.0652 61.8 35.0645 61.8C35.0638 61.8 35.063 61.8 35.0623 61.8C35.0615 61.8 35.0608 61.8 35.0601 61.8C35.0593 61.8 35.0586 61.8 35.0579 61.8C35.0571 61.8 35.0564 61.8 35.0556 61.8C35.0549 61.8 35.0542 61.8 35.0534 61.8C35.0527 61.8 35.052 61.8 35.0512 61.8C35.0505 61.8 35.0497 61.8 35.049 61.8C35.0483 61.8 35.0475 61.8 35.0468 61.8C35.046 61.8 35.0453 61.8 35.0446 61.8C35.0438 61.8 35.0431 61.8 35.0423 61.8C35.0416 61.8 35.0409 61.8 35.0401 61.8C35.0394 61.8 35.0387 61.8 35.0379 61.8C35.0372 61.8 35.0364 61.8 35.0357 61.8C35.035 61.8 35.0342 61.8 35.0335 61.8C35.0327 61.8 35.032 61.8 35.0313 61.8C35.0305 61.8 35.0298 61.8 35.029 61.8C35.0283 61.8 35.0275 61.8 35.0268 61.8C35.0261 61.8 35.0253 61.8 35.0246 61.8C35.0238 61.8 35.0231 61.8 35.0224 61.8C35.0216 61.8 35.0209 61.8 35.0201 61.8C35.0194 61.8 35.0186 61.8 35.0179 61.8C35.0172 61.8 35.0164 61.8 35.0157 61.8C35.0149 61.8 35.0142 61.8 35.0135 61.8C35.0127 61.8 35.012 61.8 35.0112 61.8C35.0105 61.8 35.0097 61.8 35.009 61.8C35.0083 61.8 35.0075 61.8 35.0068 61.8C35.006 61.8 35.0053 61.8 35.0045 61.8C35.0038 61.8 35.003 61.8 35.0023 61.8C35.0016 61.8 35.0008 61.8 35.0001 61.8C34.9993 61.8 34.9986 61.8 34.9978 61.8C34.9971 61.8 34.9964 61.8 34.9956 61.8C34.9949 61.8 34.9941 61.8 34.9934 61.8C34.9926 61.8 34.9919 61.8 34.9911 61.8C34.9904 61.8 34.9896 61.8 34.9889 61.8C34.9882 61.8 34.9874 61.8 34.9867 61.8C34.9859 61.8 34.9852 61.8 34.9844 61.8C34.9837 61.8 34.9829 61.8 34.9822 61.8C34.9814 61.8 34.9807 61.8 34.98 61.8C34.9792 61.8 34.9785 61.8 34.9777 61.8C34.977 61.8 34.9762 61.8 34.9755 61.8C34.9747 61.8 34.974 61.8 34.9732 61.8C34.9725 61.8 34.9717 61.8 34.971 61.8C34.9702 61.8 34.9695 61.8 34.9687 61.8C34.968 61.8 34.9672 61.8 34.9665 61.8C34.9658 61.8 34.965 61.8 34.9643 61.8C34.9635 61.8 34.9628 61.8 34.962 61.8C34.9613 61.8 34.9605 61.8 34.9598 61.8C34.959 61.8 34.9583 61.8 34.9575 61.8C34.9568 61.8 34.956 61.8 34.9553 61.8C34.9545 61.8 34.9538 61.8 34.953 61.8C34.9523 61.8 34.9515 61.8 34.9508 61.8C34.95 61.8 34.9493 61.8 34.9485 61.8C34.9478 61.8 34.947 61.8 34.9463 61.8C34.9455 61.8 34.9448 61.8 34.944 61.8C34.9433 61.8 34.9425 61.8 34.9418 61.8C34.941 61.8 34.9403 61.8 34.9395 61.8C34.9388 61.8 34.938 61.8 34.9373 61.8C34.9365 61.8 34.9358 61.8 34.935 61.8C34.9343 61.8 34.9335 61.8 34.9328 61.8C34.932 61.8 34.9313 61.8 34.9305 61.8C34.9298 61.8 34.929 61.8 34.9282 61.8C34.9275 61.8 34.9267 61.8 34.926 61.8C34.9252 61.8 34.9245 61.8 34.9237 61.8C34.923 61.8 34.9222 61.8 34.9215 61.8C34.9207 61.8 34.92 61.8 34.9192 61.8C34.9185 61.8 34.9177 61.8 34.917 61.8C34.9162 61.8 34.9154 61.8 34.9147 61.8C34.9139 61.8 34.9132 61.8 34.9124 61.8C34.9117 61.8 34.9109 61.8 34.9102 61.8C34.9094 61.8 34.9087 61.8 34.9079 61.8C34.9072 61.8 34.9064 61.8 34.9056 61.8C34.9049 61.8 34.9041 61.8 34.9034 61.8C34.9026 61.8 34.9019 61.8 34.9011 61.8C34.9004 61.8 34.8996 61.8 34.8988 61.8C34.8981 61.8 34.8973 61.8 34.8966 61.8C34.8958 61.8 34.8951 61.8 34.8943 61.8C34.8936 61.8 34.8928 61.8 34.892 61.8C34.8913 61.8 34.8905 61.8 34.8898 61.8C34.889 61.8 34.8883 61.8 34.8875 61.8C34.8867 61.8 34.886 61.8 34.8852 61.8C34.8845 61.8 34.8837 61.8 34.883 61.8C34.8822 61.8 34.8814 61.8 34.8807 61.8C34.8799 61.8 34.8792 61.8 34.8784 61.8C34.8777 61.8 34.8769 61.8 34.8761 61.8C34.8754 61.8 34.8746 61.8 34.8739 61.8C34.8731 61.8 34.8723 61.8 34.8716 61.8C34.8708 61.8 34.8701 61.8 34.8693 61.8C34.8686 61.8 34.8678 61.8 34.867 61.8C34.8663 61.8 34.8655 61.8 34.8648 61.8C34.864 61.8 34.8632 61.8 34.8625 61.8C34.8617 61.8 34.861 61.8 34.8602 61.8C34.8594 61.8 34.8587 61.8 34.8579 61.8C34.8572 61.8 34.8564 61.8 34.8556 61.8C34.8549 61.8 34.8541 61.8 34.8534 61.8C34.8526 61.8 34.8518 61.8 34.8511 61.8C34.8503 61.8 34.8496 61.8 34.8488 61.8C34.848 61.8 34.8473 61.8 34.8465 61.8C34.8457 61.8 34.845 61.8 34.8442 61.8C34.8435 61.8 34.8427 61.8 34.8419 61.8C34.8412 61.8 34.8404 61.8 34.8397 61.8C34.8389 61.8 34.8381 61.8 34.8374 61.8C34.8366 61.8 34.8358 61.8 34.8351 61.8C34.8343 61.8 34.8336 61.8 34.8328 61.8C34.832 61.8 34.8313 61.8 34.8305 61.8C34.8297 61.8 34.829 61.8 34.8282 61.8C34.8274 61.8 34.8267 61.8 34.8259 61.8C34.8252 61.8 34.8244 61.8 34.8236 61.8C34.8229 61.8 34.8221 61.8 34.8213 61.8C34.8206 61.8 34.8198 61.8 34.819 61.8C34.8183 61.8 34.8175 61.8 34.8167 61.8C34.816 61.8 34.8152 61.8 34.8145 61.8C34.8137 61.8 34.8129 61.8 34.8122 61.8C34.8114 61.8 34.8106 61.8 34.8099 61.8C34.8091 61.8 34.8083 61.8 34.8076 61.8C34.8068 61.8 34.806 61.8 34.8053 61.8C34.8045 61.8 34.8037 61.8 34.803 61.8C34.8022 61.8 34.8014 61.8 34.8007 61.8C34.7999 61.8 34.7991 61.8 34.7984 61.8C34.7976 61.8 34.7968 61.8 34.7961 61.8C34.7953 61.8 34.7945 61.8 34.7938 61.8C34.793 61.8 34.7922 61.8 34.7915 61.8C34.7907 61.8 34.7899 61.8 34.7892 61.8C34.7884 61.8 34.7876 61.8 34.7869 61.8C34.7861 61.8 34.7853 61.8 34.7846 61.8C34.7838 61.8 34.783 61.8 34.7823 61.8C34.7815 61.8 34.7807 61.8 34.7799 61.8C34.7792 61.8 34.7784 61.8 34.7776 61.8C34.7769 61.8 34.7761 61.8 34.7753 61.8C34.7746 61.8 34.7738 61.8 34.773 61.8C34.7723 61.8 34.7715 61.8 34.7707 61.8C34.7699 61.8 34.7692 61.8 34.7684 61.8C34.7676 61.8 34.7669 61.8 34.7661 61.8C34.7653 61.8 34.7646 61.8 34.7638 61.8C34.763 61.8 34.7622 61.8 34.7615 61.8C34.7607 61.8 34.7599 61.8 34.7592 61.8C34.7584 61.8 34.7576 61.8 34.7568 61.8C34.7561 61.8 34.7553 61.8 34.7545 61.8C34.7538 61.8 34.753 61.8 34.7522 61.8C34.7514 61.8 34.7507 61.8 34.7499 61.8C34.7491 61.8 34.7484 61.8 34.7476 61.8C34.7468 61.8 34.746 61.8 34.7453 61.8C34.7445 61.8 34.7437 61.8 34.7429 61.8C34.7422 61.8 34.7414 61.8 34.7406 61.8C34.7399 61.8 34.7391 61.8 34.7383 61.8C34.7375 61.8 34.7368 61.8 34.736 61.8C34.7352 61.8 34.7344 61.8 34.7337 61.8C34.7329 61.8 34.7321 61.8 34.7313 61.8C34.7306 61.8 34.7298 61.8 34.729 61.8C34.7282 61.8 34.7275 61.8 34.7267 61.8C34.7259 61.8 34.7251 61.8 34.7244 61.8C34.7236 61.8 34.7228 61.8 34.722 61.8C34.7213 61.8 34.7205 61.8 34.7197 61.8C34.7189 61.8 34.7182 61.8 34.7174 61.8C34.7166 61.8 34.7158 61.8 34.7151 61.8C34.7143 61.8 34.7135 61.8 34.7127 61.8C34.712 61.8 34.7112 61.8 34.7104 61.8C34.7096 61.8 34.7089 61.8 34.7081 61.8C34.7073 61.8 34.7065 61.8 34.7057 61.8C34.705 61.8 34.7042 61.8 34.7034 61.8C34.7026 61.8 34.7019 61.8 34.7011 61.8C34.7003 61.8 34.6995 61.8 34.6988 61.8C34.698 61.8 34.6972 61.8 34.6964 61.8C34.6956 61.8 34.6949 61.8 34.6941 61.8C34.6933 61.8 34.6925 61.8 34.6918 61.8C34.691 61.8 34.6902 61.8 34.6894 61.8C34.6886 61.8 34.6879 61.8 34.6871 61.8C34.6863 61.8 34.6855 61.8 34.6847 61.8C34.684 61.8 34.6832 61.8 34.6824 61.8C34.6816 61.8 34.6808 61.8 34.6801 61.8C34.6793 61.8 34.6785 61.8 34.6777 61.8C34.6769 61.8 34.6762 61.8 34.6754 61.8C34.6746 61.8 34.6738 61.8 34.673 61.8C34.6723 61.8 34.6715 61.8 34.6707 61.8C34.6699 61.8 34.6691 61.8 34.6684 61.8C34.6676 61.8 34.6668 61.8 34.666 61.8V64.8ZM35.766 64.8C37.6855 64.8 39.3343 64.1009 40.338 62.495L37.794 60.905C37.4644 61.4324 36.9132 61.8 35.766 61.8V64.8ZM40.3021 62.5498C41.2033 61.2389 41.666 59.7771 41.666 58.2H38.666C38.666 59.1562 38.3954 60.0277 37.83 60.8502L40.3021 62.5498ZM39.9774 59.6881L54.1774 61.4881L54.5547 58.5119L40.3546 56.7119L39.9774 59.6881ZM52.866 60C52.866 67.374 51.2912 72.3784 48.4737 75.372L50.6583 77.428C54.2409 73.6216 55.866 67.6927 55.866 60H52.866ZM48.463 75.3835C45.7201 78.3598 41.3019 80 34.866 80V83C41.7635 83 47.1453 81.2402 50.6691 77.4165L48.463 75.3835ZM34.866 80C31.9764 80 28.8738 79.6788 25.5546 79.028L24.9774 81.972C28.4582 82.6545 31.7556 83 34.866 83V80ZM25.5546 79.028C22.0478 78.3404 18.2835 78 14.266 78V81C18.1152 81 21.6842 81.3262 24.9774 81.972L25.5546 79.028ZM14.266 78C11.7966 78 9.42122 78.1715 7.14131 78.5169L7.59072 81.4831C9.71081 81.1618 11.9354 81 14.266 81V78ZM7.17996 78.5116C4.99162 78.7851 2.70864 79.1944 0.331779 79.7377L1.00025 82.6623C3.29006 82.1389 5.47374 81.7482 7.55207 81.4884L7.17996 78.5116ZM2.16602 81.2V65.3H-0.833984V81.2H2.16602Z" fill="white"/>
</svg>
