<svg width="36" height="105" viewBox="0 0 36 105" fill="none" xmlns="http://www.w3.org/2000/svg">
<path d="M5.49141 87.5C5.49141 83.9 6.62474 80.9333 8.89141 78.6C11.1581 76.2 14.1914 75 17.9914 75C19.8581 75 21.5581 75.3333 23.0914 76C24.6247 76.6 25.9247 77.4667 26.9914 78.6C28.1247 79.7333 28.9914 81.0667 29.5914 82.6C30.1914 84.0667 30.4914 85.7 30.4914 87.5C30.4914 89.3 30.1914 90.9667 29.5914 92.5C28.9914 94.0333 28.1247 95.3667 26.9914 96.5C25.9247 97.5667 24.6247 98.4 23.0914 99C21.5581 99.6667 19.8581 100 17.9914 100C16.1247 100 14.4247 99.6667 12.8914 99C11.3581 98.4 10.0247 97.5667 8.89141 96.5C7.82474 95.3667 6.99141 94.0333 6.39141 92.5C5.79141 90.9667 5.49141 89.3 5.49141 87.5Z" fill="black"/>
<path d="M8.89141 78.6L9.96733 79.6452L9.97468 79.6376L9.98193 79.6299L8.89141 78.6ZM23.0914 76L22.4933 77.3756L22.5189 77.3867L22.5448 77.3969L23.0914 76ZM26.9914 78.6L25.8991 79.628L25.9147 79.6446L25.9307 79.6607L26.9914 78.6ZM29.5914 82.6L28.1945 83.1466L28.1987 83.1573L28.2031 83.1679L29.5914 82.6ZM29.5914 92.5L28.1945 91.9534L28.1945 91.9534L29.5914 92.5ZM26.9914 96.5L28.0521 97.5607L28.0521 97.5607L26.9914 96.5ZM23.0914 99L22.5448 97.6031L22.5189 97.6133L22.4933 97.6244L23.0914 99ZM12.8914 99L13.4895 97.6244L13.4639 97.6133L13.438 97.6031L12.8914 99ZM8.89141 96.5L7.79911 97.528L7.83026 97.5611L7.86336 97.5923L8.89141 96.5ZM6.39141 92.5L7.78827 91.9534L7.78827 91.9534L6.39141 92.5ZM6.99141 87.5C6.99141 84.2448 8.00272 81.6676 9.96733 79.6452L7.81549 77.5548C5.24676 80.1991 3.99141 83.5552 3.99141 87.5H6.99141ZM9.98193 79.6299C11.9216 77.5762 14.5359 76.5 17.9914 76.5V73.5C13.8469 73.5 10.3946 74.8238 7.80089 77.5701L9.98193 79.6299ZM17.9914 76.5C19.6763 76.5 21.1695 76.8001 22.4933 77.3756L23.6895 74.6244C21.9466 73.8666 20.0398 73.5 17.9914 73.5V76.5ZM22.5448 77.3969C23.8834 77.9207 24.9935 78.6659 25.8991 79.628L28.0837 77.572C26.8559 76.2674 25.3661 75.2793 23.638 74.6031L22.5448 77.3969ZM25.9307 79.6607C26.9137 80.6436 27.6678 81.8006 28.1945 83.1466L30.9883 82.0534C30.315 80.3328 29.3358 78.823 28.0521 77.5393L25.9307 79.6607ZM28.2031 83.1679C28.72 84.4315 28.9914 85.8685 28.9914 87.5H31.9914C31.9914 85.5315 31.6628 83.7018 30.9797 82.032L28.2031 83.1679ZM28.9914 87.5C28.9914 89.1304 28.7203 90.6098 28.1945 91.9534L30.9883 93.0466C31.6625 91.3235 31.9914 89.4696 31.9914 87.5H28.9914ZM28.1945 91.9534C27.6678 93.2994 26.9137 94.4564 25.9307 95.4393L28.0521 97.5607C29.3358 96.277 30.315 94.7672 30.9883 93.0466L28.1945 91.9534ZM25.9307 95.4393C25.0233 96.3467 23.9032 97.0716 22.5448 97.6031L23.638 100.397C25.3463 99.7284 26.8261 98.7866 28.0521 97.5607L25.9307 95.4393ZM22.4933 97.6244C21.1695 98.1999 19.6763 98.5 17.9914 98.5V101.5C20.0398 101.5 21.9466 101.133 23.6895 100.376L22.4933 97.6244ZM17.9914 98.5C16.3065 98.5 14.8133 98.1999 13.4895 97.6244L12.2933 100.376C14.0362 101.133 15.943 101.5 17.9914 101.5V98.5ZM13.438 97.6031C12.0727 97.0689 10.9053 96.3355 9.91945 95.4077L7.86336 97.5923C9.14421 98.7978 10.6435 99.7311 12.3448 100.397L13.438 97.6031ZM9.98371 95.472C9.05588 94.4861 8.32254 93.3187 7.78827 91.9534L4.99454 93.0466C5.66028 94.7479 6.5936 96.2472 7.79911 97.528L9.98371 95.472ZM7.78827 91.9534C7.26252 90.6098 6.99141 89.1304 6.99141 87.5H3.99141C3.99141 89.4696 4.32029 91.3235 4.99454 93.0466L7.78827 91.9534Z" fill="white"/>
</svg>
