<svg width="70" height="105" viewBox="0 0 70 105" fill="none" xmlns="http://www.w3.org/2000/svg">
<path d="M7.81289 33C12.1462 31.4667 16.3129 30.5 20.3129 30.1C24.3129 29.6333 27.8129 29.4 30.8129 29.4C35.8796 29.4 40.0796 29.9667 43.4129 31.1C46.8129 32.2333 49.5129 33.8 51.5129 35.8C53.5129 37.8 54.9129 40.1667 55.7129 42.9C56.5129 45.5667 56.9129 48.4333 56.9129 51.5V62.4C56.9129 63.1333 57.0796 63.7333 57.4129 64.2C57.8129 64.6667 58.3796 64.9 59.1129 64.9C59.9129 64.9 60.5796 64.7667 61.1129 64.5C61.7129 64.2333 62.3796 63.9333 63.1129 63.6L66.2129 75.7C64.0796 77.2333 61.5462 78.5333 58.6129 79.6C55.6796 80.6667 52.8129 81.2 50.0129 81.2C48.2129 81.2 46.6796 81.0667 45.4129 80.8C44.2129 80.6 43.1796 80.2667 42.3129 79.8C41.4462 79.3333 40.7129 78.7667 40.1129 78.1C39.5129 77.3667 39.0129 76.5667 38.6129 75.7C36.5462 77.7 34.1462 79.1667 31.4129 80.1C28.6796 81.0333 25.5796 81.5 22.1129 81.5C18.7129 81.5 15.8462 81.0667 13.5129 80.2C11.2462 79.3333 9.41289 78.1667 8.01289 76.7C6.61289 75.1667 5.57956 73.4 4.91289 71.4C4.31289 69.4 4.01289 67.3 4.01289 65.1C4.01289 60.3 5.57956 56.4667 8.71289 53.6C11.8462 50.7333 16.3462 49.3 22.2129 49.3C25.0796 49.3 27.4796 49.5667 29.4129 50.1C31.4129 50.6333 33.0796 51.3333 34.4129 52.2V51.2C34.4129 50.4667 34.2796 49.7333 34.0129 49C33.8129 48.2667 33.3796 47.6 32.7129 47C32.0462 46.4 31.0796 45.9333 29.8129 45.6C28.6129 45.2 27.0462 45 25.1129 45C23.1796 45 21.0462 45.1333 18.7129 45.4C16.4462 45.6667 14.1129 46.1667 11.7129 46.9L7.81289 33ZM25.6129 64.8C25.6129 66 26.0129 66.9333 26.8129 67.6C27.6796 68.2 28.7462 68.5 30.0129 68.5C31.3462 68.5 32.4462 68.2 33.3129 67.6C34.1796 66.9333 34.6129 66 34.6129 64.8C34.6129 63.5333 34.1796 62.6 33.3129 62C32.4462 61.4 31.3462 61.1 30.0129 61.1C28.6796 61.1 27.6129 61.4 26.8129 62C26.0129 62.6 25.6129 63.5333 25.6129 64.8Z" fill="black"/>
<path d="M7.81289 33L7.31252 31.5859L5.98955 32.054L6.36866 33.4052L7.81289 33ZM20.3129 30.1L20.4621 31.5926L20.4744 31.5913L20.4867 31.5899L20.3129 30.1ZM43.4129 31.1L42.93 32.5202L42.9386 32.523L43.4129 31.1ZM51.5129 35.8L50.4522 36.8607L51.5129 35.8ZM55.7129 42.9L54.2733 43.3214L54.2762 43.331L55.7129 42.9ZM57.4129 64.2L56.1923 65.0719L56.2308 65.1258L56.274 65.1762L57.4129 64.2ZM61.1129 64.5L60.5037 63.1293L60.4725 63.1431L60.4421 63.1584L61.1129 64.5ZM63.1129 63.6L64.566 63.2277L64.1217 61.4938L62.4922 62.2345L63.1129 63.6ZM66.2129 75.7L67.0883 76.918L67.9202 76.3201L67.666 75.3277L66.2129 75.7ZM58.6129 79.6L58.1003 78.1903L58.6129 79.6ZM45.4129 80.8L45.7219 79.3322L45.6908 79.3256L45.6595 79.3204L45.4129 80.8ZM42.3129 79.8L41.6017 81.1207L42.3129 79.8ZM40.1129 78.1L38.952 79.0499L38.9743 79.0772L38.998 79.1034L40.1129 78.1ZM38.6129 75.7L39.9748 75.0714L39.0889 73.1519L37.5698 74.6221L38.6129 75.7ZM31.4129 80.1L30.9282 78.6805L31.4129 80.1ZM13.5129 80.2L12.9772 81.6011L12.9839 81.6036L12.9906 81.6061L13.5129 80.2ZM8.01289 76.7L6.90516 77.7114L6.91638 77.7237L6.92786 77.7357L8.01289 76.7ZM4.91289 71.4L3.47615 71.831L3.48268 71.8528L3.48987 71.8743L4.91289 71.4ZM8.71289 53.6L9.72541 54.7067H9.72541L8.71289 53.6ZM29.4129 50.1L29.014 51.546L29.0264 51.5494L29.4129 50.1ZM34.4129 52.2L33.5954 53.4577L35.9129 54.964V52.2H34.4129ZM34.0129 49L32.5657 49.3947L32.582 49.4544L32.6032 49.5126L34.0129 49ZM32.7129 47L33.7163 45.8851L33.7163 45.8851L32.7129 47ZM29.8129 45.6L29.3385 47.023L29.3844 47.0383L29.4312 47.0506L29.8129 45.6ZM18.7129 45.4L18.5426 43.9097L18.5376 43.9103L18.7129 45.4ZM11.7129 46.9L10.2687 47.3052L10.6833 48.7831L12.1512 48.3345L11.7129 46.9ZM26.8129 67.6L25.8526 68.7523L25.904 68.7952L25.9591 68.8333L26.8129 67.6ZM33.3129 67.6L34.1667 68.8333L34.1976 68.8119L34.2275 68.7889L33.3129 67.6ZM33.3129 62L32.4591 63.2333L33.3129 62ZM26.8129 62L25.9129 60.8L26.8129 62ZM8.31326 34.4141C12.549 32.9153 16.5976 31.979 20.4621 31.5926L20.1636 28.6074C16.0282 29.021 11.7435 30.018 7.31252 31.5859L8.31326 34.4141ZM20.4867 31.5899C24.4472 31.1278 27.8868 30.9 30.8129 30.9V27.9C27.739 27.9 24.1786 28.1388 20.1391 28.6101L20.4867 31.5899ZM30.8129 30.9C35.7811 30.9 39.8042 31.4574 42.93 32.5202L43.8957 29.6798C40.3549 28.476 35.9781 27.9 30.8129 27.9V30.9ZM42.9386 32.523C46.175 33.6018 48.6549 35.0633 50.4522 36.8607L52.5736 34.7393C50.3709 32.5367 47.4508 30.8648 43.8872 29.677L42.9386 32.523ZM50.4522 36.8607C52.273 38.6814 53.5435 40.8278 54.2733 43.3213L57.1525 42.4786C56.2823 39.5056 54.7528 36.9186 52.5736 34.7393L50.4522 36.8607ZM54.2762 43.331C55.0302 45.8445 55.4129 48.5646 55.4129 51.5H58.4129C58.4129 48.302 57.9956 45.2889 57.1496 42.469L54.2762 43.331ZM55.4129 51.5V62.4H58.4129V51.5H55.4129ZM55.4129 62.4C55.4129 63.3587 55.6324 64.2879 56.1923 65.0719L58.6335 63.3281C58.5268 63.1787 58.4129 62.908 58.4129 62.4H55.4129ZM56.274 65.1762C57.0144 66.04 58.0347 66.4 59.1129 66.4V63.4C58.7244 63.4 58.6114 63.2933 58.5518 63.2238L56.274 65.1762ZM59.1129 66.4C60.0699 66.4 60.9834 66.2418 61.7837 65.8416L60.4421 63.1584C60.1757 63.2916 59.7559 63.4 59.1129 63.4V66.4ZM61.7221 65.8707C62.3267 65.602 62.9973 65.3002 63.7336 64.9655L62.4922 62.2345C61.7619 62.5664 61.0991 62.8647 60.5037 63.1293L61.7221 65.8707ZM61.6598 63.9723L64.7598 76.0723L67.666 75.3277L64.566 63.2277L61.6598 63.9723ZM65.3374 74.482C63.3343 75.9217 60.9279 77.1621 58.1003 78.1903L59.1255 81.0097C62.1645 79.9046 64.8248 78.5449 67.0883 76.918L65.3374 74.482ZM58.1003 78.1903C55.3125 79.204 52.6192 79.7 50.0129 79.7V82.7C53.0066 82.7 56.0466 82.1293 59.1255 81.0097L58.1003 78.1903ZM50.0129 79.7C48.2797 79.7 46.8562 79.571 45.7219 79.3322L45.1039 82.2678C46.5029 82.5624 48.146 82.7 50.0129 82.7V79.7ZM45.6595 79.3204C44.5852 79.1414 43.716 78.8519 43.024 78.4793L41.6017 81.1207C42.6431 81.6814 43.8406 82.0586 45.1663 82.2796L45.6595 79.3204ZM43.024 78.4793C42.2944 78.0864 41.7018 77.6231 41.2278 77.0965L38.998 79.1034C39.724 79.9102 40.598 80.5802 41.6017 81.1207L43.024 78.4793ZM41.2738 77.1501C40.7547 76.5157 40.3221 75.8238 39.9748 75.0714L37.251 76.3286C37.7037 77.3095 38.271 78.2176 38.952 79.0499L41.2738 77.1501ZM37.5698 74.6221C35.6625 76.4678 33.4534 77.8182 30.9282 78.6805L31.8976 81.5195C34.839 80.5151 37.4299 78.9322 39.656 76.7779L37.5698 74.6221ZM30.9282 78.6805C28.3786 79.5511 25.4467 80 22.1129 80V83C25.7124 83 28.9806 82.5156 31.8976 81.5195L30.9282 78.6805ZM22.1129 80C18.8303 80 16.1525 79.5803 14.0352 78.7939L12.9906 81.6061C15.5399 82.553 18.5954 83 22.1129 83V80ZM14.0486 78.7989C11.9495 77.9963 10.3169 76.9413 9.09792 75.6643L6.92786 77.7357C8.50889 79.392 10.543 80.6703 12.9772 81.6011L14.0486 78.7989ZM9.12062 75.6886C7.86435 74.3127 6.93726 72.7297 6.33592 70.9257L3.48987 71.8743C4.22185 74.0703 5.36143 76.0206 6.90516 77.7114L9.12062 75.6886ZM6.34963 70.969C5.79378 69.1161 5.51289 67.1619 5.51289 65.1H2.51289C2.51289 67.4381 2.83201 69.6839 3.47615 71.831L6.34963 70.969ZM5.51289 65.1C5.51289 60.6603 6.94475 57.2507 9.72541 54.7067L7.70037 52.4933C4.21436 55.6826 2.51289 59.9397 2.51289 65.1H5.51289ZM9.72541 54.7067C12.4918 52.1758 16.5771 50.8 22.2129 50.8V47.8C16.1153 47.8 11.2007 49.2909 7.70037 52.4933L9.72541 54.7067ZM22.2129 50.8C24.9973 50.8 27.253 51.0602 29.014 51.546L29.8118 48.654C27.7061 48.0731 25.1618 47.8 22.2129 47.8V50.8ZM29.0264 51.5494C30.917 52.0535 32.4278 52.6987 33.5954 53.4577L35.2304 50.9423C33.7313 49.9679 31.9088 49.2131 29.7994 48.6506L29.0264 51.5494ZM35.9129 52.2V51.2H32.9129V52.2H35.9129ZM35.9129 51.2C35.9129 50.2809 35.7451 49.3744 35.4226 48.4874L32.6032 49.5126C32.814 50.0922 32.9129 50.6524 32.9129 51.2H35.9129ZM35.46 48.6053C35.1716 47.5475 34.5578 46.6424 33.7163 45.8851L31.7094 48.1149C32.2013 48.5576 32.4542 48.9858 32.5657 49.3947L35.46 48.6053ZM33.7163 45.8851C32.8093 45.0687 31.5937 44.5176 30.1946 44.1494L29.4312 47.0506C30.5654 47.3491 31.2831 47.7313 31.7094 48.1149L33.7163 45.8851ZM30.2872 44.177C28.8759 43.7065 27.1316 43.5 25.1129 43.5V46.5C26.9609 46.5 28.3498 46.6935 29.3385 47.023L30.2872 44.177ZM25.1129 43.5C23.1121 43.5 20.9209 43.6379 18.5426 43.9097L18.8832 46.8903C21.1715 46.6288 23.247 46.5 25.1129 46.5V43.5ZM18.5376 43.9103C16.1735 44.1884 13.752 44.7085 11.2746 45.4655L12.1512 48.3345C14.4737 47.6249 16.719 47.1449 18.8882 46.8897L18.5376 43.9103ZM13.1571 46.4948L9.25712 32.5948L6.36866 33.4052L10.2687 47.3052L13.1571 46.4948ZM24.1129 64.8C24.1129 66.3694 24.6564 67.7555 25.8526 68.7523L27.7732 66.4477C27.3694 66.1112 27.1129 65.6306 27.1129 64.8H24.1129ZM25.9591 68.8333C27.1236 69.6395 28.5038 70 30.0129 70V67C28.9887 67 28.2355 66.7605 27.6667 66.3667L25.9591 68.8333ZM30.0129 70C31.5704 70 32.99 69.648 34.1667 68.8333L32.4591 66.3667C31.9025 66.752 31.1221 67 30.0129 67V70ZM34.2275 68.7889C35.5027 67.808 36.1129 66.4135 36.1129 64.8H33.1129C33.1129 65.5865 32.8564 66.0587 32.3983 66.4111L34.2275 68.7889ZM36.1129 64.8C36.1129 63.1543 35.523 61.7057 34.1667 60.7667L32.4591 63.2333C32.8361 63.4943 33.1129 63.9124 33.1129 64.8H36.1129ZM34.1667 60.7667C32.99 59.952 31.5704 59.6 30.0129 59.6V62.6C31.1221 62.6 31.9025 62.848 32.4591 63.2333L34.1667 60.7667ZM30.0129 59.6C28.4624 59.6 27.047 59.9494 25.9129 60.8L27.7129 63.2C28.1788 62.8506 28.8967 62.6 30.0129 62.6V59.6ZM25.9129 60.8C24.6363 61.7574 24.1129 63.2002 24.1129 64.8H27.1129C27.1129 63.8664 27.3895 63.4426 27.7129 63.2L25.9129 60.8Z" fill="white"/>
</svg>
