<svg width="73" height="105" viewBox="0 0 73 105" fill="none" xmlns="http://www.w3.org/2000/svg">
<path d="M13.4363 22.2C13.4363 21.4667 13.2697 20.9 12.9363 20.5C12.603 20.0333 12.0697 19.8 11.3363 19.8C10.5363 19.8 9.76966 19.9667 9.03633 20.3C8.36966 20.5667 7.70299 20.8667 7.03633 21.2L2.73633 10C3.73633 9.26666 4.93633 8.5 6.33633 7.7C7.73633 6.9 9.23633 6.16666 10.8363 5.49999C12.4363 4.83333 14.103 4.3 15.8363 3.9C17.5697 3.43333 19.303 3.2 21.0363 3.2C24.2363 3.2 26.8363 3.6 28.8363 4.4C30.8363 5.13333 32.3697 6.19999 33.4363 7.6C34.5697 8.93333 35.303 10.5333 35.6363 12.4C36.0363 14.2667 36.2363 16.3 36.2363 18.5V35.2C38.1697 33.1333 40.2697 31.6667 42.5363 30.8C44.803 29.8667 47.2363 29.4 49.8363 29.4C53.3697 29.4 56.403 30.0667 58.9363 31.4C61.5363 32.6667 63.6697 34.4333 65.3363 36.7C67.003 38.9667 68.2363 41.6333 69.0363 44.7C69.8363 47.7667 70.2363 51.0333 70.2363 54.5C70.2363 59.2333 69.703 63.3 68.6363 66.7C67.6363 70.0333 66.1697 72.8 64.2363 75C62.3697 77.1333 60.103 78.7 57.4363 79.7C54.8363 80.7 51.9363 81.2 48.7363 81.2C46.603 81.2 44.4697 80.7 42.3363 79.7C40.203 78.6333 38.1697 76.9333 36.2363 74.6V80H13.4363V22.2ZM40.6363 63.4C42.103 63.4 43.1697 62.6667 43.8363 61.2C44.503 59.7333 44.8363 57.7 44.8363 55.1C44.8363 52.4333 44.503 50.3667 43.8363 48.9C43.2363 47.4333 42.1697 46.7 40.6363 46.7C39.103 46.7 38.003 47.4333 37.3363 48.9C36.7363 50.3667 36.4363 52.4333 36.4363 55.1C36.4363 57.7 36.7363 59.7333 37.3363 61.2C38.003 62.6667 39.103 63.4 40.6363 63.4Z" fill="black"/>
<path d="M12.9363 20.5L11.7157 21.3719L11.7482 21.4173L11.784 21.4603L12.9363 20.5ZM9.03633 20.3L9.59341 21.6927L9.62554 21.6799L9.65704 21.6655L9.03633 20.3ZM7.03633 21.2L5.63599 21.7376L6.22852 23.281L7.70715 22.5416L7.03633 21.2ZM2.73633 10L1.84928 8.79039L0.925314 9.46796L1.33599 10.5376L2.73633 10ZM6.33633 7.7L5.59212 6.39763L5.59212 6.39763L6.33633 7.7ZM10.8363 5.49999L10.2594 4.11538L10.2594 4.11538L10.8363 5.49999ZM15.8363 3.9L16.1736 5.36158L16.2001 5.35548L16.2263 5.34842L15.8363 3.9ZM28.8363 4.4L28.2792 5.79271L28.2995 5.80081L28.3199 5.80831L28.8363 4.4ZM33.4363 7.6L32.2432 8.50906L32.2675 8.54094L32.2934 8.57147L33.4363 7.6ZM35.6363 12.4L34.1597 12.6637L34.1642 12.6891L34.1696 12.7143L35.6363 12.4ZM36.2363 35.2H34.7363V38.9991L37.3317 36.2247L36.2363 35.2ZM42.5363 30.8L43.072 32.2011L43.0898 32.1943L43.1075 32.187L42.5363 30.8ZM58.9363 31.4L58.2377 32.7274L58.2584 32.7383L58.2794 32.7485L58.9363 31.4ZM65.3363 36.7L66.5448 35.8114V35.8114L65.3363 36.7ZM69.0363 44.7L70.4878 44.3214L69.0363 44.7ZM68.6363 66.7L67.2051 66.251L67.2023 66.26L67.1996 66.269L68.6363 66.7ZM64.2363 75L63.1096 74.0098L63.1075 74.0122L64.2363 75ZM57.4363 79.7L56.9096 78.2955L56.8979 78.3L57.4363 79.7ZM42.3363 79.7L41.6655 81.0416L41.6825 81.0501L41.6997 81.0582L42.3363 79.7ZM36.2363 74.6L37.3914 73.643L34.7363 70.4386V74.6H36.2363ZM36.2363 80V81.5H37.7363V80H36.2363ZM13.4363 80H11.9363V81.5H13.4363V80ZM43.8363 61.2L45.2019 61.8207V61.8207L43.8363 61.2ZM43.8363 48.9L42.448 49.4679L42.4589 49.4945L42.4708 49.5207L43.8363 48.9ZM37.3363 48.9L35.9708 48.2793L35.9589 48.3055L35.948 48.3321L37.3363 48.9ZM37.3363 61.2L35.948 61.7679L35.9589 61.7945L35.9708 61.8207L37.3363 61.2ZM14.9363 22.2C14.9363 21.2571 14.723 20.3009 14.0887 19.5397L11.784 21.4603C11.8163 21.4991 11.9363 21.6762 11.9363 22.2H14.9363ZM14.1569 19.6281C13.4649 18.6593 12.4042 18.3 11.3363 18.3V21.3C11.548 21.3 11.6504 21.3341 11.6851 21.3492C11.7077 21.3591 11.7089 21.3623 11.7157 21.3719L14.1569 19.6281ZM11.3363 18.3C10.3207 18.3 9.34249 18.5131 8.41562 18.9345L9.65704 21.6655C10.1968 21.4202 10.752 21.3 11.3363 21.3V18.3ZM8.47925 18.9073C7.77254 19.19 7.06796 19.5071 6.3655 19.8584L7.70715 22.5416C8.33803 22.2262 8.96678 21.9434 9.59341 21.6927L8.47925 18.9073ZM8.43667 20.6624L4.13667 9.46237L1.33599 10.5376L5.63599 21.7376L8.43667 20.6624ZM3.62337 11.2096C4.56635 10.5181 5.71611 9.78203 7.08054 9.00236L5.59212 6.39763C4.15654 7.21796 2.90631 8.01524 1.84928 8.79039L3.62337 11.2096ZM7.08053 9.00236C8.42269 8.23542 9.86643 7.52912 11.4133 6.88461L10.2594 4.11538C8.60623 4.80421 7.04997 5.56458 5.59212 6.39763L7.08053 9.00236ZM11.4133 6.88461C12.9337 6.25111 14.52 5.74318 16.1736 5.36158L15.499 2.43841C13.686 2.85681 11.939 3.41555 10.2594 4.11538L11.4133 6.88461ZM16.2263 5.34842C17.837 4.91477 19.4393 4.7 21.0363 4.7V1.7C19.1667 1.7 17.3023 1.9519 15.4464 2.45157L16.2263 5.34842ZM21.0363 4.7C24.1295 4.7 26.5206 5.08925 28.2792 5.79271L29.3934 3.00728C27.1521 2.11075 24.3431 1.7 21.0363 1.7V4.7ZM28.3199 5.80831C30.1083 6.46403 31.3833 7.38045 32.2432 8.50906L34.6295 6.69093C33.356 5.01954 31.5644 3.80262 29.3527 2.99168L28.3199 5.80831ZM32.2934 8.57147C33.2406 9.68579 33.869 11.0358 34.1597 12.6637L37.113 12.1363C36.737 10.0309 35.8987 8.18087 34.5792 6.62852L32.2934 8.57147ZM34.1696 12.7143C34.5444 14.4634 34.7363 16.39 34.7363 18.5H37.7363C37.7363 16.21 37.5282 14.0699 37.103 12.0857L34.1696 12.7143ZM34.7363 18.5V35.2H37.7363V18.5H34.7363ZM37.3317 36.2247C39.1353 34.2968 41.0507 32.9739 43.072 32.2011L42.0006 29.3989C39.4886 30.3594 37.2041 31.9698 35.1409 34.1753L37.3317 36.2247ZM43.1075 32.187C45.1821 31.3327 47.4202 30.9 49.8363 30.9V27.9C47.0525 27.9 44.4239 28.4006 41.9652 29.413L43.1075 32.187ZM49.8363 30.9C53.1824 30.9 55.9645 31.531 58.2377 32.7274L59.635 30.0726C56.8415 28.6024 53.5569 27.9 49.8363 27.9V30.9ZM58.2794 32.7485C60.6673 33.9119 62.6092 35.5232 64.1279 37.5886L66.5448 35.8114C64.7301 33.3434 62.4053 31.4215 59.5933 30.0515L58.2794 32.7485ZM64.1279 37.5886C65.6686 39.684 66.8268 42.1727 67.5849 45.0786L70.4878 44.3214C69.6458 41.094 68.3374 38.2493 66.5448 35.8114L64.1279 37.5886ZM67.5849 45.0786C68.3498 48.0107 68.7363 51.1492 68.7363 54.5H71.7363C71.7363 50.9174 71.3229 47.5226 70.4878 44.3214L67.5849 45.0786ZM68.7363 54.5C68.7363 59.1278 68.214 63.0351 67.2051 66.251L70.0676 67.149C71.192 63.5649 71.7363 59.3388 71.7363 54.5H68.7363ZM67.1996 66.269C66.25 69.4342 64.8763 71.9994 63.1096 74.0098L65.3631 75.9902C67.463 73.6006 69.0226 70.6325 70.0731 67.131L67.1996 66.269ZM63.1075 74.0122C61.4048 75.9581 59.3454 77.3821 56.9096 78.2955L57.963 81.1045C60.8606 80.0179 63.3345 78.3085 65.3652 75.9878L63.1075 74.0122ZM56.8979 78.3C54.4933 79.2248 51.7793 79.7 48.7363 79.7V82.7C52.0934 82.7 55.1794 82.1752 57.9748 81.1L56.8979 78.3ZM48.7363 79.7C46.8451 79.7 44.9281 79.2583 42.973 78.3418L41.6997 81.0582C44.0112 82.1417 46.3609 82.7 48.7363 82.7V79.7ZM43.0072 78.3584C41.1033 77.4064 39.2264 75.8577 37.3914 73.643L35.0813 75.557C37.1129 78.009 39.3027 79.8602 41.6655 81.0416L43.0072 78.3584ZM34.7363 74.6V80H37.7363V74.6H34.7363ZM36.2363 78.5H13.4363V81.5H36.2363V78.5ZM14.9363 80V22.2H11.9363V80H14.9363ZM40.6363 64.9C41.6313 64.9 42.5704 64.6469 43.3861 64.0861C44.193 63.5313 44.7831 62.7419 45.2019 61.8207L42.4708 60.5793C42.2228 61.1247 41.9463 61.4354 41.6865 61.6139C41.4356 61.7864 41.1081 61.9 40.6363 61.9V64.9ZM45.2019 61.8207C45.9951 60.0756 46.3363 57.798 46.3363 55.1H43.3363C43.3363 57.602 43.0109 59.3911 42.4708 60.5793L45.2019 61.8207ZM46.3363 55.1C46.3363 52.3419 45.9968 50.0281 45.2019 48.2793L42.4708 49.5207C43.0092 50.7053 43.3363 52.5248 43.3363 55.1H46.3363ZM45.2247 48.332C44.839 47.3894 44.2593 46.5799 43.4361 46.0139C42.6094 45.4456 41.6492 45.2 40.6363 45.2V48.2C41.1568 48.2 41.4966 48.3211 41.7365 48.4861C41.98 48.6534 42.2337 48.944 42.448 49.4679L45.2247 48.332ZM40.6363 45.2C39.6221 45.2 38.6632 45.446 37.8293 46.0019C37.0001 46.5547 36.3945 47.347 35.9708 48.2793L38.7019 49.5207C38.9448 48.9863 39.2225 48.6786 39.4934 48.4981C39.7595 48.3207 40.1173 48.2 40.6363 48.2V45.2ZM35.948 48.3321C35.2406 50.0613 34.9363 52.3534 34.9363 55.1H37.9363C37.9363 52.5133 38.2321 50.672 38.7246 49.4679L35.948 48.3321ZM34.9363 55.1C34.9363 57.7859 35.2419 60.042 35.948 61.7679L38.7246 60.632C38.2307 59.4247 37.9363 57.6141 37.9363 55.1H34.9363ZM35.9708 61.8207C36.3945 62.753 37.0001 63.5453 37.8293 64.0981C38.6632 64.654 39.6221 64.9 40.6363 64.9V61.9C40.1173 61.9 39.7595 61.7793 39.4934 61.6019C39.2225 61.4214 38.9448 61.1137 38.7019 60.5793L35.9708 61.8207Z" fill="white"/>
</svg>
