<svg width="65" height="95" viewBox="0 0 65 95" fill="none" xmlns="http://www.w3.org/2000/svg">
<path d="M60.1922 72.3C56.7922 74.0333 53.3589 75.2 49.8922 75.8C46.4922 76.4667 42.7589 76.8 38.6922 76.8C32.8255 76.8 27.6589 75.9 23.1922 74.1C18.7255 72.3 14.9589 69.7667 11.8922 66.5C8.89219 63.2333 6.62552 59.3333 5.09219 54.8C3.55885 50.2 2.79219 45.1333 2.79219 39.6C2.79219 34.2 3.65885 29.2333 5.39219 24.7C7.12552 20.1 9.62552 16.1667 12.8922 12.9C16.1589 9.56666 20.1255 7 24.7922 5.2C29.4589 3.33333 34.7255 2.4 40.5922 2.4C45.7255 2.4 50.1589 3 53.8922 4.2C57.6922 5.4 60.9589 6.76666 63.6922 8.29999L55.8922 25.7C54.6255 24.8333 53.0255 23.9667 51.0922 23.1C49.2255 22.1667 46.7922 21.7 43.7922 21.7C38.9922 21.7 35.2922 23.3333 32.6922 26.6C30.0922 29.8 28.7922 34.1 28.7922 39.5C28.7922 45.5 30.1922 49.9333 32.9922 52.8C35.8589 55.6667 39.6589 57.1 44.3922 57.1C46.5255 57.1 49.0255 56.7667 51.8922 56.1C54.7589 55.4333 57.5255 54.3 60.1922 52.7V72.3Z" fill="black"/>
<path d="M60.1922 72.3L60.8735 73.6364L61.6922 73.219V72.3H60.1922ZM49.8922 75.8L49.6364 74.322L49.6199 74.3248L49.6036 74.328L49.8922 75.8ZM23.1922 74.1L23.7529 72.7087L23.1922 74.1ZM11.8922 66.5L10.7874 67.5146L10.793 67.5207L10.7986 67.5267L11.8922 66.5ZM5.09219 54.8L3.66915 55.2743L3.67127 55.2806L5.09219 54.8ZM5.39219 24.7L6.79328 25.2357L6.79584 25.2289L5.39219 24.7ZM12.8922 12.9L13.9528 13.9607L13.9582 13.9553L13.9635 13.9499L12.8922 12.9ZM24.7922 5.2L25.332 6.5995L25.3407 6.59616L25.3493 6.59271L24.7922 5.2ZM53.8922 4.2L53.4332 5.62806L53.4405 5.63037L53.8922 4.2ZM63.6922 8.29999L65.061 8.91358L65.6218 7.66254L64.4261 6.99178L63.6922 8.29999ZM55.8922 25.7L55.0452 26.938L56.5267 27.9516L57.261 26.3136L55.8922 25.7ZM51.0922 23.1L50.4214 24.4416L50.4497 24.4558L50.4786 24.4688L51.0922 23.1ZM32.6922 26.6L33.8564 27.5459L33.8611 27.54L33.8658 27.5341L32.6922 26.6ZM32.9922 52.8L31.9191 53.8481L31.9253 53.8544L31.9315 53.8607L32.9922 52.8ZM51.8922 56.1L52.232 57.561L51.8922 56.1ZM60.1922 52.7H61.6922V50.0507L59.4204 51.4138L60.1922 52.7ZM59.5109 70.9636C56.2335 72.6345 52.9429 73.7497 49.6364 74.322L50.148 77.278C53.7748 76.6503 57.3508 75.4322 60.8735 73.6364L59.5109 70.9636ZM49.6036 74.328C46.3133 74.9732 42.6782 75.3 38.6922 75.3V78.3C42.8395 78.3 46.671 77.9602 50.1808 77.272L49.6036 74.328ZM38.6922 75.3C32.9769 75.3 28.007 74.4231 23.7529 72.7087L22.6315 75.4913C27.3107 77.3769 32.6742 78.3 38.6922 78.3V75.3ZM23.7529 72.7087C19.4728 70.9839 15.8925 68.5696 12.9858 65.4733L10.7986 67.5267C14.0253 70.9638 17.9782 73.6161 22.6315 75.4913L23.7529 72.7087ZM12.997 65.4854C10.1493 62.3846 7.9848 58.6705 6.51311 54.3194L3.67127 55.2806C5.26624 59.9962 7.63505 64.0821 10.7874 67.5146L12.997 65.4854ZM6.51521 54.3257C5.03949 49.8985 4.29219 44.9945 4.29219 39.6H1.29219C1.29219 45.2722 2.07822 50.5015 3.66916 55.2743L6.51521 54.3257ZM4.29219 39.6C4.29219 34.3626 5.13229 29.5798 6.79327 25.2357L3.99111 24.1643C2.18542 28.8869 1.29219 34.0374 1.29219 39.6H4.29219ZM6.79584 25.2289C8.45886 20.8155 10.8466 17.0669 13.9528 13.9607L11.8315 11.8393C8.40448 15.2664 5.79218 19.3845 3.98853 24.1711L6.79584 25.2289ZM13.9635 13.9499C17.0695 10.7805 20.8509 8.32794 25.332 6.5995L24.2524 3.8005C19.4002 5.67206 15.2482 8.35279 11.8209 11.8501L13.9635 13.9499ZM25.3493 6.59271C29.8117 4.80772 34.8849 3.9 40.5922 3.9V0.899999C34.5661 0.899999 29.106 1.85894 24.2351 3.80728L25.3493 6.59271ZM40.5922 3.9C45.615 3.9 49.8859 4.48785 53.4332 5.62804L54.3512 2.77196C50.4318 1.51215 45.836 0.899999 40.5922 0.899999V3.9ZM53.4405 5.63037C57.1675 6.80733 60.3349 8.13654 62.9583 9.60821L64.4261 6.99178C61.5828 5.39678 58.2169 3.99267 54.3439 2.76963L53.4405 5.63037ZM62.3234 7.68641L54.5234 25.0864L57.261 26.3136L65.061 8.91358L62.3234 7.68641ZM56.7392 24.462C55.377 23.53 53.6923 22.6218 51.7058 21.7312L50.4786 24.4688C52.3587 25.3116 53.8741 26.1367 55.0452 26.938L56.7392 24.462ZM51.763 21.7584C49.6172 20.6855 46.9303 20.2 43.7922 20.2V23.2C46.6541 23.2 48.8338 23.6479 50.4214 24.4416L51.763 21.7584ZM43.7922 20.2C38.6123 20.2 34.4479 21.9854 31.5186 25.6659L33.8658 27.5341C36.1365 24.6813 39.3721 23.2 43.7922 23.2V20.2ZM31.528 25.6541C28.6514 29.1946 27.2922 33.8632 27.2922 39.5H30.2922C30.2922 34.3368 31.533 30.4054 33.8564 27.5459L31.528 25.6541ZM27.2922 39.5C27.2922 45.6998 28.7355 50.5887 31.9191 53.8481L34.0653 51.7519C31.6488 49.2779 30.2922 45.3002 30.2922 39.5H27.2922ZM31.9315 53.8607C35.1266 57.0557 39.333 58.6 44.3922 58.6V55.6C39.9847 55.6 36.5911 54.2776 34.0528 51.7393L31.9315 53.8607ZM44.3922 58.6C46.6738 58.6 49.2926 58.2446 52.232 57.561L51.5524 54.639C48.7584 55.2888 46.3772 55.6 44.3922 55.6V58.6ZM52.232 57.561C55.2593 56.857 58.1709 55.6621 60.9639 53.9862L59.4204 51.4138C56.8802 52.9379 54.2584 54.0097 51.5524 54.639L52.232 57.561ZM58.6922 52.7V72.3H61.6922V52.7H58.6922Z" fill="white"/>
</svg>
