<svg width="64" height="95" viewBox="0 0 64 95" fill="none" xmlns="http://www.w3.org/2000/svg">
<path d="M2.81289 58H9.51289V21.2H2.81289V4.2H59.3129V22.5H32.8129V29.6H55.8129V47.9H32.8129V56.7H61.2129V75H2.81289V58Z" fill="black"/>
<path d="M2.81289 58V56.5H1.31289V58H2.81289ZM9.51289 58V59.5H11.0129V58H9.51289ZM9.51289 21.2H11.0129V19.7H9.51289V21.2ZM2.81289 21.2H1.31289V22.7H2.81289V21.2ZM2.81289 4.2V2.7H1.31289V4.2H2.81289ZM59.3129 4.2H60.8129V2.7H59.3129V4.2ZM59.3129 22.5V24H60.8129V22.5H59.3129ZM32.8129 22.5V21H31.3129V22.5H32.8129ZM32.8129 29.6H31.3129V31.1H32.8129V29.6ZM55.8129 29.6H57.3129V28.1H55.8129V29.6ZM55.8129 47.9V49.4H57.3129V47.9H55.8129ZM32.8129 47.9V46.4H31.3129V47.9H32.8129ZM32.8129 56.7H31.3129V58.2H32.8129V56.7ZM61.2129 56.7H62.7129V55.2H61.2129V56.7ZM61.2129 75V76.5H62.7129V75H61.2129ZM2.81289 75H1.31289V76.5H2.81289V75ZM2.81289 59.5H9.51289V56.5H2.81289V59.5ZM11.0129 58V21.2H8.01289V58H11.0129ZM9.51289 19.7H2.81289V22.7H9.51289V19.7ZM4.31289 21.2V4.2H1.31289V21.2H4.31289ZM2.81289 5.7H59.3129V2.7H2.81289V5.7ZM57.8129 4.2V22.5H60.8129V4.2H57.8129ZM59.3129 21H32.8129V24H59.3129V21ZM31.3129 22.5V29.6H34.3129V22.5H31.3129ZM32.8129 31.1H55.8129V28.1H32.8129V31.1ZM54.3129 29.6V47.9H57.3129V29.6H54.3129ZM55.8129 46.4H32.8129V49.4H55.8129V46.4ZM31.3129 47.9V56.7H34.3129V47.9H31.3129ZM32.8129 58.2H61.2129V55.2H32.8129V58.2ZM59.7129 56.7V75H62.7129V56.7H59.7129ZM61.2129 73.5H2.81289V76.5H61.2129V73.5ZM4.31289 75V58H1.31289V75H4.31289Z" fill="white"/>
</svg>
