<svg width="57" height="105" viewBox="0 0 57 105" fill="none" xmlns="http://www.w3.org/2000/svg">
<path d="M12.523 45.9H3.62305V30.6H12.523V23.9C12.523 20.9 12.923 18.1667 13.723 15.7C14.523 13.1667 15.7897 10.9667 17.523 9.09999C19.323 7.23333 21.6564 5.8 24.523 4.8C27.4564 3.73333 31.023 3.2 35.223 3.2C39.1564 3.2 42.623 3.73333 45.623 4.8C48.6897 5.8 51.423 7.06666 53.8231 8.6L48.0231 23.4C47.0897 22.8667 46.0564 22.3333 44.923 21.8C43.7897 21.2667 42.4564 21 40.923 21C39.6564 21 38.623 21.1667 37.823 21.5C37.0897 21.7667 36.4897 22.2 36.023 22.8C35.623 23.3333 35.3564 24 35.223 24.8C35.0897 25.5333 35.023 26.3333 35.023 27.2V30.6H47.1231V45.9H35.323V80H12.523V45.9Z" fill="black"/>
<path d="M12.523 45.9H14.023V44.4H12.523V45.9ZM3.62305 45.9H2.12305V47.4H3.62305V45.9ZM3.62305 30.6V29.1H2.12305V30.6H3.62305ZM12.523 30.6V32.1H14.023V30.6H12.523ZM13.723 15.7L15.1499 16.1628L15.1534 16.1517L13.723 15.7ZM17.523 9.09999L16.4433 8.05879L16.4335 8.06896L16.4239 8.07932L17.523 9.09999ZM24.523 4.8L25.0171 6.2163L25.0264 6.21305L25.0357 6.20969L24.523 4.8ZM45.623 4.8L45.1205 6.21332L45.1392 6.21995L45.158 6.22609L45.623 4.8ZM53.8231 8.6L55.2196 9.14731L55.6694 7.99961L54.6306 7.33595L53.8231 8.6ZM48.0231 23.4L47.2788 24.7024L48.7862 25.5637L49.4196 23.9473L48.0231 23.4ZM37.823 21.5L38.3357 22.9097L38.3681 22.8979L38.4 22.8846L37.823 21.5ZM36.023 22.8L34.839 21.8791L34.8309 21.8895L34.823 21.9L36.023 22.8ZM35.223 24.8L36.6989 25.0683L36.7008 25.0575L36.7026 25.0466L35.223 24.8ZM35.023 30.6H33.523V32.1H35.023V30.6ZM47.1231 30.6H48.6231V29.1H47.1231V30.6ZM47.1231 45.9V47.4H48.6231V45.9H47.1231ZM35.323 45.9V44.4H33.823V45.9H35.323ZM35.323 80V81.5H36.823V80H35.323ZM12.523 80H11.023V81.5H12.523V80ZM12.523 44.4H3.62305V47.4H12.523V44.4ZM5.12305 45.9V30.6H2.12305V45.9H5.12305ZM3.62305 32.1H12.523V29.1H3.62305V32.1ZM14.023 30.6V23.9H11.023V30.6H14.023ZM14.023 23.9C14.023 21.033 14.4053 18.4586 15.1499 16.1628L12.2962 15.2372C11.4408 17.8747 11.023 20.767 11.023 23.9H14.023ZM15.1534 16.1517C15.8895 13.8209 17.0466 11.8175 18.6222 10.1207L16.4239 8.07932C14.5328 10.1158 13.1566 12.5125 12.2927 15.2483L15.1534 16.1517ZM18.6028 10.1412C20.214 8.47038 22.3345 7.15208 25.0171 6.2163L24.029 3.3837C20.9782 4.44792 18.4321 5.99627 16.4433 8.05879L18.6028 10.1412ZM25.0357 6.20969C27.7588 5.21945 31.1413 4.7 35.223 4.7V1.7C30.9048 1.7 27.1539 2.24721 24.0104 3.39031L25.0357 6.20969ZM35.223 4.7C39.0239 4.7 42.3148 5.21571 45.1205 6.21332L46.1256 3.38667C42.9313 2.25095 39.2888 1.7 35.223 1.7V4.7ZM45.158 6.22609C48.1198 7.19187 50.7354 8.40731 53.0155 9.86404L54.6306 7.33595C52.1107 5.72601 49.2597 4.40812 46.0881 3.3739L45.158 6.22609ZM52.4265 8.05268L46.6265 22.8527L49.4196 23.9473L55.2196 9.14731L52.4265 8.05268ZM48.7673 22.0976C47.7944 21.5417 46.7253 20.9903 45.5617 20.4428L44.2844 23.1572C45.3875 23.6764 46.385 24.1916 47.2788 24.7024L48.7673 22.0976ZM45.5617 20.4428C44.189 19.7968 42.6287 19.5 40.923 19.5V22.5C42.2841 22.5 43.3905 22.7366 44.2844 23.1572L45.5617 20.4428ZM40.923 19.5C39.5419 19.5 38.2929 19.6792 37.2461 20.1154L38.4 22.8846C38.9532 22.6541 39.7708 22.5 40.923 22.5V19.5ZM37.3104 20.0903C36.3192 20.4508 35.4838 21.0501 34.839 21.8791L37.2071 23.7209C37.4956 23.3499 37.8602 23.0826 38.3357 22.9097L37.3104 20.0903ZM34.823 21.9C34.2509 22.6629 33.9078 23.5671 33.7435 24.5534L36.7026 25.0466C36.8049 24.4329 36.9952 24.0038 37.223 23.7L34.823 21.9ZM33.7472 24.5317C33.5955 25.3664 33.523 26.2575 33.523 27.2H36.523C36.523 26.4092 36.584 25.7002 36.6989 25.0683L33.7472 24.5317ZM33.523 27.2V30.6H36.523V27.2H33.523ZM35.023 32.1H47.1231V29.1H35.023V32.1ZM45.6231 30.6V45.9H48.6231V30.6H45.6231ZM47.1231 44.4H35.323V47.4H47.1231V44.4ZM33.823 45.9V80H36.823V45.9H33.823ZM35.323 78.5H12.523V81.5H35.323V78.5ZM14.023 80V45.9H11.023V80H14.023Z" fill="white"/>
</svg>
