<svg width="65" height="95" viewBox="0 0 65 95" fill="none" xmlns="http://www.w3.org/2000/svg">
<path d="M3.31289 58H10.0129V21.2H3.31289V4.2H61.7129V22.5H33.3129V30.1H54.8129V48.4H33.3129V58H41.0129V75H3.31289V58Z" fill="black"/>
<path d="M3.31289 58V56.5H1.81289V58H3.31289ZM10.0129 58V59.5H11.5129V58H10.0129ZM10.0129 21.2H11.5129V19.7H10.0129V21.2ZM3.31289 21.2H1.81289V22.7H3.31289V21.2ZM3.31289 4.2V2.7H1.81289V4.2H3.31289ZM61.7129 4.2H63.2129V2.7H61.7129V4.2ZM61.7129 22.5V24H63.2129V22.5H61.7129ZM33.3129 22.5V21H31.8129V22.5H33.3129ZM33.3129 30.1H31.8129V31.6H33.3129V30.1ZM54.8129 30.1H56.3129V28.6H54.8129V30.1ZM54.8129 48.4V49.9H56.3129V48.4H54.8129ZM33.3129 48.4V46.9H31.8129V48.4H33.3129ZM33.3129 58H31.8129V59.5H33.3129V58ZM41.0129 58H42.5129V56.5H41.0129V58ZM41.0129 75V76.5H42.5129V75H41.0129ZM3.31289 75H1.81289V76.5H3.31289V75ZM3.31289 59.5H10.0129V56.5H3.31289V59.5ZM11.5129 58V21.2H8.51289V58H11.5129ZM10.0129 19.7H3.31289V22.7H10.0129V19.7ZM4.81289 21.2V4.2H1.81289V21.2H4.81289ZM3.31289 5.7H61.7129V2.7H3.31289V5.7ZM60.2129 4.2V22.5H63.2129V4.2H60.2129ZM61.7129 21H33.3129V24H61.7129V21ZM31.8129 22.5V30.1H34.8129V22.5H31.8129ZM33.3129 31.6H54.8129V28.6H33.3129V31.6ZM53.3129 30.1V48.4H56.3129V30.1H53.3129ZM54.8129 46.9H33.3129V49.9H54.8129V46.9ZM31.8129 48.4V58H34.8129V48.4H31.8129ZM33.3129 59.5H41.0129V56.5H33.3129V59.5ZM39.5129 58V75H42.5129V58H39.5129ZM41.0129 73.5H3.31289V76.5H41.0129V73.5ZM4.81289 75V58H1.81289V75H4.81289Z" fill="white"/>
</svg>
