<svg width="82" height="95" viewBox="0 0 82 95" fill="none" xmlns="http://www.w3.org/2000/svg">
<path d="M3.70742 58H10.4074V21.2H3.70742V4.2H33.7074V28.7H48.2074V4.2H78.3074V21.2H71.6074V58H78.3074V75H48.2074V48.1H33.7074V75H3.70742V58Z" fill="black"/>
<path d="M3.70742 58V56.5H2.20742V58H3.70742ZM10.4074 58V59.5H11.9074V58H10.4074ZM10.4074 21.2H11.9074V19.7H10.4074V21.2ZM3.70742 21.2H2.20742V22.7H3.70742V21.2ZM3.70742 4.2V2.7H2.20742V4.2H3.70742ZM33.7074 4.2H35.2074V2.7H33.7074V4.2ZM33.7074 28.7H32.2074V30.2H33.7074V28.7ZM48.2074 28.7V30.2H49.7074V28.7H48.2074ZM48.2074 4.2V2.7H46.7074V4.2H48.2074ZM78.3074 4.2H79.8074V2.7H78.3074V4.2ZM78.3074 21.2V22.7H79.8074V21.2H78.3074ZM71.6074 21.2V19.7H70.1074V21.2H71.6074ZM71.6074 58H70.1074V59.5H71.6074V58ZM78.3074 58H79.8074V56.5H78.3074V58ZM78.3074 75V76.5H79.8074V75H78.3074ZM48.2074 75H46.7074V76.5H48.2074V75ZM48.2074 48.1H49.7074V46.6H48.2074V48.1ZM33.7074 48.1V46.6H32.2074V48.1H33.7074ZM33.7074 75V76.5H35.2074V75H33.7074ZM3.70742 75H2.20742V76.5H3.70742V75ZM3.70742 59.5H10.4074V56.5H3.70742V59.5ZM11.9074 58V21.2H8.90742V58H11.9074ZM10.4074 19.7H3.70742V22.7H10.4074V19.7ZM5.20742 21.2V4.2H2.20742V21.2H5.20742ZM3.70742 5.7H33.7074V2.7H3.70742V5.7ZM32.2074 4.2V28.7H35.2074V4.2H32.2074ZM33.7074 30.2H48.2074V27.2H33.7074V30.2ZM49.7074 28.7V4.2H46.7074V28.7H49.7074ZM48.2074 5.7H78.3074V2.7H48.2074V5.7ZM76.8074 4.2V21.2H79.8074V4.2H76.8074ZM78.3074 19.7H71.6074V22.7H78.3074V19.7ZM70.1074 21.2V58H73.1074V21.2H70.1074ZM71.6074 59.5H78.3074V56.5H71.6074V59.5ZM76.8074 58V75H79.8074V58H76.8074ZM78.3074 73.5H48.2074V76.5H78.3074V73.5ZM49.7074 75V48.1H46.7074V75H49.7074ZM48.2074 46.6H33.7074V49.6H48.2074V46.6ZM32.2074 48.1V75H35.2074V48.1H32.2074ZM33.7074 73.5H3.70742V76.5H33.7074V73.5ZM5.20742 75V58H2.20742V75H5.20742Z" fill="white"/>
</svg>
