<svg width="45" height="95" viewBox="0 0 45 95" fill="none" xmlns="http://www.w3.org/2000/svg">
<path d="M3.85977 58H10.5598V21.2H3.85977V4.2H41.1598V21.2H34.4598V58H41.1598V75H3.85977V58Z" fill="black"/>
<path d="M3.85977 58V56.5H2.35977V58H3.85977ZM10.5598 58V59.5H12.0598V58H10.5598ZM10.5598 21.2H12.0598V19.7H10.5598V21.2ZM3.85977 21.2H2.35977V22.7H3.85977V21.2ZM3.85977 4.2V2.7H2.35977V4.2H3.85977ZM41.1598 4.2H42.6598V2.7H41.1598V4.2ZM41.1598 21.2V22.7H42.6598V21.2H41.1598ZM34.4598 21.2V19.7H32.9598V21.2H34.4598ZM34.4598 58H32.9598V59.5H34.4598V58ZM41.1598 58H42.6598V56.5H41.1598V58ZM41.1598 75V76.5H42.6598V75H41.1598ZM3.85977 75H2.35977V76.5H3.85977V75ZM3.85977 59.5H10.5598V56.5H3.85977V59.5ZM12.0598 58V21.2H9.05977V58H12.0598ZM10.5598 19.7H3.85977V22.7H10.5598V19.7ZM5.35977 21.2V4.2H2.35977V21.2H5.35977ZM3.85977 5.7H41.1598V2.7H3.85977V5.7ZM39.6598 4.2V21.2H42.6598V4.2H39.6598ZM41.1598 19.7H34.4598V22.7H41.1598V19.7ZM32.9598 21.2V58H35.9598V21.2H32.9598ZM34.4598 59.5H41.1598V56.5H34.4598V59.5ZM39.6598 58V75H42.6598V58H39.6598ZM41.1598 73.5H3.85977V76.5H41.1598V73.5ZM5.35977 75V58H2.35977V75H5.35977Z" fill="white"/>
</svg>
