<svg width="54" height="95" viewBox="0 0 54 95" fill="none" xmlns="http://www.w3.org/2000/svg">
<path d="M2.98867 54.3C4.25534 54.7667 5.85534 55.2667 7.78867 55.8C9.72201 56.2667 11.6553 56.5 13.5887 56.5C15.722 56.5 17.3887 55.9333 18.5887 54.8C19.7887 53.6667 20.3887 51.7667 20.3887 49.1V21.2H13.1887V4.2H50.9887V21.2H44.2887V55.6C44.2887 59.2667 43.722 62.4333 42.5887 65.1C41.522 67.7667 40.022 69.9667 38.0887 71.7C36.222 73.4333 34.022 74.7 31.4887 75.5C29.022 76.3667 26.3887 76.8 23.5887 76.8C19.3887 76.8 15.622 76.5333 12.2887 76C9.02201 75.4667 5.92201 74.5667 2.98867 73.3V54.3Z" fill="black"/>
<path d="M2.98867 54.3L3.50723 52.8925L1.48867 52.1488V54.3H2.98867ZM7.78867 55.8L7.38978 57.246L7.41315 57.2524L7.43671 57.2581L7.78867 55.8ZM18.5887 54.8L19.6186 55.8905L18.5887 54.8ZM20.3887 21.2H21.8887V19.7H20.3887V21.2ZM13.1887 21.2H11.6887V22.7H13.1887V21.2ZM13.1887 4.2V2.7H11.6887V4.2H13.1887ZM50.9887 4.2H52.4887V2.7H50.9887V4.2ZM50.9887 21.2V22.7H52.4887V21.2H50.9887ZM44.2887 21.2V19.7H42.7887V21.2H44.2887ZM42.5887 65.1L41.2082 64.5133L41.2019 64.528L41.196 64.5429L42.5887 65.1ZM38.0887 71.7L37.0874 70.5831L37.0776 70.5919L37.068 70.6008L38.0887 71.7ZM31.4887 75.5L31.037 74.0696L31.0141 74.0769L30.9914 74.0848L31.4887 75.5ZM12.2887 76L12.047 77.4804L12.0517 77.4812L12.2887 76ZM2.98867 73.3H1.48867V74.2861L2.39402 74.6771L2.98867 73.3ZM2.47011 55.7075C3.79 56.1938 5.43339 56.7063 7.38978 57.246L8.18757 54.354C6.27728 53.827 4.72068 53.3395 3.50723 52.8925L2.47011 55.7075ZM7.43671 57.2581C9.48198 57.7518 11.5334 58 13.5887 58V55C11.7773 55 9.96203 54.7815 8.14063 54.3419L7.43671 57.2581ZM13.5887 58C15.989 58 18.066 57.3569 19.6186 55.8905L17.5587 53.7095C16.7114 54.5098 15.455 55 13.5887 55V58ZM19.6186 55.8905C21.2597 54.3406 21.8887 51.9337 21.8887 49.1H18.8887C18.8887 51.5996 18.3177 52.9927 17.5587 53.7095L19.6186 55.8905ZM21.8887 49.1V21.2H18.8887V49.1H21.8887ZM20.3887 19.7H13.1887V22.7H20.3887V19.7ZM14.6887 21.2V4.2H11.6887V21.2H14.6887ZM13.1887 5.7H50.9887V2.7H13.1887V5.7ZM49.4887 4.2V21.2H52.4887V4.2H49.4887ZM50.9887 19.7H44.2887V22.7H50.9887V19.7ZM42.7887 21.2V55.6H45.7887V21.2H42.7887ZM42.7887 55.6C42.7887 59.1166 42.2447 62.0744 41.2082 64.5133L43.9692 65.6867C45.1993 62.7923 45.7887 59.4167 45.7887 55.6H42.7887ZM41.196 64.5429C40.2058 67.0184 38.8314 69.0196 37.0874 70.5831L39.09 72.8169C41.2127 70.9138 42.8382 68.5149 43.9814 65.6571L41.196 64.5429ZM37.068 70.6008C35.3711 72.1765 33.3678 73.3336 31.037 74.0696L31.9404 76.9304C34.6762 76.0664 37.0729 74.6902 39.1093 72.7992L37.068 70.6008ZM30.9914 74.0848C28.6955 74.8915 26.2314 75.3 23.5887 75.3V78.3C26.546 78.3 29.3485 77.8419 31.9859 76.9152L30.9914 74.0848ZM23.5887 75.3C19.4497 75.3 15.7644 75.037 12.5257 74.5188L12.0517 77.4812C15.4796 78.0296 19.3276 78.3 23.5887 78.3V75.3ZM12.5304 74.5196C9.38077 74.0054 6.39969 73.1391 3.58333 71.9229L2.39402 74.6771C5.44432 75.9943 8.66324 76.928 12.047 77.4804L12.5304 74.5196ZM4.48867 73.3V54.3H1.48867V73.3H4.48867Z" fill="white"/>
</svg>
