<svg width="77" height="95" viewBox="0 0 77 95" fill="none" xmlns="http://www.w3.org/2000/svg">
<path d="M2.86758 58H9.56758V21.2H2.86758V4.2H31.8676V26.2L52.3676 4.2H71.8676V21.4H63.0676L52.1676 33.2L65.0676 58H74.1676V75H48.1676L34.9676 49.2L31.8676 52.7V75H2.86758V58Z" fill="black"/>
<path d="M2.86758 58V56.5H1.36758V58H2.86758ZM9.56758 58V59.5H11.0676V58H9.56758ZM9.56758 21.2H11.0676V19.7H9.56758V21.2ZM2.86758 21.2H1.36758V22.7H2.86758V21.2ZM2.86758 4.2V2.7H1.36758V4.2H2.86758ZM31.8676 4.2H33.3676V2.7H31.8676V4.2ZM31.8676 26.2H30.3676V30.0101L32.965 27.2226L31.8676 26.2ZM52.3676 4.2V2.7H51.715L51.2702 3.17741L52.3676 4.2ZM71.8676 4.2H73.3676V2.7H71.8676V4.2ZM71.8676 21.4V22.9H73.3676V21.4H71.8676ZM63.0676 21.4V19.9H62.4111L61.9657 20.3822L63.0676 21.4ZM52.1676 33.2L51.0657 32.1822L50.3503 32.9567L50.8368 33.8922L52.1676 33.2ZM65.0676 58L63.7368 58.6922L64.157 59.5H65.0676V58ZM74.1676 58H75.6676V56.5H74.1676V58ZM74.1676 75V76.5H75.6676V75H74.1676ZM48.1676 75L46.8322 75.6832L47.2501 76.5H48.1676V75ZM34.9676 49.2L36.303 48.5168L35.3019 46.5602L33.8447 48.2054L34.9676 49.2ZM31.8676 52.7L30.7447 51.7054L30.3676 52.1312V52.7H31.8676ZM31.8676 75V76.5H33.3676V75H31.8676ZM2.86758 75H1.36758V76.5H2.86758V75ZM2.86758 59.5H9.56758V56.5H2.86758V59.5ZM11.0676 58V21.2H8.06758V58H11.0676ZM9.56758 19.7H2.86758V22.7H9.56758V19.7ZM4.36758 21.2V4.2H1.36758V21.2H4.36758ZM2.86758 5.7H31.8676V2.7H2.86758V5.7ZM30.3676 4.2V26.2H33.3676V4.2H30.3676ZM32.965 27.2226L53.465 5.22259L51.2702 3.17741L30.7702 25.1774L32.965 27.2226ZM52.3676 5.7H71.8676V2.7H52.3676V5.7ZM70.3676 4.2V21.4H73.3676V4.2H70.3676ZM71.8676 19.9H63.0676V22.9H71.8676V19.9ZM61.9657 20.3822L51.0657 32.1822L53.2694 34.2178L64.1694 22.4178L61.9657 20.3822ZM50.8368 33.8922L63.7368 58.6922L66.3983 57.3078L53.4983 32.5078L50.8368 33.8922ZM65.0676 59.5H74.1676V56.5H65.0676V59.5ZM72.6676 58V75H75.6676V58H72.6676ZM74.1676 73.5H48.1676V76.5H74.1676V73.5ZM49.503 74.3168L36.303 48.5168L33.6322 49.8832L46.8322 75.6832L49.503 74.3168ZM33.8447 48.2054L30.7447 51.7054L32.9905 53.6946L36.0905 50.1945L33.8447 48.2054ZM30.3676 52.7V75H33.3676V52.7H30.3676ZM31.8676 73.5H2.86758V76.5H31.8676V73.5ZM4.36758 75V58H1.36758V75H4.36758Z" fill="white"/>
</svg>
