<svg width="70" height="95" viewBox="0 0 70 95" fill="none" xmlns="http://www.w3.org/2000/svg">
<path d="M6.44766 58H13.1477V21.2H6.44766V4.2H44.7477V21.2H37.0477V56.5H63.5477V75H6.44766V58Z" fill="black"/>
<path d="M6.44766 58V56.5H4.94766V58H6.44766ZM13.1477 58V59.5H14.6477V58H13.1477ZM13.1477 21.2H14.6477V19.7H13.1477V21.2ZM6.44766 21.2H4.94766V22.7H6.44766V21.2ZM6.44766 4.2V2.7H4.94766V4.2H6.44766ZM44.7477 4.2H46.2477V2.7H44.7477V4.2ZM44.7477 21.2V22.7H46.2477V21.2H44.7477ZM37.0477 21.2V19.7H35.5477V21.2H37.0477ZM37.0477 56.5H35.5477V58H37.0477V56.5ZM63.5477 56.5H65.0477V55H63.5477V56.5ZM63.5477 75V76.5H65.0477V75H63.5477ZM6.44766 75H4.94766V76.5H6.44766V75ZM6.44766 59.5H13.1477V56.5H6.44766V59.5ZM14.6477 58V21.2H11.6477V58H14.6477ZM13.1477 19.7H6.44766V22.7H13.1477V19.7ZM7.94766 21.2V4.2H4.94766V21.2H7.94766ZM6.44766 5.7H44.7477V2.7H6.44766V5.7ZM43.2477 4.2V21.2H46.2477V4.2H43.2477ZM44.7477 19.7H37.0477V22.7H44.7477V19.7ZM35.5477 21.2V56.5H38.5477V21.2H35.5477ZM37.0477 58H63.5477V55H37.0477V58ZM62.0477 56.5V75H65.0477V56.5H62.0477ZM63.5477 73.5H6.44766V76.5H63.5477V73.5ZM7.94766 75V58H4.94766V75H7.94766Z" fill="white"/>
</svg>
