<svg width="71" height="105" viewBox="0 0 71 105" fill="none" xmlns="http://www.w3.org/2000/svg">
<path d="M9.65977 48.4C9.65977 47.6667 9.4931 47.1 9.15977 46.7C8.82643 46.2333 8.2931 46 7.55977 46C6.75977 46 5.9931 46.1667 5.25977 46.5C4.5931 46.7667 3.92643 47.0667 3.25977 47.4L0.159766 35.4C2.2931 34 4.82643 32.6667 7.75977 31.4C10.6931 30.0667 13.9931 29.4 17.6598 29.4C20.9264 29.4 23.5931 29.9667 25.6598 31.1C27.7931 32.2333 29.4264 34.0333 30.5598 36.5C32.7598 34.0333 35.0598 32.2333 37.4598 31.1C39.9264 29.9667 42.9598 29.4 46.5598 29.4C51.9598 29.4 55.8264 30.9 58.1598 33.9C60.5598 36.8333 61.7598 40.9 61.7598 46.1V62.4C61.7598 63.1333 61.9264 63.7333 62.2598 64.2C62.5931 64.6667 63.1264 64.9 63.8598 64.9C64.6598 64.9 65.3264 64.7667 65.8598 64.5C66.3931 64.2333 66.9931 63.9333 67.6598 63.6L70.6598 75.7C68.5931 77.2333 66.0598 78.5333 63.0598 79.6C60.0598 80.6667 57.0931 81.2 54.1598 81.2C44.0264 81.2 38.9598 76.8667 38.9598 68.2V53.9C38.9598 50.9667 37.9264 49.5 35.8598 49.5C34.7931 49.5 33.9598 49.9 33.3598 50.7C32.7598 51.5 32.4598 52.5667 32.4598 53.9V80H9.65977V48.4Z" fill="black"/>
<path d="M9.15977 46.7L7.93917 47.5719L7.97165 47.6173L8.00744 47.6603L9.15977 46.7ZM5.25977 46.5L5.81685 47.8927L5.84897 47.8799L5.88047 47.8656L5.25977 46.5ZM3.25977 47.4L1.80744 47.7752L2.27142 49.5712L3.93059 48.7416L3.25977 47.4ZM0.159765 35.4L-0.663219 34.1459L-1.56121 34.7352L-1.29256 35.7752L0.159765 35.4ZM7.75977 31.4L8.35442 32.7771L8.3675 32.7714L8.38047 32.7655L7.75977 31.4ZM25.6598 31.1L24.9385 32.4152L24.9472 32.42L24.956 32.4247L25.6598 31.1ZM30.5598 36.5L29.1968 37.1262L30.1536 39.2089L31.6792 37.4984L30.5598 36.5ZM37.4598 31.1L36.8335 29.737L36.8264 29.7403L36.8193 29.7436L37.4598 31.1ZM58.1598 33.9L56.9757 34.8209L56.9871 34.8355L56.9988 34.8499L58.1598 33.9ZM62.2598 64.2L63.4804 63.3281L62.2598 64.2ZM65.8598 64.5L66.5306 65.8416H66.5306L65.8598 64.5ZM67.6598 63.6L69.1157 63.239L68.6648 61.4204L66.9889 62.2584L67.6598 63.6ZM70.6598 75.7L71.5535 76.9046L72.3562 76.3091L72.1157 75.339L70.6598 75.7ZM63.0598 79.6L63.5623 81.0133L63.0598 79.6ZM33.3598 50.7L34.5598 51.6L33.3598 50.7ZM32.4598 80V81.5H33.9598V80H32.4598ZM9.65977 80H8.15977V81.5H9.65977V80ZM11.1598 48.4C11.1598 47.4571 10.9465 46.5009 10.3121 45.7397L8.00744 47.6603C8.03975 47.6991 8.15977 47.8762 8.15977 48.4H11.1598ZM10.3804 45.8281C9.68835 44.8593 8.62759 44.5 7.55977 44.5V47.5C7.77143 47.5 7.87387 47.5341 7.90854 47.5492C7.93114 47.5591 7.93232 47.5623 7.93917 47.5719L10.3804 45.8281ZM7.55977 44.5C6.54411 44.5 5.56593 44.7131 4.63906 45.1344L5.88047 47.8656C6.42026 47.6202 6.97542 47.5 7.55977 47.5V44.5ZM4.70268 45.1073C3.99598 45.39 3.29139 45.7071 2.58894 46.0584L3.93059 48.7416C4.56147 48.4262 5.19022 48.1434 5.81685 47.8927L4.70268 45.1073ZM4.71209 47.0248L1.61209 35.0248L-1.29256 35.7752L1.80744 47.7752L4.71209 47.0248ZM0.98275 36.6541C3.02827 35.3117 5.4817 34.0176 8.35442 32.7771L7.16511 30.0229C4.17117 31.3157 1.55792 32.6883 -0.663219 34.1459L0.98275 36.6541ZM8.38047 32.7655C11.0937 31.5323 14.1777 30.9 17.6598 30.9V27.9C13.8085 27.9 10.2925 28.6011 7.13906 30.0344L8.38047 32.7655ZM17.6598 30.9C20.7667 30.9 23.1618 31.4409 24.9385 32.4152L26.381 29.7848C24.0244 28.4924 21.0862 27.9 17.6598 27.9V30.9ZM24.956 32.4247C26.7634 33.3848 28.1828 34.9195 29.1968 37.1262L31.9228 35.8737C30.67 33.1472 28.8228 31.0818 26.3635 29.7753L24.956 32.4247ZM31.6792 37.4984C33.777 35.1463 35.9211 33.4854 38.1003 32.4564L36.8193 29.7436C34.1985 30.9812 31.7425 32.9203 29.4403 35.5016L31.6792 37.4984ZM38.086 32.463C40.3032 31.4443 43.1088 30.9 46.5598 30.9V27.9C42.8107 27.9 39.5497 28.489 36.8335 29.737L38.086 32.463ZM46.5598 30.9C51.7019 30.9 55.0323 32.3223 56.9757 34.8209L59.3438 32.9791C56.6205 29.4777 52.2177 27.9 46.5598 27.9V30.9ZM56.9988 34.8499C59.1103 37.4305 60.2598 41.1183 60.2598 46.1H63.2598C63.2598 40.6817 62.0092 36.2361 59.3207 32.9501L56.9988 34.8499ZM60.2598 46.1V62.4H63.2598V46.1H60.2598ZM60.2598 62.4C60.2598 63.3587 60.4792 64.2879 61.0392 65.0719L63.4804 63.3281C63.3736 63.1787 63.2598 62.908 63.2598 62.4H60.2598ZM61.0392 65.0719C61.7312 66.0407 62.7919 66.4 63.8598 66.4V63.4C63.6481 63.4 63.5457 63.3659 63.511 63.3508C63.4884 63.3409 63.4872 63.3377 63.4804 63.3281L61.0392 65.0719ZM63.8598 66.4C64.8167 66.4 65.7303 66.2418 66.5306 65.8416L65.1889 63.1584C64.9226 63.2916 64.5028 63.4 63.8598 63.4V66.4ZM66.5306 65.8416C66.6493 65.7823 66.8161 65.6989 66.9431 65.6354C66.9667 65.6236 66.9726 65.6206 66.9964 65.6087C66.9979 65.608 67.0083 65.6028 67.0098 65.602C67.0177 65.5981 67.0153 65.5993 67.0232 65.5953C67.0312 65.5913 67.0421 65.5859 67.0501 65.5819C67.0581 65.5779 67.0961 65.5589 67.1042 65.5548C67.1446 65.5346 67.1182 65.5478 67.1587 65.5276C67.1911 65.5114 67.2359 65.489 67.2689 65.4725C67.2934 65.4602 67.3555 65.4292 67.3806 65.4166C67.6473 65.2833 68.0305 65.0917 68.3306 64.9416L66.9889 62.2584C66.8751 62.3153 66.607 62.4493 66.5014 62.5021C66.3604 62.5726 66.1717 62.667 66.0389 62.7334C66.0139 62.7459 65.9518 62.777 65.9272 62.7892C65.919 62.7933 65.9077 62.799 65.8995 62.8031C65.8955 62.8051 65.8898 62.8079 65.8857 62.81C65.8817 62.812 65.876 62.8148 65.872 62.8169C65.8475 62.8291 65.8414 62.8321 65.8171 62.8443C65.7686 62.8686 65.7565 62.8746 65.7085 62.8986C65.7055 62.9001 65.698 62.9038 65.695 62.9053C65.6939 62.9059 65.6928 62.9064 65.6917 62.907C65.6905 62.9076 65.6894 62.9081 65.6883 62.9087C65.6872 62.9092 65.6861 62.9098 65.6849 62.9104C65.6838 62.9109 65.6827 62.9115 65.6816 62.912C65.6805 62.9126 65.6793 62.9132 65.6782 62.9137C65.6771 62.9143 65.676 62.9148 65.6749 62.9154C65.6737 62.916 65.6726 62.9165 65.6715 62.9171C65.6704 62.9176 65.6693 62.9182 65.6682 62.9188C65.6652 62.9202 65.6577 62.924 65.6548 62.9254C65.6389 62.9334 65.6172 62.9442 65.6014 62.9521C65.5382 62.9837 65.4532 63.0262 65.3921 63.0568C65.3806 63.0625 65.3521 63.0768 65.3407 63.0825C65.3393 63.0832 65.3357 63.085 65.3343 63.0857C65.3332 63.0862 65.3322 63.0867 65.3311 63.0873C65.3301 63.0878 65.329 63.0883 65.3279 63.0889C65.3269 63.0894 65.3258 63.0899 65.3247 63.0905C65.3237 63.091 65.3226 63.0915 65.3215 63.0921C65.3205 63.0926 65.3194 63.0931 65.3184 63.0937C65.3173 63.0942 65.3162 63.0947 65.3152 63.0952C65.3141 63.0958 65.313 63.0963 65.312 63.0968C65.3109 63.0974 65.3099 63.0979 65.3088 63.0984C65.3069 63.0994 65.3043 63.1007 65.3024 63.1016C65.301 63.1023 65.2975 63.1041 65.2961 63.1048C65.2942 63.1057 65.2916 63.107 65.2897 63.108C65.2747 63.1155 65.2541 63.1258 65.2391 63.1333C65.2381 63.1338 65.237 63.1343 65.236 63.1348C65.2349 63.1354 65.2339 63.1359 65.2328 63.1364C65.2318 63.1369 65.2308 63.1375 65.2297 63.138C65.2287 63.1385 65.2276 63.139 65.2266 63.1396C65.2228 63.1414 65.2177 63.144 65.214 63.1458C65.213 63.1464 65.2119 63.1469 65.2109 63.1474C65.2098 63.1479 65.2088 63.1484 65.2077 63.149C65.2067 63.1495 65.2056 63.15 65.2046 63.1505C65.2035 63.1511 65.2025 63.1516 65.2015 63.1521C65.1987 63.1535 65.1917 63.157 65.1889 63.1584L66.5306 65.8416ZM66.2038 63.961L69.2038 76.061L72.1157 75.339L69.1157 63.239L66.2038 63.961ZM69.766 74.4954C67.8431 75.922 65.449 77.1585 62.5573 78.1867L63.5623 81.0133C66.6705 79.9082 69.3431 78.5446 71.5535 76.9046L69.766 74.4954ZM62.5573 78.1867C59.7048 79.2009 56.9078 79.7 54.1598 79.7V82.7C57.2784 82.7 60.4147 82.1324 63.5623 81.0133L62.5573 78.1867ZM54.1598 79.7C49.2719 79.7 45.8859 78.6499 43.7347 76.8101C41.6284 75.0086 40.4598 72.2355 40.4598 68.2H37.4598C37.4598 72.8312 38.8245 76.5581 41.7848 79.0899C44.7003 81.5834 48.9143 82.7 54.1598 82.7V79.7ZM40.4598 68.2V53.9H37.4598V68.2H40.4598ZM40.4598 53.9C40.4598 52.303 40.1867 50.8371 39.411 49.7361C38.5675 48.5389 37.2956 48 35.8598 48V51C36.4906 51 36.7687 51.1944 36.9585 51.4639C37.2161 51.8295 37.4598 52.5637 37.4598 53.9H40.4598ZM35.8598 48C34.3576 48 33.0643 48.5939 32.1598 49.8L34.5598 51.6C34.8552 51.2061 35.2286 51 35.8598 51V48ZM32.1598 49.8C31.3092 50.9341 30.9598 52.3495 30.9598 53.9H33.9598C33.9598 52.7838 34.2104 52.0659 34.5598 51.6L32.1598 49.8ZM30.9598 53.9V80H33.9598V53.9H30.9598ZM32.4598 78.5H9.65977V81.5H32.4598V78.5ZM11.1598 80V48.4H8.15977V80H11.1598Z" fill="white"/>
</svg>
