<svg width="60" height="105" viewBox="0 0 60 105" fill="none" xmlns="http://www.w3.org/2000/svg">
<path d="M2.18945 55.5C2.18945 51.7 2.75612 48.2 3.88945 45C5.08945 41.8 6.85612 39.0667 9.18945 36.8C11.5228 34.4667 14.4228 32.6667 17.8895 31.4C21.3561 30.0667 25.3895 29.4 29.9895 29.4C34.5228 29.4 38.5228 30.0667 41.9895 31.4C45.4561 32.6667 48.3561 34.4667 50.6895 36.8C53.0228 39.0667 54.7895 41.8 55.9895 45C57.1895 48.2 57.7895 51.7 57.7895 55.5C57.7895 59.3 57.1895 62.8 55.9895 66C54.7895 69.1333 53.0228 71.8667 50.6895 74.2C48.3561 76.4667 45.4561 78.2667 41.9895 79.6C38.5228 80.8667 34.5228 81.5 29.9895 81.5C25.3895 81.5 21.3561 80.8667 17.8895 79.6C14.4228 78.2667 11.5228 76.4667 9.18945 74.2C6.85612 71.8667 5.08945 69.1333 3.88945 66C2.75612 62.8 2.18945 59.3 2.18945 55.5ZM29.9895 64.9C31.4561 64.9 32.5228 64.1667 33.1895 62.7C33.9228 61.1667 34.2895 58.7667 34.2895 55.5C34.2895 52.1667 33.9561 49.7667 33.2895 48.3C32.6228 46.7667 31.5228 46 29.9895 46C28.4561 46 27.3561 46.7667 26.6895 48.3C26.0228 49.7667 25.6895 52.1667 25.6895 55.5C25.6895 58.7667 26.0228 61.1667 26.6895 62.7C27.3561 64.1667 28.4561 64.9 29.9895 64.9Z" fill="black"/>
<path d="M3.88945 45L2.48496 44.4733L2.48012 44.4862L2.47551 44.4992L3.88945 45ZM9.18945 36.8L10.2346 37.8759L10.2424 37.8683L10.2501 37.8607L9.18945 36.8ZM17.8895 31.4L18.4042 32.8089L18.4161 32.8046L18.4279 32.8L17.8895 31.4ZM41.9895 31.4L41.451 32.8L41.4628 32.8046L41.4747 32.8089L41.9895 31.4ZM50.6895 36.8L49.6288 37.8607L49.6365 37.8683L49.6443 37.8759L50.6895 36.8ZM55.9895 66L57.3903 66.5365L57.3939 66.5267L55.9895 66ZM50.6895 74.2L51.7346 75.2759L51.7424 75.2683L51.7501 75.2607L50.6895 74.2ZM41.9895 79.6L42.5042 81.0089L42.5161 81.0046L42.5279 81L41.9895 79.6ZM17.8895 79.6L17.351 81L17.3628 81.0046L17.3747 81.0089L17.8895 79.6ZM9.18945 74.2L8.12879 75.2607L8.13648 75.2683L8.14427 75.2759L9.18945 74.2ZM3.88945 66L2.47551 66.5008L2.48186 66.5187L2.48867 66.5365L3.88945 66ZM33.1895 62.7L31.8363 62.0528L31.8299 62.066L31.8239 62.0793L33.1895 62.7ZM33.2895 48.3L31.9139 48.8981L31.9188 48.9094L31.9239 48.9207L33.2895 48.3ZM26.6895 48.3L28.055 48.9207L28.0601 48.9094L28.0651 48.8981L26.6895 48.3ZM26.6895 62.7L25.3138 63.2981L25.3188 63.3094L25.3239 63.3207L26.6895 62.7ZM3.68945 55.5C3.68945 51.8504 4.23339 48.522 5.30339 45.5008L2.47551 44.4992C1.27885 47.878 0.689453 51.5496 0.689453 55.5H3.68945ZM5.29395 45.5267C6.42022 42.5233 8.06818 39.9805 10.2346 37.8759L8.14427 35.7241C5.64406 38.1529 3.75869 41.0767 2.48496 44.4733L5.29395 45.5267ZM10.2501 37.8607C12.4116 35.6992 15.1183 34.0095 18.4042 32.8089L17.3747 29.9911C13.7273 31.3238 10.634 33.2342 8.12879 35.7393L10.2501 37.8607ZM18.4279 32.8C21.6872 31.5464 25.5312 30.9 29.9895 30.9V27.9C25.2477 27.9 21.025 28.5869 17.351 30L18.4279 32.8ZM29.9895 30.9C34.3781 30.9 38.1894 31.5456 41.451 32.8L42.5279 30C38.8562 28.5878 34.6675 27.9 29.9895 27.9V30.9ZM41.4747 32.8089C44.7606 34.0095 47.4673 35.6992 49.6288 37.8607L51.7501 35.7393C49.2449 33.2342 46.1516 31.3238 42.5042 29.9911L41.4747 32.8089ZM49.6443 37.8759C51.8107 39.9805 53.4587 42.5233 54.585 45.5267L57.3939 44.4733C56.1202 41.0767 54.2348 38.1529 51.7346 35.7241L49.6443 37.8759ZM54.585 45.5267C55.7151 48.5405 56.2895 51.8598 56.2895 55.5H59.2895C59.2895 51.5402 58.6638 47.8595 57.3939 44.4733L54.585 45.5267ZM56.2895 55.5C56.2895 59.1402 55.7151 62.4595 54.585 65.4733L57.3939 66.5267C58.6638 63.1405 59.2895 59.4598 59.2895 55.5H56.2895ZM54.5887 65.4635C53.4627 68.4036 51.8107 70.9575 49.6288 73.1393L51.7501 75.2607C54.2349 72.7759 56.1162 69.8631 57.3902 66.5365L54.5887 65.4635ZM49.6443 73.1241C47.4754 75.231 44.7553 76.9291 41.451 78.2L42.5279 81C46.157 79.6042 49.2368 77.7024 51.7346 75.2759L49.6443 73.1241ZM41.4747 78.1911C38.2057 79.3855 34.3859 80 29.9895 80V83C34.6597 83 38.8398 82.3478 42.5042 81.0089L41.4747 78.1911ZM29.9895 80C25.5235 80 21.671 79.3847 18.4042 78.1911L17.3747 81.0089C21.0413 82.3486 25.2554 83 29.9895 83V80ZM18.4279 78.2C15.1236 76.9291 12.4035 75.231 10.2346 73.1241L8.14427 75.2759C10.6421 77.7024 13.7219 79.6042 17.351 81L18.4279 78.2ZM10.2501 73.1393C8.06825 70.9575 6.41622 68.4036 5.29024 65.4635L2.48867 66.5365C3.76269 69.8631 5.64399 72.7759 8.12879 75.2607L10.2501 73.1393ZM5.30339 65.4992C4.23339 62.478 3.68945 59.1496 3.68945 55.5H0.689453C0.689453 59.4504 1.27885 63.122 2.47551 66.5008L5.30339 65.4992ZM29.9895 66.4C30.9844 66.4 31.9235 66.1469 32.7392 65.5861C33.5462 65.0313 34.1363 64.2419 34.555 63.3207L31.8239 62.0793C31.576 62.6247 31.2994 62.9354 31.0397 63.1139C30.7888 63.2864 30.4612 63.4 29.9895 63.4V66.4ZM34.5427 63.3472C35.4258 61.5005 35.7895 58.8212 35.7895 55.5H32.7895C32.7895 58.7122 32.4197 60.8328 31.8363 62.0528L34.5427 63.3472ZM35.7895 55.5C35.7895 52.1333 35.4629 49.4567 34.655 47.6793L31.9239 48.9207C32.4493 50.0766 32.7895 52.2001 32.7895 55.5H35.7895ZM34.6651 47.7019C34.2482 46.7431 33.6502 45.9215 32.8221 45.3444C31.9855 44.7613 31.0173 44.5 29.9895 44.5V47.5C30.495 47.5 30.8434 47.622 31.1068 47.8056C31.3787 47.9952 31.6641 48.3236 31.9139 48.8981L34.6651 47.7019ZM29.9895 44.5C28.9616 44.5 27.9934 44.7613 27.1568 45.3444C26.3287 45.9215 25.7307 46.7431 25.3138 47.7019L28.0651 48.8981C28.3149 48.3236 28.6002 47.9952 28.8721 47.8056C29.1355 47.622 29.4839 47.5 29.9895 47.5V44.5ZM25.3239 47.6793C24.516 49.4567 24.1895 52.1333 24.1895 55.5H27.1895C27.1895 52.2001 27.5296 50.0766 28.055 48.9207L25.3239 47.6793ZM24.1895 55.5C24.1895 58.8135 24.5194 61.4707 25.3138 63.2981L28.0651 62.1019C27.5262 60.8626 27.1895 58.7198 27.1895 55.5H24.1895ZM25.3239 63.3207C25.7477 64.253 26.3533 65.0453 27.1824 65.5981C28.0163 66.154 28.9752 66.4 29.9895 66.4V63.4C29.4704 63.4 29.1126 63.2793 28.8465 63.1019C28.5757 62.9214 28.2979 62.6137 28.055 62.0793L25.3239 63.3207Z" fill="white"/>
</svg>
