<svg width="80" height="95" viewBox="0 0 80 95" fill="none" xmlns="http://www.w3.org/2000/svg">
<path d="M39.8539 76.8C33.9872 76.8 28.7872 75.9 24.2539 74.1C19.7872 72.2333 16.0206 69.6667 12.9539 66.4C9.88724 63.0667 7.55391 59.1333 5.95391 54.6C4.35391 50 3.55391 45 3.55391 39.6C3.55391 34.2 4.35391 29.2333 5.95391 24.7C7.55391 20.1 9.88724 16.1667 12.9539 12.9C16.0206 9.56666 19.7872 7 24.2539 5.2C28.7872 3.33333 33.9872 2.4 39.8539 2.4C45.7872 2.4 51.0206 3.33333 55.5539 5.2C60.0872 7 63.8872 9.56666 66.9539 12.9C70.0872 16.1667 72.4539 20.1 74.0539 24.7C75.6539 29.2333 76.4539 34.2 76.4539 39.6C76.4539 45 75.6539 50 74.0539 54.6C72.4539 59.1333 70.0872 63.0667 66.9539 66.4C63.8872 69.6667 60.0872 72.2333 55.5539 74.1C51.0206 75.9 45.7872 76.8 39.8539 76.8ZM39.8539 57.6C43.5206 57.6 46.1872 56.0333 47.8539 52.9C49.5206 49.7667 50.3539 45.3333 50.3539 39.6C50.3539 33.8 49.5539 29.3667 47.9539 26.3C46.3539 23.1667 43.6539 21.6 39.8539 21.6C36.2539 21.6 33.6206 23.1667 31.9539 26.3C30.3539 29.3667 29.5539 33.8 29.5539 39.6C29.5539 45.3333 30.3539 49.7667 31.9539 52.9C33.5539 56.0333 36.1872 57.6 39.8539 57.6Z" fill="black"/>
<path d="M24.2539 74.1L23.6755 75.484L23.6879 75.4892L23.7004 75.4941L24.2539 74.1ZM12.9539 66.4L11.85 67.4156L11.8551 67.4211L11.8603 67.4267L12.9539 66.4ZM5.95391 54.6L4.53715 55.0928L4.53942 55.0992L5.95391 54.6ZM5.95391 24.7L7.36841 25.1992L7.37065 25.1928L5.95391 24.7ZM12.9539 12.9L14.0475 13.9266L14.0527 13.9211L14.0578 13.9156L12.9539 12.9ZM24.2539 5.2L24.8146 6.59132L24.825 6.58702L24.2539 5.2ZM55.5539 5.2L54.9828 6.58702L54.9916 6.59062L55.0004 6.59412L55.5539 5.2ZM66.9539 12.9L65.85 13.9156L65.8606 13.9271L65.8714 13.9383L66.9539 12.9ZM74.0539 24.7L72.6371 25.1928L72.6394 25.1992L74.0539 24.7ZM74.0539 54.6L75.4684 55.0992L75.4707 55.0928L74.0539 54.6ZM66.9539 66.4L65.861 65.3726L65.8603 65.3733L66.9539 66.4ZM55.5539 74.1L56.1075 75.4941L56.1163 75.4906L56.125 75.487L55.5539 74.1ZM47.8539 52.9L46.5296 52.1956L47.8539 52.9ZM47.9539 26.3L46.618 26.9822L46.624 26.9938L47.9539 26.3ZM31.9539 26.3L30.6296 25.5956L30.624 25.6061L31.9539 26.3ZM31.9539 52.9L30.618 53.5822L31.9539 52.9ZM39.8539 75.3C34.1393 75.3 29.1328 74.4233 24.8075 72.7059L23.7004 75.4941C28.4416 77.3767 33.8352 78.3 39.8539 78.3V75.3ZM24.8323 72.716C20.5447 70.9242 16.9582 68.4738 14.0475 65.3733L11.8603 67.4267C15.083 70.8595 19.0298 73.5425 23.6755 75.484L24.8323 72.716ZM14.0578 65.3844C11.1368 62.2095 8.90506 58.4547 7.36839 54.1008L4.53942 55.0992C6.20275 59.812 8.63764 63.9239 11.85 67.4156L14.0578 65.3844ZM7.37065 54.1072C5.83142 49.6819 5.05391 44.8504 5.05391 39.6H2.05391C2.05391 45.1496 2.87639 50.3181 4.53716 55.0928L7.37065 54.1072ZM5.05391 39.6C5.05391 34.3493 5.83151 29.5537 7.36839 25.1992L4.53942 24.2008C2.8763 28.9129 2.05391 34.0507 2.05391 39.6H5.05391ZM7.37065 25.1928C8.90764 20.7739 11.1369 17.027 14.0475 13.9266L11.8603 11.8733C8.63754 15.3063 6.20018 19.426 4.53716 24.2072L7.37065 25.1928ZM14.0578 13.9156C16.9641 10.7566 20.5413 8.31334 24.8146 6.59128L23.6932 3.80872C19.0332 5.68666 15.077 8.37677 11.85 11.8844L14.0578 13.9156ZM24.825 6.58702C29.1453 4.80808 34.1455 3.9 39.8539 3.9V0.899999C33.829 0.899999 28.4292 1.85859 23.6828 3.81298L24.825 6.58702ZM39.8539 3.9C45.6315 3.9 50.6644 4.80886 54.9828 6.58702L56.125 3.81298C51.3768 1.85781 45.943 0.899999 39.8539 0.899999V3.9ZM55.0004 6.59412C59.3405 8.31743 62.9475 10.7607 65.85 13.9156L68.0578 11.8844C64.827 8.37261 60.8339 5.68257 56.1075 3.80587L55.0004 6.59412ZM65.8714 13.9383C68.8443 17.0377 71.1026 20.7808 72.6372 25.1928L75.4707 24.2072C73.8053 19.4192 71.3302 15.2956 68.0364 11.8617L65.8714 13.9383ZM72.6394 25.1992C74.1763 29.5537 74.9539 34.3493 74.9539 39.6H77.9539C77.9539 34.0507 77.1315 28.9129 75.4684 24.2008L72.6394 25.1992ZM74.9539 39.6C74.9539 44.8504 74.1764 49.6819 72.6372 54.1072L75.4707 55.0928C77.1314 50.3181 77.9539 45.1496 77.9539 39.6H74.9539ZM72.6394 54.1008C71.1052 58.4478 68.8444 62.1988 65.861 65.3726L68.0469 67.4274C71.3301 63.9345 73.8027 59.8188 75.4684 55.0992L72.6394 54.1008ZM65.8603 65.3733C62.9534 68.4698 59.3371 70.92 54.9828 72.713L56.125 75.487C60.8374 73.5466 64.8211 70.8635 68.0475 67.4267L65.8603 65.3733ZM55.0004 72.7059C50.6768 74.4226 45.6376 75.3 39.8539 75.3V78.3C45.9369 78.3 51.3643 77.3774 56.1075 75.4941L55.0004 72.7059ZM39.8539 59.1C41.9045 59.1 43.7605 58.6602 45.3637 57.7183C46.9696 56.7749 48.2343 55.3789 49.1782 53.6044L46.5296 52.1956C45.8068 53.5544 44.9049 54.5085 43.8441 55.1317C42.7806 55.7565 41.47 56.1 39.8539 56.1V59.1ZM49.1782 53.6044C51.0103 50.1601 51.8539 45.444 51.8539 39.6H48.8539C48.8539 45.2227 48.0309 49.3732 46.5296 52.1956L49.1782 53.6044ZM51.8539 39.6C51.8539 33.7019 51.047 28.9857 49.2838 25.6061L46.624 26.9938C48.0608 29.7476 48.8539 33.8981 48.8539 39.6H51.8539ZM49.2898 25.6178C48.3758 23.8279 47.112 22.4235 45.4817 21.4776C43.8581 20.5355 41.961 20.1 39.8539 20.1V23.1C41.5468 23.1 42.8997 23.4478 43.9761 24.0724C45.0458 24.6931 45.932 25.6387 46.618 26.9822L49.2898 25.6178ZM39.8539 20.1C37.8316 20.1 35.9985 20.542 34.412 21.4859C32.8243 22.4304 31.571 23.8257 30.6296 25.5956L33.2782 27.0044C34.0034 25.641 34.9002 24.6862 35.9458 24.0641C36.9927 23.4413 38.2762 23.1 39.8539 23.1V20.1ZM30.624 25.6061C28.8608 28.9857 28.0539 33.7019 28.0539 39.6H31.0539C31.0539 33.8981 31.847 29.7476 33.2838 26.9938L30.624 25.6061ZM28.0539 39.6C28.0539 45.4381 28.8628 50.1449 30.618 53.5822L33.2898 52.2178C31.845 49.3885 31.0539 45.2286 31.0539 39.6H28.0539ZM30.618 53.5822C31.5271 55.3626 32.7678 56.7657 34.362 57.7141C35.9525 58.6604 37.8039 59.1 39.8539 59.1V56.1C38.2372 56.1 36.9386 55.7563 35.8958 55.1359C34.8567 54.5176 33.9807 53.5708 33.2898 52.2178L30.618 53.5822Z" fill="white"/>
</svg>
