<svg width="83" height="95" viewBox="0 0 83 95" fill="none" xmlns="http://www.w3.org/2000/svg">
<path d="M13.4539 74.5C14.0539 73.5667 14.7872 72.7 15.6539 71.9C16.5206 71.0333 17.4206 70.2333 18.3539 69.5C13.6206 66.8333 9.88724 62.9 7.15391 57.7C4.42057 52.5 3.05391 46.4667 3.05391 39.6C3.05391 34.2 3.85391 29.2333 5.45391 24.7C7.05391 20.1 9.38724 16.1667 12.4539 12.9C15.5206 9.56666 19.2872 7 23.7539 5.2C28.2872 3.33333 33.4872 2.4 39.3539 2.4C45.2872 2.4 50.5206 3.33333 55.0539 5.2C59.5872 7 63.3872 9.56666 66.4539 12.9C69.5872 16.1667 71.9539 20.1 73.5539 24.7C75.1539 29.2333 75.9539 34.2 75.9539 39.6C75.9539 46.9333 74.3872 53.3 71.2539 58.7C68.1206 64.0333 63.8539 68 58.4539 70.6C59.1872 71.2 59.8872 71.6333 60.5539 71.9C61.2872 72.1 62.1872 72.2 63.2539 72.2C64.3872 72.2 65.4872 71.9333 66.5539 71.4C67.6872 70.8667 69.0206 69.8333 70.5539 68.3L81.7539 81C79.1539 84.0667 76.2872 86.6 73.1539 88.6C70.0206 90.6667 66.2539 91.7 61.8539 91.7C58.9872 91.7 56.3539 91.0667 53.9539 89.8C51.5539 88.6 49.2539 87.2333 47.0539 85.7C44.8539 84.2333 42.7539 82.8667 40.7539 81.6C38.7539 80.4 36.7206 79.8 34.6539 79.8C32.3206 79.8 30.3539 80.1667 28.7539 80.9C27.2206 81.7 25.5872 83.1667 23.8539 85.3L13.4539 74.5ZM39.3539 57.6C43.0206 57.6 45.6872 56.0333 47.3539 52.9C49.0206 49.7667 49.8539 45.3333 49.8539 39.6C49.8539 33.8 49.0539 29.3667 47.4539 26.3C45.8539 23.1667 43.1539 21.6 39.3539 21.6C35.7539 21.6 33.1206 23.1667 31.4539 26.3C29.8539 29.3667 29.0539 33.8 29.0539 39.6C29.0539 45.3333 29.8539 49.7667 31.4539 52.9C33.0539 56.0333 35.6872 57.6 39.3539 57.6Z" fill="black"/>
<path d="M13.4539 74.5L12.1921 73.6889L11.5509 74.6863L12.3734 75.5405L13.4539 74.5ZM15.6539 71.9L16.6713 73.0022L16.6934 72.9819L16.7146 72.9607L15.6539 71.9ZM18.3539 69.5L19.2806 70.6795L21.0441 69.2939L19.0902 68.1931L18.3539 69.5ZM7.15391 57.7L5.82616 58.3979L7.15391 57.7ZM5.45391 24.7L6.86841 25.1992L6.87065 25.1928L5.45391 24.7ZM12.4539 12.9L13.5475 13.9266L13.5527 13.9211L13.5578 13.9156L12.4539 12.9ZM23.7539 5.2L24.3146 6.59132L24.325 6.58702L23.7539 5.2ZM55.0539 5.2L54.4828 6.58702L54.4916 6.59062L54.5004 6.59412L55.0539 5.2ZM66.4539 12.9L65.35 13.9156L65.3606 13.9271L65.3714 13.9383L66.4539 12.9ZM73.5539 24.7L72.1371 25.1928L72.1394 25.1992L73.5539 24.7ZM71.2539 58.7L72.5472 59.4598L72.5513 59.4528L71.2539 58.7ZM58.4539 70.6L57.8032 69.2485L55.6817 70.2699L57.5041 71.7609L58.4539 70.6ZM60.5539 71.9L59.9968 73.2927L60.0765 73.3246L60.1592 73.3471L60.5539 71.9ZM66.5539 71.4L65.9152 70.0428L65.8991 70.0504L65.8831 70.0584L66.5539 71.4ZM70.5539 68.3L71.6789 67.3079L70.6226 66.11L69.4932 67.2393L70.5539 68.3ZM81.7539 81L82.898 81.97L83.7368 80.9807L82.8789 80.0079L81.7539 81ZM73.1539 88.6L72.3469 87.3356L72.3374 87.3417L72.328 87.3478L73.1539 88.6ZM53.9539 89.8L54.654 88.4734L54.6395 88.4657L54.6247 88.4584L53.9539 89.8ZM47.0539 85.7L47.9116 84.4694L47.8989 84.4605L47.886 84.4519L47.0539 85.7ZM40.7539 81.6L41.5565 80.3328L41.5412 80.3231L41.5257 80.3138L40.7539 81.6ZM28.7539 80.9L28.1289 79.5364L28.0941 79.5524L28.0601 79.5701L28.7539 80.9ZM23.8539 85.3L22.7734 86.3405L23.9492 87.5614L25.0181 86.2459L23.8539 85.3ZM47.3539 52.9L46.0296 52.1956L47.3539 52.9ZM47.4539 26.3L46.118 26.9822L46.124 26.9938L47.4539 26.3ZM31.4539 26.3L30.1296 25.5956L30.124 25.6061L31.4539 26.3ZM31.4539 52.9L30.118 53.5822L31.4539 52.9ZM14.7157 75.3111C15.2427 74.4913 15.8923 73.7214 16.6713 73.0022L14.6365 70.7978C13.6822 71.6786 12.8651 72.642 12.1921 73.6889L14.7157 75.3111ZM16.7146 72.9607C17.5404 72.1349 18.3958 71.3747 19.2806 70.6795L17.4272 68.3205C16.4454 69.0919 15.5008 69.9318 14.5932 70.8393L16.7146 72.9607ZM19.0902 68.1931C14.6291 65.6798 11.092 61.9681 8.48165 57.0021L5.82616 58.3979C8.6825 63.8319 12.6121 67.9868 17.6176 70.8069L19.0902 68.1931ZM8.48165 57.0021C5.87916 52.051 4.55391 46.2646 4.55391 39.6H1.55391C1.55391 46.6687 2.96199 52.949 5.82616 58.3979L8.48165 57.0021ZM4.55391 39.6C4.55391 34.3493 5.33151 29.5537 6.86839 25.1992L4.03942 24.2008C2.3763 28.9129 1.55391 34.0507 1.55391 39.6H4.55391ZM6.87065 25.1928C8.40764 20.7739 10.6369 17.027 13.5475 13.9266L11.3603 11.8733C8.13754 15.3063 5.70018 19.426 4.03716 24.2072L6.87065 25.1928ZM13.5578 13.9156C16.4641 10.7566 20.0413 8.31334 24.3146 6.59128L23.1932 3.80872C18.5332 5.68666 14.577 8.37677 11.35 11.8844L13.5578 13.9156ZM24.325 6.58702C28.6453 4.80808 33.6455 3.9 39.3539 3.9V0.899999C33.329 0.899999 27.9292 1.85859 23.1828 3.81298L24.325 6.58702ZM39.3539 3.9C45.1315 3.9 50.1644 4.80886 54.4828 6.58702L55.625 3.81298C50.8768 1.85781 45.443 0.899999 39.3539 0.899999V3.9ZM54.5004 6.59412C58.8405 8.31743 62.4475 10.7607 65.35 13.9156L67.5578 11.8844C64.327 8.37261 60.3339 5.68257 55.6075 3.80587L54.5004 6.59412ZM65.3714 13.9383C68.3443 17.0377 70.6026 20.7808 72.1372 25.1928L74.9707 24.2072C73.3053 19.4192 70.8302 15.2956 67.5364 11.8617L65.3714 13.9383ZM72.1394 25.1992C73.6763 29.5537 74.4539 34.3493 74.4539 39.6H77.4539C77.4539 34.0507 76.6315 28.9129 74.9684 24.2008L72.1394 25.1992ZM74.4539 39.6C74.4539 46.7155 72.9356 52.813 69.9565 57.9472L72.5513 59.4528C75.8389 53.787 77.4539 47.1512 77.4539 39.6H74.4539ZM69.9606 57.9402C66.9729 63.0256 62.9261 66.7819 57.8032 69.2485L59.1046 71.9515C64.7818 69.2181 69.2683 65.041 72.5472 59.4598L69.9606 57.9402ZM57.5041 71.7609C58.3203 72.4287 59.1511 72.9544 59.9968 73.2927L61.111 70.5073C60.6234 70.3122 60.0542 69.9713 59.4038 69.4391L57.5041 71.7609ZM60.1592 73.3471C61.0613 73.5932 62.1031 73.7 63.2539 73.7V70.7C62.2714 70.7 61.5132 70.6068 60.9486 70.4529L60.1592 73.3471ZM63.2539 73.7C64.6323 73.7 65.961 73.3735 67.2247 72.7416L65.8831 70.0584C65.0135 70.4931 64.1422 70.7 63.2539 70.7V73.7ZM67.1926 72.7572C68.5569 72.1152 70.0347 70.9405 71.6146 69.3607L69.4932 67.2393C68.0064 68.7262 66.8176 69.6181 65.9152 70.0428L67.1926 72.7572ZM69.4289 69.2921L80.6289 81.9921L82.8789 80.0079L71.6789 67.3079L69.4289 69.2921ZM80.6098 80.03C78.0989 82.9915 75.3439 85.4226 72.3469 87.3356L73.961 89.8644C77.2306 87.7774 80.2089 85.1418 82.898 81.97L80.6098 80.03ZM72.328 87.3478C69.4796 89.2266 66.0119 90.2 61.8539 90.2V93.2C66.4959 93.2 70.5615 92.1068 73.9798 89.8522L72.328 87.3478ZM61.8539 90.2C59.2171 90.2 56.826 89.6198 54.654 88.4734L53.2538 91.1266C55.8818 92.5136 58.7574 93.2 61.8539 93.2V90.2ZM54.6247 88.4584C52.2896 87.2908 50.052 85.9612 47.9116 84.4694L46.1962 86.9306C48.4558 88.5054 50.8182 89.9092 53.2831 91.1416L54.6247 88.4584ZM47.886 84.4519C45.6773 82.9795 43.5674 81.6064 41.5565 80.3328L39.9513 82.8672C41.9404 84.127 44.0305 85.4872 46.2219 86.9481L47.886 84.4519ZM41.5257 80.3138C39.3232 78.9923 37.0261 78.3 34.6539 78.3V81.3C36.415 81.3 38.1846 81.8077 39.9822 82.8862L41.5257 80.3138ZM34.6539 78.3C32.1718 78.3 29.9779 78.689 28.1289 79.5364L29.3789 82.2636C30.7299 81.6444 32.4694 81.3 34.6539 81.3V78.3ZM28.0601 79.5701C26.27 80.5041 24.4846 82.145 22.6897 84.3541L25.0181 86.2459C26.6898 84.1883 28.1711 82.8959 29.4478 82.2299L28.0601 79.5701ZM24.9344 84.2595L14.5344 73.4595L12.3734 75.5405L22.7734 86.3405L24.9344 84.2595ZM39.3539 59.1C41.4045 59.1 43.2605 58.6602 44.8637 57.7183C46.4696 56.7749 47.7343 55.3789 48.6782 53.6044L46.0296 52.1956C45.3068 53.5544 44.4049 54.5085 43.3441 55.1317C42.2806 55.7565 40.97 56.1 39.3539 56.1V59.1ZM48.6782 53.6044C50.5103 50.1601 51.3539 45.444 51.3539 39.6H48.3539C48.3539 45.2227 47.5309 49.3732 46.0296 52.1956L48.6782 53.6044ZM51.3539 39.6C51.3539 33.7019 50.547 28.9857 48.7838 25.6061L46.124 26.9938C47.5608 29.7476 48.3539 33.8981 48.3539 39.6H51.3539ZM48.7898 25.6178C47.8758 23.8279 46.612 22.4235 44.9817 21.4776C43.3581 20.5355 41.461 20.1 39.3539 20.1V23.1C41.0468 23.1 42.3997 23.4478 43.4761 24.0724C44.5458 24.6931 45.432 25.6387 46.118 26.9822L48.7898 25.6178ZM39.3539 20.1C37.3316 20.1 35.4985 20.542 33.912 21.4859C32.3243 22.4304 31.071 23.8257 30.1296 25.5956L32.7782 27.0044C33.5034 25.641 34.4002 24.6862 35.4458 24.0641C36.4927 23.4413 37.7762 23.1 39.3539 23.1V20.1ZM30.124 25.6061C28.3608 28.9857 27.5539 33.7019 27.5539 39.6H30.5539C30.5539 33.8981 31.347 29.7476 32.7838 26.9938L30.124 25.6061ZM27.5539 39.6C27.5539 45.4381 28.3628 50.1449 30.118 53.5822L32.7898 52.2178C31.345 49.3885 30.5539 45.2286 30.5539 39.6H27.5539ZM30.118 53.5822C31.0271 55.3626 32.2678 56.7657 33.862 57.7141C35.4525 58.6604 37.3039 59.1 39.3539 59.1V56.1C37.7372 56.1 36.4386 55.7563 35.3958 55.1359C34.3567 54.5176 33.4807 53.5708 32.7898 52.2178L30.118 53.5822Z" fill="white"/>
</svg>
