<svg width="63" height="105" viewBox="0 0 63 105" fill="none" xmlns="http://www.w3.org/2000/svg">
<path d="M12.0074 48.4C12.0074 47.6667 11.8408 47.1 11.5074 46.7C11.1741 46.2333 10.6408 46 9.90742 46C9.10742 46 8.34076 46.1667 7.60742 46.5C6.94076 46.7667 6.27409 47.0667 5.60742 47.4L2.50742 35.4C4.64076 34 7.17409 32.6667 10.1074 31.4C13.0408 30.0667 16.3408 29.4 20.0074 29.4C23.7408 29.4 26.6074 30.1 28.6074 31.5C30.6741 32.8333 32.1074 34.8333 32.9074 37.5C34.7074 34.7667 36.7074 32.7333 38.9074 31.4C41.1074 30.0667 43.6408 29.4 46.5074 29.4C48.8408 29.4 50.7408 29.6 52.2074 30C53.6741 30.4 55.2408 31.1667 56.9074 32.3L51.6074 50.2C50.6074 49.4667 49.4741 48.9 48.2074 48.5C46.9408 48.0333 45.6408 47.8 44.3074 47.8C40.8408 47.8 38.3741 48.8667 36.9074 51C35.5074 53.0667 34.8074 56.5 34.8074 61.3V80H12.0074V48.4Z" fill="black"/>
<path d="M11.5074 46.7L10.2868 47.5719L10.3193 47.6173L10.3551 47.6603L11.5074 46.7ZM7.60742 46.5L8.16451 47.8927L8.19663 47.8799L8.22813 47.8656L7.60742 46.5ZM5.60742 47.4L4.1551 47.7752L4.61908 49.5712L6.27824 48.7416L5.60742 47.4ZM2.50742 35.4L1.68444 34.1459L0.786447 34.7352L1.0551 35.7752L2.50742 35.4ZM10.1074 31.4L10.7021 32.7771L10.7152 32.7714L10.7281 32.7655L10.1074 31.4ZM28.6074 31.5L27.7472 32.7288L27.7704 32.7451L27.7942 32.7604L28.6074 31.5ZM32.9074 37.5L31.4707 37.931L32.3936 41.0075L34.1602 38.325L32.9074 37.5ZM52.2074 30L51.8127 31.4471H51.8128L52.2074 30ZM56.9074 32.3L58.3457 32.7259L58.6567 31.6756L57.7509 31.0596L56.9074 32.3ZM51.6074 50.2L50.7204 51.4096L52.4402 52.6708L53.0457 50.6259L51.6074 50.2ZM48.2074 48.5L47.6889 49.9075L47.722 49.9197L47.7557 49.9304L48.2074 48.5ZM36.9074 51L35.6713 50.1502L35.6655 50.1587L36.9074 51ZM34.8074 80V81.5H36.3074V80H34.8074ZM12.0074 80H10.5074V81.5H12.0074V80ZM13.5074 48.4C13.5074 47.4571 13.2941 46.5009 12.6598 45.7397L10.3551 47.6603C10.3874 47.6991 10.5074 47.8762 10.5074 48.4H13.5074ZM12.728 45.8281C12.036 44.8593 10.9752 44.5 9.90742 44.5V47.5C10.1191 47.5 10.2215 47.5341 10.2562 47.5492C10.2788 47.5591 10.28 47.5623 10.2868 47.5719L12.728 45.8281ZM9.90742 44.5C8.89177 44.5 7.91359 44.7131 6.98672 45.1344L8.22813 47.8656C8.76792 47.6202 9.32307 47.5 9.90742 47.5V44.5ZM7.05034 45.1073C6.34364 45.39 5.63905 45.7071 4.9366 46.0584L6.27824 48.7416C6.90913 48.4262 7.53787 48.1434 8.16451 47.8927L7.05034 45.1073ZM7.05974 47.0248L3.95974 35.0248L1.0551 35.7752L4.1551 47.7752L7.05974 47.0248ZM3.33041 36.6541C5.37593 35.3117 7.82935 34.0176 10.7021 32.7771L9.51277 30.0229C6.51882 31.3157 3.90558 32.6883 1.68444 34.1459L3.33041 36.6541ZM10.7281 32.7655C13.4413 31.5323 16.5254 30.9 20.0074 30.9V27.9C16.1562 27.9 12.6402 28.6011 9.48672 30.0344L10.7281 32.7655ZM20.0074 30.9C23.5854 30.9 26.1006 31.5762 27.7472 32.7288L29.4676 30.2712C27.1142 28.6238 23.8961 27.9 20.0074 27.9V30.9ZM27.7942 32.7604C29.5214 33.8747 30.7588 35.5582 31.4707 37.931L34.3442 37.069C33.456 34.1085 31.8268 31.7919 29.4206 30.2396L27.7942 32.7604ZM34.1602 38.325C35.87 35.7286 37.7198 33.8737 39.6849 32.6828L38.13 30.1172C35.695 31.5929 33.5449 33.8047 31.6547 36.675L34.1602 38.325ZM39.6849 32.6828C41.6243 31.5074 43.8827 30.9 46.5074 30.9V27.9C43.3988 27.9 40.5905 28.626 38.13 30.1172L39.6849 32.6828ZM46.5074 30.9C48.7704 30.9 50.5239 31.0956 51.8127 31.4471L52.6021 28.5529C50.9576 28.1044 48.9111 27.9 46.5074 27.9V30.9ZM51.8128 31.4471C53.0769 31.7919 54.4925 32.4718 56.064 33.5404L57.7509 31.0596C55.989 29.8616 54.2713 29.0081 52.6021 28.5529L51.8128 31.4471ZM55.4691 31.8741L50.1691 49.7741L53.0457 50.6259L58.3457 32.7259L55.4691 31.8741ZM52.4945 48.9904C51.3533 48.1535 50.0708 47.5154 48.6591 47.0696L47.7557 49.9304C48.8773 50.2846 49.8616 50.7798 50.7204 51.4096L52.4945 48.9904ZM48.726 47.0925C47.2954 46.5654 45.8199 46.3 44.3074 46.3V49.3C45.4616 49.3 46.5861 49.5012 47.6889 49.9075L48.726 47.0925ZM44.3074 46.3C40.5311 46.3 37.5082 47.4785 35.6714 50.1502L38.1435 51.8498C39.24 50.2548 41.1504 49.3 44.3074 49.3V46.3ZM35.6655 50.1587C34.002 52.6144 33.3074 56.4336 33.3074 61.3H36.3074C36.3074 56.5664 37.0128 53.5189 38.1493 51.8413L35.6655 50.1587ZM33.3074 61.3V80H36.3074V61.3H33.3074ZM34.8074 78.5H12.0074V81.5H34.8074V78.5ZM13.5074 80V48.4H10.5074V80H13.5074Z" fill="white"/>
</svg>
