<svg width="77" height="95" viewBox="0 0 77 95" fill="none" xmlns="http://www.w3.org/2000/svg">
<path d="M2.81875 58H9.51875V21.2H2.81875V4.2H41.4188C45.9521 4.2 49.9188 4.76666 53.3188 5.9C56.7854 6.96666 59.6521 8.5 61.9188 10.5C64.1854 12.5 65.8854 14.9 67.0188 17.7C68.1521 20.4333 68.7188 23.4667 68.7188 26.8C68.7188 28.9333 68.5188 30.8333 68.1188 32.5C67.7188 34.1 67.0854 35.5667 66.2188 36.9C65.4188 38.1667 64.3854 39.3333 63.1188 40.4C61.9188 41.4 60.4854 42.3667 58.8188 43.3C60.3521 44.5 61.5188 45.9333 62.3188 47.6C63.1854 49.2667 63.9521 50.9 64.6188 52.5C65.3521 54.0333 66.1521 55.3333 67.0188 56.4C67.8854 57.4667 69.1854 58 70.9188 58H74.2188V75H57.0188C54.5521 75 52.4854 74.4667 50.8188 73.4C49.1521 72.3333 47.7521 70.9667 46.6188 69.3C45.4854 67.5667 44.5188 65.6667 43.7188 63.6C42.9188 61.5333 42.1521 59.5333 41.4188 57.6C40.6854 55.6667 39.8521 53.9 38.9188 52.3C38.0521 50.7 36.9854 49.5 35.7188 48.7H31.6188V58H37.7188V75H2.81875V58ZM38.3188 33.2C40.3854 33.2 41.9521 32.7667 43.0188 31.9C44.0854 31.0333 44.6188 29.6333 44.6188 27.7C44.6188 24.0333 42.5188 22.2 38.3188 22.2H31.7188V33.2H38.3188Z" fill="black"/>
<path d="M2.81875 58V56.5H1.31875V58H2.81875ZM9.51875 58V59.5H11.0188V58H9.51875ZM9.51875 21.2H11.0188V19.7H9.51875V21.2ZM2.81875 21.2H1.31875V22.7H2.81875V21.2ZM2.81875 4.2V2.7H1.31875V4.2H2.81875ZM53.3188 5.9L52.8444 7.32302L52.861 7.32854L52.8776 7.33366L53.3188 5.9ZM61.9188 10.5L62.9112 9.37524V9.37524L61.9188 10.5ZM67.0188 17.7L65.6283 18.2628L65.6331 18.2745L67.0188 17.7ZM68.1188 32.5L69.574 32.8638L69.5757 32.8569L69.5773 32.8501L68.1188 32.5ZM66.2188 36.9L64.9611 36.0825L64.9557 36.0907L64.9505 36.099L66.2188 36.9ZM63.1188 40.4L64.079 41.5523L64.085 41.5474L63.1188 40.4ZM58.8188 43.3L58.0858 41.9912L56.1196 43.0924L57.8943 44.4813L58.8188 43.3ZM62.3188 47.6L60.9665 48.2491L60.9769 48.2707L60.9879 48.292L62.3188 47.6ZM64.6188 52.5L63.2341 53.0769L63.2489 53.1125L63.2656 53.1472L64.6188 52.5ZM74.2188 58H75.7188V56.5H74.2188V58ZM74.2188 75V76.5H75.7188V75H74.2188ZM50.8188 73.4L51.6273 72.1366V72.1366L50.8188 73.4ZM46.6188 69.3L45.3633 70.1209L45.3707 70.1322L45.3784 70.1435L46.6188 69.3ZM43.7188 63.6L45.1176 63.0585H45.1176L43.7188 63.6ZM41.4188 57.6L42.8213 57.068V57.068L41.4188 57.6ZM38.9188 52.3L37.5998 53.0144L37.6111 53.0353L37.6231 53.0558L38.9188 52.3ZM35.7188 48.7L36.5197 47.4318L36.1528 47.2H35.7188V48.7ZM31.6188 48.7V47.2H30.1188V48.7H31.6188ZM31.6188 58H30.1188V59.5H31.6188V58ZM37.7188 58H39.2188V56.5H37.7188V58ZM37.7188 75V76.5H39.2188V75H37.7188ZM2.81875 75H1.31875V76.5H2.81875V75ZM31.7188 22.2V20.7H30.2188V22.2H31.7188ZM31.7188 33.2H30.2188V34.7H31.7188V33.2ZM2.81875 59.5H9.51875V56.5H2.81875V59.5ZM11.0188 58V21.2H8.01875V58H11.0188ZM9.51875 19.7H2.81875V22.7H9.51875V19.7ZM4.31875 21.2V4.2H1.31875V21.2H4.31875ZM2.81875 5.7H41.4188V2.7H2.81875V5.7ZM41.4188 5.7C45.8316 5.7 49.6317 6.25212 52.8444 7.32302L53.7931 4.47697C50.2058 3.28121 46.0726 2.7 41.4188 2.7V5.7ZM52.8776 7.33366C56.1807 8.34999 58.8481 9.791 60.9263 11.6248L62.9112 9.37524C60.4561 7.209 57.3902 5.58334 53.7599 4.46633L52.8776 7.33366ZM60.9263 11.6248C63.0187 13.4709 64.5824 15.6786 65.6283 18.2628L68.4092 17.1372C67.1885 14.1214 65.3522 11.529 62.9112 9.37524L60.9263 11.6248ZM65.6331 18.2745C66.682 20.8041 67.2188 23.639 67.2188 26.8H70.2188C70.2188 23.2944 69.6222 20.0626 68.4044 17.1255L65.6331 18.2745ZM67.2188 26.8C67.2188 28.8428 67.0269 30.6218 66.6602 32.1499L69.5773 32.8501C70.0106 31.0449 70.2188 29.0239 70.2188 26.8H67.2188ZM66.6635 32.1362C66.3023 33.5811 65.7339 34.8936 64.9611 36.0825L67.4764 37.7175C68.4369 36.2398 69.1352 34.6189 69.574 32.8638L66.6635 32.1362ZM64.9505 36.099C64.241 37.2224 63.3137 38.2749 62.1525 39.2526L64.085 41.5474C65.4572 40.3918 66.5965 39.1109 67.487 37.701L64.9505 36.099ZM62.1585 39.2477C61.0429 40.1773 59.6891 41.0934 58.0858 41.9912L59.5517 44.6088C61.2817 43.6399 62.7946 42.6227 64.079 41.5523L62.1585 39.2477ZM57.8943 44.4813C59.2559 45.5469 60.2716 46.8014 60.9665 48.2491L63.671 46.9509C62.7659 45.0652 61.4482 43.4531 59.7432 42.1187L57.8943 44.4813ZM60.9879 48.292C61.8367 49.9242 62.5851 51.5191 63.2341 53.0769L66.0034 51.9231C65.3191 50.2809 64.5342 48.6091 63.6496 46.908L60.9879 48.292ZM63.2656 53.1472C64.0384 54.7632 64.8982 56.1689 65.8546 57.3459L68.1829 55.4541C67.4059 54.4978 66.6658 53.3035 65.972 51.8528L63.2656 53.1472ZM65.8546 57.3459C67.0783 58.852 68.8623 59.5 70.9188 59.5V56.5C69.5085 56.5 68.6925 56.0813 68.1829 55.4541L65.8546 57.3459ZM70.9188 59.5H74.2188V56.5H70.9188V59.5ZM72.7188 58V75H75.7188V58H72.7188ZM74.2188 73.5H57.0188V76.5H74.2188V73.5ZM57.0188 73.5C54.7681 73.5 52.9994 73.0147 51.6273 72.1366L50.0102 74.6634C51.9715 75.9186 54.336 76.5 57.0188 76.5V73.5ZM51.6273 72.1366C50.1347 71.1813 48.8806 69.9587 47.8591 68.4565L45.3784 70.1435C46.6236 71.9747 48.1694 73.4853 50.0102 74.6634L51.6273 72.1366ZM47.8742 68.4791C46.8022 66.8395 45.8823 65.0341 45.1176 63.0585L42.3199 64.1415C43.1552 66.2992 44.1687 68.2938 45.3633 70.1209L47.8742 68.4791ZM45.1176 63.0585C44.3187 60.9948 43.5533 58.998 42.8213 57.068L40.0163 58.132C40.7509 60.0687 41.5188 62.0719 42.3199 64.1415L45.1176 63.0585ZM42.8213 57.068C42.0619 55.066 41.194 53.2234 40.2144 51.5442L37.6231 53.0558C38.5102 54.5766 39.309 56.2673 40.0163 58.132L42.8213 57.068ZM40.2377 51.5856C39.2748 49.8079 38.0457 48.3955 36.5197 47.4318L34.9178 49.9682C35.9251 50.6045 36.8294 51.5921 37.5998 53.0144L40.2377 51.5856ZM35.7188 47.2H31.6188V50.2H35.7188V47.2ZM30.1188 48.7V58H33.1188V48.7H30.1188ZM31.6188 59.5H37.7188V56.5H31.6188V59.5ZM36.2188 58V75H39.2188V58H36.2188ZM37.7188 73.5H2.81875V76.5H37.7188V73.5ZM4.31875 75V58H1.31875V75H4.31875ZM38.3188 34.7C40.5635 34.7 42.525 34.2339 43.9646 33.0642L42.0729 30.7358C41.3791 31.2995 40.2073 31.7 38.3188 31.7V34.7ZM43.9646 33.0642C45.5081 31.8101 46.1188 29.8925 46.1188 27.7H43.1188C43.1188 29.3742 42.6628 30.2565 42.0729 30.7358L43.9646 33.0642ZM46.1188 27.7C46.1188 25.5785 45.5018 23.7297 44.0302 22.445C42.5976 21.1943 40.6037 20.7 38.3188 20.7V23.7C40.2338 23.7 41.3899 24.1224 42.0573 24.705C42.6857 25.2536 43.1188 26.1549 43.1188 27.7H46.1188ZM38.3188 20.7H31.7188V23.7H38.3188V20.7ZM30.2188 22.2V33.2H33.2188V22.2H30.2188ZM31.7188 34.7H38.3188V31.7H31.7188V34.7Z" fill="white"/>
</svg>
