<svg width="62" height="95" viewBox="0 0 62 95" fill="none" xmlns="http://www.w3.org/2000/svg">
<path d="M3.40117 52.6C7.33451 54.1333 11.0345 55.4333 14.5012 56.5C18.0345 57.5667 21.8012 58.1 25.8012 58.1C28.7345 58.1 30.7012 57.7333 31.7012 57C32.7678 56.2 33.3012 55.2333 33.3012 54.1C33.3012 52.9 32.8012 51.9333 31.8012 51.2C30.8678 50.4 28.9345 49.5333 26.0012 48.6C22.4678 47.4667 19.2345 46.3 16.3012 45.1C13.4345 43.9 10.9678 42.4333 8.90117 40.7C6.90117 38.9 5.33451 36.7667 4.20117 34.3C3.13451 31.7667 2.60117 28.6333 2.60117 24.9C2.60117 21.3 3.30117 18.1 4.70117 15.3C6.10117 12.5 8.06784 10.1667 10.6012 8.29999C13.2012 6.36666 16.3345 4.9 20.0012 3.9C23.6678 2.9 27.7678 2.4 32.3012 2.4C38.3678 2.4 43.6345 2.93333 48.1012 4C52.6345 5 56.3345 6 59.2012 7L53.8012 24.2C52.8678 23.8 51.7345 23.3667 50.4012 22.9C49.0678 22.4333 47.6345 22 46.1012 21.6C44.5678 21.2 42.9345 20.8667 41.2012 20.6C39.5345 20.3333 37.8678 20.2 36.2012 20.2C33.8678 20.2 32.0678 20.5667 30.8012 21.3C29.5345 22.0333 28.9012 23 28.9012 24.2C28.9012 24.8667 29.0012 25.4667 29.2012 26C29.4678 26.4667 30.0345 26.9667 30.9012 27.5C31.7678 27.9667 33.0678 28.5333 34.8012 29.2C36.6012 29.8 39.0678 30.6 42.2012 31.6C48.0012 33.4667 52.4012 36.0333 55.4012 39.3C58.4678 42.5 60.0012 46.9667 60.0012 52.7C60.0012 60.7667 57.4678 66.8 52.4012 70.8C47.3345 74.8 39.9345 76.8 30.2012 76.8C25.2678 76.8 20.5012 76.4 15.9012 75.6C11.3678 74.8 7.20117 73.7333 3.40117 72.4V52.6Z" fill="black"/>
<path d="M3.40117 52.6L3.94598 51.2024L1.90117 50.4053V52.6H3.40117ZM14.5012 56.5L14.06 57.9337L14.0677 57.936L14.5012 56.5ZM31.7012 57L32.5882 58.2096L32.5947 58.2048L32.6012 58.2L31.7012 57ZM31.8012 51.2L30.825 52.3389L30.8682 52.3759L30.9141 52.4096L31.8012 51.2ZM26.0012 48.6L25.543 50.0283L25.5464 50.0294L26.0012 48.6ZM16.3012 45.1L15.7219 46.4837L15.7332 46.4883L16.3012 45.1ZM8.90117 40.7L7.89773 41.8149L7.91719 41.8325L7.93725 41.8493L8.90117 40.7ZM4.20117 34.3L2.81872 34.8821L2.82808 34.9043L2.83816 34.9263L4.20117 34.3ZM4.70117 15.3L6.04281 15.9708H6.04281L4.70117 15.3ZM10.6012 8.29999L11.491 9.50759L11.4962 9.50369L10.6012 8.29999ZM48.1012 4L47.7528 5.45897L47.7654 5.46199L47.7781 5.46478L48.1012 4ZM59.2012 7L60.6323 7.44931L61.0677 6.06247L59.6952 5.5837L59.2012 7ZM53.8012 24.2L53.2103 25.5787L54.7353 26.2323L55.2323 24.6493L53.8012 24.2ZM50.4012 22.9L50.8967 21.4842L50.8967 21.4842L50.4012 22.9ZM46.1012 21.6L46.4798 20.1486L46.4798 20.1486L46.1012 21.6ZM41.2012 20.6L40.9642 22.0812L40.9731 22.0826L41.2012 20.6ZM30.8012 21.3L31.5527 22.5981L31.5527 22.5981L30.8012 21.3ZM29.2012 26L27.7967 26.5267L27.839 26.6395L27.8988 26.7442L29.2012 26ZM30.9012 27.5L30.115 28.7775L30.1519 28.8002L30.19 28.8207L30.9012 27.5ZM34.8012 29.2L34.2627 30.6L34.2945 30.6122L34.3268 30.623L34.8012 29.2ZM42.2012 31.6L42.6607 30.1721L42.6572 30.171L42.2012 31.6ZM55.4012 39.3L54.2964 40.3146L54.3072 40.3263L54.3182 40.3379L55.4012 39.3ZM52.4012 70.8L51.4717 69.6227L52.4012 70.8ZM15.9012 75.6L15.6405 77.0772L15.6442 77.0778L15.9012 75.6ZM3.40117 72.4H1.90117V73.4633L2.90454 73.8154L3.40117 72.4ZM2.85636 53.9976C6.81843 55.5421 10.5533 56.8547 14.06 57.9337L14.9423 55.0663C11.5157 54.012 7.85058 52.7246 3.94598 51.2024L2.85636 53.9976ZM14.0677 57.936C17.7528 59.0485 21.6666 59.6 25.8012 59.6V56.6C21.9358 56.6 18.3162 56.0848 14.9347 55.064L14.0677 57.936ZM25.8012 59.6C27.3217 59.6 28.6459 59.5056 29.7511 59.2996C30.8354 59.0974 31.8286 58.7666 32.5882 58.2096L30.8141 55.7904C30.5737 55.9667 30.0836 56.1859 29.2013 56.3504C28.3398 56.511 27.214 56.6 25.8012 56.6V59.6ZM32.6012 58.2C33.9701 57.1733 34.8012 55.7924 34.8012 54.1H31.8012C31.8012 54.6743 31.5655 55.2267 30.8012 55.8L32.6012 58.2ZM34.8012 54.1C34.8012 52.4037 34.0584 50.9952 32.6882 49.9904L30.9141 52.4096C31.544 52.8715 31.8012 53.3963 31.8012 54.1H34.8012ZM32.7774 50.0611C31.5857 49.0397 29.3758 48.0997 26.456 47.1706L25.5464 50.0294C28.4932 50.967 30.1499 51.7603 30.825 52.3389L32.7774 50.0611ZM26.4593 47.1717C22.957 46.0483 19.7609 44.8947 16.8691 43.7117L15.7332 46.4883C18.7081 47.7053 21.9787 48.885 25.543 50.0283L26.4593 47.1717ZM16.8804 43.7163C14.1323 42.566 11.8 41.1735 9.86509 39.5507L7.93725 41.8493C10.1357 43.6931 12.7367 45.234 15.722 46.4837L16.8804 43.7163ZM9.90462 39.5851C8.05789 37.923 6.61298 35.9564 5.56419 33.6737L2.83816 34.9263C4.05603 37.5769 5.74445 39.877 7.89773 41.8149L9.90462 39.5851ZM5.58363 33.7179C4.61697 31.4221 4.10117 28.5007 4.10117 24.9H1.10117C1.10117 28.7659 1.65204 32.1112 2.81872 34.8821L5.58363 33.7179ZM4.10117 24.9C4.10117 21.4979 4.76156 18.5333 6.04281 15.9708L3.35953 14.6292C1.84079 17.6667 1.10117 21.1021 1.10117 24.9H4.10117ZM6.04281 15.9708C7.33618 13.3841 9.14753 11.2343 11.491 9.50758L9.71137 7.09241C6.98814 9.099 4.86617 11.6159 3.35953 14.6292L6.04281 15.9708ZM11.4962 9.50369C13.9225 7.69953 16.879 6.30628 20.3958 5.34714L19.6065 2.45285C15.79 3.49371 12.4798 5.0338 9.70612 7.0963L11.4962 9.50369ZM20.3958 5.34714C23.912 4.3882 27.8764 3.9 32.3012 3.9V0.899999C27.6593 0.899999 23.4237 1.4118 19.6065 2.45285L20.3958 5.34714ZM32.3012 3.9C38.2856 3.9 43.4299 4.42665 47.7528 5.45897L48.4496 2.54102C43.8391 1.44001 38.4501 0.899999 32.3012 0.899999V3.9ZM47.7781 5.46478C52.2803 6.45793 55.9174 7.44316 58.7071 8.4163L59.6952 5.5837C56.7516 4.55684 52.9887 3.54206 48.4243 2.53521L47.7781 5.46478ZM57.7701 6.55069L52.37 23.7507L55.2323 24.6493L60.6323 7.44931L57.7701 6.55069ZM54.3921 22.8213C53.4179 22.4038 52.2508 21.9582 50.8967 21.4842L49.9056 24.3158C51.2182 24.7752 52.3177 25.1962 53.2103 25.5787L54.3921 22.8213ZM50.8967 21.4842C49.5206 21.0026 48.0479 20.5576 46.4798 20.1486L45.7225 23.0514C47.2211 23.4424 48.6151 23.8641 49.9057 24.3158L50.8967 21.4842ZM46.4798 20.1486C44.8919 19.7343 43.208 19.3911 41.4293 19.1174L40.9731 22.0826C42.661 22.3422 44.2437 22.6656 45.7225 23.0514L46.4798 20.1486ZM41.4382 19.1188C39.6941 18.8398 37.9482 18.7 36.2012 18.7V21.7C37.7875 21.7 39.3749 21.8269 40.9642 22.0812L41.4382 19.1188ZM36.2012 18.7C33.7456 18.7 31.6421 19.0799 30.0496 20.0019L31.5527 22.5981C32.4935 22.0535 33.99 21.7 36.2012 21.7V18.7ZM30.0496 20.0019C28.4392 20.9342 27.4012 22.3397 27.4012 24.2H30.4012C30.4012 23.6603 30.6298 23.1324 31.5527 22.5981L30.0496 20.0019ZM27.4012 24.2C27.4012 25.0165 27.5238 25.7989 27.7967 26.5267L30.6057 25.4733C30.4786 25.1344 30.4012 24.7169 30.4012 24.2H27.4012ZM27.8988 26.7442C28.3582 27.5482 29.1938 28.2106 30.115 28.7775L31.6873 26.2225C30.8752 25.7228 30.5774 25.3851 30.5035 25.2558L27.8988 26.7442ZM30.19 28.8207C31.1416 29.3331 32.5122 29.9268 34.2627 30.6L35.3396 27.8C33.6234 27.1399 32.3941 26.6002 31.6123 26.1793L30.19 28.8207ZM34.3268 30.623C36.1357 31.226 38.6094 32.0282 41.7451 33.029L42.6572 30.171C39.5263 29.1718 37.0666 28.374 35.2755 27.777L34.3268 30.623ZM41.7416 33.0279C47.3827 34.8434 51.5256 37.2976 54.2964 40.3146L56.506 38.2854C53.2767 34.7691 48.6197 32.09 42.6607 30.1721L41.7416 33.0279ZM54.3182 40.3379C57.0455 43.1838 58.5012 47.2357 58.5012 52.7H61.5012C61.5012 46.6977 59.8901 41.8162 56.4842 38.2621L54.3182 40.3379ZM58.5012 52.7C58.5012 60.4335 56.0896 65.977 51.4717 69.6227L53.3306 71.9773C58.8461 67.623 61.5012 61.0998 61.5012 52.7H58.5012ZM51.4717 69.6227C46.7745 73.331 39.7607 75.3 30.2012 75.3V78.3C40.1083 78.3 47.8945 76.269 53.3306 71.9773L51.4717 69.6227ZM30.2012 75.3C25.3492 75.3 20.6687 74.9066 16.1582 74.1222L15.6442 77.0778C20.3337 77.8934 25.1865 78.3 30.2012 78.3V75.3ZM16.1618 74.1228C11.6976 73.335 7.61099 72.2875 3.8978 70.9846L2.90454 73.8154C6.79135 75.1792 11.0381 76.265 15.6405 77.0772L16.1618 74.1228ZM4.90117 72.4V52.6H1.90117V72.4H4.90117Z" fill="white"/>
</svg>
