<svg width="72" height="95" viewBox="0 0 72 95" fill="none" xmlns="http://www.w3.org/2000/svg">
<path d="M16.1973 58H23.8973V22.7H3.29727V4.2H68.6973V22.7H48.1973V58H55.8973V75H16.1973V58Z" fill="black"/>
<path d="M16.1973 58V56.5H14.6973V58H16.1973ZM23.8973 58V59.5H25.3973V58H23.8973ZM23.8973 22.7H25.3973V21.2H23.8973V22.7ZM3.29727 22.7H1.79727V24.2H3.29727V22.7ZM3.29727 4.2V2.7H1.79727V4.2H3.29727ZM68.6973 4.2H70.1973V2.7H68.6973V4.2ZM68.6973 22.7V24.2H70.1973V22.7H68.6973ZM48.1973 22.7V21.2H46.6973V22.7H48.1973ZM48.1973 58H46.6973V59.5H48.1973V58ZM55.8973 58H57.3973V56.5H55.8973V58ZM55.8973 75V76.5H57.3973V75H55.8973ZM16.1973 75H14.6973V76.5H16.1973V75ZM16.1973 59.5H23.8973V56.5H16.1973V59.5ZM25.3973 58V22.7H22.3973V58H25.3973ZM23.8973 21.2H3.29727V24.2H23.8973V21.2ZM4.79727 22.7V4.2H1.79727V22.7H4.79727ZM3.29727 5.7H68.6973V2.7H3.29727V5.7ZM67.1973 4.2V22.7H70.1973V4.2H67.1973ZM68.6973 21.2H48.1973V24.2H68.6973V21.2ZM46.6973 22.7V58H49.6973V22.7H46.6973ZM48.1973 59.5H55.8973V56.5H48.1973V59.5ZM54.3973 58V75H57.3973V58H54.3973ZM55.8973 73.5H16.1973V76.5H55.8973V73.5ZM17.6973 75V58H14.6973V75H17.6973Z" fill="white"/>
</svg>
