<svg width="51" height="105" viewBox="0 0 51 105" fill="none" xmlns="http://www.w3.org/2000/svg">
<path d="M10.2555 45.9H2.35547V30.6H10.2555V16.7H33.0555V30.6H44.8555V45.9H33.0555V58.8C33.0555 62 34.5221 63.6 37.4555 63.6C40.2555 63.6 42.8221 63.0667 45.1555 62V77.9C43.7555 78.5667 42.3888 79.1333 41.0555 79.6C39.7221 80 38.3221 80.3333 36.8555 80.6C35.4555 80.9333 33.9221 81.1667 32.2555 81.3C30.5888 81.4333 28.7221 81.5 26.6555 81.5C23.8555 81.5 21.4221 81.1 19.3555 80.3C17.3555 79.5 15.6555 78.4 14.2555 77C12.9221 75.6 11.9221 73.9333 11.2555 72C10.5888 70.0667 10.2555 67.9667 10.2555 65.7V45.9Z" fill="black"/>
<path d="M10.2555 45.9H11.7555V44.4H10.2555V45.9ZM2.35547 45.9H0.855469V47.4H2.35547V45.9ZM2.35547 30.6V29.1H0.855469V30.6H2.35547ZM10.2555 30.6V32.1H11.7555V30.6H10.2555ZM10.2555 16.7V15.2H8.75547V16.7H10.2555ZM33.0555 16.7H34.5555V15.2H33.0555V16.7ZM33.0555 30.6H31.5555V32.1H33.0555V30.6ZM44.8555 30.6H46.3555V29.1H44.8555V30.6ZM44.8555 45.9V47.4H46.3555V45.9H44.8555ZM33.0555 45.9V44.4H31.5555V45.9H33.0555ZM45.1555 62H46.6555V59.665L44.5318 60.6358L45.1555 62ZM45.1555 77.9L45.8004 79.2543L46.6555 78.8471V77.9H45.1555ZM41.0555 79.6L41.4865 81.0367L41.519 81.027L41.551 81.0158L41.0555 79.6ZM36.8555 80.6L36.5871 79.1242L36.5474 79.1314L36.508 79.1408L36.8555 80.6ZM32.2555 81.3L32.1359 79.8048H32.1358L32.2555 81.3ZM19.3555 80.3L18.7984 81.6927L18.8062 81.6958L18.814 81.6989L19.3555 80.3ZM14.2555 77L13.1693 78.0345L13.1819 78.0477L13.1948 78.0607L14.2555 77ZM11.2555 72L12.6735 71.511L11.2555 72ZM10.2555 44.4H2.35547V47.4H10.2555V44.4ZM3.85547 45.9V30.6H0.855469V45.9H3.85547ZM2.35547 32.1H10.2555V29.1H2.35547V32.1ZM11.7555 30.6V16.7H8.75547V30.6H11.7555ZM10.2555 18.2H33.0555V15.2H10.2555V18.2ZM31.5555 16.7V30.6H34.5555V16.7H31.5555ZM33.0555 32.1H44.8555V29.1H33.0555V32.1ZM43.3555 30.6V45.9H46.3555V30.6H43.3555ZM44.8555 44.4H33.0555V47.4H44.8555V44.4ZM31.5555 45.9V58.8H34.5555V45.9H31.5555ZM31.5555 58.8C31.5555 60.6004 31.9653 62.2306 33.0497 63.4136C34.1568 64.6213 35.7224 65.1 37.4555 65.1V62.1C36.2552 62.1 35.6208 61.7787 35.2612 61.3864C34.879 60.9694 34.5555 60.1996 34.5555 58.8H31.5555ZM37.4555 65.1C40.4508 65.1 43.2327 64.5283 45.7791 63.3642L44.5318 60.6358C42.4115 61.6051 40.0602 62.1 37.4555 62.1V65.1ZM43.6555 62V77.9H46.6555V62H43.6555ZM44.5106 76.5457C43.1546 77.1914 41.8378 77.737 40.5599 78.1842L41.551 81.0158C42.9398 80.5297 44.3564 79.9419 45.8004 79.2543L44.5106 76.5457ZM40.6245 78.1633C39.3482 78.5461 38.0027 78.8668 36.5871 79.1242L37.1238 82.0758C38.6415 81.7999 40.0961 81.4539 41.4865 81.0367L40.6245 78.1633ZM36.508 79.1408C35.1938 79.4537 33.7377 79.6766 32.1359 79.8048L32.3751 82.7952C34.1065 82.6567 35.7172 82.413 37.2029 82.0592L36.508 79.1408ZM32.1358 79.8048C30.5169 79.9343 28.6911 80 26.6555 80V83C28.7532 83 30.6607 82.9324 32.3751 82.7952L32.1358 79.8048ZM26.6555 80C23.9939 80 21.7521 79.6193 19.897 78.9011L18.814 81.6989C21.0922 82.5807 23.7171 83 26.6555 83V80ZM19.9126 78.9073C18.0844 78.176 16.5603 77.1835 15.3161 75.9393L13.1948 78.0607C14.7507 79.6165 16.6265 80.824 18.7984 81.6927L19.9126 78.9073ZM15.3417 75.9655C14.1653 74.7304 13.2741 73.2528 12.6735 71.511L9.83741 72.489C10.5701 74.6139 11.6789 76.4696 13.1693 78.0345L15.3417 75.9655ZM12.6735 71.511C12.0667 69.7511 11.7555 67.8182 11.7555 65.7H8.75547C8.75547 68.1152 9.11095 70.3822 9.83741 72.489L12.6735 71.511ZM11.7555 65.7V45.9H8.75547V65.7H11.7555Z" fill="white"/>
</svg>
