<svg width="70" height="105" viewBox="0 0 70 105" fill="none" xmlns="http://www.w3.org/2000/svg">
<path d="M11.3156 49C10.9823 48.0667 10.5823 47.4667 10.1156 47.2C9.64896 46.9333 9.04896 46.8 8.31563 46.8C7.64896 46.8 6.98229 46.9333 6.31563 47.2C5.64896 47.4667 5.01563 47.8 4.41563 48.2L0.015625 35.9C0.882292 35.1 1.94896 34.3333 3.21562 33.6C4.48229 32.8 5.88229 32.1 7.41563 31.5C8.94896 30.9 10.5823 30.4 12.3156 30C14.049 29.6 15.849 29.4 17.7156 29.4C20.649 29.4 23.049 29.8 24.9156 30.6C26.849 31.3333 28.3823 32.3333 29.5156 33.6C30.7156 34.8667 31.6156 36.2667 32.2156 37.8C32.8156 39.3333 33.3156 40.9 33.7156 42.5L37.6156 57.8L47.3156 29L69.0156 33.9L48.3156 80H23.9156L11.3156 49Z" fill="black"/>
<path d="M11.3156 49L9.90301 49.5045L9.91387 49.5349L9.92602 49.5648L11.3156 49ZM10.1156 47.2L9.37142 48.5024L9.37142 48.5024L10.1156 47.2ZM6.31563 47.2L5.75854 45.8073L6.31563 47.2ZM4.41562 48.2L3.00327 48.7052L3.65002 50.5132L5.24767 49.4481L4.41562 48.2ZM0.015625 35.9L-1.00179 34.7978L-1.73097 35.4709L-1.39673 36.4052L0.015625 35.9ZM3.21562 33.6L3.96718 34.8981L3.99218 34.8837L4.01661 34.8682L3.21562 33.6ZM7.41562 31.5L6.86903 30.1031L7.41562 31.5ZM12.3156 30L12.6529 31.4616L12.6529 31.4616L12.3156 30ZM24.9156 30.6L24.3247 31.9787L24.3539 31.9912L24.3836 32.0025L24.9156 30.6ZM29.5156 33.6L28.3978 34.6002L28.412 34.6161L28.4267 34.6316L29.5156 33.6ZM32.2156 37.8L30.8188 38.3466H30.8188L32.2156 37.8ZM33.7156 42.5L32.2604 42.8638L32.2621 42.8705L33.7156 42.5ZM37.6156 57.8L36.1621 58.1705L37.4164 63.0911L39.0372 58.2788L37.6156 57.8ZM47.3156 29L47.646 27.5368L46.326 27.2388L45.8941 28.5212L47.3156 29ZM69.0156 33.9L70.384 34.5144L71.1355 32.8409L69.346 32.4368L69.0156 33.9ZM48.3156 80V81.5H49.2864L49.684 80.6144L48.3156 80ZM23.9156 80L22.526 80.5648L22.9061 81.5H23.9156V80ZM12.7282 48.4955C12.3643 47.4765 11.8095 46.4403 10.8598 45.8976L9.37142 48.5024C9.34563 48.4876 9.40462 48.5127 9.51755 48.682C9.62954 48.85 9.76341 49.1136 9.90301 49.5045L12.7282 48.4955ZM10.8598 45.8976C10.0987 45.4627 9.21886 45.3 8.31563 45.3V48.3C8.87906 48.3 9.19921 48.404 9.37142 48.5024L10.8598 45.8976ZM8.31563 45.3C7.44385 45.3 6.58863 45.4752 5.75854 45.8073L6.87271 48.5927C7.37596 48.3914 7.85407 48.3 8.31563 48.3V45.3ZM5.75854 45.8073C4.99504 46.1127 4.2696 46.4946 3.58358 46.9519L5.24767 49.4481C5.76165 49.1054 6.30288 48.8206 6.87271 48.5927L5.75854 45.8073ZM5.82798 47.6948L1.42798 35.3948L-1.39673 36.4052L3.00327 48.7052L5.82798 47.6948ZM1.03304 37.0022C1.80191 36.2925 2.77422 35.5888 3.96718 34.8981L2.46407 32.3019C1.12369 33.0779 -0.0373287 33.9075 -1.00179 34.7978L1.03304 37.0022ZM4.01661 34.8682C5.19529 34.1238 6.50895 33.4655 7.96222 32.8969L6.86903 30.1031C5.25563 30.7345 3.76929 31.4762 2.41464 32.3318L4.01661 34.8682ZM7.96222 32.8969C9.42228 32.3255 10.9852 31.8464 12.6529 31.4616L11.9783 28.5384C10.1794 28.9536 8.47564 29.4745 6.86903 30.1031L7.96222 32.8969ZM12.6529 31.4616C14.2703 31.0883 15.9569 30.9 17.7156 30.9V27.9C15.741 27.9 13.8276 28.1117 11.9783 28.5384L12.6529 31.4616ZM17.7156 30.9C20.5289 30.9 22.7084 31.286 24.3247 31.9787L25.5065 29.2213C23.3895 28.314 20.769 27.9 17.7156 27.9V30.9ZM24.3836 32.0025C26.1404 32.6688 27.4558 33.5474 28.3978 34.6002L30.6335 32.5998C29.3088 31.1193 27.5576 29.9978 25.4476 29.1975L24.3836 32.0025ZM28.4267 34.6316C29.5018 35.7664 30.2933 37.0038 30.8188 38.3466L33.6125 37.2534C32.9379 35.5295 31.9295 33.9669 30.6046 32.5684L28.4267 34.6316ZM30.8188 38.3466C31.3954 39.8202 31.8759 41.3258 32.2604 42.8638L35.1708 42.1362C34.7553 40.4742 34.2359 38.8465 33.6125 37.2534L30.8188 38.3466ZM32.2621 42.8705L36.1621 58.1705L39.0691 57.4295L35.1691 42.1295L32.2621 42.8705ZM39.0372 58.2788L48.7372 29.4788L45.8941 28.5212L36.1941 57.3212L39.0372 58.2788ZM46.9852 30.4632L68.6852 35.3632L69.346 32.4368L47.646 27.5368L46.9852 30.4632ZM67.6472 33.2856L46.9472 79.3856L49.684 80.6144L70.384 34.5144L67.6472 33.2856ZM48.3156 78.5H23.9156V81.5H48.3156V78.5ZM25.3052 79.4352L12.7052 48.4352L9.92602 49.5648L22.526 80.5648L25.3052 79.4352Z" fill="white"/>
</svg>
