<svg width="88" height="95" viewBox="0 0 88 95" fill="none" xmlns="http://www.w3.org/2000/svg">
<path d="M9.70352 21.2H2.70352V4.2H32.4035L44.8035 50.3L57.8035 4.2H85.3035V21.2H78.3035L60.1035 75H28.7035L9.70352 21.2Z" fill="black"/>
<path d="M9.70352 21.2L11.1179 20.7005L10.7646 19.7H9.70352V21.2ZM2.70352 21.2H1.20352V22.7H2.70352V21.2ZM2.70352 4.2V2.7H1.20352V4.2H2.70352ZM32.4035 4.2L33.852 3.81038L33.5534 2.7H32.4035V4.2ZM44.8035 50.3L43.355 50.6896L44.7694 55.9478L46.2472 50.7071L44.8035 50.3ZM57.8035 4.2V2.7H56.668L56.3598 3.79288L57.8035 4.2ZM85.3035 4.2H86.8035V2.7H85.3035V4.2ZM85.3035 21.2V22.7H86.8035V21.2H85.3035ZM78.3035 21.2V19.7H77.2275L76.8826 20.7193L78.3035 21.2ZM60.1035 75V76.5H61.1796L61.5244 75.4807L60.1035 75ZM28.7035 75L27.2891 75.4995L27.6425 76.5H28.7035V75ZM9.70352 19.7H2.70352V22.7H9.70352V19.7ZM4.20352 21.2V4.2H1.20352V21.2H4.20352ZM2.70352 5.7H32.4035V2.7H2.70352V5.7ZM30.955 4.58962L43.355 50.6896L46.252 49.9104L33.852 3.81038L30.955 4.58962ZM46.2472 50.7071L59.2472 4.60712L56.3598 3.79288L43.3598 49.8929L46.2472 50.7071ZM57.8035 5.7H85.3035V2.7H57.8035V5.7ZM83.8035 4.2V21.2H86.8035V4.2H83.8035ZM85.3035 19.7H78.3035V22.7H85.3035V19.7ZM76.8826 20.7193L58.6826 74.5193L61.5244 75.4807L79.7244 21.6807L76.8826 20.7193ZM60.1035 73.5H28.7035V76.5H60.1035V73.5ZM30.1179 74.5005L11.1179 20.7005L8.28913 21.6995L27.2891 75.4995L30.1179 74.5005Z" fill="white"/>
</svg>
