<svg width="119" height="95" viewBox="0 0 119 95" fill="none" xmlns="http://www.w3.org/2000/svg">
<path d="M10.4086 21.2H3.40859V4.2H31.7086L38.9086 47.3L48.2086 4.2H73.8086L83.1086 47.3L90.3086 4.2H115.609V21.2H108.609L95.4086 75H68.5086L59.2086 33.7L50.3086 75H23.4086L10.4086 21.2Z" fill="black"/>
<path d="M10.4086 21.2L11.8666 20.8477L11.5893 19.7H10.4086V21.2ZM3.40859 21.2H1.90859V22.7H3.40859V21.2ZM3.40859 4.2V2.7H1.90859V4.2H3.40859ZM31.7086 4.2L33.1881 3.95284L32.9788 2.7H31.7086V4.2ZM38.9086 47.3L37.4291 47.5472L40.3748 47.6164L38.9086 47.3ZM48.2086 4.2V2.7H46.9977L46.7423 3.88362L48.2086 4.2ZM73.8086 4.2L75.2748 3.88362L75.0195 2.7H73.8086V4.2ZM83.1086 47.3L81.6423 47.6164L84.5881 47.5472L83.1086 47.3ZM90.3086 4.2V2.7H89.0384L88.8291 3.95284L90.3086 4.2ZM115.609 4.2H117.109V2.7H115.609V4.2ZM115.609 21.2V22.7H117.109V21.2H115.609ZM108.609 21.2V19.7H107.432L107.152 20.8426L108.609 21.2ZM95.4086 75V76.5H96.5851L96.8654 75.3574L95.4086 75ZM68.5086 75L67.0452 75.3295L67.3088 76.5H68.5086V75ZM59.2086 33.7L60.672 33.3705L57.7423 33.384L59.2086 33.7ZM50.3086 75V76.5H51.5198L51.7749 75.316L50.3086 75ZM23.4086 75L21.9506 75.3523L22.2279 76.5H23.4086V75ZM10.4086 19.7H3.40859V22.7H10.4086V19.7ZM4.90859 21.2V4.2H1.90859V21.2H4.90859ZM3.40859 5.7H31.7086V2.7H3.40859V5.7ZM30.2291 4.44715L37.4291 47.5472L40.3881 47.0528L33.1881 3.95284L30.2291 4.44715ZM40.3748 47.6164L49.6749 4.51638L46.7423 3.88362L37.4423 46.9836L40.3748 47.6164ZM48.2086 5.7H73.8086V2.7H48.2086V5.7ZM72.3423 4.51638L81.6423 47.6164L84.5749 46.9836L75.2748 3.88362L72.3423 4.51638ZM84.5881 47.5472L91.7881 4.44715L88.8291 3.95284L81.6291 47.0528L84.5881 47.5472ZM90.3086 5.7H115.609V2.7H90.3086V5.7ZM114.109 4.2V21.2H117.109V4.2H114.109ZM115.609 19.7H108.609V22.7H115.609V19.7ZM107.152 20.8426L93.9518 74.6426L96.8654 75.3574L110.065 21.5574L107.152 20.8426ZM95.4086 73.5H68.5086V76.5H95.4086V73.5ZM69.972 74.6705L60.672 33.3705L57.7452 34.0295L67.0452 75.3295L69.972 74.6705ZM57.7423 33.384L48.8423 74.684L51.7749 75.316L60.6749 34.016L57.7423 33.384ZM50.3086 73.5H23.4086V76.5H50.3086V73.5ZM24.8666 74.6477L11.8666 20.8477L8.95056 21.5523L21.9506 75.3523L24.8666 74.6477Z" fill="white"/>
</svg>
