<svg width="77" height="95" viewBox="0 0 77 95" fill="none" xmlns="http://www.w3.org/2000/svg">
<path d="M1.6957 58H8.9957L22.8957 38.4L10.6957 21.2H3.2957V4.2H29.4957L39.3957 20.5L50.8957 4.2H73.4957V21.2H65.4957L53.5957 37.6L67.8957 58H75.2957V75H48.9957L37.2957 56.3L24.8957 75H1.6957V58Z" fill="black"/>
<path d="M1.6957 58V56.5H0.195703V58H1.6957ZM8.9957 58V59.5H9.77085L10.2192 58.8677L8.9957 58ZM22.8957 38.4L24.1192 39.2677L24.7347 38.3999L24.1192 37.5322L22.8957 38.4ZM10.6957 21.2L11.9192 20.3322L11.4708 19.7H10.6957V21.2ZM3.2957 21.2H1.7957V22.7H3.2957V21.2ZM3.2957 4.2V2.7H1.7957V4.2H3.2957ZM29.4957 4.2L30.7778 3.42133L30.3397 2.7H29.4957V4.2ZM39.3957 20.5L38.1136 21.2787L39.3018 23.235L40.6214 21.3647L39.3957 20.5ZM50.8957 4.2V2.7H50.1182L49.67 3.33527L50.8957 4.2ZM73.4957 4.2H74.9957V2.7H73.4957V4.2ZM73.4957 21.2V22.7H74.9957V21.2H73.4957ZM65.4957 21.2V19.7H64.7308L64.2816 20.3191L65.4957 21.2ZM53.5957 37.6L52.3816 36.7191L51.7533 37.585L52.3674 38.461L53.5957 37.6ZM67.8957 58L66.6674 58.861L67.1153 59.5H67.8957V58ZM75.2957 58H76.7957V56.5H75.2957V58ZM75.2957 75V76.5H76.7957V75H75.2957ZM48.9957 75L47.7241 75.7956L48.1648 76.5H48.9957V75ZM37.2957 56.3L38.5673 55.5044L37.3323 53.5305L36.0456 55.471L37.2957 56.3ZM24.8957 75V76.5H25.7009L26.1458 75.829L24.8957 75ZM1.6957 75H0.195703V76.5H1.6957V75ZM1.6957 59.5H8.9957V56.5H1.6957V59.5ZM10.2192 58.8677L24.1192 39.2677L21.6722 37.5323L7.77216 57.1323L10.2192 58.8677ZM24.1192 37.5322L11.9192 20.3322L9.47223 22.0678L21.6722 39.2678L24.1192 37.5322ZM10.6957 19.7H3.2957V22.7H10.6957V19.7ZM4.7957 21.2V4.2H1.7957V21.2H4.7957ZM3.2957 5.7H29.4957V2.7H3.2957V5.7ZM28.2136 4.97867L38.1136 21.2787L40.6778 19.7213L30.7778 3.42133L28.2136 4.97867ZM40.6214 21.3647L52.1214 5.06473L49.67 3.33527L38.17 19.6353L40.6214 21.3647ZM50.8957 5.7H73.4957V2.7H50.8957V5.7ZM71.9957 4.2V21.2H74.9957V4.2H71.9957ZM73.4957 19.7H65.4957V22.7H73.4957V19.7ZM64.2816 20.3191L52.3816 36.7191L54.8098 38.4809L66.7098 22.0809L64.2816 20.3191ZM52.3674 38.461L66.6674 58.861L69.124 57.139L54.824 36.739L52.3674 38.461ZM67.8957 59.5H75.2957V56.5H67.8957V59.5ZM73.7957 58V75H76.7957V58H73.7957ZM75.2957 73.5H48.9957V76.5H75.2957V73.5ZM50.2673 74.2044L38.5673 55.5044L36.0241 57.0956L47.7241 75.7956L50.2673 74.2044ZM36.0456 55.471L23.6456 74.171L26.1458 75.829L38.5458 57.129L36.0456 55.471ZM24.8957 73.5H1.6957V76.5H24.8957V73.5ZM3.1957 75V58H0.195703V75H3.1957Z" fill="white"/>
</svg>
