<svg width="76" height="95" viewBox="0 0 76 95" fill="none" xmlns="http://www.w3.org/2000/svg">
<path d="M19.5164 58H26.2164V46.4L8.41641 21.2H2.41641V4.2H24.0164L38.8164 27L53.0164 4.2H73.6164V21.2H67.6164L50.1164 45.9V58H56.8164V75H19.5164V58Z" fill="black"/>
<path d="M19.5164 58V56.5H18.0164V58H19.5164ZM26.2164 58V59.5H27.7164V58H26.2164ZM26.2164 46.4H27.7164V45.9237L27.4416 45.5346L26.2164 46.4ZM8.41641 21.2L9.64159 20.3346L9.19334 19.7H8.41641V21.2ZM2.41641 21.2H0.916406V22.7H2.41641V21.2ZM2.41641 4.2V2.7H0.916406V4.2H2.41641ZM24.0164 4.2L25.2746 3.38329L24.831 2.7H24.0164V4.2ZM38.8164 27L37.5582 27.8167L38.8426 29.7953L40.0897 27.793L38.8164 27ZM53.0164 4.2V2.7H52.1835L51.7432 3.40701L53.0164 4.2ZM73.6164 4.2H75.1164V2.7H73.6164V4.2ZM73.6164 21.2V22.7H75.1164V21.2H73.6164ZM67.6164 21.2V19.7H66.8408L66.3925 20.3328L67.6164 21.2ZM50.1164 45.9L48.8925 45.0328L48.6164 45.4225V45.9H50.1164ZM50.1164 58H48.6164V59.5H50.1164V58ZM56.8164 58H58.3164V56.5H56.8164V58ZM56.8164 75V76.5H58.3164V75H56.8164ZM19.5164 75H18.0164V76.5H19.5164V75ZM19.5164 59.5H26.2164V56.5H19.5164V59.5ZM27.7164 58V46.4H24.7164V58H27.7164ZM27.4416 45.5346L9.64159 20.3346L7.19122 22.0654L24.9912 47.2654L27.4416 45.5346ZM8.41641 19.7H2.41641V22.7H8.41641V19.7ZM3.91641 21.2V4.2H0.916406V21.2H3.91641ZM2.41641 5.7H24.0164V2.7H2.41641V5.7ZM22.7582 5.01671L37.5582 27.8167L40.0746 26.1833L25.2746 3.38329L22.7582 5.01671ZM40.0897 27.793L54.2897 4.99299L51.7432 3.40701L37.5432 26.207L40.0897 27.793ZM53.0164 5.7H73.6164V2.7H53.0164V5.7ZM72.1164 4.2V21.2H75.1164V4.2H72.1164ZM73.6164 19.7H67.6164V22.7H73.6164V19.7ZM66.3925 20.3328L48.8925 45.0328L51.3403 46.7672L68.8403 22.0672L66.3925 20.3328ZM48.6164 45.9V58H51.6164V45.9H48.6164ZM50.1164 59.5H56.8164V56.5H50.1164V59.5ZM55.3164 58V75H58.3164V58H55.3164ZM56.8164 73.5H19.5164V76.5H56.8164V73.5ZM21.0164 75V58H18.0164V75H21.0164Z" fill="white"/>
</svg>
