<svg width="65" height="95" viewBox="0 0 65 95" fill="none" xmlns="http://www.w3.org/2000/svg">
<path d="M3.0082 57.8L31.4082 22.7H3.6082V4.2H61.4082V21.4L33.0082 56.5H61.9082V75H3.0082V57.8Z" fill="black"/>
<path d="M3.0082 57.8L1.8421 56.8565L1.5082 57.2692V57.8H3.0082ZM31.4082 22.7L32.5743 23.6435L34.5514 21.2H31.4082V22.7ZM3.6082 22.7H2.1082V24.2H3.6082V22.7ZM3.6082 4.2V2.7H2.1082V4.2H3.6082ZM61.4082 4.2H62.9082V2.7H61.4082V4.2ZM61.4082 21.4L62.5743 22.3435L62.9082 21.9308V21.4H61.4082ZM33.0082 56.5L31.8421 55.5565L29.865 58H33.0082V56.5ZM61.9082 56.5H63.4082V55H61.9082V56.5ZM61.9082 75V76.5H63.4082V75H61.9082ZM3.0082 75H1.5082V76.5H3.0082V75ZM4.1743 58.7435L32.5743 23.6435L30.2421 21.7565L1.8421 56.8565L4.1743 58.7435ZM31.4082 21.2H3.6082V24.2H31.4082V21.2ZM5.1082 22.7V4.2H2.1082V22.7H5.1082ZM3.6082 5.7H61.4082V2.7H3.6082V5.7ZM59.9082 4.2V21.4H62.9082V4.2H59.9082ZM60.2421 20.4565L31.8421 55.5565L34.1743 57.4435L62.5743 22.3435L60.2421 20.4565ZM33.0082 58H61.9082V55H33.0082V58ZM60.4082 56.5V75H63.4082V56.5H60.4082ZM61.9082 73.5H3.0082V76.5H61.9082V73.5ZM4.5082 75V57.8H1.5082V75H4.5082Z" fill="white"/>
</svg>
