<svg width="42" height="79" viewBox="0 0 42 79" fill="none" xmlns="http://www.w3.org/2000/svg">
<path d="M2.1 20.8C2.1 18.2 2.56667 15.7667 3.5 13.5C4.43333 11.1667 5.73333 9.16666 7.4 7.49999C9.13333 5.76666 11.1667 4.43333 13.5 3.5C15.8333 2.5 18.4 1.99999 21.2 1.99999C24 1.99999 26.5333 2.5 28.8 3.5C31.1333 4.43333 33.1333 5.76666 34.8 7.49999C36.5333 9.16666 37.8667 11.1667 38.8 13.5C39.7333 15.7667 40.2 18.2 40.2 20.8C40.2 23.4 39.7333 25.8667 38.8 28.2C37.8667 30.4667 36.5333 32.4667 34.8 34.2C33.1333 35.8667 31.1333 37.2 28.8 38.2C26.5333 39.1333 24 39.6 21.2 39.6C18.4 39.6 15.8333 39.1333 13.5 38.2C11.1667 37.2 9.13333 35.8667 7.4 34.2C5.73333 32.4667 4.43333 30.4667 3.5 28.2C2.56667 25.8667 2.1 23.4 2.1 20.8ZM21.2 26.5C22.5333 26.5 23.7 26 24.7 25C25.7667 24 26.3 22.6 26.3 20.8C26.3 19.0667 25.7667 17.7 24.7 16.7C23.7 15.6333 22.5333 15.1 21.2 15.1C19.8667 15.1 18.6667 15.6333 17.6 16.7C16.5333 17.7 16 19.0667 16 20.8C16 22.6 16.5333 24 17.6 25C18.6667 26 19.8667 26.5 21.2 26.5Z" fill="black"/>
<path d="M3.5 13.5L4.88702 14.0711L4.8899 14.0641L4.89271 14.0571L3.5 13.5ZM7.4 7.49999L6.33934 6.43933L6.33934 6.43934L7.4 7.49999ZM13.5 3.5L14.0571 4.89271L14.0741 4.88592L14.0909 4.87872L13.5 3.5ZM28.8 3.5L28.1945 4.87237L28.2186 4.88297L28.2429 4.89271L28.8 3.5ZM34.8 7.49999L33.7188 8.53966L33.7391 8.56086L33.7603 8.58124L34.8 7.49999ZM38.8 13.5L37.4073 14.0571L37.4101 14.0641L37.413 14.0711L38.8 13.5ZM38.8 28.2L40.187 28.7711L40.1899 28.7641L40.1927 28.7571L38.8 28.2ZM28.8 38.2L29.3711 39.587L29.381 39.5829L29.3909 39.5787L28.8 38.2ZM13.5 38.2L12.9091 39.5787L12.9259 39.5859L12.9429 39.5927L13.5 38.2ZM7.4 34.2L6.31875 35.2397L6.33914 35.2609L6.36034 35.2812L7.4 34.2ZM3.5 28.2L2.10729 28.7571L2.1101 28.7641L2.11298 28.7711L3.5 28.2ZM24.7 25L23.6741 23.9057L23.6564 23.9222L23.6393 23.9393L24.7 25ZM24.7 16.7L23.6057 17.7259L23.6388 17.7612L23.6741 17.7943L24.7 16.7ZM17.6 16.7L18.6259 17.7943L18.6436 17.7778L18.6607 17.7607L17.6 16.7ZM17.6 25L18.6259 23.9057L18.6259 23.9057L17.6 25ZM3.6 20.8C3.6 18.3839 4.03274 16.1458 4.88702 14.0711L2.11298 12.9289C1.1006 15.3875 0.6 18.0161 0.6 20.8H3.6ZM4.89271 14.0571C5.75567 11.8997 6.94698 10.0743 8.46066 8.56065L6.33934 6.43934C4.51969 8.25899 3.111 10.4336 2.10729 12.9429L4.89271 14.0571ZM8.46066 8.56066C10.0467 6.97463 11.9075 5.75255 14.0571 4.89271L12.9429 2.10728C10.4258 3.11411 8.21998 4.5587 6.33934 6.43933L8.46066 8.56066ZM14.0909 4.87872C16.2191 3.96662 18.5821 3.49999 21.2 3.49999V0.499994C18.2179 0.499994 15.4476 1.03337 12.9091 2.12128L14.0909 4.87872ZM21.2 3.49999C23.8186 3.49999 26.142 3.96683 28.1945 4.87237L29.4055 2.12762C26.9247 1.03316 24.1814 0.499994 21.2 0.499994V3.49999ZM28.2429 4.89271C30.3876 5.75057 32.2064 6.96683 33.7188 8.53966L35.8813 6.46033C34.0603 4.5665 31.8791 3.11609 29.3571 2.10728L28.2429 4.89271ZM33.7603 8.58124C35.3332 10.0936 36.5494 11.9124 37.4073 14.0571L40.1927 12.9429C39.1839 10.4209 37.7335 8.23975 35.8397 6.41875L33.7603 8.58124ZM37.413 14.0711C38.2673 16.1458 38.7 18.3839 38.7 20.8H41.7C41.7 18.0161 41.1994 15.3875 40.187 12.9289L37.413 14.0711ZM38.7 20.8C38.7 23.2159 38.2673 25.4929 37.4073 27.6429L40.1927 28.7571C41.1994 26.2404 41.7 23.5841 41.7 20.8H38.7ZM37.413 27.6289C36.5551 29.7124 35.3326 31.546 33.7393 33.1393L35.8607 35.2607C37.734 33.3873 39.1783 31.2209 40.187 28.7711L37.413 27.6289ZM33.7393 33.1393C32.2177 34.661 30.3807 35.8906 28.2091 36.8213L29.3909 39.5787C31.886 38.5094 34.049 37.0724 35.8607 35.2607L33.7393 33.1393ZM28.2289 36.813C26.1673 37.6619 23.8317 38.1 21.2 38.1V41.1C24.1683 41.1 26.8994 40.6048 29.3711 39.587L28.2289 36.813ZM21.2 38.1C18.5691 38.1 16.1941 37.6621 14.0571 36.8073L12.9429 39.5927C15.4726 40.6046 18.2309 41.1 21.2 41.1V38.1ZM14.0909 36.8213C11.9145 35.8885 10.0354 34.6531 8.43966 33.1187L6.36034 35.2812C8.23125 37.0802 10.4188 38.5115 12.9091 39.5787L14.0909 36.8213ZM8.48125 33.1603C6.94755 31.5653 5.75014 29.725 4.88702 27.6289L2.11298 28.7711C3.11653 31.2083 4.51912 33.368 6.31875 35.2397L8.48125 33.1603ZM4.89271 27.6429C4.03271 25.4929 3.6 23.2159 3.6 20.8H0.6C0.6 23.5841 1.10062 26.2404 2.10729 28.7571L4.89271 27.6429ZM21.2 28C22.9572 28 24.4983 27.323 25.7607 26.0607L23.6393 23.9393C22.9017 24.677 22.1095 25 21.2 25V28ZM25.7259 26.0943C27.1626 24.7474 27.8 22.9118 27.8 20.8H24.8C24.8 22.2882 24.3707 23.2526 23.6741 23.9057L25.7259 26.0943ZM27.8 20.8C27.8 18.7355 27.151 16.9417 25.7259 15.6057L23.6741 17.7943C24.3823 18.4583 24.8 19.3978 24.8 20.8H27.8ZM25.7943 15.6741C24.5412 14.3374 22.9904 13.6 21.2 13.6V16.6C22.0762 16.6 22.8588 16.9293 23.6057 17.7259L25.7943 15.6741ZM21.2 13.6C19.4153 13.6 17.847 14.3316 16.5393 15.6393L18.6607 17.7607C19.4863 16.935 20.318 16.6 21.2 16.6V13.6ZM16.5741 15.6057C15.149 16.9417 14.5 18.7355 14.5 20.8H17.5C17.5 19.3978 17.9177 18.4583 18.6259 17.7943L16.5741 15.6057ZM14.5 20.8C14.5 22.9118 15.1374 24.7474 16.5741 26.0943L18.6259 23.9057C17.9293 23.2526 17.5 22.2882 17.5 20.8H14.5ZM16.5741 26.0943C17.8895 27.3275 19.4473 28 21.2 28V25C20.286 25 19.4438 24.6725 18.6259 23.9057L16.5741 26.0943Z" fill="white"/>
</svg>
