<svg width="68" height="75" viewBox="0 0 68 75" fill="none" xmlns="http://www.w3.org/2000/svg">
<path d="M41.82 25.44L51.42 32.4L24.36 70.2L14.76 63.24L41.82 25.44ZM1.2 38.28C1.2 36.6 1.52 35.02 2.16 33.54C2.84 32.02 3.76 30.7 4.92 29.58C6.08 28.46 7.42 27.58 8.94 26.94C10.46 26.3 12.1 25.98 13.86 25.98C15.58 25.98 17.22 26.3 18.78 26.94C20.34 27.58 21.68 28.46 22.8 29.58C23.96 30.7 24.88 32.02 25.56 33.54C26.24 35.02 26.58 36.6 26.58 38.28C26.58 39.96 26.24 41.56 25.56 43.08C24.88 44.56 23.96 45.86 22.8 46.98C21.68 48.06 20.34 48.92 18.78 49.56C17.22 50.2 15.58 50.52 13.86 50.52C12.1 50.52 10.46 50.2 8.94 49.56C7.42 48.92 6.08 48.06 4.92 46.98C3.76 45.86 2.84 44.56 2.16 43.08C1.52 41.56 1.2 39.96 1.2 38.28ZM13.86 41.76C14.78 41.76 15.58 41.42 16.26 40.74C16.94 40.06 17.28 39.24 17.28 38.28C17.28 37.28 16.94 36.44 16.26 35.76C15.58 35.08 14.78 34.74 13.86 34.74C12.94 34.74 12.14 35.08 11.46 35.76C10.82 36.44 10.5 37.28 10.5 38.28C10.5 39.24 10.82 40.06 11.46 40.74C12.14 41.42 12.94 41.76 13.86 41.76ZM39.78 57.3C39.78 55.62 40.1 54.04 40.74 52.56C41.42 51.04 42.34 49.72 43.5 48.6C44.66 47.48 46 46.6 47.52 45.96C49.04 45.32 50.68 45 52.44 45C54.16 45 55.8 45.32 57.36 45.96C58.92 46.6 60.26 47.48 61.38 48.6C62.54 49.72 63.46 51.04 64.14 52.56C64.82 54.04 65.16 55.62 65.16 57.3C65.16 58.98 64.82 60.58 64.14 62.1C63.46 63.58 62.54 64.88 61.38 66C60.26 67.08 58.92 67.94 57.36 68.58C55.8 69.22 54.16 69.54 52.44 69.54C50.68 69.54 49.04 69.22 47.52 68.58C46 67.94 44.66 67.08 43.5 66C42.34 64.88 41.42 63.58 40.74 62.1C40.1 60.58 39.78 58.98 39.78 57.3ZM52.44 60.78C53.36 60.78 54.16 60.44 54.84 59.76C55.52 59.08 55.86 58.26 55.86 57.3C55.86 56.3 55.52 55.46 54.84 54.78C54.16 54.1 53.36 53.76 52.44 53.76C51.52 53.76 50.72 54.1 50.04 54.78C49.4 55.46 49.08 56.3 49.08 57.3C49.08 58.26 49.4 59.08 50.04 59.76C50.72 60.44 51.52 60.78 52.44 60.78Z" fill="black"/>
<path d="M41.82 25.44L42.7005 24.2256L41.4787 23.3398L40.6003 24.5669L41.82 25.44ZM51.42 32.4L52.6397 33.2731L53.5076 32.0608L52.3005 31.1856L51.42 32.4ZM24.36 70.2L23.4795 71.4144L24.7013 72.3002L25.5797 71.0731L24.36 70.2ZM14.76 63.24L13.5403 62.3669L12.6724 63.5792L13.8795 64.4544L14.76 63.24ZM2.16 33.54L0.790773 32.9274L0.78694 32.936L0.783215 32.9446L2.16 33.54ZM4.92 29.58L5.96189 30.6591L5.96189 30.6591L4.92 29.58ZM8.94 26.94L8.35792 25.5575L8.35792 25.5575L8.94 26.94ZM22.8 29.58L21.7393 30.6407L21.7486 30.65L21.7581 30.6591L22.8 29.58ZM25.56 33.54L24.1908 34.1525L24.1938 34.1594L24.197 34.1662L25.56 33.54ZM25.56 43.08L26.923 43.7063L26.9262 43.6994L26.9292 43.6925L25.56 43.08ZM22.8 46.98L23.8412 48.0598L23.8419 48.0591L22.8 46.98ZM18.78 49.56L19.3493 50.9478L19.3493 50.9478L18.78 49.56ZM8.94 49.56L8.35791 50.9425L8.35792 50.9425L8.94 49.56ZM4.92 46.98L3.87811 48.0591L3.88791 48.0686L3.89787 48.0778L4.92 46.98ZM2.16 43.08L0.777547 43.6621L0.786911 43.6843L0.796985 43.7062L2.16 43.08ZM16.26 40.74L17.3207 41.8007L17.3207 41.8007L16.26 40.74ZM16.26 35.76L17.3207 34.6993L17.3207 34.6993L16.26 35.76ZM11.46 35.76L10.3993 34.6993L10.3833 34.7154L10.3677 34.732L11.46 35.76ZM11.46 40.74L10.3677 41.768L10.3833 41.7846L10.3993 41.8007L11.46 40.74ZM40.74 52.56L39.3708 51.9474L39.3669 51.956L39.3632 51.9646L40.74 52.56ZM43.5 48.6L44.5419 49.6791L44.5419 49.6791L43.5 48.6ZM47.52 45.96L48.1021 47.3425L48.1021 47.3425L47.52 45.96ZM57.36 45.96L56.7907 47.3478L56.7907 47.3478L57.36 45.96ZM61.38 48.6L60.3193 49.6607L60.3286 49.67L60.3381 49.6791L61.38 48.6ZM64.14 52.56L62.7708 53.1725L62.7738 53.1794L62.777 53.1863L64.14 52.56ZM64.14 62.1L65.503 62.7262L65.5062 62.7194L65.5092 62.7126L64.14 62.1ZM61.38 66L62.4212 67.0798L62.4219 67.0791L61.38 66ZM57.36 68.58L56.7907 67.1922L56.7907 67.1922L57.36 68.58ZM47.52 68.58L48.1021 67.1975L48.1021 67.1975L47.52 68.58ZM43.5 66L42.4581 67.0791L42.4679 67.0886L42.4779 67.0978L43.5 66ZM40.74 62.1L39.3575 62.6821L39.3669 62.7043L39.377 62.7263L40.74 62.1ZM54.84 59.76L53.7793 58.6993L53.7793 58.6993L54.84 59.76ZM54.84 54.78L55.9007 53.7193L55.9007 53.7193L54.84 54.78ZM50.04 54.78L48.9793 53.7193L48.9633 53.7354L48.9477 53.752L50.04 54.78ZM50.04 59.76L48.9477 60.788L48.9633 60.8046L48.9793 60.8207L50.04 59.76ZM40.9396 26.6544L50.5396 33.6144L52.3005 31.1856L42.7005 24.2256L40.9396 26.6544ZM50.2003 31.5269L23.1403 69.3269L25.5797 71.0731L52.6397 33.2731L50.2003 31.5269ZM25.2405 68.9856L15.6405 62.0256L13.8795 64.4544L23.4795 71.4144L25.2405 68.9856ZM15.9797 64.1131L43.0397 26.3131L40.6003 24.5669L13.5403 62.3669L15.9797 64.1131ZM2.7 38.28C2.7 36.796 2.98147 35.4195 3.53679 34.1354L0.783215 32.9446C0.0585262 34.6205 -0.3 36.404 -0.3 38.28H2.7ZM3.52923 34.1525C4.13354 32.8017 4.94434 31.6416 5.96189 30.6591L3.87811 28.5009C2.57566 29.7584 1.54646 31.2383 0.790773 32.9274L3.52923 34.1525ZM5.96189 30.6591C6.9856 29.6707 8.16879 28.8923 9.52208 28.3225L8.35792 25.5575C6.67121 26.2677 5.1744 27.2493 3.87811 28.5009L5.96189 30.6591ZM9.52208 28.3225C10.8457 27.7651 12.2863 27.48 13.86 27.48V24.48C11.9137 24.48 10.0743 24.8349 8.35792 25.5575L9.52208 28.3225ZM13.86 27.48C15.3887 27.48 16.835 27.7634 18.2107 28.3278L19.3493 25.5522C17.605 24.8366 15.7713 24.48 13.86 24.48V27.48ZM18.2107 28.3278C19.5989 28.8973 20.7687 29.6701 21.7393 30.6407L23.8607 28.5193C22.5913 27.2499 21.0811 26.2627 19.3493 25.5522L18.2107 28.3278ZM21.7581 30.6591C22.7757 31.6416 23.5865 32.8017 24.1908 34.1525L26.9292 32.9274C26.1735 31.2383 25.1443 29.7584 23.8419 28.5009L21.7581 30.6591ZM24.197 34.1662C24.7839 35.4436 25.08 36.8092 25.08 38.28H28.08C28.08 36.3908 27.6961 34.5964 26.923 32.9137L24.197 34.1662ZM25.08 38.28C25.08 39.7508 24.7838 41.1419 24.1908 42.4675L26.9292 43.6925C27.6962 41.9781 28.08 40.1692 28.08 38.28H25.08ZM24.197 42.4537C23.5941 43.7659 22.7824 44.9119 21.7581 45.9009L23.8419 48.0591C25.1376 46.8081 26.1659 45.3541 26.923 43.7063L24.197 42.4537ZM21.7588 45.9002C20.7863 46.838 19.6101 47.5981 18.2107 48.1722L19.3493 50.9478C21.0699 50.2419 22.5737 49.282 23.8412 48.0598L21.7588 45.9002ZM18.2107 48.1722C16.835 48.7366 15.3887 49.02 13.86 49.02V52.02C15.7713 52.02 17.605 51.6634 19.3493 50.9478L18.2107 48.1722ZM13.86 49.02C12.2863 49.02 10.8457 48.7349 9.52208 48.1775L8.35792 50.9425C10.0743 51.6651 11.9137 52.02 13.86 52.02V49.02ZM9.52209 48.1775C8.15766 47.6031 6.96809 46.8374 5.94213 45.8822L3.89787 48.0778C5.19191 49.2826 6.68234 50.2369 8.35791 50.9425L9.52209 48.1775ZM5.96189 45.9009C4.93756 44.9119 4.12589 43.7659 3.52302 42.4537L0.796985 43.7062C1.55411 45.3541 2.58244 46.8081 3.87811 48.0591L5.96189 45.9009ZM3.54245 42.4979C2.98151 41.1657 2.7 39.7639 2.7 38.28H-0.3C-0.3 40.1561 0.0584951 41.9543 0.777547 43.6621L3.54245 42.4979ZM13.86 43.26C15.1975 43.26 16.3736 42.7478 17.3207 41.8007L15.1993 39.6793C14.7865 40.0922 14.3625 40.26 13.86 40.26V43.26ZM17.3207 41.8007C18.2814 40.8399 18.78 39.6386 18.78 38.28H15.78C15.78 38.8414 15.5986 39.2801 15.1993 39.6793L17.3207 41.8007ZM18.78 38.28C18.78 36.8999 18.2942 35.6729 17.3207 34.6993L15.1993 36.8207C15.5858 37.2071 15.78 37.6601 15.78 38.28H18.78ZM17.3207 34.6993C16.3736 33.7522 15.1975 33.24 13.86 33.24V36.24C14.3625 36.24 14.7865 36.4078 15.1993 36.8207L17.3207 34.6993ZM13.86 33.24C12.5225 33.24 11.3464 33.7522 10.3993 34.6993L12.5207 36.8207C12.9336 36.4078 13.3575 36.24 13.86 36.24V33.24ZM10.3677 34.732C9.44615 35.7111 9 36.9276 9 38.28H12C12 37.6324 12.1939 37.1689 12.5523 36.788L10.3677 34.732ZM9 38.28C9 39.6102 9.45779 40.8013 10.3677 41.768L12.5523 39.712C12.1822 39.3187 12 38.8698 12 38.28H9ZM10.3993 41.8007C11.3465 42.7478 12.5225 43.26 13.86 43.26V40.26C13.3575 40.26 12.9336 40.0922 12.5207 39.6793L10.3993 41.8007ZM41.28 57.3C41.28 55.816 41.5615 54.4395 42.1168 53.1554L39.3632 51.9646C38.6385 53.6405 38.28 55.424 38.28 57.3H41.28ZM42.1092 53.1725C42.7135 51.8217 43.5243 50.6616 44.5419 49.6791L42.4581 47.5209C41.1557 48.7784 40.1265 50.2583 39.3708 51.9474L42.1092 53.1725ZM44.5419 49.6791C45.5656 48.6907 46.7488 47.9123 48.1021 47.3425L46.9379 44.5775C45.2512 45.2877 43.7544 46.2693 42.4581 47.5209L44.5419 49.6791ZM48.1021 47.3425C49.4257 46.7851 50.8663 46.5 52.44 46.5V43.5C50.4937 43.5 48.6543 43.8549 46.9379 44.5775L48.1021 47.3425ZM52.44 46.5C53.9687 46.5 55.415 46.7834 56.7907 47.3478L57.9293 44.5722C56.185 43.8566 54.3513 43.5 52.44 43.5V46.5ZM56.7907 47.3478C58.1789 47.9173 59.3487 48.6901 60.3193 49.6607L62.4407 47.5393C61.1713 46.2699 59.6611 45.2827 57.9293 44.5722L56.7907 47.3478ZM60.3381 49.6791C61.3557 50.6616 62.1665 51.8217 62.7708 53.1725L65.5092 51.9475C64.7535 50.2583 63.7243 48.7784 62.4219 47.5209L60.3381 49.6791ZM62.777 53.1863C63.3639 54.4636 63.66 55.8292 63.66 57.3H66.66C66.66 55.4108 66.2761 53.6164 65.503 51.9337L62.777 53.1863ZM63.66 57.3C63.66 58.7708 63.3638 60.1619 62.7708 61.4874L65.5092 62.7126C66.2762 60.9981 66.66 59.1892 66.66 57.3H63.66ZM62.777 61.4738C62.1741 62.7859 61.3624 63.9319 60.3381 64.9209L62.4219 67.0791C63.7176 65.8281 64.7459 64.3741 65.503 62.7262L62.777 61.4738ZM60.3388 64.9202C59.3663 65.858 58.1901 66.6181 56.7907 67.1922L57.9293 69.9678C59.6499 69.2619 61.1537 68.302 62.4212 67.0798L60.3388 64.9202ZM56.7907 67.1922C55.415 67.7566 53.9687 68.04 52.44 68.04V71.04C54.3513 71.04 56.185 70.6834 57.9293 69.9678L56.7907 67.1922ZM52.44 68.04C50.8663 68.04 49.4257 67.7549 48.1021 67.1975L46.9379 69.9625C48.6543 70.6851 50.4937 71.04 52.44 71.04V68.04ZM48.1021 67.1975C46.7377 66.6231 45.5481 65.8574 44.5221 64.9022L42.4779 67.0978C43.7719 68.3026 45.2623 69.2569 46.9379 69.9625L48.1021 67.1975ZM44.5419 64.9209C43.5176 63.9319 42.7059 62.7859 42.103 61.4737L39.377 62.7263C40.1341 64.3741 41.1624 65.8281 42.4581 67.0791L44.5419 64.9209ZM42.1225 61.5179C41.5615 60.1857 41.28 58.7839 41.28 57.3H38.28C38.28 59.1761 38.6385 60.9743 39.3575 62.6821L42.1225 61.5179ZM52.44 62.28C53.7775 62.28 54.9536 61.7678 55.9007 60.8207L53.7793 58.6993C53.3665 59.1122 52.9425 59.28 52.44 59.28V62.28ZM55.9007 60.8207C56.8614 59.8599 57.36 58.6586 57.36 57.3H54.36C54.36 57.8614 54.1786 58.3001 53.7793 58.6993L55.9007 60.8207ZM57.36 57.3C57.36 55.9199 56.8742 54.6929 55.9007 53.7193L53.7793 55.8407C54.1658 56.2271 54.36 56.6801 54.36 57.3H57.36ZM55.9007 53.7193C54.9536 52.7722 53.7775 52.26 52.44 52.26V55.26C52.9425 55.26 53.3665 55.4278 53.7793 55.8407L55.9007 53.7193ZM52.44 52.26C51.1025 52.26 49.9265 52.7722 48.9793 53.7193L51.1007 55.8407C51.5136 55.4278 51.9375 55.26 52.44 55.26V52.26ZM48.9477 53.752C48.0262 54.7311 47.58 55.9476 47.58 57.3H50.58C50.58 56.6524 50.7739 56.1889 51.1323 55.808L48.9477 53.752ZM47.58 57.3C47.58 58.6302 48.0378 59.8213 48.9477 60.788L51.1323 58.732C50.7622 58.3387 50.58 57.8898 50.58 57.3H47.58ZM48.9793 60.8207C49.9265 61.7678 51.1025 62.28 52.44 62.28V59.28C51.9375 59.28 51.5136 59.1122 51.1007 58.6993L48.9793 60.8207Z" fill="white"/>
</svg>
