<svg width="70" height="77" viewBox="0 0 70 77" fill="none" xmlns="http://www.w3.org/2000/svg">
<path d="M34.8 76.2C28.2 76.2 22.8333 75.0333 18.7 72.7C14.6333 70.3667 11.4333 67.4 9.1 63.8C6.83333 60.2 5.3 56.2667 4.5 52C3.7 47.6667 3.3 43.5333 3.3 39.6C3.3 35.6667 3.7 31.5667 4.5 27.3C5.3 22.9667 6.83333 19 9.1 15.4C11.4333 11.8 14.6333 8.83333 18.7 6.49999C22.8333 4.16666 28.2 3 34.8 3C41.4 3 46.7333 4.16666 50.8 6.49999C54.9333 8.83333 58.1333 11.8 60.4 15.4C62.7333 19 64.3 22.9667 65.1 27.3C65.9 31.5667 66.3 35.6667 66.3 39.6C66.3 43.5333 65.9 47.6667 65.1 52C64.3 56.2667 62.7333 60.2 60.4 63.8C58.1333 67.4 54.9333 70.3667 50.8 72.7C46.7333 75.0333 41.4 76.2 34.8 76.2ZM34.8 57.9C36.2 57.9 37.3333 57.4 38.2 56.4C39.0667 55.3333 39.7 53.9667 40.1 52.3C40.5667 50.5667 40.8667 48.6 41 46.4C41.2 44.2 41.3 41.9333 41.3 39.6C41.3 37.2667 41.2 35 41 32.8C40.8667 30.6 40.5667 28.6667 40.1 27C39.7 25.2667 39.0667 23.9 38.2 22.9C37.3333 21.8333 36.2 21.3 34.8 21.3C33.4 21.3 32.2667 21.8333 31.4 22.9C30.6 23.9 29.9667 25.2667 29.5 27C29.0333 28.6667 28.7 30.6 28.5 32.8C28.3667 35 28.3 37.2667 28.3 39.6C28.3 41.9333 28.3667 44.2 28.5 46.4C28.7 48.6 29.0333 50.5667 29.5 52.3C29.9667 53.9667 30.6 55.3333 31.4 56.4C32.2667 57.4 33.4 57.9 34.8 57.9Z" fill="black"/>
<path d="M18.7 72.7L17.9535 74.0011L17.9626 74.0062L18.7 72.7ZM9.1 63.8L7.83065 64.5992L7.83591 64.6076L7.84127 64.6158L9.1 63.8ZM4.5 52L3.02492 52.2723L3.02569 52.2764L4.5 52ZM4.5 27.3L5.97431 27.5764L5.97507 27.5723L4.5 27.3ZM9.1 15.4L7.84127 14.5842L7.83591 14.5924L7.83065 14.6008L9.1 15.4ZM18.7 6.49999L17.9626 5.19373L17.9535 5.19894L18.7 6.49999ZM50.8 6.49999L50.0535 7.80108L50.0626 7.80623L50.8 6.49999ZM60.4 15.4L59.1307 16.1992L59.1359 16.2076L59.1413 16.2158L60.4 15.4ZM65.1 27.3L63.6249 27.5723L63.6257 27.5764L65.1 27.3ZM65.1 52L66.5743 52.2764L66.5751 52.2723L65.1 52ZM60.4 63.8L59.1413 62.9842L59.1359 62.9924L59.1307 63.0008L60.4 63.8ZM50.8 72.7L50.0626 71.3937L50.0535 71.3989L50.8 72.7ZM38.2 56.4L39.3335 57.3824L39.3491 57.3644L39.3642 57.3459L38.2 56.4ZM40.1 52.3L38.6516 51.91L38.6462 51.9299L38.6414 51.9499L40.1 52.3ZM41 46.4L39.5062 46.2642L39.5041 46.2867L39.5028 46.3093L41 46.4ZM41 32.8L39.5028 32.8907L39.5041 32.9133L39.5062 32.9358L41 32.8ZM40.1 27L38.6384 27.3373L38.6462 27.3711L38.6556 27.4044L40.1 27ZM38.2 22.9L37.0358 23.8459L37.0509 23.8644L37.0665 23.8824L38.2 22.9ZM31.4 22.9L30.2358 21.9541L30.2287 21.963L31.4 22.9ZM29.5 27L30.9444 27.4044L30.9465 27.3972L30.9484 27.39L29.5 27ZM28.5 32.8L27.0062 32.6642L27.0041 32.6867L27.0028 32.7093L28.5 32.8ZM28.5 46.4L27.0028 46.4907L27.0041 46.5133L27.0062 46.5358L28.5 46.4ZM29.5 52.3L28.0516 52.69L28.0535 52.6972L28.0556 52.7044L29.5 52.3ZM31.4 56.4L30.2 57.3L30.2318 57.3424L30.2665 57.3824L31.4 56.4ZM34.8 74.7C28.3625 74.7 23.2748 73.56 19.4374 71.3938L17.9626 74.0062C22.3919 76.5066 28.0375 77.7 34.8 77.7V74.7ZM19.4465 71.3989C15.5671 69.1731 12.5506 66.3659 10.3587 62.9842L7.84127 64.6158C10.3161 68.4341 13.6995 71.5602 17.9535 74.0011L19.4465 71.3989ZM10.3693 63.0008C8.20538 59.5639 6.74023 55.8085 5.97431 51.7236L3.02569 52.2764C3.85977 56.7248 5.46129 60.8361 7.83065 64.5992L10.3693 63.0008ZM5.97507 51.7277C5.18971 47.4736 4.8 43.4319 4.8 39.6H1.8C1.8 43.6348 2.21029 47.8597 3.02493 52.2723L5.97507 51.7277ZM4.8 39.6C4.8 35.7684 5.18966 31.7612 5.97431 27.5764L3.02569 27.0236C2.21034 31.3721 1.8 35.565 1.8 39.6H4.8ZM5.97507 27.5723C6.74179 23.4192 8.20769 19.6324 10.3693 16.1992L7.83065 14.6008C5.45898 18.3675 3.85821 22.5141 3.02493 27.0277L5.97507 27.5723ZM10.3587 16.2158C12.5506 12.8341 15.5671 10.0269 19.4465 7.80104L17.9535 5.19894C13.6995 7.63975 10.3161 10.7659 7.84127 14.5842L10.3587 16.2158ZM19.4374 7.80623C23.2748 5.63996 28.3625 4.5 34.8 4.5V1.5C28.0375 1.5 22.3919 2.69337 17.9626 5.19376L19.4374 7.80623ZM34.8 4.5C41.2393 4.5 46.2881 5.64058 50.0535 7.80104L51.5465 5.19894C47.1786 2.69275 41.5607 1.5 34.8 1.5V4.5ZM50.0626 7.80623C54.0048 10.0317 57.0113 12.8332 59.1307 16.1992L61.6694 14.6008C59.2554 10.7668 55.8618 7.63498 51.5374 5.19376L50.0626 7.80623ZM59.1413 16.2158C61.3646 19.6461 62.8597 23.4272 63.6249 27.5723L66.5751 27.0277C65.7403 22.5061 64.1021 18.3539 61.6587 14.5842L59.1413 16.2158ZM63.6257 27.5764C64.4103 31.7612 64.8 35.7684 64.8 39.6H67.8C67.8 35.565 67.3897 31.3721 66.5743 27.0236L63.6257 27.5764ZM64.8 39.6C64.8 43.4319 64.4103 47.4736 63.6249 51.7277L66.5751 52.2723C67.3897 47.8597 67.8 43.6348 67.8 39.6H64.8ZM63.6257 51.7236C62.8613 55.8004 61.367 59.5502 59.1413 62.9842L61.6587 64.6158C64.0997 60.8498 65.7387 56.7329 66.5743 52.2764L63.6257 51.7236ZM59.1307 63.0008C57.0113 66.3668 54.0048 69.1683 50.0626 71.3938L51.5374 74.0062C55.8618 71.565 59.2554 68.4332 61.6694 64.5992L59.1307 63.0008ZM50.0535 71.3989C46.2881 73.5594 41.2393 74.7 34.8 74.7V77.7C41.5607 77.7 47.1786 76.5072 51.5465 74.0011L50.0535 71.3989ZM34.8 59.4C36.6064 59.4 38.1637 58.7322 39.3335 57.3824L37.0665 55.4176C36.503 56.0678 35.7937 56.4 34.8 56.4V59.4ZM39.3642 57.3459C40.4028 56.0676 41.1188 54.4823 41.5586 52.6501L38.6414 51.9499C38.2812 53.451 37.7305 54.5991 37.0358 55.4541L39.3642 57.3459ZM41.5484 52.69C42.0466 50.8397 42.3591 48.77 42.4973 46.4907L39.5028 46.3093C39.3742 48.43 39.0868 50.2937 38.6516 51.91L41.5484 52.69ZM42.4938 46.5358C42.6982 44.2882 42.8 41.9762 42.8 39.6H39.8C39.8 41.8905 39.7018 44.1118 39.5062 46.2642L42.4938 46.5358ZM42.8 39.6C42.8 37.2238 42.6982 34.9118 42.4938 32.6642L39.5062 32.9358C39.7018 35.0882 39.8 37.3095 39.8 39.6H42.8ZM42.4973 32.7093C42.3591 30.4304 42.0463 28.388 41.5444 26.5956L38.6556 27.4044C39.087 28.9454 39.3742 30.7696 39.5028 32.8907L42.4973 32.7093ZM41.5616 26.6627C41.1247 24.7694 40.4062 23.1553 39.3335 21.9176L37.0665 23.8824C37.7271 24.6447 38.2753 25.7639 38.6384 27.3373L41.5616 26.6627ZM39.3642 21.9541C38.2066 20.5294 36.6419 19.8 34.8 19.8V22.8C35.7581 22.8 36.4601 23.1373 37.0358 23.8459L39.3642 21.9541ZM34.8 19.8C32.9581 19.8 31.3934 20.5294 30.2358 21.9541L32.5642 23.8459C33.1399 23.1373 33.8419 22.8 34.8 22.8V19.8ZM30.2287 21.963C29.2588 23.1753 28.5519 24.7518 28.0516 26.61L30.9484 27.39C31.3815 25.7815 31.9412 24.6247 32.5713 23.837L30.2287 21.963ZM28.0556 26.5956C27.5586 28.3702 27.2123 30.3969 27.0062 32.6642L29.9938 32.9358C30.1877 30.8031 30.508 28.9631 30.9444 27.4044L28.0556 26.5956ZM27.0028 32.7093C26.8675 34.9412 26.8 37.2381 26.8 39.6H29.8C29.8 37.2952 29.8659 35.0588 29.9973 32.8907L27.0028 32.7093ZM26.8 39.6C26.8 41.9618 26.8675 44.2588 27.0028 46.4907L29.9973 46.3093C29.8659 44.1412 29.8 41.9048 29.8 39.6H26.8ZM27.0062 46.5358C27.2123 48.8029 27.5581 50.857 28.0516 52.69L30.9484 51.91C30.5086 50.2764 30.1877 48.3971 29.9938 46.2642L27.0062 46.5358ZM28.0556 52.7044C28.5581 54.4993 29.2608 56.0477 30.2 57.3L32.6 55.5C31.9392 54.6189 31.3752 53.434 30.9444 51.8956L28.0556 52.7044ZM30.2665 57.3824C31.4363 58.7322 32.9937 59.4 34.8 59.4V56.4C33.8064 56.4 33.097 56.0678 32.5335 55.4176L30.2665 57.3824Z" fill="white"/>
</svg>
