<svg width="65" height="79" viewBox="0 0 65 79" fill="none" xmlns="http://www.w3.org/2000/svg">
<path d="M52.8 23.7C50.4667 22.7 48.3333 21.9667 46.4 21.5C44.5333 20.9667 42.2667 20.7 39.6 20.7C35.6 20.7 32.4667 21.8 30.2 24C28 26.2 26.4667 29.1667 25.6 32.9C27.7333 31.1667 29.8333 30 31.9 29.4C34.0333 28.7333 36.1667 28.4 38.3 28.4C42.3667 28.4 45.9 28.9667 48.9 30.1C51.9 31.1667 54.3333 32.7 56.2 34.7C58.1333 36.6333 59.5667 38.9667 60.5 41.7C61.4333 44.4333 61.9 47.4667 61.9 50.8C61.9 54.6 61.2 58.0667 59.8 61.2C58.4667 64.3333 56.5667 67 54.1 69.2C51.7 71.4 48.7667 73.1333 45.3 74.4C41.9 75.6 38.1333 76.2 34 76.2C27.6 76.2 22.4333 75.1333 18.5 73C14.6333 70.8 11.6 68 9.4 64.6C7.26667 61.1333 5.83333 57.2667 5.1 53C4.36667 48.7333 4 44.5 4 40.3C4 35.3667 4.7 30.6667 6.1 26.2C7.5 21.6667 9.56667 17.7 12.3 14.3C15.0333 10.8333 18.3667 8.1 22.3 6.1C26.3 4.03333 30.9 3 36.1 3C38.5667 3 40.8333 3.13333 42.9 3.4C44.9667 3.6 46.9 3.93333 48.7 4.4C50.5 4.86666 52.2333 5.46666 53.9 6.2C55.6333 6.86666 57.3667 7.63333 59.1 8.5L52.8 23.7ZM33.7 60.3C35.8333 60.3 37.5 59.5333 38.7 58C39.9 56.4667 40.5 54.3667 40.5 51.7C40.5 49.0333 39.9 47 38.7 45.6C37.5 44.2 35.8333 43.5 33.7 43.5C31.5667 43.5 29.9 44.3 28.7 45.9C27.5667 47.4333 27 49.3667 27 51.7C27 54.3667 27.5667 56.4667 28.7 58C29.9 59.5333 31.5667 60.3 33.7 60.3Z" fill="black"/>
<path d="M52.8 23.7L52.2091 25.0787L53.6044 25.6767L54.1857 24.2743L52.8 23.7ZM46.4 21.5L45.9879 22.9423L46.0178 22.9508L46.048 22.9581L46.4 21.5ZM30.2 24L29.1553 22.9236L29.1473 22.9314L29.1393 22.9393L30.2 24ZM25.6 32.9L24.1389 32.5608L23.1492 36.824L26.5459 34.0642L25.6 32.9ZM31.9 29.4L32.3182 30.8405L32.3329 30.8363L32.3474 30.8317L31.9 29.4ZM48.9 30.1L48.3699 31.5032L48.3836 31.5084L48.3975 31.5133L48.9 30.1ZM56.2 34.7L55.1034 35.7235L55.1211 35.7424L55.1393 35.7607L56.2 34.7ZM60.5 41.7L59.0805 42.1847L60.5 41.7ZM59.8 61.2L58.4305 60.5881L58.425 60.6003L58.4198 60.6127L59.8 61.2ZM54.1 69.2L53.1016 68.0806L53.0939 68.0874L53.0864 68.0943L54.1 69.2ZM45.3 74.4L45.7992 75.8145L45.807 75.8117L45.8148 75.8089L45.3 74.4ZM18.5 73L17.7582 74.3037L17.7715 74.3113L17.7849 74.3186L18.5 73ZM9.4 64.6L8.12251 65.3861L8.13142 65.4006L8.14065 65.4149L9.4 64.6ZM5.1 53L6.57832 52.7459L5.1 53ZM6.1 26.2L7.53135 26.6486L7.53321 26.6426L6.1 26.2ZM12.3 14.3L13.4691 15.2398L13.4735 15.2343L13.4779 15.2287L12.3 14.3ZM22.3 6.1L22.9799 7.43711L22.9885 7.43264L22.3 6.1ZM42.9 3.4L42.708 4.88766L42.7317 4.89072L42.7555 4.89302L42.9 3.4ZM48.7 4.4L48.3236 5.85199V5.85199L48.7 4.4ZM53.9 6.2L53.2959 7.57297L53.3284 7.58727L53.3615 7.60002L53.9 6.2ZM59.1 8.5L60.4857 9.07433L61.0208 7.78333L59.7708 7.15836L59.1 8.5ZM38.7 58L37.5187 57.0755L38.7 58ZM38.7 45.6L37.5611 46.5762H37.5611L38.7 45.6ZM28.7 45.9L27.5 45L27.4937 45.0084L28.7 45.9ZM28.7 58L27.4937 58.8916L27.506 58.9082L27.5187 58.9245L28.7 58ZM53.3909 22.3213C51.0003 21.2967 48.7858 20.5328 46.752 20.0419L46.048 22.9581C47.8809 23.4005 49.9331 24.1033 52.2091 25.0787L53.3909 22.3213ZM46.8121 20.0577C44.772 19.4748 42.358 19.2 39.6 19.2V22.2C42.1753 22.2 44.2947 22.4585 45.9879 22.9423L46.8121 20.0577ZM39.6 19.2C35.3187 19.2 31.7712 20.3846 29.1553 22.9236L31.2447 25.0764C33.1621 23.2154 35.8813 22.2 39.6 22.2V19.2ZM29.1393 22.9393C26.6996 25.3791 25.0542 28.6176 24.1389 32.5608L27.0611 33.2392C27.8791 29.7157 29.3004 27.0209 31.2607 25.0607L29.1393 22.9393ZM26.5459 34.0642C28.565 32.4236 30.4895 31.3714 32.3182 30.8405L31.4818 27.9595C29.1771 28.6286 26.9017 29.9097 24.6541 31.7358L26.5459 34.0642ZM32.3474 30.8317C34.3429 30.2081 36.3255 29.9 38.3 29.9V26.9C36.0078 26.9 33.7238 27.2585 31.4526 27.9683L32.3474 30.8317ZM38.3 29.9C42.232 29.9 45.5779 30.4485 48.3699 31.5032L49.4301 28.6968C46.2221 27.4849 42.5013 26.9 38.3 26.9V29.9ZM48.3975 31.5133C51.2083 32.5127 53.4256 33.9258 55.1034 35.7235L57.2966 33.6765C55.241 31.4741 52.5918 29.8206 49.4025 28.6867L48.3975 31.5133ZM55.1393 35.7607C56.9015 37.5228 58.2169 39.6557 59.0805 42.1847L61.9195 41.2153C60.9164 38.2776 59.3652 35.7438 57.2607 33.6393L55.1393 35.7607ZM59.0805 42.1847C59.953 44.74 60.4 47.6066 60.4 50.8H63.4C63.4 47.3267 62.9136 44.1266 61.9195 41.2153L59.0805 42.1847ZM60.4 50.8C60.4 54.4119 59.7356 57.667 58.4305 60.5881L61.1695 61.8119C62.6644 58.4663 63.4 54.7881 63.4 50.8H60.4ZM58.4198 60.6127C57.1703 63.549 55.3983 66.0322 53.1016 68.0806L55.0984 70.3194C57.7351 67.9678 59.7631 65.1177 61.1802 61.7873L58.4198 60.6127ZM53.0864 68.0943C50.8493 70.145 48.0919 71.7829 44.7852 72.9911L45.8148 75.8089C49.4414 74.4838 52.5507 72.6551 55.1136 70.3057L53.0864 68.0943ZM44.8008 72.9855C41.5827 74.1213 37.9878 74.7 34 74.7V77.7C38.2789 77.7 42.2173 77.0787 45.7992 75.8145L44.8008 72.9855ZM34 74.7C27.749 74.7 22.8547 73.6555 19.2151 71.6814L17.7849 74.3186C22.0119 76.6112 27.451 77.7 34 77.7V74.7ZM19.2418 71.6963C15.5634 69.6034 12.716 66.9636 10.6594 63.7851L8.14065 65.4149C10.484 69.0364 13.7033 71.9966 17.7582 74.3037L19.2418 71.6963ZM10.6775 63.8139C8.65067 60.5203 7.28134 56.8362 6.57832 52.7459L3.62168 53.2541C4.38533 57.6972 5.88267 61.7464 8.12251 65.3861L10.6775 63.8139ZM6.57832 52.7459C5.85897 48.5606 5.5 44.4123 5.5 40.3H2.5C2.5 44.5877 2.87436 48.9061 3.62168 53.2541L6.57832 52.7459ZM5.5 40.3C5.5 35.5106 6.17925 30.9624 7.53134 26.6486L4.66866 25.7514C3.22075 30.3709 2.5 35.2227 2.5 40.3H5.5ZM7.53321 26.6426C8.88225 22.2743 10.8644 18.4798 13.4691 15.2398L11.1309 13.3602C8.26894 16.9202 6.11775 21.059 4.66679 25.7574L7.53321 26.6426ZM13.4779 15.2287C16.0768 11.9325 19.2402 9.33858 22.9799 7.43708L21.6201 4.76292C17.4931 6.86142 13.9899 9.73411 11.1221 13.3713L13.4779 15.2287ZM22.9885 7.43264C26.7449 5.49186 31.1023 4.5 36.1 4.5V1.5C30.6977 1.5 25.8551 2.5748 21.6115 4.76736L22.9885 7.43264ZM36.1 4.5C38.5138 4.5 40.7153 4.63054 42.708 4.88766L43.092 1.91233C40.9513 1.63612 38.6196 1.5 36.1 1.5V4.5ZM42.7555 4.89302C44.7528 5.08631 46.6079 5.40718 48.3236 5.85199L49.0764 2.948C47.1921 2.45947 45.1805 2.11368 43.0445 1.90697L42.7555 4.89302ZM48.3236 5.85199C50.0473 6.29889 51.7044 6.87272 53.2959 7.57297L54.5041 4.82703C52.7622 4.06061 50.9527 3.43443 49.0764 2.948L48.3236 5.85199ZM53.3615 7.60002C55.0479 8.24863 56.7371 8.99562 58.4292 9.84164L59.7708 7.15836C57.9962 6.27104 56.2187 5.4847 54.4385 4.79998L53.3615 7.60002ZM57.7143 7.92566L51.4143 23.1257L54.1857 24.2743L60.4857 9.07433L57.7143 7.92566ZM33.7 61.8C36.244 61.8 38.3672 60.8591 39.8813 58.9245L37.5187 57.0755C36.6328 58.2075 35.4226 58.8 33.7 58.8V61.8ZM39.8813 58.9245C41.3523 57.0447 42 54.5793 42 51.7H39C39 54.154 38.4477 55.8886 37.5187 57.0755L39.8813 58.9245ZM42 51.7C42 48.8319 41.3568 46.3947 39.8389 44.6238L37.5611 46.5762C38.4432 47.6053 39 49.2348 39 51.7H42ZM39.8389 44.6238C38.3077 42.8375 36.1949 42 33.7 42V45C35.4718 45 36.6923 45.5625 37.5611 46.5762L39.8389 44.6238ZM33.7 42C31.1312 42 29.0046 42.9939 27.5 45L29.9 46.8C30.7954 45.6061 32.0022 45 33.7 45V42ZM27.4937 45.0084C26.1302 46.8531 25.5 49.119 25.5 51.7H28.5C28.5 49.6144 29.0031 48.0135 29.9063 46.7916L27.4937 45.0084ZM25.5 51.7C25.5 54.563 26.1069 57.0153 27.4937 58.8916L29.9063 57.1084C29.0264 55.9181 28.5 54.1704 28.5 51.7H25.5ZM27.5187 58.9245C29.0328 60.8591 31.156 61.8 33.7 61.8V58.8C31.9774 58.8 30.7672 58.2075 29.8813 57.0755L27.5187 58.9245Z" fill="white"/>
</svg>
