<svg width="62" height="79" viewBox="0 0 62 79" fill="none" xmlns="http://www.w3.org/2000/svg">
<path d="M30.1 23.4H1V4.2H57.8V18.4L31.6 75H5.4L30.1 23.4Z" fill="black"/>
<path d="M30.1 23.4L31.453 24.0476L32.481 21.9H30.1V23.4ZM1 23.4H-0.5V24.9H1V23.4ZM1 4.2V2.7H-0.5V4.2H1ZM57.8 4.2H59.3V2.7H57.8V4.2ZM57.8 18.4L59.1612 19.0301L59.3 18.7303V18.4H57.8ZM31.6 75V76.5H32.5586L32.9612 75.6301L31.6 75ZM5.4 75L4.04702 74.3524L3.01898 76.5H5.4V75ZM30.1 21.9H1V24.9H30.1V21.9ZM2.5 23.4V4.2H-0.5V23.4H2.5ZM1 5.7H57.8V2.7H1V5.7ZM56.3 4.2V18.4H59.3V4.2H56.3ZM56.4388 17.7699L30.2388 74.3699L32.9612 75.6301L59.1612 19.0301L56.4388 17.7699ZM31.6 73.5H5.4V76.5H31.6V73.5ZM6.75298 75.6476L31.453 24.0476L28.747 22.7523L4.04702 74.3524L6.75298 75.6476Z" fill="white"/>
</svg>
