<svg width="65" height="79" viewBox="0 0 65 79" fill="none" xmlns="http://www.w3.org/2000/svg">
<path d="M6.5 54.2C9.16667 55.6667 12.0667 56.8 15.2 57.6C18.3333 58.3333 21.6333 58.7 25.1 58.7C28.9667 58.7 32.2 57.6 34.8 55.4C37.4 53.1333 38.9333 50.0667 39.4 46.2C37.2667 47.9333 35.0667 49.1333 32.8 49.8C30.5333 50.4667 28.3333 50.8 26.2 50.8C22.3333 50.8 18.9333 50.2333 16 49.1C13.0667 47.9667 10.6 46.4 8.6 44.4C6.66667 42.3333 5.2 39.9 4.2 37.1C3.2 34.3 2.7 31.2333 2.7 27.9C2.7 24.1667 3.36667 20.7667 4.7 17.7C6.1 14.6333 8.03333 12.0333 10.5 9.9C12.9667 7.7 15.8667 6 19.2 4.8C22.6 3.6 26.3 3 30.3 3C36.7667 3 41.9667 4.1 45.9 6.3C49.9 8.43333 53 11.2333 55.2 14.7C57.4 18.1 58.8667 21.9333 59.6 26.2C60.3333 30.4667 60.7 34.7 60.7 38.9C60.7 44.5 60 49.6 58.6 54.2C57.2 58.8 55.1 62.7333 52.3 66C49.5667 69.2667 46.2 71.8 42.2 73.6C38.2 75.3333 33.6 76.2 28.4 76.2C26.0667 76.2 23.9333 76.1333 22 76C20.1333 75.8667 18.3333 75.6333 16.6 75.3C14.8667 75.0333 13.1667 74.6333 11.5 74.1C9.9 73.5667 8.23333 72.9 6.5 72.1V54.2ZM30.8 35.4C32.9333 35.4 34.5667 34.6333 35.7 33.1C36.8333 31.5 37.4 29.5333 37.4 27.2C37.4 24.5333 36.8 22.5333 35.6 21.2C34.4667 19.8 32.8333 19.1 30.7 19.1C28.5667 19.1 26.9 19.8 25.7 21.2C24.5 22.5333 23.9 24.5333 23.9 27.2C23.9 29.8667 24.5 31.9 25.7 33.3C26.9667 34.7 28.6667 35.4 30.8 35.4Z" fill="black"/>
<path d="M6.5 54.2L7.22288 52.8857L5 51.6631V54.2H6.5ZM15.2 57.6L14.8289 59.0534L14.8435 59.0571L14.8582 59.0605L15.2 57.6ZM34.8 55.4L35.7689 56.5451L35.7774 56.5379L35.7857 56.5307L34.8 55.4ZM39.4 46.2L40.8892 46.3797L41.3338 42.6961L38.4541 45.0358L39.4 46.2ZM32.8 49.8L33.2233 51.239L32.8 49.8ZM16 49.1L15.4594 50.4992L16 49.1ZM8.6 44.4L7.50459 45.4247L7.52167 45.443L7.53934 45.4607L8.6 44.4ZM4.2 37.1L2.78739 37.6045L4.2 37.1ZM4.7 17.7L3.33547 17.0771L3.32982 17.0894L3.3244 17.1019L4.7 17.7ZM10.5 9.9L11.4812 11.0345L11.4899 11.0271L11.4984 11.0194L10.5 9.9ZM19.2 4.8L18.7008 3.38548L18.6919 3.38867L19.2 4.8ZM45.9 6.3L45.1678 7.60913L45.1809 7.61646L45.1941 7.62353L45.9 6.3ZM55.2 14.7L53.9335 15.5038L53.9407 15.5149L55.2 14.7ZM59.6 26.2L58.1217 26.4541V26.4541L59.6 26.2ZM58.6 54.2L60.035 54.6367L58.6 54.2ZM52.3 66L51.1611 65.0238L51.1553 65.0306L51.1496 65.0374L52.3 66ZM42.2 73.6L42.7964 74.9763L42.806 74.9722L42.8155 74.9679L42.2 73.6ZM22 76L21.8931 77.4962L21.8968 77.4964L22 76ZM16.6 75.3L16.8833 73.827L16.8558 73.8217L16.8281 73.8174L16.6 75.3ZM11.5 74.1L11.0257 75.523L11.0342 75.5259L11.0428 75.5286L11.5 74.1ZM6.5 72.1H5V73.0597L5.87141 73.4619L6.5 72.1ZM35.7 33.1L36.9063 33.9916L36.9153 33.9794L36.924 33.967L35.7 33.1ZM35.6 21.2L34.4341 22.1438L34.4588 22.1743L34.4851 22.2034L35.6 21.2ZM25.7 21.2L26.8149 22.2034L26.8271 22.19L26.8389 22.1762L25.7 21.2ZM25.7 33.3L24.5611 34.2762L24.5742 34.2915L24.5877 34.3064L25.7 33.3ZM5.77712 55.5143C8.56143 57.0457 11.5806 58.224 14.8289 59.0534L15.5711 56.1466C12.5528 55.376 9.77191 54.2876 7.22288 52.8857L5.77712 55.5143ZM14.8582 59.0605C18.1118 59.822 21.5271 60.2 25.1 60.2V57.2C21.7396 57.2 18.5548 56.8446 15.5418 56.1395L14.8582 59.0605ZM25.1 60.2C29.2705 60.2 32.8615 59.0052 35.7689 56.5451L33.8311 54.2549C31.5385 56.1948 28.6629 57.2 25.1 57.2V60.2ZM35.7857 56.5307C38.7018 53.9884 40.3842 50.5637 40.8892 46.3797L37.9108 46.0203C37.4824 49.5697 36.0982 52.2783 33.8143 54.2693L35.7857 56.5307ZM38.4541 45.0358C36.4501 46.6641 34.4242 47.7588 32.3768 48.361L33.2233 51.239C35.7092 50.5079 38.0832 49.2026 40.3459 47.3642L38.4541 45.0358ZM32.3768 48.361C30.2329 48.9915 28.1756 49.3 26.2 49.3V52.3C28.4911 52.3 30.8337 51.9418 33.2233 51.239L32.3768 48.361ZM26.2 49.3C22.4771 49.3 19.2669 48.7542 16.5406 47.7008L15.4594 50.4992C18.5997 51.7125 22.1895 52.3 26.2 52.3V49.3ZM16.5406 47.7008C13.7804 46.6344 11.497 45.1757 9.66066 43.3393L7.53934 45.4607C9.70295 47.6243 12.3529 49.299 15.4594 50.4992L16.5406 47.7008ZM9.69541 43.3753C7.90934 41.466 6.54714 39.2122 5.61261 36.5955L2.78739 37.6045C3.85286 40.5878 5.42399 43.2006 7.50459 45.4247L9.69541 43.3753ZM5.61261 36.5955C4.677 33.9758 4.2 31.082 4.2 27.9H1.2C1.2 31.3846 1.723 34.6242 2.78739 37.6045L5.61261 36.5955ZM4.2 27.9C4.2 24.3484 4.83339 21.1552 6.07561 18.2981L3.3244 17.1019C1.89995 20.3781 1.2 23.9849 1.2 27.9H4.2ZM6.06453 18.3229C7.37811 15.4456 9.18316 13.0221 11.4812 11.0345L9.51877 8.76545C6.88351 11.0446 4.82189 13.8211 3.33547 17.0771L6.06453 18.3229ZM11.4984 11.0194C13.8118 8.95617 16.5423 7.35102 19.7081 6.21133L18.6919 3.38867C15.1911 4.64897 12.1215 6.44382 9.50158 8.78055L11.4984 11.0194ZM19.6992 6.21448C22.9223 5.07692 26.4516 4.5 30.3 4.5V1.5C26.1484 1.5 22.2777 2.12307 18.7008 3.38551L19.6992 6.21448ZM30.3 4.5C36.615 4.5 41.5346 5.57702 45.1678 7.60913L46.6322 4.99086C42.3987 2.62298 36.9184 1.5 30.3 1.5V4.5ZM45.1941 7.62353C48.9899 9.64793 51.8864 12.2781 53.9335 15.5037L56.4665 13.8963C54.1136 10.1886 50.8101 7.21873 46.6059 4.97647L45.1941 7.62353ZM53.9407 15.5149C56.0231 18.7331 57.4203 22.3732 58.1217 26.4541L61.0783 25.9459C60.3131 21.4934 58.777 17.4668 56.4594 13.8851L53.9407 15.5149ZM58.1217 26.4541C58.841 30.6394 59.2 34.7877 59.2 38.9H62.2C62.2 34.6123 61.8256 30.2939 61.0783 25.9459L58.1217 26.4541ZM59.2 38.9C59.2 44.3758 58.5155 49.3259 57.165 53.7633L60.035 54.6367C61.4845 49.8741 62.2 44.6242 62.2 38.9H59.2ZM57.165 53.7633C55.8182 58.1883 53.8111 61.9321 51.1611 65.0238L53.4389 66.9762C56.3889 63.5345 58.5818 59.4117 60.035 54.6367L57.165 53.7633ZM51.1496 65.0374C48.5661 68.1251 45.3842 70.5222 41.5845 72.2321L42.8155 74.9679C47.0158 73.0778 50.5673 70.4083 53.4504 66.9626L51.1496 65.0374ZM41.6036 72.2237C37.8245 73.8613 33.4337 74.7 28.4 74.7V77.7C33.7663 77.7 38.5755 76.8054 42.7964 74.9763L41.6036 72.2237ZM28.4 74.7C26.0944 74.7 23.9961 74.6341 22.1032 74.5036L21.8968 77.4964C23.8706 77.6326 26.0389 77.7 28.4 77.7V74.7ZM22.1069 74.5038C20.2959 74.3745 18.5549 74.1485 16.8833 73.827L16.3167 76.773C18.1117 77.1182 19.9708 77.3589 21.8931 77.4962L22.1069 74.5038ZM16.8281 73.8174C15.1722 73.5627 13.5488 73.1807 11.9572 72.6714L11.0428 75.5286C12.7845 76.086 14.5611 76.504 16.3719 76.7826L16.8281 73.8174ZM11.9743 72.677C10.4332 72.1632 8.8181 71.5178 7.12859 70.7381L5.87141 73.4619C7.64857 74.2822 9.36685 74.9701 11.0257 75.523L11.9743 72.677ZM8 72.1V54.2H5V72.1H8ZM30.8 36.9C33.344 36.9 35.4535 35.9571 36.9063 33.9916L34.4937 32.2084C33.6798 33.3096 32.5226 33.9 30.8 33.9V36.9ZM36.924 33.967C38.269 32.0683 38.9 29.7835 38.9 27.2H35.9C35.9 29.2832 35.3977 30.9317 34.476 32.233L36.924 33.967ZM38.9 27.2C38.9 24.3389 38.2597 21.9129 36.7149 20.1965L34.4851 22.2034C35.3403 23.1538 35.9 24.7278 35.9 27.2H38.9ZM36.7659 20.2562C35.294 18.438 33.1931 17.6 30.7 17.6V20.6C32.4736 20.6 33.6393 21.162 34.4341 22.1438L36.7659 20.2562ZM30.7 17.6C28.2051 17.6 26.0923 18.4375 24.5611 20.2238L26.8389 22.1762C27.7077 21.1625 28.9282 20.6 30.7 20.6V17.6ZM24.5851 20.1966C23.0403 21.9129 22.4 24.3389 22.4 27.2H25.4C25.4 24.7278 25.9597 23.1538 26.8149 22.2034L24.5851 20.1966ZM22.4 27.2C22.4 30.0681 23.0432 32.5052 24.5611 34.2762L26.8389 32.3238C25.9568 31.2947 25.4 29.6652 25.4 27.2H22.4ZM24.5877 34.3064C26.1773 36.0633 28.3038 36.9 30.8 36.9V33.9C29.0295 33.9 27.7561 33.3367 26.8123 32.2936L24.5877 34.3064Z" fill="white"/>
</svg>
