<svg width="66" height="79" viewBox="0 0 66 79" fill="none" xmlns="http://www.w3.org/2000/svg">
<path d="M32.5 30C34.1667 30 35.5333 29.4333 36.6 28.3C37.6667 27.1 38.2 25.6 38.2 23.8C38.2 22 37.6667 20.5333 36.6 19.4C35.5333 18.2 34.1667 17.6 32.5 17.6C30.9667 17.6 29.6667 18.2 28.6 19.4C27.5333 20.5333 27 22 27 23.8C27 25.6 27.5333 27.1 28.6 28.3C29.6667 29.4333 30.9667 30 32.5 30ZM32.5 60.6C34.5667 60.6 36.2667 59.9333 37.6 58.6C38.9333 57.2 39.6 55.4 39.6 53.2C39.6 51 38.9 49.2 37.5 47.8C36.1667 46.4 34.5 45.7 32.5 45.7C30.5667 45.7 28.9 46.4 27.5 47.8C26.1667 49.2 25.5 51 25.5 53.2C25.5 55.4 26.1667 57.2 27.5 58.6C28.9 59.9333 30.5667 60.6 32.5 60.6ZM14 37.1C12.4667 36.2333 11.1667 35.2 10.1 34C9.1 32.7333 8.26667 31.4667 7.6 30.2C6.93333 28.8667 6.43333 27.5333 6.1 26.2C5.83333 24.8667 5.7 23.6667 5.7 22.6C5.7 19.4 6.36667 16.6 7.7 14.2C9.03333 11.7333 10.8667 9.66666 13.2 8C15.6 6.33333 18.4333 5.1 21.7 4.3C24.9667 3.43333 28.5667 3 32.5 3C36.4333 3 40.0333 3.43333 43.3 4.3C46.6333 5.1 49.5 6.33333 51.9 8C54.3 9.66666 56.1667 11.7333 57.5 14.2C58.8333 16.6 59.5 19.4 59.5 22.6C59.5 23.6667 59.3333 24.8333 59 26.1C58.7333 27.3667 58.2667 28.6667 57.6 30C57 31.2667 56.1667 32.5333 55.1 33.8C54.0333 35 52.7333 36.1 51.2 37.1C52.9333 37.8333 54.4667 38.8 55.8 40C57.2 41.1333 58.3667 42.4333 59.3 43.9C60.3 45.3667 61.0333 46.9333 61.5 48.6C62.0333 50.2667 62.3 51.9333 62.3 53.6C62.3 57 61.6333 60.1 60.3 62.9C58.9667 65.6333 57 68 54.4 70C51.8667 72 48.7333 73.5333 45 74.6C41.3333 75.6667 37.1667 76.2 32.5 76.2C27.8333 76.2 23.6667 75.7 20 74.7C16.3333 73.6333 13.2333 72.1667 10.7 70.3C8.16667 68.4333 6.23333 66.2 4.9 63.6C3.56667 60.9333 2.9 57.9667 2.9 54.7C2.9 51.1 3.83333 47.7 5.7 44.5C7.63333 41.2333 10.4 38.7667 14 37.1Z" fill="black"/>
<path d="M36.6 28.3L37.6923 29.328L37.7069 29.3125L37.7211 29.2965L36.6 28.3ZM36.6 19.4L35.4789 20.3965L35.4931 20.4125L35.5077 20.428L36.6 19.4ZM28.6 19.4L29.6923 20.428L29.7069 20.4125L29.7211 20.3965L28.6 19.4ZM28.6 28.3L27.4789 29.2965L27.4931 29.3125L27.5077 29.328L28.6 28.3ZM37.6 58.6L38.6607 59.6607L38.6736 59.6477L38.6862 59.6345L37.6 58.6ZM37.5 47.8L36.4138 48.8345L36.4264 48.8477L36.4393 48.8607L37.5 47.8ZM27.5 47.8L26.4393 46.7393L26.4264 46.7523L26.4138 46.7655L27.5 47.8ZM27.5 58.6L26.4138 59.6345L26.439 59.661L26.4655 59.6862L27.5 58.6ZM14 37.1L14.6302 38.4612L17.2834 37.2328L14.7381 35.7942L14 37.1ZM10.1 34L8.92268 34.9295L8.9498 34.9638L8.97889 34.9965L10.1 34ZM7.6 30.2L6.25836 30.8708L6.26535 30.8848L6.27262 30.8986L7.6 30.2ZM6.1 26.2L4.62913 26.4942L4.63613 26.5292L4.64479 26.5638L6.1 26.2ZM7.7 14.2L9.01124 14.9285L9.01544 14.9209L9.01956 14.9133L7.7 14.2ZM13.2 8L12.3444 6.76794L12.3362 6.77362L12.3281 6.7794L13.2 8ZM21.7 4.3L22.0568 5.75694L22.0708 5.75353L22.0847 5.74984L21.7 4.3ZM43.3 4.3L42.9154 5.74984L42.9326 5.75442L42.9499 5.75858L43.3 4.3ZM51.9 8L52.7556 6.76794L52.7556 6.76794L51.9 8ZM57.5 14.2L56.1804 14.9133L56.1846 14.9209L56.1888 14.9285L57.5 14.2ZM59 26.1L57.5494 25.7183L57.5399 25.7544L57.5322 25.791L59 26.1ZM57.6 30L56.2584 29.3292L56.2512 29.3434L56.2444 29.3579L57.6 30ZM55.1 33.8L56.2211 34.7965L56.2344 34.7815L56.2474 34.7662L55.1 33.8ZM51.2 37.1L50.3806 35.8436L48.0198 37.3832L50.6155 38.4815L51.2 37.1ZM55.8 40L54.7966 41.1149L54.8257 41.1412L54.8562 41.1659L55.8 40ZM59.3 43.9L58.0345 44.7053L58.0473 44.7254L58.0607 44.745L59.3 43.9ZM61.5 48.6L60.0556 49.0044L60.063 49.0309L60.0714 49.0572L61.5 48.6ZM60.3 62.9L61.6482 63.5577L61.6543 63.5449L60.3 62.9ZM54.4 70L53.4854 68.8111L53.4779 68.8168L53.4705 68.8227L54.4 70ZM45 74.6L44.5879 73.1577L44.581 73.1597L45 74.6ZM20 74.7L19.581 76.1403L19.5931 76.1438L19.6053 76.1471L20 74.7ZM4.9 63.6L3.55836 64.2708L3.56178 64.2777L3.56527 64.2845L4.9 63.6ZM5.7 44.5L4.40911 43.736L4.40433 43.7442L5.7 44.5ZM32.5 31.5C34.5475 31.5 36.3205 30.7856 37.6923 29.328L35.5077 27.272C34.7462 28.081 33.7858 28.5 32.5 28.5V31.5ZM37.7211 29.2965C39.0618 27.7882 39.7 25.9196 39.7 23.8H36.7C36.7 25.2804 36.2715 26.4117 35.4789 27.3035L37.7211 29.2965ZM39.7 23.8C39.7 21.6821 39.0617 19.827 37.6923 18.3719L35.5077 20.428C36.2716 21.2397 36.7 22.3179 36.7 23.8H39.7ZM37.7211 18.4034C36.3577 16.8696 34.5766 16.1 32.5 16.1V19.1C33.7568 19.1 34.709 19.5304 35.4789 20.3965L37.7211 18.4034ZM32.5 16.1C30.5158 16.1 28.815 16.9003 27.4789 18.4034L29.7211 20.3965C30.5183 19.4997 31.4175 19.1 32.5 19.1V16.1ZM27.5077 18.3719C26.1383 19.827 25.5 21.6821 25.5 23.8H28.5C28.5 22.3179 28.9284 21.2397 29.6923 20.428L27.5077 18.3719ZM25.5 23.8C25.5 25.9196 26.1382 27.7882 27.4789 29.2965L29.7211 27.3035C28.9285 26.4117 28.5 25.2804 28.5 23.8H25.5ZM27.5077 29.328C28.853 30.7574 30.5461 31.5 32.5 31.5V28.5C31.3872 28.5 30.4803 28.1092 29.6923 27.272L27.5077 29.328ZM32.5 62.1C34.9225 62.1 37.0176 61.3037 38.6607 59.6607L36.5393 57.5393C35.5157 58.563 34.2109 59.1 32.5 59.1V62.1ZM38.6862 59.6345C40.3223 57.9166 41.1 55.7278 41.1 53.2H38.1C38.1 55.0722 37.5444 56.4834 36.5138 57.5655L38.6862 59.6345ZM41.1 53.2C41.1 50.6506 40.2745 48.4531 38.5607 46.7393L36.4393 48.8607C37.5255 49.9469 38.1 51.3494 38.1 53.2H41.1ZM38.5862 46.7655C36.959 45.0569 34.8946 44.2 32.5 44.2V47.2C34.1054 47.2 35.3744 47.7431 36.4138 48.8345L38.5862 46.7655ZM32.5 44.2C30.1582 44.2 28.1131 45.0656 26.4393 46.7393L28.5607 48.8607C29.6869 47.7344 30.9751 47.2 32.5 47.2V44.2ZM26.4138 46.7655C24.7777 48.4834 24 50.6722 24 53.2H27C27 51.3278 27.5556 49.9166 28.5862 48.8345L26.4138 46.7655ZM24 53.2C24 55.7278 24.7777 57.9166 26.4138 59.6345L28.5862 57.5655C27.5556 56.4834 27 55.0722 27 53.2H24ZM26.4655 59.6862C28.1444 61.2852 30.1815 62.1 32.5 62.1V59.1C30.9518 59.1 29.6556 58.5815 28.5345 57.5138L26.4655 59.6862ZM14.7381 35.7942C13.3347 35.0009 12.1679 34.0686 11.2211 33.0035L8.97889 34.9965C10.1655 36.3314 11.5986 37.4657 13.2619 38.4058L14.7381 35.7942ZM11.2773 33.0705C10.3272 31.8671 9.5462 30.6771 8.92738 29.5014L6.27262 30.8986C6.98713 32.2562 7.87276 33.5996 8.92268 34.9295L11.2773 33.0705ZM8.94164 29.5292C8.31983 28.2855 7.85987 27.0548 7.55521 25.8362L4.64479 26.5638C5.00679 28.0118 5.54684 29.4478 6.25836 30.8708L8.94164 29.5292ZM7.57087 25.9058C7.31858 24.6444 7.2 23.5453 7.2 22.6H4.2C4.2 23.788 4.34809 25.089 4.62913 26.4942L7.57087 25.9058ZM7.2 22.6C7.2 19.6124 7.82081 17.0712 9.01124 14.9285L6.38876 13.4715C4.91252 16.1288 4.2 19.1876 4.2 22.6H7.2ZM9.01956 14.9133C10.2417 12.6523 11.9201 10.7576 14.0719 9.2206L12.3281 6.7794C9.81324 8.57576 7.82494 10.8144 6.38044 13.4867L9.01956 14.9133ZM14.0556 9.23205C16.2835 7.68487 18.9422 6.51971 22.0568 5.75694L21.3432 2.84305C17.9245 3.68028 14.9165 4.98179 12.3444 6.76794L14.0556 9.23205ZM22.0847 5.74984C25.2073 4.92138 28.6759 4.5 32.5 4.5V1.5C28.4575 1.5 24.726 1.94528 21.3153 2.85016L22.0847 5.74984ZM32.5 4.5C36.3242 4.5 39.7927 4.92138 42.9154 5.74984L43.6847 2.85016C40.274 1.94528 36.5425 1.5 32.5 1.5V4.5ZM42.9499 5.75858C46.133 6.5225 48.8214 7.68831 51.0444 9.23205L52.7556 6.76794C50.1786 4.97835 47.1337 3.67749 43.6501 2.84142L42.9499 5.75858ZM51.0444 9.23205C53.2596 10.7704 54.9637 12.6623 56.1804 14.9133L58.8196 13.4867C57.3696 10.8043 55.3404 8.56295 52.7556 6.76794L51.0444 9.23205ZM56.1888 14.9285C57.3792 17.0712 58 19.6124 58 22.6H61C61 19.1876 60.2875 16.1288 58.8112 13.4715L56.1888 14.9285ZM58 22.6C58 23.5125 57.8571 24.5491 57.5494 25.7183L60.4506 26.4817C60.8096 25.1176 61 23.8208 61 22.6H58ZM57.5322 25.791C57.2956 26.9149 56.8761 28.0936 56.2584 29.3292L58.9416 30.6708C59.6572 29.2397 60.1711 27.8185 60.4678 26.409L57.5322 25.791ZM56.2444 29.3579C55.7085 30.4892 54.9508 31.6484 53.9526 32.8338L56.2474 34.7662C57.3825 33.4182 58.2915 32.0441 58.9556 30.6421L56.2444 29.3579ZM53.9789 32.8035C53.0122 33.891 51.8176 34.9064 50.3806 35.8436L52.0194 38.3564C53.6491 37.2936 55.0545 36.109 56.2211 34.7965L53.9789 32.8035ZM50.6155 38.4815C52.203 39.1531 53.5931 40.0318 54.7966 41.1149L56.8035 38.8851C55.3402 37.5682 53.6637 36.5136 51.7845 35.7185L50.6155 38.4815ZM54.8562 41.1659C56.1348 42.2009 57.1913 43.3803 58.0345 44.7053L60.5655 43.0947C59.542 41.4863 58.2652 40.0658 56.7438 38.8341L54.8562 41.1659ZM58.0607 44.745C58.9712 46.0804 59.634 47.4988 60.0556 49.0044L62.9444 48.1956C62.4327 46.3678 61.6288 44.6529 60.5393 43.055L58.0607 44.745ZM60.0714 49.0572C60.5598 50.5835 60.8 52.0961 60.8 53.6H63.8C63.8 51.7706 63.5069 49.9499 62.9286 48.1428L60.0714 49.0572ZM60.8 53.6C60.8 56.7986 60.1742 59.6753 58.9457 62.2551L61.6543 63.5449C63.0925 60.5247 63.8 57.2014 63.8 53.6H60.8ZM58.9519 62.2424C57.7279 64.7514 55.9166 66.941 53.4854 68.8111L55.3146 71.1889C58.0835 69.059 60.2054 66.5153 61.6482 63.5576L58.9519 62.2424ZM53.4705 68.8227C51.1185 70.6795 48.1705 72.1341 44.5879 73.1577L45.4121 76.0423C49.2962 74.9325 52.6148 73.3205 55.3295 71.1773L53.4705 68.8227ZM44.581 73.1597C41.0767 74.1791 37.0551 74.7 32.5 74.7V77.7C37.2782 77.7 41.5899 77.1542 45.419 76.0403L44.581 73.1597ZM32.5 74.7C27.9376 74.7 23.9074 74.2109 20.3947 73.2529L19.6053 76.1471C23.4259 77.1891 27.7291 77.7 32.5 77.7V74.7ZM20.419 73.2597C16.8867 72.2321 13.9544 70.8348 11.5898 69.0924L9.8102 71.5076C12.5123 73.4986 15.78 75.0345 19.581 76.1403L20.419 73.2597ZM11.5898 69.0924C9.22856 67.3526 7.45418 65.2935 6.23473 62.9155L3.56527 64.2845C5.01249 67.1065 7.10478 69.5141 9.8102 71.5076L11.5898 69.0924ZM6.24164 62.9292C5.02213 60.4902 4.4 57.7564 4.4 54.7H1.4C1.4 58.1769 2.11121 61.3765 3.55836 64.2708L6.24164 62.9292ZM4.4 54.7C4.4 51.3735 5.25875 48.2334 6.99567 45.2558L4.40433 43.7442C2.40792 47.1666 1.4 50.8265 1.4 54.7H4.4ZM6.99087 45.264C8.76228 42.2709 11.2926 40.0064 14.6302 38.4612L13.3698 35.7388C9.50738 37.527 6.50439 40.1958 4.40914 43.736L6.99087 45.264Z" fill="white"/>
</svg>
