<svg width="84" height="105" viewBox="0 0 84 105" fill="none" xmlns="http://www.w3.org/2000/svg">
<path d="M2.46133 63H8.96133L26.4613 9.2H57.6613L75.0613 63H81.5613V80H56.0613L52.2613 66.6H30.0613L26.2613 80H2.46133V63ZM46.9613 48.2L41.1613 28.2L35.3613 48.2H46.9613Z" fill="black"/>
<path d="M2.46133 63V61.5H0.961328V63H2.46133ZM8.96133 63V64.5H10.0508L10.3878 63.464L8.96133 63ZM26.4613 9.2V7.7H25.3719L25.0349 8.73601L26.4613 9.2ZM57.6613 9.2L59.0885 8.73841L58.7527 7.7H57.6613V9.2ZM75.0613 63L73.6341 63.4616L73.97 64.5H75.0613V63ZM81.5613 63H83.0613V61.5H81.5613V63ZM81.5613 80V81.5H83.0613V80H81.5613ZM56.0613 80L54.6182 80.4092L54.9276 81.5H56.0613V80ZM52.2613 66.6L53.7044 66.1908L53.3951 65.1H52.2613V66.6ZM30.0613 66.6V65.1H28.9276L28.6182 66.1908L30.0613 66.6ZM26.2613 80V81.5H27.3951L27.7044 80.4092L26.2613 80ZM2.46133 80H0.961328V81.5H2.46133V80ZM46.9613 48.2V49.7H48.9581L48.402 47.7822L46.9613 48.2ZM41.1613 28.2L42.602 27.7822L41.1613 22.8145L39.7207 27.7822L41.1613 28.2ZM35.3613 48.2L33.9207 47.7822L33.3645 49.7H35.3613V48.2ZM2.46133 64.5H8.96133V61.5H2.46133V64.5ZM10.3878 63.464L27.8878 9.66399L25.0349 8.73601L7.53489 62.536L10.3878 63.464ZM26.4613 10.7H57.6613V7.7H26.4613V10.7ZM56.2341 9.66159L73.6341 63.4616L76.4885 62.5384L59.0885 8.73841L56.2341 9.66159ZM75.0613 64.5H81.5613V61.5H75.0613V64.5ZM80.0613 63V80H83.0613V63H80.0613ZM81.5613 78.5H56.0613V81.5H81.5613V78.5ZM57.5044 79.5908L53.7044 66.1908L50.8182 67.0092L54.6182 80.4092L57.5044 79.5908ZM52.2613 65.1H30.0613V68.1H52.2613V65.1ZM28.6182 66.1908L24.8182 79.5908L27.7044 80.4092L31.5044 67.0092L28.6182 66.1908ZM26.2613 78.5H2.46133V81.5H26.2613V78.5ZM3.96133 80V63H0.961328V80H3.96133ZM48.402 47.7822L42.602 27.7822L39.7207 28.6178L45.5207 48.6178L48.402 47.7822ZM39.7207 27.7822L33.9207 47.7822L36.802 48.6178L42.602 28.6178L39.7207 27.7822ZM35.3613 49.7H46.9613V46.7H35.3613V49.7Z" fill="white"/>
</svg>
