<svg width="84" height="95" viewBox="0 0 84 95" fill="none" xmlns="http://www.w3.org/2000/svg">
<path d="M2.46133 58H8.96133L26.4613 4.2H57.6613L75.0613 58H81.5613V75H56.0613L52.2613 61.6H30.0613L26.2613 75H2.46133V58ZM46.9613 43.2L41.1613 23.2L35.3613 43.2H46.9613Z" fill="black"/>
<path d="M2.46133 58V56.5H0.961328V58H2.46133ZM8.96133 58V59.5H10.0508L10.3878 58.464L8.96133 58ZM26.4613 4.2V2.7H25.3719L25.0349 3.73601L26.4613 4.2ZM57.6613 4.2L59.0885 3.73841L58.7527 2.7H57.6613V4.2ZM75.0613 58L73.6341 58.4616L73.97 59.5H75.0613V58ZM81.5613 58H83.0613V56.5H81.5613V58ZM81.5613 75V76.5H83.0613V75H81.5613ZM56.0613 75L54.6182 75.4092L54.9276 76.5H56.0613V75ZM52.2613 61.6L53.7044 61.1908L53.3951 60.1H52.2613V61.6ZM30.0613 61.6V60.1H28.9276L28.6182 61.1908L30.0613 61.6ZM26.2613 75V76.5H27.3951L27.7044 75.4092L26.2613 75ZM2.46133 75H0.961328V76.5H2.46133V75ZM46.9613 43.2V44.7H48.9581L48.402 42.7822L46.9613 43.2ZM41.1613 23.2L42.602 22.7822L41.1613 17.8145L39.7207 22.7822L41.1613 23.2ZM35.3613 43.2L33.9207 42.7822L33.3645 44.7H35.3613V43.2ZM2.46133 59.5H8.96133V56.5H2.46133V59.5ZM10.3878 58.464L27.8878 4.66399L25.0349 3.73601L7.53489 57.536L10.3878 58.464ZM26.4613 5.7H57.6613V2.7H26.4613V5.7ZM56.2341 4.66159L73.6341 58.4616L76.4885 57.5384L59.0885 3.73841L56.2341 4.66159ZM75.0613 59.5H81.5613V56.5H75.0613V59.5ZM80.0613 58V75H83.0613V58H80.0613ZM81.5613 73.5H56.0613V76.5H81.5613V73.5ZM57.5044 74.5908L53.7044 61.1908L50.8182 62.0092L54.6182 75.4092L57.5044 74.5908ZM52.2613 60.1H30.0613V63.1H52.2613V60.1ZM28.6182 61.1908L24.8182 74.5908L27.7044 75.4092L31.5044 62.0092L28.6182 61.1908ZM26.2613 73.5H2.46133V76.5H26.2613V73.5ZM3.96133 75V58H0.961328V75H3.96133ZM48.402 42.7822L42.602 22.7822L39.7207 23.6178L45.5207 43.6178L48.402 42.7822ZM39.7207 22.7822L33.9207 42.7822L36.802 43.6178L42.602 23.6178L39.7207 22.7822ZM35.3613 44.7H46.9613V41.7H35.3613V44.7Z" fill="white"/>
</svg>
