<svg width="73" height="95" viewBox="0 0 73 95" fill="none" xmlns="http://www.w3.org/2000/svg">
<path d="M2.86953 58H9.56953V21.2H2.86953V4.2H40.3695C45.6362 4.2 49.9695 4.73333 53.3695 5.8C56.7695 6.8 59.4029 8.16666 61.2695 9.9C63.2029 11.5667 64.5362 13.5 65.2695 15.7C66.0029 17.9 66.3695 20.1333 66.3695 22.4C66.3695 26.3333 65.4029 29.5 63.4695 31.9C61.5362 34.3 59.3029 36.0333 56.7695 37.1C61.1029 38.4333 64.3695 40.6667 66.5695 43.8C68.8362 46.9333 69.9695 50.3667 69.9695 54.1C69.9695 60.7667 67.7695 65.9333 63.3695 69.6C58.9695 73.2 52.6362 75 44.3695 75H2.86953V58ZM37.5695 31.4C39.9029 31.4 41.4695 30.9 42.2695 29.9C43.1362 28.9 43.5695 27.6333 43.5695 26.1C43.5695 24.7 43.1362 23.5333 42.2695 22.6C41.4695 21.6 39.9029 21.1 37.5695 21.1H31.8695V31.4H37.5695ZM38.4695 57.7C40.6029 57.7 42.2695 57.1667 43.4695 56.1C44.7362 55.0333 45.3695 53.5667 45.3695 51.7C45.3695 49.7667 44.7362 48.3 43.4695 47.3C42.2695 46.2333 40.6029 45.7 38.4695 45.7H31.8695V57.7H38.4695Z" fill="black"/>
<path d="M2.86953 58V56.5H1.36953V58H2.86953ZM9.56953 58V59.5H11.0695V58H9.56953ZM9.56953 21.2H11.0695V19.7H9.56953V21.2ZM2.86953 21.2H1.36953V22.7H2.86953V21.2ZM2.86953 4.2V2.7H1.36953V4.2H2.86953ZM53.3695 5.8L52.9205 7.23122L52.9334 7.23525L52.9463 7.23905L53.3695 5.8ZM61.2695 9.9L60.2489 10.9992L60.2691 11.018L60.2901 11.0361L61.2695 9.9ZM65.2695 15.7L66.6926 15.2257L65.2695 15.7ZM63.4695 31.9L62.3014 30.959L63.4695 31.9ZM56.7695 37.1L56.1874 35.7175L52.3826 37.3196L56.3284 38.5337L56.7695 37.1ZM66.5695 43.8L65.3419 44.6619L65.348 44.6706L65.3542 44.6792L66.5695 43.8ZM63.3695 69.6L64.3194 70.761L64.3298 70.7523L63.3695 69.6ZM2.86953 75H1.36953V76.5H2.86953V75ZM42.2695 29.9L41.136 28.9176L41.1167 28.9399L41.0982 28.963L42.2695 29.9ZM42.2695 22.6L41.0982 23.537L41.1327 23.5802L41.1703 23.6207L42.2695 22.6ZM31.8695 21.1V19.6H30.3695V21.1H31.8695ZM31.8695 31.4H30.3695V32.9H31.8695V31.4ZM43.4695 56.1L42.5033 54.9526L42.488 54.9656L42.473 54.9789L43.4695 56.1ZM43.4695 47.3L42.473 48.4211L42.5057 48.4502L42.5401 48.4773L43.4695 47.3ZM31.8695 45.7V44.2H30.3695V45.7H31.8695ZM31.8695 57.7H30.3695V59.2H31.8695V57.7ZM2.86953 59.5H9.56953V56.5H2.86953V59.5ZM11.0695 58V21.2H8.06953V58H11.0695ZM9.56953 19.7H2.86953V22.7H9.56953V19.7ZM4.36953 21.2V4.2H1.36953V21.2H4.36953ZM2.86953 5.7H40.3695V2.7H2.86953V5.7ZM40.3695 5.7C45.5494 5.7 49.7174 6.2263 52.9205 7.23122L53.8185 4.36878C50.2217 3.24036 45.723 2.7 40.3695 2.7V5.7ZM52.9463 7.23905C56.2056 8.19766 58.6055 9.47326 60.2489 10.9992L62.2902 8.80081C60.2002 6.86007 57.3335 5.40233 53.7928 4.36095L52.9463 7.23905ZM60.2901 11.0361C62.0399 12.5445 63.2071 14.2562 63.8465 16.1743L66.6926 15.2257C65.8653 12.7437 64.3659 10.5888 62.2489 8.76388L60.2901 11.0361ZM63.8465 16.1743C64.5301 18.225 64.8695 20.2983 64.8695 22.4H67.8695C67.8695 19.9684 67.4757 17.575 66.6926 15.2257L63.8465 16.1743ZM64.8695 22.4C64.8695 26.0872 63.9665 28.892 62.3014 30.959L64.6377 32.841C66.8392 30.108 67.8695 26.5795 67.8695 22.4H64.8695ZM62.3014 30.959C60.5047 33.1894 58.4653 34.7585 56.1874 35.7175L57.3516 38.4825C60.1404 37.3082 62.5677 35.4106 64.6377 32.841L62.3014 30.959ZM56.3284 38.5337C60.4042 39.7878 63.3669 41.8491 65.3419 44.6619L67.7972 42.9381C65.3721 39.4842 61.8015 37.0789 57.2107 35.6663L56.3284 38.5337ZM65.3542 44.6792C67.4429 47.5665 68.4695 50.6943 68.4695 54.1H71.4695C71.4695 50.0391 70.2295 46.3002 67.7849 42.9208L65.3542 44.6792ZM68.4695 54.1C68.4695 60.4028 66.4094 65.1142 62.4093 68.4477L64.3298 70.7523C69.1297 66.7524 71.4695 61.1305 71.4695 54.1H68.4695ZM62.4197 68.4391C58.386 71.7394 52.4428 73.5 44.3695 73.5V76.5C52.8296 76.5 59.5531 74.6606 64.3194 70.7609L62.4197 68.4391ZM44.3695 73.5H2.86953V76.5H44.3695V73.5ZM4.36953 75V58H1.36953V75H4.36953ZM37.5695 32.9C40.0063 32.9 42.1918 32.3983 43.4408 30.837L41.0982 28.963C40.7472 29.4017 39.7994 29.9 37.5695 29.9V32.9ZM43.4031 30.8824C44.543 29.5671 45.0695 27.9335 45.0695 26.1H42.0695C42.0695 27.3331 41.7294 28.2329 41.136 28.9176L43.4031 30.8824ZM45.0695 26.1C45.0695 24.3622 44.5195 22.8186 43.3687 21.5793L41.1703 23.6207C41.7529 24.248 42.0695 25.0378 42.0695 26.1H45.0695ZM43.4408 21.663C42.1918 20.1017 40.0063 19.6 37.5695 19.6V22.6C39.7994 22.6 40.7472 23.0983 41.0982 23.537L43.4408 21.663ZM37.5695 19.6H31.8695V22.6H37.5695V19.6ZM30.3695 21.1V31.4H33.3695V21.1H30.3695ZM31.8695 32.9H37.5695V29.9H31.8695V32.9ZM38.4695 59.2C40.8475 59.2 42.9118 58.6027 44.4661 57.2211L42.473 54.9789C41.6272 55.7307 40.3583 56.2 38.4695 56.2V59.2ZM44.4357 57.2474C46.0864 55.8573 46.8695 53.9459 46.8695 51.7H43.8695C43.8695 53.1874 43.386 54.2093 42.5033 54.9526L44.4357 57.2474ZM46.8695 51.7C46.8695 49.4089 46.0986 47.4645 44.399 46.1227L42.5401 48.4773C43.3738 49.1355 43.8695 50.1245 43.8695 51.7H46.8695ZM44.4661 46.1789C42.9118 44.7973 40.8475 44.2 38.4695 44.2V47.2C40.3583 47.2 41.6272 47.6693 42.473 48.4211L44.4661 46.1789ZM38.4695 44.2H31.8695V47.2H38.4695V44.2ZM30.3695 45.7V57.7H33.3695V45.7H30.3695ZM31.8695 59.2H38.4695V56.2H31.8695V59.2Z" fill="white"/>
</svg>
