<svg width="73" height="105" viewBox="0 0 73 105" fill="none" xmlns="http://www.w3.org/2000/svg">
<path d="M2.86953 63H9.56953V26.2H2.86953V9.2H40.3695C45.6362 9.2 49.9695 9.73333 53.3695 10.8C56.7695 11.8 59.4029 13.1667 61.2695 14.9C63.2029 16.5667 64.5362 18.5 65.2695 20.7C66.0029 22.9 66.3695 25.1333 66.3695 27.4C66.3695 31.3333 65.4029 34.5 63.4695 36.9C61.5362 39.3 59.3029 41.0333 56.7695 42.1C61.1029 43.4333 64.3695 45.6667 66.5695 48.8C68.8362 51.9333 69.9695 55.3667 69.9695 59.1C69.9695 65.7667 67.7695 70.9333 63.3695 74.6C58.9695 78.2 52.6362 80 44.3695 80H2.86953V63ZM37.5695 36.4C39.9029 36.4 41.4695 35.9 42.2695 34.9C43.1362 33.9 43.5695 32.6333 43.5695 31.1C43.5695 29.7 43.1362 28.5333 42.2695 27.6C41.4695 26.6 39.9029 26.1 37.5695 26.1H31.8695V36.4H37.5695ZM38.4695 62.7C40.6029 62.7 42.2695 62.1667 43.4695 61.1C44.7362 60.0333 45.3695 58.5667 45.3695 56.7C45.3695 54.7667 44.7362 53.3 43.4695 52.3C42.2695 51.2333 40.6029 50.7 38.4695 50.7H31.8695V62.7H38.4695Z" fill="black"/>
<path d="M2.86953 63V61.5H1.36953V63H2.86953ZM9.56953 63V64.5H11.0695V63H9.56953ZM9.56953 26.2H11.0695V24.7H9.56953V26.2ZM2.86953 26.2H1.36953V27.7H2.86953V26.2ZM2.86953 9.2V7.7H1.36953V9.2H2.86953ZM53.3695 10.8L52.9205 12.2312L52.9334 12.2352L52.9463 12.239L53.3695 10.8ZM61.2695 14.9L60.2489 15.9992L60.2691 16.018L60.2901 16.0361L61.2695 14.9ZM65.2695 20.7L66.6926 20.2257L65.2695 20.7ZM63.4695 36.9L62.3014 35.959L63.4695 36.9ZM56.7695 42.1L56.1874 40.7175L52.3826 42.3196L56.3284 43.5337L56.7695 42.1ZM66.5695 48.8L65.3419 49.6619L65.348 49.6706L65.3542 49.6792L66.5695 48.8ZM63.3695 74.6L64.3194 75.761L64.3298 75.7523L63.3695 74.6ZM2.86953 80H1.36953V81.5H2.86953V80ZM42.2695 34.9L41.136 33.9176L41.1167 33.9399L41.0982 33.963L42.2695 34.9ZM42.2695 27.6L41.0982 28.537L41.1327 28.5802L41.1703 28.6207L42.2695 27.6ZM31.8695 26.1V24.6H30.3695V26.1H31.8695ZM31.8695 36.4H30.3695V37.9H31.8695V36.4ZM43.4695 61.1L42.5033 59.9526L42.488 59.9656L42.473 59.9789L43.4695 61.1ZM43.4695 52.3L42.473 53.4211L42.5057 53.4502L42.5401 53.4773L43.4695 52.3ZM31.8695 50.7V49.2H30.3695V50.7H31.8695ZM31.8695 62.7H30.3695V64.2H31.8695V62.7ZM2.86953 64.5H9.56953V61.5H2.86953V64.5ZM11.0695 63V26.2H8.06953V63H11.0695ZM9.56953 24.7H2.86953V27.7H9.56953V24.7ZM4.36953 26.2V9.2H1.36953V26.2H4.36953ZM2.86953 10.7H40.3695V7.7H2.86953V10.7ZM40.3695 10.7C45.5494 10.7 49.7174 11.2263 52.9205 12.2312L53.8185 9.36878C50.2217 8.24036 45.723 7.7 40.3695 7.7V10.7ZM52.9463 12.239C56.2056 13.1977 58.6055 14.4733 60.2489 15.9992L62.2902 13.8008C60.2002 11.8601 57.3335 10.4023 53.7928 9.36095L52.9463 12.239ZM60.2901 16.0361C62.0399 17.5445 63.2071 19.2562 63.8465 21.1743L66.6926 20.2257C65.8653 17.7437 64.3659 15.5888 62.2489 13.7639L60.2901 16.0361ZM63.8465 21.1743C64.5301 23.225 64.8695 25.2983 64.8695 27.4H67.8695C67.8695 24.9684 67.4757 22.575 66.6926 20.2257L63.8465 21.1743ZM64.8695 27.4C64.8695 31.0872 63.9665 33.892 62.3014 35.959L64.6377 37.841C66.8392 35.108 67.8695 31.5795 67.8695 27.4H64.8695ZM62.3014 35.959C60.5047 38.1894 58.4653 39.7585 56.1874 40.7175L57.3516 43.4825C60.1404 42.3082 62.5677 40.4106 64.6377 37.841L62.3014 35.959ZM56.3284 43.5337C60.4042 44.7878 63.3669 46.8491 65.3419 49.6619L67.7972 47.9381C65.3721 44.4842 61.8015 42.0789 57.2107 40.6663L56.3284 43.5337ZM65.3542 49.6792C67.4429 52.5665 68.4695 55.6943 68.4695 59.1H71.4695C71.4695 55.0391 70.2295 51.3002 67.7849 47.9208L65.3542 49.6792ZM68.4695 59.1C68.4695 65.4028 66.4094 70.1142 62.4093 73.4477L64.3298 75.7523C69.1297 71.7524 71.4695 66.1305 71.4695 59.1H68.4695ZM62.4197 73.4391C58.386 76.7394 52.4428 78.5 44.3695 78.5V81.5C52.8296 81.5 59.5531 79.6606 64.3194 75.7609L62.4197 73.4391ZM44.3695 78.5H2.86953V81.5H44.3695V78.5ZM4.36953 80V63H1.36953V80H4.36953ZM37.5695 37.9C40.0063 37.9 42.1918 37.3983 43.4408 35.837L41.0982 33.963C40.7472 34.4017 39.7994 34.9 37.5695 34.9V37.9ZM43.4031 35.8824C44.543 34.5671 45.0695 32.9335 45.0695 31.1H42.0695C42.0695 32.3331 41.7294 33.2329 41.136 33.9176L43.4031 35.8824ZM45.0695 31.1C45.0695 29.3622 44.5195 27.8186 43.3687 26.5793L41.1703 28.6207C41.7529 29.248 42.0695 30.0378 42.0695 31.1H45.0695ZM43.4408 26.663C42.1918 25.1017 40.0063 24.6 37.5695 24.6V27.6C39.7994 27.6 40.7472 28.0983 41.0982 28.537L43.4408 26.663ZM37.5695 24.6H31.8695V27.6H37.5695V24.6ZM30.3695 26.1V36.4H33.3695V26.1H30.3695ZM31.8695 37.9H37.5695V34.9H31.8695V37.9ZM38.4695 64.2C40.8475 64.2 42.9118 63.6027 44.4661 62.2211L42.473 59.9789C41.6272 60.7307 40.3583 61.2 38.4695 61.2V64.2ZM44.4357 62.2474C46.0864 60.8573 46.8695 58.9459 46.8695 56.7H43.8695C43.8695 58.1874 43.386 59.2093 42.5033 59.9526L44.4357 62.2474ZM46.8695 56.7C46.8695 54.4089 46.0986 52.4645 44.399 51.1227L42.5401 53.4773C43.3738 54.1355 43.8695 55.1245 43.8695 56.7H46.8695ZM44.4661 51.1789C42.9118 49.7973 40.8475 49.2 38.4695 49.2V52.2C40.3583 52.2 41.6272 52.6693 42.473 53.4211L44.4661 51.1789ZM38.4695 49.2H31.8695V52.2H38.4695V49.2ZM30.3695 50.7V62.7H33.3695V50.7H30.3695ZM31.8695 64.2H38.4695V61.2H31.8695V64.2Z" fill="white"/>
</svg>
