<svg width="77" height="95" viewBox="0 0 77 95" fill="none" xmlns="http://www.w3.org/2000/svg">
<path d="M2.86758 58H9.56758V21.2H2.86758V4.2H34.1676C40.8342 4.2 46.6342 5.03333 51.5676 6.7C56.5009 8.36666 60.5676 10.7333 63.7676 13.8C67.0342 16.8667 69.4676 20.6 71.0676 25C72.6676 29.3333 73.4676 34.2 73.4676 39.6C73.4676 45 72.6676 49.9 71.0676 54.3C69.5342 58.6333 67.1676 62.3333 63.9676 65.4C60.7676 68.4667 56.7676 70.8333 51.9676 72.5C47.1676 74.1667 41.5676 75 35.1676 75H2.86758V58ZM34.9676 56.5C36.6342 56.5 38.2009 56.2 39.6676 55.6C41.2009 55 42.5342 54.0333 43.6676 52.7C44.8676 51.3667 45.8009 49.6667 46.4676 47.6C47.2009 45.4667 47.5676 42.8667 47.5676 39.8C47.5676 36.6667 47.2676 34.0333 46.6676 31.9C46.0676 29.7 45.2009 27.9333 44.0676 26.6C43.0009 25.2667 41.7009 24.3 40.1676 23.7C38.7009 23.1 37.0676 22.8 35.2676 22.8H32.6676V56.5H34.9676Z" fill="black"/>
<path d="M2.86758 58V56.5H1.36758V58H2.86758ZM9.56758 58V59.5H11.0676V58H9.56758ZM9.56758 21.2H11.0676V19.7H9.56758V21.2ZM2.86758 21.2H1.36758V22.7H2.86758V21.2ZM2.86758 4.2V2.7H1.36758V4.2H2.86758ZM63.7676 13.8L62.7297 14.883L62.7353 14.8883L62.7409 14.8936L63.7676 13.8ZM71.0676 25L69.6579 25.5126L69.6604 25.5196L71.0676 25ZM71.0676 54.3L69.6578 53.7874L69.6535 53.7996L71.0676 54.3ZM63.9676 65.4L62.9297 64.317L63.9676 65.4ZM51.9676 72.5L51.4756 71.083L51.9676 72.5ZM2.86758 75H1.36758V76.5H2.86758V75ZM39.6676 55.6L39.121 54.2031L39.1103 54.2073L39.0996 54.2117L39.6676 55.6ZM43.6676 52.7L42.5526 51.6966L42.5384 51.7123L42.5247 51.7285L43.6676 52.7ZM46.4676 47.6L45.049 47.1124L45.0444 47.1259L45.04 47.1395L46.4676 47.6ZM46.6676 31.9L45.2204 32.2947L45.2236 32.3061L46.6676 31.9ZM44.0676 26.6L42.8963 27.537L42.9102 27.5545L42.9247 27.5715L44.0676 26.6ZM40.1676 23.7L39.5996 25.0883L39.6103 25.0927L39.621 25.0969L40.1676 23.7ZM32.6676 22.8V21.3H31.1676V22.8H32.6676ZM32.6676 56.5H31.1676V58H32.6676V56.5ZM2.86758 59.5H9.56758V56.5H2.86758V59.5ZM11.0676 58V21.2H8.06758V58H11.0676ZM9.56758 19.7H2.86758V22.7H9.56758V19.7ZM4.36758 21.2V4.2H1.36758V21.2H4.36758ZM2.86758 5.7H34.1676V2.7H2.86758V5.7ZM34.1676 5.7C40.7144 5.7 46.3452 6.51898 51.0875 8.12109L52.0477 5.2789C46.9233 3.54769 40.9541 2.7 34.1676 2.7V5.7ZM51.0875 8.12109C55.8485 9.72954 59.714 11.9929 62.7297 14.883L64.8054 12.717C61.4211 9.47373 57.1533 7.00378 52.0477 5.2789L51.0875 8.12109ZM62.7409 14.8936C65.8284 17.792 68.1345 21.3234 69.6579 25.5126L72.4773 24.4874C70.8006 19.8766 68.2401 15.9413 64.7942 12.7064L62.7409 14.8936ZM69.6604 25.5196C71.1896 29.661 71.9676 34.3479 71.9676 39.6H74.9676C74.9676 34.0521 74.1456 29.0056 72.4747 24.4804L69.6604 25.5196ZM71.9676 39.6C71.9676 44.8516 71.1898 49.5748 69.6579 53.7874L72.4773 54.8126C74.1454 50.2252 74.9676 45.1484 74.9676 39.6H71.9676ZM69.6535 53.7996C68.1953 57.9205 65.9542 61.4186 62.9297 64.317L65.0054 66.483C68.381 63.2481 70.8732 59.3462 72.4817 54.8004L69.6535 53.7996ZM62.9297 64.317C59.9068 67.214 56.1015 69.4768 51.4756 71.083L52.4596 73.917C57.4337 72.1899 61.6284 69.7193 65.0054 66.483L62.9297 64.317ZM51.4756 71.083C46.8688 72.6826 41.4416 73.5 35.1676 73.5V76.5C41.6935 76.5 47.4664 75.6508 52.4596 73.917L51.4756 71.083ZM35.1676 73.5H2.86758V76.5H35.1676V73.5ZM4.36758 75V58H1.36758V75H4.36758ZM34.9676 58C36.8188 58 38.5794 57.6658 40.2355 56.9883L39.0996 54.2117C37.8225 54.7342 36.4497 55 34.9676 55V58ZM40.2142 56.9969C41.9929 56.3008 43.527 55.1815 44.8105 53.6715L42.5247 51.7285C41.5415 52.8852 40.409 53.6991 39.121 54.2031L40.2142 56.9969ZM44.7825 53.7034C46.1503 52.1837 47.177 50.2867 47.8951 48.0605L45.04 47.1395C44.4248 49.0467 43.5849 50.5496 42.5526 51.6966L44.7825 53.7034ZM47.8861 48.0876C48.6889 45.7523 49.0676 42.9771 49.0676 39.8H46.0676C46.0676 42.7563 45.7129 45.181 45.049 47.1124L47.8861 48.0876ZM49.0676 39.8C49.0676 36.5812 48.7605 33.8014 48.1116 31.4939L45.2236 32.3061C45.7746 34.2653 46.0676 36.7521 46.0676 39.8H49.0676ZM48.1147 31.5053C47.4737 29.1548 46.5226 27.1722 45.2105 25.6285L42.9247 27.5715C43.8792 28.6944 44.6615 30.2452 45.2204 32.2947L48.1147 31.5053ZM45.2389 25.663C44.0142 24.1322 42.5018 23.0026 40.7142 22.3031L39.621 25.0969C40.9001 25.5974 41.9876 26.4012 42.8963 27.537L45.2389 25.663ZM40.7355 22.3117C39.0657 21.6286 37.236 21.3 35.2676 21.3V24.3C36.8991 24.3 38.3361 24.5714 39.5996 25.0883L40.7355 22.3117ZM35.2676 21.3H32.6676V24.3H35.2676V21.3ZM31.1676 22.8V56.5H34.1676V22.8H31.1676ZM32.6676 58H34.9676V55H32.6676V58Z" fill="white"/>
</svg>
