<svg width="77" height="105" viewBox="0 0 77 105" fill="none" xmlns="http://www.w3.org/2000/svg">
<path d="M2.86758 63H9.56758V26.2H2.86758V9.2H34.1676C40.8342 9.2 46.6342 10.0333 51.5676 11.7C56.5009 13.3667 60.5676 15.7333 63.7676 18.8C67.0342 21.8667 69.4676 25.6 71.0676 30C72.6676 34.3333 73.4676 39.2 73.4676 44.6C73.4676 50 72.6676 54.9 71.0676 59.3C69.5342 63.6333 67.1676 67.3333 63.9676 70.4C60.7676 73.4667 56.7676 75.8333 51.9676 77.5C47.1676 79.1667 41.5676 80 35.1676 80H2.86758V63ZM34.9676 61.5C36.6342 61.5 38.2009 61.2 39.6676 60.6C41.2009 60 42.5342 59.0333 43.6676 57.7C44.8676 56.3667 45.8009 54.6667 46.4676 52.6C47.2009 50.4667 47.5676 47.8667 47.5676 44.8C47.5676 41.6667 47.2676 39.0333 46.6676 36.9C46.0676 34.7 45.2009 32.9333 44.0676 31.6C43.0009 30.2667 41.7009 29.3 40.1676 28.7C38.7009 28.1 37.0676 27.8 35.2676 27.8H32.6676V61.5H34.9676Z" fill="black"/>
<path d="M2.86758 63V61.5H1.36758V63H2.86758ZM9.56758 63V64.5H11.0676V63H9.56758ZM9.56758 26.2H11.0676V24.7H9.56758V26.2ZM2.86758 26.2H1.36758V27.7H2.86758V26.2ZM2.86758 9.2V7.7H1.36758V9.2H2.86758ZM63.7676 18.8L62.7297 19.883L62.7353 19.8883L62.7409 19.8936L63.7676 18.8ZM71.0676 30L69.6579 30.5126L69.6604 30.5196L71.0676 30ZM71.0676 59.3L69.6578 58.7874L69.6535 58.7996L71.0676 59.3ZM63.9676 70.4L62.9297 69.317L62.9297 69.317L63.9676 70.4ZM51.9676 77.5L51.4756 76.083L51.4756 76.083L51.9676 77.5ZM2.86758 80H1.36758V81.5H2.86758V80ZM39.6676 60.6L39.121 59.2031L39.1103 59.2073L39.0996 59.2117L39.6676 60.6ZM43.6676 57.7L42.5526 56.6966L42.5384 56.7123L42.5247 56.7285L43.6676 57.7ZM46.4676 52.6L45.049 52.1124L45.0444 52.1259L45.04 52.1395L46.4676 52.6ZM46.6676 36.9L45.2204 37.2947L45.2236 37.3061L46.6676 36.9ZM44.0676 31.6L42.8963 32.537L42.9102 32.5545L42.9247 32.5715L44.0676 31.6ZM40.1676 28.7L39.5996 30.0883L39.6103 30.0927L39.621 30.0969L40.1676 28.7ZM32.6676 27.8V26.3H31.1676V27.8H32.6676ZM32.6676 61.5H31.1676V63H32.6676V61.5ZM2.86758 64.5H9.56758V61.5H2.86758V64.5ZM11.0676 63V26.2H8.06758V63H11.0676ZM9.56758 24.7H2.86758V27.7H9.56758V24.7ZM4.36758 26.2V9.2H1.36758V26.2H4.36758ZM2.86758 10.7H34.1676V7.7H2.86758V10.7ZM34.1676 10.7C40.7144 10.7 46.3452 11.519 51.0875 13.1211L52.0477 10.2789C46.9233 8.54769 40.9541 7.7 34.1676 7.7V10.7ZM51.0875 13.1211C55.8485 14.7295 59.714 16.9929 62.7297 19.883L64.8054 17.717C61.4211 14.4737 57.1533 12.0038 52.0477 10.2789L51.0875 13.1211ZM62.7409 19.8936C65.8284 22.792 68.1345 26.3234 69.6579 30.5126L72.4773 29.4874C70.8006 24.8766 68.2401 20.9413 64.7942 17.7064L62.7409 19.8936ZM69.6604 30.5196C71.1896 34.6611 71.9676 39.3479 71.9676 44.6H74.9676C74.9676 39.0521 74.1456 34.0056 72.4747 29.4804L69.6604 30.5196ZM71.9676 44.6C71.9676 49.8516 71.1897 54.5748 69.6579 58.7874L72.4773 59.8126C74.1454 55.2252 74.9676 50.1484 74.9676 44.6H71.9676ZM69.6535 58.7996C68.1953 62.9205 65.9542 66.4186 62.9297 69.317L65.0054 71.483C68.381 68.2481 70.8732 64.3462 72.4817 59.8004L69.6535 58.7996ZM62.9297 69.317C59.9068 72.214 56.1015 74.4768 51.4756 76.083L52.4596 78.917C57.4337 77.1899 61.6284 74.7193 65.0054 71.483L62.9297 69.317ZM51.4756 76.083C46.8688 77.6826 41.4416 78.5 35.1676 78.5V81.5C41.6935 81.5 47.4664 80.6508 52.4596 78.917L51.4756 76.083ZM35.1676 78.5H2.86758V81.5H35.1676V78.5ZM4.36758 80V63H1.36758V80H4.36758ZM34.9676 63C36.8188 63 38.5794 62.6658 40.2355 61.9883L39.0996 59.2117C37.8225 59.7342 36.4497 60 34.9676 60V63ZM40.2142 61.9969C41.9929 61.3009 43.527 60.1815 44.8105 58.6715L42.5247 56.7285C41.5415 57.8852 40.409 58.6991 39.121 59.2031L40.2142 61.9969ZM44.7825 58.7034C46.1503 57.1837 47.177 55.2867 47.8951 53.0605L45.04 52.1395C44.4248 54.0467 43.5849 55.5496 42.5526 56.6966L44.7825 58.7034ZM47.8861 53.0876C48.6889 50.7523 49.0676 47.9771 49.0676 44.8H46.0676C46.0676 47.7563 45.7129 50.181 45.049 52.1124L47.8861 53.0876ZM49.0676 44.8C49.0676 41.5812 48.7605 38.8014 48.1116 36.4939L45.2236 37.3061C45.7746 39.2653 46.0676 41.7521 46.0676 44.8H49.0676ZM48.1147 36.5053C47.4737 34.1548 46.5226 32.1722 45.2105 30.6285L42.9247 32.5715C43.8792 33.6944 44.6615 35.2452 45.2204 37.2947L48.1147 36.5053ZM45.2389 30.663C44.0142 29.1322 42.5018 28.0026 40.7142 27.3031L39.621 30.0969C40.9001 30.5974 41.9876 31.4012 42.8963 32.537L45.2389 30.663ZM40.7355 27.3117C39.0657 26.6286 37.236 26.3 35.2676 26.3V29.3C36.8991 29.3 38.3361 29.5714 39.5996 30.0883L40.7355 27.3117ZM35.2676 26.3H32.6676V29.3H35.2676V26.3ZM31.1676 27.8V61.5H34.1676V27.8H31.1676ZM32.6676 63H34.9676V60H32.6676V63Z" fill="white"/>
</svg>
