<svg width="72" height="105" viewBox="0 0 72 105" fill="none" xmlns="http://www.w3.org/2000/svg">
<path d="M37.6133 22.2C37.6133 21.4667 37.4466 20.9 37.1133 20.5C36.7799 20.0333 36.2466 19.8 35.5133 19.8C34.7133 19.8 33.9466 19.9667 33.2133 20.3C32.5466 20.5667 31.8799 20.8667 31.2133 21.2L26.9133 10C27.9133 9.26666 29.1133 8.5 30.5133 7.7C31.9133 6.9 33.4133 6.16666 35.0133 5.49999C36.6133 4.83333 38.28 4.3 40.0133 3.9C41.7466 3.43333 43.4799 3.2 45.2133 3.2C48.4133 3.2 51.0133 3.6 53.0133 4.4C55.0133 5.13333 56.5466 6.19999 57.6133 7.6C58.7466 8.93333 59.4799 10.5333 59.8133 12.4C60.2133 14.2667 60.4133 16.3 60.4133 18.5V62.4C60.4133 63.1333 60.58 63.7333 60.9133 64.2C61.2466 64.6667 61.78 64.9 62.5133 64.9C63.3133 64.9 63.98 64.7667 64.5133 64.5C65.0466 64.2333 65.6466 63.9333 66.3133 63.6L69.3133 75.7C67.2466 77.2333 64.7133 78.5333 61.7133 79.6C58.7133 80.6667 55.7466 81.2 52.8133 81.2C49.4133 81.2 46.5799 80.6667 44.3133 79.6C42.1133 78.5333 40.4466 76.8 39.3133 74.4C37.2466 76.7333 35.0133 78.4667 32.6133 79.6C30.2799 80.6667 27.7799 81.2 25.1133 81.2C18.1133 81.2 12.6799 79.1 8.81328 74.9C5.01328 70.6333 3.11328 64 3.11328 55C3.11328 51.5333 3.54661 48.2333 4.41328 45.1C5.27995 41.9667 6.57995 39.2667 8.31328 37C10.1133 34.6667 12.3466 32.8333 15.0133 31.5C17.7466 30.1 20.9799 29.4 24.7133 29.4C27.9133 29.4 30.4799 29.9667 32.4133 31.1C34.3466 32.1667 36.08 33.5667 37.6133 35.3V22.2ZM32.8133 63.6C34.2799 63.6 35.3466 62.8667 36.0133 61.4C36.6799 59.9333 37.0133 57.9 37.0133 55.3C37.0133 52.6333 36.6799 50.5667 36.0133 49.1C35.4133 47.6333 34.3466 46.9 32.8133 46.9C31.2799 46.9 30.1799 47.6333 29.5133 49.1C28.9133 50.5667 28.6133 52.6333 28.6133 55.3C28.6133 57.9 28.9133 59.9333 29.5133 61.4C30.1799 62.8667 31.2799 63.6 32.8133 63.6Z" fill="black"/>
<path d="M37.1133 20.5L35.8927 21.3719L35.9252 21.4173L35.961 21.4603L37.1133 20.5ZM33.2133 20.3L33.7704 21.6927L33.8025 21.6799L33.834 21.6655L33.2133 20.3ZM31.2133 21.2L29.8129 21.7376L30.4055 23.281L31.8841 22.5416L31.2133 21.2ZM26.9133 10L26.0262 8.79039L25.1023 9.46796L25.5129 10.5376L26.9133 10ZM30.5133 7.7L29.7691 6.39763L29.7691 6.39763L30.5133 7.7ZM35.0133 5.49999L34.4364 4.11538L34.4364 4.11538L35.0133 5.49999ZM40.0133 3.9L40.3506 5.36158L40.377 5.35548L40.4032 5.34842L40.0133 3.9ZM53.0133 4.4L52.4562 5.79271L52.4764 5.80081L52.4969 5.80831L53.0133 4.4ZM57.6133 7.6L56.4201 8.50906L56.4444 8.54094L56.4704 8.57147L57.6133 7.6ZM59.8133 12.4L58.3366 12.6637L58.3412 12.6891L58.3466 12.7143L59.8133 12.4ZM60.9133 64.2L62.1339 63.3281L60.9133 64.2ZM64.5133 64.5L65.1841 65.8416L65.1841 65.8416L64.5133 64.5ZM66.3133 63.6L67.7692 63.239L67.3183 61.4204L65.6425 62.2584L66.3133 63.6ZM69.3133 75.7L70.2071 76.9046L71.0097 76.3091L70.7692 75.339L69.3133 75.7ZM61.7133 79.6L62.2158 81.0133L61.7133 79.6ZM44.3133 79.6L43.6589 80.9497L43.6667 80.9535L43.6746 80.9572L44.3133 79.6ZM39.3133 74.4L40.6697 73.7595L39.6984 71.7028L38.1904 73.4054L39.3133 74.4ZM32.6133 79.6L33.2369 80.9642L33.2454 80.9603L33.2538 80.9564L32.6133 79.6ZM8.81328 74.9L7.69313 75.8976L7.70136 75.9069L7.70973 75.916L8.81328 74.9ZM4.41328 45.1L5.859 45.4999L4.41328 45.1ZM8.31328 37L7.1256 36.0838L7.12175 36.0888L8.31328 37ZM15.0133 31.5L15.6841 32.8416L15.6906 32.8384L15.6971 32.8351L15.0133 31.5ZM32.4133 31.1L31.6547 32.394L31.6716 32.4039L31.6887 32.4134L32.4133 31.1ZM37.6133 35.3L36.4898 36.2939L39.1133 39.2595V35.3H37.6133ZM36.0133 61.4L37.3788 62.0207V62.0207L36.0133 61.4ZM36.0133 49.1L34.625 49.6679L34.6358 49.6945L34.6477 49.7207L36.0133 49.1ZM29.5133 49.1L28.1477 48.4793L28.1358 48.5055L28.125 48.5321L29.5133 49.1ZM29.5133 61.4L28.125 61.9679L28.1358 61.9945L28.1477 62.0207L29.5133 61.4ZM39.1133 22.2C39.1133 21.2571 38.9 20.3009 38.2656 19.5397L35.961 21.4603C35.9933 21.4991 36.1133 21.6762 36.1133 22.2H39.1133ZM38.3339 19.6281C37.6419 18.6593 36.5811 18.3 35.5133 18.3V21.3C35.7249 21.3 35.8274 21.3341 35.8621 21.3492C35.8846 21.3591 35.8858 21.3623 35.8927 21.3719L38.3339 19.6281ZM35.5133 18.3C34.4976 18.3 33.5194 18.5131 32.5926 18.9345L33.834 21.6655C34.3738 21.4202 34.9289 21.3 35.5133 21.3V18.3ZM32.6562 18.9073C31.9495 19.19 31.2449 19.5071 30.5425 19.8584L31.8841 22.5416C32.515 22.2262 33.1437 21.9434 33.7704 21.6927L32.6562 18.9073ZM32.6136 20.6624L28.3136 9.46236L25.5129 10.5376L29.8129 21.7376L32.6136 20.6624ZM27.8003 11.2096C28.7433 10.5181 29.8931 9.78203 31.2575 9.00236L29.7691 6.39763C28.3335 7.21796 27.0833 8.01524 26.0262 8.79039L27.8003 11.2096ZM31.2575 9.00236C32.5996 8.23542 34.0434 7.52912 35.5902 6.88461L34.4364 4.11538C32.7832 4.80421 31.2269 5.56458 29.7691 6.39763L31.2575 9.00236ZM35.5902 6.88461C37.1106 6.25111 38.697 5.74318 40.3506 5.36158L39.676 2.43841C37.8629 2.85681 36.116 3.41555 34.4364 4.11538L35.5902 6.88461ZM40.4032 5.34842C42.014 4.91477 43.6163 4.7 45.2133 4.7V1.7C43.3436 1.7 41.4793 1.9519 39.6233 2.45157L40.4032 5.34842ZM45.2133 4.7C48.3065 4.7 50.6975 5.08925 52.4562 5.79271L53.5704 3.00728C51.329 2.11075 48.5201 1.7 45.2133 1.7V4.7ZM52.4969 5.80831C54.2852 6.46403 55.5602 7.38045 56.4201 8.50906L58.8064 6.69093C57.533 5.01954 55.7413 3.80262 53.5297 2.99168L52.4969 5.80831ZM56.4704 8.57147C57.4175 9.68579 58.0459 11.0358 58.3366 12.6637L61.2899 12.1363C60.914 10.0309 60.0757 8.18087 58.7562 6.62852L56.4704 8.57147ZM58.3466 12.7143C58.7214 14.4634 58.9133 16.39 58.9133 18.5H61.9133C61.9133 16.21 61.7052 14.0699 61.28 12.0857L58.3466 12.7143ZM58.9133 18.5V62.4H61.9133V18.5H58.9133ZM58.9133 62.4C58.9133 63.3587 59.1327 64.2879 59.6927 65.0719L62.1339 63.3281C62.0272 63.1787 61.9133 62.908 61.9133 62.4H58.9133ZM59.6927 65.0719C60.3847 66.0407 61.4455 66.4 62.5133 66.4V63.4C62.3016 63.4 62.1992 63.3659 62.1645 63.3508C62.1419 63.3409 62.1407 63.3377 62.1339 63.3281L59.6927 65.0719ZM62.5133 66.4C63.4703 66.4 64.3838 66.2418 65.1841 65.8416L63.8425 63.1584C63.5761 63.2916 63.1563 63.4 62.5133 63.4V66.4ZM65.1841 65.8416C65.7174 65.575 66.3174 65.275 66.9841 64.9416L65.6425 62.2584C64.9758 62.5917 64.3758 62.8917 63.8425 63.1584L65.1841 65.8416ZM64.8574 63.961L67.8574 76.061L70.7692 75.339L67.7692 63.239L64.8574 63.961ZM68.4195 74.4954C66.4966 75.922 64.1025 77.1585 61.2108 78.1867L62.2158 81.0133C65.324 79.9082 67.9967 78.5446 70.2071 76.9046L68.4195 74.4954ZM61.2108 78.1867C58.3583 79.2009 55.5613 79.7 52.8133 79.7V82.7C55.9319 82.7 59.0683 82.1324 62.2158 81.0133L61.2108 78.1867ZM52.8133 79.7C49.5595 79.7 46.9608 79.1881 44.952 78.2428L43.6746 80.9572C46.1991 82.1452 49.2671 82.7 52.8133 82.7V79.7ZM44.9677 78.2503C43.1028 77.3461 41.6702 75.8782 40.6697 73.7595L37.9569 75.0405C39.2231 77.7218 41.1238 79.7206 43.6589 80.9497L44.9677 78.2503ZM38.1904 73.4054C36.2352 75.6129 34.16 77.2108 31.9728 78.2436L33.2538 80.9564C35.8666 79.7226 38.258 77.8537 40.4362 75.3946L38.1904 73.4054ZM31.9896 78.2358C29.8598 79.2094 27.5734 79.7 25.1133 79.7V82.7C27.9865 82.7 30.7001 82.1239 33.2369 80.9642L31.9896 78.2358ZM25.1133 79.7C18.4305 79.7 13.437 77.7076 9.91683 73.884L7.70973 75.916C11.9229 80.4924 17.7961 82.7 25.1133 82.7V79.7ZM9.93343 73.9024C6.48526 70.0307 4.61328 63.8337 4.61328 55H1.61328C1.61328 64.1663 3.5413 71.2359 7.69313 75.8976L9.93343 73.9024ZM4.61328 55C4.61328 51.6595 5.03066 48.4946 5.859 45.4999L2.96756 44.7001C2.06257 47.972 1.61328 51.4071 1.61328 55H4.61328ZM5.859 45.4999C6.68154 42.5261 7.90328 40.0055 9.50482 37.9112L7.12175 36.0888C5.25661 38.5278 3.87836 41.4072 2.96756 44.7001L5.859 45.4999ZM9.50096 37.9162C11.1613 35.764 13.2171 34.0751 15.6841 32.8416L14.3425 30.1584C11.4761 31.5915 9.06531 33.5694 7.12561 36.0838L9.50096 37.9162ZM15.6971 32.8351C18.1779 31.5644 21.1671 30.9 24.7133 30.9V27.9C20.7928 27.9 17.3153 28.6356 14.3295 30.1649L15.6971 32.8351ZM24.7133 30.9C27.7544 30.9 30.0294 31.4413 31.6547 32.394L33.1719 29.806C30.9305 28.4921 28.0722 27.9 24.7133 27.9V30.9ZM31.6887 32.4134C33.4646 33.3932 35.0646 34.6828 36.4898 36.2939L38.7368 34.3061C37.0953 32.4505 35.2286 30.9401 33.1379 29.7866L31.6887 32.4134ZM39.1133 35.3V22.2H36.1133V35.3H39.1133ZM32.8133 65.1C33.8082 65.1 34.7473 64.8469 35.5631 64.2861C36.37 63.7313 36.9601 62.9419 37.3788 62.0207L34.6477 60.7793C34.3998 61.3247 34.1232 61.6354 33.8635 61.8139C33.6126 61.9864 33.285 62.1 32.8133 62.1V65.1ZM37.3788 62.0207C38.1721 60.2756 38.5133 57.998 38.5133 55.3H35.5133C35.5133 57.802 35.1878 59.5911 34.6477 60.7793L37.3788 62.0207ZM38.5133 55.3C38.5133 52.5419 38.1737 50.2281 37.3788 48.4793L34.6477 49.7207C35.1862 50.9053 35.5133 52.7248 35.5133 55.3H38.5133ZM37.4016 48.5321C37.016 47.5894 36.4363 46.7799 35.6131 46.2139C34.7863 45.6456 33.8261 45.4 32.8133 45.4V48.4C33.3338 48.4 33.6736 48.5211 33.9135 48.6861C34.157 48.8534 34.4106 49.144 34.625 49.6679L37.4016 48.5321ZM32.8133 45.4C31.799 45.4 30.8401 45.646 30.0062 46.2019C29.1771 46.7547 28.5715 47.547 28.1477 48.4793L30.8788 49.7207C31.1217 49.1863 31.3995 48.8786 31.6703 48.6981C31.9364 48.5207 32.2942 48.4 32.8133 48.4V45.4ZM28.125 48.5321C27.4175 50.2613 27.1133 52.5534 27.1133 55.3H30.1133C30.1133 52.7133 30.409 50.872 30.9016 49.6679L28.125 48.5321ZM27.1133 55.3C27.1133 57.9859 27.4189 60.242 28.125 61.9679L30.9016 60.8321C30.4077 59.6247 30.1133 57.8141 30.1133 55.3H27.1133ZM28.1477 62.0207C28.5715 62.953 29.1771 63.7453 30.0062 64.2981C30.8401 64.854 31.799 65.1 32.8133 65.1V62.1C32.2942 62.1 31.9364 61.9793 31.6703 61.8019C31.3995 61.6214 31.1217 61.3137 30.8788 60.7793L28.1477 62.0207Z" fill="white"/>
</svg>
