<svg width="64" height="105" viewBox="0 0 64 105" fill="none" xmlns="http://www.w3.org/2000/svg">
<path d="M2.81289 63H9.51289V26.2H2.81289V9.2H59.3129V27.5H32.8129V34.6H55.8129V52.9H32.8129V61.7H61.2129V80H2.81289V63Z" fill="black"/>
<path d="M2.81289 63V61.5H1.31289V63H2.81289ZM9.51289 63V64.5H11.0129V63H9.51289ZM9.51289 26.2H11.0129V24.7H9.51289V26.2ZM2.81289 26.2H1.31289V27.7H2.81289V26.2ZM2.81289 9.2V7.7H1.31289V9.2H2.81289ZM59.3129 9.2H60.8129V7.7H59.3129V9.2ZM59.3129 27.5V29H60.8129V27.5H59.3129ZM32.8129 27.5V26H31.3129V27.5H32.8129ZM32.8129 34.6H31.3129V36.1H32.8129V34.6ZM55.8129 34.6H57.3129V33.1H55.8129V34.6ZM55.8129 52.9V54.4H57.3129V52.9H55.8129ZM32.8129 52.9V51.4H31.3129V52.9H32.8129ZM32.8129 61.7H31.3129V63.2H32.8129V61.7ZM61.2129 61.7H62.7129V60.2H61.2129V61.7ZM61.2129 80V81.5H62.7129V80H61.2129ZM2.81289 80H1.31289V81.5H2.81289V80ZM2.81289 64.5H9.51289V61.5H2.81289V64.5ZM11.0129 63V26.2H8.01289V63H11.0129ZM9.51289 24.7H2.81289V27.7H9.51289V24.7ZM4.31289 26.2V9.2H1.31289V26.2H4.31289ZM2.81289 10.7H59.3129V7.7H2.81289V10.7ZM57.8129 9.2V27.5H60.8129V9.2H57.8129ZM59.3129 26H32.8129V29H59.3129V26ZM31.3129 27.5V34.6H34.3129V27.5H31.3129ZM32.8129 36.1H55.8129V33.1H32.8129V36.1ZM54.3129 34.6V52.9H57.3129V34.6H54.3129ZM55.8129 51.4H32.8129V54.4H55.8129V51.4ZM31.3129 52.9V61.7H34.3129V52.9H31.3129ZM32.8129 63.2H61.2129V60.2H32.8129V63.2ZM59.7129 61.7V80H62.7129V61.7H59.7129ZM61.2129 78.5H2.81289V81.5H61.2129V78.5ZM4.31289 80V63H1.31289V80H4.31289Z" fill="white"/>
</svg>
