<svg width="75" height="95" viewBox="0 0 75 95" fill="none" xmlns="http://www.w3.org/2000/svg">
<path d="M48.4559 47.2H41.3559V33.4H69.2559V69.7C64.7225 72.4333 60.0559 74.3 55.2559 75.3C50.5225 76.3 45.4559 76.8 40.0559 76.8C33.9225 76.8 28.5225 75.9 23.8559 74.1C19.2559 72.3 15.3892 69.7667 12.2559 66.5C9.18919 63.2333 6.88919 59.3333 5.35586 54.8C3.82253 50.2 3.05586 45.1333 3.05586 39.6C3.05586 33.9333 3.92253 28.8333 5.65586 24.3C7.45586 19.7 10.0225 15.8 13.3559 12.6C16.6892 9.33333 20.7559 6.83333 25.5559 5.09999C30.3559 3.3 35.8225 2.4 41.9559 2.4C45.0225 2.4 47.8892 2.63333 50.5559 3.1C53.2225 3.56666 55.6559 4.13333 57.8559 4.8C60.0559 5.46666 62.0225 6.2 63.7559 7C65.4892 7.8 66.9559 8.53333 68.1559 9.19999L60.4559 26.3C58.3225 24.9 56.0225 23.7667 53.5559 22.9C51.1559 21.9667 48.3559 21.5 45.1559 21.5C42.4225 21.5 40.0225 21.9667 37.9559 22.9C35.8892 23.7667 34.1892 25.0333 32.8559 26.7C31.5225 28.3 30.5225 30.2333 29.8559 32.5C29.1892 34.7 28.8559 37.1 28.8559 39.7C28.8559 42.1 29.1225 44.3667 29.6559 46.5C30.1892 48.6333 31.0225 50.5 32.1559 52.1C33.3559 53.7 34.8225 54.9667 36.5559 55.9C38.2892 56.8333 40.3559 57.3 42.7559 57.3C43.8892 57.3 44.9892 57.2333 46.0559 57.1C47.1892 56.9667 47.9892 56.8333 48.4559 56.7V47.2Z" fill="black"/>
<path d="M48.4559 47.2H49.9559V45.7H48.4559V47.2ZM41.3559 47.2H39.8559V48.7H41.3559V47.2ZM41.3559 33.4V31.9H39.8559V33.4H41.3559ZM69.2559 33.4H70.7559V31.9H69.2559V33.4ZM69.2559 69.7L70.0304 70.9846L70.7559 70.5471V69.7H69.2559ZM55.2559 75.3L54.9499 73.8315L54.9458 73.8324L55.2559 75.3ZM23.8559 74.1L23.3093 75.4969L23.3161 75.4995L23.8559 74.1ZM12.2559 66.5L11.1622 67.5267L11.1678 67.5325L11.1733 67.5383L12.2559 66.5ZM5.35586 54.8L3.93282 55.2743L3.93494 55.2806L5.35586 54.8ZM5.65586 24.3L4.25895 23.7534L4.25478 23.7643L5.65586 24.3ZM13.3559 12.6L14.3947 13.6821L14.4002 13.6767L14.4058 13.6713L13.3559 12.6ZM25.5559 5.09999L26.0653 6.51082L26.074 6.50771L26.0825 6.50449L25.5559 5.09999ZM50.5559 3.1L50.8144 1.62245L50.8144 1.62245L50.5559 3.1ZM63.7559 7L63.1273 8.36194L63.7559 7ZM68.1559 9.2L69.5236 9.81587L70.0898 8.55846L68.8843 7.88876L68.1559 9.2ZM60.4559 26.3L59.6329 27.5541L61.1021 28.5182L61.8236 26.9159L60.4559 26.3ZM53.5559 22.9L53.0122 24.298L53.0353 24.307L53.0586 24.3152L53.5559 22.9ZM37.9559 22.9L38.536 24.2833L38.5547 24.2754L38.5732 24.2671L37.9559 22.9ZM32.8559 26.7L34.0082 27.6603L34.0178 27.6488L34.0272 27.637L32.8559 26.7ZM29.8559 32.5L31.2914 32.935L31.2949 32.9232L29.8559 32.5ZM29.6559 46.5L31.1111 46.1362L31.1111 46.1362L29.6559 46.5ZM32.1559 52.1L30.9318 52.967L30.9436 52.9837L30.9559 53L32.1559 52.1ZM36.5559 55.9L37.267 54.5793H37.267L36.5559 55.9ZM46.0559 57.1L45.8806 55.6102L45.8698 55.6116L46.0559 57.1ZM48.4559 56.7L48.8679 58.1423L49.9559 57.8315V56.7H48.4559ZM48.4559 45.7H41.3559V48.7H48.4559V45.7ZM42.8559 47.2V33.4H39.8559V47.2H42.8559ZM41.3559 34.9H69.2559V31.9H41.3559V34.9ZM67.7559 33.4V69.7H70.7559V33.4H67.7559ZM68.4813 68.4154C64.0812 71.0685 59.5718 72.8686 54.9499 73.8315L55.5618 76.7685C60.5399 75.7314 65.3639 73.7982 70.0304 70.9846L68.4813 68.4154ZM54.9458 73.8324C50.3254 74.8085 45.3635 75.3 40.0559 75.3V78.3C45.5482 78.3 50.7197 77.7915 55.5659 76.7676L54.9458 73.8324ZM40.0559 75.3C34.0667 75.3 28.856 74.4209 24.3957 72.7005L23.3161 75.4995C28.189 77.3791 33.7784 78.3 40.0559 78.3V75.3ZM24.4025 72.7031C19.9863 70.9751 16.3079 68.5575 13.3384 65.4617L11.1733 67.5383C14.4705 70.9758 18.5255 73.6249 23.3093 75.4969L24.4025 72.7031ZM13.3495 65.4733C10.4396 62.3737 8.2461 58.6635 6.77678 54.3194L3.93494 55.2806C5.53228 60.0032 7.93882 64.093 11.1622 67.5267L13.3495 65.4733ZM6.77888 54.3257C5.30316 49.8985 4.55586 44.9945 4.55586 39.6H1.55586C1.55586 45.2722 2.34189 50.5015 3.93283 55.2743L6.77888 54.3257ZM4.55586 39.6C4.55586 34.0863 5.39897 29.1719 7.05694 24.8357L4.25478 23.7643C2.44609 28.4947 1.55586 33.7804 1.55586 39.6H4.55586ZM7.05272 24.8466C8.77912 20.4347 11.2287 16.7214 14.3947 13.6821L12.3171 11.5179C8.81635 14.8786 6.1326 18.9653 4.259 23.7534L7.05272 24.8466ZM14.4058 13.6713C17.5715 10.5689 21.4486 8.17797 26.0653 6.51082L25.0464 3.68916C20.0631 5.48868 15.8069 8.09777 12.306 11.5287L14.4058 13.6713ZM26.0825 6.50449C30.6847 4.7787 35.968 3.9 41.9559 3.9V0.899999C35.6771 0.899999 30.0271 1.82129 25.0292 3.6955L26.0825 6.50449ZM41.9559 3.9C44.947 3.9 47.7264 4.12763 50.2973 4.57754L50.8144 1.62245C48.052 1.13903 45.098 0.899999 41.9559 0.899999V3.9ZM50.2973 4.57754C52.9145 5.03555 55.2879 5.58917 57.4209 6.23553L58.2909 3.36446C56.0239 2.67749 53.5306 2.09777 50.8144 1.62245L50.2973 4.57754ZM57.4209 6.23553C59.5676 6.88606 61.4678 7.59604 63.1273 8.36194L64.3845 5.63806C62.5772 4.80396 60.5442 4.04727 58.2909 3.36446L57.4209 6.23553ZM63.1273 8.36194C64.8387 9.15182 66.2699 9.86815 67.4274 10.5112L68.8843 7.88876C67.6419 7.1985 66.1397 6.44817 64.3845 5.63806L63.1273 8.36194ZM66.7881 8.58412L59.0881 25.6841L61.8236 26.9159L69.5236 9.81587L66.7881 8.58412ZM61.2789 25.0459C59.0414 23.5776 56.6316 22.3908 54.0531 21.4848L53.0586 24.3152C55.4134 25.1425 57.6037 26.2224 59.6329 27.5541L61.2789 25.0459ZM54.0995 21.502C51.4898 20.4871 48.4983 20 45.1559 20V23C48.2134 23 50.8219 23.4462 53.0122 24.298L54.0995 21.502ZM45.1559 20C42.2526 20 39.6348 20.4959 37.3385 21.5329L38.5732 24.2671C40.4102 23.4374 42.5925 23 45.1559 23V20ZM37.3758 21.5167C35.0898 22.4753 33.1825 23.8906 31.6846 25.763L34.0272 27.637C35.1959 26.1761 36.6886 25.058 38.536 24.2833L37.3758 21.5167ZM31.7035 25.7397C30.2224 27.5171 29.1336 29.6397 28.4168 32.0767L31.2949 32.9232C31.9115 30.8269 32.8227 29.0829 34.0082 27.6603L31.7035 25.7397ZM28.4203 32.065C27.7057 34.4231 27.3559 36.9716 27.3559 39.7H30.3559C30.3559 37.2284 30.6727 34.9769 31.2914 32.935L28.4203 32.065ZM27.3559 39.7C27.3559 42.2116 27.635 44.6012 28.2006 46.8638L31.1111 46.1362C30.6101 44.1321 30.3559 41.9884 30.3559 39.7H27.3559ZM28.2006 46.8638C28.7737 49.1559 29.6786 51.1977 30.9318 52.967L33.3799 51.233C32.3665 49.8023 31.6047 48.1107 31.1111 46.1362L28.2006 46.8638ZM30.9559 53C32.2842 54.7712 33.9167 56.1826 35.8447 57.2207L37.267 54.5793C35.7283 53.7508 34.4275 52.6288 33.3559 51.2L30.9559 53ZM35.8447 57.2207C37.8396 58.2949 40.1615 58.8 42.7559 58.8V55.8C40.5502 55.8 38.7388 55.3718 37.267 54.5793L35.8447 57.2207ZM42.7559 58.8C43.9481 58.8 45.1103 58.7299 46.2419 58.5884L45.8698 55.6116C44.8681 55.7368 43.8303 55.8 42.7559 55.8V58.8ZM46.2311 58.5897C47.3666 58.4561 48.2736 58.3121 48.8679 58.1423L48.0438 55.2577C47.7048 55.3546 47.0118 55.4772 45.8806 55.6103L46.2311 58.5897ZM49.9559 56.7V47.2H46.9559V56.7H49.9559Z" fill="white"/>
</svg>
