<svg width="75" height="105" viewBox="0 0 75 105" fill="none" xmlns="http://www.w3.org/2000/svg">
<path d="M48.4559 52.2H41.3559V38.4H69.2559V74.7C64.7225 77.4333 60.0559 79.3 55.2559 80.3C50.5225 81.3 45.4559 81.8 40.0559 81.8C33.9225 81.8 28.5225 80.9 23.8559 79.1C19.2559 77.3 15.3892 74.7667 12.2559 71.5C9.18919 68.2333 6.88919 64.3333 5.35586 59.8C3.82253 55.2 3.05586 50.1333 3.05586 44.6C3.05586 38.9333 3.92253 33.8333 5.65586 29.3C7.45586 24.7 10.0225 20.8 13.3559 17.6C16.6892 14.3333 20.7559 11.8333 25.5559 10.1C30.3559 8.3 35.8225 7.4 41.9559 7.4C45.0225 7.4 47.8892 7.63333 50.5559 8.1C53.2225 8.56666 55.6559 9.13333 57.8559 9.8C60.0559 10.4667 62.0225 11.2 63.7559 12C65.4892 12.8 66.9559 13.5333 68.1559 14.2L60.4559 31.3C58.3225 29.9 56.0225 28.7667 53.5559 27.9C51.1559 26.9667 48.3559 26.5 45.1559 26.5C42.4225 26.5 40.0225 26.9667 37.9559 27.9C35.8892 28.7667 34.1892 30.0333 32.8559 31.7C31.5225 33.3 30.5225 35.2333 29.8559 37.5C29.1892 39.7 28.8559 42.1 28.8559 44.7C28.8559 47.1 29.1225 49.3667 29.6559 51.5C30.1892 53.6333 31.0225 55.5 32.1559 57.1C33.3559 58.7 34.8225 59.9667 36.5559 60.9C38.2892 61.8333 40.3559 62.3 42.7559 62.3C43.8892 62.3 44.9892 62.2333 46.0559 62.1C47.1892 61.9667 47.9892 61.8333 48.4559 61.7V52.2Z" fill="black"/>
<path d="M48.4559 52.2H49.9559V50.7H48.4559V52.2ZM41.3559 52.2H39.8559V53.7H41.3559V52.2ZM41.3559 38.4V36.9H39.8559V38.4H41.3559ZM69.2559 38.4H70.7559V36.9H69.2559V38.4ZM69.2559 74.7L70.0304 75.9846L70.7559 75.5471V74.7H69.2559ZM55.2559 80.3L54.9499 78.8315L54.9458 78.8324L55.2559 80.3ZM23.8559 79.1L23.3093 80.4969L23.3161 80.4995L23.8559 79.1ZM12.2559 71.5L11.1622 72.5267L11.1678 72.5325L11.1733 72.5383L12.2559 71.5ZM5.35586 59.8L3.93282 60.2743L3.93494 60.2806L5.35586 59.8ZM5.65586 29.3L4.25895 28.7534L4.25478 28.7643L5.65586 29.3ZM13.3559 17.6L14.3947 18.6821L14.4002 18.6767L14.4058 18.6713L13.3559 17.6ZM25.5559 10.1L26.0653 11.5108L26.074 11.5077L26.0825 11.5045L25.5559 10.1ZM50.5559 8.1L50.8144 6.62245L50.8144 6.62245L50.5559 8.1ZM63.7559 12L63.1273 13.3619L63.7559 12ZM68.1559 14.2L69.5236 14.8159L70.0898 13.5585L68.8843 12.8888L68.1559 14.2ZM60.4559 31.3L59.6329 32.5541L61.1021 33.5182L61.8236 31.9159L60.4559 31.3ZM53.5559 27.9L53.0122 29.298L53.0353 29.307L53.0586 29.3152L53.5559 27.9ZM37.9559 27.9L38.536 29.2833L38.5547 29.2754L38.5732 29.2671L37.9559 27.9ZM32.8559 31.7L34.0082 32.6603L34.0178 32.6488L34.0272 32.637L32.8559 31.7ZM29.8559 37.5L31.2914 37.935L31.2949 37.9232L29.8559 37.5ZM29.6559 51.5L31.1111 51.1362L31.1111 51.1362L29.6559 51.5ZM32.1559 57.1L30.9318 57.967L30.9436 57.9837L30.9559 58L32.1559 57.1ZM36.5559 60.9L37.267 59.5793H37.267L36.5559 60.9ZM46.0559 62.1L45.8806 60.6102L45.8698 60.6116L46.0559 62.1ZM48.4559 61.7L48.8679 63.1423L49.9559 62.8315V61.7H48.4559ZM48.4559 50.7H41.3559V53.7H48.4559V50.7ZM42.8559 52.2V38.4H39.8559V52.2H42.8559ZM41.3559 39.9H69.2559V36.9H41.3559V39.9ZM67.7559 38.4V74.7H70.7559V38.4H67.7559ZM68.4813 73.4154C64.0812 76.0685 59.5718 77.8686 54.9499 78.8315L55.5618 81.7685C60.5399 80.7314 65.3639 78.7982 70.0304 75.9846L68.4813 73.4154ZM54.9458 78.8324C50.3254 79.8085 45.3635 80.3 40.0559 80.3V83.3C45.5482 83.3 50.7197 82.7915 55.5659 81.7676L54.9458 78.8324ZM40.0559 80.3C34.0667 80.3 28.856 79.4209 24.3957 77.7005L23.3161 80.4995C28.189 82.3791 33.7784 83.3 40.0559 83.3V80.3ZM24.4025 77.7031C19.9863 75.9751 16.3079 73.5575 13.3384 70.4617L11.1733 72.5383C14.4705 75.9758 18.5255 78.6249 23.3093 80.4969L24.4025 77.7031ZM13.3495 70.4733C10.4396 67.3737 8.2461 63.6635 6.77678 59.3194L3.93494 60.2806C5.53228 65.0032 7.93882 69.093 11.1622 72.5267L13.3495 70.4733ZM6.77888 59.3257C5.30316 54.8985 4.55586 49.9945 4.55586 44.6H1.55586C1.55586 50.2722 2.34189 55.5015 3.93283 60.2743L6.77888 59.3257ZM4.55586 44.6C4.55586 39.0863 5.39897 34.1719 7.05694 29.8357L4.25478 28.7643C2.44609 33.4947 1.55586 38.7804 1.55586 44.6H4.55586ZM7.05272 29.8466C8.77912 25.4347 11.2287 21.7214 14.3947 18.6821L12.3171 16.5179C8.81635 19.8786 6.1326 23.9653 4.259 28.7534L7.05272 29.8466ZM14.4058 18.6713C17.5715 15.5689 21.4486 13.178 26.0653 11.5108L25.0464 8.68916C20.0631 10.4887 15.8069 13.0978 12.306 16.5287L14.4058 18.6713ZM26.0825 11.5045C30.6847 9.7787 35.968 8.9 41.9559 8.9V5.9C35.6771 5.9 30.0271 6.82129 25.0292 8.6955L26.0825 11.5045ZM41.9559 8.9C44.947 8.9 47.7264 9.12763 50.2973 9.57754L50.8144 6.62245C48.052 6.13903 45.098 5.9 41.9559 5.9V8.9ZM50.2973 9.57754C52.9145 10.0356 55.2879 10.5892 57.4209 11.2355L58.2909 8.36446C56.0239 7.67749 53.5306 7.09777 50.8144 6.62245L50.2973 9.57754ZM57.4209 11.2355C59.5676 11.8861 61.4678 12.596 63.1273 13.3619L64.3845 10.6381C62.5772 9.80396 60.5442 9.04727 58.2909 8.36446L57.4209 11.2355ZM63.1273 13.3619C64.8387 14.1518 66.2699 14.8682 67.4274 15.5112L68.8843 12.8888C67.6419 12.1985 66.1397 11.4482 64.3845 10.6381L63.1273 13.3619ZM66.7881 13.5841L59.0881 30.6841L61.8236 31.9159L69.5236 14.8159L66.7881 13.5841ZM61.2789 30.0459C59.0414 28.5776 56.6316 27.3908 54.0531 26.4848L53.0586 29.3152C55.4134 30.1425 57.6037 31.2224 59.6329 32.5541L61.2789 30.0459ZM54.0995 26.502C51.4898 25.4871 48.4983 25 45.1559 25V28C48.2134 28 50.8219 28.4462 53.0122 29.298L54.0995 26.502ZM45.1559 25C42.2526 25 39.6348 25.4959 37.3385 26.5329L38.5732 29.2671C40.4102 28.4374 42.5925 28 45.1559 28V25ZM37.3758 26.5167C35.0898 27.4753 33.1825 28.8906 31.6846 30.763L34.0272 32.637C35.1959 31.1761 36.6886 30.058 38.536 29.2833L37.3758 26.5167ZM31.7035 30.7397C30.2224 32.5171 29.1336 34.6397 28.4168 37.0767L31.2949 37.9232C31.9115 35.8269 32.8227 34.0829 34.0082 32.6603L31.7035 30.7397ZM28.4203 37.065C27.7057 39.4231 27.3559 41.9716 27.3559 44.7H30.3559C30.3559 42.2284 30.6727 39.9769 31.2914 37.935L28.4203 37.065ZM27.3559 44.7C27.3559 47.2116 27.635 49.6012 28.2006 51.8638L31.1111 51.1362C30.6101 49.1321 30.3559 46.9884 30.3559 44.7H27.3559ZM28.2006 51.8638C28.7737 54.1559 29.6786 56.1977 30.9318 57.967L33.3799 56.233C32.3665 54.8023 31.6047 53.1107 31.1111 51.1362L28.2006 51.8638ZM30.9559 58C32.2842 59.7712 33.9167 61.1826 35.8447 62.2207L37.267 59.5793C35.7283 58.7508 34.4275 57.6288 33.3559 56.2L30.9559 58ZM35.8447 62.2207C37.8396 63.2949 40.1615 63.8 42.7559 63.8V60.8C40.5502 60.8 38.7388 60.3718 37.267 59.5793L35.8447 62.2207ZM42.7559 63.8C43.9481 63.8 45.1103 63.7299 46.2419 63.5884L45.8698 60.6116C44.8681 60.7368 43.8303 60.8 42.7559 60.8V63.8ZM46.2311 63.5897C47.3666 63.4561 48.2736 63.3121 48.8679 63.1423L48.0438 60.2577C47.7048 60.3546 47.0118 60.4772 45.8806 60.6103L46.2311 63.5897ZM49.9559 61.7V52.2H46.9559V61.7H49.9559Z" fill="white"/>
</svg>
