<svg width="48" height="105" viewBox="0 0 48 105" fill="none" xmlns="http://www.w3.org/2000/svg">
<path d="M10.3035 13.9C10.3035 10.9667 11.3368 8.53333 13.4035 6.6C15.4702 4.66666 18.7035 3.7 23.1035 3.7C27.5035 3.7 30.7368 4.66666 32.8035 6.6C34.9369 8.53333 36.0035 10.9667 36.0035 13.9C36.0035 16.8333 34.9369 19.3 32.8035 21.3C30.7368 23.2333 27.5035 24.2 23.1035 24.2C18.7035 24.2 15.4702 23.2333 13.4035 21.3C11.3368 19.3 10.3035 16.8333 10.3035 13.9ZM12.3035 68L12.8035 48.3C12.8035 46.7 12.1035 45.9 10.7035 45.9C9.83685 45.9 9.07018 46.0333 8.40352 46.3C7.80352 46.5667 7.13685 46.8667 6.40352 47.2L3.60352 35.1C4.60352 34.4333 5.77018 33.7667 7.10352 33.1C8.43685 32.3667 9.83685 31.7333 11.3035 31.2C12.8368 30.6667 14.3702 30.2333 15.9035 29.9C17.5035 29.5667 19.0368 29.4 20.5035 29.4C23.6368 29.4 26.1702 29.8 28.1035 30.6C30.1035 31.3333 31.6702 32.3667 32.8035 33.7C33.9368 34.9667 34.7035 36.5 35.1035 38.3C35.5035 40.0333 35.7035 41.9333 35.7035 44V45L35.2035 62.6C35.2035 63.3333 35.3369 63.9333 35.6035 64.4C35.9368 64.8667 36.4702 65.1 37.2035 65.1C38.0702 65.1 38.7369 65 39.2035 64.8C39.7369 64.5333 40.3702 64.2333 41.1035 63.9L43.8035 76.1C41.8035 77.5667 39.3035 78.8 36.3035 79.8C33.3702 80.8 30.4368 81.3 27.5035 81.3C17.3702 81.3 12.3035 77.1 12.3035 68.7V68Z" fill="black"/>
<path d="M13.4035 6.6L12.3788 5.50459L13.4035 6.6ZM32.8035 6.6L31.7788 7.6954L31.7874 7.70351L31.7962 7.71148L32.8035 6.6ZM32.8035 21.3L33.8283 22.3954L33.8294 22.3943L32.8035 21.3ZM13.4035 21.3L12.3604 22.3779L12.3695 22.3867L12.3788 22.3954L13.4035 21.3ZM12.3035 68L10.804 67.9619L10.8035 67.981V68H12.3035ZM12.8035 48.3L14.303 48.3381L14.3035 48.319V48.3H12.8035ZM8.40351 46.3L7.84643 44.9073L7.82016 44.9178L7.79431 44.9293L8.40351 46.3ZM6.40352 47.2L4.94213 47.5382L5.35541 49.3241L7.02422 48.5655L6.40352 47.2ZM3.60352 35.1L2.77147 33.8519L1.90824 34.4274L2.14213 35.4382L3.60352 35.1ZM7.10352 33.1L7.77434 34.4416L7.80063 34.4285L7.8264 34.4143L7.10352 33.1ZM11.3035 31.2L10.8107 29.7833L10.8008 29.7867L10.7909 29.7903L11.3035 31.2ZM15.9035 29.9L15.5976 28.4315L15.5849 28.4342L15.9035 29.9ZM28.1035 30.6L27.53 31.986L27.5583 31.9978L27.5871 32.0083L28.1035 30.6ZM32.8035 33.7L31.6606 34.6715L31.6729 34.686L31.6857 34.7002L32.8035 33.7ZM35.1035 38.3L33.6392 38.6254L33.6419 38.6373L35.1035 38.3ZM35.7035 45L37.2029 45.0426L37.2035 45.0213V45H35.7035ZM35.2035 62.6L33.7041 62.5574L33.7035 62.5787V62.6H35.2035ZM35.6035 64.4L34.3012 65.1442L34.3388 65.2101L34.3829 65.2719L35.6035 64.4ZM39.2035 64.8L39.7944 66.1787L39.8349 66.1614L39.8743 66.1416L39.2035 64.8ZM41.1035 63.9L42.5681 63.5759L42.1681 61.7684L40.4828 62.5345L41.1035 63.9ZM43.8035 76.1L44.6906 77.3096L45.4795 76.7311L45.2681 75.7759L43.8035 76.1ZM36.3035 79.8L35.8292 78.3769L35.8195 78.3802L36.3035 79.8ZM11.8035 13.9C11.8035 11.3647 12.677 9.33363 14.4283 7.6954L12.3788 5.50459C9.99665 7.73303 8.80352 10.5686 8.80352 13.9H11.8035ZM14.4283 7.6954C16.0974 6.13392 18.8805 5.2 23.1035 5.2V2.2C18.5266 2.2 14.8429 3.19941 12.3788 5.50459L14.4283 7.6954ZM23.1035 5.2C27.3266 5.2 30.1096 6.13392 31.7788 7.6954L33.8283 5.50459C31.3641 3.19941 27.6805 2.2 23.1035 2.2V5.2ZM31.7962 7.71148C33.6091 9.35441 34.5035 11.381 34.5035 13.9H37.5035C37.5035 10.5523 36.2646 7.71225 33.8108 5.48852L31.7962 7.71148ZM34.5035 13.9C34.5035 16.4202 33.6074 18.4903 31.7776 20.2057L33.8294 22.3943C36.2663 20.1097 37.5035 17.2465 37.5035 13.9H34.5035ZM31.7788 20.2046C30.1096 21.7661 27.3266 22.7 23.1035 22.7V25.7C27.6805 25.7 31.3641 24.7006 33.8283 22.3954L31.7788 20.2046ZM23.1035 22.7C18.8805 22.7 16.0974 21.7661 14.4283 20.2046L12.3788 22.3954C14.8429 24.7006 18.5266 25.7 23.1035 25.7V22.7ZM14.4466 20.2221C12.6785 18.511 11.8035 16.4361 11.8035 13.9H8.80352C8.80352 17.2305 9.99521 20.089 12.3604 22.3779L14.4466 20.2221ZM13.803 68.0381L14.303 48.3381L11.304 48.2619L10.804 67.9619L13.803 68.0381ZM14.3035 48.3C14.3035 47.3143 14.0922 46.2949 13.4074 45.5122C12.6891 44.6913 11.6907 44.4 10.7035 44.4V47.4C10.9142 47.4 11.0325 47.4305 11.0883 47.4517C11.1351 47.4696 11.1454 47.4828 11.1497 47.4878C11.1648 47.5051 11.3035 47.6857 11.3035 48.3H14.3035ZM10.7035 44.4C9.68453 44.4 8.72283 44.5567 7.84643 44.9073L8.9606 47.6927C9.41754 47.5099 9.98917 47.4 10.7035 47.4V44.4ZM7.79431 44.9293C7.18973 45.198 6.51915 45.4997 5.78281 45.8344L7.02422 48.5655C7.75455 48.2336 8.4173 47.9353 9.01272 47.6707L7.79431 44.9293ZM7.8649 46.8618L5.0649 34.7618L2.14213 35.4382L4.94213 47.5382L7.8649 46.8618ZM4.43556 36.3481C5.37327 35.7229 6.48402 35.0868 7.77434 34.4416L6.4327 31.7584C5.05634 32.4465 3.83376 33.1437 2.77147 33.8519L4.43556 36.3481ZM7.8264 34.4143C9.09049 33.7191 10.42 33.1174 11.8161 32.6097L10.7909 29.7903C9.25365 30.3493 7.78321 31.0143 6.38064 31.7857L7.8264 34.4143ZM11.7963 32.6167C13.2746 32.1026 14.7498 31.6858 16.2222 31.3658L15.5849 28.4342C13.9906 28.7808 12.3991 29.2308 10.8107 29.7833L11.7963 32.6167ZM16.2094 31.3685C17.7201 31.0537 19.1505 30.9 20.5035 30.9V27.9C18.9232 27.9 17.2869 28.0796 15.5976 28.4315L16.2094 31.3685ZM20.5035 30.9C23.5287 30.9 25.8456 31.289 27.53 31.986L28.677 29.214C26.4948 28.311 23.745 27.9 20.5035 27.9V30.9ZM27.5871 32.0083C29.3966 32.6718 30.7278 33.574 31.6606 34.6715L33.9464 32.7285C32.6126 31.1593 30.8104 29.9949 28.6199 29.1917L27.5871 32.0083ZM31.6857 34.7002C32.6332 35.7593 33.2901 37.0544 33.6392 38.6254L36.5678 37.9746C36.1169 35.9456 35.2405 34.1741 33.9214 32.6998L31.6857 34.7002ZM33.6419 38.6373C34.0127 40.2439 34.2035 42.0291 34.2035 44H37.2035C37.2035 41.8376 36.9943 39.8227 36.5651 37.9627L33.6419 38.6373ZM34.2035 44V45H37.2035V44H34.2035ZM34.2041 44.9574L33.7041 62.5574L36.7029 62.6426L37.2029 45.0426L34.2041 44.9574ZM33.7035 62.6C33.7035 63.5032 33.8662 64.3831 34.3012 65.1442L36.9059 63.6558C36.8075 63.4836 36.7035 63.1634 36.7035 62.6H33.7035ZM34.3829 65.2719C35.0749 66.2407 36.1357 66.6 37.2035 66.6V63.6C36.9919 63.6 36.8894 63.5659 36.8547 63.5508C36.8321 63.5409 36.831 63.5377 36.8241 63.5281L34.3829 65.2719ZM37.2035 66.6C38.1498 66.6 39.0537 66.4962 39.7944 66.1787L38.6126 63.4213C38.42 63.5038 37.9906 63.6 37.2035 63.6V66.6ZM39.8743 66.1416C40.3865 65.8855 41.0023 65.5937 41.7242 65.2655L40.4828 62.5345C39.738 62.873 39.0872 63.1811 38.5327 63.4584L39.8743 66.1416ZM39.639 64.2241L42.339 76.4241L45.2681 75.7759L42.5681 63.5759L39.639 64.2241ZM42.9165 74.8904C41.0712 76.2436 38.7199 77.4134 35.8292 78.377L36.7779 81.223C39.8871 80.1866 42.5359 78.8897 44.6906 77.3096L42.9165 74.8904ZM35.8195 78.3802C33.0331 79.3301 30.2631 79.8 27.5035 79.8V82.8C30.6106 82.8 33.7072 82.2699 36.7875 81.2198L35.8195 78.3802ZM27.5035 79.8C22.6067 79.8 19.2132 78.7794 17.0608 76.9952C14.9623 75.2556 13.8035 72.587 13.8035 68.7H10.8035C10.8035 73.213 12.1781 76.8444 15.1462 79.3048C18.0605 81.7206 22.267 82.8 27.5035 82.8V79.8ZM13.8035 68.7V68H10.8035V68.7H13.8035Z" fill="white"/>
</svg>
