<svg width="70" height="105" viewBox="0 0 70 105" fill="none" xmlns="http://www.w3.org/2000/svg">
<path d="M6.44766 63H13.1477V26.2H6.44766V9.2H44.7477V26.2H37.0477V61.5H63.5477V80H6.44766V63Z" fill="black"/>
<path d="M6.44766 63V61.5H4.94766V63H6.44766ZM13.1477 63V64.5H14.6477V63H13.1477ZM13.1477 26.2H14.6477V24.7H13.1477V26.2ZM6.44766 26.2H4.94766V27.7H6.44766V26.2ZM6.44766 9.2V7.7H4.94766V9.2H6.44766ZM44.7477 9.2H46.2477V7.7H44.7477V9.2ZM44.7477 26.2V27.7H46.2477V26.2H44.7477ZM37.0477 26.2V24.7H35.5477V26.2H37.0477ZM37.0477 61.5H35.5477V63H37.0477V61.5ZM63.5477 61.5H65.0477V60H63.5477V61.5ZM63.5477 80V81.5H65.0477V80H63.5477ZM6.44766 80H4.94766V81.5H6.44766V80ZM6.44766 64.5H13.1477V61.5H6.44766V64.5ZM14.6477 63V26.2H11.6477V63H14.6477ZM13.1477 24.7H6.44766V27.7H13.1477V24.7ZM7.94766 26.2V9.2H4.94766V26.2H7.94766ZM6.44766 10.7H44.7477V7.7H6.44766V10.7ZM43.2477 9.2V26.2H46.2477V9.2H43.2477ZM44.7477 24.7H37.0477V27.7H44.7477V24.7ZM35.5477 26.2V61.5H38.5477V26.2H35.5477ZM37.0477 63H63.5477V60H37.0477V63ZM62.0477 61.5V80H65.0477V61.5H62.0477ZM63.5477 78.5H6.44766V81.5H63.5477V78.5ZM7.94766 80V63H4.94766V80H7.94766Z" fill="white"/>
</svg>
