<svg width="101" height="105" viewBox="0 0 101 105" fill="none" xmlns="http://www.w3.org/2000/svg">
<path d="M2.85586 63H9.55586V26.2H2.85586V9.2H38.3559L51.4559 53.6L63.7559 9.2H98.1559V26.2H91.4559V63H98.1559V80H70.5559V43L59.4559 80H40.3559L29.2559 43V80H2.85586V63Z" fill="black"/>
<path d="M2.85586 63V61.5H1.35586V63H2.85586ZM9.55586 63V64.5H11.0559V63H9.55586ZM9.55586 26.2H11.0559V24.7H9.55586V26.2ZM2.85586 26.2H1.35586V27.7H2.85586V26.2ZM2.85586 9.2V7.7H1.35586V9.2H2.85586ZM38.3559 9.2L39.7945 8.77552L39.4772 7.7H38.3559V9.2ZM51.4559 53.6L50.0172 54.0245L51.5013 59.0546L52.9014 54.0005L51.4559 53.6ZM63.7559 9.2V7.7H62.6149L62.3103 8.79954L63.7559 9.2ZM98.1559 9.2H99.6559V7.7H98.1559V9.2ZM98.1559 26.2V27.7H99.6559V26.2H98.1559ZM91.4559 26.2V24.7H89.9559V26.2H91.4559ZM91.4559 63H89.9559V64.5H91.4559V63ZM98.1559 63H99.6559V61.5H98.1559V63ZM98.1559 80V81.5H99.6559V80H98.1559ZM70.5559 80H69.0559V81.5H70.5559V80ZM70.5559 43H72.0559L69.1191 42.569L70.5559 43ZM59.4559 80V81.5H60.5719L60.8926 80.431L59.4559 80ZM40.3559 80L38.9191 80.431L39.2398 81.5H40.3559V80ZM29.2559 43L30.6926 42.569L27.7559 43H29.2559ZM29.2559 80V81.5H30.7559V80H29.2559ZM2.85586 80H1.35586V81.5H2.85586V80ZM2.85586 64.5H9.55586V61.5H2.85586V64.5ZM11.0559 63V26.2H8.05586V63H11.0559ZM9.55586 24.7H2.85586V27.7H9.55586V24.7ZM4.35586 26.2V9.2H1.35586V26.2H4.35586ZM2.85586 10.7H38.3559V7.7H2.85586V10.7ZM36.9172 9.62448L50.0172 54.0245L52.8945 53.1755L39.7945 8.77552L36.9172 9.62448ZM52.9014 54.0005L65.2014 9.60046L62.3103 8.79954L50.0103 53.1995L52.9014 54.0005ZM63.7559 10.7H98.1559V7.7H63.7559V10.7ZM96.6559 9.2V26.2H99.6559V9.2H96.6559ZM98.1559 24.7H91.4559V27.7H98.1559V24.7ZM89.9559 26.2V63H92.9559V26.2H89.9559ZM91.4559 64.5H98.1559V61.5H91.4559V64.5ZM96.6559 63V80H99.6559V63H96.6559ZM98.1559 78.5H70.5559V81.5H98.1559V78.5ZM72.0559 80V43H69.0559V80H72.0559ZM69.1191 42.569L58.0191 79.569L60.8926 80.431L71.9926 43.431L69.1191 42.569ZM59.4559 78.5H40.3559V81.5H59.4559V78.5ZM41.7926 79.569L30.6926 42.569L27.8191 43.431L38.9191 80.431L41.7926 79.569ZM27.7559 43V80H30.7559V43H27.7559ZM29.2559 78.5H2.85586V81.5H29.2559V78.5ZM4.35586 80V63H1.35586V80H4.35586Z" fill="white"/>
</svg>
