<svg width="101" height="95" viewBox="0 0 101 95" fill="none" xmlns="http://www.w3.org/2000/svg">
<path d="M2.85586 58H9.55586V21.2H2.85586V4.2H38.3559L51.4559 48.6L63.7559 4.2H98.1559V21.2H91.4559V58H98.1559V75H70.5559V38L59.4559 75H40.3559L29.2559 38V75H2.85586V58Z" fill="black"/>
<path d="M2.85586 58V56.5H1.35586V58H2.85586ZM9.55586 58V59.5H11.0559V58H9.55586ZM9.55586 21.2H11.0559V19.7H9.55586V21.2ZM2.85586 21.2H1.35586V22.7H2.85586V21.2ZM2.85586 4.2V2.7H1.35586V4.2H2.85586ZM38.3559 4.2L39.7945 3.77552L39.4772 2.7H38.3559V4.2ZM51.4559 48.6L50.0172 49.0245L51.5013 54.0546L52.9014 49.0005L51.4559 48.6ZM63.7559 4.2V2.7H62.6149L62.3103 3.79954L63.7559 4.2ZM98.1559 4.2H99.6559V2.7H98.1559V4.2ZM98.1559 21.2V22.7H99.6559V21.2H98.1559ZM91.4559 21.2V19.7H89.9559V21.2H91.4559ZM91.4559 58H89.9559V59.5H91.4559V58ZM98.1559 58H99.6559V56.5H98.1559V58ZM98.1559 75V76.5H99.6559V75H98.1559ZM70.5559 75H69.0559V76.5H70.5559V75ZM70.5559 38H72.0559L69.1191 37.569L70.5559 38ZM59.4559 75V76.5H60.5719L60.8926 75.431L59.4559 75ZM40.3559 75L38.9191 75.431L39.2398 76.5H40.3559V75ZM29.2559 38L30.6926 37.569L27.7559 38H29.2559ZM29.2559 75V76.5H30.7559V75H29.2559ZM2.85586 75H1.35586V76.5H2.85586V75ZM2.85586 59.5H9.55586V56.5H2.85586V59.5ZM11.0559 58V21.2H8.05586V58H11.0559ZM9.55586 19.7H2.85586V22.7H9.55586V19.7ZM4.35586 21.2V4.2H1.35586V21.2H4.35586ZM2.85586 5.7H38.3559V2.7H2.85586V5.7ZM36.9172 4.62448L50.0172 49.0245L52.8945 48.1755L39.7945 3.77552L36.9172 4.62448ZM52.9014 49.0005L65.2014 4.60046L62.3103 3.79954L50.0103 48.1995L52.9014 49.0005ZM63.7559 5.7H98.1559V2.7H63.7559V5.7ZM96.6559 4.2V21.2H99.6559V4.2H96.6559ZM98.1559 19.7H91.4559V22.7H98.1559V19.7ZM89.9559 21.2V58H92.9559V21.2H89.9559ZM91.4559 59.5H98.1559V56.5H91.4559V59.5ZM96.6559 58V75H99.6559V58H96.6559ZM98.1559 73.5H70.5559V76.5H98.1559V73.5ZM72.0559 75V38H69.0559V75H72.0559ZM69.1191 37.569L58.0191 74.569L60.8926 75.431L71.9926 38.431L69.1191 37.569ZM59.4559 73.5H40.3559V76.5H59.4559V73.5ZM41.7926 74.569L30.6926 37.569L27.8191 38.431L38.9191 75.431L41.7926 74.569ZM27.7559 38V75H30.7559V38H27.7559ZM29.2559 73.5H2.85586V76.5H29.2559V73.5ZM4.35586 75V58H1.35586V75H4.35586Z" fill="white"/>
</svg>
