<svg width="83" height="105" viewBox="0 0 83 105" fill="none" xmlns="http://www.w3.org/2000/svg">
<path d="M2.88906 63H9.58906V26.2H2.88906V9.2H33.3891L51.8891 44.6V9.2H80.0891V26.2H73.3891V80H50.4891L30.8891 44.7V80H2.88906V63Z" fill="black"/>
<path d="M2.88906 63V61.5H1.38906V63H2.88906ZM9.58906 63V64.5H11.0891V63H9.58906ZM9.58906 26.2H11.0891V24.7H9.58906V26.2ZM2.88906 26.2H1.38906V27.7H2.88906V26.2ZM2.88906 9.2V7.7H1.38906V9.2H2.88906ZM33.3891 9.2L34.7185 8.50525L34.2976 7.7H33.3891V9.2ZM51.8891 44.6L50.5597 45.2947L53.3891 44.6H51.8891ZM51.8891 9.2V7.7H50.3891V9.2H51.8891ZM80.0891 9.2H81.5891V7.7H80.0891V9.2ZM80.0891 26.2V27.7H81.5891V26.2H80.0891ZM73.3891 26.2V24.7H71.8891V26.2H73.3891ZM73.3891 80V81.5H74.8891V80H73.3891ZM50.4891 80L49.1777 80.7281L49.6062 81.5H50.4891V80ZM30.8891 44.7L32.2005 43.9718L29.3891 38.9084V44.7H30.8891ZM30.8891 80V81.5H32.3891V80H30.8891ZM2.88906 80H1.38906V81.5H2.88906V80ZM2.88906 64.5H9.58906V61.5H2.88906V64.5ZM11.0891 63V26.2H8.08906V63H11.0891ZM9.58906 24.7H2.88906V27.7H9.58906V24.7ZM4.38906 26.2V9.2H1.38906V26.2H4.38906ZM2.88906 10.7H33.3891V7.7H2.88906V10.7ZM32.0597 9.89475L50.5597 45.2947L53.2185 43.9053L34.7185 8.50525L32.0597 9.89475ZM53.3891 44.6V9.2H50.3891V44.6H53.3891ZM51.8891 10.7H80.0891V7.7H51.8891V10.7ZM78.5891 9.2V26.2H81.5891V9.2H78.5891ZM80.0891 24.7H73.3891V27.7H80.0891V24.7ZM71.8891 26.2V80H74.8891V26.2H71.8891ZM73.3891 78.5H50.4891V81.5H73.3891V78.5ZM51.8005 79.2719L32.2005 43.9718L29.5777 45.4281L49.1777 80.7281L51.8005 79.2719ZM29.3891 44.7V80H32.3891V44.7H29.3891ZM30.8891 78.5H2.88906V81.5H30.8891V78.5ZM4.38906 80V63H1.38906V80H4.38906Z" fill="white"/>
</svg>
