<svg width="83" height="95" viewBox="0 0 83 95" fill="none" xmlns="http://www.w3.org/2000/svg">
<path d="M2.88906 58H9.58906V21.2H2.88906V4.2H33.3891L51.8891 39.6V4.2H80.0891V21.2H73.3891V75H50.4891L30.8891 39.7V75H2.88906V58Z" fill="black"/>
<path d="M2.88906 58V56.5H1.38906V58H2.88906ZM9.58906 58V59.5H11.0891V58H9.58906ZM9.58906 21.2H11.0891V19.7H9.58906V21.2ZM2.88906 21.2H1.38906V22.7H2.88906V21.2ZM2.88906 4.2V2.7H1.38906V4.2H2.88906ZM33.3891 4.2L34.7185 3.50525L34.2976 2.7H33.3891V4.2ZM51.8891 39.6L50.5597 40.2947L53.3891 39.6H51.8891ZM51.8891 4.2V2.7H50.3891V4.2H51.8891ZM80.0891 4.2H81.5891V2.7H80.0891V4.2ZM80.0891 21.2V22.7H81.5891V21.2H80.0891ZM73.3891 21.2V19.7H71.8891V21.2H73.3891ZM73.3891 75V76.5H74.8891V75H73.3891ZM50.4891 75L49.1777 75.7281L49.6062 76.5H50.4891V75ZM30.8891 39.7L32.2005 38.9719L29.3891 33.9084V39.7H30.8891ZM30.8891 75V76.5H32.3891V75H30.8891ZM2.88906 75H1.38906V76.5H2.88906V75ZM2.88906 59.5H9.58906V56.5H2.88906V59.5ZM11.0891 58V21.2H8.08906V58H11.0891ZM9.58906 19.7H2.88906V22.7H9.58906V19.7ZM4.38906 21.2V4.2H1.38906V21.2H4.38906ZM2.88906 5.7H33.3891V2.7H2.88906V5.7ZM32.0597 4.89475L50.5597 40.2947L53.2185 38.9053L34.7185 3.50525L32.0597 4.89475ZM53.3891 39.6V4.2H50.3891V39.6H53.3891ZM51.8891 5.7H80.0891V2.7H51.8891V5.7ZM78.5891 4.2V21.2H81.5891V4.2H78.5891ZM80.0891 19.7H73.3891V22.7H80.0891V19.7ZM71.8891 21.2V75H74.8891V21.2H71.8891ZM73.3891 73.5H50.4891V76.5H73.3891V73.5ZM51.8005 74.2719L32.2005 38.9719L29.5777 40.4281L49.1777 75.7281L51.8005 74.2719ZM29.3891 39.7V75H32.3891V39.7H29.3891ZM30.8891 73.5H2.88906V76.5H30.8891V73.5ZM4.38906 75V58H1.38906V75H4.38906Z" fill="white"/>
</svg>
