<svg width="70" height="105" viewBox="0 0 70 105" fill="none" xmlns="http://www.w3.org/2000/svg">
<path d="M2.8832 63H9.5832V26.2H2.8832V9.2H39.1832C43.7165 9.2 47.7165 9.76666 51.1832 10.9C54.7165 11.9667 57.6499 13.5333 59.9832 15.6C62.3832 17.6 64.1832 20.0333 65.3832 22.9C66.5832 25.7667 67.1832 28.9333 67.1832 32.4C67.1832 36.1333 66.6832 39.4667 65.6832 42.4C64.6832 45.2667 63.0832 47.6667 60.8832 49.6C58.6832 51.5333 55.8499 53 52.3832 54C48.9832 55 44.8832 55.5 40.0832 55.5H31.8832V63H39.1832V80H2.8832V63ZM38.3832 38.8C42.5832 38.8 44.6832 36.9 44.6832 33.1C44.6832 29.3 42.5832 27.4 38.3832 27.4H31.9832V38.8H38.3832Z" fill="black"/>
<path d="M2.8832 63V61.5H1.3832V63H2.8832ZM9.5832 63V64.5H11.0832V63H9.5832ZM9.5832 26.2H11.0832V24.7H9.5832V26.2ZM2.8832 26.2H1.3832V27.7H2.8832V26.2ZM2.8832 9.2V7.7H1.3832V9.2H2.8832ZM51.1832 10.9L50.7171 12.3257L50.7333 12.331L50.7497 12.336L51.1832 10.9ZM59.9832 15.6L58.9887 16.7229L59.0056 16.7379L59.0229 16.7523L59.9832 15.6ZM65.3832 22.9L66.7669 22.3208L66.7669 22.3208L65.3832 22.9ZM65.6832 42.4L67.0995 42.8941L67.103 42.884L65.6832 42.4ZM60.8832 49.6L59.893 48.4732L59.893 48.4733L60.8832 49.6ZM52.3832 54L51.9675 52.5587L51.96 52.5609L52.3832 54ZM31.8832 55.5V54H30.3832V55.5H31.8832ZM31.8832 63H30.3832V64.5H31.8832V63ZM39.1832 63H40.6832V61.5H39.1832V63ZM39.1832 80V81.5H40.6832V80H39.1832ZM2.8832 80H1.3832V81.5H2.8832V80ZM31.9832 27.4V25.9H30.4832V27.4H31.9832ZM31.9832 38.8H30.4832V40.3H31.9832V38.8ZM2.8832 64.5H9.5832V61.5H2.8832V64.5ZM11.0832 63V26.2H8.0832V63H11.0832ZM9.5832 24.7H2.8832V27.7H9.5832V24.7ZM4.3832 26.2V9.2H1.3832V26.2H4.3832ZM2.8832 10.7H39.1832V7.7H2.8832V10.7ZM39.1832 10.7C43.5951 10.7 47.4323 11.2519 50.7171 12.3257L51.6493 9.47425C48.0008 8.28146 43.838 7.7 39.1832 7.7V10.7ZM50.7497 12.336C54.1133 13.3514 56.8447 14.8239 58.9887 16.7229L60.9778 14.4771C58.4551 12.2428 55.3197 10.5819 51.6167 9.464L50.7497 12.336ZM59.0229 16.7523C61.2388 18.5989 62.8931 20.836 63.9995 23.4792L66.7669 22.3208C65.4733 19.2306 63.5276 16.6011 60.9435 14.4477L59.0229 16.7523ZM63.9995 23.4792C65.1143 26.1424 65.6832 29.1092 65.6832 32.4H68.6832C68.6832 28.7574 68.0521 25.391 66.7669 22.3208L63.9995 23.4792ZM65.6832 32.4C65.6832 36.0013 65.2007 39.1666 64.2634 41.916L67.103 42.884C68.1657 39.7667 68.6832 36.2653 68.6832 32.4H65.6832ZM64.2669 41.9059C63.3488 44.5378 61.8916 46.717 59.893 48.4732L61.8734 50.7267C64.2748 48.6164 66.0176 45.9955 67.0995 42.8941L64.2669 41.9059ZM59.893 48.4733C57.8929 50.2309 55.27 51.6061 51.9675 52.5588L52.7989 55.4412C56.4298 54.3939 59.4735 52.8357 61.8734 50.7267L59.893 48.4733ZM51.96 52.5609C48.7363 53.5091 44.787 54 40.0832 54V57C44.9794 57 49.2302 56.4909 52.8065 55.439L51.96 52.5609ZM40.0832 54H31.8832V57H40.0832V54ZM30.3832 55.5V63H33.3832V55.5H30.3832ZM31.8832 64.5H39.1832V61.5H31.8832V64.5ZM37.6832 63V80H40.6832V63H37.6832ZM39.1832 78.5H2.8832V81.5H39.1832V78.5ZM4.3832 80V63H1.3832V80H4.3832ZM38.3832 40.3C40.6794 40.3 42.6815 39.7839 44.1146 38.4873C45.5761 37.165 46.1832 35.2721 46.1832 33.1H43.1832C43.1832 34.7279 42.7403 35.685 42.1018 36.2627C41.4349 36.8661 40.287 37.3 38.3832 37.3V40.3ZM46.1832 33.1C46.1832 30.9279 45.5761 29.035 44.1146 27.7127C42.6815 26.4161 40.6794 25.9 38.3832 25.9V28.9C40.287 28.9 41.4349 29.3339 42.1018 29.9373C42.7403 30.515 43.1832 31.4721 43.1832 33.1H46.1832ZM38.3832 25.9H31.9832V28.9H38.3832V25.9ZM30.4832 27.4V38.8H33.4832V27.4H30.4832ZM31.9832 40.3H38.3832V37.3H31.9832V40.3Z" fill="white"/>
</svg>
