<svg width="70" height="95" viewBox="0 0 70 95" fill="none" xmlns="http://www.w3.org/2000/svg">
<path d="M2.8832 58H9.5832V21.2H2.8832V4.2H39.1832C43.7165 4.2 47.7165 4.76666 51.1832 5.9C54.7165 6.96666 57.6499 8.53333 59.9832 10.6C62.3832 12.6 64.1832 15.0333 65.3832 17.9C66.5832 20.7667 67.1832 23.9333 67.1832 27.4C67.1832 31.1333 66.6832 34.4667 65.6832 37.4C64.6832 40.2667 63.0832 42.6667 60.8832 44.6C58.6832 46.5333 55.8499 48 52.3832 49C48.9832 50 44.8832 50.5 40.0832 50.5H31.8832V58H39.1832V75H2.8832V58ZM38.3832 33.8C42.5832 33.8 44.6832 31.9 44.6832 28.1C44.6832 24.3 42.5832 22.4 38.3832 22.4H31.9832V33.8H38.3832Z" fill="black"/>
<path d="M2.8832 58V56.5H1.3832V58H2.8832ZM9.5832 58V59.5H11.0832V58H9.5832ZM9.5832 21.2H11.0832V19.7H9.5832V21.2ZM2.8832 21.2H1.3832V22.7H2.8832V21.2ZM2.8832 4.2V2.7H1.3832V4.2H2.8832ZM51.1832 5.9L50.7171 7.32574L50.7333 7.33105L50.7497 7.33599L51.1832 5.9ZM59.9832 10.6L58.9887 11.7229L59.0056 11.7379L59.0229 11.7523L59.9832 10.6ZM65.3832 17.9L66.7669 17.3208L65.3832 17.9ZM65.6832 37.4L67.0995 37.8941L67.103 37.884L65.6832 37.4ZM60.8832 44.6L59.893 43.4733L60.8832 44.6ZM52.3832 49L51.9675 47.5587L51.96 47.561L52.3832 49ZM31.8832 50.5V49H30.3832V50.5H31.8832ZM31.8832 58H30.3832V59.5H31.8832V58ZM39.1832 58H40.6832V56.5H39.1832V58ZM39.1832 75V76.5H40.6832V75H39.1832ZM2.8832 75H1.3832V76.5H2.8832V75ZM31.9832 22.4V20.9H30.4832V22.4H31.9832ZM31.9832 33.8H30.4832V35.3H31.9832V33.8ZM2.8832 59.5H9.5832V56.5H2.8832V59.5ZM11.0832 58V21.2H8.0832V58H11.0832ZM9.5832 19.7H2.8832V22.7H9.5832V19.7ZM4.3832 21.2V4.2H1.3832V21.2H4.3832ZM2.8832 5.7H39.1832V2.7H2.8832V5.7ZM39.1832 5.7C43.5951 5.7 47.4323 6.25187 50.7171 7.32574L51.6493 4.47425C48.0008 3.28146 43.838 2.7 39.1832 2.7V5.7ZM50.7497 7.33599C54.1133 8.35143 56.8447 9.82391 58.9887 11.7229L60.9778 9.47711C58.4551 7.24275 55.3197 5.5819 51.6167 4.464L50.7497 7.33599ZM59.0229 11.7523C61.2388 13.5989 62.8931 15.836 63.9995 18.4792L66.7669 17.3208C65.4733 14.2306 63.5276 11.6011 60.9435 9.44766L59.0229 11.7523ZM63.9995 18.4792C65.1143 21.1424 65.6832 24.1092 65.6832 27.4H68.6832C68.6832 23.7574 68.0521 20.391 66.7669 17.3208L63.9995 18.4792ZM65.6832 27.4C65.6832 31.0013 65.2007 34.1666 64.2634 36.916L67.103 37.884C68.1657 34.7667 68.6832 31.2653 68.6832 27.4H65.6832ZM64.2669 36.9059C63.3488 39.5378 61.8916 41.717 59.893 43.4733L61.8734 45.7267C64.2748 43.6164 66.0176 40.9955 67.0995 37.8941L64.2669 36.9059ZM59.893 43.4733C57.8929 45.2309 55.27 46.6061 51.9675 47.5588L52.7989 50.4412C56.4298 49.3939 59.4735 47.8357 61.8734 45.7267L59.893 43.4733ZM51.96 47.561C48.7363 48.5091 44.787 49 40.0832 49V52C44.9794 52 49.2302 51.4909 52.8065 50.439L51.96 47.561ZM40.0832 49H31.8832V52H40.0832V49ZM30.3832 50.5V58H33.3832V50.5H30.3832ZM31.8832 59.5H39.1832V56.5H31.8832V59.5ZM37.6832 58V75H40.6832V58H37.6832ZM39.1832 73.5H2.8832V76.5H39.1832V73.5ZM4.3832 75V58H1.3832V75H4.3832ZM38.3832 35.3C40.6794 35.3 42.6815 34.7839 44.1146 33.4873C45.5761 32.165 46.1832 30.2721 46.1832 28.1H43.1832C43.1832 29.7279 42.7403 30.685 42.1018 31.2627C41.4349 31.8661 40.287 32.3 38.3832 32.3V35.3ZM46.1832 28.1C46.1832 25.9279 45.5761 24.035 44.1146 22.7127C42.6815 21.4161 40.6794 20.9 38.3832 20.9V23.9C40.287 23.9 41.4349 24.3339 42.1018 24.9373C42.7403 25.515 43.1832 26.4721 43.1832 28.1H46.1832ZM38.3832 20.9H31.9832V23.9H38.3832V20.9ZM30.4832 22.4V33.8H33.4832V22.4H30.4832ZM31.9832 35.3H38.3832V32.3H31.9832V35.3Z" fill="white"/>
</svg>
