<svg width="77" height="105" viewBox="0 0 77 105" fill="none" xmlns="http://www.w3.org/2000/svg">
<path d="M2.81875 63H9.51875V26.2H2.81875V9.2H41.4188C45.9521 9.2 49.9188 9.76666 53.3188 10.9C56.7854 11.9667 59.6521 13.5 61.9188 15.5C64.1854 17.5 65.8854 19.9 67.0188 22.7C68.1521 25.4333 68.7188 28.4667 68.7188 31.8C68.7188 33.9333 68.5188 35.8333 68.1188 37.5C67.7188 39.1 67.0854 40.5667 66.2188 41.9C65.4188 43.1667 64.3854 44.3333 63.1188 45.4C61.9188 46.4 60.4854 47.3667 58.8188 48.3C60.3521 49.5 61.5188 50.9333 62.3188 52.6C63.1854 54.2667 63.9521 55.9 64.6188 57.5C65.3521 59.0333 66.1521 60.3333 67.0188 61.4C67.8854 62.4667 69.1854 63 70.9188 63H74.2188V80H57.0188C54.5521 80 52.4854 79.4667 50.8188 78.4C49.1521 77.3333 47.7521 75.9667 46.6188 74.3C45.4854 72.5667 44.5188 70.6667 43.7188 68.6C42.9188 66.5333 42.1521 64.5333 41.4188 62.6C40.6854 60.6667 39.8521 58.9 38.9188 57.3C38.0521 55.7 36.9854 54.5 35.7188 53.7H31.6188V63H37.7188V80H2.81875V63ZM38.3188 38.2C40.3854 38.2 41.9521 37.7667 43.0188 36.9C44.0854 36.0333 44.6188 34.6333 44.6188 32.7C44.6188 29.0333 42.5188 27.2 38.3188 27.2H31.7188V38.2H38.3188Z" fill="black"/>
<path d="M2.81875 63V61.5H1.31875V63H2.81875ZM9.51875 63V64.5H11.0188V63H9.51875ZM9.51875 26.2H11.0188V24.7H9.51875V26.2ZM2.81875 26.2H1.31875V27.7H2.81875V26.2ZM2.81875 9.2V7.7H1.31875V9.2H2.81875ZM53.3188 10.9L52.8444 12.323L52.861 12.3285L52.8776 12.3337L53.3188 10.9ZM61.9188 15.5L62.9112 14.3752L62.9112 14.3752L61.9188 15.5ZM67.0188 22.7L65.6283 23.2628L65.6331 23.2745L67.0188 22.7ZM68.1188 37.5L69.574 37.8638L69.5757 37.8569L69.5773 37.8501L68.1188 37.5ZM66.2188 41.9L64.9611 41.0825L64.9557 41.0907L64.9505 41.099L66.2188 41.9ZM63.1188 45.4L64.079 46.5523L64.085 46.5474L63.1188 45.4ZM58.8188 48.3L58.0858 46.9912L56.1196 48.0924L57.8943 49.4813L58.8188 48.3ZM62.3188 52.6L60.9665 53.2491L60.9769 53.2707L60.9879 53.292L62.3188 52.6ZM64.6188 57.5L63.2341 58.0769L63.2489 58.1125L63.2656 58.1472L64.6188 57.5ZM74.2188 63H75.7188V61.5H74.2188V63ZM74.2188 80V81.5H75.7188V80H74.2188ZM50.8188 78.4L51.6273 77.1366L51.6273 77.1366L50.8188 78.4ZM46.6188 74.3L45.3633 75.1209L45.3707 75.1322L45.3784 75.1435L46.6188 74.3ZM43.7188 68.6L45.1176 68.0585L45.1176 68.0585L43.7188 68.6ZM41.4188 62.6L42.8212 62.068L42.8212 62.068L41.4188 62.6ZM38.9188 57.3L37.5998 58.0144L37.6111 58.0353L37.6231 58.0558L38.9188 57.3ZM35.7188 53.7L36.5197 52.4318L36.1528 52.2H35.7188V53.7ZM31.6188 53.7V52.2H30.1188V53.7H31.6188ZM31.6188 63H30.1188V64.5H31.6188V63ZM37.7188 63H39.2188V61.5H37.7188V63ZM37.7188 80V81.5H39.2188V80H37.7188ZM2.81875 80H1.31875V81.5H2.81875V80ZM31.7188 27.2V25.7H30.2188V27.2H31.7188ZM31.7188 38.2H30.2188V39.7H31.7188V38.2ZM2.81875 64.5H9.51875V61.5H2.81875V64.5ZM11.0188 63V26.2H8.01875V63H11.0188ZM9.51875 24.7H2.81875V27.7H9.51875V24.7ZM4.31875 26.2V9.2H1.31875V26.2H4.31875ZM2.81875 10.7H41.4188V7.7H2.81875V10.7ZM41.4188 10.7C45.8316 10.7 49.6317 11.2521 52.8444 12.323L53.7931 9.47697C50.2058 8.28121 46.0726 7.7 41.4188 7.7V10.7ZM52.8776 12.3337C56.1807 13.35 58.8481 14.791 60.9263 16.6248L62.9112 14.3752C60.4561 12.209 57.3902 10.5833 53.7599 9.46633L52.8776 12.3337ZM60.9263 16.6248C63.0187 18.4709 64.5824 20.6786 65.6283 23.2628L68.4092 22.1372C67.1885 19.1214 65.3522 16.529 62.9112 14.3752L60.9263 16.6248ZM65.6331 23.2745C66.682 25.8041 67.2188 28.639 67.2188 31.8H70.2188C70.2188 28.2944 69.6222 25.0626 68.4044 22.1255L65.6331 23.2745ZM67.2188 31.8C67.2188 33.8428 67.0269 35.6218 66.6602 37.1499L69.5773 37.8501C70.0106 36.0449 70.2188 34.0239 70.2188 31.8H67.2188ZM66.6635 37.1362C66.3023 38.5811 65.7339 39.8936 64.9611 41.0825L67.4764 42.7175C68.4369 41.2398 69.1352 39.6189 69.574 37.8638L66.6635 37.1362ZM64.9505 41.099C64.241 42.2224 63.3137 43.2749 62.1525 44.2526L64.085 46.5474C65.4572 45.3918 66.5965 44.1109 67.487 42.701L64.9505 41.099ZM62.1585 44.2477C61.0429 45.1773 59.6891 46.0934 58.0858 46.9912L59.5517 49.6088C61.2817 48.6399 62.7946 47.6227 64.079 46.5523L62.1585 44.2477ZM57.8943 49.4813C59.2559 50.5469 60.2716 51.8014 60.9665 53.2491L63.671 51.9509C62.7659 50.0652 61.4482 48.4531 59.7432 47.1187L57.8943 49.4813ZM60.9879 53.292C61.8367 54.9242 62.5851 56.5191 63.2341 58.0769L66.0034 56.9231C65.3191 55.2809 64.5342 53.6091 63.6496 51.908L60.9879 53.292ZM63.2656 58.1472C64.0384 59.7632 64.8983 61.1689 65.8546 62.3459L68.1829 60.4541C67.4059 59.4978 66.6658 58.3035 65.972 56.8528L63.2656 58.1472ZM65.8546 62.3459C67.0783 63.852 68.8623 64.5 70.9188 64.5V61.5C69.5085 61.5 68.6925 61.0813 68.1829 60.4541L65.8546 62.3459ZM70.9188 64.5H74.2188V61.5H70.9188V64.5ZM72.7188 63V80H75.7188V63H72.7188ZM74.2188 78.5H57.0188V81.5H74.2188V78.5ZM57.0188 78.5C54.7681 78.5 52.9994 78.0147 51.6273 77.1366L50.0102 79.6634C51.9715 80.9186 54.336 81.5 57.0188 81.5V78.5ZM51.6273 77.1366C50.1347 76.1813 48.8806 74.9587 47.8591 73.4565L45.3784 75.1435C46.6236 76.9747 48.1694 78.4853 50.0102 79.6634L51.6273 77.1366ZM47.8742 73.4791C46.8022 71.8395 45.8823 70.0341 45.1176 68.0585L42.3199 69.1415C43.1552 71.2992 44.1687 73.2938 45.3633 75.1209L47.8742 73.4791ZM45.1176 68.0585C44.3187 65.9948 43.5533 63.998 42.8212 62.068L40.0163 63.132C40.7509 65.0687 41.5188 67.0719 42.3199 69.1415L45.1176 68.0585ZM42.8212 62.068C42.0619 60.066 41.194 58.2234 40.2144 56.5442L37.6231 58.0558C38.5102 59.5766 39.309 61.2673 40.0163 63.132L42.8212 62.068ZM40.2377 56.5856C39.2748 54.8079 38.0457 53.3955 36.5197 52.4318L34.9178 54.9682C35.9251 55.6045 36.8294 56.5921 37.5998 58.0144L40.2377 56.5856ZM35.7188 52.2H31.6188V55.2H35.7188V52.2ZM30.1188 53.7V63H33.1188V53.7H30.1188ZM31.6188 64.5H37.7188V61.5H31.6188V64.5ZM36.2188 63V80H39.2188V63H36.2188ZM37.7188 78.5H2.81875V81.5H37.7188V78.5ZM4.31875 80V63H1.31875V80H4.31875ZM38.3188 39.7C40.5635 39.7 42.525 39.2339 43.9646 38.0642L42.0729 35.7358C41.3791 36.2995 40.2073 36.7 38.3188 36.7V39.7ZM43.9646 38.0642C45.5081 36.8101 46.1188 34.8925 46.1188 32.7H43.1188C43.1188 34.3742 42.6628 35.2565 42.0729 35.7358L43.9646 38.0642ZM46.1188 32.7C46.1188 30.5785 45.5018 28.7297 44.0302 27.445C42.5976 26.1943 40.6037 25.7 38.3188 25.7V28.7C40.2338 28.7 41.3899 29.1224 42.0573 29.705C42.6857 30.2536 43.1188 31.1549 43.1188 32.7H46.1188ZM38.3188 25.7H31.7188V28.7H38.3188V25.7ZM30.2188 27.2V38.2H33.2188V27.2H30.2188ZM31.7188 39.7H38.3188V36.7H31.7188V39.7Z" fill="white"/>
</svg>
