<svg width="62" height="105" viewBox="0 0 62 105" fill="none" xmlns="http://www.w3.org/2000/svg">
<path d="M3.40117 57.6C7.33451 59.1333 11.0345 60.4333 14.5012 61.5C18.0345 62.5667 21.8012 63.1 25.8012 63.1C28.7345 63.1 30.7012 62.7333 31.7012 62C32.7678 61.2 33.3012 60.2333 33.3012 59.1C33.3012 57.9 32.8012 56.9333 31.8012 56.2C30.8678 55.4 28.9345 54.5333 26.0012 53.6C22.4678 52.4667 19.2345 51.3 16.3012 50.1C13.4345 48.9 10.9678 47.4333 8.90117 45.7C6.90117 43.9 5.33451 41.7667 4.20117 39.3C3.13451 36.7667 2.60117 33.6333 2.60117 29.9C2.60117 26.3 3.30117 23.1 4.70117 20.3C6.10117 17.5 8.06784 15.1667 10.6012 13.3C13.2012 11.3667 16.3345 9.9 20.0012 8.9C23.6678 7.9 27.7678 7.4 32.3012 7.4C38.3678 7.4 43.6345 7.93333 48.1012 9C52.6345 10 56.3345 11 59.2012 12L53.8012 29.2C52.8678 28.8 51.7345 28.3667 50.4012 27.9C49.0678 27.4333 47.6345 27 46.1012 26.6C44.5678 26.2 42.9345 25.8667 41.2012 25.6C39.5345 25.3333 37.8678 25.2 36.2012 25.2C33.8678 25.2 32.0678 25.5667 30.8012 26.3C29.5345 27.0333 28.9012 28 28.9012 29.2C28.9012 29.8667 29.0012 30.4667 29.2012 31C29.4678 31.4667 30.0345 31.9667 30.9012 32.5C31.7678 32.9667 33.0678 33.5333 34.8012 34.2C36.6012 34.8 39.0678 35.6 42.2012 36.6C48.0012 38.4667 52.4012 41.0333 55.4012 44.3C58.4678 47.5 60.0012 51.9667 60.0012 57.7C60.0012 65.7667 57.4678 71.8 52.4012 75.8C47.3345 79.8 39.9345 81.8 30.2012 81.8C25.2678 81.8 20.5012 81.4 15.9012 80.6C11.3678 79.8 7.20117 78.7333 3.40117 77.4V57.6Z" fill="black"/>
<path d="M3.40117 57.6L3.94598 56.2024L1.90117 55.4053V57.6H3.40117ZM14.5012 61.5L14.06 62.9337L14.0677 62.936L14.5012 61.5ZM31.7012 62L32.5882 63.2096L32.5947 63.2048L32.6012 63.2L31.7012 62ZM31.8012 56.2L30.825 57.3389L30.8682 57.3759L30.9141 57.4096L31.8012 56.2ZM26.0012 53.6L25.543 55.0283L25.5464 55.0294L26.0012 53.6ZM16.3012 50.1L15.7219 51.4837L15.7332 51.4883L16.3012 50.1ZM8.90117 45.7L7.89773 46.8149L7.91719 46.8325L7.93725 46.8493L8.90117 45.7ZM4.20117 39.3L2.81872 39.8821L2.82808 39.9043L2.83816 39.9262L4.20117 39.3ZM4.70117 20.3L6.04281 20.9708L6.04281 20.9708L4.70117 20.3ZM10.6012 13.3L11.491 14.5076L11.4962 14.5037L10.6012 13.3ZM48.1012 9L47.7528 10.459L47.7654 10.462L47.7781 10.4648L48.1012 9ZM59.2012 12L60.6323 12.4493L61.0677 11.0625L59.6952 10.5837L59.2012 12ZM53.8012 29.2L53.2103 30.5787L54.7353 31.2323L55.2323 29.6493L53.8012 29.2ZM50.4012 27.9L50.8967 26.4842L50.8967 26.4842L50.4012 27.9ZM46.1012 26.6L46.4798 25.1486L46.4798 25.1486L46.1012 26.6ZM41.2012 25.6L40.9642 27.0812L40.9731 27.0826L41.2012 25.6ZM30.8012 26.3L31.5527 27.5981L31.5527 27.5981L30.8012 26.3ZM29.2012 31L27.7967 31.5267L27.839 31.6395L27.8988 31.7442L29.2012 31ZM30.9012 32.5L30.115 33.7775L30.1519 33.8002L30.19 33.8207L30.9012 32.5ZM34.8012 34.2L34.2627 35.6L34.2945 35.6122L34.3268 35.623L34.8012 34.2ZM42.2012 36.6L42.6607 35.1721L42.6572 35.171L42.2012 36.6ZM55.4012 44.3L54.2964 45.3146L54.3072 45.3263L54.3182 45.3379L55.4012 44.3ZM52.4012 75.8L51.4717 74.6227L51.4717 74.6227L52.4012 75.8ZM15.9012 80.6L15.6405 82.0772L15.6442 82.0778L15.9012 80.6ZM3.40117 77.4H1.90117V78.4633L2.90454 78.8154L3.40117 77.4ZM2.85636 58.9976C6.81843 60.5421 10.5533 61.8547 14.06 62.9337L14.9423 60.0663C11.5157 59.012 7.85058 57.7246 3.94598 56.2024L2.85636 58.9976ZM14.0677 62.936C17.7528 64.0485 21.6666 64.6 25.8012 64.6V61.6C21.9358 61.6 18.3162 61.0848 14.9347 60.064L14.0677 62.936ZM25.8012 64.6C27.3217 64.6 28.6459 64.5056 29.7511 64.2996C30.8354 64.0974 31.8286 63.7666 32.5882 63.2096L30.8141 60.7904C30.5737 60.9667 30.0836 61.1859 29.2012 61.3504C28.3398 61.511 27.214 61.6 25.8012 61.6V64.6ZM32.6012 63.2C33.9702 62.1733 34.8012 60.7924 34.8012 59.1H31.8012C31.8012 59.6743 31.5655 60.2267 30.8012 60.8L32.6012 63.2ZM34.8012 59.1C34.8012 57.4037 34.0584 55.9952 32.6882 54.9904L30.9141 57.4096C31.544 57.8715 31.8012 58.3963 31.8012 59.1H34.8012ZM32.7774 55.0611C31.5857 54.0397 29.3758 53.0997 26.456 52.1706L25.5464 55.0294C28.4932 55.967 30.1499 56.7603 30.825 57.3389L32.7774 55.0611ZM26.4593 52.1717C22.957 51.0483 19.7609 49.8947 16.8691 48.7117L15.7332 51.4883C18.7081 52.7053 21.9787 53.885 25.543 55.0283L26.4593 52.1717ZM16.8804 48.7163C14.1323 47.566 11.8 46.1735 9.86509 44.5507L7.93725 46.8493C10.1357 48.6931 12.7367 50.234 15.722 51.4837L16.8804 48.7163ZM9.90462 44.5851C8.05789 42.923 6.61298 40.9564 5.56419 38.6737L2.83816 39.9262C4.05603 42.5769 5.74445 44.877 7.89773 46.8149L9.90462 44.5851ZM5.58363 38.7179C4.61697 36.4221 4.10117 33.5007 4.10117 29.9H1.10117C1.10117 33.7659 1.65204 37.1112 2.81872 39.8821L5.58363 38.7179ZM4.10117 29.9C4.10117 26.4978 4.76156 23.5333 6.04281 20.9708L3.35953 19.6292C1.84079 22.6667 1.10117 26.1021 1.10117 29.9H4.10117ZM6.04281 20.9708C7.33618 18.3841 9.14753 16.2343 11.491 14.5076L9.71137 12.0924C6.98814 14.099 4.86617 16.6159 3.35953 19.6292L6.04281 20.9708ZM11.4962 14.5037C13.9225 12.6995 16.879 11.3063 20.3958 10.3471L19.6065 7.45285C15.79 8.49371 12.4798 10.0338 9.70612 12.0963L11.4962 14.5037ZM20.3958 10.3471C23.912 9.3882 27.8764 8.9 32.3012 8.9V5.9C27.6593 5.9 23.4237 6.4118 19.6065 7.45285L20.3958 10.3471ZM32.3012 8.9C38.2856 8.9 43.4299 9.42665 47.7528 10.459L48.4496 7.54102C43.8391 6.44001 38.4501 5.9 32.3012 5.9V8.9ZM47.7781 10.4648C52.2803 11.4579 55.9174 12.4432 58.7071 13.4163L59.6952 10.5837C56.7516 9.55684 52.9887 8.54206 48.4243 7.53521L47.7781 10.4648ZM57.77 11.5507L52.37 28.7507L55.2323 29.6493L60.6323 12.4493L57.77 11.5507ZM54.3921 27.8213C53.4179 27.4038 52.2508 26.9582 50.8967 26.4842L49.9056 29.3158C51.2182 29.7752 52.3177 30.1962 53.2103 30.5787L54.3921 27.8213ZM50.8967 26.4842C49.5206 26.0026 48.0479 25.5576 46.4798 25.1486L45.7225 28.0514C47.2211 28.4424 48.6151 28.8641 49.9057 29.3158L50.8967 26.4842ZM46.4798 25.1486C44.8919 24.7343 43.208 24.3911 41.4293 24.1174L40.9731 27.0826C42.661 27.3422 44.2437 27.6656 45.7225 28.0514L46.4798 25.1486ZM41.4382 24.1188C39.6941 23.8398 37.9482 23.7 36.2012 23.7V26.7C37.7875 26.7 39.3749 26.8269 40.9642 27.0812L41.4382 24.1188ZM36.2012 23.7C33.7456 23.7 31.6421 24.0799 30.0496 25.0019L31.5527 27.5981C32.4935 27.0535 33.99 26.7 36.2012 26.7V23.7ZM30.0496 25.0019C28.4392 25.9342 27.4012 27.3397 27.4012 29.2H30.4012C30.4012 28.6603 30.6298 28.1324 31.5527 27.5981L30.0496 25.0019ZM27.4012 29.2C27.4012 30.0165 27.5238 30.7989 27.7967 31.5267L30.6057 30.4733C30.4786 30.1344 30.4012 29.7169 30.4012 29.2H27.4012ZM27.8988 31.7442C28.3582 32.5482 29.1938 33.2106 30.115 33.7775L31.6873 31.2225C30.8752 30.7228 30.5774 30.3851 30.5035 30.2558L27.8988 31.7442ZM30.19 33.8207C31.1416 34.3331 32.5123 34.9268 34.2627 35.6L35.3396 32.8C33.6234 32.1399 32.3941 31.6002 31.6123 31.1793L30.19 33.8207ZM34.3268 35.623C36.1357 36.226 38.6094 37.0282 41.7451 38.029L42.6572 35.171C39.5263 34.1718 37.0666 33.374 35.2755 32.777L34.3268 35.623ZM41.7416 38.0279C47.3827 39.8434 51.5256 42.2976 54.2964 45.3146L56.506 43.2854C53.2767 39.7691 48.6197 37.09 42.6607 35.1721L41.7416 38.0279ZM54.3182 45.3379C57.0455 48.1838 58.5012 52.2357 58.5012 57.7H61.5012C61.5012 51.6977 59.8901 46.8162 56.4842 43.2621L54.3182 45.3379ZM58.5012 57.7C58.5012 65.4335 56.0896 70.977 51.4717 74.6227L53.3306 76.9773C58.8461 72.623 61.5012 66.0998 61.5012 57.7H58.5012ZM51.4717 74.6227C46.7745 78.331 39.7607 80.3 30.2012 80.3V83.3C40.1083 83.3 47.8945 81.269 53.3306 76.9773L51.4717 74.6227ZM30.2012 80.3C25.3492 80.3 20.6687 79.9066 16.1582 79.1222L15.6442 82.0778C20.3337 82.8934 25.1865 83.3 30.2012 83.3V80.3ZM16.1618 79.1228C11.6976 78.335 7.61099 77.2875 3.8978 75.9846L2.90454 78.8154C6.79135 80.1792 11.0381 81.265 15.6405 82.0772L16.1618 79.1228ZM4.90117 77.4V57.6H1.90117V77.4H4.90117Z" fill="white"/>
</svg>
