<svg width="83" height="105" viewBox="0 0 83 105" fill="none" xmlns="http://www.w3.org/2000/svg">
<path d="M9.63789 26.2H2.93789V9.2H33.3379V49.5C33.3379 51.9667 33.5046 53.9667 33.8379 55.5C34.1712 57.0333 34.6712 58.2333 35.3379 59.1C36.0046 59.9667 36.8712 60.5667 37.9379 60.9C39.0046 61.1667 40.3046 61.3 41.8379 61.3C43.3046 61.3 44.5712 61.1667 45.6379 60.9C46.7712 60.5667 47.6712 59.9667 48.3379 59.1C49.0046 58.2333 49.5046 57.0333 49.8379 55.5C50.1712 53.9667 50.3379 51.9667 50.3379 49.5V9.2H80.0379V26.2H73.3379V49.3C73.3379 54.7 72.7712 59.4333 71.6379 63.5C70.5712 67.5667 68.8046 70.9667 66.3379 73.7C63.8712 76.3667 60.6379 78.4 56.6379 79.8C52.6379 81.1333 47.7046 81.8 41.8379 81.8C35.9046 81.8 30.8712 81.1333 26.7379 79.8C22.6712 78.4 19.3712 76.3667 16.8379 73.7C14.3046 70.9667 12.4712 67.5667 11.3379 63.5C10.2046 59.4333 9.63789 54.7 9.63789 49.3V26.2Z" fill="black"/>
<path d="M9.63789 26.2H11.1379V24.7H9.63789V26.2ZM2.93789 26.2H1.43789V27.7H2.93789V26.2ZM2.93789 9.2V7.7H1.43789V9.2H2.93789ZM33.3379 9.2H34.8379V7.7H33.3379V9.2ZM33.8379 55.5L32.3721 55.8186L33.8379 55.5ZM35.3379 59.1L36.5268 58.1854L35.3379 59.1ZM37.9379 60.9L37.4905 62.3317L37.5319 62.3447L37.5741 62.3552L37.9379 60.9ZM45.6379 60.9L46.0017 62.3552L46.0316 62.3477L46.0611 62.339L45.6379 60.9ZM48.3379 59.1L49.5268 60.0146L48.3379 59.1ZM49.8379 55.5L51.3037 55.8186V55.8186L49.8379 55.5ZM50.3379 9.2V7.7H48.8379V9.2H50.3379ZM80.0379 9.2H81.5379V7.7H80.0379V9.2ZM80.0379 26.2V27.7H81.5379V26.2H80.0379ZM73.3379 26.2V24.7H71.8379V26.2H73.3379ZM71.6379 63.5L70.193 63.0973L70.1899 63.1083L70.187 63.1194L71.6379 63.5ZM66.3379 73.7L67.439 74.7186L67.4453 74.7118L67.4515 74.7049L66.3379 73.7ZM56.6379 79.8L57.1122 81.223L57.1229 81.2195L57.1334 81.2158L56.6379 79.8ZM26.7379 79.8L26.2496 81.2183L26.2635 81.2231L26.2774 81.2276L26.7379 79.8ZM16.8379 73.7L15.7377 74.7197L15.744 74.7264L15.7504 74.7331L16.8379 73.7ZM11.3379 63.5L12.7828 63.0973L11.3379 63.5ZM9.63789 24.7H2.93789V27.7H9.63789V24.7ZM4.43789 26.2V9.2H1.43789V26.2H4.43789ZM2.93789 10.7H33.3379V7.7H2.93789V10.7ZM31.8379 9.2V49.5H34.8379V9.2H31.8379ZM31.8379 49.5C31.8379 52.0204 32.007 54.1389 32.3721 55.8186L35.3037 55.1814C35.0022 53.7944 34.8379 51.9129 34.8379 49.5H31.8379ZM32.3721 55.8186C32.7336 57.4812 33.3015 58.9129 34.149 60.0146L36.5268 58.1854C36.041 57.5538 35.6089 56.5855 35.3037 55.1814L32.3721 55.8186ZM34.149 60.0146C35.0081 61.1315 36.1363 61.9085 37.4905 62.3317L38.3853 59.4683C37.6062 59.2248 37.001 58.8019 36.5268 58.1854L34.149 60.0146ZM37.5741 62.3552C38.7961 62.6607 40.2262 62.8 41.8379 62.8V59.8C40.383 59.8 39.213 59.6726 38.3017 59.4448L37.5741 62.3552ZM41.8379 62.8C43.3892 62.8 44.7841 62.6596 46.0017 62.3552L45.2741 59.4448C44.3584 59.6737 43.2199 59.8 41.8379 59.8V62.8ZM46.0611 62.339C47.4729 61.9238 48.651 61.1532 49.5268 60.0146L47.149 58.1854C46.6915 58.7802 46.0696 59.2095 45.2146 59.4609L46.0611 62.339ZM49.5268 60.0146C50.3743 58.9129 50.9422 57.4812 51.3037 55.8186L48.3721 55.1814C48.0669 56.5855 47.6348 57.5538 47.149 58.1854L49.5268 60.0146ZM51.3037 55.8186C51.6688 54.1389 51.8379 52.0204 51.8379 49.5H48.8379C48.8379 51.9129 48.6736 53.7944 48.3721 55.1814L51.3037 55.8186ZM51.8379 49.5V9.2H48.8379V49.5H51.8379ZM50.3379 10.7H80.0379V7.7H50.3379V10.7ZM78.5379 9.2V26.2H81.5379V9.2H78.5379ZM80.0379 24.7H73.3379V27.7H80.0379V24.7ZM71.8379 26.2V49.3H74.8379V26.2H71.8379ZM71.8379 49.3C71.8379 54.5998 71.2812 59.1923 70.193 63.0973L73.0828 63.9027C74.2612 59.6743 74.8379 54.8002 74.8379 49.3H71.8379ZM70.187 63.1194C69.1725 66.9872 67.5087 70.1637 65.2243 72.6951L67.4515 74.7049C70.1004 71.7696 71.97 68.1462 73.0888 63.8806L70.187 63.1194ZM65.2367 72.6814C62.9622 75.1404 59.9497 77.0516 56.1424 78.3842L57.1334 81.2158C61.3261 79.7484 64.7802 77.5929 67.439 74.7186L65.2367 72.6814ZM56.1636 78.377C52.3634 79.6437 47.6015 80.3 41.8379 80.3V83.3C47.8076 83.3 52.9124 82.623 57.1122 81.223L56.1636 78.377ZM41.8379 80.3C36.0078 80.3 31.1397 79.6438 27.1984 78.3724L26.2774 81.2276C30.6028 82.6228 35.8013 83.3 41.8379 83.3V80.3ZM27.2262 78.3817C23.3487 77.0468 20.2668 75.1315 17.9254 72.6669L15.7504 74.7331C18.4756 77.6018 21.9938 79.7532 26.2496 81.2183L27.2262 78.3817ZM17.938 72.6804C15.5876 70.1443 13.8606 66.9646 12.7828 63.0973L9.89295 63.9027C11.0818 68.1687 13.0215 71.789 15.7377 74.7197L17.938 72.6804ZM12.7828 63.0973C11.6946 59.1923 11.1379 54.5998 11.1379 49.3H8.13789C8.13789 54.8002 8.71456 59.6743 9.89295 63.9027L12.7828 63.0973ZM11.1379 49.3V26.2H8.13789V49.3H11.1379Z" fill="white"/>
</svg>
