<svg width="72" height="105" viewBox="0 0 72 105" fill="none" xmlns="http://www.w3.org/2000/svg">
<path d="M10.2598 48.4C10.2598 47.6667 10.0931 47.1 9.75977 46.7C9.42643 46.2333 8.8931 46 8.15977 46C7.35977 46 6.5931 46.1667 5.85977 46.5C5.1931 46.7667 4.52643 47.0667 3.85977 47.4L0.759765 35.4C1.75977 34.6667 2.92643 33.9333 4.25977 33.2C5.65977 32.4667 7.12643 31.8333 8.65977 31.3C10.1931 30.7 11.7264 30.2333 13.2598 29.9C14.8598 29.5667 16.3931 29.4 17.8598 29.4C21.0598 29.4 23.6598 29.8 25.6598 30.6C27.6598 31.3333 29.1931 32.4 30.2598 33.8C31.3931 35.1333 32.1264 36.7333 32.4598 38.6C32.8598 40.4667 33.0598 42.5 33.0598 44.7V56.7C33.0598 59.6333 34.0931 61.1 36.1598 61.1C37.2264 61.1 38.0598 60.7 38.6598 59.9C39.2598 59.1 39.5598 58.0333 39.5598 56.7V30.6H62.3598V62.4C62.3598 63.1333 62.5264 63.7333 62.8598 64.2C63.1931 64.6667 63.7264 64.9 64.4598 64.9C65.2598 64.9 65.9264 64.7667 66.4598 64.5C66.9931 64.2333 67.5931 63.9333 68.2598 63.6L71.2598 75.7C69.3931 77.0333 66.9598 78.3 63.9598 79.5C61.0264 80.6333 57.8264 81.2 54.3598 81.2C51.0931 81.2 48.3931 80.6333 46.2598 79.5C44.1931 78.3667 42.5931 76.5667 41.4598 74.1C39.2598 76.5667 36.9264 78.3667 34.4598 79.5C32.0598 80.6333 29.0598 81.2 25.4598 81.2C20.0598 81.2 16.1598 79.7333 13.7598 76.8C11.4264 73.8 10.2598 69.7 10.2598 64.5V48.4Z" fill="black"/>
<path d="M9.75977 46.7L8.53917 47.5719L8.57165 47.6173L8.60744 47.6603L9.75977 46.7ZM5.85977 46.5L6.41685 47.8927L6.44897 47.8799L6.48047 47.8656L5.85977 46.5ZM3.85977 47.4L2.40744 47.7752L2.87142 49.5712L4.53059 48.7416L3.85977 47.4ZM0.759765 35.4L-0.12728 34.1904L-0.946722 34.7913L-0.692556 35.7752L0.759765 35.4ZM4.25977 33.2L3.56375 31.8713L3.55025 31.8783L3.53689 31.8857L4.25977 33.2ZM8.65977 31.3L9.15255 32.7167L9.17965 32.7073L9.20637 32.6969L8.65977 31.3ZM13.2598 29.9L12.9538 28.4315L12.9411 28.4342L13.2598 29.9ZM25.6598 30.6L25.1027 31.9927L25.1229 32.0008L25.1434 32.0083L25.6598 30.6ZM30.2598 33.8L29.0666 34.7091L29.0909 34.7409L29.1169 34.7715L30.2598 33.8ZM32.4598 38.6L30.9831 38.8637L30.9877 38.8891L30.9931 38.9143L32.4598 38.6ZM38.6598 59.9L39.8598 60.8L38.6598 59.9ZM39.5598 30.6V29.1H38.0598V30.6H39.5598ZM62.3598 30.6H63.8598V29.1H62.3598V30.6ZM62.8598 64.2L64.0804 63.3281L62.8598 64.2ZM66.4598 64.5L67.1306 65.8416H67.1306L66.4598 64.5ZM68.2598 63.6L69.7157 63.239L69.2648 61.4204L67.5889 62.2584L68.2598 63.6ZM71.2598 75.7L72.1316 76.9206L72.9609 76.3282L72.7157 75.339L71.2598 75.7ZM63.9598 79.5L64.5004 80.8992L64.5086 80.896L64.5169 80.8927L63.9598 79.5ZM46.2598 79.5L45.5385 80.8152L45.5472 80.82L45.556 80.8247L46.2598 79.5ZM41.4598 74.1L42.8228 73.4737L41.8659 71.3911L40.3403 73.1016L41.4598 74.1ZM34.4598 79.5L33.8335 78.137L33.8264 78.1403L33.8193 78.1436L34.4598 79.5ZM13.7598 76.8L12.5757 77.7209L12.5871 77.7355L12.5988 77.7499L13.7598 76.8ZM11.7598 48.4C11.7598 47.4571 11.5465 46.5009 10.9121 45.7397L8.60744 47.6603C8.63975 47.6991 8.75977 47.8762 8.75977 48.4H11.7598ZM10.9804 45.8281C10.2884 44.8593 9.22759 44.5 8.15977 44.5V47.5C8.37143 47.5 8.47387 47.5341 8.50854 47.5492C8.53114 47.5591 8.53232 47.5623 8.53917 47.5719L10.9804 45.8281ZM8.15977 44.5C7.14411 44.5 6.16593 44.7131 5.23906 45.1344L6.48047 47.8656C7.02026 47.6202 7.57542 47.5 8.15977 47.5V44.5ZM5.30268 45.1073C4.59598 45.39 3.89139 45.7071 3.18894 46.0584L4.53059 48.7416C5.16147 48.4262 5.79022 48.1434 6.41685 47.8927L5.30268 45.1073ZM5.31209 47.0248L2.21209 35.0248L-0.692556 35.7752L2.40744 47.7752L5.31209 47.0248ZM1.64681 36.6096C2.58424 35.9222 3.694 35.2231 4.98264 34.5143L3.53689 31.8857C2.15886 32.6436 0.93529 33.4112 -0.12728 34.1904L1.64681 36.6096ZM4.95578 34.5287C6.28854 33.8306 7.68714 33.2265 9.15255 32.7167L8.16699 29.8833C6.56573 30.4402 5.03099 31.1027 3.56375 31.8713L4.95578 34.5287ZM9.20637 32.6969C10.6693 32.1244 12.1265 31.6814 13.5784 31.3658L12.9411 28.4342C11.3264 28.7853 9.71691 29.2756 8.11317 29.9031L9.20637 32.6969ZM13.5657 31.3685C15.0763 31.0537 16.5068 30.9 17.8598 30.9V27.9C16.2794 27.9 14.6432 28.0796 12.9538 28.4315L13.5657 31.3685ZM17.8598 30.9C20.953 30.9 23.344 31.2892 25.1027 31.9927L26.2169 29.2073C23.9755 28.3107 21.1665 27.9 17.8598 27.9V30.9ZM25.1434 32.0083C26.9317 32.664 28.2067 33.5805 29.0666 34.7091L31.4529 32.8909C30.1795 31.2195 28.3878 30.0026 26.1761 29.1917L25.1434 32.0083ZM29.1169 34.7715C30.064 35.8858 30.6924 37.2358 30.9831 38.8637L33.9364 38.3363C33.5604 36.2309 32.7222 34.3809 31.4027 32.8285L29.1169 34.7715ZM30.9931 38.9143C31.3679 40.6634 31.5598 42.59 31.5598 44.7H34.5598C34.5598 42.41 34.3517 40.2699 33.9265 38.2857L30.9931 38.9143ZM31.5598 44.7V56.7H34.5598V44.7H31.5598ZM31.5598 56.7C31.5598 58.297 31.8328 59.7629 32.6085 60.8639C33.452 62.0611 34.7239 62.6 36.1598 62.6V59.6C35.5289 59.6 35.2509 59.4056 35.061 59.1361C34.8034 58.7705 34.5598 58.0363 34.5598 56.7H31.5598ZM36.1598 62.6C37.6619 62.6 38.9552 62.0061 39.8598 60.8L37.4598 59C37.1643 59.3939 36.7909 59.6 36.1598 59.6V62.6ZM39.8598 60.8C40.7104 59.6659 41.0598 58.2505 41.0598 56.7H38.0598C38.0598 57.8162 37.8092 58.5341 37.4598 59L39.8598 60.8ZM41.0598 56.7V30.6H38.0598V56.7H41.0598ZM39.5598 32.1H62.3598V29.1H39.5598V32.1ZM60.8598 30.6V62.4H63.8598V30.6H60.8598ZM60.8598 62.4C60.8598 63.3587 61.0792 64.2879 61.6392 65.0719L64.0804 63.3281C63.9736 63.1787 63.8598 62.908 63.8598 62.4H60.8598ZM61.6392 65.0719C62.3312 66.0407 63.3919 66.4 64.4598 66.4V63.4C64.2481 63.4 64.1457 63.3659 64.111 63.3508C64.0884 63.3409 64.0872 63.3377 64.0804 63.3281L61.6392 65.0719ZM64.4598 66.4C65.4167 66.4 66.3303 66.2418 67.1306 65.8416L65.7889 63.1584C65.5225 63.2916 65.1028 63.4 64.4598 63.4V66.4ZM67.1306 65.8416C67.1306 65.8416 67.2309 65.7915 67.2314 65.7913C67.2324 65.7907 67.2335 65.7902 67.2345 65.7897C67.2356 65.7891 67.2367 65.7886 67.2377 65.7881C67.2388 65.7875 67.2398 65.787 67.2409 65.7865C67.242 65.786 67.243 65.7854 67.2441 65.7849C67.2451 65.7844 67.2462 65.7838 67.2473 65.7833C67.2483 65.7828 67.2494 65.7822 67.2504 65.7817C67.2515 65.7812 67.2526 65.7807 67.2536 65.7801C67.2547 65.7796 67.2557 65.7791 67.2568 65.7785C67.2579 65.778 67.2589 65.7775 67.26 65.7769C67.2611 65.7764 67.2621 65.7759 67.2632 65.7753C67.2642 65.7748 67.2653 65.7743 67.2664 65.7738C67.2674 65.7732 67.2685 65.7727 67.2696 65.7722C67.2706 65.7716 67.2717 65.7711 67.2728 65.7706C67.2738 65.77 67.2749 65.7695 67.276 65.769C67.277 65.7684 67.2781 65.7679 67.2791 65.7674C67.2802 65.7668 67.2813 65.7663 67.2823 65.7658C67.2838 65.7651 67.2937 65.7601 67.2952 65.7594C67.2962 65.7588 67.2973 65.7583 67.2984 65.7578C67.2994 65.7572 67.3005 65.7567 67.3016 65.7562C67.3101 65.7519 67.2994 65.7572 67.308 65.7529C67.3165 65.7487 67.3058 65.754 67.3144 65.7497C67.3151 65.7494 67.3201 65.7469 67.3208 65.7465C67.3219 65.746 67.323 65.7454 67.3241 65.7449C67.3251 65.7444 67.3262 65.7438 67.3273 65.7433C67.333 65.7404 67.328 65.7429 67.3337 65.7401C67.3566 65.7286 67.3624 65.7257 67.3855 65.7142C67.397 65.7084 67.3804 65.7167 67.392 65.711C67.3931 65.7104 67.3941 65.7099 67.3952 65.7093C67.3963 65.7088 67.3974 65.7082 67.3985 65.7077C67.4129 65.7005 67.3905 65.7117 67.405 65.7044C67.4079 65.703 67.4086 65.7026 67.4115 65.7012C67.4144 65.6997 67.4347 65.6896 67.4376 65.6881C67.4531 65.6804 67.4483 65.6828 67.4638 65.675C67.4794 65.6672 67.4745 65.6697 67.4902 65.6619C67.5136 65.6501 67.5195 65.6472 67.5431 65.6354C67.5667 65.6236 67.5726 65.6206 67.5964 65.6087C67.5979 65.608 67.6083 65.6028 67.6098 65.602C67.6177 65.5981 67.6153 65.5993 67.6232 65.5953C67.6312 65.5913 67.6421 65.5859 67.6501 65.5819C67.6581 65.5779 67.6961 65.5589 67.7042 65.5548C67.7446 65.5346 67.7182 65.5478 67.7587 65.5276C67.7911 65.5114 67.8359 65.489 67.8689 65.4725C67.8934 65.4602 67.9555 65.4292 67.9806 65.4166C68.2473 65.2833 68.6305 65.0917 68.9306 64.9416L67.5889 62.2584C67.4751 62.3153 67.207 62.4493 67.1014 62.5021C67.0751 62.5153 67.0685 62.5186 67.0423 62.5317C67.0291 62.5383 66.9965 62.5546 66.9835 62.5611C66.9705 62.5676 66.9672 62.5692 66.9542 62.5757C66.953 62.5763 66.9518 62.5769 66.9506 62.5775C66.9494 62.5781 66.9482 62.5788 66.9469 62.5794C66.9437 62.581 66.9429 62.5814 66.9396 62.583C66.9384 62.5836 66.9372 62.5842 66.936 62.5848C66.9348 62.5854 66.9336 62.586 66.9324 62.5867C66.9311 62.5873 66.9299 62.5879 66.9287 62.5885C66.9275 62.5891 66.9263 62.5897 66.9251 62.5903C66.9239 62.5909 66.9227 62.5915 66.9214 62.5921C66.9202 62.5927 66.919 62.5933 66.9178 62.5939C66.9166 62.5945 66.9154 62.5951 66.9142 62.5957C66.913 62.5964 66.9118 62.597 66.9105 62.5976C66.9093 62.5982 66.9081 62.5988 66.9069 62.5994C66.9057 62.6 66.9045 62.6006 66.9033 62.6012C66.9021 62.6018 66.9009 62.6024 66.8997 62.603C66.8984 62.6036 66.8972 62.6042 66.896 62.6048C66.8896 62.608 66.8735 62.6161 66.8671 62.6193C66.8639 62.6209 66.8558 62.6249 66.8526 62.6265C66.8494 62.6281 66.8486 62.6285 66.8454 62.6301C66.8438 62.6309 66.8398 62.6329 66.8382 62.6337C66.837 62.6343 66.8358 62.6349 66.8346 62.6355C66.8334 62.6361 66.8322 62.6367 66.831 62.6373C66.8298 62.6379 66.8286 62.6385 66.8274 62.6391C66.8262 62.6397 66.825 62.6403 66.8238 62.6409C66.8226 62.6415 66.8214 62.6421 66.8202 62.6427C66.819 62.6433 66.8178 62.6439 66.8166 62.6445C66.8154 62.6451 66.8142 62.6457 66.813 62.6463C66.8118 62.6469 66.8107 62.6475 66.8095 62.6481C66.8079 62.6489 66.8039 62.6509 66.8023 62.6517C66.8007 62.6525 66.7967 62.6545 66.7951 62.6553C66.7919 62.6569 66.784 62.6608 66.7808 62.6624C66.7681 62.6688 66.7649 62.6704 66.7522 62.6767C66.751 62.6773 66.7499 62.6779 66.7487 62.6785C66.7475 62.6791 66.7463 62.6797 66.7451 62.6803C66.7439 62.6809 66.7427 62.6815 66.7415 62.6821C66.7404 62.6827 66.7392 62.6832 66.738 62.6838C66.7359 62.6849 66.733 62.6863 66.7309 62.6874C66.7297 62.688 66.7285 62.6886 66.7273 62.6892C66.7261 62.6898 66.7249 62.6904 66.7238 62.691C66.7226 62.6915 66.7214 62.6921 66.7202 62.6927C66.719 62.6933 66.7178 62.6939 66.7167 62.6945C66.7155 62.6951 66.7143 62.6957 66.7131 62.6963C66.7119 62.6969 66.7107 62.6975 66.7096 62.6981C66.7084 62.6986 66.7072 62.6992 66.706 62.6998C66.7048 62.7004 66.7037 62.701 66.7025 62.7016C66.7013 62.7022 66.7001 62.7028 66.6989 62.7034C66.6978 62.704 66.6966 62.7045 66.6954 62.7051C66.6942 62.7057 66.693 62.7063 66.6919 62.7069C66.6907 62.7075 66.6895 62.7081 66.6883 62.7087C66.6871 62.7093 66.686 62.7099 66.6848 62.7104C66.6836 62.711 66.6824 62.7116 66.6812 62.7122C66.6801 62.7128 66.6789 62.7134 66.6777 62.714C66.6765 62.7146 66.6754 62.7152 66.6742 62.7157C66.673 62.7163 66.6718 62.7169 66.6707 62.7175C66.6695 62.7181 66.6683 62.7187 66.6671 62.7193C66.6659 62.7199 66.6648 62.7204 66.6636 62.721C66.6624 62.7216 66.6612 62.7222 66.6601 62.7228C66.6589 62.7234 66.6577 62.724 66.6565 62.7246C66.6554 62.7251 66.6542 62.7257 66.653 62.7263C66.6488 62.7284 66.6431 62.7313 66.639 62.7334C66.5382 62.7837 66.2939 62.9059 66.2014 62.9521C66.1857 62.96 66.1641 62.9708 66.1485 62.9786C66.1368 62.9844 66.1076 62.999 66.096 63.0048C66.0902 63.0078 66.0756 63.015 66.0699 63.0179C66.067 63.0194 66.0597 63.023 66.0568 63.0244C66.0554 63.0251 66.0518 63.0269 66.0503 63.0277C66.0492 63.0282 66.0482 63.0288 66.0471 63.0293C66.046 63.0298 66.0449 63.0304 66.0438 63.0309C66.0427 63.0315 66.0417 63.032 66.0406 63.0325C66.0395 63.0331 66.0384 63.0336 66.0373 63.0342C66.0359 63.0349 66.0323 63.0367 66.0309 63.0374C66.028 63.0388 66.0208 63.0424 66.0179 63.0439C66.0121 63.0468 65.9978 63.0539 65.9921 63.0568C65.9806 63.0625 65.9521 63.0768 65.9407 63.0825C65.9393 63.0832 65.9357 63.085 65.9343 63.0857C65.9332 63.0862 65.9322 63.0867 65.9311 63.0873C65.9301 63.0878 65.929 63.0883 65.9279 63.0889C65.9269 63.0894 65.9258 63.0899 65.9247 63.0905C65.9237 63.091 65.9226 63.0915 65.9215 63.0921C65.9205 63.0926 65.9194 63.0931 65.9184 63.0937C65.9173 63.0942 65.9162 63.0947 65.9152 63.0952C65.9141 63.0958 65.913 63.0963 65.912 63.0968C65.9109 63.0974 65.9099 63.0979 65.9088 63.0984C65.9077 63.099 65.9067 63.0995 65.9056 63.1C65.9046 63.1006 65.9035 63.1011 65.9024 63.1016C65.901 63.1023 65.8975 63.1041 65.8961 63.1048C65.895 63.1053 65.894 63.1059 65.8929 63.1064C65.8918 63.1069 65.8908 63.1074 65.8897 63.108C65.8672 63.1192 65.8869 63.1094 65.8644 63.1206C65.8588 63.1235 65.8447 63.1305 65.8391 63.1333C65.8381 63.1338 65.837 63.1343 65.836 63.1348C65.8349 63.1354 65.8339 63.1359 65.8328 63.1364C65.8318 63.1369 65.8307 63.1375 65.8297 63.138C65.8287 63.1385 65.8276 63.139 65.8266 63.1396C65.8252 63.1403 65.8217 63.142 65.8203 63.1427C65.8147 63.1455 65.8196 63.143 65.814 63.1458C65.813 63.1464 65.8119 63.1469 65.8109 63.1474C65.8098 63.1479 65.8088 63.1484 65.8077 63.149C65.8067 63.1495 65.8056 63.15 65.8046 63.1505C65.8035 63.1511 65.8025 63.1516 65.8015 63.1521C65.7987 63.1535 65.7917 63.157 65.7889 63.1584L67.1306 65.8416ZM66.8038 63.961L69.8039 76.061L72.7157 75.339L69.7157 63.239L66.8038 63.961ZM70.3879 74.4794C68.6496 75.7211 66.3327 76.9353 63.4027 78.1073L64.5169 80.8927C67.5868 79.6647 70.1367 78.3456 72.1316 76.9206L70.3879 74.4794ZM63.4192 78.1008C60.6751 79.161 57.6605 79.7 54.3598 79.7V82.7C57.9924 82.7 61.3778 82.1057 64.5004 80.8992L63.4192 78.1008ZM54.3598 79.7C51.2559 79.7 48.8173 79.1602 46.9635 78.1753L45.556 80.8247C47.9689 82.1065 50.9303 82.7 54.3598 82.7V79.7ZM46.981 78.1848C45.2382 77.229 43.8429 75.694 42.8228 73.4737L40.0968 74.7262C41.3433 77.4393 43.148 79.5043 45.5385 80.8152L46.981 78.1848ZM40.3403 73.1016C38.2486 75.4468 36.0763 77.1065 33.8335 78.137L35.086 80.863C37.7766 79.6268 40.2709 77.6865 42.5792 75.0984L40.3403 73.1016ZM33.8193 78.1436C31.6776 79.155 28.913 79.7 25.4598 79.7V82.7C29.2065 82.7 32.4419 82.1117 35.1003 80.8564L33.8193 78.1436ZM25.4598 79.7C20.3106 79.7 16.93 78.306 14.9207 75.8501L12.5988 77.7499C15.3895 81.1607 19.809 82.7 25.4598 82.7V79.7ZM14.9438 75.8791C12.879 73.2244 11.7598 69.4878 11.7598 64.5H8.75977C8.75977 69.9122 9.97383 74.3756 12.5757 77.7209L14.9438 75.8791ZM11.7598 64.5V48.4H8.75977V64.5H11.7598Z" fill="white"/>
</svg>
