<svg width="83" height="95" viewBox="0 0 83 95" fill="none" xmlns="http://www.w3.org/2000/svg">
<path d="M9.63789 21.2H2.93789V4.2H33.3379V44.5C33.3379 46.9667 33.5046 48.9667 33.8379 50.5C34.1712 52.0333 34.6712 53.2333 35.3379 54.1C36.0046 54.9667 36.8712 55.5667 37.9379 55.9C39.0046 56.1667 40.3046 56.3 41.8379 56.3C43.3046 56.3 44.5712 56.1667 45.6379 55.9C46.7712 55.5667 47.6712 54.9667 48.3379 54.1C49.0046 53.2333 49.5046 52.0333 49.8379 50.5C50.1712 48.9667 50.3379 46.9667 50.3379 44.5V4.2H80.0379V21.2H73.3379V44.3C73.3379 49.7 72.7712 54.4333 71.6379 58.5C70.5712 62.5667 68.8046 65.9667 66.3379 68.7C63.8712 71.3667 60.6379 73.4 56.6379 74.8C52.6379 76.1333 47.7046 76.8 41.8379 76.8C35.9046 76.8 30.8712 76.1333 26.7379 74.8C22.6712 73.4 19.3712 71.3667 16.8379 68.7C14.3046 65.9667 12.4712 62.5667 11.3379 58.5C10.2046 54.4333 9.63789 49.7 9.63789 44.3V21.2Z" fill="black"/>
<path d="M9.63789 21.2H11.1379V19.7H9.63789V21.2ZM2.93789 21.2H1.43789V22.7H2.93789V21.2ZM2.93789 4.2V2.7H1.43789V4.2H2.93789ZM33.3379 4.2H34.8379V2.7H33.3379V4.2ZM33.8379 50.5L32.3721 50.8186L33.8379 50.5ZM35.3379 54.1L36.5268 53.1854L35.3379 54.1ZM37.9379 55.9L37.4905 57.3317L37.5319 57.3447L37.5741 57.3552L37.9379 55.9ZM45.6379 55.9L46.0017 57.3552L46.0316 57.3477L46.0611 57.339L45.6379 55.9ZM48.3379 54.1L49.5268 55.0146L48.3379 54.1ZM49.8379 50.5L51.3037 50.8186V50.8186L49.8379 50.5ZM50.3379 4.2V2.7H48.8379V4.2H50.3379ZM80.0379 4.2H81.5379V2.7H80.0379V4.2ZM80.0379 21.2V22.7H81.5379V21.2H80.0379ZM73.3379 21.2V19.7H71.8379V21.2H73.3379ZM71.6379 58.5L70.193 58.0973L70.1899 58.1083L70.187 58.1194L71.6379 58.5ZM66.3379 68.7L67.439 69.7186L67.4453 69.7118L67.4515 69.7049L66.3379 68.7ZM56.6379 74.8L57.1122 76.223L57.1229 76.2195L57.1334 76.2158L56.6379 74.8ZM26.7379 74.8L26.2496 76.2183L26.2635 76.2231L26.2774 76.2276L26.7379 74.8ZM16.8379 68.7L15.7377 69.7197L15.744 69.7264L15.7504 69.7331L16.8379 68.7ZM11.3379 58.5L12.7828 58.0973L11.3379 58.5ZM9.63789 19.7H2.93789V22.7H9.63789V19.7ZM4.43789 21.2V4.2H1.43789V21.2H4.43789ZM2.93789 5.7H33.3379V2.7H2.93789V5.7ZM31.8379 4.2V44.5H34.8379V4.2H31.8379ZM31.8379 44.5C31.8379 47.0204 32.007 49.1389 32.3721 50.8186L35.3037 50.1814C35.0022 48.7944 34.8379 46.9129 34.8379 44.5H31.8379ZM32.3721 50.8186C32.7336 52.4812 33.3015 53.9129 34.149 55.0146L36.5268 53.1854C36.041 52.5538 35.6089 51.5855 35.3037 50.1814L32.3721 50.8186ZM34.149 55.0146C35.0081 56.1315 36.1363 56.9085 37.4905 57.3317L38.3853 54.4683C37.6062 54.2248 37.001 53.8019 36.5268 53.1854L34.149 55.0146ZM37.5741 57.3552C38.7961 57.6607 40.2262 57.8 41.8379 57.8V54.8C40.383 54.8 39.213 54.6726 38.3017 54.4448L37.5741 57.3552ZM41.8379 57.8C43.3892 57.8 44.7841 57.6596 46.0017 57.3552L45.2741 54.4448C44.3584 54.6737 43.2199 54.8 41.8379 54.8V57.8ZM46.0611 57.339C47.4729 56.9238 48.651 56.1532 49.5268 55.0146L47.149 53.1854C46.6915 53.7802 46.0696 54.2095 45.2146 54.4609L46.0611 57.339ZM49.5268 55.0146C50.3743 53.9129 50.9422 52.4812 51.3037 50.8186L48.3721 50.1814C48.0669 51.5855 47.6348 52.5538 47.149 53.1854L49.5268 55.0146ZM51.3037 50.8186C51.6688 49.1389 51.8379 47.0204 51.8379 44.5H48.8379C48.8379 46.9129 48.6736 48.7944 48.3721 50.1814L51.3037 50.8186ZM51.8379 44.5V4.2H48.8379V44.5H51.8379ZM50.3379 5.7H80.0379V2.7H50.3379V5.7ZM78.5379 4.2V21.2H81.5379V4.2H78.5379ZM80.0379 19.7H73.3379V22.7H80.0379V19.7ZM71.8379 21.2V44.3H74.8379V21.2H71.8379ZM71.8379 44.3C71.8379 49.5998 71.2812 54.1923 70.193 58.0973L73.0828 58.9027C74.2612 54.6743 74.8379 49.8002 74.8379 44.3H71.8379ZM70.187 58.1194C69.1725 61.9872 67.5087 65.1637 65.2243 67.6951L67.4515 69.7049C70.1004 66.7696 71.97 63.1462 73.0888 58.8806L70.187 58.1194ZM65.2367 67.6814C62.9622 70.1404 59.9497 72.0516 56.1424 73.3842L57.1334 76.2158C61.3261 74.7484 64.7802 72.5929 67.439 69.7186L65.2367 67.6814ZM56.1636 73.377C52.3634 74.6437 47.6015 75.3 41.8379 75.3V78.3C47.8076 78.3 52.9124 77.623 57.1122 76.223L56.1636 73.377ZM41.8379 75.3C36.0078 75.3 31.1397 74.6438 27.1984 73.3724L26.2774 76.2276C30.6028 77.6228 35.8013 78.3 41.8379 78.3V75.3ZM27.2262 73.3817C23.3487 72.0468 20.2668 70.1315 17.9254 67.6669L15.7504 69.7331C18.4756 72.6018 21.9938 74.7532 26.2496 76.2183L27.2262 73.3817ZM17.938 67.6804C15.5876 65.1443 13.8606 61.9646 12.7828 58.0973L9.89295 58.9027C11.0818 63.1687 13.0215 66.789 15.7377 69.7197L17.938 67.6804ZM12.7828 58.0973C11.6946 54.1923 11.1379 49.5998 11.1379 44.3H8.13789C8.13789 49.8002 8.71456 54.6743 9.89295 58.9027L12.7828 58.0973ZM11.1379 44.3V21.2H8.13789V44.3H11.1379Z" fill="white"/>
</svg>
