<svg width="119" height="105" viewBox="0 0 119 105" fill="none" xmlns="http://www.w3.org/2000/svg">
<path d="M10.4086 26.2H3.40859V9.2H31.7086L38.9086 52.3L48.2086 9.2H73.8086L83.1086 52.3L90.3086 9.2H115.609V26.2H108.609L95.4086 80H68.5086L59.2086 38.7L50.3086 80H23.4086L10.4086 26.2Z" fill="black"/>
<path d="M10.4086 26.2L11.8666 25.8477L11.5893 24.7H10.4086V26.2ZM3.40859 26.2H1.90859V27.7H3.40859V26.2ZM3.40859 9.2V7.7H1.90859V9.2H3.40859ZM31.7086 9.2L33.1881 8.95284L32.9788 7.7H31.7086V9.2ZM38.9086 52.3L37.4291 52.5472L40.3748 52.6164L38.9086 52.3ZM48.2086 9.2V7.7H46.9977L46.7423 8.88362L48.2086 9.2ZM73.8086 9.2L75.2748 8.88362L75.0195 7.7H73.8086V9.2ZM83.1086 52.3L81.6423 52.6164L84.5881 52.5472L83.1086 52.3ZM90.3086 9.2V7.7H89.0384L88.8291 8.95284L90.3086 9.2ZM115.609 9.2H117.109V7.7H115.609V9.2ZM115.609 26.2V27.7H117.109V26.2H115.609ZM108.609 26.2V24.7H107.432L107.152 25.8426L108.609 26.2ZM95.4086 80V81.5H96.5851L96.8654 80.3574L95.4086 80ZM68.5086 80L67.0452 80.3295L67.3088 81.5H68.5086V80ZM59.2086 38.7L60.672 38.3705L57.7423 38.384L59.2086 38.7ZM50.3086 80V81.5H51.5198L51.7749 80.316L50.3086 80ZM23.4086 80L21.9506 80.3523L22.2279 81.5H23.4086V80ZM10.4086 24.7H3.40859V27.7H10.4086V24.7ZM4.90859 26.2V9.2H1.90859V26.2H4.90859ZM3.40859 10.7H31.7086V7.7H3.40859V10.7ZM30.2291 9.44715L37.4291 52.5472L40.3881 52.0528L33.1881 8.95284L30.2291 9.44715ZM40.3748 52.6164L49.6749 9.51638L46.7423 8.88362L37.4423 51.9836L40.3748 52.6164ZM48.2086 10.7H73.8086V7.7H48.2086V10.7ZM72.3423 9.51638L81.6423 52.6164L84.5749 51.9836L75.2748 8.88362L72.3423 9.51638ZM84.5881 52.5472L91.7881 9.44715L88.8291 8.95284L81.6291 52.0528L84.5881 52.5472ZM90.3086 10.7H115.609V7.7H90.3086V10.7ZM114.109 9.2V26.2H117.109V9.2H114.109ZM115.609 24.7H108.609V27.7H115.609V24.7ZM107.152 25.8426L93.9518 79.6426L96.8654 80.3574L110.065 26.5574L107.152 25.8426ZM95.4086 78.5H68.5086V81.5H95.4086V78.5ZM69.972 79.6705L60.672 38.3705L57.7452 39.0295L67.0452 80.3295L69.972 79.6705ZM57.7423 38.384L48.8423 79.684L51.7749 80.316L60.6749 39.016L57.7423 38.384ZM50.3086 78.5H23.4086V81.5H50.3086V78.5ZM24.8666 79.6477L11.8666 25.8477L8.95056 26.5523L21.9506 80.3523L24.8666 79.6477Z" fill="white"/>
</svg>
